<?xml version="1.0" encoding="UTF-8"?>
<svg id="Layer_1" data-name="Layer 1" xmlns="http://www.w3.org/2000/svg" xmlns:xlink="http://www.w3.org/1999/xlink" viewBox="0 0 405 398">
  <defs>
    <style>
      .cls-1 {
        fill: #ebb871;
      }

      .cls-1, .cls-2, .cls-3, .cls-4, .cls-5, .cls-6, .cls-7, .cls-8, .cls-9, .cls-10, .cls-11, .cls-12, .cls-13, .cls-14 {
        fill-rule: evenodd;
      }

      .cls-2 {
        fill: url(#radial-gradient);
      }

      .cls-3 {
        fill: url(#radial-gradient-10);
      }

      .cls-15 {
        fill: none;
        stroke: #ebb871;
        stroke-linejoin: round;
      }

      .cls-5 {
        fill: #20204b;
      }

      .cls-6 {
        fill: url(#linear-gradient);
      }

      .cls-7 {
        fill: url(#radial-gradient-7);
      }

      .cls-8 {
        fill: url(#radial-gradient-5);
      }

      .cls-9 {
        fill: url(#radial-gradient-6);
      }

      .cls-10 {
        fill: url(#radial-gradient-4);
      }

      .cls-11 {
        fill: url(#radial-gradient-8);
      }

      .cls-12 {
        fill: url(#radial-gradient-9);
      }

      .cls-13 {
        fill: url(#radial-gradient-3);
      }

      .cls-14 {
        fill: url(#radial-gradient-2);
      }
    </style>
    <radialGradient id="radial-gradient" cx="-645.87" cy="1527.88" fx="-645.87" fy="1527.88" r="7.34" gradientTransform="translate(4946.32 11486.31) scale(7.34 -7.34)" gradientUnits="userSpaceOnUse">
      <stop offset="0" stop-color="#343479"/>
      <stop offset="1" stop-color="#0e0e1c"/>
    </radialGradient>
    <radialGradient id="radial-gradient-2" cx="-679.54" cy="1585.32" fx="-679.54" fy="1585.32" r="9.77" gradientTransform="translate(6844.19 15685.97) scale(9.77 -9.77)" gradientUnits="userSpaceOnUse">
      <stop offset="0" stop-color="#d473c9"/>
      <stop offset="1" stop-color="#0e0e1c"/>
    </radialGradient>
    <radialGradient id="radial-gradient-3" cx="-669.34" cy="1582.32" fx="-669.34" fy="1582.32" r="9.14" gradientTransform="translate(6348.22 14588.46) scale(9.14 -9.14)" gradientUnits="userSpaceOnUse">
      <stop offset="0" stop-color="#f3d5ab"/>
      <stop offset="1" stop-color="#dc9b3f"/>
    </radialGradient>
    <linearGradient id="linear-gradient" x1="-596.46" y1="1446.51" x2="-596.46" y2="1441.5" gradientTransform="translate(3503.73 7307.71) rotate(-2.45) scale(5.02 -5.02)" gradientUnits="userSpaceOnUse">
      <stop offset="0" stop-color="#343479"/>
      <stop offset="1" stop-color="#0e0e1c"/>
    </linearGradient>
    <radialGradient id="radial-gradient-4" cx="-660.59" cy="1559.51" fx="-660.59" fy="1559.51" r="8.14" gradientTransform="translate(6171.11 12595.91) rotate(-2.45) scale(8.15 -8.15)" gradientUnits="userSpaceOnUse">
      <stop offset="0" stop-color="#343479"/>
      <stop offset="1" stop-color="#0e0e1c"/>
    </radialGradient>
    <radialGradient id="radial-gradient-5" cx="-636.73" cy="1516.37" fx="-636.73" fy="1516.37" r="6.38" gradientTransform="translate(4669.56 9619) rotate(-2.45) scale(6.39 -6.39)" gradientUnits="userSpaceOnUse">
      <stop offset="0" stop-color="#343479"/>
      <stop offset="1" stop-color="#0e0e1c"/>
    </radialGradient>
    <radialGradient id="radial-gradient-6" cx="-591.06" cy="1442.2" fx="-591.06" fy="1442.2" r="4.74" gradientTransform="translate(3264.87 6834.14) rotate(-2.45) scale(4.74 -4.74)" gradientUnits="userSpaceOnUse">
      <stop offset="0" stop-color="#343479"/>
      <stop offset="1" stop-color="#0e0e1c"/>
    </radialGradient>
    <radialGradient id="radial-gradient-7" cx="-315.91" cy="1054.73" fx="-315.91" fy="1054.73" r="2.01" gradientTransform="translate(932.21 2209.54) rotate(-2.45) scale(2.01 -2.01)" gradientUnits="userSpaceOnUse">
      <stop offset="0" stop-color="#343479"/>
      <stop offset="1" stop-color="#0e0e1c"/>
    </radialGradient>
    <radialGradient id="radial-gradient-8" cx="-453.44" cy="1245.4" fx="-453.44" fy="1245.4" r="2.82" gradientTransform="translate(1630.42 3593.76) rotate(-2.45) scale(2.83 -2.83)" gradientUnits="userSpaceOnUse">
      <stop offset="0" stop-color="#343479"/>
      <stop offset="1" stop-color="#0e0e1c"/>
    </radialGradient>
    <radialGradient id="radial-gradient-9" cx="-415.73" cy="1168.59" fx="-415.73" fy="1168.59" r="2.42" gradientTransform="translate(1286.34 2911.63) rotate(-2.45) scale(2.42 -2.42)" gradientUnits="userSpaceOnUse">
      <stop offset="0" stop-color="#343479"/>
      <stop offset="1" stop-color="#0e0e1c"/>
    </radialGradient>
    <radialGradient id="radial-gradient-10" cx="-414.54" cy="1180.39" fx="-414.54" fy="1180.39" r="2.42" gradientTransform="translate(1288.06 2915.15) rotate(-2.45) scale(2.42 -2.42)" gradientUnits="userSpaceOnUse">
      <stop offset="0" stop-color="#343479"/>
      <stop offset="1" stop-color="#0e0e1c"/>
    </radialGradient>
  </defs>
  <path class="cls-2" d="M153.88,274.94l.21-5.39,1.76-9.85,1.04-4.56,11.3,6.32,15.34,4.77,16.9,1.55,15.35-1.04,11.72-2.9,9.33-3.52,10.47-5.91,3.52-2.9,2.49,6.33,2.18,12.34-.31,1.45-9.96,5.91-12.13,5.08-13.06,3.22-13.17,1.66h-11.92l-12.34-1.14-11.51-3.22-8.09-2.9-9.12-5.29Z"/>
  <path class="cls-14" d="M134.44,190.07h0c0-37.31,30.25-67.56,67.56-67.56h0c17.92,0,35.1,7.12,47.77,19.79,12.67,12.67,19.79,29.85,19.79,47.77h0c0,37.31-30.25,67.56-67.56,67.56h0c-37.31,0-67.56-30.25-67.56-67.56Z"/>
  <path class="cls-13" d="M248,133.95l-19.49-2.59-11.2-1.45-17.11-1.24-4.46-.21-2.59.72-.62,3.01,2.59,4.56,8.61,6.33,12.86,3.63,7.67,1.35,8.19,3.94,8.81,4.98,7.67,2.8,10.68.21,11.92-2.28,15.76-2.59,10.37-1.45,7.46-.93,2.39-6.84.93-7.26-1.04-7.88-1.97-5.08-6.74-.62-9.96-2.1-13.79-5.39-12.96-6.43-9.95-6.01-7.15-3.84-7.15-2.18-17.83-.1-13.06,1.56-.83,1.04-9.23-2.39-16.66-2.41-17.52-.62-7.26.62,2.39,5.5,5.81,3.32,11.3,4.04,4.35.62-15.66,10.78-9.44,6.53,1.76,3.11,4.87,1.66,4.46-.1,13.17-7.57-5.29,3.52,4.87-1.35,5.6-1.87,9.13-1.97,8.81-.62,5.08-.31,4.98-1.55,7.15,4.15,8.09,5.39"/>
  <path class="cls-1" d="M203.38,26c11.34,0,22.68,1.2,33.85,3.58,17.2,3.39,34.02,9.79,49.21,18.4,15.01,8.61,28.82,19.01,40.44,31.62,12,12.42,22.02,26.82,29.62,42.23,7.81,15.81,13.2,32.84,15.81,50.25,1.39,9.2,2.19,17.81,2.19,26.61,0,18.02-2.8,36.02-8.19,53.02-5.2,16.61-13.22,32.23-23.22,46.65-10,14-22.21,26.61-35.83,37.22-13.81,10.4-29.01,19.01-45.43,25.01-16.61,6.21-34.63,9.81-52.44,10.42-2.42.09-4.87.14-7.29.14-15.74,0-31.29-2.21-46.53-6.56-16.82-4.8-33.03-12.21-47.43-22-14.42-9.62-27.43-21.22-38.04-34.63-11.01-13.22-19.81-28.23-26.42-44.23-6.59-16.61-10.59-34.02-12.21-51.82-1.39-18.02,0-36.23,4.21-54.04,4-17.01,10.82-33.24,19.81-48.25,8.82-14.8,20.02-28.02,32.82-39.62,12.82-11.41,27.22-21.01,43.03-28.21,16.23-7.41,33.43-12.21,51.24-14.42,6.92-.92,13.86-1.36,20.8-1.36ZM203.17,25.67c-16.14,0-32.2,2.07-47.8,6.49-17.01,4.61-33.22,12.02-48.01,21.41-14.42,9.62-27.83,21.22-39.03,34.63-11.22,13.41-20.21,28.42-27.03,44.63-6.8,16.82-11.01,34.42-12.4,52.44-1.6,18.42,0,37.03,4.4,55.02,4.21,17.03,11.01,33.43,20.21,48.44,9.01,15.01,20.61,28.63,33.62,40.04,13.01,11.6,28.02,21.01,43.83,28.21,16.23,7.41,33.43,12,51.24,14.02,6.92.89,13.88,1.34,20.87,1.34,11.39,0,22.8-1.2,33.97-3.55,17.22-3.41,34.02-9.41,49.42-18.02,15.22-8.4,29.22-19.2,41.64-31.81,12.21-12.42,22.21-27.03,30.21-42.63,8.02-16.02,13.41-33.03,16.21-50.65,1.6-8.7,2-17.62,2.02-26.54h0c.12-.07.19-.16.19-.26,0-18.23-2.61-36.23-8.4-53.45-5.6-16.8-13.62-32.82-23.83-47.03-10.19-14.21-22.4-26.82-36.2-37.22-14.02-10.61-29.22-19.01-45.83-25.03-17.03-6.4-34.84-9.79-53.05-10.4-2.07-.07-4.16-.09-6.23-.09Z"/>
  <path class="cls-1" d="M117.99,180.44c-.52,0-.96.12-1.43.21-2,1.01-2,4.02.4,4.82.26.09.52.14.75.14,2.16,0,3.43-3.69,1.46-4.96-.42-.16-.82-.21-1.18-.21Z"/>
  <path class="cls-1" d="M331.64,137.15c-.24,0-.49.02-.75.07-2.61.61-2.21,5.22.59,5.22,1.01,0,1.81-.61,2.21-1.2,1.27-1.81.09-4.09-2.05-4.09Z"/>
  <path class="cls-1" d="M294.42,183.12c-2.28,0-3.51,3.48-1.36,4.75.45.26.82.38,1.18.38.4,0,.8-.16,1.22-.38,2-1.01,2-4-.19-4.61-.31-.09-.59-.14-.85-.14Z"/>
  <path class="cls-1" d="M286.05,250.71c-1.39,0-2,.59-2.4,1.2-1.08,1.79.12,4.09,2.12,4.09.21,0,.45-.02.68-.09,2.82-.59,2.21-5.2-.4-5.2Z"/>
  <path class="cls-1" d="M178.4,306.8c-2.14,0-3.39,3.53-1.41,4.96.49.21,1.01.31,1.46.31s.85-.09,1.15-.31c2-.99,2-4-.4-4.8-.28-.12-.54-.16-.8-.16Z"/>
  <path class="cls-1" d="M69.53,160.84c-1.2,0-1.6.61-2.21,1.41-1.11,1.83,0,4.05,2.23,4.05.19,0,.38-.02.56-.05,2.8-.8,2.21-5.41-.59-5.41Z"/>
  <path class="cls-1" d="M93.05,251.48c-.52,0-1.06.09-1.51.21-2,1.01-2,4.02.4,4.82.26.09.52.14.78.14,2.14,0,3.39-3.53,1.41-4.96-.33-.16-.71-.21-1.08-.21Z"/>
  <path class="cls-1" d="M73.27,141.15c-.24,0-.49.02-.75.09-2.59.59-2.19,5.2.61,5.2.99,0,1.81-.61,2.21-1.2,1.06-1.81.05-4.09-2.07-4.09Z"/>
  <path class="cls-1" d="M263.34,318.98c-.49,0-.89.14-1.11.38-2,.99-2,4,.21,4.59.28.12.56.16.82.16,2.31,0,3.53-3.51,1.36-4.75-.45-.28-.89-.38-1.29-.38Z"/>
  <path class="cls-1" d="M98.08,94.6c-.19,0-.38.02-.56.05-2.8.8-2.19,5.2.61,5.2,1.2,0,2-.4,2.19-1.2,1.13-1.86,0-4.05-2.23-4.05Z"/>
  <path class="cls-1" d="M229.18,49c-2.26,0-3.34,3.51-1.36,4.78.26.26.66.38,1.06.38.49,0,1.01-.16,1.34-.38,2-1.01,2-4.02-.19-4.61-.31-.09-.59-.16-.85-.16Z"/>
  <path class="cls-1" d="M146.38,316.95c-1.01,0-1.81.59-2.21,1.39-1.11,1.86,0,4.05,2.23,4.05.19,0,.38,0,.56-.05,2.61-.8,2.21-5.39-.59-5.39Z"/>
  <path class="cls-1" d="M333.4,150.12c-.52,0-.94.21-1.32.33-2,.99-2,4,.21,4.8.26.09.54.14.8.14,2.28,0,3.36-3.69,1.39-4.94-.4-.24-.75-.33-1.08-.33Z"/>
  <path class="cls-1" d="M117.35,165.45c-1.2,0-2,.4-2.21,1.2-1.08,1.81-.05,4.09,2.07,4.09.24,0,.47-.02.75-.09,2.59-.8,2.19-5.2-.61-5.2Z"/>
  <path class="cls-1" d="M130.07,109.61c-.19,0-.35.02-.54.05-2.8.8-2.19,5.2.4,5.2,1.41,0,1.81-.4,2.4-1.2,1.13-1.86-.16-4.05-2.26-4.05Z"/>
  <path class="cls-1" d="M253.58,81.51c-.47,0-.87.12-1.22.24-2,.99-2,4,.19,4.8.31.12.59.16.85.16,2.26,0,3.34-3.53,1.36-4.96-.42-.16-.82-.24-1.18-.24Z"/>
  <path class="cls-1" d="M212.2,80.14c-.49,0-1.01.12-1.48.24-2,1.01-2,4,.21,4.8.28.12.56.16.82.16,2.31,0,3.53-3.53,1.36-4.96-.26-.16-.56-.24-.92-.24Z"/>
  <path class="cls-1" d="M128.33,98.86c-1.39,0-2,.59-2.19,1.39-1.29,1.86-.02,4.05,2.07,4.05.16,0,.35,0,.52-.05,2.8-.8,2.4-5.39-.4-5.39Z"/>
  <path class="cls-1" d="M146.25,71.74c-.99,0-1.6.4-2.19,1.2-1.11,1.86,0,4.05,2.23,4.05.19,0,.38,0,.56-.05,2.8-.8,2.21-5.2-.61-5.2Z"/>
  <path class="cls-1" d="M270.4,242.54c-2.28,0-3.51,3.53-1.36,4.96.31.19.71.31,1.13.31s.87-.12,1.27-.31c2-1.01,2-4-.19-4.8-.31-.12-.59-.16-.85-.16Z"/>
  <path class="cls-1" d="M337.7,203.02c-.42,0-.82.14-1.22.45-2,1.01-2,4,.21,4.8.24.07.47.12.68.12,2.4,0,3.72-3.62,1.72-4.92-.52-.31-.96-.45-1.39-.45Z"/>
  <path class="cls-1" d="M337.78,246.59c-.45,0-.89.12-1.29.31-2,1.01-2,4,.21,4.8.28.12.56.16.82.16,2.31,0,3.55-3.53,1.58-4.96-.4-.19-.85-.31-1.32-.31Z"/>
  <path class="cls-1" d="M252.12,330.46c-.21,0-.45.05-.68.09-2.8.8-2.21,5.2.4,5.2,1.39,0,2.19-.4,2.4-1.2,1.08-1.79-.12-4.09-2.12-4.09Z"/>
  <path class="cls-1" d="M303.62,193.12c-2.28,0-3.51,3.51-1.36,4.75.4.21.87.31,1.29.31s.82-.09,1.13-.31c2-1.01,2-4-.21-4.61-.28-.09-.56-.14-.85-.14Z"/>
  <path class="cls-1" d="M67.93,148.63c-1.41,0-2,.61-2.4,1.2-1.08,1.81.09,4.09,2.09,4.09.24,0,.47-.02.71-.09,2.8-.59,2.19-5.2-.4-5.2Z"/>
  <path class="cls-1" d="M109.35,284.54c-1.01,0-1.81.4-2.21,1.2-1.08,1.79-.05,4.07,2.07,4.07.24,0,.47-.02.73-.07,2.61-.8,2.21-5.2-.59-5.2Z"/>
  <path class="cls-1" d="M89.97,202.65c-.52,0-.96.12-1.43.24-2,.99-2,4,.4,4.8.28.09.54.14.78.14,2.16,0,3.39-3.51,1.43-4.94-.42-.19-.82-.24-1.18-.24Z"/>
  <path class="cls-1" d="M119.47,313.71c-.16,0-.33,0-.52.05-2.8.8-2.4,5.2.4,5.2,1.01,0,1.81-.4,2.21-1.2,1.29-1.86.02-4.05-2.09-4.05Z"/>
  <path class="cls-1" d="M65.31,240.5c-.99,0-1.79.4-2.19,1.2-1.08,1.81-.07,4.09,2.05,4.09.24,0,.49-.02.75-.09,2.59-.8,2.19-5.2-.61-5.2Z"/>
  <path class="cls-1" d="M303.62,288.37c-2.28,0-3.51,3.53-1.36,4.96.4.19.87.31,1.29.31s.82-.12,1.13-.31c2-1.01,2-4.21-.21-4.8-.28-.12-.56-.16-.85-.16Z"/>
  <path class="cls-1" d="M309.19,111.4c-2.14,0-3.39,3.51-1.41,4.78.45.26.87.38,1.25.38.47,0,.92-.16,1.36-.38,2-1.01,2-4.02-.4-4.61-.28-.12-.54-.16-.8-.16Z"/>
  <path class="cls-1" d="M136.12,251.67c-.19,0-.38,0-.56.02-2.59.8-2.19,5.22.61,5.22,1.2,0,2-.4,2.19-1.2,1.11-1.86,0-4.05-2.23-4.05Z"/>
  <path class="cls-1" d="M154.71,330.71c-.19,0-.35,0-.54.05-2.8.8-2.19,5.2.4,5.2,1.41,0,1.81-.4,2.4-1.2,1.13-1.86-.16-4.05-2.26-4.05Z"/>
  <path class="cls-1" d="M136.36,284.07c-.06,0-.11.03-.15.09l-.73,4.48c0,.12-.12.12-.12.12l-4.06.91,4.06.9c.12,0,.12.06.12.06l.79,4.36c0,.09.04.14.1.14.05,0,.11-.04.14-.14l.85-4.36c0-.06.06-.06.06-.06l3.64-.85c.06,0,.06-.18,0-.24l-3.64-.85c-.06,0-.06-.06-.06-.06l-.91-4.42c0-.06-.04-.09-.09-.09Z"/>
  <path class="cls-1" d="M109.56,122.94c-.1,0-.2.05-.26.15l-1.28,7.88c0,.21-.21.21-.21.21l-7.13,1.6,7.13,1.59c.21,0,.21.11.21.11l1.39,7.65c0,.16.08.24.18.24.09,0,.2-.08.25-.24l1.49-7.65c0-.11.1-.11.1-.11l6.39-1.49c.1,0,.1-.31,0-.43l-6.39-1.49c-.1,0-.1-.11-.1-.11l-1.6-7.76c0-.1-.08-.15-.16-.15Z"/>
  <path class="cls-1" d="M277.2,274.77c-.1,0-.2.05-.26.15l-1.28,7.88c0,.21-.21.21-.21.21l-7.13,1.6,7.13,1.59c.21,0,.21.11.21.11l1.39,7.65c0,.16.08.24.18.24.09,0,.2-.08.25-.24l1.49-7.65c0-.11.1-.11.1-.11l6.39-1.49c.1,0,.1-.31,0-.43l-6.39-1.49c-.1,0-.1-.11-.1-.11l-1.6-7.76c0-.1-.08-.15-.16-.15Z"/>
  <path class="cls-1" d="M183.69,52.46c-.06,0-.11.03-.15.09l-.73,4.48c0,.12-.12.12-.12.12l-4.06.91,4.06.9c.12,0,.12.06.12.06l.79,4.36c0,.09.04.14.1.14.05,0,.11-.04.14-.14l.85-4.36c0-.06.06-.06.06-.06l3.64-.85c.06,0,.06-.18,0-.24l-3.64-.85c-.06,0-.06-.06-.06-.06l-.91-4.42c0-.06-.04-.09-.09-.09Z"/>
  <path class="cls-1" d="M280.35,77.02c-.09,0-.17.04-.23.13l-1.1,6.77c0,.18-.18.18-.18.18l-6.13,1.38,6.13,1.36c.18,0,.18.1.18.1l1.19,6.58c0,.14.06.2.15.2.08,0,.17-.06.21-.2l1.28-6.58c0-.1.09-.1.09-.1l5.49-1.28c.09,0,.09-.27,0-.37l-5.49-1.28c-.09,0-.09-.1-.09-.1l-1.38-6.67c0-.09-.06-.13-.14-.13Z"/>
  <path class="cls-1" d="M87.49,264.33c-.09,0-.17.04-.23.13l-1.1,6.77c0,.18-.18.18-.18.18l-6.13,1.38,6.13,1.36c.18,0,.18.1.18.1l1.19,6.58c0,.14.06.2.15.2.08,0,.17-.06.21-.2l1.28-6.58c0-.1.09-.1.09-.1l5.49-1.28c.09,0,.09-.27,0-.37l-5.49-1.28c-.09,0-.09-.1-.09-.1l-1.38-6.67c0-.09-.06-.13-.14-.13Z"/>
  <path class="cls-1" d="M68.35,197.81c-.06,0-.11.03-.15.09l-.73,4.48c0,.12-.12.12-.12.12l-4.06.91,4.06.9c.12,0,.12.06.12.06l.79,4.36c0,.09.04.14.1.14.05,0,.11-.04.14-.14l.85-4.36c0-.06.06-.06.06-.06l3.64-.85c.06,0,.06-.18,0-.24l-3.64-.85c-.06,0-.06-.06-.06-.06l-.91-4.42c0-.06-.04-.09-.09-.09Z"/>
  <path class="cls-1" d="M344.63,168.94c-.09,0-.17.04-.23.13l-1.1,6.77c0,.18-.18.18-.18.18l-6.13,1.38,6.13,1.36c.18,0,.18.1.18.1l1.19,6.58c0,.14.06.2.15.2.08,0,.17-.06.21-.2l1.28-6.58c0-.1.09-.1.09-.1l5.49-1.28c.09,0,.09-.27,0-.37l-5.49-1.28c-.09,0-.09-.1-.09-.1l-1.38-6.67c0-.09-.06-.13-.14-.13Z"/>
  <path class="cls-1" d="M198.51,121.97c-37.76,1.61-67.32,33.69-65.71,71.47s33.8,67.21,71.56,65.6c37.77-1.61,67.11-33.68,65.71-71.58-.43-9.96-2.91-19.5-7.34-28.19-.09-.24-.36-.36-.63-.35-.09,0-.18.02-.26.05-.21.23-.31.57-.18.88,4.31,8.6,6.8,17.92,7.22,27.66,1.59,37.12-27.34,68.63-64.46,70.21-37.12,1.59-68.63-27.34-70.21-64.46-1.59-37.1,27.34-68.62,64.46-70.2,6.78-.29,13.73.51,20.39,2.2.22,0,.54-.14.64-.36-.01-.32-.14-.54-.47-.64-6.77-1.79-13.83-2.58-20.73-2.29Z"/>
  <path class="cls-1" d="M157.28,254.73c-.18,0-.35.07-.47.2-.09.33-.07.66.26.87,13.11,8.98,29.97,13.52,47.71,12.76,17.53-.75,34.05-6.72,46.56-16.79.21-.23.2-.56.07-.88-.07-.13-.24-.17-.42-.16-.13,0-.26.04-.34.08-12.3,9.86-28.61,15.7-45.92,16.44-17.4.74-34.04-3.69-47.04-12.47-.13-.03-.27-.05-.4-.05Z"/>
  <path class="cls-1" d="M153.72,274.55c-.18,0-.33.09-.44.28-.09.34-.07.66.26.87,14.31,8.83,32.71,13.2,52.08,12.37,19.16-.82,37.23-6.86,50.95-16.77.21-.23.2-.55.08-.88-.07-.18-.23-.25-.4-.24-.14,0-.28.06-.38.17-13.5,9.9-31.35,15.82-50.3,16.63-18.93.81-37.22-3.57-51.41-12.28-.15-.1-.3-.14-.43-.14Z"/>
  <path class="cls-1" d="M247.5,241.04c-.08,0-.17.02-.24.05-.32.01-.52.46-.29.67,3.67,8.95,6.4,18.81,8.16,29.15,0,.12.23.21.34.42.08,0,.25.04.39.04.06,0,.13-.02.17-.06.38-.21.82-.33,1.26-.35.8-.03,1.6.25,2.05.87.81,1.06.66,2.72.16,3.84-.5,1.23-1.44,2.25-2.93,3.31-15.63,11.63-36.23,14.82-50.68,15.43-.32.01-.53.24-.52.58,0,.22.24.53.56.52,14.57-.62,35.49-3.81,51.44-15.47,1.6-1.16,2.64-2.52,3.24-3.76.72-1.35.94-3.55-.33-5.03-.7-.81-1.85-1.29-3.02-1.24-.36.02-.72.08-1.07.2-1.75-10.23-4.59-19.88-8.14-28.71-.01-.33-.28-.47-.55-.45Z"/>
  <path class="cls-1" d="M159.56,244.72c-.22,0-.54.14-.64.36-2.79,9.22-4.78,19.07-5.76,29.31-.34-.08-.66-.1-.97-.09-1.16.05-2.18.67-2.92,1.57-1.14,1.48-.83,3.54.11,5.05.71,1.28,1.85,2.33,3.55,3.36,16.89,10.35,37.9,11.87,52.57,11.24.44-.02.64-.35.52-.78,0-.22-.36-.54-.58-.53-14.56.62-35.23-.8-51.9-11.05-1.58-1.03-2.51-1.98-3.1-3.05-.82-1.06-.99-2.7-.16-3.84.41-.6,1.13-.98,1.96-1.01.41-.02.85.05,1.3.22.06.11.15.16.23.16.09,0,.17-.06.21-.18.21-.11.33-.23.32-.34.97-10.46,2.84-20.64,5.74-29.76-.01-.32-.13-.54-.47-.64Z"/>
  <path class="cls-6" d="M200.95,177.91c-5.06.22-10.07,1.53-14.69,3.92l-13.62,7.05c-2.37,1.2-2.22,4.7.24,5.69l14.18,5.87c4.75,1.99,9.81,2.87,14.84,2.65,5.03-.22,10.06-1.53,14.72-3.92l13.52-7.05c2.36-1.2,2.21-4.7-.24-5.69l-14.07-5.87c-4.75-1.99-9.83-2.87-14.88-2.65Z"/>
  <path class="cls-1" d="M200.88,178.55c4.95-.21,9.96.64,14.64,2.57l14.07,5.87c1.01.4,1.58,1.14,1.63,2.24.04.99-.46,1.99-1.43,2.37l-13.52,7.05c-4.5,2.32-9.41,3.6-14.37,3.81-4.95.21-9.96-.64-14.64-2.57l-14.07-5.87c-.99-.29-1.59-1.25-1.63-2.24s.47-1.99,1.43-2.37l13.52-7.05c4.5-2.32,9.41-3.6,14.37-3.81ZM200.85,177.36c-5.11.22-10.21,1.53-14.94,3.93l-13.51,7.05c-1.4.72-2.12,1.96-2.06,3.49.07,1.53.89,2.71,2.35,3.3l14.06,5.87c4.92,1.98,10.11,2.86,15.25,2.64,5.04-.22,10.03-1.52,14.75-3.92l13.52-7.05c1.4-.72,2.11-1.96,2.04-3.49-.07-1.53-.88-2.71-2.33-3.3l-14.07-5.87c-4.79-1.99-9.93-2.86-15.06-2.64Z"/>
  <path class="cls-1" d="M201,182.52c-4.38.19-7.73,3.95-7.55,8.33s3.85,7.73,8.23,7.54c4.49-.19,7.84-3.84,7.66-8.22s-3.84-7.84-8.33-7.65Z"/>
  <path class="cls-1" d="M200.45,173.85c-5.33.23-10.61,1.63-15.43,4.19l-14.81,7.66c-.33.12-.41.56-.3.77.18.24.41.36.65.35.09,0,.17-.02.24-.05l14.71-7.66c4.72-2.45,9.84-3.79,15.02-4.01,5.17-.22,10.4.68,15.3,2.71l15.31,6.37h.32c.22-.02.55-.15.42-.37.11-.22-.03-.66-.35-.75l-15.41-6.37c-4.98-2.15-10.33-3.09-15.66-2.86Z"/>
  <path class="cls-1" d="M171.25,196.91c-.28.01-.48.14-.55.38-.1.34.03.66.36.86l15.3,6.26c5.03,2.2,10.45,3.07,15.8,2.84,5.15-.22,10.47-1.56,15.51-4.18l14.81-7.54c.21-.23.41-.56.18-.88-.09-.24-.36-.35-.58-.34-.08,0-.14.02-.2.05l-14.81,7.65c-4.67,2.46-9.75,3.8-14.91,4.02s-10.38-.68-15.3-2.72l-15.29-6.36c-.12-.02-.21-.03-.31-.03Z"/>
  <path class="cls-1" d="M200.03,162.6c-.22,0-.53.34-.52.56l.3,7.01c0,.22.34.53.56.52.44-.02.76-.35.53-.56l-.3-7.01c0-.22-.24-.53-.58-.52Z"/>
  <path class="cls-1" d="M189.76,164.54c-.05,0-.12,0-.17.03-.22,0-.53.46-.41.68l2.14,6.6c.01.32.24.43.57.41h.1c.22-.01.53-.47.41-.68l-2.14-6.6c-.01-.27-.24-.45-.51-.44Z"/>
  <path class="cls-1" d="M180.44,168.17c-.09,0-.17.03-.23.1-.33.12-.41.57-.3.79l2.9,6.34c.13.33.24.43.57.41q.1,0,.21-.11c.31-.23.41-.57.28-.89l-2.9-6.35c-.08-.15-.33-.3-.54-.29Z"/>
  <path class="cls-1" d="M171.81,172.65c-.06,0-.14.02-.19.05-.31.23-.41.56-.28.89l3.54,5.99c.11.11.34.32.55.31h.33c.21-.24.3-.58.18-.9l-3.54-6c-.1-.24-.36-.35-.59-.34Z"/>
  <path class="cls-1" d="M210.66,163.65c-.23,0-.39.21-.47.48l-1.58,6.76c-.09.22.24.53.47.64h.12c.32-.02.55-.14.53-.47l1.57-6.76c.11-.22-.24-.54-.47-.64-.05-.02-.12-.02-.17-.02Z"/>
  <path class="cls-1" d="M220.19,166.62c-.23,0-.37.12-.44.29l-2.36,6.56c-.08.44.03.77.37.86h.22c.12-.01.43-.13.54-.35l2.35-6.57c.09-.33-.03-.66-.37-.76-.12-.02-.22-.03-.31-.03Z"/>
  <path class="cls-1" d="M229.22,170.19c-.22,0-.47.14-.55.38l-3.02,6.28c-.1.33.03.66.26.87h.33c.22-.02.43-.25.53-.37l3.02-6.27c.1-.34-.03-.66-.36-.86-.05-.02-.13-.03-.21-.03Z"/>
  <path class="cls-1" d="M202.3,210.54c-.32.01-.53.24-.52.56l.29,6.9c.01.33.24.54.56.53.22,0,.54-.24.53-.58l-.29-6.9c-.01-.32-.36-.53-.58-.52Z"/>
  <path class="cls-1" d="M210.93,208.83c-.05,0-.1,0-.14.03-.22,0-.53.46-.3.77l2.05,6.6c0,.22.24.43.56.41h.12c.32-.02.52-.47.41-.78l-2.04-6.6c0-.19-.35-.45-.65-.44Z"/>
  <path class="cls-1" d="M219.27,205.16c-.06,0-.14.02-.19.05-.33.23-.41.57-.3.9l2.91,6.34c.11.21.23.33.55.31q.12,0,.21-.13c.33-.12.41-.56.3-.77l-2.9-6.35c-.1-.24-.38-.36-.6-.35Z"/>
  <path class="cls-1" d="M227.2,201.32c-.1,0-.19.02-.28.05-.21.13-.31.57-.19.78l3.55,6.1c.12.1.23.21.56.2h.22c.32-.14.41-.58.29-.8l-3.55-6.1c-.08-.15-.35-.24-.6-.23Z"/>
  <path class="cls-1" d="M193.46,209.58c-.26.01-.41.29-.51.49l-1.57,6.76c-.1.33.24.53.47.74h.1c.22-.01.42-.34.53-.47l1.57-6.76c.1-.33-.24-.53-.47-.74-.04-.02-.08-.02-.13-.02Z"/>
  <path class="cls-1" d="M184.63,206.76c-.24.01-.38.13-.46.38l-2.35,6.57c-.08.44.03.66.37.76h.22c.32-.02.43-.14.53-.25l2.35-6.57c.1-.44-.03-.66-.36-.86-.12-.02-.21-.03-.3-.03Z"/>
  <path class="cls-1" d="M176.45,203.48c-.22,0-.47.12-.54.28l-3.01,6.38c-.11.22.03.66.25.76h.32c.33-.03.43-.15.54-.26l3.01-6.38c.09-.22-.03-.66-.37-.76-.05-.02-.13-.03-.21-.03Z"/>
  <path class="cls-1" d="M191.13,190.39c-.33.01-.54.24-.53.58.1,2.41.98,4.9,2.7,6.68.23.21.35.32.45.32.12,0,.33-.13.33-.13.21-.33.2-.55.07-.88-1.49-1.69-2.36-3.84-2.45-6.03,0-.22-.35-.54-.56-.53Z"/>
  <path class="cls-1" d="M197.88,199.82c-.21,0-.34.12-.41.29-.21.33.02.54.25.75,1.44.27,2.65.54,3.97.49.44-.02.76-.35.53-.46,0-.22-.24-.53-.58-.52-1.2.05-2.42-.23-3.53-.51-.09-.03-.17-.04-.23-.04Z"/>
  <path class="cls-1" d="M209.71,184.27c-.12,0-.22.04-.31.08-.31.23-.3.57-.18.88.94,1.49,1.56,3.12,1.64,4.87.05,1.21-.11,2.53-.5,3.75-.2.45.03.66.25.76h.33c.22-.02.54-.15.3-.47.5-1.23.77-2.56.7-4.09-.09-2.08-.71-3.92-1.77-5.52-.07-.2-.28-.27-.48-.26Z"/>
  <path class="cls-1" d="M203.57,179.97c-.23,0-.4.21-.57.49-.11.22.24.53.47.64.98.06,1.77.47,2.67.98,0,.1.11.1.22.09.32-.01.43-.12.43-.24.31-.34.07-.66-.15-.87-.9-.5-2.01-.79-2.9-1.08-.05-.02-.12-.02-.17-.02Z"/>
  <path class="cls-1" d="M153.43,152.6c-.14,0-.27.1-.43.26-6.88,8.52-11.34,19.36-12.51,30.71-.09.22.14.65.58.63.32-.01.54-.14.52-.46,1.18-11.02,5.54-21.73,12.31-30.14.21-.23.2-.56-.03-.77-.17-.15-.31-.23-.45-.23Z"/>
  <path class="cls-1" d="M262.05,194.49c-.44.02-.64.36-.63.58-.14,1.76-.28,3.64-.54,5.4-.09.22.25.65.58.63.32-.01.53-.24.74-.47.14-1.76.4-3.64.42-5.51-.01-.32-.35-.64-.57-.63Z"/>
  <path class="cls-1" d="M259.88,207.86c-.32.01-.53.24-.64.47-2.59,8.88-7.17,16.98-13.25,23.59-.31.35-.3.57.04.88.12.11.22.11.34.1.22,0,.32-.01.31-.35,6.31-6.63,10.99-14.95,13.67-23.95-.01-.32-.24-.53-.47-.74Z"/>
  <path class="cls-1" d="M237.76,156.41c-.09,0-.2.03-.25.09-.5,1.22-1.21,2.46-2.16,3.5v.32c1.04.83,1.86,2.11,2.35,3.3,0,.05.07.07.14.07.08,0,.19-.03.29-.09.5-1.23,1.32-2.58,2.26-3.5.11-.22.1-.33-.01-.32-1.14-.94-1.84-2.01-2.44-3.3,0-.05-.09-.07-.18-.07Z"/>
  <path class="cls-1" d="M243.29,175.03s-.05.03-.05.08c-.19.78-.6,1.46-1.13,2.02v.12c.58.52,1.15,1.15,1.4,1.91,0,.05.05.08.12.07.05,0,.1-.03.1-.08.19-.78.6-1.46,1.13-2.02v-.12c-.58-.52-1.15-1.15-1.52-1.91,0-.05-.03-.08-.05-.08Z"/>
  <path class="cls-1" d="M224.22,154.9s-.06.03-.06.08c-.3.57-.49,1.12-1.03,1.58v.12c.36.42.82.95,1.16,1.48,0,.05.04.08.07.07.03,0,.05-.03.05-.08.07-.66.5-1.23.92-1.69-.46-.52-.93-1.06-1.06-1.49,0-.05-.03-.08-.05-.08Z"/>
  <path class="cls-1" d="M249.28,164.88c-.11.22-.41.68-.61,1.02v.1c.24.33.57.53.7.96h.1c.1-.45.4-.9.61-1.13-.23-.33-.57-.65-.7-.96h-.1Z"/>
  <path class="cls-1" d="M164.89,214.58c-.09,0-.14.03-.14.08-.49,1.45-1.1,2.57-2.16,3.5-.22,0-.21.23.01.33.92.94,1.96,2.11,2.56,3.28.06.11.16.16.26.16.09,0,.18-.06.17-.18.39-1.22,1.09-2.46,2.04-3.48v-.33c-1.04-.83-1.86-2.11-2.46-3.3-.11-.05-.22-.07-.3-.06Z"/>
  <path class="cls-1" d="M151.8,211.85c-.06,0-.11.03-.11.08-.19.78-.7,1.46-1.23,2.03-.1,0-.1.12,0,.12.58.52,1.04,1.15,1.29,1.92,0,.05.03.08.05.08.03,0,.05-.03.05-.08.3-.79.81-1.47,1.34-2.03v-.12c-.58-.52-1.05-1.15-1.3-1.92,0-.05-.05-.08-.11-.07Z"/>
  <path class="cls-1" d="M177.18,225.05s0,.05.08.05c-.04-.04-.07-.05-.08-.05ZM178.24,223.47s-.06.05-.06.17c-.21.33-.5.9-.92,1.46.46.42.8.96,1.05,1.61,0,.1.03.15.07.15.03,0,.05-.05.04-.16.2-.56.61-1.12,1.03-1.48v-.22c-.58-.3-.92-.84-1.16-1.37,0-.12-.03-.17-.06-.17Z"/>
  <path class="cls-1" d="M163.65,204.41c-.21.33-.41.78-.73,1.01.35.32.59.75.82,1.06h.1c.1-.33.42-.68.63-1.01v-.12c-.23-.21-.59-.63-.72-.95h-.1Z"/>
  <path class="cls-1" d="M244.1,243.76c-.09,0-.17.03-.23.1-.33.12-.43.24-.41.57l.17,1.63c.32,2.4.55,5.02.76,7.43-1.39-1.81-3.11-3.71-5.17-5.81-.16-.07-.32-.14-.47-.13-.06,0-.13.02-.19.05-.33.13-.42.35-.41.57.13,3.06.26,6.13.5,9.3-.79-.74-1.49-1.59-2.41-2.31l-3.44-3.59c-.14-.06-.3-.18-.46-.17-.06,0-.14.03-.2.1-.32.12-.43.24-.41.56l.02.55c.01,2.75,0,5.26.12,7.9-.57-.75-1.38-1.59-1.96-2.34-.94-1.27-1.98-2.55-3.03-3.92-.11-.21-.23-.21-.55-.2-.12,0-.43.12-.42.46-.26,1.65-.73,3.42-1.09,5.19-.27,1.44-.54,2.67-.83,3.88-.59-1.07-1.18-2.03-1.76-2.89-.83-1.38-1.66-2.66-2.49-4.16-.12-.11-.35-.32-.57-.31-.32.01-.53.24-.52.46-.48,1.67-.85,3.44-1.21,5.11-.27,1.33-.55,2.43-.72,3.64-1.06-1.93-2.24-3.73-3.3-5.45-.47-.74-.72-1.39-1.18-2.03-.12-.11-.23-.33-.57-.31-.21.23-.42.35-.52.46l-.19.67c-.89,2.45-1.88,4.92-2.75,7.47l-.9-2.91c-.51-1.63-1.01-3.04-1.51-4.55-.12-.32-.24-.43-.57-.41-.05-.02-.09-.03-.14-.03-.13,0-.23.14-.38.39-1.09,2.78-2.62,5.37-4.04,7.96-.65-2.28-1.3-4.88-2.21-8.03-.11-.21-.34-.42-.56-.41-.33.01-.45.02-.54.36-1.01,2.12-2.01,4.15-3.14,6.27-.2.34-.41.68-.5,1.01-.26-.98-.3-1.96-.46-2.83-.17-1.64-.35-3.17-.64-4.81-.01-.32-.12-.43-.34-.53-.1-.03-.2-.04-.27-.04-.19,0-.34.09-.5.18-.81,1.47-1.86,2.71-2.89,4.07-.84.93-1.45,1.93-2.08,2.73-.1-2.3-.2-4.61-.52-7.11l-.03-.66c-.01-.33-.13-.43-.36-.54-.09-.02-.18-.03-.26-.03-.19,0-.34.09-.5.18-1.04,1.24-2.29,2.73-3.45,3.98-.95.92-1.79,1.83-2.62,2.86l-.15-3.5c.05-1.65-.03-3.51-.1-5.15,0-.22-.13-.33-.46-.53-.07-.02-.13-.03-.19-.03-.19,0-.38.12-.45.28-1.14,1.7-2.49,3.19-3.75,4.78-.52.56-.93,1.14-1.46,1.7-.01-2.95-.36-6.12-.71-9.18v-.33c-.03-.32-.15-.43-.37-.53-.11-.07-.2-.09-.27-.09-.19,0-.33.14-.48.23-1.04,1.26-2.08,2.72-3.12,3.98-.62.8-1.35,1.81-2.09,2.72-.06-1.31.11-2.53.06-3.73.04-1.76-.04-3.72-.02-5.48-.01-.33-.12-.43-.46-.53-.07-.02-.13-.03-.21-.03-.18,0-.37.09-.44.17-1.98,2.16-3.88,4-5.89,5.83l-1.16,1.15c-.2.34-.3.57.04.89.13.05.3.1.46.1.12,0,.23-.04.32-.13l1.16-1.16c1.79-1.61,3.38-2.99,4.94-4.7h0c.06,1.31-.11,2.52-.05,3.95-.03,1.75.06,3.72.02,5.48,0,.22.13.43.46.53.07.02.14.03.22.03.18,0,.36-.09.43-.17,1.04-1.36,2.09-2.72,3.13-3.96.62-.92,1.45-1.93,2.17-2.84.25,3.06.61,6.33.52,9.52.01.32.24.43.46.53.09.02.18.03.26.03.19,0,.32-.09.39-.17.83-1.03,1.77-2.05,2.5-2.96.94-1.14,1.98-2.5,2.91-3.63l.15,3.5c-.15,1.64-.07,3.41,0,5.04,0,.22.24.43.46.53.1.02.18.03.26.03.19,0,.32-.09.39-.17l3.67-4,2.83-3.07c.23,2.94.45,5.46.45,8.21.01.32.13.43.46.52.08.07.16.1.24.09.17,0,.34-.14.42-.22.93-1.36,1.97-2.71,3.01-4.07.73-1.02,1.34-2.04,2.18-2.96.15,1.09.2,2.18.36,3.29.28,1.41.45,3.05.63,4.58.01.32.13.54.46.52.22,0,.54-.02.65-.25.4-.89.9-1.9,1.42-2.69.69-1.67,1.61-3.36,2.53-5.05.89,2.93,1.55,5.53,2.19,7.81,0,.22.24.43.46.42.12,0,.43-.13.54-.24l.4-.79c1.21-2.35,2.65-4.72,3.74-7.29.38,1.08.64,2.06,1.02,3.14.51,1.63.9,3.15,1.4,4.66,0,.22.35.31.57.3.1,0,.43-.12.53-.24.86-3.11,1.94-6,3.03-8.79.23.33.47.64.58.97,1.31,2.25,2.72,4.49,3.92,6.85.12.11.23.21.56.2.22,0,.54-.13.52-.46.48-1.66.85-3.43,1.1-5.09.28-1.22.55-2.43.83-3.76.59,1.07,1.18,2.03,1.77,2.99.94,1.27,1.66,2.68,2.49,4.17.22.09.34.2.56.2.32-.01.54-.14.52-.46.36-1.77.85-3.44,1.21-5.21.17-1.22.54-2.65.81-3.98.7,1.07,1.51,1.91,2.31,2.85.95,1.39,1.98,2.56,3.03,3.83.09.24.3.35.49.34.06,0,.12-.02.18-.05.32-.01.42-.34.41-.56-.13-3.08-.15-5.92-.16-8.88.91.84,1.71,1.78,2.63,2.62l3.45,3.48c.08.15.28.25.47.24.06,0,.13-.02.19-.05.31-.23.42-.35.41-.57-.25-3.06-.39-6.34-.51-9.3h0c2.07,2.22,3.81,4.34,5.33,6.36.08.15.28.25.47.24.06,0,.13-.02.19-.05.32-.01.43-.24.41-.57-.57-3.15-.83-6.44-1.06-9.5h0c1.72,1.9,3.55,3.79,5.18,5.93.07.11.25.17.43.16.13,0,.26-.04.34-.09.32-.12.3-.57.07-.78-1.86-2.43-3.8-4.54-5.99-6.76l-.46-.53c-.08-.06-.27-.18-.43-.17Z"/>
  <path class="cls-1" d="M227.49,271.11l3.19,5.24-6.14.26,2.95-5.5ZM227.36,269.46c-.19,0-.38.13-.49.36l-3.86,7.08c-.09.22-.08.44.02.54.23.21.35.32.57.31l8.1-.35c.33-.01.43-.13.54-.36.1-.11.09-.33-.02-.54l-4.35-6.73c-.13-.21-.32-.32-.5-.31Z"/>
  <path class="cls-1" d="M222.2,273.31c-.22,0-.54.24-.53.56,0,.22.36.54.58.53l10.4-.44c.44-.02.64-.36.53-.58-.01-.32-.24-.53-.58-.52l-10.4.44Z"/>
  <path class="cls-1" d="M246.64,262.61l3.29,5.24-6.13.26,2.83-5.5ZM246.62,261.07c-.18,0-.36.13-.46.35l-3.86,7.18c-.11.12-.1.34.02.55.11.1.33.21.55.2l8.11-.35c.22,0,.43-.13.53-.24.11-.22.1-.44-.02-.55l-4.46-6.82c-.06-.22-.23-.33-.41-.32Z"/>
  <path class="cls-1" d="M246.38,258.78c-.22,0-.54.36-.53.58l.51,11.83c0,.22.36.53.58.52.44-.02.75-.35.52-.56l-.51-11.83c0-.22-.24-.54-.56-.53Z"/>
  <path class="cls-1" d="M182.28,273.48l3.31,5.24-6.14.26,2.83-5.5ZM182.25,271.91c-.19,0-.41.11-.57.28l-3.75,7.17c-.09.22-.08.44.02.55.13.21.23.31.57.3l8.1-.35c.12,0,.33-.12.54-.35.1-.12.09-.34-.02-.55l-4.46-6.82c-.07-.16-.24-.25-.42-.24Z"/>
  <path class="cls-1" d="M188.02,272.72c-.13,0-.26.04-.4.09l-9.59,6.33c-.21.13-.2.56-.08.78.13.21.45.3.57.3q.1,0,.21-.11l9.59-6.34c.33-.12.31-.55.18-.88-.13-.12-.29-.17-.48-.16Z"/>
  <path class="cls-1" d="M164.9,267.19l3.31,5.24-6.24.27,2.94-5.5ZM164.87,265.56c-.19,0-.41.12-.57.35l-3.76,7.07c-.21.23-.2.45.02.55.13.21.23.31.57.3l7.99-.34c.22,0,.44-.02.53-.34.21-.13.2-.34-.02-.55l-4.35-6.73c-.06-.22-.23-.31-.41-.3Z"/>
  <path class="cls-1" d="M163.18,263.61c-.27.01-.52.15-.6.4l-4.56,8.76c-.09.22.03.66.37.75q.11.11.22.11c.32-.01.44-.02.53-.46l4.56-8.64c.1-.34-.03-.66-.26-.87-.08-.04-.17-.04-.26-.04Z"/>
  <path class="cls-1" d="M204.16,274.74l3.31,5.24-6.24.27,2.94-5.5ZM204.12,273.06c-.18,0-.4.09-.56.27l-3.75,7.19c-.21.11-.2.45.02.54.12.11.23.33.57.31l7.99-.34c.32-.01.44-.02.53-.36.21-.11.2-.45-.02-.54l-4.35-6.84c-.06-.17-.23-.24-.42-.23Z"/>
  <path class="cls-1" d="M200.01,282.48c-.33.01-.54.24-.53.56,0,.22.24.54.58.53l8.87-.38c.44-.02.53-.36.52-.58-.01-.32-.24-.53-.56-.52l-8.87.38Z"/>
  <path class="cls-10" d="M220.85,98.34c-4.99.21-9.66.75-14.38,1.9-.32.01-.42.46-.41.68.01.32.46.42.69.41,4.86-1.12,9.68-1.66,14.8-1.88,3.45-.15,7.05-.15,10.89-.09,9.65.13,17.54,4.95,25.76,9.86,3.26,1.95,6.53,4,9.88,5.61,10.88,5.47,23.73,11.05,37.37,11.79,3.21,8.42,2.96,18.08-.77,25.81-9.09.39-20.08,2.29-29.11,3.99-1.96.3-4.03.73-5.77,1.02-4.38.75-9.01,1.57-13.68,1.77-3.36.14-6.74-.03-10.08-.76-3.98-.82-7.26-2.99-10.76-5.25-2.49-1.75-5.08-3.41-7.98-4.6-2.9-1.29-6.21-1.81-9.52-2.33-2.99-.65-6.08-1.17-8.76-2.15-6.7-2.56-11.33-5.55-14.56-9.36-.47-.64-2.22-2.97-1.18-4.67.64-.79,1.68-1.06,2.8-1.11.5-.02,1.02,0,1.54.05,16.8.71,33.78,2.62,50.15,5.64.05.02.1.02.16.02.24-.01.42-.21.59-.49.11-.22-.13-.55-.47-.64-16.58-3.02-33.55-4.92-50.25-5.64-.48-.04-1-.06-1.52-.04-1.44.06-2.95.45-3.78,1.7-1.03,1.58-.5,3.75,1.35,5.96,3.36,4.03,8.1,7.22,14.9,9.79,2.79.98,5.99,1.6,9.09,2.13,3.19.52,6.5,1.04,9.3,2.23,2.9,1.09,5.39,2.74,7.87,4.38,3.39,2.38,6.89,4.64,11.2,5.56,3.34.85,6.74,1.03,10.13.88,4.81-.21,9.62-.95,13.29-2.1,1.84-.4,3.81-.7,5.87-1.13,9.15-1.6,20.26-3.61,29.34-4,.22,0,.43-.12.53-.24,4.15-8.18,4.59-18.4.92-27.35-.23-.21-.35-.42-.57-.41-13.51-.52-26.47-6.1-37.24-11.57-3.36-1.61-6.62-3.55-9.77-5.4-8-4.92-16.32-9.94-26.31-10.05-4.12-.06-7.91-.07-11.54.08Z"/>
  <path class="cls-8" d="M163.19,96.06c-2.59.11-5.18.3-7.76.55-.1,0-.22,0-.43.24-.1.11-.09.22-.09.33.66,5.25,6.32,9.39,16.19,11.93,3.44.83,6.86,1.24,10.27,1.64,2.44.33,4.97.66,7.4,1.12,14.49,2.67,27.38,11.66,38.79,19.51.11.21.23.21.45.2.14,0,.24-.11.28-.12.03,0,.04.02.04.1.2-.34.19-.78-.14-.87-11.53-7.95-24.53-17.05-39.35-19.82-2.55-.43-4.97-.77-7.51-1.1-3.31-.41-6.73-.81-10.05-1.54-6.33-1.7-14.03-4.78-15.25-10.54,2.4-.23,4.81-.39,7.21-.49,19.23-.82,38.36,2.24,56,9.2.09.02.17.03.25.03.24-.01.43-.15.51-.4.09-.33-.03-.66-.25-.75-17.71-6.89-37.15-10.04-56.56-9.21Z"/>
  <path class="cls-9" d="M179.22,109.78c-.12,0-.23.04-.31.08l-25.36,17.2c-.21.13-.21.23-.2.56.8,3.37,4.83,5.39,8.45,5.23q.1,0,.44.08c3.38-.25,6.49-2.03,9.16-3.68l20.11-11.94c.33-.13.41-.57.3-.89-.1-.16-.36-.26-.62-.24-.09,0-.19.02-.28.06l-20.11,11.94c-2.68,1.65-5.67,3.31-8.83,3.56-2.86.12-6.31-1.38-7.3-3.97l24.93-16.98c.33-.12.31-.55.08-.76-.09-.2-.28-.27-.48-.26Z"/>
  <path class="cls-7" d="M211.4,119.96s-.09.02-.13.03c-2.17.53-4.23,1.17-6.4,1.81-.22,0-.53.46-.31.67.01.33.24.43.57.41,0,0,0-.05.02-.05.03,0,.05.01.08.05,2.16-.63,4.23-1.16,6.4-1.81.22,0,.54-.35.31-.67,0-.19-.26-.45-.55-.44Z"/>
  <path class="cls-11" d="M206.83,129.29c-.22,0-.54.14-.64.36-.56,2.22-2.89,4.17-5.39,4.5-.36.07-.71.09-1.04.11-2.45.1-4.7-.77-6.27-1.65-.15-.14-.3-.19-.45-.19-.19,0-.37.13-.42.33-.2.34-.07.66.15.87,1.67.81,4.24,1.79,6.97,1.67.44-.02.77-.14,1.21-.15,2.95-.46,5.49-2.54,6.35-5.21-.01-.32-.13-.54-.47-.64Z"/>
  <path class="cls-12" d="M162.43,121.86c-.33.01-.54.24-.53.58-.03,1.64-.73,3.42-1.77,4.68-1.04,1.36-2.65,2.31-4.27,2.7-.22,0-.32.46-.31.68.01.32.24.43.57.41,1.95-.42,3.76-1.59,4.91-3.07,1.14-1.58,1.94-3.59,1.96-5.45-.01-.33-.35-.54-.56-.53Z"/>
  <path class="cls-5" d="M201.08,187.23c-1.75.07-3.22,1.67-3.14,3.42.07,1.75,1.67,3.22,3.42,3.14,1.87-.08,3.23-1.67,3.15-3.42-.07-1.75-1.45-3.23-3.43-3.14Z"/>
  <path class="cls-3" d="M166.6,96.52c-.18,0-.39.19-.46.44-.07.51-.47.92-.94,1.24-.49.42-1.07.75-1.66.88-1.7.54-3.41.77-5.17.84-.49.02-.98.03-1.48.04-.29.01-.58.32-.58.52.02.4.33.58.53.58l1.49-.06c1.9-.08,3.79-.36,5.45-.93.58-.33,1.37-.56,1.95-.99.68-.53,1.16-1.15,1.42-1.96.1-.2-.11-.49-.42-.58-.04-.01-.07-.02-.12-.02Z"/>
  <path class="cls-1" d="M203.5,327.43c-.06,0-.11.03-.15.09l-.73,4.48c0,.12-.12.12-.12.12l-4.06.91,4.06.9c.12,0,.12.06.12.06l.79,4.36c0,.09.04.14.1.14.05,0,.11-.04.14-.14l.85-4.36c0-.06.06-.06.06-.06l3.64-.85c.06,0,.06-.18,0-.24l-3.64-.85c-.06,0-.06-.06-.06-.06l-.91-4.42c0-.06-.04-.09-.09-.09Z"/>
  <path class="cls-1" d="M233.04,304.74c-.21,0-.45.05-.68.09-2.8.8-2.21,5.2.4,5.2,1.39,0,2.19-.4,2.4-1.2,1.08-1.79-.12-4.09-2.12-4.09Z"/>
  <path class="cls-4" d="M203,41.57c-87.06,0-157.5,70.46-157.5,157.31s70.43,157.5,157.5,157.5,157.28-70.64,157.28-157.5S289.86,41.57,203,41.57Z"/>
  <path class="cls-15" d="M203,41.57c-87.06,0-157.5,70.46-157.5,157.31s70.43,157.5,157.5,157.5,157.28-70.64,157.28-157.5S289.86,41.57,203,41.57Z"/>
</svg>