<?xml version="1.0" encoding="UTF-8"?>
<svg id="Layer_1" data-name="Layer 1" xmlns="http://www.w3.org/2000/svg" xmlns:xlink="http://www.w3.org/1999/xlink" viewBox="0 0 415 409">
  <defs>
    <style>
      .cls-1 {
        fill: #ebb871;
      }

      .cls-1, .cls-2, .cls-3, .cls-4, .cls-5, .cls-6, .cls-7, .cls-8, .cls-9, .cls-10, .cls-11 {
        fill-rule: evenodd;
      }

      .cls-2 {
        fill: url(#linear-gradient-5);
      }

      .cls-3 {
        fill: url(#linear-gradient-7);
      }

      .cls-4 {
        fill: url(#linear-gradient-2);
      }

      .cls-5 {
        fill: url(#linear-gradient-3);
      }

      .cls-6 {
        fill: url(#linear-gradient-4);
      }

      .cls-7 {
        fill: url(#linear-gradient-6);
      }

      .cls-8 {
        fill: url(#radial-gradient);
      }

      .cls-12 {
        fill: none;
        stroke: #ebb871;
        stroke-linejoin: round;
      }

      .cls-10 {
        fill: #20204b;
      }

      .cls-11 {
        fill: url(#linear-gradient);
      }
    </style>
    <linearGradient id="linear-gradient" x1="-764.39" y1="1488.35" x2="-764.39" y2="1477.7" gradientTransform="translate(8277.41 15946.04) scale(10.65 -10.65)" gradientUnits="userSpaceOnUse">
      <stop offset="0" stop-color="#343479"/>
      <stop offset="1" stop-color="#0e0e1c"/>
    </linearGradient>
    <linearGradient id="linear-gradient-2" x1="-751.41" y1="1488.35" x2="-751.41" y2="1477.7" gradientTransform="translate(8277.41 15946.04) scale(10.65 -10.65)" gradientUnits="userSpaceOnUse">
      <stop offset="0" stop-color="#343479"/>
      <stop offset="1" stop-color="#0e0e1c"/>
    </linearGradient>
    <linearGradient id="linear-gradient-3" x1="-709" y1="1389.83" x2="-709" y2="1383.28" gradientTransform="translate(4762.34 9313.29) scale(6.55 -6.55)" gradientUnits="userSpaceOnUse">
      <stop offset="0" stop-color="#343479"/>
      <stop offset="1" stop-color="#0e0e1c"/>
    </linearGradient>
    <linearGradient id="linear-gradient-4" x1="-689.84" y1="1360.61" x2="-689.84" y2="1354.81" gradientTransform="translate(4116.7 8094.99) scale(5.8 -5.8)" gradientUnits="userSpaceOnUse">
      <stop offset="0" stop-color="#f3d5ab"/>
      <stop offset="1" stop-color="#dc9b3f"/>
    </linearGradient>
    <linearGradient id="linear-gradient-5" x1="-681.59" y1="1389.83" x2="-681.59" y2="1383.28" gradientTransform="translate(4762.34 9313.29) scale(6.55 -6.55)" gradientUnits="userSpaceOnUse">
      <stop offset="0" stop-color="#343479"/>
      <stop offset="1" stop-color="#0e0e1c"/>
    </linearGradient>
    <linearGradient id="linear-gradient-6" x1="-658.52" y1="1360.61" x2="-658.52" y2="1354.81" gradientTransform="translate(4116.7 8094.99) scale(5.8 -5.8)" gradientUnits="userSpaceOnUse">
      <stop offset="0" stop-color="#f3d5ab"/>
      <stop offset="1" stop-color="#dc9b3f"/>
    </linearGradient>
    <linearGradient id="linear-gradient-7" x1="-618.55" y1="1256.3" x2="-618.55" y2="1251.85" gradientTransform="translate(2960.62 5913.53) scale(4.45 -4.45)" gradientUnits="userSpaceOnUse">
      <stop offset="0" stop-color="#f3d5ab"/>
      <stop offset="1" stop-color="#dc9b3f"/>
    </linearGradient>
    <radialGradient id="radial-gradient" cx="-750.93" cy="1463.31" fx="-750.93" fy="1463.31" r="9.96" gradientTransform="translate(7685.55 14829.22) scale(9.96 -9.96)" gradientUnits="userSpaceOnUse">
      <stop offset="0" stop-color="#f3d5ab"/>
      <stop offset="1" stop-color="#dc9b3f"/>
    </radialGradient>
  </defs>
  <path class="cls-1" d="M208.38,31.5c11.34,0,22.68,1.2,33.85,3.58,17.2,3.39,34.02,9.79,49.21,18.4,15.01,8.61,28.82,19.01,40.44,31.62,12,12.42,22.02,26.82,29.62,42.23,7.81,15.81,13.2,32.84,15.81,50.25,1.39,9.2,2.19,17.81,2.19,26.61,0,18.02-2.8,36.02-8.19,53.02-5.2,16.61-13.22,32.23-23.22,46.65-10,14-22.21,26.61-35.83,37.22-13.81,10.4-29.01,19.01-45.43,25.01-16.61,6.21-34.63,9.81-52.44,10.42-2.42.09-4.87.14-7.29.14-15.74,0-31.29-2.21-46.53-6.56-16.82-4.8-33.03-12.21-47.43-22-14.42-9.62-27.43-21.22-38.04-34.63-11.01-13.22-19.81-28.23-26.42-44.23-6.59-16.61-10.59-34.02-12.21-51.82-1.39-18.02,0-36.23,4.21-54.04,4-17.01,10.82-33.24,19.81-48.25,8.82-14.8,20.02-28.02,32.82-39.62,12.82-11.41,27.22-21.01,43.03-28.21,16.23-7.41,33.43-12.21,51.24-14.42,6.92-.92,13.86-1.36,20.8-1.36ZM208.17,31.17c-16.14,0-32.2,2.07-47.8,6.49-17.01,4.61-33.22,12.02-48.01,21.41-14.42,9.62-27.83,21.22-39.03,34.63-11.22,13.41-20.21,28.42-27.03,44.63-6.8,16.82-11.01,34.42-12.4,52.44-1.6,18.42,0,37.03,4.4,55.02,4.21,17.03,11.01,33.43,20.21,48.44,9.01,15.01,20.61,28.63,33.62,40.04,13.01,11.6,28.02,21.01,43.83,28.21,16.23,7.41,33.43,12,51.24,14.02,6.92.89,13.88,1.34,20.87,1.34,11.39,0,22.8-1.2,33.97-3.55,17.22-3.41,34.02-9.41,49.42-18.02,15.22-8.4,29.22-19.2,41.64-31.81,12.21-12.42,22.21-27.03,30.21-42.63,8.02-16.02,13.41-33.03,16.21-50.65,1.6-8.7,2-17.62,2.02-26.54h0c.12-.07.19-.16.19-.26,0-18.23-2.61-36.23-8.4-53.45-5.6-16.8-13.62-32.82-23.83-47.03-10.19-14.21-22.4-26.82-36.2-37.22-14.02-10.61-29.22-19.01-45.83-25.03-17.03-6.4-34.84-9.79-53.05-10.4-2.07-.07-4.16-.09-6.23-.09Z"/>
  <path class="cls-9" d="M208,47.07c-87.06,0-157.5,70.46-157.5,157.31s70.43,157.5,157.5,157.5,157.28-70.64,157.28-157.5S294.86,47.07,208,47.07Z"/>
  <path class="cls-12" d="M208,47.07c-87.06,0-157.5,70.46-157.5,157.31s70.43,157.5,157.5,157.5,157.28-70.64,157.28-157.5S294.86,47.07,208,47.07Z"/>
  <path class="cls-1" d="M122.99,185.94c-.52,0-.96.12-1.43.21-2,1.01-2,4.02.4,4.82.26.09.52.14.75.14,2.16,0,3.43-3.69,1.46-4.96-.42-.16-.82-.21-1.18-.21Z"/>
  <path class="cls-1" d="M336.64,142.65c-.24,0-.49.02-.75.07-2.61.61-2.21,5.22.59,5.22,1.01,0,1.81-.61,2.21-1.2,1.27-1.81.09-4.09-2.05-4.09Z"/>
  <path class="cls-1" d="M299.42,188.62c-2.28,0-3.51,3.48-1.36,4.75.45.26.82.38,1.18.38.4,0,.8-.16,1.22-.38,2-1.01,2-4-.19-4.61-.31-.09-.59-.14-.85-.14Z"/>
  <path class="cls-1" d="M291.05,256.21c-1.39,0-2,.59-2.4,1.2-1.08,1.79.12,4.09,2.12,4.09.21,0,.45-.02.68-.09,2.82-.59,2.21-5.2-.4-5.2Z"/>
  <path class="cls-1" d="M200.01,170.79c-2.14,0-3.39,3.53-1.41,4.96.49.21,1.01.31,1.46.31s.85-.09,1.15-.31c2-.99,2-4-.4-4.8-.28-.12-.54-.16-.8-.16Z"/>
  <path class="cls-1" d="M74.53,166.34c-1.2,0-1.6.61-2.21,1.41-1.11,1.83,0,4.05,2.23,4.05.19,0,.38-.02.56-.05,2.8-.8,2.21-5.41-.59-5.41Z"/>
  <path class="cls-1" d="M98.05,256.98c-.52,0-1.06.09-1.51.21-2,1.01-2,4.02.4,4.82.26.09.52.14.78.14,2.14,0,3.39-3.53,1.41-4.96-.33-.16-.71-.21-1.08-.21Z"/>
  <path class="cls-1" d="M78.27,146.65c-.24,0-.49.02-.75.09-2.59.59-2.19,5.2.61,5.2.99,0,1.81-.61,2.21-1.2,1.06-1.81.05-4.09-2.07-4.09Z"/>
  <path class="cls-1" d="M268.34,324.48c-.49,0-.89.14-1.11.38-2,.99-2,4,.21,4.59.28.12.56.16.82.16,2.31,0,3.53-3.51,1.36-4.75-.45-.28-.89-.38-1.29-.38Z"/>
  <path class="cls-1" d="M156.93,114.07c-.19,0-.38.02-.56.05-2.8.8-2.19,5.2.61,5.2,1.2,0,2-.4,2.19-1.2,1.13-1.86,0-4.05-2.23-4.05Z"/>
  <path class="cls-1" d="M251.59,115.55c-2.26,0-3.34,3.51-1.36,4.78.26.26.66.38,1.06.38.49,0,1.01-.16,1.34-.38,2-1.01,2-4.02-.19-4.61-.31-.09-.59-.16-.85-.16Z"/>
  <path class="cls-1" d="M151.38,322.45c-1.01,0-1.81.59-2.21,1.39-1.11,1.86,0,4.05,2.23,4.05.19,0,.38,0,.56-.05,2.61-.8,2.21-5.39-.59-5.39Z"/>
  <path class="cls-1" d="M338.4,155.62c-.52,0-.94.21-1.32.33-2,.99-2,4,.21,4.8.26.09.54.14.8.14,2.28,0,3.36-3.69,1.39-4.94-.4-.24-.75-.33-1.08-.33Z"/>
  <path class="cls-1" d="M122.35,170.95c-1.2,0-2,.4-2.21,1.2-1.08,1.81-.05,4.09,2.07,4.09.24,0,.47-.02.75-.09,2.59-.8,2.19-5.2-.61-5.2Z"/>
  <path class="cls-1" d="M188.93,129.08c-.19,0-.35.02-.54.05-2.8.8-2.19,5.2.4,5.2,1.41,0,1.81-.4,2.4-1.2,1.13-1.86-.16-4.05-2.26-4.05Z"/>
  <path class="cls-1" d="M246.25,100.07c-.47,0-.87.12-1.22.24-2,.99-2,4,.19,4.8.31.12.59.16.85.16,2.26,0,3.34-3.53,1.36-4.96-.42-.16-.82-.24-1.18-.24Z"/>
  <path class="cls-1" d="M229.69,149.9c-.49,0-1.01.12-1.48.24-2,1.01-2,4,.21,4.8.28.12.56.16.82.16,2.31,0,3.53-3.53,1.36-4.96-.26-.16-.56-.24-.92-.24Z"/>
  <path class="cls-1" d="M187.18,118.33c-1.39,0-2,.59-2.19,1.39-1.29,1.86-.02,4.05,2.07,4.05.16,0,.35,0,.52-.05,2.8-.8,2.4-5.39-.4-5.39Z"/>
  <path class="cls-1" d="M236.61,63.68c-.99,0-1.6.4-2.19,1.2-1.11,1.86,0,4.05,2.23,4.05.19,0,.38,0,.56-.05,2.8-.8,2.21-5.2-.61-5.2Z"/>
  <path class="cls-1" d="M275.4,248.04c-2.28,0-3.51,3.53-1.36,4.96.31.19.71.31,1.13.31s.87-.12,1.27-.31c2-1.01,2-4-.19-4.8-.31-.12-.59-.16-.85-.16Z"/>
  <path class="cls-1" d="M342.7,208.52c-.42,0-.82.14-1.22.45-2,1.01-2,4,.21,4.8.24.07.47.12.68.12,2.4,0,3.72-3.62,1.72-4.92-.52-.31-.96-.45-1.39-.45Z"/>
  <path class="cls-1" d="M342.78,252.09c-.45,0-.89.12-1.29.31-2,1.01-2,4,.21,4.8.28.12.56.16.82.16,2.31,0,3.55-3.53,1.58-4.96-.4-.19-.85-.31-1.32-.31Z"/>
  <path class="cls-1" d="M257.12,335.96c-.21,0-.45.05-.68.09-2.8.8-2.21,5.2.4,5.2,1.39,0,2.19-.4,2.4-1.2,1.08-1.79-.12-4.09-2.12-4.09Z"/>
  <path class="cls-1" d="M308.62,198.62c-2.28,0-3.51,3.51-1.36,4.75.4.21.87.31,1.29.31s.82-.09,1.13-.31c2-1.01,2-4-.21-4.61-.28-.09-.56-.14-.85-.14Z"/>
  <path class="cls-1" d="M72.93,154.13c-1.41,0-2,.61-2.4,1.2-1.08,1.81.09,4.09,2.09,4.09.24,0,.47-.02.71-.09,2.8-.59,2.19-5.2-.4-5.2Z"/>
  <path class="cls-1" d="M114.35,290.04c-1.01,0-1.81.4-2.21,1.2-1.08,1.79-.05,4.07,2.07,4.07.24,0,.47-.02.73-.07,2.61-.8,2.21-5.2-.59-5.2Z"/>
  <path class="cls-1" d="M94.97,208.15c-.52,0-.96.12-1.43.24-2,.99-2,4,.4,4.8.28.09.54.14.78.14,2.16,0,3.39-3.51,1.43-4.94-.42-.19-.82-.24-1.18-.24Z"/>
  <path class="cls-1" d="M124.47,319.21c-.16,0-.33,0-.52.05-2.8.8-2.4,5.2.4,5.2,1.01,0,1.81-.4,2.21-1.2,1.29-1.86.02-4.05-2.09-4.05Z"/>
  <path class="cls-1" d="M70.31,246c-.99,0-1.79.4-2.19,1.2-1.08,1.81-.07,4.09,2.05,4.09.24,0,.49-.02.75-.09,2.59-.8,2.19-5.2-.61-5.2Z"/>
  <path class="cls-1" d="M308.62,293.87c-2.28,0-3.51,3.53-1.36,4.96.4.19.87.31,1.29.31s.82-.12,1.13-.31c2-1.01,2-4.21-.21-4.8-.28-.12-.56-.16-.85-.16Z"/>
  <path class="cls-1" d="M181,143.57c-2.14,0-3.39,3.51-1.41,4.78.45.26.87.38,1.25.38.47,0,.92-.16,1.36-.38,2-1.01,2-4.02-.4-4.61-.28-.12-.54-.16-.8-.16Z"/>
  <path class="cls-1" d="M141.12,257.17c-.19,0-.38,0-.56.02-2.59.8-2.19,5.22.61,5.22,1.2,0,2-.4,2.19-1.2,1.11-1.86,0-4.05-2.23-4.05Z"/>
  <path class="cls-1" d="M159.71,336.21c-.19,0-.35,0-.54.05-2.8.8-2.19,5.2.4,5.2,1.41,0,1.81-.4,2.4-1.2,1.13-1.86-.16-4.05-2.26-4.05Z"/>
  <path class="cls-1" d="M195.89,69.87c-1.67,0-3.36.64-4.7,1.81-2,1.41-2.59,4.02-2.99,6.42-.4.78,1.43,1.48,2.85,1.48.78,0,1.41-.21,1.55-.68.8-2.21.99-5.01,3.41-6.21l1.13-.66h0c.07.07.07.12.07.26.4.8.4,1.81.8,2.61.19,2.8.19,5.79.19,8.8v24.02c0,.92,2.09,1.48,3.51,1.48.73,0,1.29-.14,1.29-.49v-30.61c0-1.81,0-3.6-.8-5.01-.8-1.81-2.59-2.8-4.59-3.01-.56-.14-1.15-.21-1.72-.21Z"/>
  <path class="cls-1" d="M219.55,102.26c-2.63,0-5.18.71-6.94,2.66-2.4,2.8-1.81,6.4-2.8,9.6-.4,1.79-2.02,2.8-3.62,3.01h-.59s-.21-.21-.4-.21c-.61-.4-1.01-1.41-1.41-2.21-.16-.52-1.18-.78-2.19-.78-1.27,0-2.54.4-2.21,1.18.4,1.62,1.2,2.82,2.4,3.41,1.15.38,2.45.52,3.76.52.75,0,1.51-.05,2.23-.12,2.02-.19,3.81-.8,5.01-2,1.41-1.01,1.81-2.8,1.81-4.4.59-2.8.19-6.61,2.99-8.4.21,0,.21-.21.61-.21,0,0,.59-.19.4-.19h.8c-.21,0,.19.19.4.19.4.21.8.61.99.8,2.61,2.4,2.02,7.2-.4,9.2-.8.61.21,1.2.8,1.2.54.19,1.2.28,1.86.28.78,0,1.51-.14,1.95-.47,2.61-2,3.6-6,2.21-9.01-1.41-2.4-3.81-3.6-6.61-4-.35-.02-.71-.05-1.06-.05Z"/>
  <path class="cls-1" d="M212.61,92.97c-.78,0-1.41.21-1.41.73v10.21c0,2.21-.4,4.4.21,6.8.8,4.05,4.59,6.26,8.37,6.26,1.86,0,3.72-.54,5.22-1.65.61-.4-.99-1.41-1.6-1.41-.54-.21-1.15-.38-1.72-.38-.47,0-.92.12-1.29.38-.8.4-1.6.61-2.19.61-.21,0-.21-.21-.61-.21l-.59-.8c-1.01-1.39-1.41-3.2-1.41-4.99-.19-4.61,0-9.41,0-14.21,0-.75-1.72-1.34-2.99-1.34Z"/>
  <path class="cls-1" d="M205.6,74.2c-1.72,0-3.53.31-5.01,1.51-2,1.6-2.99,4.4-2.99,6.99.4,1.11,2.66,1.93,3.98,1.93.61,0,1.01-.14,1.01-.52,0-2.21.8-5.01,2.61-6.4.8-.8,1.79-1.01,2.8-1.01h.4c.21,0,.21.21.61.21,2,1.39,2,4.8,2,6.99v9.41c0,1.13,2.12,1.83,3.43,1.83.56,0,.96-.12.96-.42v-9.01c0-2.61,0-5.6-1.41-7.81-1.6-2-4.4-2.99-6.61-3.6-.56-.05-1.18-.09-1.79-.09Z"/>
  <path class="cls-11" d="M122.66,99.11c-2.02,0-4.02.21-5.72.59-6.8.4-10.61,2.21-14.8,11.62-6.61,15.01-13.62,79.44-12.02,82.85.28.54.66.78,1.06.78,2.8,0,8.09-11.03,8.96-14,2-6.4,11.41-31.62,14.4-37.03,1.6-2.8,3.6-5.6,5.6-8,10.02,21.41,20.02,55.24,21.03,61.45.8,3.6.19,9.6,2.19,12.8,1.2,1.72,2.78,2.31,4.54,2.31,2.33,0,4.96-1.01,7.48-1.69,10.21-2.8,23.2-7.41,32.2-13.01-7.6-19.81-37.43-76.06-42.63-84.05-3.39-4.8-8-13.01-18.61-14.42h-.4c-1.06-.14-2.16-.19-3.29-.19Z"/>
  <path class="cls-1" d="M122.35,99.7c1.58,0,2.96.21,4.54.21h0c.38.07.73.12,1.06.19,1.2.21,2.4.8,3.6,1.2,2,1.01,4,2.42,5.62,3.81,2.8,2.61,4.8,5.6,6.8,8.8,2.19,3.41,4.19,7.01,6,10.82,7.2,13.41,14.4,27.01,21.22,40.63,3.39,6.8,6.8,13.81,10,20.61l3.81,8.21c.19.59.4,1.2.59,1.79,0,.21.8,1.2.8,1.81,0,.19-.99.59-1.39.59-.61.4-1.41.8-1.81,1.01-1.2.8-2.59,1.39-3.6,1.79-5.2,2.61-10.4,4.61-16.02,6.21-2.59,1.01-5.2,1.81-8,2.61-2.19.8-4.61,1.39-7.2,2-.31.05-.59.07-.87.07-4.89,0-4.56-8.28-4.94-11.88-.19-2.4-.59-4.8-1.2-7.01-4.4-17.2-10.21-34.23-17.01-50.44-.99-2.4-1.81-4.4-2.8-6.59-.14-.28-.87-.66-1.48-.66-.28,0-.54.07-.73.26-2.19,2.99-4.4,6-6.19,9.2-1.01,2-2,4.21-2.8,6.21-2.42,5.79-4.82,11.81-6.82,17.6-1.39,4.21-2.99,8.61-4.4,13.01-.8,2.21-2,4.4-3.2,6.61-1.39,2.4-2.61,4-4.4,5.81l-.12.05h0c-.05-.07-.09-.16-.09-.26,0-.19,0-.59-.19-.99v-3.6c0-4.02.4-8.21.8-12.21.99-11.41,2.4-23.22,4.21-34.84,1.39-9.6,2.8-19.6,6-29.01.4-.4.8-1.01,1.2-1.6,1.79-4,4.19-8.61,8.61-10.61,1.6-.8,3.39-1.01,5.39-1.01,1.81-.19,3.2-.4,5.01-.4ZM122.05,98.4c-.94,0-1.91.09-2.89.31-2.61.19-5.2.4-7.81,1.2-5.08,1.76-7.88,6.21-9.88,10.89h0c-.16.05-.28.14-.33.31-1.6,3.6-2.59,7.62-3.2,11.22-1.39,5.6-2.4,11.01-2.99,16.8-2.02,12.02-3.62,24.23-4.61,36.63-.4,4.4-.8,8.61-1.01,13.22,0,1.79-.4,4.99.8,6.19.64.52,1.25.75,1.83.75,3.08,0,5.81-5.95,6.99-7.95,2-4,3.2-8.21,4.59-12.21,2.4-6,4.61-12.4,6.82-18.42,2-4.99,3.79-10.19,6.8-15.01.89-1.62,1.88-3.13,3.06-4.54h0c7.15,15.46,12.35,31.83,17.15,48.18,1.41,5.2,3.01,10.4,3.41,16,.4,3.81.59,8.42,4.4,10.42,1.04.52,2.16.73,3.34.73,2.87,0,5.95-1.22,8.66-1.93,11.01-3.01,22.02-7.01,31.62-13.01.4,0,.4-.21.4-.21-2.59-6.59-5.79-12.8-8.8-19.2-4-8.42-8.21-16.82-12.4-25.03-6.82-13.01-13.41-26.02-20.82-38.63-1.81-2.99-3.81-6-6-8.4-3.81-4.4-8.82-7.01-14.21-7.81h0v.02h0c-.71-.12-1.48-.09-2-.21-1.01-.21-1.95-.31-2.92-.31Z"/>
  <path class="cls-1" d="M172.43,166.34c-12.58,1.81-25.52,7.81-34.56,18.02-.27.61.77,1.2,1.46,1.2.23,0,.4-.05.5-.21,8.85-10,21.61-16,33.84-17.6.54,0,.54-.4.35-.8-.35-.21-1.06-.61-1.58-.61Z"/>
  <path class="cls-1" d="M159.68,141.9c-5.54,0-11.06,1.2-16.12,3.43-5.44,2.61-10.54,6.4-15.11,10.61-.6.16.54.89,1.34.89.14,0,.29-.02.41-.09,8.8-8.44,19.14-13.81,30.98-13.81h.66c1.24,0-.35-1.01-.89-1.01-.41,0-.85-.02-1.28-.02Z"/>
  <path class="cls-1" d="M146.46,115.57c-.25,0-.53.04-.67.13-5.58,1.63-10.67,5.23-15.32,9.18-4.64,4.15-8.8,8.66-12.98,13.5-.2.36.44.55,1.04.55.33,0,.65-.06.82-.19,3.87-4.85,8.03-8.99,12.52-13.14,4.49-3.77,9.43-7.56,14.85-9.18.31,0,.62-.36.31-.72-.09-.08-.31-.13-.56-.13Z"/>
  <path class="cls-1" d="M122.16,98.85c-3.88,0-8.14.61-10.82,3.46-2.99,3.01-3.2,7.81-2.4,11.81.4,3.01,1.41,5.81,2.61,8.4.19.31.85.45,1.41.45s1.08-.14.99-.45c-2.4-4.59-4.4-10.8-2.61-16.21,1.58-4.7,6.16-6.52,10.75-6.52.71,0,1.39.05,2.07.12.19,0,1.2,0,1.2-.4,0-.61-1.01-.61-1.01-.61-.71-.02-1.43-.05-2.19-.05Z"/>
  <path class="cls-1" d="M97.65,128.52c-.41,0-.77.21-.77.61-.13,4.8,1.98,9.01,4.2,12,2.08,2.8,4.9,5.25,7.77,5.25.2,0,.42,0,.64-.02,1.6,0,3.33-.61,4.56-2.21.25-.21-.25-.4-.36-.4-.25,0-.74,0-.87.19-.96,1.18-2.05,1.62-3.17,1.62-2.14,0-4.34-1.69-5.97-3.41-2.6-2.8-5.43-7.41-5.07-13.01-.12-.4-.55-.61-.96-.61Z"/>
  <path class="cls-1" d="M92.41,157.98c-.39,0-.9.26-.9.75.13,3.6,1.98,5.81,3.84,7.01,2.22,1.79,4.69,2.59,7.16,2.59,1.12,0,2.35-.4,3.34-.99.38-.4.25-.61,0-.8-.09-.07-.19-.09-.31-.09-.25,0-.52.09-.68.09-.58.47-1.21.66-1.79.66-.42,0-.81-.09-1.18-.26-1.37,0-2.6-.4-4.08-1.2-1.98-1.2-4.69-3.41-4.94-7.41,0-.24-.22-.35-.46-.35Z"/>
  <path class="cls-1" d="M113.95,123.72c-.4,0-1.41,0-1.01.4,2.8,4.61,5.2,9.22,7.41,14.21.12.47.99.66,1.6.66.45,0,.78-.09.59-.26-2.19-4.8-4.4-9.81-7.39-14.4-.21-.4-.8-.4-1.2-.61Z"/>
  <path class="cls-4" d="M292.9,99.11c-1.11,0-2.19.05-3.25.19h-.4c-10.61,1.41-15.41,9.62-18.61,14.42-5.22,8-35.03,64.25-42.63,84.05,8.99,5.6,22,10.21,32.2,13.01,2.52.68,5.15,1.69,7.48,1.69,1.76,0,3.34-.59,4.54-2.31,2-3.2,1.39-9.2,2.19-12.8,1.01-6.21,11.01-40.04,21.03-61.45,2,2.4,4,5.2,5.39,8,3.01,5.41,12.61,30.63,14.61,37.03.87,2.96,6.16,14,8.96,14,.4,0,.78-.24,1.06-.78,1.6-3.41-5.41-67.85-12.02-82.85-4.19-9.41-8-11.22-14.8-11.62-1.81-.38-3.79-.59-5.76-.59Z"/>
  <path class="cls-1" d="M288.86,98.9s-.07.02-.12.02h0s.07-.02.12-.02ZM293.26,99.11c1.6,0,3.2.19,5.01.59,2,.21,3.6.21,5.6,1.2,4.4,1.81,6.8,6.21,8.61,10.21.02.12.05.21.12.28h0c-.12.09-.16.21-.12.33,1.6,3.39,2.19,7.2,3.2,10.61,1.39,5.39,2.4,10.61,2.99,16,2,11.81,3.6,23.62,4.61,35.43.4,4.4.8,9.01,1.01,13.6,0,1.62.19,3.01,0,4.61,0,.8,0,1.81-.4,2.4,0,0-.12.21-.16.4h0c-.59-.66-1.29-1.08-1.86-2-1.39-2.4-2.99-4.8-4-7.41-1.6-3.6-2.99-8-4.19-12-2.21-6-4.4-11.6-6.82-17.62-1.6-4.8-3.6-9.6-6.19-13.81-1.2-2-2.8-4-4.21-5.79-.16-.12-.38-.16-.59-.21h-.02c-.09,0-.21-.02-.31-.02-.33,0-.64.07-.89.14h0c-.31.05-.66.09-.99.09.14.16.31.35.45.52h0c-7.74,16.91-13.69,34.6-18.65,52.51-.8,2.61-1.6,5.01-2,7.6-.8,3.6-.4,7.62-1.6,11.22-.54,2.14-1.72,4.28-4.12,4.28-.28,0-.56-.02-.89-.09-2.4-.19-5.01-1.2-7.41-2-5.6-1.39-10.8-3.2-16-5.39-2.61-1.01-5.2-2.42-7.81-3.62-1.2-.4-2.21-1.2-3.41-1.79-.59-.21-1.39-.61-1.79-1.01-.21-.19-1.6-.59-1.6-.99,0-.21.59-1.2.8-1.6.4-.61.59-1.41.8-1.81.4-1.2,1.2-2.8,1.79-4,3.01-6.61,6.02-13.01,9.22-19.62,6.99-14.21,14.21-28.21,22-42.23,2.21-4.19,4.82-8.8,7.22-13.01,3.2-5.39,6.99-11.2,13.01-14,1.2-.4,2.59-1.01,3.79-1.2.75-.19,1.83-.02,2.61-.64h0c1.06-.07,2.02-.16,3.2-.16ZM289.77,98.62c-.61,0-1.2.07-1.6.38h0c-4.73.71-8.89,2.87-12.54,6.33-2.4,2.59-4.4,5.79-6.4,8.8-2.8,4.61-5.41,9.01-7.81,13.81-8.59,15.81-16.8,31.62-24.82,47.83-3.39,7.2-7.2,14.61-10.19,22.21q0,.21.19.21c8.8,5.2,18.61,9.01,28.23,12,2.4.8,4.8,1.2,6.99,2,1.74.52,3.48,1.06,5.2,1.06.28,0,.54-.02.82-.05,4.4-.21,6-3.81,6.59-7.81.4-3.2.21-6.4,1.01-9.6.4-2.61,1.2-4.8,2-7.41,2.19-7.6,4.8-15.62,7.2-23.41,2.99-9.17,6.52-18.35,10.4-27.17h0c2,2.47,3.67,5.01,4.82,7.95.99,2.21,2,4.61,2.99,7.01,2.61,6,4.8,12.21,7.01,18.4,1.6,4.21,2.8,8.61,4.61,12.82.99,2.4,2.19,5.01,3.79,7.2,1.01,1.6,2.21,3.81,4.21,4.21.35.09.68.12.96.12,2.28,0,2.45-2.56,2.45-4.52,0-3.81-.21-7.81-.4-11.62-1.01-12-2.61-23.62-4.21-35.62-1.01-5.81-1.81-11.81-3.01-17.62-.99-4.19-1.79-8.8-3.39-13.01.38-.38.21-1.13-.16-1.74h0l-.05-.05h0s0-.02-.02-.05h0c-2-4.59-4.59-9.36-9.57-11.17-2.4-.8-5.01-.99-7.6-1.2-2-.19-3.81-.19-5.81-.19-.49,0-1.2-.09-1.88-.09Z"/>
  <path class="cls-1" d="M242,166.93c-.9,0-.35,1.01.79,1.01,12.05,1.41,24.29,7.41,32.98,17.22.17.19.88.4,1.23.4.08.05.15.05.21.05.27,0,.48-.28.33-.45-9.4-10.4-22.35-16.42-35.29-18.21-.08-.02-.19-.02-.25-.02Z"/>
  <path class="cls-1" d="M256.41,141.9c-.54,0-1.08,0-1.62.02-1.15,0,.33,1.01.81,1.01.62-.05,1.23-.07,1.85-.07,4.75,0,9.36,1.32,13.71,3.27,4.91,2.61,9.34,6,13.44,10,.08.33.64.54,1.02.54.31,0,.5-.16.12-.54-8.41-8.56-18.48-14.23-29.32-14.23Z"/>
  <path class="cls-1" d="M271.59,113.08c-.56,0-1.6.66-.7.82,5.08,1.81,9.86,5.81,13.91,10.21,4.21,4.21,8.27,9.22,11.9,14.61.05.12.2.16.43.16.51,0,1.28-.28,1.18-.56-3.79-5.39-7.84-10.4-12.19-15.01-4.35-4.4-8.99-8.21-14.36-10.21-.05-.02-.1-.02-.17-.02Z"/>
  <path class="cls-1" d="M292.97,98.83c-.68,0-1.41.03-2.12.08-.4,0-.61.23-.4.43.12.4.52.48.92.48.26,0,.52-.05.68-.05.64-.1,1.29-.15,1.95-.15,2.07,0,4.28.53,6.26,1.65,2,1.05,3.2,3.2,4,5.33,1.79,5.53-.21,11.9-2.61,17.23-.12.55.8.85,1.55.85.38,0,.73-.08.85-.23,2-4.88,3.6-10.2,3.01-15.53-.8-4.25-3.41-7.65-7.01-8.93-2.33-.83-4.66-1.15-7.08-1.15Z"/>
  <path class="cls-1" d="M317.82,128.66c-.45,0-.93.24-.86.47.14,5.6-2.56,10-5.24,13.01-1.84,1.81-4.16,3.46-6.3,3.46-1.15,0-2.24-.47-3.19-1.67-.38-.19-.63-.19-1.02-.19-.12,0-.77.19-.38.59,1.25,1.65,2.88,2.33,4.54,2.33,1.39,0,2.82-.49,4.04-1.32,3.09-1.6,5.91-5.01,7.7-9.2,1.02-2,1.4-4.4,1.4-7.01-.05-.33-.35-.47-.68-.47Z"/>
  <path class="cls-1" d="M322.22,156.98c-.35,0-.69.21-.69.59-.26,4-2.95,6.21-5,7.2-1.28.8-2.56,1.01-3.96,1.41-1.04,0-2.18,0-3.09-.61-.18-.09-.35-.14-.53-.14-.17,0-.36.05-.62.14-.14,0-.65.61-.26.8,1.07.73,2.24,1.04,3.44,1.04,1.08,0,2.18-.24,3.22-.64,2.44-.59,5-2,6.8-4.4.77-1.2,1.42-2.8,1.42-4.61.06-.52-.33-.78-.72-.78Z"/>
  <path class="cls-1" d="M301.07,123.67c-.31,0-.54.07-.61.26-2.99,4.4-5.2,9.2-7.41,14.21-.28.42.85.85,1.6.85.31,0,.56-.07.61-.26,2.21-4.8,4.4-9.81,7.2-14.21.42-.42-.64-.85-1.39-.85Z"/>
  <path class="cls-5" d="M153.17,209.18c-2.61,1.79-5.2,3.79-7.6,5.6-2.21,1.6-4.61,3.01-6.61,4.61s-3.6,3.39-5.41,5.39c-4.4,5.2-18.61,10.61-25.19,12.21-3.41.71-6.78.96-10.12.96s-6.7-.26-10.12-.56c-.38,0-.73-.02-1.06-.02-3.79,0-5.2,1.04-5.74,3.43.61.99,1.2,2.19,1.6,2.59,1.6,3.01,4.61,5.01,8,6.42,4.02,1.41,8.4,2.28,12.7,2.28,3.62,0,7.22-.64,10.52-2.09,6.8-2.99,13.81-6.8,18.42-12.61,1.79-2,2.99-4.4,4.61-6.61.99-1.79,2.19-4.59,3.79-5.79,3.41-2.8,8.61-1.6,11.62-5.01,2.59-2.8,2.8-7.6.59-10.8Z"/>
  <path class="cls-1" d="M152.7,210.12h0c.85,1.93,1.13,4.16.47,6.26-.8,2.8-3.01,4.61-5.81,5.41-2.19.4-4.4.59-6.4,2-2.4,1.2-3.39,3.39-4.61,5.6-3.2,5.6-6.8,10.4-12,13.81-2.4,1.79-5.01,3.01-7.41,4.21-2.99,1.6-5.79,2.8-9.01,3.39-1.55.26-3.18.38-4.8.38-5.08,0-10.26-1.2-14.21-3.76-2.59-1.41-4.4-3.41-5.6-6.02-.4-.99-.8-2,0-2.99.8-.61,1.81-1.01,2.8-1.01.35-.02.71-.02,1.08-.02,2.85,0,5.72.64,8.73.64,3.2,0,6.4,0,9.6-.61,4.61-.4,8.82-2,12.82-3.6,4.8-2,9.81-4,14-7.41,2-1.39,3.6-3.6,5.62-5.39,2.4-2.42,5.48-3.98,8.3-6.09h0c.14-.02.24-.07.28-.12,2.12-1.62,4.07-3.11,6.14-4.66ZM152.65,208.26c-.33,0-.66.05-.87.12-2.21,2.4-4.61,4-7.22,5.79-2.59,2-5.6,3.81-8.4,6.02-2,1.79-3.6,3.79-5.6,5.6-4,3.2-8.61,5.39-13.41,7.2-5.01,2-10.21,3.41-15.81,4-1.13.07-2.21.09-3.32.09-2.61,0-5.2-.14-7.9-.28-1.2-.19-2.4-.33-3.6-.33-1.41,0-2.8.19-4.19.73-1.41.8-2.82,2.19-2,3.79,1.2,2.4,2.99,4.61,5.2,6.42,4.99,3.6,11.81,4.8,17.81,4.8,6.4,0,12-2.21,17.41-5.2,5.81-3.01,10.8-6.82,14.4-12.02,1.01-1.6,2.02-2.99,3.01-4.8.61-1.6,1.41-3.01,2.4-4.21,2-2.59,5.2-2.8,8.21-3.6,2.8-.59,5.41-2.4,6.4-5.2,1.01-2.8.4-6-.99-8.4-.26-.38-.92-.52-1.53-.52Z"/>
  <path class="cls-6" d="M150.56,206.17c-3.55,5.08-7.67,7.43-13.34,7.43-1.04,0-2.12-.07-3.27-.24-4.07-.4-7.41-1.72-10.87-1.72-1.65,0-3.34.28-5.13,1.13-7.41,3.2-13.41,9.01-19.81,13.2-3.81,2.4-7.62,5.2-11.81,7.22-1.81.99-5.2,1.79-5.41,3.79-.4.8.21,1.81.61,2.8,0-1.55,1.51-2.68,4.92-2.68.52,0,1.08.02,1.67.09,3.41.28,6.75.54,10.12.54s6.7-.26,10.12-.94c6.59-1.6,20.8-7.01,25.19-12.42,1.81-2,3.41-3.39,5.41-5.2,2.21-1.79,4.4-3.01,6.61-4.8,2.4-1.6,4.99-3.41,7.6-5.6-.8-1.01-1.6-1.81-2.61-2.61Z"/>
  <path class="cls-1" d="M151.29,207.58s.07.12.09.19c.59,1.01,0,1.2-.82,1.6-1.2,1.01-2.4,1.81-3.39,2.8-2.4,1.81-4.61,3.2-7.01,4.8-2.4,1.41-4,3.01-6,5.01-1.41,1.41-2.61,3.01-4.4,4.21-3.2,2.59-7.22,4.59-11.01,6-3.41,1.6-7.2,3.01-11.01,3.81-3.2.68-6.56.94-9.95.94s-6.87-.26-10.26-.54c-.49,0-.66.12-.64.28h0c-.28,0-.54-.02-.82-.02-1.41,0-2.85.24-3.95.89h0c.09-.19.21-.38.4-.56.8-.99,2-1.2,3.01-1.79,2.59-1.01,4.8-2.21,6.8-3.81,5.01-3.2,10-6.4,14.61-10.21,2.4-2,5.01-3.79,7.6-5.41,2.8-1.79,5.81-3.39,9.01-3.39,3.01,0,5.81.99,8.61,1.6,1.41.24,2.87.33,4.35.33,1.04,0,2.05-.05,3.06-.14,5.03-.35,8.49-2.99,11.72-6.59ZM150.13,205.79c-.24,0-.45.05-.56.19-3.01,4-6.61,6.99-12,7.2h-.61c-4.85,0-9.27-1.95-13.79-1.95-.68,0-1.34.05-2.02.14-5.81.8-11.01,5.01-15.41,8.21-5.01,3.81-10,7.6-15.41,10.8-1.41,1.01-3.01,2.02-4.8,2.82-1.01.4-2,.8-3.01,1.2-.99.59-2,.99-2.4,2-.8,1.2,0,2.59.21,3.6,0,0,0,.02.02.05h0s-.02.09-.02.14c.07,0,.14,0,.21.02h0c.33.19.92.38,1.39.38.24,0,.45-.05.54-.19h.05s-.02-.05-.02-.07h0s.02-.09.02-.14c.47-1.88,2.31-2.54,4.23-2.54.52,0,1.06.07,1.58.14,3.58.24,7.08.54,10.59.54,2.4,0,4.8-.14,7.22-.54,4-.59,7.81-1.79,11.41-3.39,4.4-1.41,8.4-3.41,12-5.62,1.6-.99,3.01-2,4.4-3.39,1.6-1.41,3.01-3.41,5.01-5.01,2.21-2,5.01-3.41,7.41-5.2,2.8-2,5.2-4,8-6v-.21c-.8-.99-1.79-2-2.8-2.8-.28-.14-.94-.38-1.43-.38Z"/>
  <path class="cls-2" d="M262.44,209.18h0c-2.21,3.2-2,8,.59,10.8,3.01,3.41,8.21,2.21,11.62,5.01,1.6,1.2,2.8,4,3.79,5.79,1.62,2.21,2.82,4.61,4.61,6.61,4.61,5.81,11.62,9.62,18.42,12.61,3.29,1.46,6.87,2.09,10.52,2.09,4.3,0,8.68-.87,12.7-2.28,3.39-1.41,6.4-3.41,8-6.42.4-.4.99-1.6,1.6-2.59-.56-2.4-1.95-3.43-5.74-3.43-.33,0-.68.02-1.06.02-3.41.31-6.75.56-10.12.56s-6.7-.26-10.12-.96c-6.59-1.6-20.8-7.01-25.19-12.21-1.81-2-3.41-3.79-5.41-5.39-2-1.6-4.4-3.01-6.61-4.61-2.4-1.81-5.01-3.81-7.6-5.6Z"/>
  <path class="cls-1" d="M262.65,210.29c2.05,1.58,4.28,3.06,6.4,4.68h0s.02.05.05.05h0c2.4,1.79,5.18,3.18,7.55,5.18,2,1.79,3.6,3.79,5.6,5.6,3.2,2.99,7.41,4.99,11.41,7.01,4,1.6,8,3.2,12.4,4.19,3.55.82,7.15,1.11,10.8,1.11,2.54,0,5.08-.14,7.62-.31,1.11-.19,2.61-.45,4.05-.45s2.87.26,3.76,1.06c.8.8.8,1.6.19,2.59-.4,1.2-1.39,2.4-2.4,3.81-4.4,4.61-11.6,6.21-17.6,6.21-6.42,0-12.21-2.61-17.81-5.62-5.41-2.99-10.02-6.99-13.22-12-.99-1.39-2-2.61-2.8-4.21-.61-1.2-1.2-2.8-2.21-3.79-1.79-2-4.19-2.61-6.4-3.2-2.99-.8-5.81-1.41-7.41-4.4-1.15-2.33-1.08-5.22.02-7.5ZM262.7,208.4c-.56,0-1.15.21-1.27.56-.05.07-.07.14-.12.21h-.07s.02.02.05.02h0c-2.8,4.4-1.55,10.82,3.74,12.77,2.42,1.01,5.01,1.01,7.41,2.21,2.8,1.2,3.81,4,5.2,6.59,1.81,2.61,3.62,5.62,6.02,8.21,2.19,2.21,4.59,4.21,7.2,5.81,5.01,3.2,11.01,6.21,17.2,7.2,1.51.24,3.01.35,4.54.35,4.8,0,9.67-1.13,14.09-2.94,2.59-1.01,4.8-2.61,6.59-4.61.8-1.01,1.41-2.4,2.21-3.6.4-1.01.4-1.41,0-2.4-1.01-1.81-3.01-2-5.01-2.4-.35-.02-.71-.05-1.08-.05-2.92,0-6.07.64-8.92.64-.61.02-1.22.02-1.83.02-5.53,0-10.75-.82-15.97-2.61-5.41-1.6-11.01-4.21-15.81-7.41-2.4-1.81-4.21-4-6.21-6-2.8-2.8-6.21-4.61-9.2-6.82-.16-.02-.35-.05-.54-.05h0c-2.47-1.88-4.78-3.43-7.27-5.34-.16-.26-.54-.38-.94-.38Z"/>
  <path class="cls-7" d="M264.84,206.17c-1.01.8-1.6,1.6-2.4,2.61,2.4,2.19,5.2,4,7.41,5.6,2.4,1.79,4.59,3.01,6.8,4.8,2,1.81,3.6,3.2,5.2,5.2,4.61,5.41,18.82,10.82,25.41,12.42,3.41.68,6.78.94,10.12.94s6.7-.26,10.12-.54c.59-.07,1.15-.09,1.67-.09,3.41,0,4.89,1.13,4.73,2.68.59-.99.99-2,.8-2.8-.21-2-3.81-2.8-5.41-3.79-4.4-2.02-8-4.82-11.81-7.22-6.59-4.19-12.61-10-19.81-13.2-1.86-.85-3.58-1.13-5.22-1.13-3.46,0-6.7,1.32-10.77,1.72-1.15.16-2.23.24-3.27.24-5.67,0-9.83-2.35-13.55-7.43Z"/>
  <path class="cls-1" d="M265.31,207.37c2.35,2.75,5.53,4.96,9.13,6,1.74.42,3.51.61,5.25.61,3.25,0,6.52-.61,9.76-1.41,1.18-.19,2.28-.31,3.34-.31,2.23,0,4.3.49,6.47,1.72,2.8,1.39,5.2,2.99,7.41,5.01,4.8,3.39,9.81,6.99,14.8,10.4,2.61,1.79,5.22,3.6,8.21,4.8,1.01.4,2.4.8,3.41,1.41.82.59,1.08,1.36,1.01,2.21h0c-1.88-1.41-4.87-1.41-7.01-1.41-.09,0-.16,0-.21.02h0c-3.29.31-6.59.59-9.83.59-2.63,0-5.22-.19-7.76-.61-3.81-.61-7.22-2-10.82-3.2-4-1.41-7.81-3.22-11.2-5.81-3.6-2.21-5.81-5.41-8.82-8.21-2.19-2-4.99-3.2-7.6-5.2-2.21-1.67-4.61-3.34-6.7-5.15h0c.33-.54.73-1.01,1.18-1.46ZM264.23,205.98h0s.07.07.12.12h-.26c-.24,0-.45.02-.66.07-.99.8-1.79,1.6-2.4,2.61-.4.19,0,.4.21.4l6.8,5.2c2.21,1.79,4.61,3.01,7.01,4.8,3.6,2.8,6.21,6.61,10,9.01,3.41,2.19,7.41,4.21,11.41,5.81,3.6,1.39,7.2,2.8,11.01,3.39,3.22.66,6.45.89,9.65.89,3.55,0,7.08-.28,10.56-.49.09,0,.14,0,.21-.02h0c.19.02.33.02.4.02.47-.07.94-.14,1.36-.14,1.62,0,2.96.66,3.43,2.54,0,.45,1.04.78,1.69.78.26,0,.45-.05.49-.16.09-.24.19-.45.26-.66h0s.09.05.14.05c-.02-.09-.05-.19-.07-.28h0c.54-1.88.02-3.06-1.72-4.12-2-1.39-4.21-2-6.21-2.99-5.41-3.41-10.8-6.82-16-10.82-4.42-3.6-9.41-7.6-15.01-9.6-1.48-.54-2.94-.75-4.42-.75-3.93,0-7.86,1.46-11.79,1.74-.99.14-1.98.24-2.99.24-1.86,0-3.74-.31-5.43-1.22-2.54-1.18-4.49-3.11-6.28-5.43h0c.21-.19.45-.38.68-.56-.8-.21-1.41-.21-2.21-.4Z"/>
  <path class="cls-3" d="M185.18,322.24c2,5.01,2.21,11.62,5.41,15.81,2.99,3.81,9.01,3.41,14,3.81.8.19,1.81.19,3.01.19s2.21,0,3.01-.19c5.2-.4,11.2,0,14-3.81,3.41-4.19,3.81-11.01,5.6-15.81h0c-4.7.31-9.01.31-12.75.31s-6.96,0-9.46.31c-2.71-.31-5.95-.31-9.76-.31s-8.14,0-13.06-.31Z"/>
  <path class="cls-1" d="M186.48,322.29h0c1.83.02,3.67.02,5.5.02,4.92,0,9.81,0,14.73.49h0c.19.24.59.24.89.24,3.03-.31,6.12-.38,9.17-.38,2.05,0,4.09.02,6.12.02,2.14,0,4.28-.02,6.38-.16h0c-1.29,4.07-1.93,8.47-3.65,12.33-1.01,2-2.21,4-4.21,5.01-2,.99-4.21.99-6.4,1.2-2.21.09-4.35.14-6.49.14s-4.21-.05-6.33-.14c-4.19-.21-9.01-.8-11.41-4.8-2.45-4.16-2.75-9.22-4.3-13.97ZM186.2,321.44c-.26.16-.52.31-.75.42h0c-.49.02-1.83.24-1.65.59,1.79,4.8,2,9.81,4.59,14.4,2.21,4.21,6.82,5.2,11.22,5.41,2.4.09,4.8.14,7.22.14s4.87-.05,7.39-.14c4.19-.21,9.2-.8,12-4.21,3.41-4.59,3.81-10.8,5.81-16,.19-.61-.8-.61-1.01-.61-2.52.14-5.08.16-7.65.16h-3.83c-3.81,0-7.62.05-11.34.45-.09,0-.35.05-.66.12h0c-2.52-.24-5.03-.31-7.55-.31-3.08,0-6.14.09-9.22.09-1.48,0-2.94-.02-4.42-.07h0c-.05-.16-.09-.31-.14-.45Z"/>
  <path class="cls-8" d="M232.21,185.75c-.12.47-.19.89-.19,1.29h0c.07-.42.14-.85.19-1.29ZM184.2,185.75h0c0,.54.07,1.04.16,1.51h0c0-.42-.05-.94-.16-1.51ZM144.63,205.16s-.05,0-.07.02c.02-.02.05-.02.07-.02ZM271.59,205.16s.02,0,.05.02c-.02-.02-.05-.02-.05-.02ZM232.02,187.04c-1.18,5.06-6.02,7.2-11.22,8.33-.8.4-8.19.59-12.61.8-4.8-.21-12-.4-12.8-.8-5.1-.92-10.07-3.18-11.03-8.12h0c-.07,2.42-2.14,2.92-4.59,2.92-1.6,0-3.39-.21-4.89-.21-.99,0-1.88.09-2.49.4-1.81.8-2,3.6-3.81,4.8-1.34,1.08-2.85,1.44-4.47,1.44-.82,0-1.67-.09-2.54-.24-.75-.02-1.36-.05-1.81-.05-2.47,0-1.39.59-3.58,3.46-2,2.38-8.52,4.96-11.55,5.39h0c.21-.02.42-.05.64-.05,2.26,0,2.94,1.79,1.29,3.06-.28.24-.85.31-1.51.31-.71,0-1.53-.07-2.28-.07-.89,0-1.69.09-2,.56-1.2,2,4,10.21,4.99,12.21,5.81,12.02,6.82,23.01,9.62,35.83,2.19,10.4,7.79,19.01,10.8,29.01,2.4,7.81,3.2,15.81,6.4,23.43,2.61,6,4.8,14,10.82,18,3.13,2.31,7.39,3.43,11.67,3.43,2.8,0,5.6-.47,8.14-1.43,2.59-.99,4.4-2.4,5.41-4.4.99,2,2.8,3.41,5.6,4.4,2.35.96,5.08,1.43,7.83,1.43,4.21,0,8.49-1.13,11.76-3.43,5.81-4,8.42-11.6,10.82-18,3.2-7.62,4-15.62,6.59-23.43,3.22-10,8.42-18.8,10.61-29.01,2.8-12.61,3.81-23.81,9.62-35.83,0-2,5.6-10,4-12.21-.31-.47-1.11-.56-2.02-.56-.73,0-1.55.07-2.26.07-.66,0-1.22-.07-1.53-.31-1.46-1.27-.92-3.06,1.32-3.06.19,0,.4.02.64.05h0c-3.03-.42-9.36-3.01-11.36-5.39-2.26-2.92-1.25-3.48-3.43-3.48-.52,0-1.2.05-2.16.07-2.4,0-4.61,0-7.01-1.2-1.79-1.2-2-3.79-3.79-4.8-.66-.31-1.58-.4-2.59-.4-1.51,0-3.29.21-4.87.21-2.49,0-4.52-.52-4.35-3.13Z"/>
  <path class="cls-1" d="M257.9,195.87s0,.02.14.09c.12,0-.09-.09-.14-.09ZM257.92,195.96h0s.09.02.14.05h0s-.02-.02-.02-.05h-.12ZM258.06,196.01c.59,1.2,1.18,2.38,2.16,3.36,1.39,1.39,3.22,2.52,5.18,3.41h0c-1.67-.8-3.18-1.83-4.16-3.01-.8-1.01-1.2-2.4-2-3.01-.38-.35-.78-.59-1.18-.75ZM274.34,208.01l.49.07h0c-.14-.05-.31-.07-.49-.07ZM265.4,202.78c1.34.66,2.78,1.18,4.12,1.55h0s.05,0,.05-.02h0c.4.12.8.24,1.18.33h0c-.4-.09-.8-.19-1.22-.31h0c-1.11.47-1.81,1.34-.87,2.63.8.8,1.79,1.2,2.8,1.2.52,0,1.69-.16,2.56-.16h.33c-.33-.02-.66-.05-.99-.05-.38,0-.75.02-1.11.02-.45,0-.85.07-1.2.07-.45,0-.78-.12-1.01-.68-.66-.99.05-1.69.99-1.69.19,0,.4.02.61.09.14.02.24.02.33.02.85,0,.66-.59-.05-.89h0c.09.02.21.05.33.07,0-.19,0-.8-.21-.99-.14-.02-.31-.05-.47-.05-.64,0-1.39.14-2,.38h0c-1.39-.4-2.8-.89-4.16-1.53ZM183.37,184.39c-.42,0-.78.12-.78.38.02.21.05.4.09.59h-.09c.85,3.67-1.69,4.14-4.78,4.14-1.08,0-2.21-.05-3.29-.05-1.58,0-3.01.12-3.95.73-1.39.99-1.6,2.99-3.2,4.19-1.36,1.25-3.2,1.53-4.99,1.53-.85,0-1.65-.07-2.42-.12-.49,0-1.08-.12-1.69-.12s-1.2.12-1.69.52c-.8.59-1.2,2-1.6,2.8-2.16,2.66-5.98,4.33-9.48,5.29h0c-.59-.07-1.13-.09-1.53-.09.16.07.28.24.42.38h0c-.35.09-.71.16-1.04.24-1.2.19.8.99,1.2.99.14-.02.28-.05.4-.05,1.18,0,.92,1.69,0,2.26-.26.12-.61.16-.99.16-.75,0-1.6-.16-2-.16-1.41,0-3.01.19-3.01,1.79s1.01,3.41,1.41,4.61l2.99,5.41c6,10.4,7.2,23.01,9.81,34.6,2.8,13.01,9.81,24.42,13.01,37.03,1.41,6.61,3.01,13.01,5.41,19.01,2,4.8,3.6,9.81,6.99,13.81,3.81,4.61,9.62,6.61,15.41,6.8.42.02.85.02,1.27.02,4.68,0,10.19-.99,13.27-4.73h0c2.54,2.94,6.4,4.02,10.09,4.52,1.04.09,2.09.14,3.15.14,3.86,0,7.79-.66,11.24-2.54,4.21-2.21,6.61-6,8.61-10.21,2.4-4.8,4.4-9.81,5.81-15.01,1.79-6,2.8-12.21,4.8-18.21,1.81-5.6,4.4-11.01,6.8-16.21,2.21-5.6,3.6-11.41,5.01-17.41,1.2-5.62,2.21-11.41,3.6-17.22,1.6-5.41,3.41-10.8,6-15.41,1.01-1.81,2-3.81,3.01-5.6-.19-.94.66-2.56-.02-3.93h0s-.05-.16-.19-.28h0c-.02-.09-.12-.16-.24-.24h0c-.38-.35-.85-.54-1.36-.66h0c.07.02.14.07.21.09,0,.14.02.26.07.35h0c-.52.02-.96.16-.87.45.4,1.01,0,2.4-.61,3.41-.59,1.79-1.39,3.39-2.4,5.01-2,3.6-3.79,7.2-4.99,11.39-3.62,10.42-4.21,21.43-7.62,32.04-1.39,5.2-3.6,10.19-6,15.2-2.21,5.2-4.21,10.4-5.41,16.21-1.2,5.81-2.59,11.62-4.59,16.82-1.6,4.19-3.2,8.8-5.41,12.4-3.01,4.8-7.01,7.81-12.61,8.61-1.22.24-2.59.38-3.95.38-4.38,0-9.03-1.36-11.36-5.22h0s.07-.09.12-.16c-.09-.02-.16-.02-.24-.05h0c-.19-.4-1.13-.71-1.69-.71-.24,0-.42.05-.49.16-2.61,4.35-8.12,5.67-13.2,5.67-.75,0-1.48-.02-2.21-.07-6-.8-10.19-3.81-13.2-9.01-2.8-4.61-4.4-9.81-6.21-15.01-2-6.4-2.99-13.01-4.99-19.62-1.81-6-4.61-11.79-7.01-17.41-2.61-6-4.21-12.21-5.6-18.61-2.21-11.01-4.21-22.21-9.62-32.21-.99-2.02-2.4-4.02-2.99-6.02-.4-.8-.8-1.79-.61-2.4.14-.89.75-1.06,1.43-1.06.4,0,.8.07,1.18.07h.71c1.43,0,3.36-.14,3.69-2,.09-1.06-.47-1.69-1.27-2.07h0c3.2-.85,6.38-2.12,8.87-3.95,1.2-.99,2-2.4,2.61-3.6.47-.71,1.11-.85,1.83-.85.47,0,1.01.05,1.55.05,2.21,0,4.42,0,6.42-.99,2-1.01,2.59-3.01,3.79-4.4.87-.96,2.21-1.18,3.65-1.18,1.34,0,2.78.19,3.93.19.24,0,.45,0,.64-.02,1.2,0,2.78-.19,3.79-.99h0c1.27,1.95,3.2,3.41,5.41,4.4,3.6,1.6,6.82,1.79,10.61,2,4.4.4,9.01.4,13.81.4,3.41-.4,7.2,0,10.42-1.41,3.39-1.04,6.59-2.82,8.16-5.72h0c.66.52,1.53.89,2.63,1.13.71.09,1.46.14,2.21.14s1.48-.05,2.19-.14c.94,0,1.86-.19,2.68-.19.4,0,.8.05,1.13.19,1.79.59,2.19,3.39,3.79,4.4,1.81,1.2,4,1.79,6.02,1.79h4.68c-.45-.14-.89-.19-1.29-.19-.87,0-1.76.02-2.63.02-1.29,0-2.56-.07-3.76-.42-2.61-.61-2.8-2.61-4.4-4.4-1.34-1.67-3.65-1.81-5.88-1.81h-1.32c-.8,0-1.88.09-2.92.09-.52,0-1.04-.02-1.51-.09-.73-.19-1.11-.66-1.27-1.22h0c.35-.85.59-1.76.68-2.78,0-.49-.8-.75-1.46-.75-.4,0-.75.12-.75.35-.02.16-.02.33-.05.49h0c-.12-.02-.24-.07-.35-.09-.59,4-3.39,6.8-6.8,8.21-3.01,1.39-6,1.6-9.01,1.6-4,.19-8,.19-12,.19-3.01-.19-6.21,0-9.22-.8-4.16-1.08-7.83-3.15-8.8-7.27h0c.09-.71,0-1.43-.19-2.14-.24-.33-1.01-.56-1.62-.56Z"/>
  <path class="cls-10" d="M154.18,222.99c-.8,0-2,.99-.21.99,7.6.21,15.41,2.8,21.01,8.42,4.61,4.99,7.22,12,8.42,18.8,1.6,7.2,2,14.82,2.4,22.21.59,7.01.8,13.81,2.4,20.63.4,2,.59,4.19,1.6,6,.99,1.6,2.8,2.59,4.8,3.2,2.38.64,5.08.99,7.76.99,3.22,0,6.42-.49,9.06-1.6,1.13-.31,0-.64-.78-.64-.16,0-.33,0-.42.05-2.61,1.2-5.62,1.2-8.42,1.2-2.4,0-5.2-.21-7.39-1.6-3.22-1.6-3.81-6.21-4.21-9.41-1.41-6.8-1.6-13.81-2-20.82-.61-7.2-1.01-14.8-2.8-22-1.6-6.42-4-13.01-8.61-17.81-6-6.21-14.21-8.42-22.61-8.61Z"/>
  <path class="cls-10" d="M164.37,275.03c.21,0-.8,0-.4.4,1.62,3.6,5.01,6,7.62,8.59.42.14.75.28,1.11.28.16,0,.31-.02.49-.07.19,0,.99-.21.4-.4-2.61-2.61-6-4.8-7.6-8.4-.4-.4-1.01-.4-1.62-.4Z"/>
  <path class="cls-10" d="M179.68,216.29c-.19,0-.35.02-.49.09,0,.4.4.59.8.8,4,1.01,8.21,3.2,10.4,7.01.09.28.71.42,1.27.42.66,0,1.27-.21.94-.64-1.2-2-3.01-3.6-5.01-4.8-2-1.2-4.19-2.21-6.8-2.8-.26,0-.71-.09-1.11-.09Z"/>
  <path class="cls-10" d="M189.82,212.62c-.24,0-.56.21-.42.35,2.99,3.2,6.61,6.21,8.21,10.21.4.61.99.8,1.39.8.21,0,1.2,0,1.01-.19-1.81-4.4-5.41-7.41-8.61-10.61-.21-.4-1.01-.4-1.41-.4,0-.12-.07-.16-.16-.16Z"/>
  <path class="cls-10" d="M202.36,206.73c-.47,0-.85.12-.75.45.8,4.8,2,9.6,1.79,14.61-.12.38.78.68,1.46.68.38,0,.68-.07.75-.28.4-5.01-.61-9.81-1.6-14.82,0-.35-.94-.64-1.65-.64Z"/>
  <path class="cls-10" d="M186.34,299.94c-.19,0-.38.02-.54.09-3.6,1.39-6.61,4.21-7.62,8.21-1.39,3.79-.8,8,.61,11.6.19.21.85.31,1.43.31s1.06-.09.96-.31c-3.01-6.8-1.41-16,6.21-18.82.4-.19.4-.59,0-.8-.14-.14-.59-.28-1.06-.28Z"/>
  <path class="cls-10" d="M260.84,222.99c-7.41.19-15.01,2.19-20.61,7.2-5.01,4.61-7.81,10.8-9.62,17.01-3.79,14.02-2.8,28.82-4.99,42.84-.21,1.79-.4,3.39-1.01,5.2-.4,2-.99,4.19-2.4,5.79-2,1.81-5.01,2-7.6,2.21-.94.05-1.88.09-2.82.09-2.31,0-4.61-.24-6.59-1.11-.21-.05-.47-.07-.75-.07-.85,0-1.69.24-.66.68,2.71,1.18,5.81,1.65,8.94,1.65,2.19,0,4.4-.24,6.47-.64,2-.4,4.02-.82,5.41-2.42,1.2-1.2,1.81-2.59,2.21-4.4,1.79-6.8,2.4-14,2.8-21.01.59-7.6.8-15.2,2.19-22.61,1.41-6.61,3.41-13.62,7.62-19.41,5.39-7.01,14-10.02,22.8-10.21.14.02.24.02.31.02.75,0-.96-.82-1.69-.82Z"/>
  <path class="cls-10" d="M250.07,274.89c-.31,0-.59.09-.64.33-1.81,3.6-5.01,5.81-7.81,8.21-.19.4.61.8.8.8.4,0,.8.09,1.15.09.16,0,.33-.02.45-.09,2.61-2.4,6-5.01,7.62-8.4.26-.42-.82-.94-1.58-.94Z"/>
  <path class="cls-10" d="M234.21,216.17c-2.19.61-4.59,1.62-6.59,2.82-2,1.2-3.81,2.8-5.01,4.8-.28.42.73.85,1.51.85.31,0,.59-.07.71-.26,2.4-3.6,6.59-6.19,10.8-7.2.59,0,.59-.4.19-.8-.4-.21-1.2-.21-1.6-.21Z"/>
  <path class="cls-10" d="M224.56,212.57c-.26,0-.45.07-.54.21-3.01,3.2-6.61,6.21-8.42,10.4-.14.47,1.13.94,1.91.94.24,0,.4-.05.49-.14,1.6-4,5.22-7.01,8.21-10.21.31-.59-.87-1.2-1.65-1.2Z"/>
  <path class="cls-10" d="M213.18,206.33c-.42,0-.78.12-.78.45-.99,4.59-2,9.6-1.79,14.4,0,.45.75.71,1.41.71.52,0,.99-.14.99-.49-.4-5.01.59-9.62,1.6-14.42,0-.35-.8-.64-1.43-.64Z"/>
  <path class="cls-10" d="M228.12,299.92c-.24,0-.47.07-.71.31.21,0,.61.21.8.61,7.41,2.61,9.22,12,6,18.61-.28.42.89.75,1.65.75.28,0,.52-.05.56-.14,1.6-3.62,2-7.81.8-11.62-1.41-4-4-7.01-8-8.21-.38-.12-.73-.31-1.11-.31Z"/>
  <path class="cls-10" d="M207.09,324.43c-.35,0-.61.07-.68.21-2.33,4.07-7.08,5.62-11.86,5.62-2.99,0-5.98-.61-8.35-1.62-.35-.12-.71-.21-1.04-.21-.26,0-.52.05-.78.21,0,.4-.19.61.21.8,3.15,1.36,6.63,2.05,10.12,2.05,1.18,0,2.33-.09,3.48-.24,3.62-.35,7.25-1.58,9.57-4.35h0c2.49,2.75,6.54,3.83,10.44,4.35,1.06.09,2.12.14,3.18.14,3.79,0,7.6-.64,11.03-2.35.59-.4-.21-.59-.4-.8-.31-.09-.66-.14-.99-.14-.31,0-.61.05-.82.14-2.68,1.39-6.28,2.31-9.86,2.31-4.66,0-9.27-1.53-11.74-5.5-.14-.38-.94-.61-1.53-.61Z"/>
  <path class="cls-10" d="M161.52,246.19c-.12,0-.24,0-.35.02-1.79,4.8.8,10,6.82,12.59,1.13.47,2.42.75,3.67.75,2.47,0,4.8-1.08,5.32-3.74.99-6.05-11.13-9.62-15.46-9.62Z"/>
  <path class="cls-10" d="M254.09,246.19c-4.33,0-16.44,3.58-15.46,9.62.52,2.66,2.85,3.74,5.32,3.74,1.25,0,2.54-.28,3.67-.75,6.02-2.59,8.61-7.79,6.82-12.59-.12-.02-.24-.02-.35-.02Z"/>
  <path class="cls-10" d="M193,301.02h0c3.41,4.02,7.01,5.81,9.41,7.41,1.6,2.8,2.8,5.6,4.99,8,.21-.4.21-.99.61-1.2.19.61.19.8.4,1.2,2.21-2.19,3.41-5.2,5.01-8,2.4-1.6,5.79-3.39,9.6-7.41h0c-4.21.8-9.6.8-15.01,1.01-5.6,0-11.01-.21-15.01-1.01Z"/>
  <path class="cls-1" d="M141.36,289.57c-.06,0-.11.03-.15.09l-.73,4.48c0,.12-.12.12-.12.12l-4.06.91,4.06.9c.12,0,.12.06.12.06l.79,4.36c0,.09.04.14.1.14.05,0,.11-.04.14-.14l.85-4.36c0-.06.06-.06.06-.06l3.64-.85c.06,0,.06-.18,0-.24l-3.64-.85c-.06,0-.06-.06-.06-.06l-.91-4.42c0-.06-.04-.09-.09-.09Z"/>
  <path class="cls-1" d="M165.25,72.07c-.1,0-.2.05-.26.15l-1.28,7.88c0,.21-.21.21-.21.21l-7.13,1.6,7.13,1.59c.21,0,.21.11.21.11l1.39,7.65c0,.16.08.24.18.24.09,0,.2-.08.25-.24l1.49-7.65c0-.11.1-.11.1-.11l6.39-1.49c.1,0,.1-.31,0-.43l-6.39-1.49c-.1,0-.1-.11-.1-.11l-1.6-7.76c0-.1-.08-.15-.16-.15Z"/>
  <path class="cls-1" d="M282.2,280.27c-.1,0-.2.05-.26.15l-1.28,7.88c0,.21-.21.21-.21.21l-7.13,1.6,7.13,1.59c.21,0,.21.11.21.11l1.39,7.65c0,.16.08.24.18.24.09,0,.2-.08.25-.24l1.49-7.65c0-.11.1-.11.1-.11l6.39-1.49c.1,0,.1-.31,0-.43l-6.39-1.49c-.1,0-.1-.11-.1-.11l-1.6-7.76c0-.1-.08-.15-.16-.15Z"/>
  <path class="cls-1" d="M211.04,135.29c-.06,0-.11.03-.15.09l-.73,4.48c0,.12-.12.12-.12.12l-4.06.91,4.06.9c.12,0,.12.06.12.06l.79,4.36c0,.09.04.14.1.14.05,0,.11-.04.14-.14l.85-4.36c0-.06.06-.06.06-.06l3.64-.85c.06,0,.06-.18,0-.24l-3.64-.85c-.06,0-.06-.06-.06-.06l-.91-4.42c0-.06-.04-.09-.09-.09Z"/>
  <path class="cls-1" d="M265.02,71.58c-.09,0-.17.04-.23.13l-1.1,6.77c0,.18-.18.18-.18.18l-6.13,1.38,6.13,1.36c.18,0,.18.1.18.1l1.19,6.58c0,.14.06.2.15.2.08,0,.17-.06.21-.2l1.28-6.58c0-.1.09-.1.09-.1l5.49-1.28c.09,0,.09-.27,0-.37l-5.49-1.28c-.09,0-.09-.1-.09-.1l-1.38-6.67c0-.09-.06-.13-.14-.13Z"/>
  <path class="cls-1" d="M92.49,269.83c-.09,0-.17.04-.23.13l-1.1,6.77c0,.18-.18.18-.18.18l-6.13,1.38,6.13,1.36c.18,0,.18.1.18.1l1.19,6.58c0,.14.06.2.15.2.08,0,.17-.06.21-.2l1.28-6.58c0-.1.09-.1.09-.1l5.49-1.28c.09,0,.09-.27,0-.37l-5.49-1.28c-.09,0-.09-.1-.09-.1l-1.38-6.67c0-.09-.06-.13-.14-.13Z"/>
  <path class="cls-1" d="M73.35,203.31c-.06,0-.11.03-.15.09l-.73,4.48c0,.12-.12.12-.12.12l-4.06.91,4.06.9c.12,0,.12.06.12.06l.79,4.36c0,.09.04.14.1.14.05,0,.11-.04.14-.14l.85-4.36c0-.06.06-.06.06-.06l3.64-.85c.06,0,.06-.18,0-.24l-3.64-.85c-.06,0-.06-.06-.06-.06l-.91-4.42c0-.06-.04-.09-.09-.09Z"/>
  <path class="cls-1" d="M349.63,174.44c-.09,0-.17.04-.23.13l-1.1,6.77c0,.18-.18.18-.18.18l-6.13,1.38,6.13,1.36c.18,0,.18.1.18.1l1.19,6.58c0,.14.06.2.15.2.08,0,.17-.06.21-.2l1.28-6.58c0-.1.09-.1.09-.1l5.49-1.28c.09,0,.09-.27,0-.37l-5.49-1.28c-.09,0-.09-.1-.09-.1l-1.38-6.67c0-.09-.06-.13-.14-.13Z"/>
</svg>