<?xml version="1.0" encoding="UTF-8"?>
<svg id="Layer_1" data-name="Layer 1" xmlns="http://www.w3.org/2000/svg" xmlns:xlink="http://www.w3.org/1999/xlink" viewBox="0 0 264 257">
  <defs>
    <style>
      .cls-1 {
        fill: url(#linear-gradient-2);
      }

      .cls-1, .cls-2, .cls-3, .cls-4, .cls-5, .cls-6, .cls-7, .cls-8, .cls-9, .cls-10, .cls-11, .cls-12, .cls-13, .cls-14, .cls-15, .cls-16, .cls-17, .cls-18, .cls-19, .cls-20, .cls-21, .cls-22, .cls-23, .cls-24, .cls-25, .cls-26, .cls-27, .cls-28, .cls-29, .cls-30, .cls-31, .cls-32, .cls-33, .cls-34, .cls-35, .cls-36, .cls-37, .cls-38, .cls-39, .cls-40, .cls-41, .cls-42, .cls-43, .cls-44, .cls-45, .cls-46, .cls-47, .cls-48, .cls-49, .cls-50, .cls-51, .cls-52, .cls-53, .cls-54, .cls-55, .cls-56, .cls-57, .cls-58, .cls-59, .cls-60, .cls-61, .cls-62, .cls-63, .cls-64, .cls-65, .cls-66, .cls-67, .cls-68, .cls-69, .cls-70, .cls-71, .cls-72, .cls-73, .cls-74, .cls-75 {
        fill-rule: evenodd;
      }

      .cls-2 {
        fill: url(#linear-gradient-3);
      }

      .cls-3 {
        fill: url(#linear-gradient-4);
      }

      .cls-4 {
        fill: url(#radial-gradient);
      }

      .cls-5 {
        fill: url(#radial-gradient-30);
      }

      .cls-6 {
        fill: url(#radial-gradient-31);
      }

      .cls-7 {
        fill: url(#radial-gradient-32);
      }

      .cls-8 {
        fill: url(#radial-gradient-33);
      }

      .cls-9 {
        fill: url(#radial-gradient-38);
      }

      .cls-10 {
        fill: url(#radial-gradient-39);
      }

      .cls-11 {
        fill: url(#radial-gradient-36);
      }

      .cls-12 {
        fill: url(#radial-gradient-37);
      }

      .cls-13 {
        fill: url(#radial-gradient-27);
      }

      .cls-14 {
        fill: url(#radial-gradient-29);
      }

      .cls-15 {
        fill: url(#radial-gradient-26);
      }

      .cls-16 {
        fill: url(#radial-gradient-20);
      }

      .cls-17 {
        fill: url(#radial-gradient-24);
      }

      .cls-18 {
        fill: url(#radial-gradient-21);
      }

      .cls-19 {
        fill: url(#radial-gradient-51);
      }

      .cls-20 {
        fill: url(#radial-gradient-52);
      }

      .cls-21 {
        fill: url(#radial-gradient-59);
      }

      .cls-22 {
        fill: url(#radial-gradient-53);
      }

      .cls-23 {
        fill: url(#radial-gradient-54);
      }

      .cls-24 {
        fill: url(#radial-gradient-55);
      }

      .cls-25 {
        fill: url(#radial-gradient-50);
      }

      .cls-26 {
        fill: url(#radial-gradient-35);
      }

      .cls-27 {
        fill: url(#radial-gradient-34);
      }

      .cls-28 {
        fill: url(#radial-gradient-23);
      }

      .cls-29 {
        fill: url(#radial-gradient-28);
      }

      .cls-30 {
        fill: url(#radial-gradient-22);
      }

      .cls-31 {
        fill: url(#radial-gradient-40);
      }

      .cls-32 {
        fill: url(#radial-gradient-41);
      }

      .cls-33 {
        fill: url(#radial-gradient-46);
      }

      .cls-34 {
        fill: url(#radial-gradient-42);
      }

      .cls-35 {
        fill: url(#radial-gradient-49);
      }

      .cls-36 {
        fill: url(#radial-gradient-44);
      }

      .cls-37 {
        fill: url(#radial-gradient-43);
      }

      .cls-38 {
        fill: url(#radial-gradient-45);
      }

      .cls-39 {
        fill: url(#radial-gradient-25);
      }

      .cls-40 {
        fill: url(#radial-gradient-56);
      }

      .cls-41 {
        fill: url(#radial-gradient-58);
      }

      .cls-42 {
        fill: url(#radial-gradient-57);
      }

      .cls-43 {
        fill: url(#radial-gradient-70);
      }

      .cls-44 {
        fill: url(#radial-gradient-65);
      }

      .cls-45 {
        fill: url(#radial-gradient-63);
      }

      .cls-46 {
        fill: url(#radial-gradient-67);
      }

      .cls-47 {
        fill: url(#radial-gradient-68);
      }

      .cls-48 {
        fill: url(#radial-gradient-69);
      }

      .cls-49 {
        fill: url(#radial-gradient-62);
      }

      .cls-50 {
        fill: url(#radial-gradient-64);
      }

      .cls-51 {
        fill: url(#radial-gradient-71);
      }

      .cls-52 {
        fill: url(#radial-gradient-61);
      }

      .cls-53 {
        fill: url(#radial-gradient-66);
      }

      .cls-54 {
        fill: url(#radial-gradient-60);
      }

      .cls-55 {
        fill: url(#radial-gradient-11);
      }

      .cls-56 {
        fill: url(#radial-gradient-17);
      }

      .cls-57 {
        fill: url(#radial-gradient-19);
      }

      .cls-58 {
        fill: url(#radial-gradient-10);
      }

      .cls-59 {
        fill: url(#radial-gradient-18);
      }

      .cls-60 {
        fill: url(#radial-gradient-15);
      }

      .cls-61 {
        fill: url(#radial-gradient-12);
      }

      .cls-62 {
        fill: url(#radial-gradient-16);
      }

      .cls-63 {
        fill: url(#radial-gradient-13);
      }

      .cls-64 {
        fill: url(#radial-gradient-14);
      }

      .cls-65 {
        fill: url(#radial-gradient-48);
      }

      .cls-66 {
        fill: url(#radial-gradient-47);
      }

      .cls-76 {
        stroke-width: 2.9px;
      }

      .cls-76, .cls-77 {
        fill: none;
        stroke: #ebb871;
        stroke-linejoin: round;
      }

      .cls-67 {
        fill: url(#linear-gradient);
      }

      .cls-77 {
        stroke-width: 1.45px;
      }

      .cls-68 {
        fill: url(#radial-gradient-7);
      }

      .cls-69 {
        fill: url(#radial-gradient-5);
      }

      .cls-70 {
        fill: url(#radial-gradient-6);
      }

      .cls-71 {
        fill: url(#radial-gradient-4);
      }

      .cls-72 {
        fill: url(#radial-gradient-8);
      }

      .cls-73 {
        fill: url(#radial-gradient-9);
      }

      .cls-74 {
        fill: url(#radial-gradient-3);
      }

      .cls-75 {
        fill: url(#radial-gradient-2);
      }
    </style>
    <radialGradient id="radial-gradient" cx="-870.45" cy="939.76" fx="-870.45" fy="939.76" r="14.75" gradientTransform="translate(8970.32 9670.03) scale(10.15 -10.15)" gradientUnits="userSpaceOnUse">
      <stop offset="0" stop-color="#d473c9"/>
      <stop offset="1" stop-color="#0e0e1c"/>
    </radialGradient>
    <radialGradient id="radial-gradient-2" cx="-875.76" cy="948.81" fx="-875.76" fy="948.81" r="15.49" gradientTransform="translate(9474.2 10249.99) scale(10.67 -10.67)" gradientUnits="userSpaceOnUse">
      <stop offset="0" stop-color="#f3d5ab"/>
      <stop offset="1" stop-color="#dc9b3f"/>
    </radialGradient>
    <radialGradient id="radial-gradient-3" cx="-711.51" cy="687.28" fx="-711.51" fy="687.28" r="6.02" gradientTransform="translate(3080.06 2890.22) scale(4.14 -4.14)" gradientUnits="userSpaceOnUse">
      <stop offset="0" stop-color="#f3d5ab"/>
      <stop offset="1" stop-color="#dc9b3f"/>
    </radialGradient>
    <radialGradient id="radial-gradient-4" cx="-616.48" cy="526.19" fx="-616.48" fy="526.19" r="4.44" gradientTransform="translate(2018.66 1668.52) scale(3.06 -3.06)" gradientUnits="userSpaceOnUse">
      <stop offset="0" stop-color="#f3d5ab"/>
      <stop offset="1" stop-color="#dc9b3f"/>
    </radialGradient>
    <radialGradient id="radial-gradient-5" cx="-204.8" cy="-235.47" fx="-204.8" fy="-235.47" r="1.99" gradientTransform="translate(361.62 -238.77) scale(1.37 -1.37)" gradientUnits="userSpaceOnUse">
      <stop offset="0" stop-color="#f3d5ab"/>
      <stop offset="1" stop-color="#dc9b3f"/>
    </radialGradient>
    <radialGradient id="radial-gradient-6" cx="-161.75" cy="-238.66" fx="-161.75" fy="-238.66" r="1.98" gradientTransform="translate(357.14 -243.92) scale(1.36 -1.36)" gradientUnits="userSpaceOnUse">
      <stop offset="0" stop-color="#f3d5ab"/>
      <stop offset="1" stop-color="#dc9b3f"/>
    </radialGradient>
    <radialGradient id="radial-gradient-7" cx="-153.82" cy="-230.16" fx="-153.82" fy="-230.16" r="2" gradientTransform="translate(368.58 -230.76) scale(1.38 -1.38)" gradientUnits="userSpaceOnUse">
      <stop offset="0" stop-color="#f3d5ab"/>
      <stop offset="1" stop-color="#dc9b3f"/>
    </radialGradient>
    <radialGradient id="radial-gradient-8" cx="-126.8" cy="-291.97" fx="-126.8" fy="-291.97" r="1.99" gradientTransform="translate(365.89 -233.86) scale(1.37 -1.37)" gradientUnits="userSpaceOnUse">
      <stop offset="0" stop-color="#f3d5ab"/>
      <stop offset="1" stop-color="#dc9b3f"/>
    </radialGradient>
    <radialGradient id="radial-gradient-9" cx="-123.21" cy="-228.06" fx="-123.21" fy="-228.06" r="1.97" gradientTransform="translate(350.19 -251.92) scale(1.36 -1.36)" gradientUnits="userSpaceOnUse">
      <stop offset="0" stop-color="#f3d5ab"/>
      <stop offset="1" stop-color="#dc9b3f"/>
    </radialGradient>
    <radialGradient id="radial-gradient-10" cx="-227.78" cy="-259.06" fx="-227.78" fy="-259.06" r="1.99" gradientTransform="translate(361.96 -238.38) scale(1.37 -1.37)" gradientUnits="userSpaceOnUse">
      <stop offset="0" stop-color="#f3d5ab"/>
      <stop offset="1" stop-color="#dc9b3f"/>
    </radialGradient>
    <radialGradient id="radial-gradient-11" cx="-233.09" cy="-285.86" fx="-233.09" fy="-285.86" r="1.99" gradientTransform="translate(360.83 -239.68) scale(1.37 -1.37)" gradientUnits="userSpaceOnUse">
      <stop offset="0" stop-color="#f3d5ab"/>
      <stop offset="1" stop-color="#dc9b3f"/>
    </radialGradient>
    <radialGradient id="radial-gradient-12" cx="-238.11" cy="-257.13" fx="-238.11" fy="-257.13" r="1.99" gradientTransform="translate(365.4 -234.42) scale(1.37 -1.37)" gradientUnits="userSpaceOnUse">
      <stop offset="0" stop-color="#f3d5ab"/>
      <stop offset="1" stop-color="#dc9b3f"/>
    </radialGradient>
    <radialGradient id="radial-gradient-13" cx="-101.2" cy="-277.01" fx="-101.2" fy="-277.01" r="1.98" gradientTransform="translate(353.79 -247.78) scale(1.36 -1.36)" gradientUnits="userSpaceOnUse">
      <stop offset="0" stop-color="#f3d5ab"/>
      <stop offset="1" stop-color="#dc9b3f"/>
    </radialGradient>
    <radialGradient id="radial-gradient-14" cx="-194.09" cy="-244.84" fx="-194.09" fy="-244.84" r="1.98" gradientTransform="translate(355.92 -245.33) scale(1.36 -1.36)" gradientUnits="userSpaceOnUse">
      <stop offset="0" stop-color="#f3d5ab"/>
      <stop offset="1" stop-color="#dc9b3f"/>
    </radialGradient>
    <radialGradient id="radial-gradient-15" cx="-142.82" cy="-229.28" fx="-142.82" fy="-229.28" r="1.98" gradientTransform="translate(358.12 -242.79) scale(1.37 -1.37)" gradientUnits="userSpaceOnUse">
      <stop offset="0" stop-color="#f3d5ab"/>
      <stop offset="1" stop-color="#dc9b3f"/>
    </radialGradient>
    <radialGradient id="radial-gradient-16" cx="-222.13" cy="-303.99" fx="-222.13" fy="-303.99" r="1.99" gradientTransform="translate(363.72 -236.35) scale(1.37 -1.37)" gradientUnits="userSpaceOnUse">
      <stop offset="0" stop-color="#f3d5ab"/>
      <stop offset="1" stop-color="#dc9b3f"/>
    </radialGradient>
    <radialGradient id="radial-gradient-17" cx="-110.19" cy="-230.64" fx="-110.19" fy="-230.64" r="2" gradientTransform="translate(366.38 -233.28) scale(1.37 -1.37)" gradientUnits="userSpaceOnUse">
      <stop offset="0" stop-color="#f3d5ab"/>
      <stop offset="1" stop-color="#dc9b3f"/>
    </radialGradient>
    <radialGradient id="radial-gradient-18" cx="-224.29" cy="-235.31" fx="-224.29" fy="-235.31" r="1.99" gradientTransform="translate(359.69 -240.99) scale(1.37 -1.37)" gradientUnits="userSpaceOnUse">
      <stop offset="0" stop-color="#f3d5ab"/>
      <stop offset="1" stop-color="#dc9b3f"/>
    </radialGradient>
    <radialGradient id="radial-gradient-19" cx="-231.38" cy="-292.39" fx="-231.38" fy="-292.39" r="2" gradientTransform="translate(370.33 -228.74) scale(1.38 -1.38)" gradientUnits="userSpaceOnUse">
      <stop offset="0" stop-color="#f3d5ab"/>
      <stop offset="1" stop-color="#dc9b3f"/>
    </radialGradient>
    <radialGradient id="radial-gradient-20" cx="-190.26" cy="-204.42" fx="-190.26" fy="-204.42" r="2" gradientTransform="translate(368.58 -230.76) scale(1.38 -1.38)" gradientUnits="userSpaceOnUse">
      <stop offset="0" stop-color="#f3d5ab"/>
      <stop offset="1" stop-color="#dc9b3f"/>
    </radialGradient>
    <radialGradient id="radial-gradient-21" cx="-207.22" cy="-204.98" fx="-207.22" fy="-204.98" r="2" gradientTransform="translate(367.54 -231.96) scale(1.38 -1.38)" gradientUnits="userSpaceOnUse">
      <stop offset="0" stop-color="#f3d5ab"/>
      <stop offset="1" stop-color="#dc9b3f"/>
    </radialGradient>
    <radialGradient id="radial-gradient-22" cx="-116.28" cy="-309.2" fx="-116.28" fy="-309.2" r="1.99" gradientTransform="translate(363.99 -236.04) scale(1.37 -1.37)" gradientUnits="userSpaceOnUse">
      <stop offset="0" stop-color="#f3d5ab"/>
      <stop offset="1" stop-color="#dc9b3f"/>
    </radialGradient>
    <radialGradient id="radial-gradient-23" cx="-155.01" cy="-246.33" fx="-155.01" fy="-246.33" r="1.99" gradientTransform="translate(360.87 -239.63) scale(1.37 -1.37)" gradientUnits="userSpaceOnUse">
      <stop offset="0" stop-color="#f3d5ab"/>
      <stop offset="1" stop-color="#dc9b3f"/>
    </radialGradient>
    <radialGradient id="radial-gradient-24" cx="-185.8" cy="-242.27" fx="-185.8" fy="-242.27" r="1.99" gradientTransform="translate(362.62 -237.62) scale(1.37 -1.37)" gradientUnits="userSpaceOnUse">
      <stop offset="0" stop-color="#f3d5ab"/>
      <stop offset="1" stop-color="#dc9b3f"/>
    </radialGradient>
    <radialGradient id="radial-gradient-25" cx="-97.77" cy="-289.26" fx="-97.77" fy="-289.26" r="1.98" gradientTransform="translate(355.13 -246.24) scale(1.36 -1.36)" gradientUnits="userSpaceOnUse">
      <stop offset="0" stop-color="#f3d5ab"/>
      <stop offset="1" stop-color="#dc9b3f"/>
    </radialGradient>
    <radialGradient id="radial-gradient-26" cx="-116.81" cy="-301.42" fx="-116.81" fy="-301.42" r="1.97" gradientTransform="translate(351.53 -250.38) scale(1.36 -1.36)" gradientUnits="userSpaceOnUse">
      <stop offset="0" stop-color="#f3d5ab"/>
      <stop offset="1" stop-color="#dc9b3f"/>
    </radialGradient>
    <radialGradient id="radial-gradient-27" cx="-144" cy="-324.59" fx="-144" fy="-324.59" r="2" gradientTransform="translate(367.26 -232.27) scale(1.37 -1.37)" gradientUnits="userSpaceOnUse">
      <stop offset="0" stop-color="#f3d5ab"/>
      <stop offset="1" stop-color="#dc9b3f"/>
    </radialGradient>
    <radialGradient id="radial-gradient-28" cx="-208.74" cy="-314.33" fx="-208.74" fy="-314.33" r="2" gradientTransform="translate(367.19 -232.36) scale(1.37 -1.37)" gradientUnits="userSpaceOnUse">
      <stop offset="0" stop-color="#f3d5ab"/>
      <stop offset="1" stop-color="#dc9b3f"/>
    </radialGradient>
    <radialGradient id="radial-gradient-29" cx="-200.38" cy="-328.41" fx="-200.38" fy="-328.41" r="1.99" gradientTransform="translate(360.29 -240.3) scale(1.37 -1.37)" gradientUnits="userSpaceOnUse">
      <stop offset="0" stop-color="#f3d5ab"/>
      <stop offset="1" stop-color="#dc9b3f"/>
    </radialGradient>
    <radialGradient id="radial-gradient-30" cx="-201.74" cy="-316.54" fx="-201.74" fy="-316.54" r="1.99" gradientTransform="translate(364.4 -235.56) scale(1.37 -1.37)" gradientUnits="userSpaceOnUse">
      <stop offset="0" stop-color="#f3d5ab"/>
      <stop offset="1" stop-color="#dc9b3f"/>
    </radialGradient>
    <radialGradient id="radial-gradient-31" cx="-136.74" cy="-330.63" fx="-136.74" fy="-330.63" r="1.99" gradientTransform="translate(363.99 -236.04) scale(1.37 -1.37)" gradientUnits="userSpaceOnUse">
      <stop offset="0" stop-color="#f3d5ab"/>
      <stop offset="1" stop-color="#dc9b3f"/>
    </radialGradient>
    <radialGradient id="radial-gradient-32" cx="-131.11" cy="-305.11" fx="-131.11" fy="-305.11" r="1.98" gradientTransform="translate(357.13 -243.94) scale(1.36 -1.36)" gradientUnits="userSpaceOnUse">
      <stop offset="0" stop-color="#f3d5ab"/>
      <stop offset="1" stop-color="#dc9b3f"/>
    </radialGradient>
    <radialGradient id="radial-gradient-33" cx="-206.69" cy="-284.49" fx="-206.69" fy="-284.49" r="2" gradientTransform="translate(369.59 -229.6) scale(1.38 -1.38)" gradientUnits="userSpaceOnUse">
      <stop offset="0" stop-color="#f3d5ab"/>
      <stop offset="1" stop-color="#dc9b3f"/>
    </radialGradient>
    <radialGradient id="radial-gradient-34" cx="-130.16" cy="-251.54" fx="-130.16" fy="-251.54" r="1.97" gradientTransform="translate(351.38 -250.55) scale(1.36 -1.36)" gradientUnits="userSpaceOnUse">
      <stop offset="0" stop-color="#f3d5ab"/>
      <stop offset="1" stop-color="#dc9b3f"/>
    </radialGradient>
    <radialGradient id="radial-gradient-35" cx="-191.96" cy="-207.01" fx="-191.96" fy="-207.01" r="1.98" gradientTransform="translate(357.39 -243.64) scale(1.36 -1.36)" gradientUnits="userSpaceOnUse">
      <stop offset="0" stop-color="#f3d5ab"/>
      <stop offset="1" stop-color="#dc9b3f"/>
    </radialGradient>
    <radialGradient id="radial-gradient-36" cx="-180.19" cy="-237.55" fx="-180.19" fy="-237.55" r="1.99" gradientTransform="translate(361.53 -238.88) scale(1.37 -1.37)" gradientUnits="userSpaceOnUse">
      <stop offset="0" stop-color="#f3d5ab"/>
      <stop offset="1" stop-color="#dc9b3f"/>
    </radialGradient>
    <radialGradient id="radial-gradient-37" cx="-147.39" cy="-341.72" fx="-147.39" fy="-341.72" r="1.98" gradientTransform="translate(358.68 -242.16) scale(1.37 -1.37)" gradientUnits="userSpaceOnUse">
      <stop offset="0" stop-color="#f3d5ab"/>
      <stop offset="1" stop-color="#dc9b3f"/>
    </radialGradient>
    <radialGradient id="radial-gradient-38" cx="-191.97" cy="-213.68" fx="-191.97" fy="-213.68" r="1.99" gradientTransform="translate(360.74 -239.78) scale(1.37 -1.37)" gradientUnits="userSpaceOnUse">
      <stop offset="0" stop-color="#f3d5ab"/>
      <stop offset="1" stop-color="#dc9b3f"/>
    </radialGradient>
    <radialGradient id="radial-gradient-39" cx="-182.66" cy="-348.13" fx="-182.66" fy="-348.13" r="1.97" gradientTransform="translate(348.21 -254.21) scale(1.36 -1.36)" gradientUnits="userSpaceOnUse">
      <stop offset="0" stop-color="#f3d5ab"/>
      <stop offset="1" stop-color="#dc9b3f"/>
    </radialGradient>
    <radialGradient id="radial-gradient-40" cx="-171.73" cy="-353.59" fx="-171.73" fy="-353.59" r="1.97" gradientTransform="translate(348.21 -254.21) scale(1.36 -1.36)" gradientUnits="userSpaceOnUse">
      <stop offset="0" stop-color="#f3d5ab"/>
      <stop offset="1" stop-color="#dc9b3f"/>
    </radialGradient>
    <radialGradient id="radial-gradient-41" cx="-769.94" cy="789.8" fx="-769.94" fy="789.8" r="8.06" gradientTransform="translate(4459.38 4477.83) scale(5.55 -5.55)" gradientUnits="userSpaceOnUse">
      <stop offset="0" stop-color="#343479"/>
      <stop offset="1" stop-color="#0e0e1c"/>
    </radialGradient>
    <radialGradient id="radial-gradient-42" cx="-771.47" cy="792.29" fx="-771.47" fy="792.29" r="8.12" gradientTransform="translate(4498.74 4523.14) scale(5.59 -5.59)" gradientUnits="userSpaceOnUse">
      <stop offset="0" stop-color="#f3d5ab"/>
      <stop offset="1" stop-color="#dc9b3f"/>
    </radialGradient>
    <radialGradient id="radial-gradient-43" cx="-789.27" cy="789.81" fx="-789.27" fy="789.81" r="8.06" gradientTransform="translate(4459.47 4477.94) scale(5.55 -5.55)" gradientUnits="userSpaceOnUse">
      <stop offset="0" stop-color="#343479"/>
      <stop offset="1" stop-color="#0e0e1c"/>
    </radialGradient>
    <radialGradient id="radial-gradient-44" cx="-791" cy="792.77" fx="-791" fy="792.77" r="8.13" gradientTransform="translate(4508.04 4533.84) scale(5.6 -5.6)" gradientUnits="userSpaceOnUse">
      <stop offset="0" stop-color="#f3d5ab"/>
      <stop offset="1" stop-color="#dc9b3f"/>
    </radialGradient>
    <radialGradient id="radial-gradient-45" cx="-712.58" cy="643.05" fx="-712.58" fy="643.05" r="5.74" gradientTransform="translate(2894.55 2676.68) scale(3.95 -3.95)" gradientUnits="userSpaceOnUse">
      <stop offset="0" stop-color="#f3d5ab"/>
      <stop offset="1" stop-color="#dc9b3f"/>
    </radialGradient>
    <radialGradient id="radial-gradient-46" cx="-716.48" cy="650.24" fx="-716.48" fy="650.24" r="5.83" gradientTransform="translate(2952.52 2743.41) scale(4.01 -4.01)" gradientUnits="userSpaceOnUse">
      <stop offset="0" stop-color="#f3d5ab"/>
      <stop offset="1" stop-color="#dc9b3f"/>
    </radialGradient>
    <linearGradient id="linear-gradient" x1="-736.47" y1="688.77" x2="-736.47" y2="682.46" gradientTransform="translate(3274.71 3114.25) scale(4.34 -4.34)" gradientUnits="userSpaceOnUse">
      <stop offset="0" stop-color="#343479"/>
      <stop offset="1" stop-color="#0e0e1c"/>
    </linearGradient>
    <radialGradient id="radial-gradient-47" cx="-684.36" cy="642.36" fx="-684.36" fy="642.36" r="5.73" gradientTransform="translate(2889.07 2670.38) scale(3.95 -3.95)" gradientUnits="userSpaceOnUse">
      <stop offset="0" stop-color="#f3d5ab"/>
      <stop offset="1" stop-color="#dc9b3f"/>
    </radialGradient>
    <radialGradient id="radial-gradient-48" cx="-689.68" cy="651.16" fx="-689.68" fy="651.16" r="5.84" gradientTransform="translate(2960.49 2752.58) scale(4.02 -4.02)" gradientUnits="userSpaceOnUse">
      <stop offset="0" stop-color="#f3d5ab"/>
      <stop offset="1" stop-color="#dc9b3f"/>
    </radialGradient>
    <linearGradient id="linear-gradient-2" x1="-711.15" y1="688.77" x2="-711.15" y2="682.46" gradientTransform="translate(3274.7 3114.25) scale(4.34 -4.34)" gradientUnits="userSpaceOnUse">
      <stop offset="0" stop-color="#343479"/>
      <stop offset="1" stop-color="#0e0e1c"/>
    </linearGradient>
    <radialGradient id="radial-gradient-49" cx="-729.11" cy="679.62" fx="-729.11" fy="679.62" r="6.44" gradientTransform="translate(3364.39 3217.48) scale(4.43 -4.43)" gradientUnits="userSpaceOnUse">
      <stop offset="0" stop-color="#343479"/>
      <stop offset="1" stop-color="#0e0e1c"/>
    </radialGradient>
    <radialGradient id="radial-gradient-50" cx="-752.89" cy="722.2" fx="-752.89" fy="722.2" r="6.95" gradientTransform="translate(3711.35 3616.84) scale(4.79 -4.79)" gradientUnits="userSpaceOnUse">
      <stop offset="0" stop-color="#343479"/>
      <stop offset="1" stop-color="#0e0e1c"/>
    </radialGradient>
    <radialGradient id="radial-gradient-51" cx="-755.08" cy="726.16" fx="-755.08" fy="726.16" r="7.02" gradientTransform="translate(3757.94 3670.47) scale(4.83 -4.83)" gradientUnits="userSpaceOnUse">
      <stop offset="0" stop-color="#f3d5ab"/>
      <stop offset="1" stop-color="#dc9b3f"/>
    </radialGradient>
    <radialGradient id="radial-gradient-52" cx="-742.42" cy="722.2" fx="-742.42" fy="722.2" r="6.95" gradientTransform="translate(3711.35 3616.84) scale(4.79 -4.79)" gradientUnits="userSpaceOnUse">
      <stop offset="0" stop-color="#343479"/>
      <stop offset="1" stop-color="#0e0e1c"/>
    </radialGradient>
    <radialGradient id="radial-gradient-53" cx="-744.91" cy="726.46" fx="-744.91" fy="726.46" r="7.03" gradientTransform="translate(3760.67 3673.61) scale(4.84 -4.84)" gradientUnits="userSpaceOnUse">
      <stop offset="0" stop-color="#f3d5ab"/>
      <stop offset="1" stop-color="#dc9b3f"/>
    </radialGradient>
    <radialGradient id="radial-gradient-54" cx="-816.34" cy="842.35" fx="-816.34" fy="842.35" r="9.87" gradientTransform="translate(5680.08 5882.88) scale(6.8 -6.8)" gradientUnits="userSpaceOnUse">
      <stop offset="0" stop-color="#f3d5ab"/>
      <stop offset="1" stop-color="#dc9b3f"/>
    </radialGradient>
    <radialGradient id="radial-gradient-55" cx="-817.19" cy="843.81" fx="-817.19" fy="843.81" r="9.92" gradientTransform="translate(5714.64 5922.67) scale(6.83 -6.83)" gradientUnits="userSpaceOnUse">
      <stop offset="0" stop-color="#f3d5ab"/>
      <stop offset="1" stop-color="#dc9b3f"/>
    </radialGradient>
    <radialGradient id="radial-gradient-56" cx="-491.02" cy="255.03" fx="-491.02" fy="255.03" r="3.23" gradientTransform="translate(1198.99 725.06) scale(2.22 -2.22)" gradientUnits="userSpaceOnUse">
      <stop offset="0" stop-color="#f3d5ab"/>
      <stop offset="1" stop-color="#dc9b3f"/>
    </radialGradient>
    <radialGradient id="radial-gradient-57" cx="-468.69" cy="255.36" fx="-468.69" fy="255.36" r="3.23" gradientTransform="translate(1199.82 726.02) scale(2.22 -2.22)" gradientUnits="userSpaceOnUse">
      <stop offset="0" stop-color="#f3d5ab"/>
      <stop offset="1" stop-color="#dc9b3f"/>
    </radialGradient>
    <radialGradient id="radial-gradient-58" cx="-732.54" cy="685.78" fx="-732.54" fy="685.78" r="6.53" gradientTransform="translate(3425.31 3287.61) scale(4.5 -4.5)" gradientUnits="userSpaceOnUse">
      <stop offset="0" stop-color="#f3d5ab"/>
      <stop offset="1" stop-color="#dc9b3f"/>
    </radialGradient>
    <linearGradient id="linear-gradient-3" x1="-554.9" y1="360.52" x2="-554.9" y2="356.78" gradientTransform="translate(1542.3 1120.22) scale(2.57 -2.57)" gradientUnits="userSpaceOnUse">
      <stop offset="0" stop-color="#343479"/>
      <stop offset="1" stop-color="#0e0e1c"/>
    </linearGradient>
    <linearGradient id="linear-gradient-4" x1="-540.79" y1="360.52" x2="-540.79" y2="356.78" gradientTransform="translate(1542.3 1120.22) scale(2.57 -2.57)" gradientUnits="userSpaceOnUse">
      <stop offset="0" stop-color="#343479"/>
      <stop offset="1" stop-color="#0e0e1c"/>
    </linearGradient>
    <radialGradient id="radial-gradient-59" cx="-1442.23" cy="1873.76" fx="-1442.23" fy="1873.76" r="3.58" gradientTransform="translate(-3408.87 -4545.65) rotate(179.66) scale(2.46 -2.46)" gradientUnits="userSpaceOnUse">
      <stop offset="0" stop-color="#f3d5ab"/>
      <stop offset="1" stop-color="#dc9b3f"/>
    </radialGradient>
    <radialGradient id="radial-gradient-60" cx="-1573.83" cy="2090.94" fx="-1573.83" fy="2090.94" r="2.81" gradientTransform="translate(-2887.75 -3952.55) rotate(179.66) scale(1.93 -1.93)" gradientUnits="userSpaceOnUse">
      <stop offset="0" stop-color="#f3d5ab"/>
      <stop offset="1" stop-color="#dc9b3f"/>
    </radialGradient>
    <radialGradient id="radial-gradient-61" cx="-1560.44" cy="2084.5" fx="-1560.44" fy="2084.5" r="2.81" gradientTransform="translate(-2887.75 -3952.55) rotate(179.66) scale(1.93 -1.93)" gradientUnits="userSpaceOnUse">
      <stop offset="0" stop-color="#f3d5ab"/>
      <stop offset="1" stop-color="#dc9b3f"/>
    </radialGradient>
    <radialGradient id="radial-gradient-62" cx="-1552.56" cy="2103.06" fx="-1552.56" fy="2103.06" r="2.81" gradientTransform="translate(-2887.75 -3952.55) rotate(179.66) scale(1.93 -1.93)" gradientUnits="userSpaceOnUse">
      <stop offset="0" stop-color="#f3d5ab"/>
      <stop offset="1" stop-color="#dc9b3f"/>
    </radialGradient>
    <radialGradient id="radial-gradient-63" cx="-1415.71" cy="1884.33" fx="-1415.71" fy="1884.33" r="3.58" gradientTransform="translate(-3408.87 -4545.65) rotate(179.66) scale(2.46 -2.46)" gradientUnits="userSpaceOnUse">
      <stop offset="0" stop-color="#f3d5ab"/>
      <stop offset="1" stop-color="#dc9b3f"/>
    </radialGradient>
    <radialGradient id="radial-gradient-64" cx="-1522.72" cy="2088.75" fx="-1522.72" fy="2088.75" r="2.81" gradientTransform="translate(-2887.75 -3952.55) rotate(179.66) scale(1.93 -1.93)" gradientUnits="userSpaceOnUse">
      <stop offset="0" stop-color="#f3d5ab"/>
      <stop offset="1" stop-color="#dc9b3f"/>
    </radialGradient>
    <radialGradient id="radial-gradient-65" cx="-1503.54" cy="2105.36" fx="-1503.54" fy="2105.36" r="2.81" gradientTransform="translate(-2887.75 -3952.55) rotate(179.66) scale(1.93 -1.93)" gradientUnits="userSpaceOnUse">
      <stop offset="0" stop-color="#f3d5ab"/>
      <stop offset="1" stop-color="#dc9b3f"/>
    </radialGradient>
    <radialGradient id="radial-gradient-66" cx="-1503.9" cy="2123.27" fx="-1503.9" fy="2123.27" r="2.81" gradientTransform="translate(-2887.75 -3952.55) rotate(179.66) scale(1.93 -1.93)" gradientUnits="userSpaceOnUse">
      <stop offset="0" stop-color="#f3d5ab"/>
      <stop offset="1" stop-color="#dc9b3f"/>
    </radialGradient>
    <radialGradient id="radial-gradient-67" cx="-1516.16" cy="2150.65" fx="-1516.16" fy="2150.65" r="2.81" gradientTransform="translate(-2887.75 -3952.55) rotate(179.66) scale(1.93 -1.93)" gradientUnits="userSpaceOnUse">
      <stop offset="0" stop-color="#f3d5ab"/>
      <stop offset="1" stop-color="#dc9b3f"/>
    </radialGradient>
    <radialGradient id="radial-gradient-68" cx="-1400.52" cy="1919.2" fx="-1400.52" fy="1919.2" r="3.58" gradientTransform="translate(-3408.87 -4545.65) rotate(179.66) scale(2.46 -2.46)" gradientUnits="userSpaceOnUse">
      <stop offset="0" stop-color="#f3d5ab"/>
      <stop offset="1" stop-color="#dc9b3f"/>
    </radialGradient>
    <radialGradient id="radial-gradient-69" cx="-1447.24" cy="1935.02" fx="-1447.24" fy="1935.02" r="3.58" gradientTransform="translate(-3408.87 -4545.65) rotate(179.66) scale(2.46 -2.46)" gradientUnits="userSpaceOnUse">
      <stop offset="0" stop-color="#f3d5ab"/>
      <stop offset="1" stop-color="#dc9b3f"/>
    </radialGradient>
    <radialGradient id="radial-gradient-70" cx="-1587.91" cy="2139.79" fx="-1587.91" fy="2139.79" r="2.81" gradientTransform="translate(-2887.75 -3952.55) rotate(179.66) scale(1.93 -1.93)" gradientUnits="userSpaceOnUse">
      <stop offset="0" stop-color="#f3d5ab"/>
      <stop offset="1" stop-color="#dc9b3f"/>
    </radialGradient>
    <radialGradient id="radial-gradient-71" cx="-1464.83" cy="1900.9" fx="-1464.83" fy="1900.9" r="3.58" gradientTransform="translate(-3408.87 -4545.65) rotate(179.66) scale(2.46 -2.46)" gradientUnits="userSpaceOnUse">
      <stop offset="0" stop-color="#f3d5ab"/>
      <stop offset="1" stop-color="#dc9b3f"/>
    </radialGradient>
  </defs>
  <path class="cls-4" d="M132.34,22.44c-58.57,0-105.94,47.38-105.94,105.8s47.38,105.94,105.94,105.94,105.8-47.38,105.8-105.94S190.76,22.44,132.34,22.44Z"/>
  <path class="cls-77" d="M132.34,22.44c-58.57,0-105.94,47.38-105.94,105.8s47.38,105.94,105.94,105.94,105.8-47.38,105.8-105.94S190.76,22.44,132.34,22.44Z"/>
  <path class="cls-75" d="M132.77,12.56c7.61,0,15.24.76,22.72,2.34,11.58,2.42,22.88,6.58,33.12,12.52,10.1,5.65,19.38,12.79,27.33,21.12,8.07,8.48,14.81,18.04,19.78,28.4,5.25,10.63,8.89,22.07,10.63,33.93.81,5.52,1.35,11.44,1.35,17.5,0,12.12-1.88,24.23-5.51,35.67-3.5,11.04-8.89,21.68-15.62,31.24-6.73,9.41-14.67,17.9-23.96,24.91-9.29,7.26-19.53,12.91-30.43,16.96-11.31,4.3-23.42,6.58-35.4,7.12-1.57.08-3.13.11-4.68.11-10.65,0-21.2-1.58-31.54-4.27-11.17-3.23-21.93-8.35-31.76-14.68-9.7-6.46-18.31-14.26-25.71-23.28-7.41-8.89-13.32-18.99-17.64-29.75-4.57-11.04-7.26-22.88-8.34-34.87-.95-12.1,0-24.35,2.96-36.35,2.69-11.44,7.14-22.34,13.2-32.44,5.92-9.95,13.47-18.85,22.07-26.52,8.61-7.8,18.31-14.13,28.94-19.11,10.9-4.97,22.61-8.2,34.47-9.68,4.64-.57,9.32-.85,14.02-.85ZM131.56,11.96c-10.51,0-20.98,1.39-31.27,4.29-11.44,3.23-22.34,8.07-32.3,14.53-9.7,6.33-18.72,14.27-26.25,23.17-7.55,9.15-13.59,19.24-18.18,30.02-4.7,11.17-7.53,23.15-8.34,35.25-1.08,12.26,0,24.78,2.83,36.76,2.82,11.57,7.39,22.61,13.59,32.98,6.06,10.1,13.72,19.11,22.61,26.92,8.61,7.67,18.7,14.15,29.34,18.99,11.05,4.84,22.63,8.07,34.47,9.41,4.64.51,9.26.78,13.88.78,7.72,0,15.38-.73,22.88-2.25,11.71-2.42,23.01-6.46,33.52-12.12,10.22-5.79,19.65-13.05,27.87-21.39,8.21-8.48,14.94-18.18,20.46-28.81,5.38-10.76,9.02-22.22,10.9-33.93.93-5.82,1.33-11.79,1.35-17.75h0c.16-.05.27-.13.27-.28,0-12.25-1.76-24.35-5.65-36.06-3.77-11.19-9.16-21.95-16.03-31.65-6.85-9.56-15.06-17.9-24.35-25.03-9.43-6.99-19.65-12.79-30.83-16.82-11.46-4.18-23.44-6.33-35.54-6.87-1.74-.08-3.48-.11-5.22-.11Z"/>
  <path class="cls-76" d="M132.77,12.56c7.61,0,15.24.76,22.72,2.34,11.58,2.42,22.88,6.58,33.12,12.52,10.1,5.65,19.38,12.79,27.33,21.12,8.07,8.48,14.81,18.04,19.78,28.4,5.25,10.63,8.89,22.07,10.63,33.93.81,5.52,1.35,11.44,1.35,17.5,0,12.12-1.88,24.23-5.51,35.67-3.5,11.04-8.89,21.68-15.62,31.24-6.73,9.41-14.67,17.9-23.96,24.91-9.29,7.26-19.53,12.91-30.43,16.96-11.31,4.3-23.42,6.58-35.4,7.12-1.57.08-3.13.11-4.68.11-10.65,0-21.2-1.58-31.54-4.27-11.17-3.23-21.93-8.35-31.76-14.68-9.7-6.46-18.31-14.26-25.71-23.28-7.41-8.89-13.32-18.99-17.64-29.75-4.57-11.04-7.26-22.88-8.34-34.87-.95-12.1,0-24.35,2.96-36.35,2.69-11.44,7.14-22.34,13.2-32.44,5.92-9.95,13.47-18.85,22.07-26.52,8.61-7.8,18.31-14.13,28.94-19.11,10.9-4.97,22.61-8.2,34.47-9.68,4.64-.57,9.32-.85,14.02-.85ZM131.56,11.96c-10.51,0-20.98,1.39-31.27,4.29-11.44,3.23-22.34,8.07-32.3,14.53-9.7,6.33-18.72,14.27-26.25,23.17-7.55,9.15-13.59,19.24-18.18,30.02-4.7,11.17-7.53,23.15-8.34,35.25-1.08,12.26,0,24.78,2.83,36.76,2.82,11.57,7.39,22.61,13.59,32.98,6.06,10.1,13.72,19.11,22.61,26.92,8.61,7.67,18.7,14.15,29.34,18.99,11.05,4.84,22.63,8.07,34.47,9.41,4.64.51,9.26.78,13.88.78,7.72,0,15.38-.73,22.88-2.25,11.71-2.42,23.01-6.46,33.52-12.12,10.22-5.79,19.65-13.05,27.87-21.39,8.21-8.48,14.94-18.18,20.46-28.81,5.38-10.76,9.02-22.22,10.9-33.93.93-5.82,1.33-11.79,1.35-17.75h0c.16-.05.27-.13.27-.28,0-12.25-1.76-24.35-5.65-36.06-3.77-11.19-9.16-21.95-16.03-31.65-6.85-9.56-15.06-17.9-24.35-25.03-9.43-6.99-19.65-12.79-30.83-16.82-11.46-4.18-23.44-6.33-35.54-6.87-1.74-.08-3.48-.11-5.22-.11Z"/>
  <path class="cls-74" d="M115.69,34.79c-3.16,0-6.23,1.57-6.92,5-.17.46,1.17.92,2.1.92.46,0,.82-.11.85-.38.41-1.88,2.03-3.89,4.05-4.16.27-.06.52-.09.76-.09,1.47,0,2.48.98,3.4,2.25,2.42,2.82,3.78,6.33,6.2,9.29,1.2,1.2,2.82,2.28,4.43,2.82,1,.28,2.04.49,3.1.49.97,0,1.93-.17,2.83-.62,1.88-1.08,3.09-3.1,4.3-4.72,1.2-1.88,1.88-4.03,3.23-5.92,1.08-1.49,2.69-2.83,4.57-3.23.13-.02.24-.03.35-.03,1.72,0,3.07,1.85,3.83,3.12.27.41,1.22.81,1.88.81.14,0,1.49,0,1.22-.54-1.77-2.8-4.75-4.89-7.93-4.89-.93,0-1.9.19-2.85.59-4.57,1.76-5.38,6.72-7.94,10.24-1.12,1.36-2.6,3.67-4.64,3.67-.16,0-.32-.02-.47-.05-1.61-.13-2.96-1.61-3.77-2.96-2.56-3.23-3.91-7.41-7.28-9.95-1.47-1.08-3.42-1.65-5.33-1.65Z"/>
  <path class="cls-71" d="M132.64,50.63c.25,0,.51.02.78.06,1.49.41,3.1,1.08,4.04,2.44,1.49,2.28,1.88,5.24,1.35,7.93-.54,2.29-2.28,4.86-4.84,5.13-.32.05-.62.06-.93.06-3.26,0-6.17-2.52-7.28-5.59-.02-.09-.06-.17-.16-.25h0c-.68-3.4,1.14-6.74,3.8-8.64,1-.66,2.09-1.14,3.26-1.14ZM132.43,49.32c-1.03,0-2.1.14-3.2.44-4.57,1.34-8.07,6.19-6.73,10.9.02.17.11.32.24.44h0c1.46,4.22,5.79,6.28,10,6.42.3.02.6.03.92.03,3.4,0,6.47-1.41,7.82-4.75,1.36-2.96,1.22-6.72-.66-9.56-.95-1.88-2.69-2.69-4.72-3.37-1.19-.36-2.41-.57-3.67-.57Z"/>
  <path class="cls-69" d="M81.43,81.65c-.36,0-.68.08-.92.14-1.61.95-1.61,3.1.27,3.64.19.06.36.09.54.09,1.69,0,2.64-2.75.93-3.73-.28-.11-.57-.14-.82-.14Z"/>
  <path class="cls-70" d="M136.5,79.72c-.16,0-.35.02-.52.06-2.15.54-1.61,3.91.54,3.91.66,0,1.35-.41,1.47-.95.73-1.46.03-3.02-1.49-3.02Z"/>
  <path class="cls-68" d="M156.83,83.99c-1.69,0-2.64,2.74-.93,3.59.3.25.62.36.9.36.33,0,.63-.14.84-.36,1.61-.81,1.61-2.96-.27-3.5-.19-.06-.36-.09-.54-.09Z"/>
  <path class="cls-72" d="M191.71,165.12c-.68.27-1.22.54-1.49,1.08-.82,1.31-.09,2.93,1.38,2.93.21,0,.41-.03.65-.09,2.15-.54,1.61-3.91-.54-3.91Z"/>
  <path class="cls-73" d="M182.94,55.73c-1.69,0-2.66,2.74-1.06,3.59.21.16.44.21.68.21.38,0,.79-.13,1.2-.21,1.47-.81,1.47-2.96-.27-3.5-.19-.06-.38-.09-.55-.09Z"/>
  <path class="cls-58" d="M49.96,114.37c-.68,0-1.08.54-1.49.95-.73,1.46-.03,3.02,1.49,3.02.17,0,.35-.03.54-.06,2.15-.54,1.74-3.91-.54-3.91Z"/>
  <path class="cls-55" d="M42.16,149.49c-.35,0-.7.08-1.09.16-1.47.95-1.47,3.1.41,3.64.17.06.35.08.51.08,1.61,0,2.67-2.74.97-3.72-.28-.11-.54-.16-.79-.16Z"/>
  <path class="cls-61" d="M38.61,116.61c-.16,0-.33.02-.51.06-2.29.54-1.76,3.89.41,3.89.66-.13,1.2-.54,1.61-.93.73-1.46-.08-3.02-1.52-3.02Z"/>
  <path class="cls-63" d="M216.27,127.29c-.35,0-.7.06-1.01.14-1.47.95-1.47,3.1.27,3.64.19.06.38.09.55.09,1.69,0,2.64-2.75.93-3.73-.22-.11-.47-.14-.74-.14Z"/>
  <path class="cls-64" d="M91.4,86.46c-.16,0-.33.02-.52.05-2.15.54-1.61,3.91.54,3.91.66-.14,1.2-.41,1.47-.95.73-1.46.05-3.01-1.49-3.01Z"/>
  <path class="cls-60" d="M163.01,68.37c-1.69,0-2.63,2.63-.92,3.59.33.14.68.21,1,.21s.62-.06.89-.21c1.49-.81,1.49-3.09-.4-3.5-.21-.06-.4-.09-.57-.09Z"/>
  <path class="cls-62" d="M59.1,178.46c-.66.13-1.2.54-1.47,1.08-.84,1.3-.09,2.91,1.38,2.91.19,0,.41-.03.63-.09,2.15-.54,1.61-3.89-.54-3.89Z"/>
  <path class="cls-56" d="M215.14,81.59c-.38,0-.73.11-.95.25-1.47.95-1.47,3.1.27,3.64.19.06.36.09.54.09,1.71,0,2.66-2.75,1.08-3.73-.3-.17-.63-.25-.93-.25Z"/>
  <path class="cls-59" d="M53.04,78.71c-.66.13-1.2.54-1.47.93-.85,1.46-.06,3.02,1.38,3.02.16,0,.33-.02.51-.05,2.29-.54,1.74-3.91-.41-3.91Z"/>
  <path class="cls-57" d="M51.43,172.16c-1.69,0-2.64,2.74-.93,3.59.32.25.62.36.92.36.35,0,.68-.14.97-.36,1.47-.81,1.47-2.96-.41-3.5-.19-.06-.36-.09-.54-.09Z"/>
  <path class="cls-16" d="M106.77,48.55c-.68,0-1.22.41-1.61,1.08-.71,1.31.03,2.93,1.42,2.93.17,0,.38-.03.59-.09,2.29-.54,1.76-3.91-.4-3.91Z"/>
  <path class="cls-18" d="M82.79,47.93c-.28,0-.57.14-.93.35-1.61.81-1.61,2.96.27,3.5.19.06.36.09.54.09,1.71,0,2.64-2.74.93-3.59-.3-.25-.55-.35-.81-.35Z"/>
  <path class="cls-30" d="M204.5,185.99c-.68,0-1.22.54-1.49,1.08-.82,1.3-.09,2.93,1.3,2.93.17,0,.38-.03.59-.09,2.29-.54,1.76-3.91-.4-3.91Z"/>
  <path class="cls-28" d="M148.75,95.43c-1.69,0-2.64,2.74-.93,3.59.32.25.63.36.92.36.33,0,.62-.14.84-.36,1.47-.81,1.47-2.96-.27-3.5-.19-.06-.38-.09-.55-.09Z"/>
  <path class="cls-17" d="M107.97,92.3c-.66,0-1.08.54-1.47,1.08-.71,1.3.03,2.93,1.42,2.93.17,0,.38-.03.59-.09,2.15-.54,1.76-3.91-.54-3.91Z"/>
  <path class="cls-39" d="M221.97,145.94c-.32,0-.59.06-.78.21-1.61.81-1.61,3.09.27,3.5.19.06.38.09.55.09,1.69,0,2.63-2.63.92-3.59-.33-.14-.66-.21-.97-.21Z"/>
  <path class="cls-15" d="M193.04,157.23c-.21,0-.43.03-.66.09-2.15.4-1.74,3.77.54,3.77.68,0,1.08-.27,1.49-.93.7-1.42.06-2.93-1.36-2.93Z"/>
  <path class="cls-13" d="M169.22,212.01c-1.71,0-2.66,2.74-.95,3.59.35.21.68.32,1,.32s.62-.11.89-.32c1.49-.81,1.49-2.96-.4-3.5-.19-.06-.36-.09-.54-.09Z"/>
  <path class="cls-29" d="M80.44,197.75c-.19,0-.4.02-.6.09-2.28.54-1.74,3.89.41,3.89.66,0,1.2-.54,1.61-1.08.71-1.3-.05-2.91-1.42-2.91Z"/>
  <path class="cls-14" d="M86.16,206.85c-.66.27-1.2.55-1.47,1.09-.71,1.3-.08,2.91,1.38,2.91.21,0,.41-.03.63-.09,2.15-.54,1.61-3.91-.54-3.91Z"/>
  <path class="cls-5" d="M87.75,196.71c-.16,0-.33.02-.51.05-2.28.54-1.74,3.91.41,3.91.66-.13,1.2-.54,1.61-.93.73-1.46-.08-3.02-1.52-3.02Z"/>
  <path class="cls-6" d="M176.68,215.38c-.17,0-.38.03-.59.09-2.29.54-1.76,3.91.4,3.91.68,0,1.35-.54,1.49-1.08.82-1.31.09-2.93-1.3-2.93Z"/>
  <path class="cls-7" d="M178.24,170.42c-1.71,0-2.67,2.75-1.08,3.72.28.11.57.16.84.16.38,0,.73-.08,1.04-.16,1.47-.93,1.47-3.09-.27-3.62-.19-.06-.36-.09-.54-.09Z"/>
  <path class="cls-8" d="M85.15,160.19c-.19,0-.4.03-.6.09-2.29.54-1.76,3.91.41,3.91.66,0,1.2-.54,1.61-1.08.71-1.31-.05-2.93-1.42-2.93Z"/>
  <path class="cls-27" d="M174.43,89.32c-1.14,0-2.12.89-1.71,2.29.19.97.95,1.42,1.76,1.42.98,0,2.01-.7,2.01-1.96,0-.66-.4-1.08-.93-1.47-.36-.21-.76-.28-1.12-.28Z"/>
  <path class="cls-26" d="M95.31,36.99c-.71,0-1.39.43-1.74,1.33-.46,1.36.87,2.42,2.07,2.42.57,0,1.12-.24,1.42-.81.41-.68.41-1.34,0-1.76-.4-.79-1.08-1.19-1.76-1.19Z"/>
  <path class="cls-11" d="M114.66,84.47c-1.14,0-2.12.89-1.71,2.31.24.95,1.01,1.38,1.82,1.38,1.03,0,2.09-.7,2.09-1.91,0-.66-.54-1.2-1.08-1.47-.36-.21-.76-.3-1.12-.3Z"/>
  <path class="cls-12" d="M157.23,222.75c-.7,0-1.39.44-1.74,1.33-.46,1.38.89,2.44,2.07,2.44.59,0,1.12-.25,1.42-.82.41-.66.41-1.34,0-1.74-.4-.79-1.08-1.2-1.76-1.2Z"/>
  <path class="cls-9" d="M98.22,50.68c-1.03,0-2.09.7-2.09,1.9,0,.68.54,1.22.93,1.49.41.24.82.35,1.22.35,1.14,0,2.04-.97,1.74-2.37-.24-.93-1.01-1.36-1.8-1.36Z"/>
  <path class="cls-10" d="M100.44,215.74c-.57,0-1.14.24-1.49.81-.27.68-.27,1.35,0,1.76.4.79,1.09,1.19,1.76,1.19.71,0,1.41-.44,1.74-1.33.46-1.36-.81-2.42-2.01-2.42Z"/>
  <path class="cls-31" d="M115.25,223.15c-.59,0-1.14.24-1.49.81-.27.66-.27,1.34,0,1.74.4.79,1.08,1.2,1.76,1.2s1.41-.44,1.74-1.33c.46-1.36-.81-2.42-2.01-2.42Z"/>
  <path class="cls-32" d="M199.78,57.44c-1.35,0-3.23,1.2-3.5,3.62-.41,14.81-1.49,31.92-1.76,32.58-.27.68-1.88,2.03-3.09,2.56-2.56,1.34-29.89,10.22-30.57,11.57-1.47,2.83.27,8.89.54,11.98.14,2.83.68,8.35.95,11.04,5.25-2.29,48.06-19.65,49.13-26.25.68-2.96-8.21-42.8-8.88-44.15-.68-1.34-1.49-2.56-2.83-2.96Z"/>
  <path class="cls-34" d="M199.16,57.68c.06.06.13.13.21.16,2.56.81,2.97,4.18,3.64,6.33.81,3.64,1.61,7.14,2.29,10.63,1.88,8.09,3.5,16.16,4.84,24.37.27,1.2.41,2.56.54,3.77,0,.68.14,1.34,0,1.76-.27.93-.93,1.61-1.61,2.28-1.08.95-2.42,1.76-3.64,2.69-7.26,4.72-15.35,8.35-23.15,11.85-6.49,3.05-12.71,5.7-19.19,8.48h0c-.36-3.75-.62-7.41-1-11.17-.27-2.03-.68-3.77-.95-5.79-.13-1.08-.13-2.01,0-3.1,0-.66.27-1.47.55-2.01.13-.27.81-.54,1.35-.68.81-.27,1.88-.81,2.69-1.2l8.07-2.96c5.38-2.03,10.78-3.78,16.16-5.79,1.88-.68,4.45-1.49,5.38-3.37.41-.4.41-1.08.41-1.74.13-1.36.13-2.71.27-4.05.4-5.11.66-10.1.81-15.06.27-2.83.27-5.79.4-8.89,0-1.84-.33-5.79,1.95-6.49ZM199.1,56.84c-.13,0-.27.02-.4.06.02.03.03.06.05.09h0c-1.34.3-2.44,1.27-2.88,2.6-.27,1.2-.13,2.55-.13,3.77,0,1.49-.27,2.96-.27,4.3-.14,5.13-.41,10.1-.68,15.22-.13,3.23-.27,6.31-.54,9.41-.27.95-.4,1.49-1.2,2.15-.81.68-1.88,1.22-2.83,1.76-5.25,2.01-10.51,3.62-15.75,5.52-2.83.93-5.67,2.01-8.48,3.23-1.76.66-3.64,1.08-5.25,2.15-1.08.54-1.08,1.61-1.22,2.69-.13,2.29.27,4.84.68,7.26.27,2.15.27,4.32.54,6.33.13,2.42.4,4.72.66,7.14,0,.24.4.28.79.28.27,0,.54-.02.7-.02.03-.02.06-.03.11-.05h0s.11.03.16.05c0-.03,0-.08-.02-.11h0c5.84-2.64,11.8-4.91,17.52-7.56,8.34-3.77,16.69-7.67,24.23-12.39,2.29-1.34,5.13-2.96,6.6-5.11,1.08-1.61.54-3.23.14-4.98-1.08-8.07-2.97-16.14-4.72-23.96-.81-3.89-1.61-7.67-2.42-11.44-.41-1.88-.68-3.91-1.61-5.65-.68-1.08-1.49-2.15-2.97-2.69-.27,0-.54-.06-.81-.06Z"/>
  <path class="cls-37" d="M64.75,57.44c-1.35.4-2.15,1.61-2.82,2.96-.68,1.34-9.56,41.19-8.89,44.15,1.22,6.6,43.9,23.96,49.13,26.25.27-2.69.81-8.21.95-11.04.27-3.09,2.03-9.15.54-11.98-.68-1.34-27.87-10.22-30.56-11.57-1.22-.54-2.69-1.88-3.1-2.56-.27-.66-1.35-17.77-1.61-32.58-.4-2.42-2.28-3.62-3.64-3.62Z"/>
  <path class="cls-36" d="M64.75,57.17h.02c.08,0,.09,0-.02,0ZM64.2,57.93c.13.03.25.05.43.05,2.69,0,2.56,3.89,2.56,5.79,0,2.69.13,5.11.27,7.8.13,4.72.54,9.41.66,14.4.14,2.42.14,5.11.54,7.55.14,1.2,1.49,2.01,2.42,2.55.68.41,1.35.68,2.15.95,4.98,1.88,10.1,3.5,14.95,5.38,2.82,1.08,5.78,2.03,8.61,3.23,1.61.68,3.5,1.34,5.25,2.15.81.54.93,1.88.93,3.1,0,2.29-.54,4.72-.81,6.87-.4,2.01-.4,4.03-.54,6.19-.11,2.15-.44,4.19-.62,6.33h0c-5.35-2.26-10.73-4.64-16.2-6.99-8.21-3.64-16.28-7.41-24.1-12.12-2.28-1.34-4.97-2.96-6.73-5.25-.95-1.34-.54-2.96-.27-4.72,1.08-7.8,2.83-15.6,4.45-23.28l2.55-11.71c.54-1.76.81-4.05,1.35-5.66.46-1.03,1.12-2.06,2.14-2.6ZM64.77,57.17c-.13.02-.43.05-.68.13-2.83.81-3.37,3.91-3.91,6.2-.81,3.35-1.61,6.99-2.28,10.49-1.88,8.21-3.64,16.69-5.13,25.03-.13,1.34-.4,2.71-.66,3.91,0,.68-.14,1.34,0,2.03.27.81,1.08,1.47,1.61,2.15.93,1.08,2.15,1.88,3.37,2.69,7.26,4.84,15.21,8.61,23.15,12.25,6.6,3.1,13.32,5.92,20.05,8.75l1.08.54c.11.06.35.09.57.09.33,0,.65-.06.65-.22.54-4.05.66-8.09,1.22-12.26.13-2.01.66-4.3.81-6.31.27-1.34.4-3.51-.68-4.72-.27-.27-.81-.68-1.35-.81-.81-.27-1.61-.81-2.42-1.22-2.69-.93-5.38-2.01-8.36-2.96-5.51-2.03-11.03-3.91-16.41-5.92-.68-.14-1.36-.54-2.03-.81-1.08-.54-2.83-1.49-3.1-2.69-.13-.81-.13-1.76-.13-2.56-.14-1.61-.14-3.37-.27-4.84-.41-5.52-.68-11.17-.95-16.57,0-1.47-.13-2.96-.13-4.3,0-1.47,0-3.23-.14-4.72-.25-1.91-1.85-3.1-3.75-3.21h0s-.09-.09-.14-.14Z"/>
  <path class="cls-38" d="M97.75,124.47c-1.76.81-3.64,2.29-5.67,3.23-3.89,1.61-8.34,2.83-12.52,2.97h-.32c-2.41,0-7.55-.66-12.33-.66s-8.94.62-10.1,3.09c1.74,0,3.23.81,5.24,2.42,3.37,2.55,7.14,5.65,11.31,7.26,2.33.87,4.3,1.36,6.09,1.36,3.18,0,5.68-1.55,8.18-5.27,2.55-3.77,5.11-8.07,7.94-11.71.66-.81,1.47-1.88,2.15-2.69Z"/>
  <path class="cls-33" d="M94.85,126.5c-1.38,1.82-2.67,3.67-3.97,5.52-1.61,2.69-3.37,5.51-5.38,8.07-1.36,1.76-2.97,3.23-4.98,3.5-.55.13-1.11.17-1.65.17-1.63,0-3.2-.47-4.78-.93h0c.05-.09-.03-.19-.32-.32-3.62-1.34-6.58-3.64-9.42-5.92-2.15-1.68-4.08-3.45-6.74-3.92h0c1.04-1.42,2.99-1.88,4.72-2.14,1.35-.22,2.75-.32,4.21-.32,1.19,0,2.39.06,3.61.19l7.14.4c.62.06,1.23.08,1.84.08,2.17,0,4.27-.33,6.38-.76,2.15-.4,4.57-1.08,6.58-2.15.98-.43,1.88-.93,2.77-1.47ZM97.07,123.93c-1.74.81-3.5,2.15-5.38,3.1-2.03.93-4.18,1.61-6.19,2.15-2.36.55-4.72.84-7.23.84-.51,0-1.01-.02-1.52-.03-3.24-.17-6.58-.52-9.86-.52-1.77,0-3.53.11-5.22.38-1.88.27-4.45.82-5.25,2.71-.13.27.68.54.81.54,1.76.13,3.1,1.08,4.18,2.15,1.2.93,2.42,2.01,3.62,2.82,2.29,2.03,4.98,3.78,7.82,4.86h0s.08.03.13.05h0c2.09.81,4.3,1.38,6.46,1.38,2.36,0,4.65-.7,6.61-2.5,2.28-2.44,4.04-5.4,5.65-8.09,2.01-3.23,4.3-6.46,6.73-9.29.41-.4-1.08-.54-1.35-.54Z"/>
  <path class="cls-67" d="M98.14,123.93c-.13,0-.4.14-.54.14-.66,1.08-1.47,2.01-2.15,2.96-2.83,3.77-5.25,7.8-7.94,11.71-2.47,3.75-4.89,5.24-8.01,5.24-1.8,0-3.85-.49-6.27-1.33-4.16-1.49-7.93-4.59-11.3-7.41-2.03-1.76-3.5-2.42-5.25-2.56-.13.14-.13.54-.13.81-1.22,7.28,11.98,15.21,18.58,17.23,1.23.4,2.6.59,3.99.59,4.32,0,8.97-1.87,11.61-5.43,5.25-7.01,4.32-12.12,7.41-21.95Z"/>
  <path class="cls-66" d="M166.8,124.47h0c.66.81,1.47,1.88,2.15,2.69,2.83,3.64,5.38,7.94,7.94,11.71,2.5,3.72,5,5.27,8.18,5.27,1.77,0,3.77-.49,6.09-1.36,4.43-1.61,7.93-4.72,11.3-7.26,2.03-1.61,3.5-2.42,5.11-2.42-1.09-2.47-5.36-3.09-9.99-3.09s-9.89.66-12.3.66h-.33c-4.3-.14-8.61-1.36-12.52-2.97-2.03-.93-3.77-2.42-5.65-3.23Z"/>
  <path class="cls-65" d="M169.21,126.27c.79.49,1.58,1.01,2.44,1.42,1.61.81,3.5,1.49,5.52,2.03,3.09.81,6.19,1.34,9.42,1.34,3.69-.21,7.44-.71,11.16-.71,1.19,0,2.36.05,3.53.17,1.9.13,4.41.49,5.48,2.25h0c-2.53.43-4.51,2.25-6.69,3.94-2.91,2.12-5.71,4.38-9.27,5.73h0s-.11.03-.14.06h0s-.06.02-.08.03h0c-1.69.63-3.47,1.17-5.25,1.17-.46,0-.93-.05-1.41-.13-2.15-.27-4.04-2.01-5.38-3.62-1.88-2.56-3.5-5.4-5.25-7.94-1.28-1.98-2.63-3.94-4.05-5.74ZM166.93,124.17c-.44,0-.9.13-.66.44,2.55,2.82,4.7,6.19,6.87,9.41,1.74,2.69,3.35,5.79,5.51,7.94,1.99,1.85,4.32,2.53,6.71,2.53,2.17,0,4.38-.55,6.49-1.31.21-.13.21-.25.11-.38h0c2.86-1.2,5.48-2.78,7.96-4.75,1.36-.93,2.56-2.01,3.91-3.09,1.08-.81,2.56-1.76,4.04-1.76.14,0,.68,0,.68-.4-.95-1.61-2.69-2.29-4.45-2.71-1.84-.28-3.61-.51-5.41-.51-.71,0-1.41.03-2.12.11-3.54.09-6.98.49-10.44.49-1.66,0-3.34-.09-5.03-.36-2.56-.54-4.86-1.2-7.28-2.15-2.15-1.08-4.04-2.42-6.19-3.35h0c-.06-.11-.36-.17-.68-.17Z"/>
  <path class="cls-1" d="M166.39,123.93c3.1,9.83,2.29,14.94,7.41,21.95,2.75,3.56,7.34,5.43,11.69,5.43,1.41,0,2.79-.19,4.05-.59,6.47-2.03,19.65-9.95,18.45-17.23,0-.27,0-.66-.14-.81-1.74.14-3.23.81-5.24,2.56-3.37,2.82-7.01,5.92-11.31,7.41-2.36.84-4.38,1.33-6.19,1.33-3.13,0-5.6-1.49-8.09-5.24-2.69-3.91-4.97-7.94-7.94-11.71-.66-.95-1.47-1.88-2.15-2.96-.13,0-.27-.14-.54-.14Z"/>
  <path class="cls-35" d="M119.62,191.5c-2.88,0-6.55,1.06-12.72,5.25,1.22,3.1,2.83,7.01,4.72,9.7,1.88,2.56,4.18,6.46,6.87,8.34,3.15,2.1,8.55,3.09,13.83,3.09,5.55,0,11.01-1.08,13.62-3.09,2.69-2.01,4.98-5.78,6.87-8.34,1.88-2.69,3.5-6.6,4.72-9.7-5.98-4.19-9.65-5.19-12.55-5.19-1.47,0-2.74.25-4.02.49-2.69.54-6.04.66-8.61,1.74-2.56-1.08-6.19-1.2-8.75-1.74-1.27-.27-2.52-.55-3.97-.55Z"/>
  <path class="cls-25" d="M93.7,129.19h0c.14.27.41.81.55.93,1.47,4.45.66,32.18.66,41.47,0,4.57-.54,8.88,1.61,12.91.68,1.22,1.88,3.23,3.37,5.52.27-.66.4-1.34.54-1.74,3.09-7.01,9.68-7.41,14.13-12.12,4.72-5.11,5.38-12.79,5.92-19.38.54-5.92.27-9.43-3.5-14.54-6.06-8.07-14.13-9.02-23.29-13.05Z"/>
  <path class="cls-19" d="M95.18,130.21c6.95,2.91,14.45,4.84,19.8,10.55,2.69,3.09,4.7,6.58,4.97,10.63.41,4.03-.13,8.07-.81,12.1-.65,4.46-1.95,9.04-4.98,12.5h0c-.11.05-.19.09-.25.16-2.29,2.42-5.52,3.77-8.36,5.65-2.63,1.6-4.67,3.88-5.65,6.68h0c-1.17-1.71-2.34-3.5-2.96-5.46-1.22-3.1-.95-6.47-.95-9.43,0-3.5,0-7.14.14-10.63.13-8.34.27-16.69,0-25.03-.13-2.5-.03-5.33-.95-7.72ZM93.54,128.96c-.28,0-.49.05-.38.22,1.22,2.29,1.22,4.98,1.22,7.53.14,4.05.14,8.09.14,11.98,0,7.67-.14,15.22-.27,23.02,0,3.5-.41,7.01.66,10.36.81,2.96,2.69,5.65,4.3,8.21.16.14.62.25,1.01.25.33,0,.6-.06.6-.25.02-.09.05-.17.06-.27h.08s-.05-.06-.06-.08h0c1.66-7.5,9.83-8.88,14.61-13.66,2.82-3.23,4.16-7.26,4.97-11.44.68-4.03,1.22-8.48,1.22-12.52-.27-8.21-6.6-14.54-13.74-17.9-4.3-2.03-9.02-3.64-13.45-5.4-.08,0-.6-.08-.98-.08Z"/>
  <path class="cls-20" d="M170.84,129.19h0c-9.15,4.03-17.23,4.98-23.29,13.05-3.77,5.11-4.04,8.62-3.5,14.54.54,6.6,1.22,14.27,5.92,19.38,4.45,4.72,11.05,5.11,14.15,12.12.13.4.27,1.08.54,1.74,1.47-2.29,2.69-4.3,3.35-5.52,2.15-4.03,1.61-8.34,1.61-12.91,0-9.29-.81-37.03.68-41.47.13-.13.4-.66.54-.93Z"/>
  <path class="cls-22" d="M169.48,129.91h0c-.66,1.96-.66,4.27-.66,6.14-.13,4.03-.13,7.94-.13,11.98,0,7.67.27,15.21.27,23.02,0,3.35.4,6.85-.68,10.22-.63,2.48-2.06,4.7-3.5,6.79h0c-1.08-2.63-3.2-4.73-5.52-6.38-2.96-1.76-6.04-3.1-8.61-5.52-.03-.08-.11-.16-.21-.22h0c-2.69-3.07-3.99-7.01-4.64-11.09-.68-4.03-1.22-8.34-1.22-12.52.14-8.34,6.73-14.67,13.74-18.04,3.69-1.72,7.37-2.96,11.16-4.38ZM170.33,128.62c-.08,0-.14,0-.17.03-.02,0-.03.02-.05.03h0s-.05-.03-.08-.03c-.02.03-.03.05-.05.08h0c-7.5,3.31-16.01,5.22-21.76,11.36-2.83,2.96-4.84,6.72-5.25,10.78-.27,4.03.27,8.2.95,12.1.66,4.72,2.01,9.43,5.24,12.93.09.09.32.32.57.44h0c4.78,4.62,12.68,5.98,13.97,13.42,0,.33.49.51.95.51.28,0,.55-.08.66-.24,1.49-2.15,3.1-4.57,4.04-6.99,1.08-2.96.95-6.06.95-9.29,0-3.5,0-7.28-.14-10.78-.27-8.48-.4-16.82,0-25.03.14-2.96,0-6.33,1.36-8.75.11-.33-.79-.57-1.19-.57Z"/>
  <path class="cls-23" d="M96.21,104.41c-.08,0-.14.02-.22.02-.27,2.01-.27,3.89.41,5.78.54,1.22,2.28,3.1,1.35,4.45-1.35,2.03-3.37.14-2.96,3.77.13,1.61.93,3.51,1.2,5.25-1.61.27-3.23-.27-3.77,1.61-.14.95.66,2.56,1.35,3.77,9.15,4.05,17.23,5.13,23.29,13.07,3.77,5.11,3.77,8.61,3.5,14.4-.54,6.6-1.22,14.4-5.92,19.38-4.59,4.72-11.05,5.25-14,11.98-.14.68-.27,1.22-.41,1.88,4.72,7.26,12.79,18.18,16.57,19.8,3.23,1.34,8.48,2.42,12.79,2.55h4.04c4.72-.13,10.78-1.2,14.13-2.55,4.04-1.61,11.98-12.53,16.69-19.8-.13-.66-.27-1.34-.54-1.88-2.83-6.72-9.56-7.26-13.86-11.98-4.72-4.98-5.38-12.79-5.92-19.26-.54-5.92-.41-9.41,3.5-14.53,6.06-7.94,14.27-9.02,23.42-13.07.68-1.2,1.49-2.96,1.35-3.77-.54-1.88-2.03-1.34-3.77-1.61.27-1.74,1.08-3.64,1.2-5.25.41-3.5-1.47-1.74-2.96-3.77-.93-1.08.81-3.23,1.35-4.45.68-1.88.68-3.77.41-5.78-3.51,0-6.82,2.75-10.35,2.75-.68,0-1.35-.09-2.04-.33-5.65-.21-14.73-.3-23.83-.3s-18.17.09-23.82.3c-.6.16-1.19.24-1.77.24-3.56,0-6.88-2.67-10.4-2.67Z"/>
  <path class="cls-24" d="M96.8,104.71h0c2.5.21,4.89,1.77,7.41,2.41.85.19,1.65.38,2.47.38.33,0,.68-.03,1.03-.11,1.08-.14,1.88-.27,2.69-.27,4.59-.14,8.89-.14,13.47-.14,9.83,0,19.53,0,29.35.14.62,0,1.31-.06,1.98-.06.33,0,.66.02.98.06.95.09,1.84.19,2.74.19.38,0,.78-.02,1.16-.06,2.58-.46,4.95-2.06,7.56-2.45h0c.09,2.14-.11,4.37-1.23,6.36-.81,1.34-1.61,2.83-.13,4.03.4.27.81.68,1.35.81.54.14.81.14,1.08.68.66,2.15-1.08,4.57-1.22,6.72,0,.41.54.54.68.54.93.14,2.55-.13,2.82,1.22.41,1.33-.63,2.64-1.31,3.72h0c-7.82,3.35-16.71,5.32-22.23,12.29-2.69,3.37-4.45,6.87-4.45,11.17,0,2.29.27,4.45.41,6.6.13,2.15.54,4.57.81,6.72.81,4.18,2.55,8.48,5.78,11.31,2.83,2.56,6.33,3.91,9.43,6.19,1.61,1.34,2.96,3.1,3.77,5.13.41.66.54,1.35.27,2.01-.27.27-.54.81-.81,1.08-.66.81-1.22,1.88-1.88,2.69-2.56,3.5-5.11,7.14-7.94,10.24-2.03,2.42-4.18,4.72-7.26,5.79-4.32,1.47-9.43,2.01-14,2.01s-9.7-.66-13.86-2.42c-1.35-.4-2.42-1.34-3.37-2.28-1.35-1.36-2.69-2.71-3.91-4.18-2.82-3.37-5.38-7.01-7.94-10.63-.27-.41-.54-.81-.81-1.22-.13-.27-.66-.81-.81-1.2-.4-.95.81-2.71,1.35-3.51.95-1.61,2.44-2.96,4.18-4.16,3.23-2.15,6.87-3.77,9.43-6.74,2.82-3.35,4.04-7.8,4.7-12.1.27-2.15.54-4.45.68-6.6.13-2.03.27-4.18.13-6.19-.27-4.45-2.69-8.09-5.65-11.19-2.83-2.96-6.6-4.97-10.49-6.46-2.03-.93-4.05-1.61-6.06-2.42-.95-.27-2.03-.81-2.96-1.22-.54-.13-1.35-.27-1.76-.66-.41-.27-.68-1.08-.81-1.61-.27-.81-.81-2.15.13-2.83.68-.54,2.03-.4,2.97-.54.13,0,.27,0,.27-.4-.14-2.15-1.61-4.32-1.22-6.47.27-1.2,1.61-1.08,2.42-1.61,1.49-.93.68-2.42,0-3.77-1.19-2.25-1.33-4.48-1.35-6.98ZM95.6,104.15c-.14,0-.54,0-.54.13-.14,2.29-.14,4.72,1.08,6.74.81,1.47,2.01,3.35-.27,4.3-.95.4-1.76.54-2.03,1.74-.25,2.06.95,4.11,1.19,6.28h0c-1.57.27-3.48.09-3.48,1.93,0,1.08.54,2.03.95,2.83.27.4.4.93.66,1.08.54.27,1.22.54,1.76.66,4.18,1.63,8.34,2.97,12.39,4.98,4.3,2.29,8.07,5.4,10.49,9.7,2.15,3.77,2.03,8.07,1.61,12.37-.27,4.59-.81,9.29-2.42,13.47-.93,2.15-2.01,4.03-3.77,5.79-1.49,1.34-3.23,2.42-4.84,3.5-3.37,2.03-6.74,3.91-8.48,7.53-.27.68-.41,1.22-.68,1.9q-.13.66.41,1.2c.54.81,1.2,1.61,1.88,2.69l4.04,5.52c2.29,3.23,4.84,6.6,7.8,9.29,1.09.81,2.03,1.61,3.24,2.15,2.01.81,4.43,1.34,6.6,1.88,3.18.57,6.31.81,9.46.81,1.36,0,2.74-.05,4.13-.13,2.55-.27,4.84-.68,7.41-1.22,1.74-.4,3.35-.81,4.84-1.47,3.1-1.76,5.38-4.98,7.41-7.41,2.96-3.64,5.38-7.14,7.94-10.78.4-.4.54-.93.81-1.2.4-.54.27-1.08,0-1.49-.27-1.08-.81-2.03-1.49-3.1-1.2-1.61-2.56-2.82-4.18-4.03-3.35-2.15-7.12-3.64-9.56-6.99-2.96-3.77-3.77-8.48-4.43-13.05-.27-2.29-.54-4.72-.68-7.01-.13-2.01-.13-4.16.41-6.33.93-4.3,4.3-8.2,7.8-10.9,3.64-2.69,7.94-4.16,12.12-5.92,1.76-.38,3.88-1.11,5.92-2.2h0c.19-.02.33-.08.41-.22h0s.03-.03.03-.06h0c.68-1.34,1.96-3.32.78-4.65-.89-1-2.04-.9-3.18-1.06h0c.35-2.01,1.41-3.92,1.16-6.08-.14-1.08-1.08-1.47-2.03-1.74-2.01-.68-1.08-2.69-.4-4.03,1.2-2.29,1.47-4.45,1.2-7.01,0-.27-.81-.4-1.2-.4-2.42,0-4.84,1.08-7.14,2.01-.95.28-2.04.57-3.12.57-.44,0-.89-.05-1.33-.16-.81-.14-1.88-.14-2.69-.14-4.3-.13-8.75-.13-13.05-.13-9.83,0-19.53,0-29.21.13h-2.96c-.68,0-1.22.41-1.88.41-.81,0-1.61-.27-2.69-.41-2.71-.81-5.25-2.28-8.21-2.28Z"/>
  <path class="cls-40" d="M101.51,153.68c.13,3.4,4.42,8.67,8.02,8.67.38,0,.76-.06,1.12-.19,7.14-2.42-4.16-7.26-9.15-8.48Z"/>
  <path class="cls-42" d="M163.04,153.68h0c-4.98,1.22-16.3,6.06-9.16,8.48.36.13.74.19,1.14.19,3.61,0,7.9-5.27,8.02-8.67Z"/>
  <path class="cls-41" d="M144.93,192.02c.19,0,.4.02.6.03,2.42.13,4.7,1.2,6.73,2.28.68.27,1.61.81,2.29,1.35.4.27,2.15.95,2.15,1.61,0,.41-.41,1.09-.54,1.36-.14.4-.27.81-.54,1.2-.27.81-.68,1.61-1.08,2.56-1.61,2.96-3.37,5.79-5.67,8.48-1.61,2.28-3.5,4.3-6.04,5.24-2.29.82-4.86,1.22-7.14,1.49-1.35.11-2.74.17-4.11.17-3.91,0-7.86-.54-11.24-2.33-3.1-1.61-5.11-4.84-7.14-7.67-2.12-3.32-3.99-6.91-5.46-10.63h0c3.37-2.33,7.25-4.98,11.6-4.98h.32c1.35,0,2.69.41,4.05.81,1.35.27,2.82.41,4.16.68.68.13,1.35.13,2.15.4.68.27,1.35.54,1.88.54.68,0,1.36-.27,2.03-.54l2.56-.4c1.47-.41,3.09-.54,4.7-.95.09,0,.36-.06.46-.22h0c1.11-.22,2.15-.47,3.26-.47ZM119.82,191.37c-4.84,0-9.43,2.69-13.32,5.38,0,0-.14.14-.14.41,2.03,5.11,4.72,10.24,8.21,14.54,1.35,1.88,3.1,3.35,5.11,4.43,1.76.82,3.64,1.36,5.67,1.63,2.64.4,5.29.65,7.94.65,1.79,0,3.58-.11,5.38-.38,3.91-.54,7.41-1.76,10.1-4.59,4.3-4.57,7.53-10.49,9.68-16.28q0-.27-.13-.27c-3.23-2.15-6.74-4.45-10.78-5.11-.95-.28-1.9-.41-2.83-.41-1.31,0-2.63.22-4.04.54-.03,0-.13.02-.22.05h0c-2.83.59-5.54.65-8.15,1.63h0c-2.66-.89-5.43-1.04-8.31-1.68-1.36-.27-2.83-.54-4.18-.54Z"/>
  <path class="cls-2" d="M111.36,192.32c-.71,0-1.27.43-1.63,1.35-.81,2.42,2.82,6.87,4.84,7.8.63.32,1.27.47,1.82.47,1.58,0,2.67-1.2,2.09-3.29-.27-1.36-3.5-4.98-6.06-6.06-.38-.17-.74-.27-1.06-.27Z"/>
  <path class="cls-3" d="M153.19,192.32c-.33,0-.68.09-1.06.27-2.56,1.08-5.67,4.7-6.06,6.06-.6,2.09.49,3.29,2.07,3.29.57,0,1.19-.16,1.82-.47,2.03-.93,5.67-5.38,4.86-7.8-.38-.92-.93-1.35-1.63-1.35Z"/>
  <path class="cls-21" d="M168.56,52.76c.07,0,.14-.03.18-.1l.83-5.35c0-.14.14-.15.14-.15l4.83-1.11-4.84-1.05c-.14,0-.14-.08-.14-.08l-.97-5.18c0-.11-.05-.16-.12-.16-.06,0-.14.05-.17.16l-.98,5.2c0,.08-.07.08-.07.08l-4.33,1.03c-.07,0-.07.21,0,.29l4.34.98c.07,0,.07.08.07.08l1.12,5.26c0,.07.05.1.11.1Z"/>
  <path class="cls-54" d="M179.13,75.95s.08-.02.11-.06l.51-3.3c0-.09.09-.09.09-.09l2.98-.69-2.99-.65c-.09,0-.09-.05-.09-.05l-.6-3.2c0-.07-.03-.1-.07-.1-.04,0-.08.03-.1.1l-.6,3.2s-.04.05-.04.05l-2.67.64s-.04.13,0,.18l2.68.61s.04.05.04.05l.69,3.24s.03.06.07.06Z"/>
  <path class="cls-52" d="M153.17,63.65s.08-.02.11-.06l.51-3.3c0-.09.09-.09.09-.09l2.98-.69-2.99-.65c-.09,0-.09-.05-.09-.05l-.6-3.2c0-.07-.03-.1-.07-.1-.04,0-.08.03-.1.1l-.6,3.2s-.04.05-.04.05l-2.67.64s-.04.13,0,.18l2.68.61s.04.05.04.05l.69,3.24s.03.06.07.06Z"/>
  <path class="cls-49" d="M138.14,99.63s.08-.02.11-.06l.51-3.3c0-.09.09-.09.09-.09l2.98-.69-2.99-.65c-.09,0-.09-.05-.09-.05l-.6-3.2c0-.07-.03-.1-.07-.1-.04,0-.08.03-.1.1l-.6,3.2s-.04.05-.04.05l-2.67.64s-.04.13,0,.18l2.68.61s.04.05.04.05l.69,3.24s.03.06.07.06Z"/>
  <path class="cls-45" d="M103.43,79.17c.07,0,.14-.03.18-.1l.83-5.35c0-.14.14-.15.14-.15l4.83-1.11-4.84-1.05c-.14,0-.14-.08-.14-.08l-.97-5.18c0-.11-.05-.16-.12-.16-.06,0-.14.05-.17.16l-.98,5.2c0,.08-.07.08-.07.08l-4.33,1.03c-.07,0-.07.21,0,.29l4.34.98c.07,0,.07.08.07.08l1.12,5.26c0,.07.05.1.11.1Z"/>
  <path class="cls-50" d="M80.29,72.3s.08-.02.11-.06l.51-3.3c0-.09.09-.09.09-.09l2.98-.69-2.99-.65c-.09,0-.09-.05-.09-.05l-.6-3.2c0-.07-.03-.1-.07-.1-.04,0-.08.03-.1.1l-.6,3.2s-.04.05-.04.05l-2.67.64s-.04.13,0,.18l2.68.61s.04.05.04.05l.69,3.24s.03.06.07.06Z"/>
  <path class="cls-44" d="M43.4,104.64s.08-.02.11-.06l.51-3.3c0-.09.09-.09.09-.09l2.98-.69-2.99-.65c-.09,0-.09-.05-.09-.05l-.6-3.2c0-.07-.03-.1-.07-.1-.04,0-.08.03-.1.1l-.6,3.2s-.04.05-.04.05l-2.67.64s-.04.13,0,.18l2.68.61s.04.05.04.05l.69,3.24s.03.06.07.06Z"/>
  <path class="cls-53" d="M44.31,139.26s.08-.02.11-.06l.51-3.3c0-.09.09-.09.09-.09l2.98-.69-2.99-.65c-.09,0-.09-.05-.09-.05l-.6-3.2c0-.07-.03-.1-.07-.1-.04,0-.08.03-.1.1l-.6,3.2s-.04.05-.04.05l-2.67.64s-.04.13,0,.18l2.68.61s.04.05.04.05l.69,3.24s.03.06.07.06Z"/>
  <path class="cls-46" d="M68.33,192.05s.08-.02.11-.06l.51-3.3c0-.09.09-.09.09-.09l2.98-.69-2.99-.65c-.09,0-.09-.05-.09-.05l-.6-3.2c0-.07-.03-.1-.07-.1-.04,0-.08.03-.1.1l-.6,3.2s-.04.05-.04.05l-2.67.64s-.04.13,0,.18l2.68.61s.04.05.04.05l.69,3.24s.03.06.07.06Z"/>
  <path class="cls-47" d="M66.55,165.24c.07,0,.14-.03.18-.1l.83-5.35c0-.14.14-.15.14-.15l4.83-1.11-4.84-1.05c-.14,0-.14-.08-.14-.08l-.97-5.18c0-.11-.05-.16-.12-.16-.06,0-.14.05-.17.16l-.98,5.2c0,.08-.07.08-.07.08l-4.33,1.03c-.07,0-.07.21,0,.29l4.34.98c.07,0,.07.08.07.08l1.12,5.26c0,.07.05.1.11.1Z"/>
  <path class="cls-48" d="M181.77,203.5c.07,0,.14-.03.18-.1l.83-5.35c0-.14.14-.15.14-.15l4.83-1.11-4.84-1.05c-.14,0-.14-.08-.14-.08l-.97-5.18c0-.11-.05-.16-.12-.16-.06,0-.14.05-.17.16l-.98,5.2c0,.08-.07.08-.07.08l-4.33,1.03c-.07,0-.07.21,0,.29l4.34.98c.07,0,.07.08.07.08l1.12,5.26c0,.07.05.1.11.1Z"/>
  <path class="cls-43" d="M206.91,170.22s.08-.02.11-.06l.51-3.3c0-.09.09-.09.09-.09l2.98-.69-2.99-.65c-.09,0-.09-.05-.09-.05l-.6-3.2c0-.07-.03-.1-.07-.1-.04,0-.08.03-.1.1l-.6,3.2s-.04.05-.04.05l-2.67.64s-.04.13,0,.18l2.68.61s.04.05.04.05l.69,3.24s.03.06.07.06Z"/>
  <path class="cls-51" d="M224.59,119.25c.07,0,.14-.03.18-.1l.83-5.35c0-.14.14-.15.14-.15l4.83-1.11-4.84-1.05c-.14,0-.14-.08-.14-.08l-.97-5.18c0-.11-.05-.16-.12-.16-.06,0-.14.05-.17.16l-.98,5.2c0,.08-.07.08-.07.08l-4.33,1.03c-.07,0-.07.21,0,.29l4.34.98c.07,0,.07.08.07.08l1.12,5.26c0,.07.05.1.11.1Z"/>
</svg>