<?xml version="1.0" encoding="UTF-8"?>
<svg id="Layer_1" data-name="Layer 1" xmlns="http://www.w3.org/2000/svg" xmlns:xlink="http://www.w3.org/1999/xlink" viewBox="0 0 264 257">
  <defs>
    <style>
      .cls-1 {
        fill: url(#radial-gradient);
      }

      .cls-1, .cls-2, .cls-3, .cls-4, .cls-5, .cls-6, .cls-7, .cls-8, .cls-9, .cls-10, .cls-11, .cls-12, .cls-13, .cls-14, .cls-15, .cls-16, .cls-17, .cls-18, .cls-19, .cls-20, .cls-21, .cls-22, .cls-23, .cls-24, .cls-25, .cls-26, .cls-27, .cls-28, .cls-29, .cls-30, .cls-31, .cls-32, .cls-33, .cls-34, .cls-35, .cls-36, .cls-37, .cls-38, .cls-39, .cls-40, .cls-41, .cls-42, .cls-43, .cls-44, .cls-45, .cls-46, .cls-47, .cls-48, .cls-49, .cls-50, .cls-51, .cls-52, .cls-53, .cls-54, .cls-55, .cls-56, .cls-57, .cls-58, .cls-59, .cls-60, .cls-61, .cls-62, .cls-63, .cls-64, .cls-65, .cls-66, .cls-67, .cls-68, .cls-69, .cls-70, .cls-71, .cls-72, .cls-73, .cls-74, .cls-75, .cls-76, .cls-77, .cls-78, .cls-79, .cls-80, .cls-81, .cls-82, .cls-83, .cls-84, .cls-85, .cls-86, .cls-87, .cls-88, .cls-89, .cls-90, .cls-91, .cls-92, .cls-93, .cls-94, .cls-95, .cls-96, .cls-97, .cls-98, .cls-99, .cls-100, .cls-101, .cls-102, .cls-103, .cls-104, .cls-105, .cls-106, .cls-107, .cls-108, .cls-109, .cls-110, .cls-111, .cls-112, .cls-113, .cls-114, .cls-115 {
        fill-rule: evenodd;
      }

      .cls-2 {
        fill: url(#radial-gradient-30);
      }

      .cls-3 {
        fill: url(#radial-gradient-31);
      }

      .cls-4 {
        fill: url(#radial-gradient-32);
      }

      .cls-5 {
        fill: url(#radial-gradient-33);
      }

      .cls-6 {
        fill: url(#radial-gradient-38);
      }

      .cls-7 {
        fill: url(#radial-gradient-39);
      }

      .cls-8 {
        fill: url(#radial-gradient-36);
      }

      .cls-9 {
        fill: url(#radial-gradient-37);
      }

      .cls-10 {
        fill: url(#radial-gradient-27);
      }

      .cls-11 {
        fill: url(#radial-gradient-29);
      }

      .cls-12 {
        fill: url(#radial-gradient-26);
      }

      .cls-13 {
        fill: url(#radial-gradient-20);
      }

      .cls-14 {
        fill: url(#radial-gradient-24);
      }

      .cls-15 {
        fill: url(#radial-gradient-21);
      }

      .cls-16 {
        fill: url(#radial-gradient-51);
      }

      .cls-17 {
        fill: url(#radial-gradient-52);
      }

      .cls-18 {
        fill: url(#radial-gradient-59);
      }

      .cls-19 {
        fill: url(#radial-gradient-53);
      }

      .cls-20 {
        fill: url(#radial-gradient-54);
      }

      .cls-21 {
        fill: url(#radial-gradient-55);
      }

      .cls-22 {
        fill: url(#radial-gradient-50);
      }

      .cls-23 {
        fill: url(#radial-gradient-35);
      }

      .cls-24 {
        fill: url(#radial-gradient-34);
      }

      .cls-25 {
        fill: url(#radial-gradient-23);
      }

      .cls-26 {
        fill: url(#radial-gradient-28);
      }

      .cls-27 {
        fill: url(#radial-gradient-22);
      }

      .cls-28 {
        fill: url(#radial-gradient-40);
      }

      .cls-29 {
        fill: url(#radial-gradient-41);
      }

      .cls-30 {
        fill: url(#radial-gradient-46);
      }

      .cls-31 {
        fill: url(#radial-gradient-42);
      }

      .cls-32 {
        fill: url(#radial-gradient-49);
      }

      .cls-33 {
        fill: url(#radial-gradient-44);
      }

      .cls-34 {
        fill: url(#radial-gradient-43);
      }

      .cls-35 {
        fill: url(#radial-gradient-45);
      }

      .cls-36 {
        fill: url(#radial-gradient-25);
      }

      .cls-37 {
        fill: url(#radial-gradient-56);
      }

      .cls-38 {
        fill: url(#radial-gradient-58);
      }

      .cls-39 {
        fill: url(#radial-gradient-57);
      }

      .cls-40 {
        fill: url(#radial-gradient-72);
      }

      .cls-41 {
        fill: url(#radial-gradient-78);
      }

      .cls-42 {
        fill: url(#radial-gradient-75);
      }

      .cls-43 {
        fill: url(#radial-gradient-77);
      }

      .cls-44 {
        fill: url(#radial-gradient-79);
      }

      .cls-45 {
        fill: url(#radial-gradient-70);
      }

      .cls-46 {
        fill: url(#radial-gradient-65);
      }

      .cls-47 {
        fill: url(#radial-gradient-63);
      }

      .cls-48 {
        fill: url(#radial-gradient-67);
      }

      .cls-49 {
        fill: url(#radial-gradient-68);
      }

      .cls-50 {
        fill: url(#radial-gradient-69);
      }

      .cls-51 {
        fill: url(#radial-gradient-62);
      }

      .cls-52 {
        fill: url(#radial-gradient-64);
      }

      .cls-53 {
        fill: url(#radial-gradient-91);
      }

      .cls-54 {
        fill: url(#radial-gradient-96);
      }

      .cls-55 {
        fill: url(#radial-gradient-94);
      }

      .cls-56 {
        fill: url(#radial-gradient-93);
      }

      .cls-57 {
        fill: url(#radial-gradient-95);
      }

      .cls-58 {
        fill: url(#radial-gradient-97);
      }

      .cls-59 {
        fill: url(#radial-gradient-99);
      }

      .cls-60 {
        fill: url(#radial-gradient-90);
      }

      .cls-61 {
        fill: url(#radial-gradient-98);
      }

      .cls-62 {
        fill: url(#radial-gradient-92);
      }

      .cls-63 {
        fill: url(#radial-gradient-71);
      }

      .cls-64 {
        fill: url(#radial-gradient-76);
      }

      .cls-65 {
        fill: url(#radial-gradient-73);
      }

      .cls-66 {
        fill: url(#radial-gradient-74);
      }

      .cls-67 {
        fill: url(#radial-gradient-61);
      }

      .cls-68 {
        fill: url(#radial-gradient-66);
      }

      .cls-69 {
        fill: url(#radial-gradient-60);
      }

      .cls-70 {
        fill: url(#radial-gradient-87);
      }

      .cls-71 {
        fill: url(#radial-gradient-84);
      }

      .cls-72 {
        fill: url(#radial-gradient-86);
      }

      .cls-73 {
        fill: url(#radial-gradient-89);
      }

      .cls-74 {
        fill: url(#radial-gradient-81);
      }

      .cls-75 {
        fill: url(#radial-gradient-88);
      }

      .cls-76 {
        fill: url(#radial-gradient-80);
      }

      .cls-77 {
        fill: url(#radial-gradient-83);
      }

      .cls-78 {
        fill: url(#radial-gradient-82);
      }

      .cls-79 {
        fill: url(#radial-gradient-85);
      }

      .cls-80 {
        fill: url(#radial-gradient-11);
      }

      .cls-81 {
        fill: url(#radial-gradient-17);
      }

      .cls-82 {
        fill: url(#radial-gradient-19);
      }

      .cls-83 {
        fill: url(#radial-gradient-10);
      }

      .cls-84 {
        fill: url(#radial-gradient-18);
      }

      .cls-85 {
        fill: url(#radial-gradient-15);
      }

      .cls-86 {
        fill: url(#radial-gradient-12);
      }

      .cls-87 {
        fill: url(#radial-gradient-16);
      }

      .cls-88 {
        fill: url(#radial-gradient-13);
      }

      .cls-89 {
        fill: url(#radial-gradient-14);
      }

      .cls-90 {
        fill: url(#radial-gradient-48);
      }

      .cls-91 {
        fill: url(#radial-gradient-47);
      }

      .cls-116 {
        stroke-width: 2.89px;
      }

      .cls-116, .cls-117 {
        fill: none;
        stroke: #ebb871;
        stroke-linejoin: round;
      }

      .cls-93 {
        fill: url(#radial-gradient-114);
      }

      .cls-94 {
        fill: url(#radial-gradient-111);
      }

      .cls-95 {
        fill: url(#radial-gradient-112);
      }

      .cls-96 {
        fill: url(#radial-gradient-113);
      }

      .cls-97 {
        fill: url(#radial-gradient-110);
      }

      .cls-98 {
        fill: url(#radial-gradient-100);
      }

      .cls-99 {
        fill: url(#radial-gradient-103);
      }

      .cls-100 {
        fill: url(#radial-gradient-102);
      }

      .cls-101 {
        fill: url(#radial-gradient-107);
      }

      .cls-102 {
        fill: url(#radial-gradient-101);
      }

      .cls-103 {
        fill: url(#radial-gradient-104);
      }

      .cls-104 {
        fill: url(#radial-gradient-106);
      }

      .cls-105 {
        fill: url(#radial-gradient-108);
      }

      .cls-106 {
        fill: url(#radial-gradient-105);
      }

      .cls-107 {
        fill: url(#radial-gradient-109);
      }

      .cls-117 {
        stroke-width: 1.44px;
      }

      .cls-108 {
        fill: url(#radial-gradient-7);
      }

      .cls-109 {
        fill: url(#radial-gradient-5);
      }

      .cls-110 {
        fill: url(#radial-gradient-6);
      }

      .cls-111 {
        fill: url(#radial-gradient-4);
      }

      .cls-112 {
        fill: url(#radial-gradient-8);
      }

      .cls-113 {
        fill: url(#radial-gradient-9);
      }

      .cls-114 {
        fill: url(#radial-gradient-3);
      }

      .cls-115 {
        fill: url(#radial-gradient-2);
      }
    </style>
    <radialGradient id="radial-gradient" cx="-614.43" cy="939.77" fx="-614.43" fy="939.77" r="14.66" gradientTransform="translate(6371.15 9670.65) scale(10.15 -10.15)" gradientUnits="userSpaceOnUse">
      <stop offset="0" stop-color="#d473c9"/>
      <stop offset="1" stop-color="#0e0e1c"/>
    </radialGradient>
    <radialGradient id="radial-gradient-2" cx="-556.77" cy="802.41" fx="-556.77" fy="802.41" r="8.59" gradientTransform="translate(3442.28 4923.87) scale(5.95 -5.95)" gradientUnits="userSpaceOnUse">
      <stop offset="0" stop-color="#f3d5ab"/>
      <stop offset="1" stop-color="#dc9b3f"/>
    </radialGradient>
    <radialGradient id="radial-gradient-3" cx="-587.19" cy="869.91" fx="-587.19" fy="869.91" r="11.04" gradientTransform="translate(4625.94 6842.21) scale(7.65 -7.65)" gradientUnits="userSpaceOnUse">
      <stop offset="0" stop-color="#343479"/>
      <stop offset="1" stop-color="#0e0e1c"/>
    </radialGradient>
    <radialGradient id="radial-gradient-4" cx="-618.4" cy="948.85" fx="-618.4" fy="948.85" r="15.41" gradientTransform="translate(6730.26 10252.65) scale(10.67 -10.67)" gradientUnits="userSpaceOnUse">
      <stop offset="0" stop-color="#f3d5ab"/>
      <stop offset="1" stop-color="#dc9b3f"/>
    </radialGradient>
    <radialGradient id="radial-gradient-5" cx="-97.32" cy="-299" fx="-97.32" fy="-299" r="1.87" gradientTransform="translate(207.02 -319.48) scale(1.3 -1.3)" gradientUnits="userSpaceOnUse">
      <stop offset="0" stop-color="#f3d5ab"/>
      <stop offset="1" stop-color="#dc9b3f"/>
    </radialGradient>
    <radialGradient id="radial-gradient-6" cx="-17.35" cy="-289.28" fx="-17.35" fy="-289.28" r="1.88" gradientTransform="translate(209.88 -314.85) scale(1.3 -1.3)" gradientUnits="userSpaceOnUse">
      <stop offset="0" stop-color="#f3d5ab"/>
      <stop offset="1" stop-color="#dc9b3f"/>
    </radialGradient>
    <radialGradient id="radial-gradient-7" cx="-28.58" cy="-308.09" fx="-28.58" fy="-308.09" r="1.87" gradientTransform="translate(204.92 -322.89) scale(1.29 -1.29)" gradientUnits="userSpaceOnUse">
      <stop offset="0" stop-color="#f3d5ab"/>
      <stop offset="1" stop-color="#dc9b3f"/>
    </radialGradient>
    <radialGradient id="radial-gradient-8" cx="-17.07" cy="-329.57" fx="-17.07" fy="-329.57" r="1.88" gradientTransform="translate(208.9 -316.44) scale(1.3 -1.3)" gradientUnits="userSpaceOnUse">
      <stop offset="0" stop-color="#f3d5ab"/>
      <stop offset="1" stop-color="#dc9b3f"/>
    </radialGradient>
    <radialGradient id="radial-gradient-9" cx="-20.12" cy="-294.24" fx="-20.12" fy="-294.24" r="1.87" gradientTransform="translate(205.5 -321.95) scale(1.3 -1.3)" gradientUnits="userSpaceOnUse">
      <stop offset="0" stop-color="#f3d5ab"/>
      <stop offset="1" stop-color="#dc9b3f"/>
    </radialGradient>
    <radialGradient id="radial-gradient-10" cx="-118.88" cy="-330.41" fx="-118.88" fy="-330.41" r="1.87" gradientTransform="translate(206.52 -320.29) scale(1.3 -1.3)" gradientUnits="userSpaceOnUse">
      <stop offset="0" stop-color="#f3d5ab"/>
      <stop offset="1" stop-color="#dc9b3f"/>
    </radialGradient>
    <radialGradient id="radial-gradient-11" cx="-129.65" cy="-337.51" fx="-129.65" fy="-337.51" r="1.87" gradientTransform="translate(205.94 -321.24) scale(1.3 -1.3)" gradientUnits="userSpaceOnUse">
      <stop offset="0" stop-color="#f3d5ab"/>
      <stop offset="1" stop-color="#dc9b3f"/>
    </radialGradient>
    <radialGradient id="radial-gradient-12" cx="-120.65" cy="-314.59" fx="-120.65" fy="-314.59" r="1.88" gradientTransform="translate(209.81 -314.97) scale(1.3 -1.3)" gradientUnits="userSpaceOnUse">
      <stop offset="0" stop-color="#f3d5ab"/>
      <stop offset="1" stop-color="#dc9b3f"/>
    </radialGradient>
    <radialGradient id="radial-gradient-13" cx=".12" cy="-338.46" fx=".12" fy="-338.46" r="1.88" gradientTransform="translate(209.09 -316.13) scale(1.3 -1.3)" gradientUnits="userSpaceOnUse">
      <stop offset="0" stop-color="#f3d5ab"/>
      <stop offset="1" stop-color="#dc9b3f"/>
    </radialGradient>
    <radialGradient id="radial-gradient-14" cx="-86.28" cy="-294.01" fx="-86.28" fy="-294.01" r="1.88" gradientTransform="translate(210.86 -313.26) scale(1.3 -1.3)" gradientUnits="userSpaceOnUse">
      <stop offset="0" stop-color="#f3d5ab"/>
      <stop offset="1" stop-color="#dc9b3f"/>
    </radialGradient>
    <radialGradient id="radial-gradient-15" cx="-28.44" cy="-315.01" fx="-28.44" fy="-315.01" r="1.85" gradientTransform="translate(198.06 -334) scale(1.28 -1.28)" gradientUnits="userSpaceOnUse">
      <stop offset="0" stop-color="#f3d5ab"/>
      <stop offset="1" stop-color="#dc9b3f"/>
    </radialGradient>
    <radialGradient id="radial-gradient-16" cx="-99.66" cy="-297.09" fx="-99.66" fy="-297.09" r="1.87" gradientTransform="translate(204.93 -322.88) scale(1.29 -1.29)" gradientUnits="userSpaceOnUse">
      <stop offset="0" stop-color="#f3d5ab"/>
      <stop offset="1" stop-color="#dc9b3f"/>
    </radialGradient>
    <radialGradient id="radial-gradient-17" cx="-7.62" cy="-298.51" fx="-7.62" fy="-298.51" r="1.89" gradientTransform="translate(215.74 -305.36) scale(1.31 -1.31)" gradientUnits="userSpaceOnUse">
      <stop offset="0" stop-color="#f3d5ab"/>
      <stop offset="1" stop-color="#dc9b3f"/>
    </radialGradient>
    <radialGradient id="radial-gradient-18" cx="-111.14" cy="-299.29" fx="-111.14" fy="-299.29" r="1.88" gradientTransform="translate(210.86 -313.26) scale(1.3 -1.3)" gradientUnits="userSpaceOnUse">
      <stop offset="0" stop-color="#f3d5ab"/>
      <stop offset="1" stop-color="#dc9b3f"/>
    </radialGradient>
    <radialGradient id="radial-gradient-19" cx="-109.57" cy="-331.98" fx="-109.57" fy="-331.98" r="1.88" gradientTransform="translate(209.54 -315.39) scale(1.3 -1.3)" gradientUnits="userSpaceOnUse">
      <stop offset="0" stop-color="#f3d5ab"/>
      <stop offset="1" stop-color="#dc9b3f"/>
    </radialGradient>
    <radialGradient id="radial-gradient-20" cx="-24.52" cy="-306.96" fx="-24.52" fy="-306.96" r="1.86" gradientTransform="translate(201.52 -328.4) scale(1.29 -1.29)" gradientUnits="userSpaceOnUse">
      <stop offset="0" stop-color="#f3d5ab"/>
      <stop offset="1" stop-color="#dc9b3f"/>
    </radialGradient>
    <radialGradient id="radial-gradient-21" cx="14.09" cy="-323.64" fx="14.09" fy="-323.64" r="1.87" gradientTransform="translate(203.07 -325.88) scale(1.29 -1.29)" gradientUnits="userSpaceOnUse">
      <stop offset="0" stop-color="#f3d5ab"/>
      <stop offset="1" stop-color="#dc9b3f"/>
    </radialGradient>
    <radialGradient id="radial-gradient-22" cx="-70.51" cy="-297.37" fx="-70.51" fy="-297.37" r="1.88" gradientTransform="translate(210.05 -314.57) scale(1.3 -1.3)" gradientUnits="userSpaceOnUse">
      <stop offset="0" stop-color="#f3d5ab"/>
      <stop offset="1" stop-color="#dc9b3f"/>
    </radialGradient>
    <radialGradient id="radial-gradient-23" cx="-41.91" cy="-275.66" fx="-41.91" fy="-275.66" r="1.88" gradientTransform="translate(208.73 -316.72) scale(1.3 -1.3)" gradientUnits="userSpaceOnUse">
      <stop offset="0" stop-color="#f3d5ab"/>
      <stop offset="1" stop-color="#dc9b3f"/>
    </radialGradient>
    <radialGradient id="radial-gradient-24" cx="-77.44" cy="-292.71" fx="-77.44" fy="-292.71" r="1.89" gradientTransform="translate(215.1 -306.39) scale(1.31 -1.31)" gradientUnits="userSpaceOnUse">
      <stop offset="0" stop-color="#f3d5ab"/>
      <stop offset="1" stop-color="#dc9b3f"/>
    </radialGradient>
    <radialGradient id="radial-gradient-25" cx="-125.44" cy="-370.47" fx="-125.44" fy="-370.47" r="1.87" gradientTransform="translate(207.17 -319.24) scale(1.3 -1.3)" gradientUnits="userSpaceOnUse">
      <stop offset="0" stop-color="#f3d5ab"/>
      <stop offset="1" stop-color="#dc9b3f"/>
    </radialGradient>
    <radialGradient id="radial-gradient-26" cx="-120.76" cy="-371.51" fx="-120.76" fy="-371.51" r="1.86" gradientTransform="translate(202.28 -327.16) scale(1.29 -1.29)" gradientUnits="userSpaceOnUse">
      <stop offset="0" stop-color="#f3d5ab"/>
      <stop offset="1" stop-color="#dc9b3f"/>
    </radialGradient>
    <radialGradient id="radial-gradient-27" cx="3.07" cy="-336.21" fx="3.07" fy="-336.21" r="1.9" gradientTransform="translate(218.62 -300.68) scale(1.31 -1.31)" gradientUnits="userSpaceOnUse">
      <stop offset="0" stop-color="#f3d5ab"/>
      <stop offset="1" stop-color="#dc9b3f"/>
    </radialGradient>
    <radialGradient id="radial-gradient-28" cx="-50.27" cy="-303.25" fx="-50.27" fy="-303.25" r="1.88" gradientTransform="translate(209.26 -315.85) scale(1.3 -1.3)" gradientUnits="userSpaceOnUse">
      <stop offset="0" stop-color="#f3d5ab"/>
      <stop offset="1" stop-color="#dc9b3f"/>
    </radialGradient>
    <radialGradient id="radial-gradient-29" cx="-117.3" cy="-342.11" fx="-117.3" fy="-342.11" r="1.87" gradientTransform="translate(207.55 -318.62) scale(1.3 -1.3)" gradientUnits="userSpaceOnUse">
      <stop offset="0" stop-color="#f3d5ab"/>
      <stop offset="1" stop-color="#dc9b3f"/>
    </radialGradient>
    <radialGradient id="radial-gradient-30" cx="-2.01" cy="-331.63" fx="-2.01" fy="-331.63" r="1.88" gradientTransform="translate(210.14 -314.43) scale(1.3 -1.3)" gradientUnits="userSpaceOnUse">
      <stop offset="0" stop-color="#f3d5ab"/>
      <stop offset="1" stop-color="#dc9b3f"/>
    </radialGradient>
    <radialGradient id="radial-gradient-31" cx="-7.29" cy="-323.05" fx="-7.29" fy="-323.05" r="1.87" gradientTransform="translate(205.22 -322.39) scale(1.29 -1.29)" gradientUnits="userSpaceOnUse">
      <stop offset="0" stop-color="#f3d5ab"/>
      <stop offset="1" stop-color="#dc9b3f"/>
    </radialGradient>
    <radialGradient id="radial-gradient-32" cx="-124.9" cy="-341.27" fx="-124.9" fy="-341.27" r="1.88" gradientTransform="translate(209.3 -315.79) scale(1.3 -1.3)" gradientUnits="userSpaceOnUse">
      <stop offset="0" stop-color="#f3d5ab"/>
      <stop offset="1" stop-color="#dc9b3f"/>
    </radialGradient>
    <radialGradient id="radial-gradient-33" cx="-447.54" cy="570.83" fx="-447.54" fy="570.83" r="4.75" gradientTransform="translate(1593.41 1927.42) scale(3.29 -3.29)" gradientUnits="userSpaceOnUse">
      <stop offset="0" stop-color="#f3d5ab"/>
      <stop offset="1" stop-color="#dc9b3f"/>
    </radialGradient>
    <radialGradient id="radial-gradient-34" cx="-436.04" cy="549.93" fx="-436.04" fy="549.93" r="4.58" gradientTransform="translate(1512.73 1796.66) scale(3.17 -3.17)" gradientUnits="userSpaceOnUse">
      <stop offset="0" stop-color="#f3d5ab"/>
      <stop offset="1" stop-color="#dc9b3f"/>
    </radialGradient>
    <radialGradient id="radial-gradient-35" cx="-453.91" cy="596.14" fx="-453.91" fy="596.14" r="4.99" gradientTransform="translate(1707.2 2111.84) scale(3.45 -3.45)" gradientUnits="userSpaceOnUse">
      <stop offset="0" stop-color="#f3d5ab"/>
      <stop offset="1" stop-color="#dc9b3f"/>
    </radialGradient>
    <radialGradient id="radial-gradient-36" cx="-405.97" cy="490.7" fx="-405.97" fy="490.7" r="4.17" gradientTransform="translate(1311.88 1471.15) scale(2.88 -2.88)" gradientUnits="userSpaceOnUse">
      <stop offset="0" stop-color="#f3d5ab"/>
      <stop offset="1" stop-color="#dc9b3f"/>
    </radialGradient>
    <radialGradient id="radial-gradient-37" cx="-383.79" cy="417.46" fx="-383.79" fy="417.46" r="4" gradientTransform="translate(1230.1 1338.62) scale(2.77 -2.77)" gradientUnits="userSpaceOnUse">
      <stop offset="0" stop-color="#f3d5ab"/>
      <stop offset="1" stop-color="#dc9b3f"/>
    </radialGradient>
    <radialGradient id="radial-gradient-38" cx="-394.37" cy="441.5" fx="-394.37" fy="441.5" r="4.14" gradientTransform="translate(1297.49 1447.82) scale(2.86 -2.86)" gradientUnits="userSpaceOnUse">
      <stop offset="0" stop-color="#f3d5ab"/>
      <stop offset="1" stop-color="#dc9b3f"/>
    </radialGradient>
    <radialGradient id="radial-gradient-39" cx="-540.07" cy="768.25" fx="-540.07" fy="768.25" r="7.67" gradientTransform="translate(3001.28 4209.14) scale(5.31 -5.31)" gradientUnits="userSpaceOnUse">
      <stop offset="0" stop-color="#343479"/>
      <stop offset="1" stop-color="#0e0e1c"/>
    </radialGradient>
    <radialGradient id="radial-gradient-40" cx="-539.49" cy="766.46" fx="-539.49" fy="766.46" r="7.64" gradientTransform="translate(2986.68 4185.48) scale(5.29 -5.29)" gradientUnits="userSpaceOnUse">
      <stop offset="0" stop-color="#f3d5ab"/>
      <stop offset="1" stop-color="#dc9b3f"/>
    </radialGradient>
    <radialGradient id="radial-gradient-41" cx="-341.86" cy="303.36" fx="-341.86" fy="303.36" r="3.38" gradientTransform="translate(931.52 854.7) scale(2.34 -2.34)" gradientUnits="userSpaceOnUse">
      <stop offset="0" stop-color="#f3d5ab"/>
      <stop offset="1" stop-color="#dc9b3f"/>
    </radialGradient>
    <radialGradient id="radial-gradient-42" cx="-597.9" cy="899.15" fx="-597.9" fy="899.15" r="12.18" gradientTransform="translate(5173.18 7729.12) scale(8.43 -8.43)" gradientUnits="userSpaceOnUse">
      <stop offset="0" stop-color="#f3d5ab"/>
      <stop offset="1" stop-color="#dc9b3f"/>
    </radialGradient>
    <radialGradient id="radial-gradient-43" cx="-598.34" cy="900.12" fx="-598.34" fy="900.12" r="12.23" gradientTransform="translate(5197.45 7768.46) scale(8.47 -8.47)" gradientUnits="userSpaceOnUse">
      <stop offset="0" stop-color="#f3d5ab"/>
      <stop offset="1" stop-color="#dc9b3f"/>
    </radialGradient>
    <radialGradient id="radial-gradient-44" cx="-578.77" cy="840.63" fx="-578.77" fy="840.63" r="9.69" gradientTransform="translate(3973.89 5785.44) scale(6.71 -6.71)" gradientUnits="userSpaceOnUse">
      <stop offset="0" stop-color="#343479"/>
      <stop offset="1" stop-color="#0e0e1c"/>
    </radialGradient>
    <radialGradient id="radial-gradient-45" cx="-570.32" cy="824.54" fx="-570.32" fy="824.54" r="9.18" gradientTransform="translate(3728.04 5386.99) scale(6.36 -6.36)" gradientUnits="userSpaceOnUse">
      <stop offset="0" stop-color="#343479"/>
      <stop offset="1" stop-color="#0e0e1c"/>
    </radialGradient>
    <radialGradient id="radial-gradient-46" cx="-566.88" cy="840.81" fx="-566.88" fy="840.81" r="9.69" gradientTransform="translate(3976.89 5790.31) scale(6.71 -6.71)" gradientUnits="userSpaceOnUse">
      <stop offset="0" stop-color="#343479"/>
      <stop offset="1" stop-color="#0e0e1c"/>
    </radialGradient>
    <radialGradient id="radial-gradient-47" cx="-561.31" cy="824.14" fx="-561.31" fy="824.14" r="9.17" gradientTransform="translate(3722.63 5378.23) scale(6.35 -6.35)" gradientUnits="userSpaceOnUse">
      <stop offset="0" stop-color="#343479"/>
      <stop offset="1" stop-color="#0e0e1c"/>
    </radialGradient>
    <radialGradient id="radial-gradient-48" cx="-313.42" cy="218.42" fx="-313.42" fy="218.42" r="3.02" gradientTransform="translate(758.75 574.69) scale(2.09 -2.09)" gradientUnits="userSpaceOnUse">
      <stop offset="0" stop-color="#f3d5ab"/>
      <stop offset="1" stop-color="#dc9b3f"/>
    </radialGradient>
    <radialGradient id="radial-gradient-49" cx="-335.52" cy="271.09" fx="-335.52" fy="271.09" r="3.2" gradientTransform="translate(848.22 719.71) scale(2.22 -2.22)" gradientUnits="userSpaceOnUse">
      <stop offset="0" stop-color="#f3d5ab"/>
      <stop offset="1" stop-color="#dc9b3f"/>
    </radialGradient>
    <radialGradient id="radial-gradient-50" cx="-325.11" cy="253.64" fx="-325.11" fy="253.64" r="3.13" gradientTransform="translate(814.8 665.54) scale(2.17 -2.17)" gradientUnits="userSpaceOnUse">
      <stop offset="0" stop-color="#f3d5ab"/>
      <stop offset="1" stop-color="#dc9b3f"/>
    </radialGradient>
    <radialGradient id="radial-gradient-51" cx="-345.51" cy="301.74" fx="-345.51" fy="301.74" r="3.32" gradientTransform="translate(902.73 808.04) scale(2.3 -2.3)" gradientUnits="userSpaceOnUse">
      <stop offset="0" stop-color="#f3d5ab"/>
      <stop offset="1" stop-color="#dc9b3f"/>
    </radialGradient>
    <radialGradient id="radial-gradient-52" cx="-288.73" cy="155.06" fx="-288.73" fy="155.06" r="2.82" gradientTransform="translate(661.87 417.68) scale(1.95 -1.95)" gradientUnits="userSpaceOnUse">
      <stop offset="0" stop-color="#f3d5ab"/>
      <stop offset="1" stop-color="#dc9b3f"/>
    </radialGradient>
    <radialGradient id="radial-gradient-53" cx="-309.25" cy="204.08" fx="-309.25" fy="204.08" r="2.97" gradientTransform="translate(733.71 534.12) scale(2.05 -2.05)" gradientUnits="userSpaceOnUse">
      <stop offset="0" stop-color="#f3d5ab"/>
      <stop offset="1" stop-color="#dc9b3f"/>
    </radialGradient>
    <radialGradient id="radial-gradient-54" cx="-312.2" cy="216.53" fx="-312.2" fy="216.53" r="3" gradientTransform="translate(752.01 563.77) scale(2.08 -2.08)" gradientUnits="userSpaceOnUse">
      <stop offset="0" stop-color="#f3d5ab"/>
      <stop offset="1" stop-color="#dc9b3f"/>
    </radialGradient>
    <radialGradient id="radial-gradient-55" cx="-334.93" cy="270.2" fx="-334.93" fy="270.2" r="3.19" gradientTransform="translate(842.61 710.61) scale(2.21 -2.21)" gradientUnits="userSpaceOnUse">
      <stop offset="0" stop-color="#f3d5ab"/>
      <stop offset="1" stop-color="#dc9b3f"/>
    </radialGradient>
    <radialGradient id="radial-gradient-56" cx="-331.25" cy="253.71" fx="-331.25" fy="253.71" r="3.13" gradientTransform="translate(811.4 660.03) scale(2.17 -2.17)" gradientUnits="userSpaceOnUse">
      <stop offset="0" stop-color="#f3d5ab"/>
      <stop offset="1" stop-color="#dc9b3f"/>
    </radialGradient>
    <radialGradient id="radial-gradient-57" cx="-347.38" cy="292.19" fx="-347.38" fy="292.19" r="3.27" gradientTransform="translate(880.58 772.15) scale(2.27 -2.27)" gradientUnits="userSpaceOnUse">
      <stop offset="0" stop-color="#f3d5ab"/>
      <stop offset="1" stop-color="#dc9b3f"/>
    </radialGradient>
    <radialGradient id="radial-gradient-58" cx="-341.31" cy="285.49" fx="-341.31" fy="285.49" r="3.24" gradientTransform="translate(865.67 747.97) scale(2.24 -2.24)" gradientUnits="userSpaceOnUse">
      <stop offset="0" stop-color="#f3d5ab"/>
      <stop offset="1" stop-color="#dc9b3f"/>
    </radialGradient>
    <radialGradient id="radial-gradient-59" cx="-360.43" cy="330.99" fx="-360.43" fy="330.99" r="3.42" gradientTransform="translate(954.76 892.37) scale(2.37 -2.37)" gradientUnits="userSpaceOnUse">
      <stop offset="0" stop-color="#f3d5ab"/>
      <stop offset="1" stop-color="#dc9b3f"/>
    </radialGradient>
    <radialGradient id="radial-gradient-60" cx="-312.45" cy="207.85" fx="-312.45" fy="207.85" r="2.96" gradientTransform="translate(731.71 530.87) scale(2.05 -2.05)" gradientUnits="userSpaceOnUse">
      <stop offset="0" stop-color="#f3d5ab"/>
      <stop offset="1" stop-color="#dc9b3f"/>
    </radialGradient>
    <radialGradient id="radial-gradient-61" cx="-336.82" cy="266.21" fx="-336.82" fy="266.21" r="3.16" gradientTransform="translate(828.18 687.22) scale(2.19 -2.19)" gradientUnits="userSpaceOnUse">
      <stop offset="0" stop-color="#f3d5ab"/>
      <stop offset="1" stop-color="#dc9b3f"/>
    </radialGradient>
    <radialGradient id="radial-gradient-62" cx="-326.09" cy="245.74" fx="-326.09" fy="245.74" r="3.09" gradientTransform="translate(791.82 628.3) scale(2.14 -2.14)" gradientUnits="userSpaceOnUse">
      <stop offset="0" stop-color="#f3d5ab"/>
      <stop offset="1" stop-color="#dc9b3f"/>
    </radialGradient>
    <radialGradient id="radial-gradient-63" cx="-345.36" cy="291.74" fx="-345.36" fy="291.74" r="3.26" gradientTransform="translate(873.77 761.11) scale(2.26 -2.26)" gradientUnits="userSpaceOnUse">
      <stop offset="0" stop-color="#f3d5ab"/>
      <stop offset="1" stop-color="#dc9b3f"/>
    </radialGradient>
    <radialGradient id="radial-gradient-64" cx="-286.89" cy="220.14" fx="-286.89" fy="220.14" r="3.02" gradientTransform="translate(761.52 579.18) scale(2.09 -2.09)" gradientUnits="userSpaceOnUse">
      <stop offset="0" stop-color="#f3d5ab"/>
      <stop offset="1" stop-color="#dc9b3f"/>
    </radialGradient>
    <radialGradient id="radial-gradient-65" cx="-312.36" cy="276.83" fx="-312.36" fy="276.83" r="3.22" gradientTransform="translate(858.46 736.29) scale(2.23 -2.23)" gradientUnits="userSpaceOnUse">
      <stop offset="0" stop-color="#f3d5ab"/>
      <stop offset="1" stop-color="#dc9b3f"/>
    </radialGradient>
    <radialGradient id="radial-gradient-66" cx="-303.84" cy="253.64" fx="-303.84" fy="253.64" r="3.13" gradientTransform="translate(814.8 665.54) scale(2.17 -2.17)" gradientUnits="userSpaceOnUse">
      <stop offset="0" stop-color="#f3d5ab"/>
      <stop offset="1" stop-color="#dc9b3f"/>
    </radialGradient>
    <radialGradient id="radial-gradient-67" cx="-326.95" cy="305.38" fx="-326.95" fy="305.38" r="3.33" gradientTransform="translate(909.71 819.36) scale(2.31 -2.31)" gradientUnits="userSpaceOnUse">
      <stop offset="0" stop-color="#f3d5ab"/>
      <stop offset="1" stop-color="#dc9b3f"/>
    </radialGradient>
    <radialGradient id="radial-gradient-68" cx="-253.17" cy="152.69" fx="-253.17" fy="152.69" r="2.81" gradientTransform="translate(658.57 412.33) scale(1.95 -1.95)" gradientUnits="userSpaceOnUse">
      <stop offset="0" stop-color="#f3d5ab"/>
      <stop offset="1" stop-color="#dc9b3f"/>
    </radialGradient>
    <radialGradient id="radial-gradient-69" cx="-282.57" cy="217.46" fx="-282.57" fy="217.46" r="3.01" gradientTransform="translate(754.88 568.42) scale(2.08 -2.08)" gradientUnits="userSpaceOnUse">
      <stop offset="0" stop-color="#f3d5ab"/>
      <stop offset="1" stop-color="#dc9b3f"/>
    </radialGradient>
    <radialGradient id="radial-gradient-70" cx="-283.14" cy="215.54" fx="-283.14" fy="215.54" r="3" gradientTransform="translate(750.43 561.21) scale(2.08 -2.08)" gradientUnits="userSpaceOnUse">
      <stop offset="0" stop-color="#f3d5ab"/>
      <stop offset="1" stop-color="#dc9b3f"/>
    </radialGradient>
    <radialGradient id="radial-gradient-71" cx="-306.14" cy="266.38" fx="-306.14" fy="266.38" r="3.18" gradientTransform="translate(835.67 699.35) scale(2.2 -2.2)" gradientUnits="userSpaceOnUse">
      <stop offset="0" stop-color="#f3d5ab"/>
      <stop offset="1" stop-color="#dc9b3f"/>
    </radialGradient>
    <radialGradient id="radial-gradient-72" cx="-296.25" cy="254.32" fx="-296.25" fy="254.32" r="3.13" gradientTransform="translate(812.45 661.73) scale(2.17 -2.17)" gradientUnits="userSpaceOnUse">
      <stop offset="0" stop-color="#f3d5ab"/>
      <stop offset="1" stop-color="#dc9b3f"/>
    </radialGradient>
    <radialGradient id="radial-gradient-73" cx="-313.5" cy="291.86" fx="-313.5" fy="291.86" r="3.27" gradientTransform="translate(880.17 771.48) scale(2.26 -2.26)" gradientUnits="userSpaceOnUse">
      <stop offset="0" stop-color="#f3d5ab"/>
      <stop offset="1" stop-color="#dc9b3f"/>
    </radialGradient>
    <radialGradient id="radial-gradient-74" cx="-310.97" cy="282.18" fx="-310.97" fy="282.18" r="3.23" gradientTransform="translate(859.56 738.09) scale(2.24 -2.24)" gradientUnits="userSpaceOnUse">
      <stop offset="0" stop-color="#f3d5ab"/>
      <stop offset="1" stop-color="#dc9b3f"/>
    </radialGradient>
    <radialGradient id="radial-gradient-75" cx="-331.33" cy="326.95" fx="-331.33" fy="326.95" r="3.41" gradientTransform="translate(946.4 878.82) scale(2.36 -2.36)" gradientUnits="userSpaceOnUse">
      <stop offset="0" stop-color="#f3d5ab"/>
      <stop offset="1" stop-color="#dc9b3f"/>
    </radialGradient>
    <radialGradient id="radial-gradient-76" cx="-271.74" cy="207.12" fx="-271.74" fy="207.12" r="2.96" gradientTransform="translate(730.58 529.05) scale(2.05 -2.05)" gradientUnits="userSpaceOnUse">
      <stop offset="0" stop-color="#f3d5ab"/>
      <stop offset="1" stop-color="#dc9b3f"/>
    </radialGradient>
    <radialGradient id="radial-gradient-77" cx="-299.45" cy="267.14" fx="-299.45" fy="267.14" r="3.17" gradientTransform="translate(830.09 690.32) scale(2.19 -2.19)" gradientUnits="userSpaceOnUse">
      <stop offset="0" stop-color="#f3d5ab"/>
      <stop offset="1" stop-color="#dc9b3f"/>
    </radialGradient>
    <radialGradient id="radial-gradient-78" cx="-290.24" cy="244.02" fx="-290.24" fy="244.02" r="3.08" gradientTransform="translate(788.91 623.58) scale(2.13 -2.13)" gradientUnits="userSpaceOnUse">
      <stop offset="0" stop-color="#f3d5ab"/>
      <stop offset="1" stop-color="#dc9b3f"/>
    </radialGradient>
    <radialGradient id="radial-gradient-79" cx="-313.69" cy="295.3" fx="-313.69" fy="295.3" r="3.27" gradientTransform="translate(880.41 771.88) scale(2.26 -2.26)" gradientUnits="userSpaceOnUse">
      <stop offset="0" stop-color="#f3d5ab"/>
      <stop offset="1" stop-color="#dc9b3f"/>
    </radialGradient>
    <radialGradient id="radial-gradient-80" cx="-50.91" cy="-392.41" fx="-50.91" fy="-392.41" r="1.81" gradientTransform="translate(175.07 -371.26) scale(1.25 -1.25)" gradientUnits="userSpaceOnUse">
      <stop offset="0" stop-color="#f3d5ab"/>
      <stop offset="1" stop-color="#dc9b3f"/>
    </radialGradient>
    <radialGradient id="radial-gradient-81" cx="-137.73" cy="-187.72" fx="-137.73" fy="-187.72" r="2.09" gradientTransform="translate(310.57 -151.66) scale(1.45 -1.45)" gradientUnits="userSpaceOnUse">
      <stop offset="0" stop-color="#f3d5ab"/>
      <stop offset="1" stop-color="#dc9b3f"/>
    </radialGradient>
    <radialGradient id="radial-gradient-82" cx="-49.29" cy="-388.93" fx="-49.29" fy="-388.93" r="1.81" gradientTransform="translate(177.45 -367.41) scale(1.25 -1.25)" gradientUnits="userSpaceOnUse">
      <stop offset="0" stop-color="#f3d5ab"/>
      <stop offset="1" stop-color="#dc9b3f"/>
    </radialGradient>
    <radialGradient id="radial-gradient-83" cx="-146.82" cy="-160.12" fx="-146.82" fy="-160.12" r="2.13" gradientTransform="translate(332.59 -115.98) scale(1.48 -1.48)" gradientUnits="userSpaceOnUse">
      <stop offset="0" stop-color="#f3d5ab"/>
      <stop offset="1" stop-color="#dc9b3f"/>
    </radialGradient>
    <radialGradient id="radial-gradient-84" cx="-44.69" cy="-391.93" fx="-44.69" fy="-391.93" r="1.81" gradientTransform="translate(176.15 -369.51) scale(1.25 -1.25)" gradientUnits="userSpaceOnUse">
      <stop offset="0" stop-color="#f3d5ab"/>
      <stop offset="1" stop-color="#dc9b3f"/>
    </radialGradient>
    <radialGradient id="radial-gradient-85" cx="-141.13" cy="-166.51" fx="-141.13" fy="-166.51" r="2.12" gradientTransform="translate(327.93 -123.53) scale(1.47 -1.47)" gradientUnits="userSpaceOnUse">
      <stop offset="0" stop-color="#f3d5ab"/>
      <stop offset="1" stop-color="#dc9b3f"/>
    </radialGradient>
    <radialGradient id="radial-gradient-86" cx="-41.65" cy="-390.79" fx="-41.65" fy="-390.79" r="1.81" gradientTransform="translate(177.06 -368.05) scale(1.25 -1.25)" gradientUnits="userSpaceOnUse">
      <stop offset="0" stop-color="#f3d5ab"/>
      <stop offset="1" stop-color="#dc9b3f"/>
    </radialGradient>
    <radialGradient id="radial-gradient-87" cx="-128.03" cy="-190.85" fx="-128.03" fy="-190.85" r="2.09" gradientTransform="translate(309.49 -153.42) scale(1.44 -1.44)" gradientUnits="userSpaceOnUse">
      <stop offset="0" stop-color="#f3d5ab"/>
      <stop offset="1" stop-color="#dc9b3f"/>
    </radialGradient>
    <radialGradient id="radial-gradient-88" cx="-40.71" cy="-384.33" fx="-40.71" fy="-384.33" r="1.82" gradientTransform="translate(180.97 -361.7) scale(1.26 -1.26)" gradientUnits="userSpaceOnUse">
      <stop offset="0" stop-color="#f3d5ab"/>
      <stop offset="1" stop-color="#dc9b3f"/>
    </radialGradient>
    <radialGradient id="radial-gradient-89" cx="-127.87" cy="-182.99" fx="-127.87" fy="-182.99" r="2.1" gradientTransform="translate(315.67 -143.4) scale(1.45 -1.45)" gradientUnits="userSpaceOnUse">
      <stop offset="0" stop-color="#f3d5ab"/>
      <stop offset="1" stop-color="#dc9b3f"/>
    </radialGradient>
    <radialGradient id="radial-gradient-90" cx="-18.63" cy="-390.17" fx="-18.63" fy="-390.17" r="1.81" gradientTransform="translate(176.36 -369.18) scale(1.25 -1.25)" gradientUnits="userSpaceOnUse">
      <stop offset="0" stop-color="#f3d5ab"/>
      <stop offset="1" stop-color="#dc9b3f"/>
    </radialGradient>
    <radialGradient id="radial-gradient-91" cx="-116.44" cy="-170.61" fx="-116.44" fy="-170.61" r="2.12" gradientTransform="translate(323.83 -130.17) scale(1.47 -1.47)" gradientUnits="userSpaceOnUse">
      <stop offset="0" stop-color="#f3d5ab"/>
      <stop offset="1" stop-color="#dc9b3f"/>
    </radialGradient>
    <radialGradient id="radial-gradient-92" cx="-24.55" cy="-385.08" fx="-24.55" fy="-385.08" r="1.82" gradientTransform="translate(179.68 -363.8) scale(1.26 -1.26)" gradientUnits="userSpaceOnUse">
      <stop offset="0" stop-color="#f3d5ab"/>
      <stop offset="1" stop-color="#dc9b3f"/>
    </radialGradient>
    <radialGradient id="radial-gradient-93" cx="-120.51" cy="-169" fx="-120.51" fy="-169" r="2.12" gradientTransform="translate(325.4 -127.63) scale(1.47 -1.47)" gradientUnits="userSpaceOnUse">
      <stop offset="0" stop-color="#f3d5ab"/>
      <stop offset="1" stop-color="#dc9b3f"/>
    </radialGradient>
    <radialGradient id="radial-gradient-94" cx="-27.26" cy="-387.86" fx="-27.26" fy="-387.86" r="1.81" gradientTransform="translate(178.5 -365.71) scale(1.26 -1.26)" gradientUnits="userSpaceOnUse">
      <stop offset="0" stop-color="#f3d5ab"/>
      <stop offset="1" stop-color="#dc9b3f"/>
    </radialGradient>
    <radialGradient id="radial-gradient-95" cx="-119.4" cy="-178.83" fx="-119.4" fy="-178.83" r="2.1" gradientTransform="translate(318.4 -138.98) scale(1.46 -1.46)" gradientUnits="userSpaceOnUse">
      <stop offset="0" stop-color="#f3d5ab"/>
      <stop offset="1" stop-color="#dc9b3f"/>
    </radialGradient>
    <radialGradient id="radial-gradient-96" cx="-31.03" cy="-388.2" fx="-31.03" fy="-388.2" r="1.81" gradientTransform="translate(178.55 -365.63) scale(1.26 -1.26)" gradientUnits="userSpaceOnUse">
      <stop offset="0" stop-color="#f3d5ab"/>
      <stop offset="1" stop-color="#dc9b3f"/>
    </radialGradient>
    <radialGradient id="radial-gradient-97" cx="-123.79" cy="-176.62" fx="-123.79" fy="-176.62" r="2.11" gradientTransform="translate(320.34 -135.83) scale(1.46 -1.46)" gradientUnits="userSpaceOnUse">
      <stop offset="0" stop-color="#f3d5ab"/>
      <stop offset="1" stop-color="#dc9b3f"/>
    </radialGradient>
    <radialGradient id="radial-gradient-98" cx="-36" cy="-385.91" fx="-36" fy="-385.91" r="1.82" gradientTransform="translate(180.06 -363.18) scale(1.26 -1.26)" gradientUnits="userSpaceOnUse">
      <stop offset="0" stop-color="#f3d5ab"/>
      <stop offset="1" stop-color="#dc9b3f"/>
    </radialGradient>
    <radialGradient id="radial-gradient-99" cx="-125.64" cy="-180.22" fx="-125.64" fy="-180.22" r="2.1" gradientTransform="translate(317.67 -140.15) scale(1.46 -1.46)" gradientUnits="userSpaceOnUse">
      <stop offset="0" stop-color="#f3d5ab"/>
      <stop offset="1" stop-color="#dc9b3f"/>
    </radialGradient>
    <radialGradient id="radial-gradient-100" cx="-576.79" cy="836.94" fx="-576.79" fy="836.94" r="9.83" gradientTransform="translate(4042.72 5897) scale(6.81 -6.81)" gradientUnits="userSpaceOnUse">
      <stop offset="0" stop-color="#f3d5ab"/>
      <stop offset="1" stop-color="#dc9b3f"/>
    </radialGradient>
    <radialGradient id="radial-gradient-101" cx="-536" cy="744.83" fx="-536" fy="744.83" r="7.46" gradientTransform="translate(2900.94 4046.52) scale(5.17 -5.17)" gradientUnits="userSpaceOnUse">
      <stop offset="0" stop-color="#343479"/>
      <stop offset="1" stop-color="#0e0e1c"/>
    </radialGradient>
    <radialGradient id="radial-gradient-102" cx="-519.78" cy="713.67" fx="-519.78" fy="713.67" r="6.89" gradientTransform="translate(2627.35 3603.11) scale(4.77 -4.77)" gradientUnits="userSpaceOnUse">
      <stop offset="0" stop-color="#343479"/>
      <stop offset="1" stop-color="#0e0e1c"/>
    </radialGradient>
    <radialGradient id="radial-gradient-103" cx="-1044.39" cy="2055.18" fx="-1044.39" fy="2055.18" r="3" gradientTransform="translate(-2155.57 -4117.72) rotate(179.66) scale(2.08 -2.08)" gradientUnits="userSpaceOnUse">
      <stop offset="0" stop-color="#f3d5ab"/>
      <stop offset="1" stop-color="#dc9b3f"/>
    </radialGradient>
    <radialGradient id="radial-gradient-104" cx="-1058.95" cy="2033.29" fx="-1058.95" fy="2033.29" r="3" gradientTransform="translate(-2155.57 -4117.72) rotate(179.66) scale(2.08 -2.08)" gradientUnits="userSpaceOnUse">
      <stop offset="0" stop-color="#f3d5ab"/>
      <stop offset="1" stop-color="#dc9b3f"/>
    </radialGradient>
    <radialGradient id="radial-gradient-105" cx="-988.99" cy="1837.4" fx="-988.99" fy="1837.4" r="3.8" gradientTransform="translate(-2545.76 -4741.44) rotate(179.66) scale(2.63 -2.63)" gradientUnits="userSpaceOnUse">
      <stop offset="0" stop-color="#f3d5ab"/>
      <stop offset="1" stop-color="#dc9b3f"/>
    </radialGradient>
    <radialGradient id="radial-gradient-106" cx="-1086.38" cy="2112.72" fx="-1086.38" fy="2112.72" r="2.73" gradientTransform="translate(-2025.6 -3909.54) rotate(179.66) scale(1.89 -1.89)" gradientUnits="userSpaceOnUse">
      <stop offset="0" stop-color="#f3d5ab"/>
      <stop offset="1" stop-color="#dc9b3f"/>
    </radialGradient>
    <radialGradient id="radial-gradient-107" cx="-1075.32" cy="2011.42" fx="-1075.32" fy="2011.42" r="3" gradientTransform="translate(-2155.57 -4117.72) rotate(179.66) scale(2.08 -2.08)" gradientUnits="userSpaceOnUse">
      <stop offset="0" stop-color="#f3d5ab"/>
      <stop offset="1" stop-color="#dc9b3f"/>
    </radialGradient>
    <radialGradient id="radial-gradient-108" cx="-1104.94" cy="2013.68" fx="-1104.94" fy="2013.68" r="3" gradientTransform="translate(-2155.57 -4117.72) rotate(179.66) scale(2.08 -2.08)" gradientUnits="userSpaceOnUse">
      <stop offset="0" stop-color="#f3d5ab"/>
      <stop offset="1" stop-color="#dc9b3f"/>
    </radialGradient>
    <radialGradient id="radial-gradient-109" cx="-1153.7" cy="2117.97" fx="-1153.7" fy="2117.97" r="2.73" gradientTransform="translate(-2025.6 -3909.54) rotate(179.66) scale(1.89 -1.89)" gradientUnits="userSpaceOnUse">
      <stop offset="0" stop-color="#f3d5ab"/>
      <stop offset="1" stop-color="#dc9b3f"/>
    </radialGradient>
    <radialGradient id="radial-gradient-110" cx="-1122.71" cy="2020.93" fx="-1122.71" fy="2020.93" r="3" gradientTransform="translate(-2155.57 -4117.72) rotate(179.66) scale(2.08 -2.08)" gradientUnits="userSpaceOnUse">
      <stop offset="0" stop-color="#f3d5ab"/>
      <stop offset="1" stop-color="#dc9b3f"/>
    </radialGradient>
    <radialGradient id="radial-gradient-111" cx="-1127.28" cy="2038.9" fx="-1127.28" fy="2038.9" r="3" gradientTransform="translate(-2155.57 -4117.72) rotate(179.66) scale(2.08 -2.08)" gradientUnits="userSpaceOnUse">
      <stop offset="0" stop-color="#f3d5ab"/>
      <stop offset="1" stop-color="#dc9b3f"/>
    </radialGradient>
    <radialGradient id="radial-gradient-112" cx="-1134.64" cy="2047.91" fx="-1134.64" fy="2047.91" r="3" gradientTransform="translate(-2155.57 -4117.72) rotate(179.66) scale(2.08 -2.08)" gradientUnits="userSpaceOnUse">
      <stop offset="0" stop-color="#f3d5ab"/>
      <stop offset="1" stop-color="#dc9b3f"/>
    </radialGradient>
    <radialGradient id="radial-gradient-113" cx="-1163.81" cy="2143.78" fx="-1163.81" fy="2143.78" r="2.73" gradientTransform="translate(-2025.6 -3909.54) rotate(179.66) scale(1.89 -1.89)" gradientUnits="userSpaceOnUse">
      <stop offset="0" stop-color="#f3d5ab"/>
      <stop offset="1" stop-color="#dc9b3f"/>
    </radialGradient>
    <radialGradient id="radial-gradient-114" cx="-1172.15" cy="2157.25" fx="-1172.15" fy="2157.25" r="2.73" gradientTransform="translate(-2025.6 -3909.54) rotate(179.66) scale(1.89 -1.89)" gradientUnits="userSpaceOnUse">
      <stop offset="0" stop-color="#f3d5ab"/>
      <stop offset="1" stop-color="#dc9b3f"/>
    </radialGradient>
  </defs>
  <path class="cls-1" d="M132.23,22.99c-58.09,0-105.2,47.25-105.2,105.33s47.11,105.21,105.2,105.21,105.34-47.11,105.34-105.21S190.32,22.99,132.23,22.99Z"/>
  <path class="cls-117" d="M132.23,22.99c-58.09,0-105.2,47.25-105.2,105.33s47.11,105.21,105.2,105.21,105.34-47.11,105.34-105.21S190.32,22.99,132.23,22.99Z"/>
  <path class="cls-115" d="M89.01,125.12v55.55h85.66v-55.55h-85.66Z"/>
  <path class="cls-114" d="M118.47,148.98c-4.5,2.79,3.2,14.18.27,19.17-2.93,4.99-9.68,4.63-17.83,10.79-8.15,6.16-24.84,21.56-31.05,26.19s-7.88-.67-6.21,1.62c1.66,2.29,9.36,8.18,16.2,12.14,6.84,3.96,12.37,9.41,24.83,11.61s36.46,3.33,49.96,1.62c13.5-1.71,22-6.56,31.05-11.87,9.04-5.31,22.82-13.92,23.22-19.99s-12.77-12.28-20.78-16.46c-8.01-4.18-20.17-6.21-27.28-8.64-7.11-2.43-12.37-3.2-15.39-5.94-3.01-2.75-2.74-7.56-2.7-10.53.05-2.97,7.02-5.67,2.97-7.29-4.05-1.62-22.77-5.22-27.27-2.43Z"/>
  <path class="cls-111" d="M132.11,12.83c7.71,0,15.39.8,23.02,2.41,11.64,2.28,22.75,6.42,33.06,12.32,10.04,5.76,19.15,12.71,27.05,21.15,8.02,8.29,14.71,17.79,19.81,28.24,5.08,10.57,8.83,21.95,10.43,33.59,1.21,6.03,1.6,11.91,1.6,17.79,0,12.05-1.87,24.1-5.48,35.48-3.62,10.97-8.97,21.54-15.67,31.04-6.69,9.38-14.73,17.94-23.96,25.03-9.09,6.97-19.4,12.71-30.24,16.74-11.25,4.14-23.29,6.42-35.07,6.95-1.65.08-3.29.11-4.92.11-10.6,0-20.99-1.49-31.07-4.39-11.25-3.21-22.09-8.31-31.86-14.87-9.5-6.28-18.2-14.18-25.43-23.02-7.36-8.83-13.12-18.86-17.54-29.58-4.55-11.11-7.22-22.75-8.17-34.66-1.07-12.05,0-24.23,2.82-36.14,2.67-11.38,7.22-22.22,13.25-32.25,5.9-9.91,13.39-18.74,21.95-26.51,8.43-7.61,18.2-14.05,28.78-18.86,10.84-5.08,22.36-8.17,34.27-9.77,4.47-.53,8.94-.8,13.39-.8ZM131.42,12.58c-10.53,0-20.91,1.4-30.9,4.26-11.38,3.21-22.34,8.04-32.11,14.46-9.79,6.29-18.61,14.19-26.1,23.02-7.63,9.11-13.66,19.15-18.08,29.99-4.55,11.23-7.36,22.88-8.43,34.93-.93,12.44,0,24.76,3.08,36.8,2.82,11.39,7.36,22.5,13.52,32.54,6.03,10.04,13.66,19.01,22.36,26.76,8.7,7.63,18.74,14.05,29.31,18.86,10.84,4.83,22.48,8.04,34.27,9.38,4.7.57,9.41.85,14.11.85,7.57,0,15.12-.76,22.56-2.33,11.5-2.41,22.75-6.42,33.18-12.04,10.18-5.76,19.54-12.85,27.71-21.29,8.17-8.29,14.99-18.06,20.22-28.63,5.35-10.71,9.09-22.09,10.97-33.73.93-5.84,1.34-11.8,1.34-17.75h0c.09-.05.14-.11.14-.19,0-12.18-1.87-24.23-5.62-35.73-3.76-11.25-9.11-21.96-15.94-31.47-6.83-9.63-15.12-17.92-24.21-25.02-9.38-6.97-19.68-12.71-30.67-16.74-11.38-4.14-23.29-6.56-35.46-6.83-1.75-.06-3.49-.11-5.24-.11Z"/>
  <path class="cls-116" d="M132.11,12.83c7.71,0,15.39.8,23.02,2.41,11.64,2.28,22.75,6.42,33.06,12.32,10.04,5.76,19.15,12.71,27.05,21.15,8.02,8.29,14.71,17.79,19.81,28.24,5.08,10.57,8.83,21.95,10.43,33.59,1.21,6.03,1.6,11.91,1.6,17.79,0,12.05-1.87,24.1-5.48,35.48-3.62,10.97-8.97,21.54-15.67,31.04-6.69,9.38-14.73,17.94-23.96,25.03-9.09,6.97-19.4,12.71-30.24,16.74-11.25,4.14-23.29,6.42-35.07,6.95-1.65.08-3.29.11-4.92.11-10.6,0-20.99-1.49-31.07-4.39-11.25-3.21-22.09-8.31-31.86-14.87-9.5-6.28-18.2-14.18-25.43-23.02-7.36-8.83-13.12-18.86-17.54-29.58-4.55-11.11-7.22-22.75-8.17-34.66-1.07-12.05,0-24.23,2.82-36.14,2.67-11.38,7.22-22.22,13.25-32.25,5.9-9.91,13.39-18.74,21.95-26.51,8.43-7.61,18.2-14.05,28.78-18.86,10.84-5.08,22.36-8.17,34.27-9.77,4.47-.53,8.94-.8,13.39-.8ZM131.42,12.58c-10.53,0-20.91,1.4-30.9,4.26-11.38,3.21-22.34,8.04-32.11,14.46-9.79,6.29-18.61,14.19-26.1,23.02-7.63,9.11-13.66,19.15-18.08,29.99-4.55,11.23-7.36,22.88-8.43,34.93-.93,12.44,0,24.76,3.08,36.8,2.82,11.39,7.36,22.5,13.52,32.54,6.03,10.04,13.66,19.01,22.36,26.76,8.7,7.63,18.74,14.05,29.31,18.86,10.84,4.83,22.48,8.04,34.27,9.38,4.7.57,9.41.85,14.11.85,7.57,0,15.12-.76,22.56-2.33,11.5-2.41,22.75-6.42,33.18-12.04,10.18-5.76,19.54-12.85,27.71-21.29,8.17-8.29,14.99-18.06,20.22-28.63,5.35-10.71,9.09-22.09,10.97-33.73.93-5.84,1.34-11.8,1.34-17.75h0c.09-.05.14-.11.14-.19,0-12.18-1.87-24.23-5.62-35.73-3.76-11.25-9.11-21.96-15.94-31.47-6.83-9.63-15.12-17.92-24.21-25.02-9.38-6.97-19.68-12.71-30.67-16.74-11.38-4.14-23.29-6.56-35.46-6.83-1.75-.06-3.49-.11-5.24-.11Z"/>
  <path class="cls-109" d="M80.86,66.7c-.28,0-.55.06-.82.2-1.34.66-1.34,2.67.27,3.21.17.06.35.09.52.09,1.43,0,2.27-2.34.94-3.3-.33-.14-.63-.2-.91-.2Z"/>
  <path class="cls-110" d="M187.31,59.89c-.16,0-.31.02-.47.05-1.87.41-1.46,3.49.27,3.49.8,0,1.34-.41,1.6-.8.72-1.21-.06-2.74-1.4-2.74Z"/>
  <path class="cls-108" d="M167.85,74.16c-1.43,0-2.27,2.36-.94,3.32.22.11.47.16.72.16.35,0,.71-.08,1.01-.16,1.34-.68,1.34-2.67-.27-3.21-.17-.08-.35-.11-.52-.11Z"/>
  <path class="cls-112" d="M186.84,110.27c-.66,0-1.2.27-1.46.8-.85,1.21-.06,2.74,1.27,2.74.14,0,.3-.02.46-.06,1.87-.53,1.6-3.48-.27-3.48Z"/>
  <path class="cls-113" d="M179.46,57.44c-1.54,0-2.38,2.34-1.05,3.3.24.13.49.16.74.16.35,0,.69-.08,1.01-.16,1.34-.66,1.34-2.67-.14-3.21-.19-.06-.38-.09-.55-.09Z"/>
  <path class="cls-83" d="M52.46,106.38c-.8,0-1.34.41-1.46.8-.72,1.21-.05,2.74,1.37,2.74.16,0,.33-.02.5-.05,1.73-.41,1.46-3.49-.41-3.49Z"/>
  <path class="cls-80" d="M38.11,114.39c-.35,0-.68.08-.91.16-1.34.68-1.34,2.67.27,3.21.19.08.36.11.53.11,1.43,0,2.27-2.36.94-3.32-.28-.11-.57-.16-.83-.16Z"/>
  <path class="cls-86" d="M52.82,92.68c-.16,0-.33.02-.49.06-1.87.39-1.48,3.48.27,3.48.93,0,1.34-.41,1.6-.8.71-1.32-.06-2.74-1.38-2.74Z"/>
  <path class="cls-88" d="M209.34,122.24c-.28,0-.55.08-.82.2-1.34.68-1.34,2.67.27,3.21.19.08.36.11.53.11,1.43,0,2.27-2.36.94-3.32-.33-.13-.63-.2-.93-.2Z"/>
  <path class="cls-89" d="M98.47,68.06c-.16,0-.31.02-.49.05-1.89.53-1.48,3.49.39,3.49.68,0,1.07-.28,1.48-.82.72-1.2.03-2.72-1.38-2.72Z"/>
  <path class="cls-85" d="M161.54,68.95c-1.54,0-2.38,2.45-.93,3.3.2.06.47.09.76.09s.58-.03.85-.09c1.34-.66,1.34-2.67-.14-3.21-.19-.06-.36-.09-.53-.09Z"/>
  <path class="cls-87" d="M76.02,59.94c-.8,0-1.34.27-1.46.8-.74,1.24,0,2.71,1.49,2.71.13,0,.25,0,.38-.02,1.75-.53,1.48-3.49-.41-3.49Z"/>
  <path class="cls-81" d="M205.82,83.87c-.3,0-.57.09-.77.3-1.34.68-1.34,2.67.14,3.21.19.08.36.11.53.11,1.54,0,2.39-2.47,1.07-3.32-.35-.2-.68-.3-.98-.3Z"/>
  <path class="cls-84" d="M66.12,74.93c-.8,0-1.07.41-1.48.8-.72,1.21-.03,2.74,1.38,2.74.16,0,.31-.02.49-.06,1.89-.39,1.48-3.48-.39-3.48Z"/>
  <path class="cls-82" d="M67.02,114.77c-.16,0-.33.02-.5.05-1.87.41-1.46,3.48.41,3.48.8,0,1.2-.39,1.48-.8.71-1.2.03-2.72-1.38-2.72Z"/>
  <path class="cls-13" d="M170.15,65.71c-.31,0-.61.11-.83.25-1.48.68-1.48,2.67.13,3.08.19.06.36.09.53.09,1.43,0,2.27-2.33.94-3.18-.24-.17-.52-.25-.77-.25Z"/>
  <path class="cls-15" d="M221.47,90.48c-.31,0-.6.11-.9.25-1.34.68-1.34,2.67.13,3.08.2.06.39.09.57.09,1.54,0,2.36-2.34,1.05-3.18-.31-.19-.58-.25-.85-.25Z"/>
  <path class="cls-27" d="M118.45,70.78c-.93,0-1.2.27-1.6.82-.72,1.2.08,2.72,1.42,2.72.14,0,.3-.02.46-.05,1.87-.53,1.48-3.49-.27-3.49Z"/>
  <path class="cls-25" d="M154.32,39.86c-.8,0-1.34.27-1.48.8-.74,1.24.02,2.71,1.51,2.71.11,0,.24,0,.38-.02,1.87-.53,1.46-3.49-.41-3.49Z"/>
  <path class="cls-14" d="M113.67,74.96c-1.45,0-2.3,2.47-.98,3.32.27.2.57.3.88.3s.6-.09.87-.3c1.34-.68,1.34-2.67-.27-3.21-.17-.08-.35-.11-.5-.11Z"/>
  <path class="cls-36" d="M44.39,159.74c-.16,0-.31.02-.49.06-1.75.53-1.48,3.48.39,3.48.8,0,1.34-.53,1.48-.8.72-1.21.03-2.74-1.38-2.74Z"/>
  <path class="cls-12" d="M46.44,150.6c-1.54,0-2.38,2.47-.93,3.3.28.11.52.16.74.16.28,0,.55-.08.87-.16,1.34-.66,1.34-2.67-.14-3.21-.19-.06-.36-.09-.53-.09Z"/>
  <path class="cls-10" d="M222.85,139.31c-.94,0-1.48.41-1.6.94-.76,1.23,0,2.71,1.49,2.71.11,0,.24-.02.38-.03,1.87-.53,1.46-3.62-.27-3.62Z"/>
  <path class="cls-26" d="M144.01,76.8c-.8,0-1.34.27-1.48.8-.83,1.21-.05,2.74,1.29,2.74.14,0,.3-.02.46-.06,1.87-.53,1.6-3.48-.27-3.48Z"/>
  <path class="cls-11" d="M55.23,123.75c-.13,0-.24.02-.36.03-1.87.53-1.6,3.48.27,3.48.68,0,1.21-.27,1.48-.8.87-1.23.02-2.71-1.38-2.71Z"/>
  <path class="cls-2" d="M207.55,115.57c-.16,0-.31.02-.49.05-1.87.53-1.48,3.48.27,3.48.93,0,1.46-.53,1.6-.8.72-1.2.03-2.72-1.38-2.72Z"/>
  <path class="cls-3" d="M195.87,94.14c-.14,0-.3.03-.46.06-1.87.53-1.6,3.48.27,3.48.66,0,1.2-.27,1.46-.8.72-1.2.05-2.74-1.27-2.74Z"/>
  <path class="cls-4" d="M46.97,126.33c-.8,0-1.2.53-1.46.8-.85,1.21-.06,2.74,1.27,2.74.14,0,.3-.02.46-.06,1.89-.53,1.6-3.48-.27-3.48Z"/>
  <path class="cls-5" d="M122.3,35c-1.18,0-2.41.31-3.32.85-1.73,1.07-2.14,2.94-2.8,4.81-.16.55.77.91,1.65.91.63,0,1.24-.19,1.42-.65.53-1.46.68-3.34,2.28-4.14.27,0,.39-.14.39-.14l.53.53c.27.41.27,1.07.41,1.75.27,1.87.27,3.74.27,5.35v19.54c0,.46.72.69,1.46.69.79,0,1.62-.27,1.62-.82.27-4.83.27-9.64,0-14.46v-6.7c0-2,.53-5.62-1.48-6.95-.69-.39-1.56-.58-2.44-.58Z"/>
  <path class="cls-24" d="M129.62,39.67s.03.02.08.03h-.02c-.06,0-.09-.03-.06-.03ZM128.64,38.1c-.22,0-.46,0-.69.03-2.82.39-4.69,2.41-4.69,5.22-.08.77,1.18,1.21,2.08,1.21.49,0,.88-.13.88-.41,0-.94.39-2.16,1.07-2.96.27-.39.66-.8,1.2-1.07.14-.13.41-.13.68-.27.09,0,.42,0,.63-.11h0s.11.06.17.11c.13.14.27.41.53.68.27.39.39,1.07.66,1.6.27,1.34.41,2.67.41,4.01.27,5.88-.14,11.78-.14,17.54,0,.68,1.27,1.15,2.17,1.15.52,0,.91-.14.91-.49,0-3.74.13-7.49.13-11.38,0-3.35.27-6.83-.53-10.16-.27-1.35-.8-2.82-2-3.62-1.02-.79-2.22-1.1-3.46-1.1Z"/>
  <path class="cls-23" d="M137.01,38.48c-.25,0-.52.02-.76.05-3.62.27-4.56,4.69-4.83,7.5,0,.53,1.43,1.02,2.39,1.02.44,0,.79-.11.82-.36.14-1.46.55-2.8.94-4.42.41-.66.53-1.34,1.07-1.73.14-.27.41-.53.8-.68.11-.2.49-.25.69-.33h0l.11.33c.14.27.41.68.41,1.07.13.68.13,1.34.13,2.01v13.12c0,2.27-.13,4.81,0,7.36.19,2.94,3.27,5,6.2,5,1.2,0,2.38-.35,3.3-1.13.55-.42-1.18-1.38-2.22-1.38-.25,0-.46.06-.58.19-.47.46-1.45.82-2.12.82-.11,0-.2,0-.3-.02-.66-.14-.93-1.34-1.07-1.87-.39-.94-.27-2.14-.27-3.08v-17.67c0-1.34,0-2.67-.8-3.74-.8-1.38-2.39-2.06-3.92-2.06Z"/>
  <path class="cls-8" d="M143.35,44.93c-.94,0-1.98.31-2.55,1.1-1.34,1.34-1.87,3.6-2.01,5.48,0,.28.5.41,1.12.41.9,0,2.01-.3,2.09-.94.14-.93.27-1.87.68-2.67.05-.2.09-.38.16-.55h0c.13.35.22.72.38,1.09.27,1.48,0,2.94-.41,4.3-.66,2.41-1.46,4.94-2.67,7.08-1.2,2.01-2.67,3.62-4.67,4.96-.55.41-.55.68.13.94.14.03.3.05.49.05.53,0,1.21-.16,1.53-.46,1.87-1.34,3.48-2.8,4.94-4.81,1.34-2.01,2.01-4.15,2.82-6.29.8-2.67,1.6-5.35.27-8.17-.27-.8-.8-1.34-1.75-1.46-.16-.03-.35-.03-.52-.03Z"/>
  <path class="cls-9" d="M161.94,177.49c-1.04,0-1.92.28-2.53.91-4.01,3.71,8.81,10.81,14.93,10.81,2.05,0,3.35-.8,3.01-2.77-1.34-2.45-10.31-8.95-15.4-8.95Z"/>
  <path class="cls-6" d="M162.22,177.82c1.43,0,3.01.68,4.28,1.26,2.28.93,4.42,2.27,6.29,3.74,1.34,1.07,2.82,2,3.48,3.62.05.02.11.05.17.06h0c.09,1.75-1.32,2.34-2.8,2.34-.42,0-.85-.05-1.26-.14-2.94-.53-6.01-1.87-8.7-3.48-1.6-1.07-4.81-3.08-4.55-5.35.27-1.21,1.34-1.87,2.41-2.01.22-.03.44-.05.68-.05ZM161.21,176.98c-1.23,0-2.47.47-3.01,1.56-1.34,2.27,2,4.94,3.74,6.15,2.94,2.14,6.42,3.62,10.04,4.55.72.17,1.67.31,2.58.31,1.92,0,3.76-.63,3.35-2.94h0s.03-.09-.05-.17h0c0-.08-.05-.14-.13-.2h0c-.82-1.26-2.2-2.41-3.35-3.41-2.01-1.48-4.01-2.82-6.15-3.74-2.01-1.07-4.01-1.87-6.17-2.01-.28-.05-.57-.08-.87-.08Z"/>
  <path class="cls-7" d="M132.23,98.77c-15.51,0-28.24,13.08-28.24,29.3s12.73,29.3,28.24,29.3,28.38-13.08,28.38-29.3-12.71-29.3-28.38-29.3Z"/>
  <path class="cls-28" d="M132.28,102.47c1.83,0,3.63.19,5.44.58,11.11,2.41,19.95,11.5,21.68,22.61.14,1.48.27,2.82.27,4.3,0,11.38-7.36,21.68-17.8,25.69-3.04,1.05-6.18,1.57-9.3,1.57-8.29,0-16.41-3.62-21.76-10.15-7.1-8.7-8.17-21.41-2.27-31.18,5.05-8.31,14.25-13.42,23.73-13.42ZM132.23,101.98c-8.48,0-16.87,3.52-22.48,9.9-7.9,9.11-9.09,22.62-2.53,32.79,5.43,8.56,14.84,13.33,24.62,13.33,2,0,4.01-.19,6.03-.61,11.5-2.14,20.88-11.11,22.88-22.88.25-1.4.27-2.8.27-4.3h0c.17-.06.27-.16.27-.25,0-12.05-8.02-22.5-19.4-26.37-3.13-1.09-6.39-1.6-9.64-1.6Z"/>
  <path class="cls-29" d="M125.37,142.92c-.41,0-.83.19-.77.41,1.62,2.94,4.69,4.42,7.9,4.42,2.96-.27,5.76-1.75,7.1-4.42.16-.14-.27-.25-.69-.25-.36,0-.72.08-.77.25-.94,2.28-3.35,3.74-5.76,3.89-2.55,0-4.96-1.6-6.29-3.89-.06-.28-.38-.41-.71-.41Z"/>
  <path class="cls-31" d="M135.74,86.12c-.97,0-1.94,0-3.02.1-.59.07-1.25.18-1.94.18-.32,0-.64-.02-.97-.09h-2.53c-2.14,0-4.38.3-6.41.49-2.05.39-4.29.87-6.23,1.65-2.03.79-3.99,1.86-5.74,3.22-5.35,4.39-8.35,8-10.5,15.01-1.36,4.1-3.2,8-6.31,10.92-2.82,2.63-7.01,2.73-10.22,4.67-5.35,3.22-7.49,10.53-7.19,16.97.09,1.56.19,3.31,0,4.87-.39,2.83-1.94,5.26-4.18,6.72-1.46.97-3.11,1.47-4.57,2.25-3.02,1.95-4.86,5.54-5.74,9.15-.48,2.25-.58,4.39-1.36,6.44-1.75,5.36-7.77,7.01-9.43,12.57-1.85,5.95-1.07,12.57,3.11,17.34,5.65,6.05,14.1,8.97,22.56,8.97s17.6-4.78,22.16-11.4c2.43-3.52,1.46-9.46,4.57-12.09,1.94-1.86,3.5-4.09,4.38-6.83,1.07-3.31.97-6.82.69-10.13-.19-2.63-1.07-5.46-.49-8.19,1.07-4.58,6.32-6.53,6.9-11.31.69-4.09-.97-8.28-1.55-12.28-.69-4.28,2.72-6.14,3.69-9.84,1.17-4.39.19-8.78,2.91-12.67,3.02-4.39,7.98-6.34,10.8-11.11.67-1.26,1.55-2.53,2.14-3.99.48,1.45,1.26,2.92,1.84,3.99,2.82,4.58,7.78,6.72,10.8,11.11,2.72,3.9,1.75,8.28,2.91,12.67,1.17,3.7,4.38,5.56,3.69,9.84-.58,4-2.23,8.19-1.55,12.28.58,4.78,5.84,6.72,6.9,11.31.58,2.73-.29,5.36-.48,8.19-.39,3.4-.39,6.92.67,10.13,1.17,3.41,3.69,5.85,5.26,8.87,1.36,2.83,1.26,4.88,3.3,7.61,5.61,7.07,18.04,11.87,29.03,11.87,9.76,0,18.38-3.78,20.07-13.14.39-2.04.48-4.38.09-6.92-.19-1.45-.29-2.92-.78-4.28-1.75-5.56-7.77-7.11-9.52-12.48-.69-2.14-.88-4.28-1.37-6.53-.78-3.61-2.62-7.31-5.63-9.06-1.46-.97-3.21-1.36-4.66-2.34-2.14-1.47-3.79-4-4.09-6.72-.29-1.56,0-3.12,0-4.87.19-6.53-1.84-13.75-7.19-16.97-3.3-1.95-7.39-2.14-10.21-4.67-3.21-2.92-5.15-6.82-6.32-10.92-2.33-6.92-5.26-10.52-10.61-14.9-.19-.19-.39-.39-.58-.49-1.55-1.26-3.3-2.14-5.14-2.83-1.95-.78-3.9-1.36-5.93-1.75-1.95-.39-3.99-.58-6.03-.58Z"/>
  <path class="cls-34" d="M127.74,102.67h0c-1.03,1.28-2.19,2.46-3.47,3.53-2.08,1.82-4.35,3.45-5.98,5.58h0c1.51-1.88,3.52-3.44,5.39-4.99,1.52-1.23,2.88-2.59,4.06-4.11ZM130,97.23c.13.38.26.74.4,1.11h0c-.73,1.56-1.62,3-2.66,4.33h0c1.05-1.28,1.97-2.68,2.73-4.17h0c1.12,2.75,2.88,5.06,5.07,7.01,2.33,2.05,5.06,3.9,7.01,6.44,2.14,3.01,2.03,6.72,2.53,10.23.19,1.56.58,3.22,1.36,4.67.58,1.17,1.46,2.25,2.05,3.51.67,1.37.97,2.63.87,4.1-.29,1.95-.87,3.9-1.26,5.75-.58,3.21-1.07,6.82.58,9.74,1.36,2.25,3.59,3.91,4.86,6.14,2.14,3.41.78,7.31.48,10.92-.29,3.7-.19,7.61,1.27,10.81,1.46,3.22,3.99,5.66,5.25,8.97.49,1.47.79,3.02,1.57,4.39.58,1.07,1.36,2.14,2.14,3.12,1.36,1.47,2.81,2.73,4.38,3.8,5.66,3.83,12.52,6.15,19.41,6.93h0c-5.89-.79-11.69-2.81-16.6-5.87-1.65-1.07-3.3-2.14-4.66-3.6-.69-.69-1.27-1.36-1.75-2.15-1.17-1.26-1.66-2.92-2.05-4.57-.48-1.47-1.06-2.93-1.84-4.3-.88-1.36-1.85-2.62-2.73-3.99-2.03-3.32-2.62-6.92-2.53-10.72.1-1.86.39-3.7.58-5.46.3-2.04.49-3.9-.09-5.75-.69-2.43-2.63-4.18-4.38-6.13-.88-.99-1.66-2.05-2.05-3.22-.58-1.66-.58-3.61-.48-5.27.09-1.84.58-3.7.97-5.45.39-1.66.87-3.41.67-5.06-.29-2.63-2.42-4.58-3.39-7.02-1.27-3.22-.79-6.82-1.66-10.14-1.55-6.43-8.37-8.76-11.96-13.93-.98-1.47-1.76-3.02-2.24-4.67-.1-.15-.34-.23-.58-.23-.13,0-.24.02-.34.06h0c.05-.1.1-.22.15-.32h-1.07ZM211.94,196.36h0c-3.43,6.48-11.4,8.78-18.34,8.95-.17,0-.33.01-.5.01-1.68,0-3.38-.1-5.07-.29h0c1.84.24,3.69.37,5.53.37.89,0,1.78-.02,2.67-.09,3.89-.39,7.87-1.36,11.08-3.6,1.99-1.37,3.58-3.22,4.64-5.35ZM136.04,85.61c-2.08,0-4.14.31-6.13.31-4.38,0-9.04.1-13.33,1.27-2.03.68-3.98,1.36-5.93,2.44-1.65.97-3.3,2.34-4.86,3.7-2.43,2.14-4.47,4.58-6.02,7.4-1.85,3.41-2.73,7.22-4.38,10.63-.88,1.84-2.14,3.4-3.41,4.87-1.46,1.56-3.21,2.53-5.25,3.31-1.85.58-3.7,1.08-5.35,2.05-1.46.68-2.72,1.75-3.79,3.02-2.14,2.62-3.41,6.04-3.89,9.54-.19,1.95-.19,3.8-.19,5.85.09,2.14.09,4.38-.78,6.43-.88,1.86-2.05,3.31-3.79,4.39-1.75,1.07-3.89,1.56-5.45,3.02-2.91,2.53-4.08,6.34-4.75,10.04-.3,2.05-.58,4.09-1.55,5.95-.69,1.45-1.85,2.53-3.02,3.61-2.33,2.23-4.87,4.18-5.84,7.31-1.26,3.51-1.36,7.6-.39,11.2,2.05,7.31,9.25,12.09,16.15,14.13,3.12.97,6.34,1.48,9.54,1.48,4.16,0,8.29-.84,12.14-2.54,3.3-1.47,6.32-3.41,8.85-5.95,1.26-1.27,2.33-2.44,3.01-4,.78-1.47,1.18-3.22,1.37-4.78.39-1.75.58-3.4,1.45-4.97.88-1.45,2.33-2.62,3.3-4.09,2.54-3.51,3.31-7.79,3.02-12.18-.09-2.44-.58-4.69-.87-7.02-.1-1.95.19-3.9,1.17-5.75,1.65-2.62,4.47-4.48,5.54-7.5,1.45-4.09-.21-8.67-.98-12.67-.39-1.84-.48-3.6.39-5.26.69-1.47,1.66-2.83,2.43-4.28,1.66-3.61.97-7.8,2.14-11.6.39-1.19.98-2.23,1.7-3.18h0c-.75.94-1.37,1.96-1.79,3.09-1.46,3.8-.58,7.98-2.14,11.7-1.27,2.92-3.79,5.06-3.31,8.67.58,4.19,2.43,8.67,1.46,12.87-.78,3.21-3.41,5.17-5.25,7.5-.97,1.26-1.66,2.73-1.85,4.39-.19,2.23.39,4.57.69,6.82.48,4.39.29,8.87-1.85,12.87-.97,1.86-2.24,3.02-3.5,4.48-.97,1.17-1.55,2.63-1.85,4.1-.39,1.56-.58,3.21-1.17,4.87-.49,1.66-1.27,3.02-2.43,4.39-4.57,5.45-11.96,9.26-19.16,9.74-.72.06-1.45.09-2.18.09-7.02,0-14.2-2.52-19.3-7.21-2.91-2.53-5.05-5.84-5.63-9.74-.58-3.41-.39-7.7,1.36-10.83,1.46-2.82,4.08-4.48,6.22-6.82,1.07-1.08,1.95-2.44,2.54-3.9.78-1.95.87-4.19,1.36-6.14.67-3.61,2.42-7.5,5.74-9.55,1.65-1.17,3.69-1.66,5.35-2.92,1.26-1.17,2.23-2.63,2.91-4.28.67-2.05.58-4.19.39-6.24-.1-1.86,0-3.61.29-5.45.49-3.41,1.75-6.92,3.99-9.65,1.27-1.37,2.72-2.44,4.38-3.13,1.75-.78,3.5-1.26,5.25-1.95,3.51-1.45,5.93-4.58,7.78-7.79,1.84-3.41,2.53-7.11,4.27-10.53,1.46-2.92,3.6-5.36,5.93-7.7,1.46-1.27,2.91-2.53,4.47-3.51,1.95-1.18,4.18-2.05,6.32-2.63,2.34-.69,4.67-.88,7.01-.97,1.06-.1,2.16-.1,3.26-.1s2.18,0,3.26-.09c1.41-.06,2.8-.11,4.21-.11,1.03,0,2.06.03,3.09.11,2.43.29,4.86.78,7.1,1.45,2.14.78,4.18,1.66,6.02,2.93,1.55.97,2.93,2.34,4.29,3.6,2.42,2.15,4.37,4.88,5.83,7.8,1.66,3.41,2.43,7.11,4.38,10.53.97,1.75,2.14,3.31,3.6,4.78,1.26,1.26,2.81,2.04,4.47,2.73,1.75.58,3.6,1.07,5.25,1.95,1.66.78,2.93,1.95,4.09,3.41,2.14,2.73,3.2,6.34,3.59,9.74.3,1.95.1,3.71.1,5.66-.1,2.14,0,4.09.87,6.04.69,1.56,1.85,3.02,3.31,4,1.65,1.17,3.69,1.66,5.35,2.92,3.11,2.34,4.56,6.34,5.25,10.14.29,1.95.58,4,1.27,5.84.67,1.27,1.65,2.53,2.72,3.61,2.14,2.25,4.77,3.9,6.02,6.83.88,1.84,1.27,3.99,1.36,6.13.19,2.05.19,4.19-.09,6.34,0,.02.01.03.05.05h0c-.25,1.29-.67,2.52-1.25,3.68h0c.26-.5.5-1.03.71-1.57,1.15-.39,1.54-1.34,1.65-2.3h0s.01-.02.01-.05h0c.39-2.14.39-4.38.19-6.53-.3-2.04-.49-4.18-1.46-5.93-1.36-2.93-4.18-4.78-6.32-7.02-1.17-1.08-1.94-2.25-2.62-3.7-.78-2.25-.97-4.58-1.46-6.83-.69-3.61-2.43-7.21-5.54-9.15-1.85-1.27-3.89-1.76-5.63-3.02-1.46-1.27-2.53-2.92-3.02-4.87-.58-2.25-.19-4.58-.19-6.83,0-1.86-.19-3.61-.49-5.36-.67-3.41-1.94-6.72-4.37-9.16-2.73-2.73-6.32-3.31-9.73-4.87-3.79-1.75-6.23-5.45-7.78-9.16-1.65-3.4-2.33-7.01-4.37-10.32-1.76-2.83-4.09-5.17-6.62-7.31-3.3-2.83-6.99-4.69-11.18-5.75-2.33-.58-4.57-.88-6.9-.97-.26-.01-.53-.02-.78-.02Z"/>
  <path class="cls-33" d="M124.66,92.85c-2.88,0-5.73.48-8.23,1.97-1.55.8-2.99,2-4.23,3.2-1.55,1.51-2.99,3.11-4.02,5.02-1.03,2-1.95,4.4-2.57,6.51-.93,2.6-1.24,5.51-2.58,8.01-2.26,4.41-6.28,7.62-10.92,9.52-3.91,1.6-7.11,4.3-8.75,8.11-1.96,4.6-1.33,9.71-2.88,14.22-.82,2.5-2.58,4.3-4.64,6-1.76,1.51-3.81,3-5.15,5-2.17,3.61-1.76,8.02-2.88,11.93-.73,2.1-1.96,4.1-3.81,5.4-1.76,1.4-3.91,2.4-5.87,3.71-1.96,1.2-3.61,2.8-4.53,5-1.03,2.2-1.45,4.71-1.55,7.11-.11,1.2-.11,2.4,0,3.6.21.2.59.31.93.31s.62-.11.62-.31c-.31-4.6.1-10.31,3.71-13.72,3.29-3.11,8.14-4.11,10.61-8.02,2.17-3.4,1.85-7.61,2.78-11.41.51-2.11,1.54-4.11,3.18-5.62,1.86-1.6,3.92-3,5.46-4.8,3.61-3.71,3.2-9.02,4.02-13.73.62-4.1,2.47-7.91,5.98-10.41,1.85-1.4,4.01-2,6.07-3.11,2.07-1.11,3.92-2.51,5.57-4.11,1.65-1.8,3.09-3.8,4.02-6.11,1.03-2.6,1.33-5.31,2.47-7.81.71-2,1.33-4.21,2.57-5.91,1.03-1.91,2.58-3.4,4.13-4.91,1.24-1.2,2.68-2.2,4.32-3,1.85-.91,3.91-1.2,5.76-1.2,1.34,0,2.78.09,4.02.2.16,0,.31.02.45.02.15,0,.28-.02.38-.13.11-.29,0-.29-.3-.29-1.37-.16-2.75-.27-4.13-.27Z"/>
  <path class="cls-35" d="M129.09,94.33c-3.61.6-7,2.1-9.78,4.51-2.88,2.2-5.05,5.2-6.59,8.51-.82,1.6-1.44,3.4-1.96,5.1-.62,2.01-1.03,4.01-1.65,5.91-.62,2.11-1.55,4.11-2.88,6.02-1.14,1.7-2.58,3-4.23,4.2-1.55,1.2-3.09,2.2-4.32,3.51-1.45,1.7-2.28,3.71-2.37,5.8-.11,2.51,0,5.11,0,7.62,0,1.3.1,2.5,0,3.8-.11,1.2-.62,2.11-1.55,3.11-2.57,2.9-5.87,5.51-7.31,9.11-1.54,4.11.73,8.01.73,12.11,0,4.91-3.81,7.71-6.9,10.93-1.34,1.4-2.47,2.9-3.4,4.5-.71,1.51-1.03,3.31-1.13,4.91-.11,1-.11,2-.11,3,0,.39.5.53.86.53.21,0,.38-.05.38-.13,0-1.9,0-3.8.52-5.5.41-1.81,1.24-3.31,2.36-4.82,2.58-3.4,6.6-5.8,8.25-9.61,1.65-4.11-.62-8.02-.62-12.33s2.78-7.21,5.67-10.11c1.33-1.4,3.18-2.91,3.61-4.91.21-1.09.1-2.31.1-3.51s0-2.6-.1-3.9c0-2.31-.31-5.02.51-7.31.62-1.91,2.06-3.41,3.61-4.62,1.54-1.2,3.09-2.2,4.43-3.4,1.54-1.4,2.77-3.11,3.6-5,1.85-3.61,2.37-7.62,3.81-11.53,2.37-6.8,7.22-13.02,14.53-15.32.92-.2,1.95-.51,2.77-.71.31,0,.21-.29,0-.4-.21-.09-.62-.09-.82-.09Z"/>
  <path class="cls-30" d="M137.58,92.7c-.29,0-.57,0-.86.02-1.24,0-2.58.09-3.81.2-.82.09-.62.49.1.49,1.09-.13,2.18-.2,3.27-.2,3.17,0,6.31.64,9,2.51,3.29,2.3,6.08,5.6,7.62,9.31.82,2.4,1.76,4.71,2.37,7.21.73,2.61,1.44,5.02,2.99,7.22,1.33,2,2.98,3.6,4.94,5s4.02,2.4,6.08,3.41c3.81,1.7,6.59,4.7,7.93,8.71,1.55,4.5.73,9.71,2.78,14.22,2.06,4.5,7.41,6.2,9.67,10.51,2.06,3.6,1.44,7.81,2.69,11.71.71,2,1.85,3.8,3.5,5.11,1.85,1.4,3.91,2.4,5.76,3.71,2.06,1.2,3.81,2.8,4.84,5,1.03,2.2,1.34,4.71,1.55,7.11.1,1.2.1,2.31,0,3.6.21,0,1.44,0,1.44-.4.21-4.5-.21-10.21-3.51-13.62-3.18-3.4-8.34-4.4-10.91-8.41-2.37-3.6-1.85-8.02-2.99-12.02-.62-2.11-1.85-3.8-3.5-5.31-1.96-1.8-4.13-3.2-5.67-5.2-3.29-4.11-2.58-9.62-3.71-14.53-.93-3.9-3.1-7.41-6.6-9.61-1.95-1.2-4.23-2.01-6.28-3.11-2.06-1.31-4.02-2.8-5.56-4.6-1.76-2.21-2.99-4.51-3.71-7.22-.82-2.6-1.44-5.11-2.48-7.71-.71-1.91-1.54-3.8-2.88-5.4-1.24-1.6-2.77-3.11-4.32-4.41-2.87-2.13-6.09-3.32-9.75-3.32Z"/>
  <path class="cls-91" d="M132.34,94.61c-.47,0-.51.42.05.52,3.72.8,7.11,2.3,9.89,4.8,2.78,2.4,4.84,5.51,6.19,8.71,1.74,3.71,2.26,7.71,3.6,11.33.73,1.9,1.55,3.7,2.88,5.5,1.14,1.51,2.58,2.71,4.13,3.71,1.54,1.2,3.18,2.2,4.32,3.71,1.55,1.8,1.96,4.11,2.06,6.51,0,2.51-.1,5-.1,7.51,0,1.09-.11,2.31.1,3.31.31,1,.93,1.8,1.55,2.5,2.57,2.91,6.18,5.51,7.31,9.42,1.33,4.11-1.14,8.02-.82,12.11.21,4.51,3.71,7.31,6.7,10.33,1.33,1.4,2.68,2.9,3.39,4.6.82,1.5,1.25,3.31,1.34,4.91.11,1,.11,2,.11,3-.08.29.62.48.99.48.15,0,.24-.04.24-.08,0-3.6-.41-7.02-2.58-10.11-2.58-3.61-6.9-5.91-8.45-10.02-1.65-4.31.93-8.42.73-12.72-.21-4.01-3.09-7.02-5.87-9.72-1.65-1.7-3.4-3.3-3.61-5.7-.1-2.51.21-5.11.21-7.71,0-2.31.11-4.82-.92-6.91-.82-1.71-2.17-3.01-3.72-4.11-1.54-1.11-3.29-2.11-4.63-3.51-1.55-1.51-2.58-3.4-3.51-5.4-1.65-3.71-2.16-7.91-3.71-11.73-2.78-6.71-7.62-12.42-14.83-14.52-.92-.31-1.85-.51-2.88-.71-.06-.01-.11-.01-.16-.01Z"/>
  <path class="cls-90" d="M100.34,113.75c-1.54,0-1.29,1.79-.9,3.08,1.34,3.48,3.21,4.96,8.7,5.76,0-4.15-3.62-8.43-7.63-8.84h-.17Z"/>
  <path class="cls-32" d="M100.8,113.95c.6,0,1.29.36,1.73.47.8.27,1.6.93,2.27,1.6,1.54,1.67,2.6,3.7,2.67,5.98h0c-1.57-.14-3.04-.44-4.28-1.29-1.2-.68-1.87-1.62-2.41-2.69-.27-.66-.66-1.34-.8-2.14-.13-.53-.27-1.46.41-1.87.13-.05.27-.06.41-.06ZM100.39,113.48c-.94,0-1.87.14-1.87,1.07s.13,1.87.53,2.67c.39,1.6,1.46,2.82,2.8,3.76,2.01,1.34,4.28,1.73,6.7,2,.05,0,.16,0,.24-.03h.02c.16,0,.28-.03.28-.09,0-4.69-4.03-9.11-8.7-9.38Z"/>
  <path class="cls-22" d="M107.97,112.36c-2.06,0-3.96.83-5.18,3.4,1.75,1.13,3.04,1.81,4.66,1.81.85,0,1.81-.19,2.97-.61,1.46-.53,3.6-1.34,4.94-2.53-2.17-.88-4.91-2.06-7.39-2.06Z"/>
  <path class="cls-16" d="M108.27,112.74c.25,0,.53.03.82.08,1.89.11,3.67.87,5.35,1.68h0c-.76.58-1.7,1.15-2.55,1.38-1.07.53-2,.94-3.21,1.21-.46.08-.93.16-1.42.16-.36,0-.72-.05-1.13-.16-.8-.24-1.53-.68-2.31-1.13h0c.85-1.92,2.39-3.23,4.45-3.23ZM108.41,111.87c-1.2,0-2.41,0-3.62.68-1.07.66-2.14,1.87-2.67,3.07-.06.14.33.41.76.55h0c1.57.94,3.18,1.81,4.99,1.81.31,0,.63-.03.96-.08,1.34-.14,2.53-.68,3.74-1.07,1.2-.53,2.53-1.07,3.48-2.01.14-.27-.27-.53-.27-.53-2.41-1.07-4.69-2.14-7.36-2.41Z"/>
  <path class="cls-17" d="M99.05,110.41c-4.96,1.87-3.76,7.22.39,9.5.53-1.35,1.6-2.28,1.75-3.62.53-2.55-.53-4.01-2.14-5.88Z"/>
  <path class="cls-19" d="M98.78,110.93c.82,1.07,1.62,2.25,1.73,3.62,0,.94-.13,1.87-.53,2.67-.19.66-.5,1.26-.82,1.83h0c-1.27-.96-2.42-2.49-2.53-4.09-.11-1.7.65-3.19,2.16-4.03ZM98.51,109.88c-2.01.8-3.76,2.53-3.49,4.94.27,2.28,2.01,4.01,3.76,4.96.19.06.5.14.77.14s.49-.08.57-.27c.39-.82.8-1.75,1.34-2.69.39-.8.53-1.87.39-2.67-.11-1.51-.94-2.72-1.95-3.9h0c.05-.09-.02-.2-.19-.38-.06-.02-.13-.03-.19-.05h0s-.05-.06-.08-.08c0,0-.16,0-.36.02h0c-.22-.02-.44-.02-.57-.02Z"/>
  <path class="cls-20" d="M99.71,108.4h0c-3.62,6.15,2.28,8.43,6.42,9.77,1.21-4.01-2.14-9.38-6.42-9.77Z"/>
  <path class="cls-21" d="M99.95,108.85c1.79.33,3.32,1.7,4.19,3.29.98,1.59,1.51,3.38,1.2,5.41h0c-1.78-.57-3.48-1.24-4.81-2.47-.66-.66-1.34-1.6-1.34-2.67-.13-1.21.2-2.44.77-3.56ZM99.14,108.07c-.25,0-.46.06-.5.19-.03.06-.06.11-.09.17h0s-.03.05-.03.06h0c-.99,1.81-1.56,3.73-.41,5.66,1.07,1.46,2.67,2.41,4.42,3.07.93.53,2,.94,2.94,1.21.17.05.39.09.61.09.31,0,.6-.08.6-.24.66-2.14,0-4.67-1.35-6.54-1.2-1.81-3.05-3.08-5.27-3.41h0c-.16-.16-.57-.27-.91-.27Z"/>
  <path class="cls-37" d="M95.16,104.78c-3.89,1.34-5.49,3.62-4.42,6.43.94,2.41,3.74,2.94,4.55,5.08.41-2.01,1.89-3.74,2.16-5.88.53-2.55-1.09-3.89-2.28-5.63Z"/>
  <path class="cls-39" d="M95.43,104.24s0,.02.02.02h0s.02-.02-.02-.02ZM94.68,105.22h0c.94,1.48,2.34,2.78,2.09,4.92-.09,1.57-1.01,3.02-1.64,4.52h0c-.44-.46-.96-.83-1.45-1.18-1.07-.93-2-1.73-2.41-3.07-.6-2.52,1.35-4.26,3.4-5.19ZM95.45,104.26s-.11.03-.2.06h0c-.28,0-.57.06-.76.06-2.53.8-5.35,2.53-5.08,5.49.14,1.34.94,2.53,2.01,3.34,1.07.8,2.41,1.6,2.94,2.82.03.09.14.17.27.22h0v.05h.17c.08.02.17.02.27.02.2,0,.39-.03.53-.11h0c.19-.03.35-.05.49-.05-.05-.17-.13-.35-.22-.52h0c.36-2.05,1.97-3.98,2.11-6.04.11-2.06-1.09-3.46-2.2-4.91h0c.05-.11.05-.24-.08-.3-.06-.03-.13-.05-.2-.05h0s-.03-.05-.05-.08Z"/>
  <path class="cls-38" d="M99.85,104.26c-2.09,0-4.45,1.12-6.56,3.87,1.24,1.67,3.49,2.42,5.82,2.42,2.91,0,5.95-1.2,7.28-3.37-1.6-.39-2.53-1.73-3.87-2.27-.8-.42-1.71-.66-2.67-.66Z"/>
  <path class="cls-18" d="M99.85,104.51c.8,0,1.87.41,2.67.68,1.13.63,1.9,1.6,3.1,2.17h0c-1.34,1.94-3.81,3.01-6.21,3.01-2.01,0-4-.76-5.22-2.38h0c1.34-1.81,3.3-3.48,5.66-3.48ZM100.5,103.8c-.27,0-.53.02-.79.05-2.78.25-5.08,1.7-6.8,4h0c-.24.11-.39.27-.3.41h0s0,.08.08.09h0c1.48,1.86,3.87,2.52,6.17,2.52.42,0,.85-.02,1.26-.06,2.67-.39,5.74-1.34,7.1-3.74q0-.14-.14-.14c-1.6-.66-2.55-1.87-4.01-2.53-.82-.41-1.71-.58-2.56-.58Z"/>
  <path class="cls-69" d="M92.61,99.43c-6.15.94-6.69,7.49-2.27,10.16,2.94-2.53,5.48-6.81,2.27-10.16Z"/>
  <path class="cls-67" d="M92.24,99.78h0c2.42,3.04.49,6.77-2.17,9.14h0c-1.34-1.24-2.09-3.12-1.86-5.07.35-2.11,2.01-3.49,4.03-4.07ZM92.08,98.75c0,.06,0,.09-.02.14h-.11c-2.01.27-4.01,1.34-4.96,3.35-.94,1.6-.8,3.48.13,4.94.41,1.07,1.35,1.75,2.28,2.41.24.08.55.16.83.16.2,0,.39-.03.5-.16,1.75-1.34,3.08-3.07,3.74-5.08.65-1.92.17-3.85-1.16-5.3h0c-.03-.08-.09-.14-.17-.19h0c-.13-.13-.66-.27-1.07-.27Z"/>
  <path class="cls-51" d="M92.61,97.56c-2.8,2.67-1.46,6.83.14,8.56,1.34,1.48,3.87,2.28,5.76,2.28-1.07-2.01.13-4.69-.53-6.83-.68-2.41-3.49-2.82-5.37-4.01Z"/>
  <path class="cls-47" d="M93.2,98.3c1.45.69,3.1,1.26,3.84,2.74.91,2.36-.35,4.97.6,7.21h0c-1.12-.08-2.08-.46-3.15-1.05-1.07-.39-1.73-1.46-2-2.41-1.04-2.19-1.07-4.74.71-6.48ZM92.46,97.29c-.06,0-.11.02-.16.02h0c-.08.02-.16.05-.22.11-.16,0-.17.06-.13.13h0c-2.01,2.01-1.98,5.02-.68,7.38,1.48,2.67,4.55,4.01,7.51,4.01.27,0,.53,0,.53-.14-.94-2.53.53-5.35-.8-7.76-1.16-1.94-3.34-2.5-5.18-3.38h0c-.2-.2-.58-.36-.88-.36Z"/>
  <path class="cls-52" d="M164.12,113.75h-.16c-4.03.41-7.77,4.69-7.77,8.84,5.49-.8,7.36-2.28,8.7-5.76.52-1.29.66-3.08-.77-3.08Z"/>
  <path class="cls-46" d="M164.09,113.89c.14,0,.14.27.14.39.13.27.13.68.13.94-.13.93-.27,1.6-.68,2.27-.53,1.07-1.34,2.28-2.27,2.96-1.32.87-2.91,1.21-4.41,1.53h0c.24-3.74,3.23-7.58,6.95-8.09h.13ZM164.2,113.17c-.88,0-1.7.17-2.52.58-.94.41-2.01,1.07-2.82,1.87-1.83,1.57-3.15,4.03-3.21,6.64h0c-.13.05-.2.13-.13.19.02.06.05.13.09.16h0c.05.16.31.25.6.25.35,0,.71-.13.77-.35h0c1.87-.27,3.9-.68,5.49-1.53,1.34-.8,2.41-2.01,2.94-3.35.41-1.21,1.6-3.89-.39-4.42-.3-.03-.57-.05-.83-.05Z"/>
  <path class="cls-68" d="M156.37,112.36c-2.47,0-5.21,1.18-7.39,2.06,1.34,1.2,3.6,2,5.08,2.53,1.16.42,2.09.61,2.94.61,1.57,0,2.8-.68,4.55-1.81-1.21-2.56-3.1-3.4-5.18-3.4Z"/>
  <path class="cls-48" d="M156.11,112.54c2.2,0,3.81,1.26,4.72,3.12h0c-1.2.76-2.55,1.59-3.95,1.59-.31,0-.63-.05-.96-.14-1.07-.14-2.28-.68-3.21-1.21-.98-.36-1.84-.83-2.6-1.43h0c1.68-.79,3.62-1.65,5.68-1.9.11-.02.22-.02.31-.02ZM156.82,111.83c-.3,0-.6.02-.9.05-2.67.27-5.08,1.34-7.36,2.41-.27,0-.27.14,0,.27.94.94,2.14,1.6,3.48,2.01,1.21.53,2.42,1.07,3.76,1.2.49.06.98.09,1.43.09.66,0,1.27-.06,1.9-.22,1.21-.41,2.28-1.07,3.21-1.75.25-.08.16-.16.02-.24h0s0-.02-.02-.03c-.66-1.34-1.46-2.41-2.67-3.07-.82-.52-1.81-.72-2.85-.72Z"/>
  <path class="cls-49" d="M165.43,110.41c-1.75,1.87-2.67,3.34-2.14,5.88.13,1.34,1.07,2.27,1.6,3.62,4.15-2.28,5.35-7.63.53-9.5Z"/>
  <path class="cls-50" d="M165.79,110.98c1.35.83,2.14,2.31,1.92,3.98-.22,1.57-1.16,2.89-2.39,3.9h0c-.25-.5-.52-1.04-.69-1.64-.39-.8-.53-1.6-.53-2.67.11-1.35.9-2.52,1.7-3.57ZM165.24,109.97c-.25,0-.47.09-.61.3h0c-.06.03-.09.06-.09.09h0c-1.16,1.18-2.19,2.63-2.31,4.19,0,.94,0,1.87.53,2.67.27,1.07.93,1.75,1.34,2.69.08.22.42.31.79.31.28,0,.57-.06.69-.19,1.87-.94,3.74-2.82,3.87-4.96.13-2.28-1.43-3.85-3.19-4.69h0s-.14-.13-.35-.19h0c-.19-.16-.42-.24-.66-.24Z"/>
  <path class="cls-45" d="M164.89,108.4h0c-4.28.39-7.63,5.76-6.56,9.77,4.01-1.34,9.91-3.62,6.56-9.77Z"/>
  <path class="cls-63" d="M164.06,108.59h0c.61,1.15.96,2.42.83,3.7-.13.93-.66,1.87-1.34,2.53-1.24,1.26-2.97,1.92-4.78,2.5h0c-.36-1.87.17-3.82,1.04-5.44,1.01-1.51,2.5-2.91,4.25-3.29ZM164.99,107.96c-.35,0-.82.13-.99.27h0c-2.16.38-3.95,1.62-5.13,3.38-1.34,1.87-2,4.28-1.34,6.56.06.13.27.17.49.17s.46-.05.58-.05c2.94-1.07,8.04-2.53,8.04-6.54,0-1.31-.5-2.47-1.15-3.52h0s.02-.06-.05-.08h0l-.02-.02c-.05-.13-.22-.17-.44-.17Z"/>
  <path class="cls-40" d="M169.31,104.78c-1.21,1.75-2.94,3.08-2.41,5.63.39,2.14,1.87,3.87,2.14,5.88.93-2.14,3.74-2.67,4.55-5.08,1.21-2.82-.53-5.1-4.28-6.43Z"/>
  <path class="cls-65" d="M169.44,105.64c2.05.98,3.92,2.53,3.35,5.16-.41,1.34-1.21,2.28-2.28,3.08-.44.46-.9.83-1.31,1.24h0c-.6-1.57-1.67-3.07-1.76-4.72-.13-1.95,1.07-3.34,2-4.77ZM169.17,104.46c-.3,0-.65.11-.8.31h0c-.19.09-.24.19-.17.28h0c-.93,1.49-2.23,2.91-2.23,4.81.14,2.41,1.75,4.28,2.14,6.42,0,.06.02.11.06.16h0s-.05.08-.06.11h.22c.09.03.2.03.31.03s.25,0,.38-.03h.57c-.02-.08-.03-.16-.03-.22h0s.02-.03.03-.05c.53-1.34,1.87-2.01,2.8-2.82,1.09-.93,1.89-2,2.01-3.34.53-3.08-2.41-4.69-4.81-5.63-.08-.03-.17-.05-.27-.05h-.14Z"/>
  <path class="cls-66" d="M164.55,104.26c-.94,0-1.84.24-2.6.66-1.34.53-2.41,1.87-3.89,2.27,1.27,2.17,4.28,3.37,7.17,3.37,2.31,0,4.56-.76,5.81-2.42-2.01-2.75-4.41-3.87-6.5-3.87Z"/>
  <path class="cls-42" d="M158.69,107.28s-.05.05-.09.05c.03-.02.06-.03.09-.05ZM164.36,104.51c2.39,0,4.39,1.71,5.73,3.57h0c-1.24,1.56-3.18,2.28-5.14,2.28-2.44,0-4.91-1.1-6.17-3.12h0c1.02-.42,2.03-1.29,2.91-1.79.93-.53,1.73-.94,2.67-.94ZM164.77,103.85c-1.21,0-2.16.13-3.35.53-1.48.66-2.55,1.87-4.01,2.53l-.14.14c1.48,2.41,4.42,3.48,6.97,3.62.41.03.82.06,1.26.06,2.27,0,4.66-.63,6.06-2.38h0c.17-.03.3-.11.17-.24h0c.16-.11.03-.2-.19-.28h0c-1.62-2.27-4.08-3.87-6.77-4Z"/>
  <path class="cls-64" d="M171.72,99.43h0c-3.08,3.35-.68,7.63,2.41,10.16,4.28-2.67,3.74-9.22-2.41-10.16Z"/>
  <path class="cls-43" d="M172.27,99.82c2,.53,3.49,1.94,3.87,4.03.24,2.05-.61,3.87-2.14,5h0c-2.42-2.44-4.22-6.15-1.73-9.03ZM171.14,98.97h-.11c-.06,0-.11.02-.11.05-1.48,1.48-1.87,3.49-1.21,5.76.68,2.01,2.28,3.62,3.76,4.96.22.11.76.42,1.15.42.06,0,.13,0,.19-.02,1.6-1.09,2.67-2.69,2.8-4.69.14-1.87-.66-3.74-2.14-4.81-1.07-.72-2.25-1.23-3.43-1.42h0c-.28-.14-.66-.25-.9-.25Z"/>
  <path class="cls-41" d="M171.72,97.56c-1.75,1.2-4.69,1.6-5.35,4.01-.68,2.14.53,4.81-.41,6.83,1.75,0,4.28-.8,5.62-2.28,1.75-1.73,2.96-5.88.14-8.56Z"/>
  <path class="cls-44" d="M172.15,98.49c1.26,1.81,1.02,4.17-.03,6.03-.98,1.97-2.83,3.13-4.94,3.56h0c.46-2.19-.66-4.61.39-6.5.98-1.7,2.93-2.3,4.58-3.08ZM171.58,97.15c-.06,0-.11.02-.14.05h-.08c-.14,0-.25.06-.31.22-1.6.94-4.01,1.48-4.94,3.35-1.34,2.28.27,5.08-.68,7.49-.13.53.94.68,1.21.68h.27c1.38-.06,2.75-.58,4.01-1.21,1.2-.66,2-1.6,2.67-2.8.53-1.21.8-2.41.8-3.74-.13-1.48-.66-2.69-1.75-3.62-.27-.14-.66-.41-1.07-.41Z"/>
  <path class="cls-76" d="M111.23,118.17c-1.75.27-1.87,2.94-.14,3.35.13.02.24.03.33.03,1.95,0,1.86-3.38.08-3.38h-.27Z"/>
  <path class="cls-74" d="M111.35,118.44s.05.02.03.03h0s-.02-.02-.03-.03ZM111.35,118.44c-.06,0-.06.03-.05.05h0l.05-.05h0l-.05.05h0s-.03.02-.03.02c-.03,0,0-.06.08-.06ZM111.38,118.47c.11.09.13.09.38.09q.13.27.13.41v.13c.14.28.14.55.14.82v.39c0,.14-.14.27-.14.27,0,0,0,.14-.13.14l-.27.27h-.68l-.27-.41v-.8c0-.13,0-.39.14-.53,0-.14.13-.27.39-.53l.14-.14.08-.08h0s.02.02.02.02h0s.05-.02.06-.03ZM111.49,117.76c-.13,0-.35,0-.58.09h0c-.87.2-1.59.74-1.7,1.65-.13.8,0,1.6.8,2.14.31.16.68.22,1.02.22.25,0,.5-.03.72-.08.39,0,.93-.14,1.34-.68.39-.53.66-1.2.39-1.87,0-.27-.13-.68-.39-.94-.24-.22-.5-.36-.8-.44h0c-.19-.09-.46-.09-.53-.09-.05,0-.09,0-.13.02h0s-.09-.02-.14-.02Z"/>
  <path class="cls-78" d="M115.51,118.97c-1.6.13-2.01,2.82-.27,3.35.17.05.35.08.5.08,1.78,0,1.76-3.3.16-3.43h-.39Z"/>
  <path class="cls-77" d="M115.51,119.24c.22.11.35.17.44.19h0s.05.08.09.08v.14c0,.13.14.27.14.27v.66c0,.14,0,.41-.14.41v.27c0,.13-.14.13-.27.39,0,0-.27,0-.27.14h-.8l-.14-.14v-.27c0-.13-.13-.27-.13-.39v-.41c0-.13,0-.27.13-.53,0-.13.14-.13.14-.27l.13-.13.27-.27h.14q.13,0,.27-.14ZM115.51,118.56c-.06,0-.2,0-.3.05h0c-.39.08-.87.28-1.18.49-.27.41-.53.68-.66,1.09-.14.27-.14.8,0,1.07.13.53.53.93.93,1.07.5.28,1.1.44,1.68.44.52,0,1.02-.13,1.4-.44.53-.53.68-1.21.53-1.87,0-.27-.27-.68-.53-.94-.24-.24-.52-.41-.8-.53h0c-.13-.41-.68-.41-1.07-.41Z"/>
  <path class="cls-71" d="M120.05,119.91c-1.6.27-2,2.94-.27,3.34.19.06.36.08.52.08,1.76,0,1.75-3.18.16-3.41h-.41Z"/>
  <path class="cls-79" d="M120.59,120.31c0,.14.14.14,0,.14v.13c0,.14.14.41.14.41v.66c0,.14,0,.27-.14.27v.41c0,.13-.13.13-.39.27,0,0-.14,0-.14.13h-.66l-.14-.13v-.14c0-.13-.13-.39-.13-.53v-.53c0-.13,0-.27.13-.39v-.27l.14-.14.13-.13h.53q.41-.14.53-.14c-.08,0-.06.06-.03.06.02,0,.03-.02.03-.06ZM120.46,119.38c-.19,0-.46,0-.58.14h0c-.42.02-.79.11-1.16.39-.27.39-.53.66-.66,1.07-.14.27-.14.8,0,1.2.13.41.53.8,1.07.94.28.19.83.38,1.37.38.22,0,.44-.03.63-.11.27,0,.68-.14.94-.41.53-.53.66-1.2.53-1.87,0-.39-.14-.66-.53-1.07-.27-.39-.94-.66-1.6-.66Z"/>
  <path class="cls-72" d="M124.74,120.45c-1.6.13-2.01,2.8-.41,3.34.2.06.38.08.53.08,1.89,0,1.87-3.3.27-3.41h-.39Z"/>
  <path class="cls-70" d="M124.6,120.84c.14,0,.27.14.27.14q.27.13.27.27v.27c0,.27.14.39,0,.8v.27c0,.13-.27.39-.27.39,0,0,0,.14-.13.14,0,0-.13,0-.14.13h0s.02-.06.03-.06c.03,0,.06.06-.03.06h-.66l-.41-.27v-1.46c0-.27.27-.41.41-.53q.66,0,.66-.14ZM124.84,120.28c-1.07,0-2.16.44-2.5,1.51-.14.8,0,1.73.8,2.14.39.39,1.07.39,1.6.39s.94-.13,1.34-.53c.53-.53.68-1.2.68-1.87,0-.27-.14-.66-.53-.93-.16-.22-.38-.36-.6-.44h0c.24-.13-.22-.24-.35-.24-.14-.02-.3-.03-.44-.03Z"/>
  <path class="cls-75" d="M129.56,120.84c-1.6.14-2,2.82-.27,3.35.19.05.35.08.5.08,1.81,0,1.89-3.3.17-3.43h-.41Z"/>
  <path class="cls-73" d="M129.56,121.11c.27,0,.41.14.41.14q.13.27.13.39v.14c0,.27.14.53,0,.8v.39c0,.14-.13.14-.13.27,0,0,0,.14-.14.14,0,0-.27,0-.27.27h-.39l-.41-.41v-1.2q0-.14.14-.27c0-.14.27-.27.39-.53q.27,0,.27-.14ZM130.23,120.58c-1.07,0-2.28.53-2.67,1.6-.14.8,0,1.6.66,2.14.53.27,1.21.27,1.75.27s.93-.13,1.46-.39c.53-.53.68-1.21.68-1.87,0-.41-.14-.68-.53-1.07-.2-.2-.55-.33-.82-.49h0c-.05-.06-.13-.11-.2-.14h0s-.03-.03-.05-.05h-.27Z"/>
  <path class="cls-60" d="M152.84,118.17c-1.78,0-1.86,3.38.19,3.38.11,0,.24-.02.35-.03,1.62-.41,1.48-3.08-.13-3.35h-.41Z"/>
  <path class="cls-53" d="M152.72,118.44c.2.08.41.13.66.13h-.13l.13.14v.27c0,.13.14.27.14.41v.53c0,.13,0,.39-.14.53,0,0,0,.13-.13.13v.14l-.27.27h-.27l-.14-.27v-.14s0-.13-.27-.13c0-.14,0-.27-.13-.27v-.94c0-.14.13-.27.13-.41,0,0,0-.27.27-.27l.14-.13ZM152.57,117.76c-.14,0-.25,0-.31.03h0c-.71.11-1.05.6-1.29,1.18-.13.68-.13,1.34.41,2.01.27.27.8.66,1.34.8.27.06.57.09.85.09s.55-.03.76-.09c.94-.27,1.21-1.21,1.21-2.01-.27-1.34-1.89-2.01-2.96-2.01Z"/>
  <path class="cls-62" d="M148.56,118.97c-1.71.13-1.75,3.43.14,3.43.16,0,.35-.03.53-.08,1.6-.53,1.34-3.23-.41-3.35h-.27Z"/>
  <path class="cls-56" d="M148.83,119.1l.41.28s0,.27.13.27v1.34s0,.13-.13.13l-.27.14s-.14,0-.14-.14q-.13-.13-.13-.39v-1.48s.02-.09.03-.14h.09ZM149.63,118.29h0c-.66.27-1.07.27-1.46.27-.53,0-.94.27-1.34.53-.14.14-.27.55-.53.82-.14.66,0,1.34.39,1.87.42.5,1.12.69,1.81.69.39,0,.79-.06,1.13-.16.53-.14.94-.53,1.07-.8.14-.41.14-.94.14-1.21,0-.53-.27-.8-.68-1.21-.35-.17-.77-.35-1.24-.44h0l.05-.09h.27c.13,0,.66-.13.39-.27Z"/>
  <path class="cls-55" d="M144.01,119.91c-1.71.24-1.75,3.41.13,3.41.16,0,.35-.02.53-.08,1.62-.39,1.35-3.07-.39-3.34h-.27Z"/>
  <path class="cls-57" d="M144.68,120.43v.02l.28.27v1.34c0,.27-.14.39-.14.53v.13h-.27l-.27-.13q-.14-.14-.14-.27v-1.6c0-.14.14-.27.14-.27h.27s.08,0,.13-.02ZM144.01,119.65c-.13,0-.39,0-.52.11h0c-.65.2-1.24.58-1.35,1.23-.14.66-.14,1.34.39,2,.42.52,1.12.69,1.78.69.38,0,.74-.06,1.04-.16.53-.27.8-.53,1.21-.93.13-.27.13-.8.13-1.07,0-.53-.39-.94-.66-1.21-.53-.66-1.35-.66-2.01-.66Z"/>
  <path class="cls-54" d="M139.33,120.45c-1.71.11-1.75,3.41.14,3.41.16,0,.35-.02.53-.08,1.6-.53,1.34-3.21-.41-3.34h-.27Z"/>
  <path class="cls-58" d="M139.86,120.58l.14.14v.27l.13.13s0,.14.14.14v1.34s0,.13-.14.13l-.13.27h-.53c0-.27-.14-.27-.14-.39v-1.21c0-.13,0-.27.14-.39v-.27s0-.06.03-.11h0s.06-.02.09-.03h.27ZM140.4,120.04l-1.46.14c-.41,0-.8.13-1.07.39-.27.27-.41.53-.53.94-.14.66,0,1.34.27,1.73.42.61,1.16.88,1.9.88.39,0,.8-.06,1.16-.2.53-.14.8-.41.94-.8.27-.27.27-.8.27-1.21-.27-.39-.41-.8-.8-1.07-.16-.25-.36-.41-.6-.5h0c.09-.06.13-.17-.08-.3Z"/>
  <path class="cls-61" d="M134.51,120.84c-1.73.13-1.75,3.43.14,3.43.16,0,.33-.03.53-.08,1.6-.53,1.34-3.21-.41-3.35h-.27Z"/>
  <path class="cls-59" d="M135.31,120.98c.14.13.14.27.27.27,0,0,0,.27.14.27v1.07c0,.13-.14.39-.14.39v.14l-.13.13h-.27q-.28-.13-.28-.27v-1.46c0-.27.28-.41.28-.41v-.13h.13ZM134.51,120.31c-.27,0-.41,0-.53.14h0c-.46.02-.71.16-1.07.53-.27.27-.41.53-.41.8-.27.66,0,1.34.27,1.87.42.5,1.12.69,1.84.69.42,0,.85-.06,1.24-.16.8-.41,1.34-1.21,1.07-2.01,0-.53-.27-.93-.39-1.2-.2-.2-.42-.35-.68-.44h0s.03-.08,0-.09h-.28c-.35-.11-.72-.14-1.05-.14Z"/>
  <path class="cls-98" d="M168.93,192.81c1.26,6.21,1.67,10.26,2.17,14.85.5,4.59.74,9.46.81,12.69s.82,4.97-.42,6.67c-1.24,1.7-2.36,2.28-7.02,3.5s-11.8,3.49-20.91,3.87c-9.11.37-24.29-.05-33.75-1.62s-15-3.68-22.96-7.82c-7.97-4.14-20.6-13.64-24.83-17.02-4.23-3.38-3.24-2.51-.54-3.23,2.7-.72,10.75-1.09,16.74-1.09s12.15,2.53,19.17,1.09c7.02-1.44,14.85-4.33,22.95-9.73,8.1-5.4,21.01-17.32,25.65-22.68,4.64-5.35-.76-9.13,2.17-9.45s11.92,2.56,15.39,7.55c3.46,4.99,4.14,16.21,5.4,22.42Z"/>
  <path class="cls-102" d="M147.93,162.98c-.19,0-.35.07-.35.26-.81,6.67-1.71,13.45-3.25,19.99-1.36,5.83-3.25,11.53-5.78,16.73-1.82,3.76-3.8,7.39-5.87,10.91-2.62,4.25-5.43,8.24-8.5,11.75-2.98,3.52-6.59,7.15-10.84,8.25-.18,0-.27.11-.18.36.1.24.54.24.64.24,3.61-.97,6.78-3.63,9.66-6.54,3.25-3.52,6.14-7.39,8.86-11.64,5.24-8.12,9.66-16.97,12.37-27.03,1.9-7.27,2.98-14.9,3.89-22.67.12-.38-.32-.61-.65-.61Z"/>
  <path class="cls-100" d="M150.15,162.96c-.12,0-.19.03-.19.1-.16,8.49-.98,16.97-2.04,25.22-1.14,9.57-2.54,19.02-4.66,28.11-.98,3.88-1.88,7.64-3.43,10.79-.07.27.37.67.69.67.12,0,.22-.06.29-.19,1.31-2.91,2.2-6.06,3.02-9.45,1.07-4.25,1.97-8.61,2.7-12.96,1.63-9.57,2.87-19.28,3.68-29.09.4-4.25.65-8.61.82-12.85-.12-.17-.6-.34-.88-.34Z"/>
  <path class="cls-99" d="M38.92,143.46s.1-.02.13-.07l.59-3.79c0-.1.1-.1.1-.1l3.42-.79-3.43-.74c-.1,0-.1-.05-.1-.05l-.69-3.67c0-.08-.04-.11-.08-.11-.04,0-.1.04-.12.11l-.69,3.68c0,.05-.05.05-.05.05l-3.06.73s-.05.15,0,.2l3.07.7s.05.05.05.05l.79,3.72s.04.07.08.07Z"/>
  <path class="cls-103" d="M68.89,97.82s.1-.02.13-.07l.59-3.79c0-.1.1-.1.1-.1l3.42-.79-3.43-.74c-.1,0-.1-.05-.1-.05l-.69-3.67c0-.08-.04-.11-.08-.11-.04,0-.1.04-.12.11l-.69,3.68c0,.05-.05.05-.05.05l-3.06.73s-.05.15,0,.2l3.07.7s.05.05.05.05l.79,3.72s.04.07.08.07Z"/>
  <path class="cls-106" d="M86.19,87.31c.08,0,.15-.04.2-.12l.95-6.08c0-.16.16-.16.16-.16l5.49-1.27-5.5-1.19c-.16,0-.16-.09-.16-.09l-1.1-5.89c0-.13-.06-.18-.14-.18-.07,0-.15.06-.19.18l-1.11,5.91c0,.09-.08.09-.08.09l-4.92,1.18c-.08,0-.08.24,0,.33l4.93,1.12c.08,0,.08.09.08.09l1.27,5.98c0,.08.06.12.13.11Z"/>
  <path class="cls-104" d="M53.62,79.73s.08-.02.1-.06l.49-3.14c0-.08.08-.09.08-.09l2.84-.65-2.84-.62c-.08,0-.08-.04-.08-.04l-.57-3.04c0-.06-.03-.09-.07-.09-.03,0-.08.03-.1.1l-.57,3.05s-.04.05-.04.05l-2.54.61s-.04.12,0,.17l2.55.58s.04.04.04.04l.66,3.09s.03.06.07.06Z"/>
  <path class="cls-101" d="M102.64,52.19s.1-.02.13-.07l.59-3.79c0-.1.1-.1.1-.1l3.42-.79-3.43-.74c-.1,0-.1-.05-.1-.05l-.69-3.67c0-.08-.04-.11-.08-.11-.04,0-.1.04-.12.11l-.69,3.68c0,.05-.05.05-.05.05l-3.06.73s-.05.15,0,.2l3.07.7s.05.05.05.05l.79,3.72s.04.07.08.07Z"/>
  <path class="cls-105" d="M164.2,56.51s.1-.02.13-.07l.59-3.79c0-.1.1-.1.1-.1l3.42-.79-3.43-.74c-.1,0-.1-.05-.1-.05l-.69-3.67c0-.08-.04-.11-.08-.11-.04,0-.1.04-.12.11l-.69,3.68c0,.05-.05.05-.05.05l-3.06.73s-.05.15,0,.2l3.07.7s.05.05.05.05l.79,3.72s.04.07.08.07Z"/>
  <path class="cls-107" d="M181.06,88.91s.08-.02.1-.06l.49-3.14c0-.08.08-.09.08-.09l2.84-.65-2.84-.62c-.08,0-.08-.04-.08-.04l-.57-3.04c0-.06-.03-.09-.07-.09-.03,0-.08.03-.1.1l-.57,3.05s-.04.05-.04.05l-2.54.61s-.04.12,0,.17l2.55.58s.04.04.04.04l.66,3.09s.03.06.07.06Z"/>
  <path class="cls-97" d="M201.19,71.35s.1-.02.13-.07l.59-3.79c0-.1.1-.1.1-.1l3.42-.79-3.43-.74c-.1,0-.1-.05-.1-.05l-.69-3.67c0-.08-.04-.11-.08-.11-.04,0-.1.04-.12.11l-.69,3.68c0,.05-.05.05-.05.05l-3.06.73s-.05.15,0,.2l3.07.7s.05.05.05.05l.79,3.72s.04.07.08.07Z"/>
  <path class="cls-94" d="M210.91,108.63s.1-.02.13-.07l.59-3.79c0-.1.1-.1.1-.1l3.42-.79-3.43-.74c-.1,0-.1-.05-.1-.05l-.69-3.67c0-.08-.04-.11-.08-.11-.04,0-.1.04-.12.11l-.69,3.68c0,.05-.05.05-.05.05l-3.06.73s-.05.15,0,.2l3.07.7s.05.05.05.05l.79,3.72s.04.07.08.07Z"/>
  <path class="cls-95" d="M226.3,127.26s.1-.02.13-.07l.59-3.79c0-.1.1-.1.1-.1l3.42-.79-3.43-.74c-.1,0-.1-.05-.1-.05l-.69-3.67c0-.08-.04-.11-.08-.11-.04,0-.1.04-.12.11l-.69,3.68c0,.05-.05.05-.05.05l-3.06.73s-.05.15,0,.2l3.07.7s.05.05.05.05l.79,3.72s.04.07.08.07Z"/>
  <path class="cls-96" d="M200.49,137.64s.08-.02.1-.06l.49-3.14c0-.08.08-.09.08-.09l2.84-.65-2.84-.62c-.08,0-.08-.04-.08-.04l-.57-3.04c0-.06-.03-.09-.07-.09-.03,0-.08.03-.1.1l-.57,3.05s-.04.05-.04.05l-2.54.61s-.04.12,0,.17l2.55.58s.04.04.04.04l.66,3.09s.03.06.07.06Z"/>
  <path class="cls-93" d="M216.42,163.02s.08-.02.1-.06l.49-3.14c0-.08.08-.09.08-.09l2.84-.65-2.84-.62c-.08,0-.09-.04-.09-.04l-.57-3.04c0-.06-.03-.09-.07-.09-.03,0-.08.03-.1.1l-.57,3.05s-.04.05-.04.05l-2.54.61s-.04.12,0,.17l2.55.58s.04.04.04.04l.66,3.09s.03.06.07.06Z"/>
  <path class="cls-92" d="M132.07,23.24c-58.09,0-105.2,47.25-105.2,105.33s47.11,105.21,105.2,105.21,105.34-47.11,105.34-105.21S190.16,23.24,132.07,23.24Z"/>
  <path class="cls-117" d="M132.07,23.24c-58.09,0-105.2,47.25-105.2,105.33s47.11,105.21,105.2,105.21,105.34-47.11,105.34-105.21S190.16,23.24,132.07,23.24Z"/>
</svg>