<?xml version="1.0" encoding="UTF-8"?>
<svg id="Layer_1" data-name="Layer 1" xmlns="http://www.w3.org/2000/svg" xmlns:xlink="http://www.w3.org/1999/xlink" viewBox="0 0 58.11 57.23">
  <defs>
    <style>
      .cls-1 {
        fill: url(#radial-gradient);
      }

      .cls-1, .cls-2 {
        fill-rule: evenodd;
      }

      .cls-2 {
        fill: url(#radial-gradient-2);
      }
    </style>
    <radialGradient id="radial-gradient" cx="-752.66" cy="683.92" fx="-752.66" fy="683.92" r="4.7" gradientTransform="translate(3569.48 3245.55) scale(4.7 -4.7)" gradientUnits="userSpaceOnUse">
      <stop offset="0" stop-color="#f3d5ab"/>
      <stop offset="1" stop-color="#dc9b3f"/>
    </radialGradient>
    <radialGradient id="radial-gradient-2" cx="83.52" cy="-884.51" fx="83.52" fy="-884.51" r=".95" gradientTransform="translate(-44.88 -801.98) scale(.95 -.95)" gradientUnits="userSpaceOnUse">
      <stop offset="0" stop-color="#f3d5ab"/>
      <stop offset="1" stop-color="#dc9b3f"/>
    </radialGradient>
  </defs>
  <path class="cls-1" d="M38.71,15.95c.46,0,.92.36.92.91,0,.48-.41.89-.91.89-.8,0-1.21-.96-.63-1.54.18-.18.4-.26.62-.26ZM44.4,18.9c.46,0,.9.36.9.91,0,.48-.39.89-.89.89-.8,0-1.2-.97-.63-1.54.18-.18.4-.26.62-.26ZM32.39,21.27c.22,0,.45.08.63.26.56.57.15,1.54-.65,1.54-.5,0-.89-.41-.89-.89v-.02c0-.54.45-.89.91-.89ZM34.43,28.16c.78,0,1.43.63,1.43,1.41,0,.85-.7,1.42-1.42,1.42-.35,0-.7-.13-.99-.42-.89-.89-.26-2.41.98-2.41ZM21.93,31.01c.73,0,1.42.57,1.42,1.42,0,.78-.63,1.41-1.41,1.41-1.26,0-1.89-1.52-1-2.41.29-.29.64-.42.99-.42ZM41.14,33.57c.8,0,1.21.97.63,1.54-.18.19-.4.27-.62.27-.46,0-.9-.36-.92-.9,0-.5.41-.91.91-.91ZM27.21,39.1c1.26,0,1.89,1.52,1,2.41-.29.29-.64.42-.99.42-.73,0-1.42-.57-1.42-1.42,0-.78.63-1.41,1.41-1.41ZM15.9,41.15c.46,0,.9.36.9.9,0,.5-.41.91-.89.91-.82,0-1.21-.96-.65-1.54.19-.19.41-.27.64-.27ZM41.14,41.15c.46,0,.9.36.9.9,0,.5-.39.91-.89.91-.8,0-1.21-.96-.63-1.54.18-.19.4-.27.62-.27ZM38.73,14.66c-.14,0-.29.01-.44.04-1.35.28-2.12,1.72-1.58,2.99l-3.15,2.65c-.37-.24-.78-.36-1.18-.36-.91,0-1.78.58-2.08,1.53-.43,1.39.57,2.8,2.02,2.84l.8,2.86c-.83.46-1.37,1.35-1.37,2.32l-7.38,1.69c-.48-.95-1.44-1.48-2.42-1.48-.53,0-1.08.16-1.55.5-1.35.96-1.52,2.89-.37,4.08l-3.54,5.64c-.19-.05-.37-.07-.56-.07-1.87,0-2.88,2.19-1.67,3.6.45.53,1.06.77,1.65.77,1,0,1.97-.68,2.17-1.83l6.66-.91c.44,1.14,1.47,1.7,2.49,1.7s2.1-.59,2.54-1.78l2.06.24h.07c.8-.02.86-1.19.06-1.28l-2.04-.24c-.18-1.34-1.33-2.34-2.67-2.34h-.04c-1.37.02-2.5,1.04-2.65,2.41l-6.64.91c-.09-.19-.2-.37-.33-.52l3.54-5.64c.26.09.56.13.83.13,1.47,0,2.67-1.19,2.69-2.65l7.4-1.69c.48.96,1.43,1.48,2.4,1.48.61,0,1.22-.2,1.73-.63l2.93,2.13c-.09.24-.13.48-.13.72,0,.95.63,1.8,1.54,2.08v3.41c-.61.19-1.11.63-1.35,1.22l-1.47-.17s-.09,0-.13,0c-.77,0-.86,1.24-.02,1.29l1.47.15c.21,1.1,1.17,1.78,2.16,1.78.5,0,1.02-.17,1.44-.56,1.26-1.13.81-3.21-.82-3.71v-3.41c1.3-.39,1.91-1.85,1.3-3.06-.39-.77-1.15-1.2-1.94-1.2-.45,0-.9.14-1.3.44l-2.91-2.15c.72-1.76-.58-3.73-2.51-3.73h-.07l-.8-2.86c.63-.41,1-1.09,1-1.83,0-.3-.06-.57-.17-.85l3.14-2.64c.37.24.78.36,1.19.36.57,0,1.13-.22,1.55-.65l1.99,1.02c-.26,1.46.91,2.59,2.17,2.59.47,0,.95-.16,1.37-.51,1.58-1.32.65-3.86-1.39-3.86-.59,0-1.15.24-1.56.65l-1.99-1.02c.02-.13.04-.26.04-.39,0-1.24-1-2.2-2.17-2.2Z"/>
  <path class="cls-2" d="M34.74,40.72c-.57,0-.85.69-.46,1.1.13.12.29.18.45.18.34,0,.66-.25.66-.65,0-.35-.3-.63-.65-.63Z"/>
</svg>