<?xml version="1.0" encoding="UTF-8"?>
<svg id="Layer_1" data-name="Layer 1" xmlns="http://www.w3.org/2000/svg" xmlns:xlink="http://www.w3.org/1999/xlink" viewBox="0 0 58.11 57.23">
  <defs>
    <style>
      .cls-1 {
        fill: url(#radial-gradient);
      }

      .cls-1, .cls-2, .cls-3, .cls-4, .cls-5, .cls-6, .cls-7, .cls-8, .cls-9, .cls-10, .cls-11 {
        fill-rule: evenodd;
      }

      .cls-2 {
        fill: url(#radial-gradient-11);
      }

      .cls-3 {
        fill: url(#radial-gradient-10);
      }

      .cls-4 {
        fill: url(#radial-gradient-7);
      }

      .cls-5 {
        fill: url(#radial-gradient-5);
      }

      .cls-6 {
        fill: url(#radial-gradient-6);
      }

      .cls-7 {
        fill: url(#radial-gradient-4);
      }

      .cls-8 {
        fill: url(#radial-gradient-8);
      }

      .cls-9 {
        fill: url(#radial-gradient-9);
      }

      .cls-10 {
        fill: url(#radial-gradient-3);
      }

      .cls-11 {
        fill: url(#radial-gradient-2);
      }
    </style>
    <radialGradient id="radial-gradient" cx="-819.9" cy="705.49" fx="-819.9" fy="705.49" r="4.13" gradientTransform="translate(3412.11 2943.69) scale(4.13 -4.13)" gradientUnits="userSpaceOnUse">
      <stop offset="0" stop-color="#f3d5ab"/>
      <stop offset="1" stop-color="#dc9b3f"/>
    </radialGradient>
    <radialGradient id="radial-gradient-2" cx="-186.23" cy="-315.76" fx="-186.23" fy="-315.76" r="1.23" gradientTransform="translate(252.99 -364.99) scale(1.23 -1.23)" gradientUnits="userSpaceOnUse">
      <stop offset="0" stop-color="#f3d5ab"/>
      <stop offset="1" stop-color="#dc9b3f"/>
    </radialGradient>
    <radialGradient id="radial-gradient-3" cx="-183.9" cy="-318.67" fx="-183.9" fy="-318.67" r="1.23" gradientTransform="translate(247.76 -370.47) scale(1.23 -1.23)" gradientUnits="userSpaceOnUse">
      <stop offset="0" stop-color="#f3d5ab"/>
      <stop offset="1" stop-color="#dc9b3f"/>
    </radialGradient>
    <radialGradient id="radial-gradient-4" cx="-185.77" cy="-320.19" fx="-185.77" fy="-320.19" r="1.23" gradientTransform="translate(248.44 -369.76) scale(1.23 -1.23)" gradientUnits="userSpaceOnUse">
      <stop offset="0" stop-color="#f3d5ab"/>
      <stop offset="1" stop-color="#dc9b3f"/>
    </radialGradient>
    <radialGradient id="radial-gradient-5" cx="-146.53" cy="-388.11" fx="-146.53" fy="-388.11" r="1.17" gradientTransform="translate(190.41 -430.53) scale(1.17 -1.17)" gradientUnits="userSpaceOnUse">
      <stop offset="0" stop-color="#f3d5ab"/>
      <stop offset="1" stop-color="#dc9b3f"/>
    </radialGradient>
    <radialGradient id="radial-gradient-6" cx="-816.57" cy="704.31" fx="-816.57" fy="704.31" r="4.13" gradientTransform="translate(3411.51 2943.06) scale(4.13 -4.13)" gradientUnits="userSpaceOnUse">
      <stop offset="0" stop-color="#f3d5ab"/>
      <stop offset="1" stop-color="#dc9b3f"/>
    </radialGradient>
    <radialGradient id="radial-gradient-7" cx="-174.36" cy="-327.4" fx="-174.36" fy="-327.4" r="1.23" gradientTransform="translate(251.02 -367.05) scale(1.23 -1.23)" gradientUnits="userSpaceOnUse">
      <stop offset="0" stop-color="#f3d5ab"/>
      <stop offset="1" stop-color="#dc9b3f"/>
    </radialGradient>
    <radialGradient id="radial-gradient-8" cx="-173.75" cy="-329.27" fx="-173.75" fy="-329.27" r="1.23" gradientTransform="translate(251.87 -366.17) scale(1.23 -1.23)" gradientUnits="userSpaceOnUse">
      <stop offset="0" stop-color="#f3d5ab"/>
      <stop offset="1" stop-color="#dc9b3f"/>
    </radialGradient>
    <radialGradient id="radial-gradient-9" cx="-172.11" cy="-327.39" fx="-172.11" fy="-327.39" r="1.23" gradientTransform="translate(251.52 -366.53) scale(1.23 -1.23)" gradientUnits="userSpaceOnUse">
      <stop offset="0" stop-color="#f3d5ab"/>
      <stop offset="1" stop-color="#dc9b3f"/>
    </radialGradient>
    <radialGradient id="radial-gradient-10" cx="-119.44" cy="-407.24" fx="-119.44" fy="-407.24" r="1.17" gradientTransform="translate(180.97 -440.42) scale(1.17 -1.17)" gradientUnits="userSpaceOnUse">
      <stop offset="0" stop-color="#f3d5ab"/>
      <stop offset="1" stop-color="#dc9b3f"/>
    </radialGradient>
    <radialGradient id="radial-gradient-11" cx="100.8" cy="-749.25" fx="100.8" fy="-749.25" r=".95" gradientTransform="translate(-50.59 -682.95) scale(.95 -.95)" gradientUnits="userSpaceOnUse">
      <stop offset="0" stop-color="#f3d5ab"/>
      <stop offset="1" stop-color="#dc9b3f"/>
    </radialGradient>
  </defs>
  <path class="cls-1" d="M20.19,14.84c1.61,0,3.19.53,4.49,1.53-1.37.11-2.69.52-3.9,1.17l-.05-.07-1-1.5c-.26-.38-.58-.73-.94-.99h0c.47-.09.94-.14,1.4-.14ZM25.61,17.6c.62,0,1.25.06,1.86.18-.69.11-.74,1.1-.06,1.26.06.01.11.02.16.02.58,0,.9-.8.36-1.17h0c1.3.35,2.5.98,3.52,1.85-.32,1.24-.91,2.41-1.74,3.4v-.02c0-.39-.32-.65-.65-.65-.16,0-.32.06-.45.18-.41.41-.11,1.09.46,1.11h.05c-.18.19-.37.35-.59.52-.22.19-.45.37-.69.54-.19-.15-.35-.32-.52-.46-1.76-1.78-2.43-4.38-1.73-6.77ZM27.8,26.34h0c-.52,1.95-1.83,3.58-3.63,4.49.13-.43.19-.85.15-1.28l-.11-1.69c0-.13,0-.26.02-.39,1.26-.15,2.47-.54,3.58-1.13ZM24.24,17.71c-.63,2.73.2,5.6,2.19,7.57.07.08.15.15.22.22-1.13.5-2.36.76-3.58.76-3.47,0-6.27,2.8-6.27,6.27l.02-.02c0,.43.06.85.15,1.26-.59.17-1.15.45-1.63.84-1.3-5.16.2-10.63,3.97-14.38,1.34-1.35,3.06-2.23,4.93-2.52ZM18.21,34.89h.03l-.02.02s.05,0,.07,0c.81,0,1.58.31,2.2.84.37.33.67.74.87,1.21h-.06l-1.1.19c-.13.02-.26.03-.39.03-.32,0-.64-.06-.94-.18l-.94-.41c-.08-.03-.16-.05-.24-.05-.1,0-.21.03-.31.07-.16.09-.28.24-.31.43l-.24,1.04c-.09.43-.33.83-.65,1.15l-.78.8-.04.04c-1.39-2.26.23-5.16,2.87-5.16ZM20.2,13.55c-1.25,0-2.52.27-3.71.84-.61.28-.43,1.21.26,1.22.78.02,1.48.43,1.93,1.06l.98,1.48s.02.04.04.06c-.46.33-.89.7-1.3,1.11-4.28,4.28-5.86,10.59-4.08,16.4-1.22,1.86-.97,4.3.59,5.86.13.13.3.19.46.19.04,0,.09,0,.13-.02.22-.04.39-.2.46-.41.07-.16.17-.3.3-.43l.8-.78c.48-.5.84-1.11.98-1.78l.07-.32.26.11c.44.18.91.28,1.39.28.21,0,.42-.02.63-.06l1.1-.16c.06-.02.13-.02.2-.02.11,0,.22.02.32.04.06.02.12.03.18.03.39,0,.7-.34.64-.73-.17-1.08-.71-2.04-1.5-2.76-.85-.74-1.95-1.17-3.08-1.17-.09-.35-.15-.72-.15-1.09,0-2.69,2.13-4.9,4.82-4.97h0c-.02.13-.02.26,0,.39l.11,1.71c.04.74-.26,1.45-.83,1.91v.02c-.46.39-.19,1.15.41,1.15.06,0,.09-.02.13-.02,3.54-.78,6.18-3.73,6.53-7.31l.11-.09c1.74-1.43,2.95-3.41,3.41-5.62.06-.22-.02-.46-.19-.61-1.65-1.54-3.78-2.48-6.05-2.69-1.67-1.83-4-2.81-6.36-2.81Z"/>
  <path class="cls-11" d="M23.13,22.99c-.29,0-.58.17-.63.56-.11.81.45,1.59,1.28,1.71h.09c.78,0,.87-1.15.09-1.26-.13-.02-.2-.13-.19-.26.08-.48-.29-.75-.65-.75Z"/>
  <path class="cls-10" d="M21.81,19.49c-.23,0-.45.12-.58.39-.33.76.02,1.63.78,1.97.09.04.17.06.26.06.26,0,.48-.15.6-.39.13-.31-.02-.7-.33-.83-.11-.06-.17-.19-.11-.3.22-.5-.2-.89-.61-.89Z"/>
  <path class="cls-7" d="M19.94,22.33c-.28,0-.55.16-.61.53-.15.82.39,1.6,1.21,1.75h.11c.78-.02.87-1.13.11-1.28h0v.02c-.06-.02-.09-.05-.13-.09-.04-.06-.06-.11-.04-.17.08-.47-.29-.76-.65-.76Z"/>
  <path class="cls-5" d="M17.93,24.46c-.32,0-.64.22-.64.65,0,.72.57,1.3,1.3,1.3.87,0,.87-1.28,0-1.28l-.02-.02c0-.44-.32-.65-.64-.65Z"/>
  <path class="cls-6" d="M44.61,19.92c.35.56.52,1.21.5,1.86v-.02c-.02.93-.41,1.82-1.09,2.43-.65.59-1.47.88-2.29.88s-1.61-.28-2.25-.85c-.37-.33-.67-.74-.87-1.21h.06l1.09-.18c.13-.02.26-.03.39-.03.32,0,.64.06.94.18l.95.41c.08.03.17.05.25.05.29,0,.56-.19.62-.49l.24-1.04c.09-.43.31-.84.65-1.15l.78-.8.04-.04ZM35.8,29.12h0c-.13.41-.19.85-.15,1.28h-.02l.11,1.71c.02.13,0,.24,0,.37-1.26.15-2.47.54-3.58,1.13.52-1.95,1.84-3.58,3.64-4.49ZM32.11,35.11c.18.15.35.32.5.46,1.78,1.78,2.43,4.38,1.74,6.77v.02c-.63,0-1.26-.06-1.87-.19.69-.11.72-1.1.04-1.26-.05,0-.1-.02-.15-.02-.59,0-.9.79-.37,1.17-1.3-.35-2.5-.98-3.5-1.86.32-1.24.91-2.39,1.72-3.38,0,.38.32.63.65.63.16,0,.32-.06.45-.19.41-.41.13-1.1-.45-1.1h-.08c.2-.19.39-.37.59-.54.24-.19.48-.37.73-.54ZM39.17,42.44l.06.08.98,1.48c.26.37.59.72.97.98-.47.09-.94.14-1.42.14-1.6,0-3.18-.52-4.48-1.51,1.37-.13,2.69-.52,3.9-1.17ZM44.58,18.19c-.26,0-.51.15-.61.43-.08.15-.17.3-.3.43l-.8.78c-.48.5-.83,1.11-.98,1.78l-.08.3-.26-.11c-.45-.2-.94-.29-1.42-.29-.2,0-.41.02-.6.05l-1.1.19c-.07.01-.13.02-.19.02-.12,0-.23-.02-.35-.06-.09-.02-.19-.02-.28-.02-.35.08-.57.39-.52.74.17,1.06.7,2.04,1.5,2.75.83.76,1.93,1.19,3.06,1.19.11.35.17.72.17,1.1,0,2.69-2.13,4.88-4.82,4.97v-.39l-.11-1.71c-.05-.74.26-1.45.84-1.91.48-.39.17-1.15-.39-1.15-.05,0-.1,0-.15.02-1.8.37-3.41,1.34-4.58,2.73-1.11,1.3-1.78,2.89-1.95,4.58l-.11.07c-1.74,1.45-2.95,3.43-3.41,5.64-.04.22.02.45.19.61,1.67,1.54,3.78,2.49,6.05,2.69,1.69,1.82,4.02,2.79,6.39,2.79,1.25,0,2.51-.27,3.68-.83.61-.3.43-1.21-.24-1.22-.78-.04-1.5-.43-1.93-1.07l-.98-1.49-.04-.04c.46-.33.89-.71,1.3-1.11,1.73-1.72,3.06-3.82,3.86-6.14.19-.5-.22-.85-.62-.85-.24,0-.48.13-.58.43-.74,2.13-1.97,4.08-3.56,5.68-1.35,1.34-3.08,2.23-4.95,2.5.63-2.73-.18-5.58-2.17-7.57-.08-.07-.15-.15-.24-.2,1.13-.52,2.36-.78,3.6-.78,3.45,0,6.27-2.8,6.27-6.25,0-.43-.05-.85-.16-1.28.59-.15,1.15-.45,1.65-.81.26,1.06.41,2.15.45,3.26,0,.33.3.61.65.61.37,0,.65-.3.63-.65-.04-1.48-.28-2.93-.7-4.34.46-.72.72-1.58.74-2.45.02-1.28-.46-2.51-1.37-3.41-.13-.13-.29-.19-.45-.19Z"/>
  <path class="cls-4" d="M36.1,34.68c-.76,0-.9,1.14-.1,1.29.06,0,.11.04.15.07.02.06.04.11.04.17-.05.35.19.67.54.72v.02h.09c.32-.02.59-.24.63-.56.13-.82-.45-1.6-1.26-1.71-.03,0-.06,0-.09,0Z"/>
  <path class="cls-8" d="M37.66,38.04c-.61,0-.93.94-.24,1.25.06.02.11.06.13.11.02.05.02.11,0,.16-.15.33,0,.71.33.86h-.02c.09.04.17.05.26.05.26,0,.48-.15.59-.39.33-.76-.02-1.65-.78-1.99-.09-.04-.19-.06-.27-.06Z"/>
  <path class="cls-9" d="M39.27,35.34c-.71,0-.88,1.12-.08,1.28.06,0,.11.04.13.09.04.04.06.09.04.15-.06.35.17.69.52.76h.13c.3,0,.57-.22.63-.52.13-.82-.41-1.59-1.22-1.74-.05-.01-.1-.02-.15-.02Z"/>
  <path class="cls-3" d="M41.33,33.55c-.34,0-.62.29-.62.63s.3.65.65.65t.02.02c.03.4.34.6.65.6s.61-.2.63-.6c0-.72-.57-1.3-1.3-1.3,0,0-.02,0-.03,0Z"/>
  <path class="cls-2" d="M45.54,30.85c-.57,0-.87.69-.46,1.1.13.13.3.19.46.19.33,0,.64-.25.64-.64,0-.35-.28-.65-.63-.65Z"/>
</svg>