<?xml version="1.0" encoding="UTF-8"?>
<svg id="Layer_1" data-name="Layer 1" xmlns="http://www.w3.org/2000/svg" xmlns:xlink="http://www.w3.org/1999/xlink" viewBox="0 0 58.11 57.23">
  <defs>
    <style>
      .cls-1 {
        fill: url(#radial-gradient);
      }

      .cls-1, .cls-2 {
        fill-rule: evenodd;
      }

      .cls-2 {
        fill: url(#radial-gradient-2);
      }
    </style>
    <radialGradient id="radial-gradient" cx="-856.87" cy="693.67" fx="-856.87" fy="693.67" r="4.82" gradientTransform="translate(4161.05 3373.7) scale(4.82 -4.82)" gradientUnits="userSpaceOnUse">
      <stop offset="0" stop-color="#f3d5ab"/>
      <stop offset="1" stop-color="#dc9b3f"/>
    </radialGradient>
    <radialGradient id="radial-gradient-2" cx="87.29" cy="-857.65" fx="87.29" fy="-857.65" r=".95" gradientTransform="translate(-50.44 -801.73) scale(.95 -.95)" gradientUnits="userSpaceOnUse">
      <stop offset="0" stop-color="#f3d5ab"/>
      <stop offset="1" stop-color="#dc9b3f"/>
    </radialGradient>
  </defs>
  <path class="cls-1" d="M41.62,14.32c1.26,0,1.89,1.52,1,2.41-.29.29-.64.42-.99.42-.73,0-1.42-.57-1.42-1.42,0-.78.63-1.41,1.41-1.41ZM44.22,21.02c.45,0,.9.36.91.9,0,.48-.41.89-.91.89l.02.02c-.81,0-1.22-.96-.65-1.54.18-.19.41-.27.63-.27ZM39.23,16.93c.45.91,1.37,1.48,2.39,1.48.15,0,.28,0,.43-.02l.78,1.86c-.5.41-.78,1.02-.78,1.67v.13l-2.62.98c-.5-.72-1.34-1.17-2.23-1.17-.11,0-.22,0-.32.02l-.87-2.3c.72-.5,1.17-1.32,1.19-2.19l2.02-.46ZM37.2,23.14c.73,0,1.42.56,1.42,1.42,0,.78-.63,1.41-1.41,1.41-1.26,0-1.89-1.52-1-2.41.29-.29.64-.41.99-.41ZM15.74,30.84c.22,0,.44.08.62.27.57.56.17,1.54-.63,1.54-.5,0-.89-.41-.89-.91,0-.54.44-.9.9-.9ZM33.43,31.42c.22,0,.45.08.62.26.58.57.17,1.54-.63,1.54-.5,0-.91-.41-.91-.89,0-.55.45-.91.91-.91ZM24.47,36.36c.46,0,.9.36.9.9,0,.5-.39.91-.89.91-.8,0-1.21-.96-.65-1.54.19-.19.41-.27.64-.27ZM37.71,36.78c.5,0,.91.41.91.91,0,.54-.44.89-.9.89-.22,0-.45-.08-.64-.26-.57-.57-.17-1.54.63-1.54ZM17.64,37.2c.46,0,.9.36.9.9,0,.5-.41.91-.89.91-.81-.02-1.2-.98-.65-1.54.19-.19.41-.27.64-.27ZM33.24,41.45c.46,0,.9.36.9.9,0,.5-.41.91-.91.91-.8-.02-1.21-.98-.63-1.54.19-.19.41-.27.64-.27ZM41.6,42.81c.5,0,.89.41.89.91,0,.54-.44.89-.9.89-.22,0-.45-.08-.64-.26-.56-.57-.15-1.54.65-1.54ZM41.61,13.03c-1.4,0-2.66,1.12-2.68,2.66l-2.02.46c-.2-.43-.52-.78-.89-1.04-.13-.1-.27-.15-.4-.15-.56,0-.96.83-.32,1.22,1.15.76.59,2.58-.8,2.58-.28,0-.58-.09-.8-.26-.12-.08-.24-.11-.36-.11-.55,0-.93.76-.38,1.17.45.32.98.48,1.54.48.11,0,.22,0,.31-.02l.87,2.3c-1.49,1-1.6,3.15-.2,4.3l-1.73,3.54c-.11-.02-.22-.02-.33-.02-1.37,0-2.41,1.24-2.15,2.58.21,1.07,1.15,1.79,2.16,1.79.26,0,.53-.05.79-.15l1.69,2.08c-.98,1.45.06,3.41,1.8,3.41.2,0,.41-.04.59-.09l1.63,2.54c-.13.13-.22.28-.3.43l-4.23-.69c-.17-1.16-1.17-1.89-2.19-1.89-.51,0-1.03.18-1.46.57l-5.14-3.02c.04-.15.04-.3.06-.45,0-1.13-.87-2.08-2-2.19-.06,0-.12,0-.18,0-1.06,0-1.96.75-2.16,1.81l-2.69.35c-.35-.8-1.11-1.3-1.99-1.3l-.7-2.37c.89-.61,1.22-1.78.76-2.74-.37-.78-1.15-1.25-1.97-1.25-.21,0-.43.03-.64.1-2.39.72-1.87,4.25.63,4.27l.71,2.37c-1.3.87-1.28,2.78.04,3.64.37.24.78.36,1.18.36,1.01,0,1.96-.7,2.16-1.8l2.69-.33c.37.84,1.17,1.29,1.99,1.29.54,0,1.08-.2,1.51-.61l5.1,3.02c-.04.15-.05.32-.05.48,0,1.37,1.1,2.19,2.21,2.19.76,0,1.51-.38,1.93-1.22l4.25.7c.16,1.18,1.16,1.88,2.17,1.88.59,0,1.18-.24,1.63-.75,1.22-1.41.22-3.62-1.65-3.62-.19,0-.39.02-.57.07l-1.63-2.52c1.26-1.49.07-3.6-1.63-3.6-.27,0-.55.05-.84.17l-1.69-2.08c.61-.91.48-2.12-.32-2.84l1.72-3.56c.2.04.4.07.59.07,1.45,0,2.68-1.18,2.69-2.68-.02-.11-.02-.22-.04-.33l2.64-.98c.44.57,1.08.85,1.72.85.79,0,1.57-.42,1.95-1.22.72-1.45-.33-3.14-1.95-3.14h-.22l-.78-1.85c1.59-1.19,1.39-3.64-.39-4.55-.41-.21-.83-.31-1.24-.31Z"/>
  <path class="cls-2" d="M32.81,15.54c-.57,0-.87.7-.46,1.1.13.13.3.19.46.19.33,0,.64-.25.64-.64,0-.35-.28-.65-.63-.65Z"/>
</svg>