<?xml version="1.0" encoding="UTF-8"?>
<svg id="Layer_1" data-name="Layer 1" xmlns="http://www.w3.org/2000/svg" xmlns:xlink="http://www.w3.org/1999/xlink" viewBox="0 0 58.11 57.23">
  <defs>
    <style>
      .cls-1 {
        fill: url(#radial-gradient);
      }

      .cls-1, .cls-2 {
        fill-rule: evenodd;
      }

      .cls-2 {
        fill: url(#radial-gradient-2);
      }
    </style>
    <radialGradient id="radial-gradient" cx="-847.79" cy="604.67" fx="-847.79" fy="604.67" r="4.64" gradientTransform="translate(3963.31 2834.31) scale(4.64 -4.64)" gradientUnits="userSpaceOnUse">
      <stop offset="0" stop-color="#f3d5ab"/>
      <stop offset="1" stop-color="#dc9b3f"/>
    </radialGradient>
    <radialGradient id="radial-gradient-2" cx="89.06" cy="-970.84" fx="89.06" fy="-970.84" r=".96" gradientTransform="translate(-44.28 -914.91) scale(.96 -.96)" gradientUnits="userSpaceOnUse">
      <stop offset="0" stop-color="#f3d5ab"/>
      <stop offset="1" stop-color="#dc9b3f"/>
    </radialGradient>
  </defs>
  <path class="cls-1" d="M22.24,16.33c.57,0,1.15.07,1.71.2-.87,1.26-1.47,2.71-1.74,4.23-.76.06-1.5.28-2.17.65-.56-1.43-.78-2.99-.63-4.51.91-.39,1.87-.57,2.84-.57ZM25.23,16.95c1.04.46,1.97,1.17,2.71,2.06-.41,1.15-1.3,2.08-2.43,2.52-.61-.37-1.3-.61-2-.72.28-1.39.87-2.71,1.73-3.86ZM34.74,16.95c.85,1.13,1.43,2.45,1.71,3.84-.7.11-1.41.37-2.02.76-1.15-.43-2.04-1.35-2.45-2.49.74-.93,1.69-1.65,2.77-2.12ZM18.06,17.62h0c-.04,1.56.26,3.12.89,4.56-.06.06-.13.11-.19.17h.02c-.39.39-.7.82-.97,1.3-1-.56-1.89-1.26-2.65-2.12.5-1.6,1.5-2.97,2.89-3.91ZM22.66,22.04c.61,0,1.21.13,1.76.39-.37.5-.67,1.04-.85,1.63v-.02c-.28-.22-.46-.52-.56-.87-.13-.43-.35-.82-.65-1.13h.3ZM37.52,22.02c-.3.32-.52.71-.65,1.15v.02c-.09.33-.28.63-.56.87-.18-.59-.48-1.13-.83-1.63.56-.26,1.17-.41,1.78-.41h.26ZM32.32,25.88c.4,0,.71.4.58.8-.08.28-.33.43-.58.43-.16,0-.32-.06-.44-.19-.07-.37.06-.74.3-1.02.05-.01.1-.02.14-.02ZM45.09,23.08c.02.22.04.45.04.65,0,1.15-.19,2.28-.54,3.38-.52.1-1.05.15-1.59.15-.08,0-.16,0-.23,0,.02-.26.04-.54.06-.8,0-.56-.08-1.08-.2-1.6.89-.48,1.72-1.07,2.47-1.78ZM14.85,23.09c.74.69,1.58,1.28,2.49,1.76-.15.52-.22,1.06-.2,1.6,0,.26.02.54.04.81-.61,0-1.21-.05-1.82-.17-.35-1.07-.52-2.23-.52-3.36,0-.22,0-.45.02-.65ZM27.12,25.61c.24,0,.49.08.7.28.24.28.35.65.3,1.02-.12.53-.57.8-1.01.8s-.85-.24-1.01-.74c-.22-.74.37-1.36,1.02-1.36ZM30.77,19.5c.57,1.56,1.8,2.77,3.36,3.32.78.84,1.22,1.95,1.22,3.1,0,2.17-1.03,4.18-2.77,5.46h0c-.72-.89-1.01-2.05-.79-3.18h0c.11.02.24.02.37.02h.08c.57,0,1.11-.2,1.56-.59.63-.59.87-1.54.61-2.62-.04-.22-.2-.41-.43-.46-.36-.12-.71-.17-1.04-.17-.64,0-1.2.21-1.63.6-.65.59-.87,1.47-.67,2.48-.26.83-.3,1.72-.11,2.58h-1.1c.19-.86.15-1.75-.11-2.6.2-1-.04-1.91-.65-2.48-.41-.37-1.01-.58-1.67-.58-.32,0-.66.05-1.01.15-.22.07-.39.26-.45.46-.24,1.07,0,2.04.63,2.63.43.39.99.59,1.56.59h.07c.13,0,.24,0,.37-.02h0c.22,1.15-.08,2.32-.84,3.21-1.76-1.26-2.82-3.32-2.82-5.49,0-1.15.45-2.26,1.22-3.1,1.56-.56,2.78-1.76,3.36-3.32h1.65ZM15.93,28.47h0c.39.04.78.06,1.17.06h.28c.26,1.28.74,2.48,1.43,3.58-1.17-.95-2.12-2.13-2.8-3.47-.02-.06-.04-.11-.08-.17ZM44.05,28.47h0c-.04.06-.05.11-.09.17h-.02c-.67,1.34-1.61,2.52-2.78,3.49.69-1.11,1.17-2.32,1.43-3.6h.3c.39,0,.78-.02,1.17-.06ZM30.92,31.31s.05.02.07.06c.02.02.02.05,0,.07h-.02l-.89,1.17s-.04.03-.06.03c-.02,0-.05,0-.07-.03l-.87-1.17s-.02-.05,0-.07c0-.04.04-.06.05-.06h1.78ZM31.81,32.46s.05.06.09.09c.45.45.45,1.17,0,1.61-.21.21-.49.32-.78.32-.16,0-.33-.04-.48-.11h0v-.6c.17-.09.33-.24.46-.39l.71-.93ZM28.19,32.43l.74.96c.11.15.26.26.41.35v.65c-.17.08-.34.12-.51.12-.91,0-1.55-1.18-.79-1.94.05-.06.11-.09.15-.15ZM29.97,35.51c.35.19.74.3,1.15.3.19,0,.39-.04.57-.07h.02c-.09.13-.19.26-.32.39-.38.38-.88.57-1.37.57s-.99-.19-1.37-.57c-.11-.11-.22-.24-.3-.37h0c.16.03.33.05.49.05.39,0,.78-.09,1.12-.29ZM26.71,34.52l.07.11c-.13,1.89,1.36,3.47,3.24,3.47h.07c1.89-.04,3.36-1.69,3.15-3.58h0c.59,1.34.54,2.89-.15,4.19-.04-.07-.06-.13-.08-.2-.11-.28-.35-.41-.6-.41-.27,0-.53.16-.62.47-.32,1.1-.95,2.06-1.8,2.8-.87-.74-1.5-1.71-1.82-2.8-.09-.3-.35-.45-.61-.45-.24,0-.49.13-.59.4-.04.07-.06.13-.07.2-.69-1.3-.76-2.84-.19-4.19ZM22.21,15.03c-.98,0-1.96.17-2.92.51-3.45,1.22-5.77,4.51-5.75,8.18-.02,1.91.43,3.79,1.3,5.49.84,1.65,2.04,3.08,3.51,4.19.24.18.49.26.74.26.87,0,1.62-1.01,1.01-1.91-1.06-1.58-1.63-3.43-1.67-5.32-.02-1.19.45-2.32,1.26-3.17.3-.3.63-.54,1-.74.52.11.95.5,1.08,1,.22.82.78,1.5,1.52,1.89-.02.17-.02.33-.02.52-.02,2.56,1.21,4.97,3.28,6.49l-.17.2c-1.91,2.39-1.76,5.84.37,8.07.12.13.29.2.45.2.18,0,.36-.08.49-.24.5.8,1.15,1.5,1.91,2.06.11.07.24.11.39.11.13,0,.26-.04.37-.11.76-.56,1.41-1.26,1.91-2.06.08.09.17.15.28.19.08.03.16.04.23.04.16,0,.33-.07.45-.19,2.12-2.23,2.26-5.68.35-8.07-.06-.09-.13-.17-.2-.24,2.04-1.52,3.25-3.91,3.23-6.46,0-.19,0-.35-.02-.52.74-.39,1.3-1.08,1.52-1.89.15-.54.59-.93,1.13-1.02.37.2.72.46,1.02.76.83.85,1.28,1.99,1.26,3.17-.04,1.89-.61,3.75-1.67,5.32-.56.8.02,1.89.98,1.91.28-.02.54-.09.74-.26,1.47-1.11,2.67-2.56,3.5-4.19.87-1.71,1.32-3.6,1.32-5.51,0-2.24-.87-4.4-2.43-6.03v.02c-.15-.16-.31-.22-.47-.22-.5,0-.93.65-.45,1.11.8.84,1.39,1.84,1.74,2.95-.76.85-1.65,1.56-2.65,2.12-.26-.48-.57-.91-.96-1.3-.06-.05-.11-.11-.17-.17.37-.89.63-1.8.76-2.74.07-.47-.29-.74-.64-.74-.29,0-.57.17-.62.56-.11.74-.32,1.45-.57,2.15-.67-.37-1.41-.59-2.17-.65-.28-1.52-.87-2.97-1.75-4.23.56-.15,1.13-.2,1.71-.2.19,0,.39,0,.57.02.02,0,.05,0,.07,0,.79,0,.87-1.21.04-1.28-.24-.02-.46-.02-.7-.02h-.06c-2.57,0-5.03,1.17-6.65,3.17h-2.06c-1.69-2.05-4.17-3.18-6.72-3.18Z"/>
  <path class="cls-2" d="M41.16,15.8c-.57,0-.87.7-.46,1.11.13.13.29.19.45.19.34,0,.66-.26.66-.65,0-.35-.3-.65-.65-.65Z"/>
</svg>