<?xml version="1.0" encoding="UTF-8"?>
<svg id="Layer_1" data-name="Layer 1" xmlns="http://www.w3.org/2000/svg" xmlns:xlink="http://www.w3.org/1999/xlink" viewBox="0 0 58.11 57.23">
  <defs>
    <style>
      .cls-1 {
        fill: url(#radial-gradient);
      }

      .cls-1, .cls-2 {
        fill-rule: evenodd;
      }

      .cls-2 {
        fill: url(#radial-gradient-2);
      }
    </style>
    <radialGradient id="radial-gradient" cx="-856.82" cy="546.77" fx="-856.82" fy="546.77" r="4.82" gradientTransform="translate(4159.87 2663.88) scale(4.82 -4.82)" gradientUnits="userSpaceOnUse">
      <stop offset="0" stop-color="#f3d5ab"/>
      <stop offset="1" stop-color="#dc9b3f"/>
    </radialGradient>
    <radialGradient id="radial-gradient-2" cx="80.13" cy="-1104.57" fx="80.13" fy="-1104.57" r=".95" gradientTransform="translate(-49.44 -1038.73) scale(.95 -.95)" gradientUnits="userSpaceOnUse">
      <stop offset="0" stop-color="#f3d5ab"/>
      <stop offset="1" stop-color="#dc9b3f"/>
    </radialGradient>
  </defs>
  <path class="cls-1" d="M44.55,13.84l-2.08,5.75-1.1-2.28c-.05-.13-.17-.24-.3-.3l-2.3-1.1,5.77-2.08ZM35.41,19.05c.59.41,1.15.85,1.67,1.35l-1.61,1.61c-.54-.48-1.11-.93-1.71-1.32l1.65-1.65ZM37.99,21.3c.48.54.93,1.1,1.35,1.69l-1.65,1.65c-.41-.61-.83-1.17-1.32-1.71l1.61-1.63ZM19.55,17.83h0c1.32,1.06,2.93,1.71,4.62,1.82h-.02l3.15.22c2.69.18,5.25,1.26,7.25,3.06l-12.41,12.41-2.6-17.51ZM35.46,23.84c1.8,2,2.88,4.56,3.06,7.25l.22,3.14c.11,1.69.76,3.3,1.82,4.62l-17.51-2.6,12.41-12.41ZM18.12,36.77l2.24.35-2.6,2.6-2.24-.35,2.6-2.6ZM40.05,24.1c1.26,2.23,1.95,4.73,2.02,7.29l.05,2.75c.06,2.06.69,4.04,1.82,5.75-.8-.37-1.52-.89-2.12-1.54v-.02c-1.06-1.15-1.69-2.62-1.8-4.17l-.22-3.14c-.11-1.84-.61-3.6-1.45-5.23l1.69-1.69ZM21.27,38.03l.35,2.23-2.6,2.6-.35-2.23,2.6-2.6ZM17.3,11.98c-.37,0-.71.32-.65.75.19,1.22.65,2.38,1.35,3.42l2.93,19.77-2.93-.46s-.05,0-.08,0c-.18,0-.35.06-.48.19l-3.71,3.71c-.17.17-.24.43-.17.65.07.24.28.41.52.45l3.32.54.52,3.32c.06.34.35.54.64.54.16,0,.32-.06.45-.19l3.71-3.71c.15-.15.2-.35.19-.54l-.46-2.95,19.79,2.93c1.02.7,2.19,1.17,3.42,1.35h.09c.24-.02.46-.15.57-.35.11-.26.08-.56-.13-.76h0l.02.02c-1.74-1.74-2.75-4.08-2.8-6.55l-.08-2.76c-.09-4.06-1.67-7.96-4.45-10.93l1.71-1.71v-.02l1.37,2.85c.11.22.33.37.58.37h.04c.26-.02.48-.19.57-.43l3.04-8.48c.16-.45-.19-.87-.61-.87-.07,0-.13,0-.2.03l-8.48,3.06c-.54.18-.57.93-.07,1.17l2.86,1.37-1.71,1.71c-2.23-2.06-4.97-3.47-7.94-4.08-.05,0-.09-.01-.13-.01-.71,0-.89,1.08-.12,1.27,1.58.32,3.1.91,4.51,1.71l-1.69,1.67c-1.61-.83-3.39-1.34-5.21-1.45l-3.15-.22c-2.48-.17-4.67-1.67-5.73-3.91h0c1.67,1.11,3.62,1.72,5.62,1.8.82,0,.85-1.21.04-1.28-2.41-.09-4.71-1.09-6.42-2.8-.13-.13-.29-.19-.45-.19Z"/>
  <path class="cls-2" d="M27.04,15.05c-.58,0-.86.69-.46,1.1.13.13.29.19.45.19.34,0,.66-.26.66-.63,0-.35-.3-.65-.65-.65Z"/>
</svg>