<?xml version="1.0" encoding="UTF-8"?>
<svg id="Layer_1" data-name="Layer 1" xmlns="http://www.w3.org/2000/svg" xmlns:xlink="http://www.w3.org/1999/xlink" viewBox="0 0 58.11 57.23">
  <defs>
    <style>
      .cls-1 {
        fill: url(#radial-gradient);
      }

      .cls-1, .cls-2, .cls-3, .cls-4, .cls-5 {
        fill-rule: evenodd;
      }

      .cls-2 {
        fill: url(#radial-gradient-5);
      }

      .cls-3 {
        fill: url(#radial-gradient-4);
      }

      .cls-4 {
        fill: url(#radial-gradient-3);
      }

      .cls-5 {
        fill: url(#radial-gradient-2);
      }
    </style>
    <radialGradient id="radial-gradient" cx="-856.86" cy="473.44" fx="-856.86" fy="473.44" r="4.82" gradientTransform="translate(4160.76 2310.28) scale(4.82 -4.82)" gradientUnits="userSpaceOnUse">
      <stop offset="0" stop-color="#f3d5ab"/>
      <stop offset="1" stop-color="#dc9b3f"/>
    </radialGradient>
    <radialGradient id="radial-gradient-2" cx="-836.3" cy="435.93" fx="-836.3" fy="435.93" r="4.43" gradientTransform="translate(3733.66 1958.47) scale(4.43 -4.43)" gradientUnits="userSpaceOnUse">
      <stop offset="0" stop-color="#f3d5ab"/>
      <stop offset="1" stop-color="#dc9b3f"/>
    </radialGradient>
    <radialGradient id="radial-gradient-3" cx="-531.98" cy="-124.26" fx="-531.98" fy="-124.26" r="2" gradientTransform="translate(1089.22 -219.8) scale(2 -2)" gradientUnits="userSpaceOnUse">
      <stop offset="0" stop-color="#f3d5ab"/>
      <stop offset="1" stop-color="#dc9b3f"/>
    </radialGradient>
    <radialGradient id="radial-gradient-4" cx="-787.46" cy="346.44" fx="-787.46" fy="346.44" r="3.71" gradientTransform="translate(2948.67 1311.86) scale(3.71 -3.71)" gradientUnits="userSpaceOnUse">
      <stop offset="0" stop-color="#f3d5ab"/>
      <stop offset="1" stop-color="#dc9b3f"/>
    </radialGradient>
    <radialGradient id="radial-gradient-5" cx="94.97" cy="-1230.46" fx="94.97" fy="-1230.46" r=".95" gradientTransform="translate(-49.51 -1157.78) scale(.95 -.95)" gradientUnits="userSpaceOnUse">
      <stop offset="0" stop-color="#f3d5ab"/>
      <stop offset="1" stop-color="#dc9b3f"/>
    </radialGradient>
  </defs>
  <path class="cls-1" d="M29.98,11.46c-4.73,0-9.41,2.04-12.64,5.92-5.44,6.53-4.99,16.12,1.02,22.13,3.2,3.19,7.41,4.81,11.63,4.81,3.71,0,7.44-1.25,10.5-3.79,6.53-5.44,7.85-14.95,3.02-21.95-.14-.19-.32-.27-.5-.27-.45,0-.87.49-.56,1,4.43,6.46,3.23,15.21-2.8,20.22-2.81,2.34-6.24,3.5-9.66,3.5-3.89,0-7.77-1.5-10.72-4.45-5.53-5.53-5.94-14.36-.93-20.39,2.97-3.57,7.27-5.45,11.64-5.45,2.97,0,5.97.87,8.58,2.67.13.09.26.13.38.13.55,0,.95-.81.34-1.19-2.83-1.95-6.08-2.9-9.3-2.9Z"/>
  <path class="cls-5" d="M29.97,15.33c6.94,0,12.58,5.62,12.58,12.58,0,5.08-3.06,9.67-7.75,11.61-1.56.65-3.2.96-4.82.96-3.27,0-6.49-1.28-8.89-3.68-3.6-3.6-4.67-9-2.74-13.71,1.95-4.69,6.55-7.75,11.63-7.75ZM29.97,14.03c-3.67,0-7.22,1.47-9.79,4.06-4.69,4.68-5.42,12-1.73,17.51,2.64,3.94,7.01,6.16,11.53,6.16,1.78,0,3.57-.34,5.29-1.06,6.12-2.52,9.59-9.02,8.29-15.51-1.28-6.49-6.98-11.17-13.6-11.17Z"/>
  <path class="cls-4" d="M25.14,27.19c.51,0,1.02.24,1.32.81l.02.02c.11.22.19.46.19.72,0,1.01-.79,1.56-1.57,1.56-.65,0-1.29-.37-1.49-1.17-.3-1.14.61-1.94,1.53-1.94ZM25.16,25.92c-1.44,0-2.87,1.06-2.87,2.84,0,1.59,1.29,2.82,2.81,2.82.23,0,.47-.03.72-.09,1.78-.45,2.67-2.45,1.8-4.08-.56-1.02-1.51-1.48-2.46-1.48Z"/>
  <path class="cls-3" d="M30.68,21.04h.05c.72,0,1.41.41,1.74,1.06.46.87.3,2.02-.5,3.23-.37.54-.69,1.02-1,1.47-.2.3-.39.57-.57.85-.11-.5-.3-1-.54-1.45-.93-1.78-1.13-3.36-.58-4.34.29-.5.81-.82,1.4-.82ZM30.67,18.46h.07c1.67.02,3.21.94,4.01,2.43.93,1.71.7,3.84-.63,5.84-.37.56-.7,1.06-1.02,1.52-1.35,1.97-1.99,3.01-2.02,4.32,0,1.28,1.02,2.3,2.3,2.32,1.59,0,2.71-1.61,2.13-3.1-.17-.45.17-.88.6-.88.09,0,.18.02.28.06.15.05.26.18.33.35.89,2.34-.84,4.84-3.34,4.84-.93,0-1.82-.35-2.48-1-.67-.67-1.06-1.56-1.1-2.51,0-1.8.89-3.15,2.24-5.14.32-.46.65-.95,1-1.48,1.08-1.63,1.28-3.25.57-4.55-.57-1.06-1.67-1.72-2.87-1.74-1.06,0-2.04.56-2.56,1.47-.8,1.39-.59,3.38.56,5.57,1.59,2.97-.76,6.1-3.61,6.1-.69,0-1.42-.19-2.12-.61-1.6-.95-2.36-2.84-1.86-4.64.48-1.77,2.09-3.01,3.93-3.01h.04c.06,0,.11,0,.16,0,.15,0,.3.02.45.04.03,0,.06,0,.09,0,.37,0,.69-.33.64-.71-.16-1.17.04-2.37.61-3.4.73-1.3,2.12-2.11,3.61-2.11ZM30.73,17.18c-1.99,0-3.8,1.04-4.79,2.77v-.02c-.59,1.06-.87,2.23-.82,3.43h-.04c-3.71,0-6.31,3.7-5.07,7.2.82,2.28,2.93,3.6,5.11,3.6,1.18,0,2.39-.39,3.41-1.22.14,2.57,2.28,4.56,4.83,4.56.06,0,.12,0,.17,0,2.63-.09,4.71-2.26,4.69-4.9,0-.59-.11-1.17-.33-1.73-.3-.76-1.02-1.22-1.79-1.22-.23,0-.45.04-.68.12-.98.39-1.48,1.48-1.13,2.47.05.11.07.24.07.35,0,.56-.45,1.02-1,1.02-.57-.02-1.02-.48-1.02-1.06.04-.87.5-1.67,1.8-3.58.32-.45.67-.96,1.04-1.54,1.59-2.41,1.84-5.03.69-7.16-1.02-1.89-2.99-3.08-5.14-3.1Z"/>
  <path class="cls-2" d="M41.14,16.09c-.57,0-.85.69-.45,1.09.13.13.29.2.45.2.33,0,.65-.25.65-.64,0-.35-.3-.65-.65-.65Z"/>
</svg>