<?xml version="1.0" encoding="UTF-8"?>
<svg id="Layer_1" data-name="Layer 1" xmlns="http://www.w3.org/2000/svg" xmlns:xlink="http://www.w3.org/1999/xlink" viewBox="0 0 58.11 57.23">
  <defs>
    <style>
      .cls-1 {
        fill: #ebb871;
      }

      .cls-1, .cls-2, .cls-3 {
        fill-rule: evenodd;
      }

      .cls-2 {
        fill: url(#radial-gradient);
      }

      .cls-3 {
        fill: url(#radial-gradient-2);
      }
    </style>
    <radialGradient id="radial-gradient" cx="-906.37" cy="767.06" fx="-906.37" fy="767.06" r="4.82" gradientTransform="translate(4399.56 3728.03) scale(4.82 -4.82)" gradientUnits="userSpaceOnUse">
      <stop offset="0" stop-color="#f3d5ab"/>
      <stop offset="1" stop-color="#dc9b3f"/>
    </radialGradient>
    <radialGradient id="radial-gradient-2" cx="-280.23" cy="-188.17" fx="-280.23" fy="-188.17" r="1.36" gradientTransform="translate(409.87 -223.96) scale(1.36 -1.36)" gradientUnits="userSpaceOnUse">
      <stop offset="0" stop-color="#f3d5ab"/>
      <stop offset="1" stop-color="#dc9b3f"/>
    </radialGradient>
  </defs>
  <path class="cls-2" d="M29.89,14.84c2.89,0,5.51,1.73,6.66,4.4-1.71.19-3.38.63-4.93,1.35-.48-.48-1.11-.72-1.73-.72s-1.25.24-1.74.72c-1.56-.72-3.23-1.17-4.92-1.35,1.13-2.67,3.75-4.4,6.64-4.4h.02ZM29.87,21.16c.67,0,1.19.54,1.19,1.19,0,.72-.59,1.2-1.2,1.2-.29,0-.58-.11-.82-.34-.76-.76-.22-2.04.84-2.04ZM22.95,20.51s.06,0,.09,0c1.54.17,3.04.56,4.43,1.19-.11.43-.11.87,0,1.3-1.39.63-2.89,1.04-4.43,1.19-.03,0-.06,0-.09,0-.5,0-.93-.41-.93-.93v-1.82c0-.52.43-.93.93-.93ZM36.77,20.51c.23,0,.46.08.65.24.2.16.32.43.3.69v1.82c.02.52-.4.94-.9.94-.04,0-.08,0-.12,0-1.54-.15-3.02-.56-4.43-1.19.11-.43.11-.86,0-1.28,1.41-.63,2.89-1.04,4.43-1.21.03,0,.05,0,.08,0ZM31.63,24.11c1.26.59,2.61,1,3.99,1.22v3.32c.56,2.54-.74,5.1-3.12,6.18-.73.33-1.49.48-2.25.48-1.7,0-3.37-.79-4.43-2.24-1.08-1.22-1.65-2.78-1.67-4.41v-3.32c1.39-.22,2.73-.65,3.99-1.22.48.47,1.11.71,1.75.71s1.26-.24,1.74-.71ZM36.9,25.71l2.32,7.16c-.8.22-1.35.97-1.37,1.8v.71h-1.34c-1.04,0-1.87.81-1.87,1.85h-.02v.78c-.7-.26-1.17-.93-1.17-1.67v-1.1c.54-.37,1.04-.81,1.48-1.32,1.26-1.47,1.97-3.34,1.97-5.27v-2.95ZM22.88,25.67v2.99c0,2.61,1.3,5.08,3.45,6.58v1.1c0,.87-.63,1.59-1.47,1.74l-6.32,1.08,4.34-13.48ZM44.47,34.09c.32,0,.57.26.57.57h-.02v7.31c0,.32-.26.57-.57.57h-1.35v-5.32c0-1.04-.83-1.85-1.87-1.85h-2.08v-.71c0-.32.26-.57.57-.57h4.75ZM32.17,35.97v.37c-.02,1.28.8,2.43,2,2.88-1.04,2.15-2.5,4.1-4.28,5.71-1.8-1.61-3.26-3.56-4.3-5.71,1.22-.45,2.02-1.6,2.02-2.88v-.37c.7.3,1.45.52,2.21.61h.17c.76-.09,1.48-.3,2.19-.61ZM34.62,41.1v3.43c0,.2.04.39.09.59h-3.17c1.19-1.21,2.23-2.56,3.08-4.03ZM41.22,36.65c.33,0,.59.26.59.57v7.31c0,.32-.26.59-.59.59h-4.73c-.33,0-.59-.28-.57-.59v-7.31c0-.32.26-.57.57-.57h4.73ZM44.56,43.85l.3,1.28h-1.85c.05-.2.09-.39.09-.59v-.69h1.47ZM29.89,13.54c-3.75,0-7.07,2.47-8.14,6.07-.61.41-.98,1.1-.98,1.84v1.82c0,.74.35,1.43.96,1.83l-4.67,14.51c-1.52.69-2.64,2.04-3.02,3.66l-.56,2.36c-.09.41.2.8.61.8h3.67c.87,0,.87-1.28,0-1.28h-2.84l.37-1.58c.32-1.32,1.24-2.39,2.5-2.88h.02c.26-.11.52-.19.8-.24l5.7-.97c.97,2.1,2.3,4.01,3.93,5.66h-4.69c-.85,0-.85,1.28,0,1.28h22.13c.43,0,.72-.39.63-.8l-.56-2.3c.35-.35.57-.83.57-1.34v-7.31c-.02-1.04-.85-1.87-1.87-1.87h-3.9l-2.48-7.7c.59-.41.96-1.09.96-1.83v-1.82c0-.74-.37-1.43-.98-1.84-1.1-3.6-4.4-6.07-8.16-6.07Z"/>
  <path class="cls-3" d="M28.91,30.35c-.5,0-.92.64-.45,1.11.4.39.92.58,1.44.58s1.03-.2,1.42-.58c.47-.47.04-1.11-.45-1.11-.15,0-.31.06-.45.2-.14.15-.33.22-.51.22s-.38-.07-.53-.22-.3-.2-.45-.2Z"/>
  <path class="cls-1" d="M20.65,45.13c-.56,0-.86.69-.45,1.1.13.13.29.19.45.19.33,0,.65-.26.65-.65,0-.35-.3-.63-.65-.63Z"/>
</svg>