<?xml version="1.0" encoding="UTF-8"?>
<svg id="Layer_1" data-name="Layer 1" xmlns="http://www.w3.org/2000/svg" viewBox="0 0 58.11 57.23">
  <defs>
    <style>
      .cls-1 {
        fill: #ebb871;
        fill-rule: evenodd;
      }
    </style>
  </defs>
  <path class="cls-1" d="M29.87,13.02c-3.23,0-6.47.95-9.29,2.89-.6.39-.21,1.2.33,1.2.12,0,.26-.04.39-.14,2.61-1.79,5.6-2.66,8.56-2.66,4.36,0,8.67,1.88,11.64,5.46,4.99,6.01,4.58,14.84-.95,20.37-2.94,2.94-6.81,4.43-10.7,4.43-3.42,0-6.86-1.16-9.67-3.5-6.01-4.99-7.22-13.75-2.78-20.2.34-.5-.09-1.01-.54-1.01-.19,0-.37.08-.51.29-3.62,5.25-3.86,12.13-.63,17.62,2.97,5.06,8.39,8.12,14.18,8.12.49,0,.99-.02,1.49-.07,6.34-.59,11.8-4.79,13.95-10.78,2.17-5.99.67-12.7-3.84-17.21v.02c-3.18-3.18-7.39-4.82-11.63-4.82Z"/>
  <path class="cls-1" d="M29.89,29.7c2.3,0,3.47,2.8,1.83,4.44-.53.53-1.19.77-1.83.77-1.34,0-2.62-1.04-2.62-2.61.02-1.43,1.17-2.6,2.62-2.6ZM29.92,28.41c-2,0-3.93,1.55-3.93,3.9,0,2.13,1.74,3.88,3.9,3.88,3.45,0,5.17-4.19,2.74-6.64-.79-.78-1.76-1.14-2.71-1.14Z"/>
  <path class="cls-1" d="M36.17,23.35c.84,0,.84,1.28,0,1.28-.02,0-.04,0-.05,0-.63,0-1.22.35-1.5.93-.35.67-.85,1.28-1.47,1.74-.32.26-.32.74,0,1,1.69,1.37,2.34,3.67,1.59,5.73-.72,2.06-2.67,3.45-4.86,3.45-4.86,0-7.03-6.1-3.26-9.18.31-.26.31-.74,0-1-.61-.46-1.1-1.06-1.45-1.74-.3-.57-.87-.93-1.52-.93-.02,0-.04,0-.05,0-.84,0-.84-1.28,0-1.28.02,0,.04,0,.05,0,1.11,0,2.13.61,2.65,1.61.75,1.45,2.16,2.17,3.58,2.17s2.83-.72,3.58-2.17c.52-1,1.54-1.61,2.65-1.61.02,0,.04,0,.05,0ZM36.19,22.07h-.07c-1.59,0-3.06.87-3.79,2.3-.52.98-1.48,1.47-2.45,1.47s-1.93-.49-2.45-1.47c-.72-1.43-2.19-2.3-3.78-2.3-1.04.04-1.87.89-1.87,1.93s.83,1.87,1.87,1.91c.15,0,.3.09.37.24.32.61.72,1.17,1.22,1.67-3.97,4.08-1.08,10.94,4.64,10.94,2.6,0,4.93-1.56,5.94-3.93,1.02-2.39.5-5.16-1.32-7.01.5-.5.93-1.06,1.24-1.67.08-.15.2-.24.37-.24h.07c1.06,0,1.92-.86,1.92-1.91s-.85-1.93-1.92-1.93Z"/>
  <path class="cls-1" d="M29.89,16.88c5.08,0,9.66,3.06,11.61,7.75,1.95,4.71.87,10.13-2.73,13.73-2.41,2.41-5.63,3.69-8.9,3.69-1.62,0-3.26-.31-4.81-.96-4.69-1.95-7.77-6.55-7.77-11.63.02-6.94,5.64-12.58,12.6-12.58ZM29.9,15.59c-.9,0-1.81.09-2.72.27-6.49,1.28-11.15,6.97-11.15,13.6-.02,3.67,1.45,7.22,4.04,9.81,2.69,2.68,6.24,4.06,9.82,4.06,2.66,0,5.34-.77,7.69-2.33,5.51-3.69,7.64-10.72,5.1-16.85-2.17-5.25-7.27-8.56-12.79-8.56Z"/>
  <path class="cls-1" d="M18.72,17.64c-.58,0-.85.7-.46,1.1.13.13.3.19.46.19.33,0,.65-.25.65-.64,0-.35-.3-.65-.65-.65Z"/>
</svg>