<?xml version="1.0" encoding="UTF-8"?>
<svg id="Layer_1" data-name="Layer 1" xmlns="http://www.w3.org/2000/svg" viewBox="0 0 58.11 57.23">
  <defs>
    <style>
      .cls-1 {
        fill: #ebb871;
        fill-rule: evenodd;
      }
    </style>
  </defs>
  <path class="cls-1" d="M30,17.27c.22,0,.45.08.63.26.56.57.17,1.54-.65,1.54-.48,0-.89-.41-.89-.89,0-.55.44-.91.91-.91ZM33.66,21.15c.46,0,.91.36.91.91,0,.48-.41.89-.91.89-.8,0-1.2-.96-.63-1.54.18-.18.41-.26.63-.26ZM25.49,22.69c.5,0,.89.41.89.91,0,.54-.44.9-.9.9-.22,0-.44-.08-.62-.27-.57-.56-.16-1.54.63-1.54ZM38.56,23.31c.22,0,.45.08.64.27.56.56.17,1.52-.65,1.52-.48,0-.89-.41-.89-.89,0-.54.44-.9.9-.9ZM30.38,26.22c.73,0,1.42.56,1.42,1.42,0,.78-.63,1.41-1.43,1.41-1.24,0-1.87-1.52-.98-2.41.29-.29.64-.41.99-.41ZM21.89,27.43c.46,0,.9.36.92.9,0,.5-.41.89-.91.91-.8,0-1.21-.98-.63-1.54.18-.19.4-.27.62-.27ZM15.63,28.8c.46,0,.9.36.9.9,0,.5-.41.91-.89.91-.81-.02-1.21-.98-.65-1.54.19-.19.41-.27.64-.27ZM40.4,30.25c.35,0,.7.13.99.41.89.89.26,2.41-1,2.41-.78,0-1.41-.63-1.41-1.41,0-.85.7-1.42,1.42-1.42ZM28.32,34.36c.46,0,.9.36.9.9,0,.5-.39.91-.89.91-.8,0-1.21-.98-.65-1.54.19-.19.41-.27.64-.27ZM44.12,39.57c.46,0,.91.36.91.91,0,.48-.41.89-.91.89-.8,0-1.21-.97-.63-1.54.18-.18.41-.26.63-.26ZM23.37,15.28c-.49,0-.93.63-.47,1.1.57.56.56,1.48-.02,2.02-.27.26-.61.39-.96.39-.39,0-.78-.16-1.06-.48-.14-.17-.31-.24-.48-.24-.5,0-.95.64-.46,1.11.51.57,1.22.88,1.96.88.26,0,.51-.04.77-.12l1.24,2.15c-.7.76-.78,1.91-.17,2.76l-1.08,1.41c-.25-.09-.51-.14-.76-.14-1.09,0-2.07.83-2.17,2.01l-2.19.48c-.44-.78-1.15-1.12-1.85-1.12-1.26,0-2.52,1.09-2.17,2.66.21,1.01,1.1,1.71,2.11,1.71.05,0,.1,0,.15,0,1.07-.07,1.95-.91,2.04-2l2.19-.46c.4.71,1.14,1.11,1.9,1.11.41,0,.82-.11,1.19-.35,1.06-.67,1.32-2.1.58-3.12l1.07-1.41c.24.09.5.13.74.13,1.19-.04,2.12-1,2.12-2.19s-.93-2.13-2.12-2.17c-.15,0-.32.02-.48.05l-1.24-2.15c.32-.3.56-.67.7-1.08l3.39.3c.17,1.06,1.08,1.82,2.13,1.82.32,0,.63-.08.91-.2l.89.78c-.2.33-.32.72-.32,1.11,0,1.34,1.08,2.19,2.2,2.19.6,0,1.22-.25,1.68-.8l1.04.57v.41l-3.84,1.62c-.53-.72-1.34-1.08-2.16-1.08-.74,0-1.49.3-2.03.91-1.13,1.3-.78,3.3.72,4.14l-.81,3.08c-2.51.09-2.91,3.64-.5,4.29.2.05.39.08.59.08.85,0,1.64-.5,1.99-1.3.43-.98.07-2.15-.84-2.73l.84-3.08h.05c1.48,0,2.69-1.21,2.69-2.71,0-.13,0-.28-.04-.41l3.84-1.62c.39.46.96.74,1.56.78l.71,2.89c-2.5,1.3-1.58,5.08,1.22,5.08h.02c.15,0,.3,0,.45-.04l1.89,4.47c-1.65,1.39-.49,3.87,1.37,3.87.25,0,.51-.04.78-.14,1-.37,1.58-1.39,1.41-2.43-.19-1.04-1.1-1.8-2.15-1.8-.07,0-.15,0-.22.02l-1.91-4.47c2.08-1.56.98-4.86-1.61-4.86l-.7-2.89c1.17-.7,1.43-2.28.54-3.3-.43-.5-1.04-.76-1.65-.76s-1.25.27-1.69.8l-1.06-.57v-.2c0-1.26-1.04-2.18-2.19-2.18-.3,0-.61.06-.91.2l-.87-.78c.65-1.08.26-2.47-.86-3.06-.32-.16-.66-.24-1-.24-.84,0-1.65.48-2.01,1.3l-3.45-.32c-.08-.56-.33-1.06-.73-1.47-.14-.14-.3-.2-.45-.2Z"/>
  <path class="cls-1" d="M20.5,15.23c-.57,0-.87.69-.46,1.1.13.13.29.19.45.19.33,0,.65-.26.65-.65,0-.35-.28-.63-.63-.63Z"/>
</svg>