<?xml version="1.0" encoding="UTF-8"?>
<svg id="Layer_1" data-name="Layer 1" xmlns="http://www.w3.org/2000/svg" xmlns:xlink="http://www.w3.org/1999/xlink" viewBox="0 0 58.11 57.23">
  <defs>
    <style>
      .cls-1 {
        fill: url(#radial-gradient);
      }

      .cls-1, .cls-2, .cls-3 {
        fill-rule: evenodd;
      }

      .cls-2 {
        fill: url(#radial-gradient-3);
      }

      .cls-3 {
        fill: url(#radial-gradient-2);
      }
    </style>
    <radialGradient id="radial-gradient" cx="-889.69" cy="520.41" fx="-889.69" fy="520.41" r="4.53" gradientTransform="translate(4063.94 2385.66) scale(4.53 -4.53)" gradientUnits="userSpaceOnUse">
      <stop offset="0" stop-color="#f3d5ab"/>
      <stop offset="1" stop-color="#dc9b3f"/>
    </radialGradient>
    <radialGradient id="radial-gradient-2" cx="-583.02" cy="-6.36" fx="-583.02" fy="-6.36" r="2.06" gradientTransform="translate(1215.63 16.07) scale(2.06 -2.06)" gradientUnits="userSpaceOnUse">
      <stop offset="0" stop-color="#f3d5ab"/>
      <stop offset="1" stop-color="#dc9b3f"/>
    </radialGradient>
    <radialGradient id="radial-gradient-3" cx="81.09" cy="-1123.35" fx="81.09" fy="-1123.35" r=".95" gradientTransform="translate(-54.34 -1040.45) scale(.95 -.95)" gradientUnits="userSpaceOnUse">
      <stop offset="0" stop-color="#f3d5ab"/>
      <stop offset="1" stop-color="#dc9b3f"/>
    </radialGradient>
  </defs>
  <path class="cls-1" d="M44.14,13.26c.46,0,.91.36.91.91,0,.48-.41.89-.89.89-.81,0-1.22-.97-.65-1.54.19-.18.41-.26.63-.26ZM37.22,23.87c.46,0,.9.35.9.89,0,.5-.41.91-.89.91-.81,0-1.2-.97-.65-1.54.19-.18.41-.26.64-.26ZM30.73,29.25c.73,0,1.42.57,1.42,1.42,0,.78-.63,1.41-1.41,1.41-1.26,0-1.89-1.52-1-2.41.29-.29.64-.42.99-.42ZM23.96,41.77c.46,0,.9.36.9.9,0,.5-.41.89-.89.89-.81,0-1.21-.97-.65-1.52.19-.19.41-.27.64-.27ZM44.13,11.98c-1.87,0-2.88,2.19-1.65,3.6l-4.66,7.09c-.21-.06-.42-.09-.62-.09-1.52,0-2.66,1.61-1.96,3.11l-3.02,2.73c-.47-.32-.99-.46-1.51-.46-1.09,0-2.14.66-2.54,1.8l-2.32-.24s-.05,0-.07,0c-.79,0-.89,1.19-.06,1.28l2.32.24c.09.59.37,1.17.82,1.58l-4.45,7.9c-.15-.02-.31-.04-.46-.04h-.02c-2.36,0-3.05,3.23-.87,4.17.32.14.62.2.92.2,1.74,0,2.95-2.2,1.55-3.69l4.47-7.9c.25.07.5.1.74.1,1.93,0,3.37-2.12,2.36-3.98l3.01-2.73c.37.21.75.31,1.1.31,1.66,0,2.94-2.04,1.68-3.59l4.68-7.1c.2.05.39.08.58.08,1.06,0,2-.78,2.14-1.9.18-1.3-.84-2.47-2.15-2.47Z"/>
  <path class="cls-3" d="M15.62,28.24c.46,0,.91.36.91.91,0,.48-.41.89-.89.89-.81,0-1.21-.96-.65-1.54.18-.18.41-.26.63-.26ZM15.65,26.96c-1.03,0-2.06.67-2.19,1.96-.09,1.08.59,2.06,1.63,2.34.18.04.36.07.53.07.87,0,1.67-.51,2.03-1.33l2.34.22h.08c.8-.02.85-1.19.05-1.28l-2.34-.22c-.23-1.18-1.18-1.76-2.13-1.76Z"/>
  <path class="cls-2" d="M22.93,29.24c-.57,0-.87.69-.46,1.09.13.13.29.19.45.19.33,0,.65-.26.65-.64s-.28-.65-.63-.65Z"/>
</svg>