<?xml version="1.0" encoding="UTF-8"?>
<svg id="Layer_1" data-name="Layer 1" xmlns="http://www.w3.org/2000/svg" xmlns:xlink="http://www.w3.org/1999/xlink" viewBox="0 0 58.11 57.23">
  <defs>
    <style>
      .cls-1 {
        fill: url(#radial-gradient);
      }

      .cls-1, .cls-2, .cls-3, .cls-4, .cls-5 {
        fill-rule: evenodd;
      }

      .cls-2 {
        fill: url(#radial-gradient-5);
      }

      .cls-3 {
        fill: url(#radial-gradient-4);
      }

      .cls-4 {
        fill: url(#radial-gradient-3);
      }

      .cls-5 {
        fill: url(#radial-gradient-2);
      }
    </style>
    <radialGradient id="radial-gradient" cx="-635.92" cy="385.68" fx="-635.92" fy="385.68" r="3.03" gradientTransform="translate(1956.18 1193.61) scale(3.03 -3.03)" gradientUnits="userSpaceOnUse">
      <stop offset="0" stop-color="#f3d5ab"/>
      <stop offset="1" stop-color="#dc9b3f"/>
    </radialGradient>
    <radialGradient id="radial-gradient-2" cx="-636.35" cy="384.16" fx="-636.35" fy="384.16" r="3.03" gradientTransform="translate(1960.01 1197.66) scale(3.03 -3.03)" gradientUnits="userSpaceOnUse">
      <stop offset="0" stop-color="#f3d5ab"/>
      <stop offset="1" stop-color="#dc9b3f"/>
    </radialGradient>
    <radialGradient id="radial-gradient-3" cx="-757.84" cy="620.21" fx="-757.84" fy="620.21" r="4.82" gradientTransform="translate(3683.31 3018.66) scale(4.82 -4.82)" gradientUnits="userSpaceOnUse">
      <stop offset="0" stop-color="#f3d5ab"/>
      <stop offset="1" stop-color="#dc9b3f"/>
    </radialGradient>
    <radialGradient id="radial-gradient-4" cx="-739.56" cy="584.9" fx="-739.56" fy="584.9" r="4.43" gradientTransform="translate(3305.02 2618.92) scale(4.43 -4.43)" gradientUnits="userSpaceOnUse">
      <stop offset="0" stop-color="#f3d5ab"/>
      <stop offset="1" stop-color="#dc9b3f"/>
    </radialGradient>
    <radialGradient id="radial-gradient-5" cx="90.16" cy="-984.02" fx="90.16" fy="-984.02" r=".95" gradientTransform="translate(-44.66 -920.67) scale(.95 -.95)" gradientUnits="userSpaceOnUse">
      <stop offset="0" stop-color="#f3d5ab"/>
      <stop offset="1" stop-color="#dc9b3f"/>
    </radialGradient>
  </defs>
  <path class="cls-1" d="M34.46,23.61c.16,0,.33.06.45.2l2.24,2.24c.26.24.26.65,0,.91-.12.12-.28.18-.45.18s-.33-.06-.46-.18l-1.32-1.35c-.13-.12-.3-.18-.46-.18s-.33.06-.45.18l-1.35,1.35c-.12.12-.28.18-.45.18s-.33-.06-.46-.18l-1.34-1.35c-.13-.12-.29-.18-.45-.18s-.32.06-.45.18l-1.34,1.35c-.13.12-.3.18-.46.18s-.33-.06-.45-.18l-1.34-1.35c-.13-.12-.3-.18-.46-.18s-.33.06-.45.18l-1.35,1.35c-.14.14-.29.19-.44.19-.49,0-.93-.64-.47-1.1l2.26-2.24c.12-.13.29-.2.45-.2s.33.06.46.2l1.34,1.34c.12.12.29.18.45.18s.33-.06.46-.18l1.34-1.34c.13-.13.29-.2.45-.2s.33.06.45.2l1.34,1.34c.12.12.28.18.45.18s.33-.06.46-.18l1.34-1.34c.13-.13.3-.2.46-.2ZM25.46,22.32c-.49,0-.98.19-1.36.57l-2.24,2.24c-.74.76-.72,1.95.02,2.69.38.38.88.57,1.37.57s.96-.18,1.33-.53l.87-.89.89.89c.38.37.88.56,1.37.56s.99-.19,1.36-.56l.89-.89.89.89c.37.37.86.56,1.36.56s.99-.19,1.37-.56l.89-.89.87.89c.37.36.86.53,1.33.53s1-.19,1.38-.57c.74-.74.76-1.93.02-2.69l-2.24-2.24c-.38-.38-.87-.57-1.36-.57s-.98.19-1.36.57l-.89.87-.89-.87c-.37-.38-.86-.57-1.35-.57s-.98.19-1.35.57l-.89.87-.89-.87c-.38-.38-.87-.57-1.36-.57Z"/>
  <path class="cls-5" d="M34.46,30.73c.16,0,.33.07.45.2l2.24,2.24c.26.26.26.67,0,.91-.12.13-.28.19-.45.19s-.33-.06-.46-.19l-1.32-1.34c-.13-.13-.3-.2-.46-.2s-.33.06-.45.2l-1.35,1.34c-.13.13-.3.19-.46.19s-.33-.06-.45-.19l-1.34-1.34c-.13-.13-.3-.2-.46-.2s-.33.06-.45.2l-1.35,1.34c-.12.12-.28.18-.45.18s-.33-.06-.46-.18l-1.34-1.34c-.13-.13-.29-.2-.45-.2s-.33.06-.45.2l-1.34,1.34c-.14.12-.29.18-.44.18-.49,0-.91-.62-.47-1.09l2.24-2.24c.13-.13.29-.2.45-.2s.32.07.45.2l1.34,1.34c.13.13.3.19.46.19s.33-.06.45-.19l1.34-1.34c.13-.13.3-.2.46-.2s.33.07.45.2l1.35,1.34c.12.13.28.19.45.19s.33-.06.46-.19l1.34-1.34c.13-.13.3-.2.46-.2ZM29.96,29.45c-.49,0-.98.19-1.35.57l-.89.89-.89-.89c-.38-.37-.87-.56-1.36-.56s-.98.18-1.36.56l-2.24,2.24c-.76.76-.76,1.98,0,2.73.37.38.86.57,1.36.57s.99-.19,1.37-.57l.87-.89.89.89c.38.38.88.57,1.37.57s.99-.19,1.36-.57l.89-.89.89.89c.37.38.86.57,1.36.57s.99-.19,1.37-.57l.89-.89.87.89c.38.38.88.57,1.37.57s.99-.19,1.36-.57c.76-.74.76-1.96,0-2.73l-2.24-2.24c-.38-.37-.87-.56-1.36-.56s-.98.18-1.36.56l-.89.89-.89-.89c-.37-.38-.86-.57-1.35-.57Z"/>
  <path class="cls-4" d="M30.15,12.5c-4.73,0-9.4,2.03-12.62,5.92-5.44,6.53-4.99,16.12,1.02,22.13,3.2,3.2,7.4,4.82,11.62,4.82,3.71,0,7.43-1.26,10.49-3.8,6.53-5.43,7.85-14.95,3.04-21.94-.14-.19-.33-.27-.5-.27-.45,0-.87.5-.55.99,4.44,6.45,3.23,15.23-2.8,20.22-2.81,2.35-6.25,3.5-9.67,3.5-3.89,0-7.76-1.49-10.71-4.43-5.53-5.53-5.94-14.37-.95-20.39,2.98-3.58,7.3-5.46,11.67-5.46,2.96,0,5.95.87,8.55,2.66.13.1.27.14.4.14.56,0,.95-.81.34-1.2-2.84-1.95-6.1-2.89-9.32-2.89Z"/>
  <path class="cls-3" d="M30.16,16.36c6.94,0,12.58,5.62,12.58,12.58,0,5.08-3.06,9.68-7.77,11.61-1.55.65-3.19.96-4.81.96-3.27,0-6.49-1.28-8.9-3.69-3.6-3.6-4.68-9-2.73-13.71,1.95-4.69,6.53-7.75,11.63-7.75ZM30.09,15.06c-3.67,0-7.16,1.46-9.74,4.06-4.68,4.69-5.38,12.02-1.71,17.51,2.64,3.95,7.01,6.16,11.53,6.16,1.78,0,3.59-.34,5.32-1.06,6.1-2.54,9.57-9.03,8.27-15.53-1.3-6.49-6.99-11.15-13.6-11.15h-.07Z"/>
  <path class="cls-2" d="M41.33,17.12c-.57,0-.87.71-.46,1.1.13.13.3.19.46.19.33,0,.64-.25.64-.64,0-.35-.28-.65-.63-.65Z"/>
</svg>