<?xml version="1.0" encoding="UTF-8"?>
<svg id="Layer_1" data-name="Layer 1" xmlns="http://www.w3.org/2000/svg" xmlns:xlink="http://www.w3.org/1999/xlink" viewBox="0 0 58.11 57.23">
  <defs>
    <style>
      .cls-1 {
        fill: url(#radial-gradient);
      }

      .cls-1, .cls-2, .cls-3, .cls-4 {
        fill-rule: evenodd;
      }

      .cls-2 {
        fill: url(#radial-gradient-4);
      }

      .cls-3 {
        fill: url(#radial-gradient-3);
      }

      .cls-4 {
        fill: url(#radial-gradient-2);
      }
    </style>
    <radialGradient id="radial-gradient" cx="-895.94" cy="682.35" fx="-895.94" fy="682.35" r="3.92" gradientTransform="translate(3541.35 2697.5) scale(3.92 -3.92)" gradientUnits="userSpaceOnUse">
      <stop offset="0" stop-color="#f3d5ab"/>
      <stop offset="1" stop-color="#dc9b3f"/>
    </radialGradient>
    <radialGradient id="radial-gradient-2" cx="-696.94" cy="395.57" fx="-696.94" fy="395.57" r="2.41" gradientTransform="translate(1710.76 977.48) scale(2.41 -2.41)" gradientUnits="userSpaceOnUse">
      <stop offset="0" stop-color="#f3d5ab"/>
      <stop offset="1" stop-color="#dc9b3f"/>
    </radialGradient>
    <radialGradient id="radial-gradient-3" cx="-902.42" cy="687.11" fx="-902.42" fy="687.11" r="3.99" gradientTransform="translate(3633.63 2784.21) scale(3.99 -3.99)" gradientUnits="userSpaceOnUse">
      <stop offset="0" stop-color="#f3d5ab"/>
      <stop offset="1" stop-color="#dc9b3f"/>
    </radialGradient>
    <radialGradient id="radial-gradient-4" cx="92.01" cy="-762.59" fx="92.01" fy="-762.59" r=".95" gradientTransform="translate(-56.23 -682.79) scale(.95 -.95)" gradientUnits="userSpaceOnUse">
      <stop offset="0" stop-color="#f3d5ab"/>
      <stop offset="1" stop-color="#dc9b3f"/>
    </radialGradient>
  </defs>
  <path class="cls-1" d="M30.88,14.85v2.91c-.72.07-1.45.26-2.11.57l-1.45-2.54c1.11-.54,2.32-.87,3.56-.95ZM32.16,14.85c1.24.08,2.47.41,3.58.97l-1.47,2.52c-.67-.3-1.37-.48-2.12-.56v-2.93ZM26.19,16.47l1.47,2.52c-.59.43-1.11.95-1.54,1.54l-2.54-1.45c.71-1.04,1.6-1.93,2.62-2.62ZM36.85,16.47c1.04.69,1.93,1.58,2.62,2.62l-2.52,1.45c-.43-.59-.97-1.11-1.56-1.54l1.47-2.52ZM22.94,20.18l2.52,1.47c-.3.67-.48,1.37-.56,2.11h-2.93c.09-1.24.41-2.45.97-3.56v-.02ZM40.12,20.18c.56,1.11.87,2.34.97,3.58h-2.93c-.08-.74-.26-1.45-.58-2.11l2.54-1.47ZM24.91,25.06c.08.72.26,1.43.56,2.12l-2.52,1.45c-.56-1.11-.89-2.32-.97-3.56h2.93ZM41.06,25.04c-.07,1.26-.39,2.47-.95,3.58l-2.54-1.47c.32-.67.5-1.37.58-2.12h2.91ZM31.53,19.03c4.79,0,7.18,5.79,3.79,9.16-1.09,1.09-2.44,1.58-3.75,1.58-2.76,0-5.41-2.14-5.41-5.38.02-2.95,2.41-5.36,5.38-5.36ZM26.11,28.27c.43.61.95,1.13,1.54,1.56l-1.45,2.52c-1.04-.69-1.93-1.58-2.62-2.62l2.52-1.47ZM36.93,28.27l2.54,1.47c-.71,1.02-1.58,1.91-2.62,2.62l-1.47-2.54c.59-.43,1.11-.95,1.54-1.54ZM28.77,30.46c.67.31,1.39.5,2.11.57v2.93c-1.24-.09-2.45-.41-3.58-.97l1.47-2.54ZM34.28,30.46l1.47,2.54c-1.11.56-2.34.87-3.58.97v-2.93c.74-.08,1.45-.26,2.12-.57ZM31.51,13.55c-1.39,0-2.8.27-4.14.82-4.06,1.69-6.7,5.64-6.7,10.04,0,5.99,4.86,10.85,10.85,10.85,4.38,0,8.35-2.65,10.02-6.7,1.69-4.06.76-8.74-2.36-11.83-2.08-2.08-4.86-3.18-7.68-3.18Z"/>
  <path class="cls-4" d="M31.53,22.59c1.61,0,2.43,1.95,1.28,3.1-.37.37-.82.53-1.27.53-.94,0-1.83-.72-1.83-1.83,0-1,.82-1.8,1.82-1.8ZM31.56,20.28c-.33,0-.67.23-.64.68v.41c-.37.08-.72.22-1.04.45l-.3-.3c-.14-.13-.29-.19-.44-.19-.49,0-.9.62-.47,1.1l.3.3c-.2.32-.35.67-.45,1.04h-.41c-.85,0-.85,1.28,0,1.28h.39c.08.37.22.72.43,1.04l-.3.3c-.26.26-.26.67,0,.91.12.12.26.19.41.19.02,0,.03,0,.05,0,.02,0,.04,0,.05,0,.15,0,.3-.07.41-.19l.3-.3c.32.2.67.35,1.04.45v.41c-.03.45.31.68.64.68s.67-.23.64-.68v-.43c.37-.08.74-.22,1.06-.43l.3.3c.11.13.28.19.46.19.17,0,.33-.06.46-.19.24-.24.24-.65,0-.91l-.3-.3c.2-.32.35-.67.43-1.04h.41c.87,0,.87-1.28,0-1.28h-.41c-.07-.37-.22-.72-.43-1.06l.3-.3c.43-.46.01-1.08-.47-1.08-.15,0-.3.05-.44.19l-.3.28c-.31-.2-.69-.35-1.06-.43v-.41c.03-.45-.31-.68-.64-.68Z"/>
  <path class="cls-3" d="M42.29,34.05c-.49,0-.99.17-1.42.53l-4.41,3.79c-.26-1.08-1.22-1.82-2.32-1.82h-6.12l-.76-.46c-1.28-.78-2.75-1.19-4.23-1.19-2.04,0-3.97.85-5.34,2.36l-2.43,2.65c-.2.22-.22.56-.06.8l3.77,5.45c.13.17.33.26.54.26.02,0,.03,0,.05,0,.15,0,.3-.07.41-.19.7-.71,1.67-1.1,2.67-1.1h6.01c.86,0,.86-1.28,0-1.28h-6.01c-1.1,0-2.13.33-3.01.98l-3.08-4.45,2.1-2.26c1.13-1.22,2.73-1.93,4.4-1.95,1.26,0,2.48.35,3.56,1l.91.56c.09.07.22.11.33.11h6.31c1.41.02,1.45,2.08.06,2.17h-6.62c-.85,0-.85,1.28,0,1.28h6.66c.54,0,1.04-.2,1.45-.54l6.03-5.19c.17-.14.38-.22.59-.22.12,0,.24.02.35.07.59.26.72,1.02.28,1.48l-3.8,3.8c-1.37,1.35-3.06,2.32-4.92,2.8-.8.17-.59,1.27.11,1.27.06,0,.13,0,.2-.03,2.08-.54,3.97-1.63,5.49-3.15l3.8-3.8c.52-.5.74-1.24.61-1.95-.2-1.1-1.16-1.79-2.16-1.79Z"/>
  <path class="cls-2" d="M31.53,43.83c-.57,0-.87.7-.46,1.09.13.13.3.2.46.2.33,0,.64-.25.64-.64,0-.35-.28-.65-.63-.65Z"/>
</svg>