<?xml version="1.0" encoding="UTF-8"?>
<svg id="Layer_1" data-name="Layer 1" xmlns="http://www.w3.org/2000/svg" viewBox="0 0 58.11 57.23">
  <defs>
    <style>
      .cls-1 {
        fill: #ebb871;
        fill-rule: evenodd;
      }
    </style>
  </defs>
  <path class="cls-1" d="M17.84,14.47c1.09.43,1.82,1.47,1.82,2.64v2.48c0,2.13,1.43,3.99,3.47,4.55,0,.05-.02.11-.02.18-.16,1.04-.67,2-1.43,2.73-2.3-.91-3.82-3.14-3.82-5.62h-.02v-6.96ZM41.75,14.47v6.96c0,2.48-1.52,4.71-3.84,5.62-.76-.74-1.26-1.69-1.41-2.75,0-.05-.02-.11-.04-.16,2.06-.56,3.49-2.43,3.47-4.55v-2.48c0-1.17.72-2.21,1.82-2.64ZM20.18,28.1c.14,0,.28,0,.42.02v3.34c-.54.22-1.11.33-1.67.33-.86,0-1.7-.25-2.42-.74h-.02c-.65-.45-1.17-1.06-1.48-1.78h0c.32.08.64.12.96.12.81,0,1.61-.24,2.29-.71.57-.39,1.25-.58,1.94-.58ZM39.44,28.09c.67,0,1.33.21,1.9.59.69.47,1.49.71,2.3.71.32,0,.65-.04.97-.12h0c-.33.72-.85,1.34-1.5,1.78-.73.49-1.59.74-2.44.74-.57,0-1.13-.11-1.66-.33v-3.34c.15-.02.29-.03.44-.03ZM31.94,36.93c1.15.02,2,1.06,1.8,2.19l-.2,1.11c-.2,1.06-1.11,1.8-2.19,1.82h-3.1c-1.08-.02-1.99-.76-2.19-1.82l-.2-1.11c-.2-1.13.65-2.17,1.8-2.19h4.28ZM27.26,43.18h0c.32.09.65.13.98.13h3.1c.33,0,.67-.04.98-.13h0l-.06.28c-.11.67-.69,1.15-1.37,1.15h-2.21c-.67,0-1.26-.48-1.37-1.15l-.05-.28ZM17.22,13.02c-.36,0-.66.28-.66.65v7.75c0,2.12.91,4.14,2.51,5.51-.54.15-1.06.37-1.52.69-.48.33-1.04.49-1.59.49s-1.1-.16-1.58-.49c-.12-.08-.24-.11-.36-.11-.37,0-.7.32-.64.73.37,2.77,2.72,4.84,5.51,4.84h.04c.61,0,1.21-.09,1.78-.28.13.54.37,1.06.7,1.5l3.15,4.06c-.04.33-.04.67.04.98l.2,1.11c.15.74.52,1.41,1.06,1.93,0,.17.02.35.06.52l.15.8c.24,1.26,1.34,2.19,2.63,2.19h2.21c1.28,0,2.39-.93,2.64-2.17l.15-.8c.04-.19.05-.35.04-.54.56-.5.93-1.17,1.08-1.91l.2-1.11c.05-.33.07-.67.02-1l3.17-4.06c.33-.45.57-.94.71-1.5.59.2,1.19.29,1.78.29,2.7,0,5.15-1.99,5.55-4.84.02-.26-.09-.5-.3-.63v-.02c-.11-.06-.22-.09-.34-.09-.12,0-.24.04-.35.11-.48.33-1.04.49-1.59.49s-1.11-.16-1.6-.49c-.46-.32-.98-.54-1.52-.69,1.59-1.37,2.5-3.39,2.5-5.51v-7.75c0-.37-.3-.65-.64-.65-.02,0-.04,0-.06,0-2.1.22-3.67,1.99-3.67,4.08v2.48c0,1.63-1.15,3.04-2.76,3.36-.54-.63-1.32-1-2.15-1.02h-1.06c-.85,0-.85,1.3,0,1.3h1.06c.74,0,1.37.54,1.48,1.28.24,1.63,1.13,3.1,2.49,4.04v3.38c0,.57-.19,1.13-.54,1.58l-2.69,3.47c-.05-.08-.09-.13-.15-.19-.58-.71-1.45-1.13-2.35-1.13h-4.38c-.91,0-1.77.42-2.35,1.13-.05.05-.09.11-.15.19l-2.67-3.45c-.35-.46-.54-1.02-.54-1.6v-3.38c1.34-.95,2.24-2.41,2.48-4.04.11-.74.74-1.28,1.48-1.28h1.06c.85,0,.85-1.3,0-1.3h-1.06c-.83.02-1.61.39-2.15,1.02-1.62-.3-2.77-1.73-2.77-3.36v-2.48c0-2.1-1.58-3.86-3.65-4.08-.02,0-.04,0-.07,0Z"/>
  <path class="cls-1" d="M26.2,29.27c.61,0,1.17.5,1.16,1.18-.18.09-.37.14-.58.14s-.41-.04-.59-.14c-.33-.22-.56-.61-.57-1.02.19-.11.39-.16.59-.16ZM26.26,28.01c-.52,0-1.09.16-1.63.48-.2.11-.32.33-.32.56,0,1.15.45,2.08,1.22,2.52.35.2.76.32,1.17.32.57-.02,1.15-.19,1.65-.48.19-.13.32-.33.32-.56,0-1.15-.45-2.08-1.24-2.52-.35-.2-.75-.31-1.17-.31Z"/>
  <path class="cls-1" d="M33.38,29.3c.21,0,.41.05.6.14.01.69-.55,1.18-1.16,1.18-.2,0-.4-.05-.59-.16.02-.41.22-.8.56-1.04.19-.08.39-.12.58-.12ZM33.32,28.01c-.42,0-.82.1-1.16.31-.8.45-1.24,1.37-1.24,2.52,0,.22.13.43.32.56.5.3,1.08.46,1.65.48.41,0,.81-.11,1.17-.32.78-.46,1.24-1.39,1.22-2.52,0-.22-.11-.45-.32-.56-.55-.32-1.11-.48-1.64-.48Z"/>
  <path class="cls-1" d="M31.23,38.47c-.35,0-.63.28-.63.63v.7c0,.43.32.64.64.64s.64-.21.64-.64v-.7c0-.35-.3-.63-.65-.63Z"/>
  <path class="cls-1" d="M28.36,38.47c-.35,0-.65.28-.65.63v.7c0,.43.32.64.64.64s.64-.21.64-.64v-.7c0-.35-.28-.63-.63-.63Z"/>
  <path class="cls-1" d="M29.8,21.92c-.58,0-.87.71-.46,1.1.13.13.3.19.46.19.33,0,.64-.25.64-.64,0-.35-.28-.65-.63-.65Z"/>
</svg>