<?xml version="1.0" encoding="UTF-8"?>
<svg id="Layer_1" data-name="Layer 1" xmlns="http://www.w3.org/2000/svg" viewBox="0 0 58.11 57.23">
  <defs>
    <style>
      .cls-1 {
        fill: #ebb871;
        fill-rule: evenodd;
      }
    </style>
  </defs>
  <path class="cls-1" d="M29.8,13.78c.48,0,.89.41.89.91v1.09c-.29-.11-.59-.17-.9-.17s-.61.06-.9.17v-1.09c0-.5.41-.89.91-.89v-.02ZM29.8,16.91c.35,0,.71.13,1,.42.89.89.26,2.41-1,2.41-.8,0-1.43-.63-1.43-1.41,0-.85.7-1.42,1.43-1.42ZM27.17,17.71h0c-.05.2-.07.41-.07.61,0,.22.02.46.09.69-1.82.16-3.52.83-4.95,1.95l-1.45,1.11c-.8.61-1.76.95-2.76.95-1.21,0-2.36-.48-3.19-1.32-.47-.47-.04-1.11.45-1.11.15,0,.31.06.45.2.59.59,1.43.94,2.28.94.72,0,1.41-.24,1.98-.69l1.43-1.11c1.65-1.26,3.63-2.04,5.73-2.23ZM32.42,17.71h0c2.1.19,4.08.97,5.73,2.23l1.43,1.11c.57.45,1.26.69,1.99.69.85,0,1.69-.35,2.28-.94.14-.14.3-.2.46-.2.5,0,.92.64.45,1.1-.83.85-1.98,1.34-3.19,1.34-1,0-1.97-.33-2.77-.95l-1.43-1.11c-1.45-1.11-3.15-1.78-4.97-1.95.08-.22.09-.46.09-.69,0-.2-.02-.41-.08-.61ZM17.6,26.55v5.55h-2.58l2.58-5.55ZM41.99,26.55l2.58,5.55h-2.58v-5.55ZM18.9,26.56l2.58,5.55-2.58-.02v-5.53ZM40.71,26.55v5.57h-2.6l2.6-5.57ZM21.79,33.39c-.32,1.71-1.82,2.95-3.54,2.95v-.02c-1.74,0-3.23-1.24-3.54-2.93h7.08ZM44.88,33.39c-.31,1.71-1.8,2.95-3.54,2.95s-3.23-1.24-3.52-2.95h7.07ZM29.79,39.27c1.71,0,3.43.74,4.61,2.23h-9.22c1.18-1.48,2.89-2.23,4.61-2.23ZM35.89,42.78c.81,0,1.54.52,1.82,1.3h-15.82c.28-.78,1-1.3,1.82-1.3h12.19ZM29.8,12.5c-1.21,0-2.19.98-2.19,2.19v1.72c-2.52.09-4.95.98-6.96,2.52l-1.43,1.11c-.35.26-.78.39-1.2.39-.02,0-.04,0-.07,0-.49,0-.95-.2-1.31-.56-.38-.38-.87-.57-1.36-.57s-.98.19-1.36.57c-.74.74-.74,1.97,0,2.71.91.91,2.08,1.48,3.34,1.65l-3.82,8.23c-.05.08-.07.17-.07.26,0,2.69,2.19,4.88,4.88,4.88s4.88-2.19,4.88-4.88c0-.09-.02-.19-.05-.26l-3.88-8.31c.87-.17,1.69-.54,2.37-1.08l1.45-1.11c1.34-1.02,2.93-1.61,4.6-1.73v18.07c-1.67.54-3.08,1.67-3.97,3.19-1.74.04-3.15,1.45-3.15,3.21,0,.35.3.63.65.63h17.32c.35,0,.63-.28.63-.63,0-1.74-1.39-3.17-3.14-3.21-.89-1.52-2.3-2.65-3.99-3.19v-6.9c0-.44-.32-.65-.64-.65s-.64.22-.64.65v6.62c-.3-.04-.59-.06-.89-.06s-.59.02-.91.06v-17.18c.3.1.6.15.91.15s.61-.05.89-.15v4.77c0,.43.32.64.64.64s.64-.21.64-.64v-5.36c1.69.09,3.28.69,4.62,1.71l1.43,1.11c.71.54,1.5.91,2.38,1.1l-3.86,8.29c-.04.08-.05.17-.07.26.02,2.69,2.19,4.88,4.88,4.88s4.88-2.19,4.88-4.88c0-.09-.02-.19-.05-.26l-3.84-8.23c1.26-.17,2.45-.74,3.34-1.63.76-.76.76-1.98,0-2.73-.38-.38-.87-.57-1.36-.57s-.98.19-1.36.57c-.35.37-.85.57-1.37.57-.43-.02-.86-.15-1.19-.41l-1.45-1.11c-2-1.54-4.43-2.43-6.96-2.52v-1.72c0-1.21-.97-2.19-2.17-2.19Z"/>
  <path class="cls-1" d="M31.34,27.88c-.57,0-.87.7-.46,1.1.13.13.3.19.46.19.33,0,.64-.25.64-.64,0-.35-.28-.65-.63-.65Z"/>
</svg>