<?xml version="1.0" encoding="UTF-8"?>
<svg id="Layer_1" data-name="Layer 1" xmlns="http://www.w3.org/2000/svg" xmlns:xlink="http://www.w3.org/1999/xlink" viewBox="0 0 58.11 57.23">
  <defs>
    <style>
      .cls-1 {
        fill: url(#radial-gradient);
      }

      .cls-1, .cls-2 {
        fill-rule: evenodd;
      }

      .cls-2 {
        fill: url(#radial-gradient-2);
      }
    </style>
    <radialGradient id="radial-gradient" cx="-929.72" cy="505.18" fx="-929.72" fy="505.18" r="4.38" gradientTransform="translate(4099.36 2239.71) scale(4.38 -4.38)" gradientUnits="userSpaceOnUse">
      <stop offset="0" stop-color="#f3d5ab"/>
      <stop offset="1" stop-color="#dc9b3f"/>
    </radialGradient>
    <radialGradient id="radial-gradient-2" cx="88.36" cy="-1132.99" fx="88.36" fy="-1132.99" r=".96" gradientTransform="translate(-54.3 -1038.1) scale(.96 -.96)" gradientUnits="userSpaceOnUse">
      <stop offset="0" stop-color="#f3d5ab"/>
      <stop offset="1" stop-color="#dc9b3f"/>
    </radialGradient>
  </defs>
  <path class="cls-1" d="M29.8,11.98c-.53,0-1.05.2-1.45.6l-8.22,8.22c-.24.24-.24.65,0,.89l2,2c.13.12.29.18.45.18s.33-.06.45-.18l4.71-4.71v4.01l-7.62,7.61c-.24.26-.24.67,0,.91l2,2c.13.12.29.18.45.18s.33-.06.45-.18l4.71-4.71v11.95h-3.73c-.37,0-.65.3-.65.65v2.82c0,.35.28.63.65.65h3.21c.86,0,.86-1.3.02-1.3-.02,0-.03,0-.05,0h-2.54v-1.54h3.71c.35,0,.65-.28.65-.63v-14.15c0-.39-.32-.65-.65-.65-.16,0-.32.06-.45.19l-5.36,5.36-1.08-1.09,7.35-7.35c.11-.13.19-.3.19-.46v-5.79c0-.4-.31-.67-.64-.67-.16,0-.32.06-.45.2l-5.36,5.34-1.08-1.1,7.74-7.74c.15-.15.35-.22.55-.22s.4.07.55.22l7.75,7.74-1.1,1.1-5.3-5.29c-.13-.13-.29-.19-.45-.19-.33,0-.65.26-.65.65v5.79c0,.17.06.33.19.46l7.33,7.31-1.1,1.09-5.32-5.32c-.13-.13-.29-.19-.45-.19-.33,0-.65.26-.65.65v14.1c0,.35.3.65.65.65h3.71v1.54h-1.97c-.8.04-.8,1.22,0,1.28h2.6c.35,0,.65-.3.65-.65v-2.82c0-.35-.3-.65-.65-.65h-3.71v-11.91l4.69,4.68c.12.12.28.18.45.18s.33-.06.46-.18l1.99-2c.26-.24.26-.65,0-.91l-7.59-7.57v-4.01l4.69,4.68c.12.12.28.18.45.18s.33-.06.46-.18l1.99-2c.26-.24.26-.65,0-.89l-8.2-8.22c-.4-.4-.92-.6-1.45-.6Z"/>
  <path class="cls-2" d="M30.1,43.56c-.58,0-.85.7-.45,1.11.13.12.29.18.45.18.33,0,.65-.25.65-.65,0-.35-.3-.65-.65-.65Z"/>
</svg>