<?xml version="1.0" encoding="UTF-8"?>
<svg id="Layer_1" data-name="Layer 1" xmlns="http://www.w3.org/2000/svg" xmlns:xlink="http://www.w3.org/1999/xlink" viewBox="0 0 58.11 57.23">
  <defs>
    <style>
      .cls-1 {
        fill: url(#radial-gradient);
      }

      .cls-1, .cls-2, .cls-3, .cls-4 {
        fill-rule: evenodd;
      }

      .cls-2 {
        fill: url(#radial-gradient-4);
      }

      .cls-3 {
        fill: url(#radial-gradient-3);
      }

      .cls-4 {
        fill: url(#radial-gradient-2);
      }
    </style>
    <radialGradient id="radial-gradient" cx="-909.65" cy="634.84" fx="-909.65" fy="634.84" r="3.56" gradientTransform="translate(3270.02 2292.26) scale(3.56 -3.56)" gradientUnits="userSpaceOnUse">
      <stop offset="0" stop-color="#f3d5ab"/>
      <stop offset="1" stop-color="#dc9b3f"/>
    </radialGradient>
    <radialGradient id="radial-gradient-2" cx="-1005.35" cy="767.02" fx="-1005.35" fy="767.02" r="4.82" gradientTransform="translate(4876 3727.42) scale(4.82 -4.82)" gradientUnits="userSpaceOnUse">
      <stop offset="0" stop-color="#f3d5ab"/>
      <stop offset="1" stop-color="#dc9b3f"/>
    </radialGradient>
    <radialGradient id="radial-gradient-3" cx="-981.3" cy="733.87" fx="-981.3" fy="733.87" r="4.43" gradientTransform="translate(4374.4 3279.17) scale(4.43 -4.43)" gradientUnits="userSpaceOnUse">
      <stop offset="0" stop-color="#f3d5ab"/>
      <stop offset="1" stop-color="#dc9b3f"/>
    </radialGradient>
    <radialGradient id="radial-gradient-4" cx="83.93" cy="-739.14" fx="83.93" fy="-739.14" r=".95" gradientTransform="translate(-61.36 -684.79) scale(.95 -.95)" gradientUnits="userSpaceOnUse">
      <stop offset="0" stop-color="#f3d5ab"/>
      <stop offset="1" stop-color="#dc9b3f"/>
    </radialGradient>
  </defs>
  <path class="cls-1" d="M30.31,24.36c1.52,0,2.95,1.2,2.95,2.96v5.17c0,.93.67,1.72,1.58,1.89.04,0,.09.01.13.01.39,0,.7-.37.61-.77-.11-.45.25-.8.63-.8.16,0,.31.06.45.18l1.59,1.6c.26.26.26.67,0,.91l-1.59,1.61c-.13.12-.3.18-.46.18s-.33-.06-.45-.18c-.17-.17-.22-.41-.17-.63.09-.39-.19-.76-.57-.8-1.71-.11-3.02-1.5-3.02-3.21v-5.17c0-.93-.74-1.67-1.65-1.67s-1.67.74-1.67,1.67v5.86c0,.43-.32.64-.64.64s-.64-.21-.64-.64v-5.86c0-.93-.74-1.67-1.67-1.67s-1.65.74-1.65,1.67v5.86c0,.43-.32.64-.64.64s-.64-.21-.64-.64v-6.36c0-.65-.52-1.17-1.17-1.17-.85,0-.85-1.28,0-1.28.56,0,1.11.2,1.56.56.12.1.27.15.41.15.13,0,.27-.04.38-.13.5-.37,1.11-.57,1.74-.57.69,0,1.37.24,1.89.69.12.1.27.15.42.15s.3-.05.42-.15c.57-.48,1.23-.7,1.87-.7ZM30.31,23.08c-.77,0-1.57.22-2.3.69-.7-.46-1.51-.69-2.31-.69-.73,0-1.46.19-2.11.58-.59-.39-1.3-.57-1.98-.57h-.04c-1.04,0-1.89.83-1.93,1.85-.02,1.06.8,1.93,1.84,1.99v6.27c0,1.06.87,1.91,1.93,1.91s1.93-.85,1.93-1.91v-5.88c0-.26.19-.39.38-.39s.38.13.38.39v5.86c.02,1.04.87,1.86,1.91,1.86s1.89-.82,1.93-1.86v-5.86c.02-.23.2-.35.38-.35s.36.12.38.35v5.17c0,2.13,1.5,3.97,3.58,4.41.13,1.04,1.02,1.69,1.93,1.69.48,0,.96-.18,1.35-.57l1.59-1.6c.76-.74.76-1.96,0-2.73l-1.59-1.6c-.38-.37-.87-.56-1.36-.56s-.98.19-1.36.56c-.11.11-.2.24-.3.37v-5.16c0-2.48-2.03-4.24-4.23-4.24Z"/>
  <path class="cls-4" d="M29.69,13.54c-3.23,0-6.48.95-9.3,2.89-.6.39-.21,1.2.34,1.2.13,0,.27-.04.4-.14,2.61-1.79,5.59-2.65,8.55-2.65,4.36,0,8.66,1.87,11.63,5.46,5.01,6.01,4.6,14.84-.95,20.37-2.94,2.94-6.81,4.43-10.69,4.43-3.42,0-6.85-1.16-9.66-3.5-6.01-4.99-7.23-13.75-2.8-20.18.32-.5-.1-1.01-.55-1.01-.18,0-.36.08-.5.27-3.6,5.25-3.86,12.13-.63,17.62,2.97,5.05,8.37,8.12,14.16,8.12.51,0,1.02-.02,1.53-.07,6.35-.59,11.78-4.79,13.93-10.78,2.17-5.99.69-12.7-3.82-17.21v.02c-3.18-3.18-7.4-4.82-11.64-4.82Z"/>
  <path class="cls-3" d="M29.75,17.41c5.06,0,9.64,3.07,11.59,7.75,1.95,4.71.87,10.11-2.73,13.71-2.41,2.41-5.63,3.69-8.9,3.69-1.62,0-3.25-.31-4.81-.96-4.71-1.95-7.77-6.53-7.77-11.61,0-6.96,5.64-12.58,12.58-12.58h.04ZM29.69,16.11c-.89,0-1.79.08-2.7.26-6.47,1.3-11.15,6.99-11.15,13.6-.02,3.67,1.45,7.21,4.06,9.81,2.67,2.67,6.22,4.05,9.78,4.05,2.67,0,5.36-.77,7.71-2.34,5.51-3.67,7.64-10.72,5.1-16.82-2.17-5.25-7.29-8.55-12.81-8.55Z"/>
  <path class="cls-2" d="M18.53,18.18c-.57,0-.85.69-.45,1.1.13.12.29.18.45.18.33,0,.65-.25.65-.64,0-.35-.3-.63-.65-.63Z"/>
</svg>