<?xml version="1.0" encoding="UTF-8"?>
<svg id="Layer_1" data-name="Layer 1" xmlns="http://www.w3.org/2000/svg" viewBox="0 0 58.11 57.23">
  <defs>
    <style>
      .cls-1 {
        fill: #ebb871;
        fill-rule: evenodd;
      }
    </style>
  </defs>
  <path class="cls-1" d="M24.54,14.3c.22,0,.44.08.61.26.57.57.17,1.54-.63,1.54-.5,0-.89-.39-.89-.89,0-.54.45-.9.91-.9ZM43.95,18.49c.82,0,1.21.97.65,1.54-.18.18-.41.26-.63.26-.47,0-.91-.36-.91-.91,0-.48.41-.89.89-.89ZM27.85,18.8c.22,0,.45.08.63.27.57.56.17,1.52-.63,1.52-.5,0-.91-.39-.91-.89,0-.54.45-.9.91-.9ZM21.94,22.58c.47,0,.91.36.91.91,0,.5-.41.89-.89.89-.81,0-1.2-.97-.65-1.54.18-.18.41-.26.62-.26ZM33.32,22.57c.82,0,1.21.98.65,1.54-.19.19-.41.27-.64.27-.46,0-.9-.36-.9-.9,0-.5.41-.91.89-.91ZM40.14,22.78c.8,0,1.2.96.65,1.54-.19.18-.41.26-.64.26-.46,0-.9-.35-.9-.89,0-.5.39-.91.89-.91ZM28.29,25.32c.22,0,.45.08.64.26.56.57.17,1.54-.63,1.54-.5,0-.91-.41-.91-.91,0-.54.44-.89.9-.89ZM15.46,26.57c.22,0,.44.08.62.27.57.58.17,1.54-.63,1.54-.5,0-.89-.41-.89-.89,0-.55.44-.92.9-.92ZM35.76,27.38c.46,0,.91.36.9.91,0,.48-.39.89-.89.89-.8,0-1.21-.97-.63-1.54.18-.18.4-.26.62-.26ZM31.81,25.04c.42.4.97.62,1.54.62.12,0,.23,0,.35-.03l.56,1.07c-.56.54-.8,1.34-.61,2.08l-1.87,1.28c-.48-.43-1.08-.65-1.71-.65h-.04l-.46-1.45c.56-.41.89-1.06.89-1.76,0-.15,0-.28-.04-.43l1.39-.74ZM40.88,28.92c.22,0,.45.08.63.26.56.57.17,1.54-.65,1.54-.48,0-.89-.41-.89-.89,0-.55.44-.91.91-.91ZM43.95,33.1c.46,0,.9.36.9.9,0,.5-.41.89-.91.91-.8,0-1.21-.98-.63-1.54.19-.19.41-.27.64-.27ZM17.74,34.06c.5,0,.89.41.91.91,0,.54-.45.9-.91.9-.22,0-.45-.08-.63-.27-.57-.56-.17-1.54.63-1.54ZM38.14,35.1c.31,0,.62.11.87.37.8.8.24,2.13-.87,2.13-.7,0-1.26-.56-1.26-1.24,0-.76.62-1.26,1.27-1.26ZM26.48,36.65c.78,0,1.18.97.63,1.52-.19.19-.41.27-.64.27-.46,0-.9-.36-.9-.9,0-.5.41-.89.89-.89h.02ZM42.35,39.68c.5,0,.91.41.91.89,0,.55-.44.91-.91.91-.22,0-.45-.08-.63-.26-.56-.57-.17-1.54.63-1.54ZM20.09,40.46c.5,0,.89.41.89.91,0,.54-.44.9-.9.9-.22,0-.44-.08-.62-.27-.57-.57-.17-1.54.63-1.54ZM26.45,42.81c.8,0,1.21.97.65,1.52-.19.19-.41.27-.64.27-.46,0-.9-.36-.9-.9,0-.5.41-.89.89-.89ZM24.5,13.03c-.65,0-1.3.29-1.75.92-1.07,1.51.11,3.45,1.76,3.45.24,0,.49-.04.74-.13l.84,1.13c-.93,1.26-.26,3.06,1.26,3.43l.17,2.34c-.33.13-.61.32-.85.57l-2.52-1.06v-.2c0-1.21-.98-2.19-2.19-2.19s-2.19.98-2.19,2.19c0,.19.04.37.08.54l-2.95,1.82c-.42-.37-.94-.54-1.44-.54-.86,0-1.71.51-2.05,1.41-.54,1.43.52,2.95,2.04,2.95l1.08,3.49c-1.78,1.21-.93,3.99,1.22,3.99h.11l.91,2.49c-1.06.8-1.17,2.36-.22,3.28.43.43.98.65,1.54.65.66,0,1.31-.3,1.74-.87l2.45.91v.11c0,1.08.78,1.99,1.84,2.15.12.02.24.03.37.03.91,0,1.75-.6,2.05-1.48.55-1.61-.75-2.9-2.1-2.9-.61,0-1.23.26-1.7.87l-2.45-.91v-.11c0-.19-.02-.35-.05-.52l2.78-1.69c.45.4.95.58,1.44.58,1.43,0,2.72-1.48,2.01-3.08-.4-.89-1.18-1.3-1.97-1.3-1.11,0-2.21.81-2.21,2.19,0,.17.02.35.06.52l-2.78,1.67c-.39-.35-.91-.56-1.45-.56h-.13l-.91-2.49c1.67-1.26.78-3.91-1.32-3.91l-1.06-3.49c.59-.41.95-1.1.95-1.82,0-.19-.02-.35-.06-.54l2.95-1.82c.41.37.92.55,1.43.55.62,0,1.25-.27,1.69-.79l2.49,1.04c-.19,1.32.83,2.5,2.17,2.5h.06l.45,1.35c-.35.2-.65.46-.87.8-.32.5.12,1,.57,1,.18,0,.37-.08.51-.28.26-.4.66-.57,1.05-.57.66,0,1.3.5,1.3,1.3,0,.15-.02.3-.07.45-.13.33.04.7.37.81.08.04.15.04.22.04.28,0,.52-.17.61-.41.09-.3.15-.59.15-.89s-.04-.59-.15-.87l1.84-1.22c.45.4.95.57,1.43.57,1.5,0,2.84-1.64,1.93-3.26l1.5-1.59c.19.09.37.16.57.2l.24,2c-1.47.63-1.76,2.58-.56,3.63l-1.06,2.37c-.07-.02-.17-.02-.26-.02-1.67,0-2.89,1.59-2.43,3.23.32,1.14,1.35,1.85,2.44,1.85.45,0,.91-.12,1.33-.38l1.02.97c-.92,1.56.34,3.29,1.87,3.29.36,0,.73-.09,1.09-.3,1.93-1.11,1.15-4.08-1.09-4.08-.32,0-.65.07-.95.22l-1.06-1.02c.63-1.13.3-2.56-.76-3.3l1.02-2.3c.09,0,.17.02.26.02.24,0,.48-.04.72-.13l.61.83c-1.15,1.53.09,3.49,1.72,3.49.32,0,.66-.08,1-.25,2.04-1.04,1.32-4.14-.98-4.14-.24,0-.48.04-.7.11l-.61-.81c.96-1.3.22-3.15-1.35-3.45l-.24-2c1.2-.54,1.67-2,.98-3.12l1.04-1.19c.33.15.65.22.95.22,1.81,0,3.01-2.41,1.4-3.84-.45-.4-.95-.57-1.43-.57-1.52,0-2.87,1.72-1.89,3.34l-1.04,1.19c-.3-.14-.61-.2-.91-.2-1.14,0-2.17.93-2.17,2.19,0,.37.09.74.28,1.06l-1.5,1.58c-.3-.15-.63-.23-.96-.23-.13,0-.26.01-.4.04l-.54-1.09c1.19-1.15.7-3.15-.87-3.66-.23-.07-.45-.1-.67-.1-1.32,0-2.4,1.22-2.12,2.63l-1.39.74c-.3-.26-.65-.46-1.02-.56l-.17-2.36c1.13-.43,1.71-1.67,1.3-2.8-.33-.88-1.17-1.43-2.06-1.43-.25,0-.5.04-.74.13l-.85-1.13c.28-.39.43-.84.43-1.3,0-1.34-1.09-2.18-2.2-2.18Z"/>
  <path class="cls-1" d="M29.21,33.09s-.02,0-.03,0c-.57,0-.85.69-.45,1.09.13.12.29.18.45.18.33,0,.65-.25.65-.65,0-.34-.28-.63-.62-.63Z"/>
</svg>