<?xml version="1.0" encoding="UTF-8"?>
<svg id="Layer_1" data-name="Layer 1" xmlns="http://www.w3.org/2000/svg" viewBox="0 0 58.11 57.23">
  <defs>
    <style>
      .cls-1 {
        fill: #ebb871;
        fill-rule: evenodd;
      }
    </style>
  </defs>
  <path class="cls-1" d="M29.64,23.43c3.04,0,5.53,2.47,5.57,5.51,0,1.61-.73,3.15-1.95,4.21.13-.37.18-.76.18-1.13-.02-2.06-1.67-3.71-3.71-3.73-.01,0-.02,0-.03,0-1.32,0-2.41-1.05-2.45-2.38-.02-1.35,1.04-2.45,2.39-2.48ZM26.16,24.71h0c-.11.37-.17.76-.17,1.13.02,2.04,1.67,3.69,3.71,3.73,1.34,0,2.43,1.09,2.43,2.43s-1.09,2.45-2.43,2.45h-.02c-5.14,0-7.47-6.44-3.52-9.74ZM29.7,22.15c-6.05,0-9.09,7.33-4.8,11.59,1.3,1.3,3.05,1.99,4.82,1.99.87,0,1.75-.17,2.58-.51,2.54-1.06,4.21-3.54,4.21-6.29-.02-3.75-3.06-6.79-6.81-6.79Z"/>
  <path class="cls-1" d="M29.07,13.8v5.21c-1.32.09-2.6.43-3.77,1.02l-2.61-4.53c1.96-1.04,4.15-1.61,6.38-1.71ZM30.35,13.8c2.23.09,4.4.67,6.36,1.71l-2.6,4.53c-1.19-.59-2.47-.93-3.77-1.02v-5.21ZM21.57,16.14l2.63,4.53c-1.09.74-2.04,1.67-2.76,2.76l-4.53-2.61c.61-.95,1.3-1.8,2.1-2.58h-.02c.78-.8,1.65-1.5,2.58-2.1ZM37.82,16.14c1.87,1.21,3.47,2.78,4.68,4.68l-4.53,2.61c-.74-1.1-1.67-2.02-2.76-2.76l2.61-4.53ZM16.27,21.93l4.52,2.62c-.57,1.17-.93,2.45-1,3.75h-5.23c.09-2.23.67-4.4,1.71-6.36ZM19.79,29.57c.07,1.32.43,2.6,1,3.77l-4.52,2.61c-1.02-1.99-1.6-4.15-1.69-6.38h5.21ZM29.72,20.28c2.25,0,4.46.88,6.12,2.54,2.47,2.47,3.21,6.2,1.87,9.42-1.35,3.25-4.51,5.34-8,5.34-4.78,0-8.66-3.88-8.66-8.64,0-3.5,2.11-6.66,5.34-7.99,1.07-.45,2.2-.67,3.32-.67ZM37.97,34.45l4.53,2.62c-.84,1.3-1.86,2.48-3.04,3.47-.52.43-1.06.84-1.63,1.19l-2.6-4.52c1.08-.72,2.02-1.65,2.75-2.75ZM21.43,34.45c.74,1.1,1.67,2.02,2.78,2.75l-2.63,4.54c-.93-.61-1.8-1.32-2.58-2.1-.8-.78-1.48-1.65-2.1-2.58l4.53-2.62ZM25.3,37.84c1.19.57,2.45.93,3.77,1.02v5.21c-2.23-.09-4.4-.67-6.38-1.71l2.61-4.53ZM34.11,37.84l2.61,4.53c-1.98,1.02-4.15,1.61-6.38,1.71v-5.21c1.32-.09,2.6-.43,3.77-1.02ZM29.74,12.51c-.5,0-1.01.02-1.52.07-8.46.78-14.91,7.86-14.91,16.36s6.45,15.58,14.91,16.36c.51.05,1.02.07,1.52.07,7.84,0,14.67-5.6,16.14-13.44.06-.35-.17-.69-.52-.74-.04,0-.09-.01-.13-.01-.3,0-.57.22-.63.53-.26,1.48-.76,2.91-1.47,4.25l-4.52-2.61c.59-1.17.93-2.45,1.02-3.75h2.99c.85,0,.85-1.3,0-1.3h-2.99c-.09-1.3-.43-2.58-1.02-3.75l4.52-2.62c.71,1.34,1.21,2.77,1.47,4.25.07.35.35.52.63.52.32,0,.64-.22.65-.64v-.11c-1.47-7.86-8.3-13.44-16.14-13.44Z"/>
  <path class="cls-1" d="M45.49,28.29c-.56,0-.86.71-.45,1.1.13.13.3.19.46.19.33,0,.64-.25.64-.64,0-.35-.3-.65-.65-.65Z"/>
  <path class="cls-1" d="M41.81,25.06c-.57,0-.85.69-.45,1.1.12.13.28.19.44.19.33,0,.66-.26.66-.65,0-.35-.3-.63-.65-.63Z"/>
  <path class="cls-1" d="M38.62,19.44s-.02,0-.03,0c-.57,0-.87.69-.46,1.09.13.12.29.18.45.18.33,0,.65-.25.65-.64,0-.34-.26-.63-.6-.63Z"/>
  <path class="cls-1" d="M32.97,16.18c-.57,0-.87.69-.46,1.09.13.13.29.19.45.19.33,0,.65-.26.65-.64,0-.35-.28-.65-.63-.65Z"/>
  <path class="cls-1" d="M26.47,16.18c-.57,0-.87.69-.46,1.09.13.13.29.19.45.19.33,0,.65-.26.65-.64,0-.35-.28-.65-.63-.65Z"/>
  <path class="cls-1" d="M20.86,19.44s-.02,0-.03,0c-.57,0-.87.69-.46,1.09.13.12.29.18.45.18.33,0,.65-.25.65-.64,0-.34-.26-.63-.6-.63Z"/>
  <path class="cls-1" d="M17.59,25.04c-.57,0-.85.69-.46,1.1.13.13.29.19.45.19.34,0,.66-.26.66-.65-.02-.35-.3-.63-.65-.63Z"/>
  <path class="cls-1" d="M41.83,31.54c-.37,0-.65.28-.65.63,0,.39.32.65.65.65.16,0,.32-.06.45-.18.39-.41.11-1.09-.45-1.09Z"/>
  <path class="cls-1" d="M38.59,37.16c-.57,0-.87.69-.46,1.1.13.13.29.19.45.19.33,0,.65-.26.65-.63,0-.35-.28-.65-.63-.65Z"/>
  <path class="cls-1" d="M32.97,40.42c-.57,0-.87.69-.46,1.1.13.12.29.18.45.18.33,0,.65-.25.65-.65,0-.35-.28-.63-.63-.63Z"/>
  <path class="cls-1" d="M26.47,40.42c-.57,0-.87.69-.46,1.1.13.12.29.18.45.18.33,0,.65-.25.65-.65,0-.35-.28-.63-.63-.63Z"/>
  <path class="cls-1" d="M20.83,37.16c-.57,0-.87.69-.46,1.1.13.13.29.19.45.19.33,0,.65-.26.65-.63,0-.35-.28-.65-.63-.65Z"/>
  <path class="cls-1" d="M17.59,31.56c-.57,0-.85.69-.46,1.09.13.13.29.19.45.19.34,0,.66-.26.66-.65,0-.35-.3-.63-.65-.63Z"/>
  <path class="cls-1" d="M29.7,31.37c-.56,0-.86.69-.45,1.09.13.13.29.19.45.19.33,0,.65-.26.65-.64s-.28-.65-.65-.65Z"/>
  <path class="cls-1" d="M29.7,25.21c-.58,0-.86.7-.45,1.11.13.12.29.18.45.18.33,0,.65-.25.65-.64,0-.35-.3-.65-.65-.65Z"/>
</svg>