<?xml version="1.0" encoding="UTF-8"?>
<svg id="Layer_1" data-name="Layer 1" xmlns="http://www.w3.org/2000/svg" xmlns:xlink="http://www.w3.org/1999/xlink" viewBox="0 0 58.11 57.23">
  <defs>
    <style>
      .cls-1 {
        fill: url(#radial-gradient);
      }

      .cls-1, .cls-2 {
        fill-rule: evenodd;
      }

      .cls-2 {
        fill: url(#radial-gradient-2);
      }
    </style>
    <radialGradient id="radial-gradient" cx="-992.23" cy="526.91" fx="-992.23" fy="526.91" r="4.6" gradientTransform="translate(4591.93 2451.15) scale(4.6 -4.6)" gradientUnits="userSpaceOnUse">
      <stop offset="0" stop-color="#f3d5ab"/>
      <stop offset="1" stop-color="#dc9b3f"/>
    </radialGradient>
    <radialGradient id="radial-gradient-2" cx="88.17" cy="-1122.03" fx="88.17" fy="-1122.03" r=".95" gradientTransform="translate(-60.43 -1040.6) scale(.95 -.95)" gradientUnits="userSpaceOnUse">
      <stop offset="0" stop-color="#f3d5ab"/>
      <stop offset="1" stop-color="#dc9b3f"/>
    </radialGradient>
  </defs>
  <path class="cls-1" d="M21.48,16.44c.46,0,.92.36.92.91,0,.48-.41.89-.91.89-.8,0-1.21-.97-.63-1.54.18-.18.4-.26.62-.26ZM44.08,19.58c.4,0,.77.31.77.77,0,.43-.35.76-.78.76-.69,0-1.02-.81-.54-1.3.16-.16.35-.24.54-.24ZM33.54,22.65c.46,0,.91.36.91.91,0,.48-.39.89-.89.89-.8,0-1.21-.97-.65-1.54.19-.18.41-.26.63-.26ZM15.45,23.59c.46,0,.91.36.91.9,0,.5-.41.91-.91.91-.8,0-1.21-.96-.63-1.54.18-.19.41-.27.63-.27ZM39.58,24.15c.73,0,1.42.56,1.42,1.4,0,.78-.63,1.41-1.41,1.41h-.02c-1.25,0-1.87-1.51-.98-2.39.29-.29.64-.42.99-.42ZM31.7,31.15c.47,0,.91.36.91.91,0,.5-.41.89-.89.89-.82,0-1.21-.97-.65-1.54.18-.18.41-.26.63-.26ZM37.9,31.79c.73,0,1.42.57,1.42,1.42,0,.78-.63,1.41-1.41,1.41-1.26,0-1.89-1.52-1-2.41.29-.29.64-.42.99-.42ZM39.33,38.85c.43,0,.78.35.78.78,0,.46-.38.77-.78.77-.2,0-.39-.07-.56-.24-.48-.48-.13-1.32.56-1.32ZM21.48,15.16c-1.21,0-2.17.97-2.17,2.17,0,.41.11.81.33,1.17l-3.41,3.95c-.26-.1-.52-.14-.78-.14-1.16,0-2.19.93-2.19,2.19s1.08,2.18,2.2,2.18c.56,0,1.13-.22,1.59-.7l3.64,1.69c.08.04.17.06.26.06.69,0,.89-.93.28-1.22l-3.62-1.67c.02-.11.04-.22.04-.33,0-.45-.15-.89-.39-1.24l3.36-3.9c.28.12.58.18.87.18.57,0,1.14-.22,1.56-.64l8.37,4.3c-.02.11-.04.24-.04.37,0,1.34,1.1,2.2,2.21,2.2.63,0,1.27-.27,1.72-.88l1.59.5v.18c0,1.02.57,1.97,1.5,2.41l-.56,2.56c-1.02.02-1.95.63-2.37,1.58l-1.58-.3c-.14-1.2-1.14-1.92-2.17-1.92-.58,0-1.17.23-1.63.74l-3.62-1.69c-.12-.07-.24-.1-.34-.1-.62,0-.96,1-.2,1.27l3.63,1.69c-.02.09-.02.18-.02.28,0,1.36,1.09,2.17,2.2,2.17.74,0,1.48-.37,1.9-1.17l1.58.3c.09,1.41,1.22,2.5,2.64,2.54l.43,1.97c-1.86,1.1-.96,3.82.99,3.82.16,0,.32-.02.49-.06.98-.2,1.67-1.11,1.61-2.11-.05-1-.83-1.82-1.84-1.93l-.43-1.95c2-1,2-3.86,0-4.84l.54-2.56c2.17-.05,3.38-2.48,2.13-4.25l1.5-1.74c.27.11.54.16.81.16.95,0,1.83-.65,2.03-1.65.26-1.27-.73-2.47-2.01-2.47h-.03l-.02-.02c-1.13,0-2.04.91-2.04,2.04-.02.37.09.74.28,1.06l-1.5,1.76c-.36-.19-.74-.3-1.13-.3-.03,0-.06,0-.09,0-.94,0-1.82.48-2.3,1.28l-1.54-.48v-.09c0-1.32-1.07-2.19-2.19-2.19-.55,0-1.1.21-1.55.67l-8.37-4.32c.02-.13.04-.26.04-.39,0-1.21-.98-2.17-2.19-2.17Z"/>
  <path class="cls-2" d="M23.58,27.66c-.58,0-.87.69-.46,1.1.13.13.29.19.45.19.33,0,.65-.26.65-.65,0-.35-.28-.63-.63-.63Z"/>
</svg>