<?xml version="1.0" encoding="UTF-8"?>
<svg id="Layer_1" data-name="Layer 1" xmlns="http://www.w3.org/2000/svg" xmlns:xlink="http://www.w3.org/1999/xlink" viewBox="0 0 58.11 57.23">
  <defs>
    <style>
      .cls-1 {
        fill: url(#radial-gradient);
      }

      .cls-1, .cls-2, .cls-3, .cls-4, .cls-5, .cls-6, .cls-7, .cls-8 {
        fill-rule: evenodd;
      }

      .cls-2 {
        fill: url(#radial-gradient-7);
      }

      .cls-3 {
        fill: url(#radial-gradient-5);
      }

      .cls-4 {
        fill: url(#radial-gradient-6);
      }

      .cls-5 {
        fill: url(#radial-gradient-4);
      }

      .cls-6 {
        fill: url(#radial-gradient-8);
      }

      .cls-7 {
        fill: url(#radial-gradient-3);
      }

      .cls-8 {
        fill: url(#radial-gradient-2);
      }
    </style>
    <radialGradient id="radial-gradient" cx="-1005.25" cy="473.26" fx="-1005.25" fy="473.26" r="4.82" gradientTransform="translate(4873.81 2308.45) scale(4.82 -4.82)" gradientUnits="userSpaceOnUse">
      <stop offset="0" stop-color="#f3d5ab"/>
      <stop offset="1" stop-color="#dc9b3f"/>
    </radialGradient>
    <radialGradient id="radial-gradient-2" cx="-254.05" cy="-705.17" fx="-254.05" fy="-705.17" r="1.27" gradientTransform="translate(349.67 -871.25) scale(1.27 -1.27)" gradientUnits="userSpaceOnUse">
      <stop offset="0" stop-color="#f3d5ab"/>
      <stop offset="1" stop-color="#dc9b3f"/>
    </radialGradient>
    <radialGradient id="radial-gradient-3" cx="-248.38" cy="-704.96" fx="-248.38" fy="-704.96" r="1.27" gradientTransform="translate(349.88 -871.1) scale(1.27 -1.27)" gradientUnits="userSpaceOnUse">
      <stop offset="0" stop-color="#f3d5ab"/>
      <stop offset="1" stop-color="#dc9b3f"/>
    </radialGradient>
    <radialGradient id="radial-gradient-4" cx="-350.75" cy="-552.5" fx="-350.75" fy="-552.5" r="1.41" gradientTransform="translate(524.68 -748.24) scale(1.41 -1.41)" gradientUnits="userSpaceOnUse">
      <stop offset="0" stop-color="#f3d5ab"/>
      <stop offset="1" stop-color="#dc9b3f"/>
    </radialGradient>
    <radialGradient id="radial-gradient-5" cx="-596.92" cy="-166.16" fx="-596.92" fy="-166.16" r="1.92" gradientTransform="translate(1172.98 -292.6) scale(1.92 -1.92)" gradientUnits="userSpaceOnUse">
      <stop offset="0" stop-color="#f3d5ab"/>
      <stop offset="1" stop-color="#dc9b3f"/>
    </radialGradient>
    <radialGradient id="radial-gradient-6" cx="90.24" cy="-1252.63" fx="90.24" fy="-1252.63" r=".96" gradientTransform="translate(-56.64 -1156.81) scale(.96 -.96)" gradientUnits="userSpaceOnUse">
      <stop offset="0" stop-color="#f3d5ab"/>
      <stop offset="1" stop-color="#dc9b3f"/>
    </radialGradient>
    <radialGradient id="radial-gradient-7" cx="89.9" cy="-1248.48" fx="89.9" fy="-1248.48" r=".95" gradientTransform="translate(-60.41 -1159.46) scale(.95 -.95)" gradientUnits="userSpaceOnUse">
      <stop offset="0" stop-color="#f3d5ab"/>
      <stop offset="1" stop-color="#dc9b3f"/>
    </radialGradient>
    <radialGradient id="radial-gradient-8" cx="96.5" cy="-1244.14" fx="96.5" fy="-1244.14" r=".95" gradientTransform="translate(-57.95 -1157.73) scale(.95 -.95)" gradientUnits="userSpaceOnUse">
      <stop offset="0" stop-color="#f3d5ab"/>
      <stop offset="1" stop-color="#dc9b3f"/>
    </radialGradient>
  </defs>
  <path class="cls-1" d="M31.35,13.49h0c.5,1.1.48,2.32-.09,3.23-.04.04-.06.09-.07.15-.45.74-.65,1.62-.58,2.49-.31-.04-.62-.06-.93-.06-.6,0-1.21.07-1.79.2-.15-1,.33-1.97,1.21-2.45,1.28-.74,2.13-2.08,2.26-3.56ZM38.33,16.25c-.11,1.19-.74,2.24-1.69,2.73-.06.04-.09.06-.13.09-.76.43-1.37,1.07-1.74,1.87-.74-.54-1.56-.97-2.45-1.24.37-.93,1.26-1.52,2.26-1.52h.02c1.48,0,2.87-.73,3.73-1.93ZM23.93,14.6h0c.98.7,1.58,1.76,1.54,2.84-.02.05-.02.11,0,.16-.02.86.24,1.71.74,2.43-.83.37-1.61.87-2.3,1.5-.61-.8-.69-1.87-.17-2.73.76-1.3.82-2.86.19-4.21ZM37.58,21.6c.42,0,.85.11,1.23.33h-.02c.7.41,1.49.61,2.28.61.65,0,1.31-.14,1.93-.43h0c-.67.94-1.67,1.52-2.7,1.52-.05,0-.09,0-.14,0-.05,0-.11.02-.16.02h-.02c-.87,0-1.71.26-2.39.76-.39-.86-.89-1.63-1.5-2.3.43-.34.96-.52,1.5-.52ZM18.07,19.28h0c1.19.11,2.24.72,2.74,1.69.02.04.04.09.08.13.43.76,1.09,1.35,1.87,1.72-.54.74-.96,1.58-1.24,2.45-.93-.37-1.52-1.28-1.52-2.26.02-1.48-.73-2.89-1.93-3.73ZM16.92,25.89c.59,0,1.15.15,1.61.45.04.02.09.05.15.05.64.39,1.38.59,2.14.59.12,0,.23,0,.35-.01h0c-.04.3-.06.61-.06.91,0,.61.06,1.22.2,1.84-.11.01-.22.02-.33.02-.88,0-1.69-.45-2.12-1.23-.74-1.3-2.08-2.13-3.54-2.26.52-.24,1.07-.36,1.59-.36ZM38.47,26.04c.86,0,1.67.47,2.1,1.23.74,1.28,2.06,2.13,3.54,2.24-.53.24-1.09.37-1.62.37-.58,0-1.13-.14-1.59-.44-.05-.04-.09-.06-.15-.07-.64-.39-1.38-.59-2.13-.59-.12,0-.23,0-.35.01.04-.3.06-.59.06-.91,0-.61-.08-1.22-.2-1.82.12-.02.24-.03.35-.03ZM21.85,31.37c.37.85.87,1.63,1.5,2.3-.45.34-.98.52-1.51.52-.42,0-.84-.11-1.22-.33v-.02c-.7-.41-1.49-.61-2.28-.61-.65,0-1.31.14-1.93.43.67-.94,1.69-1.53,2.7-1.53.05,0,.09,0,.14,0h.2c.85,0,1.69-.26,2.39-.76ZM29.71,20.56c1.91,0,3.79.75,5.19,2.15,2.1,2.08,2.71,5.23,1.58,7.98-1.13,2.73-3.8,4.51-6.75,4.51-4.04,0-7.33-3.26-7.33-7.31,0-2.97,1.78-5.64,4.52-6.77.9-.37,1.85-.56,2.79-.56ZM37.9,30.5c.93.37,1.54,1.28,1.52,2.28,0,1.48.73,2.87,1.95,3.73-1.21-.11-2.26-.74-2.74-1.69-.02-.06-.06-.09-.09-.13-.43-.76-1.07-1.37-1.87-1.74.56-.74.96-1.56,1.24-2.45ZM24.65,34.82c.74.56,1.56.96,2.45,1.24-.37.93-1.28,1.52-2.26,1.52h-.02c-1.48,0-2.87.73-3.73,1.95.11-1.21.74-2.26,1.69-2.74.06-.02.09-.06.13-.09.76-.43,1.37-1.07,1.74-1.87ZM35.51,34.25c.61.78.69,1.85.18,2.73h-.02c-.74,1.28-.81,2.85-.18,4.19-.98-.69-1.58-1.76-1.52-2.84v-.15c0-.87-.26-1.72-.76-2.43.85-.39,1.61-.89,2.3-1.5ZM31.06,11.47c-.57,0-1.12.49-1.02,1.18.2,1.32-.43,2.63-1.58,3.28-.8.45-1.39,1.17-1.69,2.02-.02-.15-.02-.3,0-.46v-.15c0-1.85-1.26-3.62-3.23-4.41-.13-.05-.26-.08-.39-.08-.78,0-1.34.97-.78,1.65.83,1.04.94,2.49.28,3.66-.46.78-.61,1.69-.45,2.58-.09-.11-.17-.24-.24-.37-.02-.06-.05-.09-.07-.15-.81-1.4-2.41-2.25-4.19-2.25-.27,0-.53.02-.81.06-1.04.15-1.19,1.58-.22,1.95,1.24.48,2.06,1.67,2.06,3.01-.02.91.32,1.78.91,2.47-.15-.06-.28-.13-.41-.2-.04-.04-.09-.05-.13-.07-.66-.39-1.42-.58-2.19-.58-1.11,0-2.26.4-3.25,1.17-.77.61-.29,1.79.62,1.79.06,0,.12,0,.18-.01.15-.02.3-.03.46-.03,1.15,0,2.24.61,2.83,1.63.45.78,1.17,1.39,2.02,1.69-.1,0-.2,0-.3,0-.05,0-.11,0-.16,0h-.19c-1.85,0-3.58,1.28-4.36,3.23-.29.73.29,1.4.95,1.4.21,0,.43-.07.63-.23.59-.47,1.3-.71,2.02-.71.56,0,1.11.14,1.61.43.57.33,1.22.52,1.89.52.22,0,.46-.04.7-.08h0c-.13.09-.26.17-.39.22-.06.04-.09.05-.13.09-1.63.93-2.5,2.91-2.21,4.99.07.46.43.81.89.85h.11c.43,0,.8-.26.95-.65.48-1.22,1.67-2.04,3-2.06h.04c.91,0,1.76-.32,2.45-.91h0c-.06.15-.13.28-.22.41-.02.04-.05.09-.05.15-.95,1.6-.73,3.77.59,5.42.18.24.46.39.78.39.13,0,.28-.04.41-.09.43-.19.67-.63.59-1.1-.02-.07-.02-.15-.02-.22-.04-.34-.33-.6-.67-.6-.01,0-.02,0-.04,0-.17.02-.33.09-.45.24-.65-1.17-.69-2.52-.06-3.49.04-.06.06-.09.07-.15.45-.74.65-1.62.58-2.49h0c.3.04.59.06.91.06.61,0,1.22-.08,1.82-.2h0c.08.57-.04,1.15-.35,1.63-.19.3-.09.69.2.87.11.08.22.11.35.11.22,0,.43-.11.54-.3.15-.26.28-.52.37-.8.02.15.02.32.02.46v.15c-.02,1.85,1.26,3.62,3.23,4.41.13.05.26.08.39.08.78,0,1.34-.97.76-1.65-.83-1.04-.94-2.48-.28-3.64.46-.8.63-1.71.45-2.6h0c.09.11.17.24.24.39.02.04.05.09.09.13.8,1.41,2.39,2.24,4.17,2.24.28,0,.54-.02.81-.05,1.02-.15,1.19-1.58.2-1.95-1.22-.48-2.04-1.67-2.04-3.01,0-.91-.32-1.78-.91-2.47h0c.13.06.26.13.39.22.06.02.09.04.15.05.64.37,1.35.58,2.08.58h.1c1.19,0,2.34-.41,3.25-1.15.37-.28.5-.78.3-1.19h0v.02c-.16-.37-.51-.61-.9-.61-.06,0-.12,0-.18.02-.15.02-.31.03-.46.03-1.16,0-2.25-.61-2.85-1.63-.45-.8-1.17-1.39-2.02-1.69.08,0,.16-.01.24-.01s.15,0,.23.01h.2c1.86,0,3.58-1.28,4.36-3.23.29-.74-.3-1.41-.94-1.41-.21,0-.43.07-.63.24-.59.47-1.3.71-2.03.71-.56,0-1.12-.14-1.63-.43-.57-.34-1.21-.52-1.86-.52-.24,0-.48.03-.72.08.11-.09.24-.17.39-.24.04-.02.09-.05.13-.09,1.61-.93,2.5-2.89,2.19-4.99-.05-.45-.43-.8-.89-.85-.04,0-.08,0-.11,0-.41,0-.79.27-.94.66-.48,1.24-1.67,2.06-2.99,2.06h-.05c-.89,0-1.76.32-2.43.91.06-.15.13-.28.2-.41.04-.04.05-.09.07-.13.95-1.62.72-3.77-.59-5.44-.21-.27-.5-.39-.78-.39Z"/>
  <path class="cls-8" d="M26.77,26.32c-.15,0-.3.06-.44.2-.09.09-.2.13-.32.13s-.24-.04-.32-.13c-.14-.13-.29-.18-.44-.18-.49,0-.9.62-.47,1.09.33.33.77.5,1.22.5s.89-.17,1.23-.5c.46-.47.03-1.1-.47-1.1Z"/>
  <path class="cls-7" d="M32.65,26.32c-.49,0-.92.63-.47,1.1.34.33.79.5,1.23.5s.88-.17,1.22-.5c.24-.24.24-.65,0-.91-.13-.12-.29-.18-.45-.18s-.33.06-.45.18c-.08.09-.2.13-.32.13s-.22-.04-.32-.13c-.14-.14-.29-.2-.44-.2Z"/>
  <path class="cls-5" d="M30.9,30.59c-.14,0-.3.05-.44.19-.06.06-.14.09-.23.09-.07,0-.14-.02-.2-.05-.1-.06-.21-.08-.33-.08s-.22.03-.32.08c-.06.03-.12.05-.19.05-.08,0-.16-.03-.24-.09-.13-.11-.27-.15-.4-.15-.51,0-.92.68-.44,1.12.49.3,1.04.45,1.59.45s1.1-.15,1.58-.45c.55-.44.13-1.15-.4-1.15Z"/>
  <path class="cls-3" d="M25.7,23.47c-.84,0-.84,1.28,0,1.28h1.94c.5,0,.91.41.91.91v2.75c-.03.45.31.68.64.68s.67-.23.64-.68v-2.75c0-1.21-.98-2.19-2.19-2.19h-1.89s-.04,0-.05,0Z"/>
  <path class="cls-4" d="M29.59,39.57c-.57,0-.85.7-.46,1.1.13.13.3.19.46.19.33,0,.64-.25.65-.64,0-.35-.3-.65-.65-.65Z"/>
  <path class="cls-2" d="M25.25,29.28c-.57,0-.87.69-.46,1.1.13.13.29.19.45.19.33,0,.65-.26.65-.65,0-.35-.28-.63-.63-.63Z"/>
  <path class="cls-6" d="M34.17,29.28c-.58,0-.86.69-.46,1.1.13.13.29.19.45.19.34,0,.66-.26.66-.65-.02-.35-.3-.63-.65-.63Z"/>
</svg>