<?xml version="1.0" encoding="UTF-8"?>
<svg id="Layer_1" data-name="Layer 1" xmlns="http://www.w3.org/2000/svg" viewBox="0 0 58.11 57.23">
  <defs>
    <style>
      .cls-1 {
        fill: #ebb871;
        fill-rule: evenodd;
      }
    </style>
  </defs>
  <path class="cls-1" d="M30.15,11.98c-3.23,0-6.48.95-9.3,2.88-.55.41-.16,1.17.37,1.17.11,0,.23-.03.35-.11,2.61-1.79,5.6-2.66,8.56-2.66,4.36,0,8.68,1.88,11.66,5.46,4.99,6.01,4.58,14.84-.95,20.39-2.94,2.94-6.81,4.43-10.7,4.43-3.43,0-6.86-1.16-9.69-3.5-6.01-4.99-7.22-13.76-2.78-20.2.32-.5-.11-1-.56-1-.18,0-.36.08-.5.27-3.62,5.25-3.86,12.11-.63,17.6,2.97,5.06,8.36,8.12,14.14,8.12.51,0,1.02-.02,1.53-.07,6.34-.58,11.78-4.79,13.95-10.78,2.17-5.99.67-12.71-3.84-17.2-3.18-3.18-7.38-4.81-11.62-4.81Z"/>
  <path class="cls-1" d="M30.21,15.85c5.07,0,9.63,3.07,11.57,7.75,1.95,4.71.87,10.11-2.73,13.71-2.39,2.4-5.61,3.68-8.89,3.68-1.62,0-3.26-.31-4.82-.96-4.69-1.95-7.75-6.53-7.75-11.61,0-6.96,5.62-12.58,12.58-12.58h.04ZM30.18,14.55c-.9,0-1.81.09-2.73.27-6.49,1.28-11.17,6.98-11.17,13.6,0,3.67,1.47,7.2,4.06,9.8,2.68,2.68,6.23,4.06,9.81,4.06,2.67,0,5.35-.77,7.7-2.33,5.51-3.67,7.64-10.72,5.1-16.82-2.17-5.26-7.27-8.56-12.78-8.56Z"/>
  <path class="cls-1" d="M36.03,21.36c.49,0,.93.65.45,1.1-.84.85-1.84,1.52-2.95,1.97-.24.09-.39.33-.39.59v6.81c0,.26.15.5.39.59,1.11.46,2.12,1.13,2.95,1.97.49.47.06,1.13-.44,1.13-.15,0-.32-.06-.45-.22-1.5-1.49-3.47-2.24-5.44-2.24s-3.93.75-5.44,2.24c-.14.13-.29.19-.44.19-.49,0-.9-.63-.47-1.1.72-.7,1.54-1.3,2.45-1.72.22-.11.35-.33.37-.59v-7.31c-.02-.24-.15-.46-.37-.57v.02c-.91-.45-1.72-1.02-2.45-1.74-.46-.46-.02-1.1.47-1.1.15,0,.3.06.44.19,1.5,1.5,3.47,2.25,5.44,2.25s3.93-.75,5.44-2.25c.13-.14.29-.19.44-.19ZM36.11,20.01c-.52,0-1.04.21-1.42.62-1.25,1.25-2.89,1.88-4.52,1.88s-3.27-.63-4.51-1.88c-.38-.37-.88-.56-1.37-.56s-.98.19-1.35.56c-.76.76-.76,1.99,0,2.73.7.72,1.54,1.34,2.43,1.8v6.51c-.91.48-1.72,1.1-2.45,1.82-1.21,1.21-.35,3.28,1.37,3.28.5,0,1-.2,1.35-.56,1.25-1.25,2.89-1.88,4.53-1.88s3.27.62,4.53,1.88c.37.37.86.56,1.35.56s.98-.19,1.35-.56c.76-.76.76-1.97,0-2.73-.85-.87-1.86-1.58-2.97-2.08v-5.97c1.11-.52,2.12-1.21,2.97-2.08.81-.74.85-2,.07-2.78-.38-.38-.87-.57-1.36-.57Z"/>
  <path class="cls-1" d="M29.2,26.32c.27.02.54.03.81.03.19,0,.39,0,.58-.01v4.14c-.17,0-.34,0-.51,0-.29,0-.59.01-.88.05v-4.19ZM28.54,24.94c-.34,0-.63.29-.63.64v5.66c0,.2.08.37.22.5.11.09.26.15.41.15h.11c.51-.08,1.03-.12,1.55-.12.32,0,.63.02.94.05.02,0,.05,0,.07,0,.16,0,.32-.05.43-.15.13-.13.22-.3.22-.48v-5.53c0-.35-.3-.63-.66-.63-.02,0-.04,0-.07,0-.31.04-.62.05-.94.05-.52,0-1.04-.04-1.55-.13-.04,0-.08,0-.12,0Z"/>
  <path class="cls-1" d="M19.03,16.62h-.03c-.57,0-.85.69-.46,1.1.13.12.29.18.45.18.34,0,.66-.25.66-.65-.02-.34-.28-.63-.62-.63Z"/>
</svg>