<?xml version="1.0" encoding="UTF-8"?>
<svg id="Layer_1" data-name="Layer 1" xmlns="http://www.w3.org/2000/svg" xmlns:xlink="http://www.w3.org/1999/xlink" viewBox="0 0 58.11 57.23">
  <defs>
    <style>
      .cls-1 {
        fill: url(#radial-gradient);
      }

      .cls-1, .cls-2, .cls-3, .cls-4 {
        fill-rule: evenodd;
      }

      .cls-2 {
        fill: url(#radial-gradient-4);
      }

      .cls-3 {
        fill: url(#radial-gradient-3);
      }

      .cls-4 {
        fill: url(#radial-gradient-2);
      }
    </style>
    <radialGradient id="radial-gradient" cx="-1054.83" cy="767" fx="-1054.83" fy="767" r="4.82" gradientTransform="translate(5114.21 3727.15) scale(4.82 -4.82)" gradientUnits="userSpaceOnUse">
      <stop offset="0" stop-color="#f3d5ab"/>
      <stop offset="1" stop-color="#dc9b3f"/>
    </radialGradient>
    <radialGradient id="radial-gradient-2" cx="-716.97" cy="318.27" fx="-716.97" fy="318.27" r="2.19" gradientTransform="translate(1596.98 730.61) scale(2.19 -2.19)" gradientUnits="userSpaceOnUse">
      <stop offset="0" stop-color="#f3d5ab"/>
      <stop offset="1" stop-color="#dc9b3f"/>
    </radialGradient>
    <radialGradient id="radial-gradient-3" cx="-713.4" cy="319.45" fx="-713.4" fy="319.45" r="2.2" gradientTransform="translate(1601.24 734.23) scale(2.2 -2.2)" gradientUnits="userSpaceOnUse">
      <stop offset="0" stop-color="#f3d5ab"/>
      <stop offset="1" stop-color="#dc9b3f"/>
    </radialGradient>
    <radialGradient id="radial-gradient-4" cx="100.14" cy="-730.46" fx="100.14" fy="-730.46" r=".95" gradientTransform="translate(-60.78 -681.74) scale(.95 -.95)" gradientUnits="userSpaceOnUse">
      <stop offset="0" stop-color="#f3d5ab"/>
      <stop offset="1" stop-color="#dc9b3f"/>
    </radialGradient>
  </defs>
  <path class="cls-1" d="M43.44,20.44c.33.74.5,1.52.5,2.32,0,.26-.04.54-.09.78-.26,1.13-.09,2.3.43,3.3l.39.76-.52.15c-.28.09-.46.33-.46.61v.93l-.39.57c-.19.26-.28.58-.28.89,0,.5-.43.93-.93.93-.2,0-.39-.05-.56-.18l-1.91-1.34c-.12-.08-.24-.11-.35-.11-.54,0-.92.76-.37,1.17l.24.17v1.82c0,.13.02.28.04.43-2.1-1.85-3.3-4.51-3.32-7.31,0-2.26,1.85-4.1,4.12-4.1,1.37-.02,2.65-.67,3.47-1.78ZM15.78,20.44c.8,1.11,2.1,1.76,3.47,1.76,2.26,0,4.1,1.84,4.1,4.12,0,2.8-1.2,5.46-3.3,7.33.02-.15.04-.3.04-.45v-1.8l.26-.19c.55-.41.16-1.17-.38-1.17-.12,0-.24.04-.36.11l-1.91,1.34c-.16.11-.35.16-.56.16-.5,0-.93-.41-.93-.93,0-.32-.09-.61-.28-.87l-.39-.57v-.93c0-.28-.19-.54-.46-.61l-.52-.17.39-.74c.52-1.02.69-2.19.43-3.3-.06-.26-.09-.52-.09-.78,0-.8.16-1.59.5-2.32ZM19.18,14.84h.1c5.34,0,9.68,4.34,9.7,9.7l-.02,20.59h-9.78c-.2-1.74.15-3.5,1.02-5.03.28-.51-.15-.95-.58-.95-.2,0-.4.09-.53.32-.98,1.71-1.41,3.69-1.21,5.66h-3.12c-1.02-3.23.8-7.38,4.04-9.09,3.58-1.91,5.84-5.66,5.84-9.72-.04-2.97-2.43-5.36-5.38-5.4-.03,0-.07,0-.1,0-1.68,0-3.03-1.37-3.03-3.04s1.35-3.04,3.03-3.04ZM19.28,13.54c-2.86.02-4.93,2.73-4.17,5.47-.72,1.13-1.1,2.41-1.1,3.75,0,.35.04.7.11,1.06.19.82.08,1.69-.32,2.43l-.48.94c-.32.61,0,1.37.67,1.56l.28.09v.65c0,.13.04.26.11.37l.5.73c.04.05.06.11.06.17,0,1.2.98,2.19,2.21,2.19.46,0,.91-.13,1.28-.39l.39-.26v.91c-.02.82-.45,1.59-1.17,2.02-1.67,1.07-2.95,2.65-3.71,4.49-.89,2.15-.97,4.38-.2,6.29.11.24.33.41.59.41h30.59c.28,0,.5-.17.61-.41.76-1.91.69-4.14-.2-6.29-.76-1.83-2.06-3.41-3.73-4.49h-.02c-.72-.43-1.17-1.21-1.17-2.02v-.93l.39.28c.37.26.84.39,1.28.39,1.22,0,2.21-.98,2.23-2.21,0-.04.02-.09.04-.15l.52-.73c.08-.11.11-.24.11-.37v-.65l.28-.09c.67-.2.98-.95.65-1.56l-.48-.94c-.39-.74-.5-1.61-.31-2.43.07-.35.11-.7.13-1.06-.02-1.34-.39-2.61-1.1-3.75.74-2.74-1.32-5.45-4.17-5.47-.89,0-1.76.11-2.63.32-.75.2-.56,1.26.13,1.26.06,0,.12,0,.18-.02.76-.19,1.54-.28,2.32-.28,1.65.06,2.97,1.41,2.97,3.06s-1.32,3.01-2.97,3.04c-2.97.04-5.36,2.43-5.38,5.4-.02,4.06,2.24,7.81,5.84,9.7,3.25,1.73,5.05,5.88,4.03,9.11h-3.12c.2-1.97-.2-3.95-1.19-5.66-.14-.24-.34-.33-.54-.33-.43,0-.85.45-.58.96.87,1.52,1.22,3.28,1,5.03h-9.77v-20.59c-.02-2.52.97-4.95,2.73-6.75.45-.48.02-1.11-.48-1.11-.15,0-.31.06-.45.21-1.1,1.13-1.93,2.47-2.47,3.95-1.56-4.36-5.7-7.27-10.31-7.29Z"/>
  <path class="cls-4" d="M26.22,28.38c-.35,0-.63.28-.63.63v.06c0,2.65-1.07,5.19-2.84,6.79-.43.39-.15,1.11.43,1.11.16,0,.31-.06.43-.17,2.04-1.86,3.25-4.75,3.26-7.77,0-.17-.06-.33-.19-.46-.11-.13-.3-.19-.46-.19Z"/>
  <path class="cls-3" d="M32.99,28.38c-.16,0-.32.06-.45.2-.13.11-.19.28-.19.46,0,3.01,1.22,5.92,3.25,7.77.14.12.29.18.43.18.51,0,.94-.68.44-1.13-1.78-1.61-2.84-4.15-2.84-6.81v-.02c0-.4-.32-.66-.65-.66Z"/>
  <path class="cls-2" d="M34.81,14.91c-.58,0-.86.69-.46,1.09.13.13.29.19.45.19.34,0,.66-.26.66-.64s-.3-.65-.65-.65Z"/>
</svg>