<?xml version="1.0" encoding="UTF-8"?>
<svg id="Layer_1" data-name="Layer 1" xmlns="http://www.w3.org/2000/svg" xmlns:xlink="http://www.w3.org/1999/xlink" viewBox="0 0 58.11 57.23">
  <defs>
    <style>
      .cls-1 {
        fill: url(#radial-gradient);
      }

      .cls-1, .cls-2, .cls-3, .cls-4 {
        fill-rule: evenodd;
      }

      .cls-2 {
        fill: url(#radial-gradient-4);
      }

      .cls-3 {
        fill: url(#radial-gradient-3);
      }

      .cls-4 {
        fill: url(#radial-gradient-2);
      }
    </style>
    <radialGradient id="radial-gradient" cx="-1052.88" cy="690.93" fx="-1052.88" fy="690.93" r="4.79" gradientTransform="translate(5069.9 3337.07) scale(4.79 -4.79)" gradientUnits="userSpaceOnUse">
      <stop offset="0" stop-color="#f3d5ab"/>
      <stop offset="1" stop-color="#dc9b3f"/>
    </radialGradient>
    <radialGradient id="radial-gradient-2" cx="-530.97" cy="-24.23" fx="-530.97" fy="-24.23" r="1.69" gradientTransform="translate(922.63 -7.64) scale(1.69 -1.69)" gradientUnits="userSpaceOnUse">
      <stop offset="0" stop-color="#f3d5ab"/>
      <stop offset="1" stop-color="#dc9b3f"/>
    </radialGradient>
    <radialGradient id="radial-gradient-3" cx="-527.2" cy="-23.12" fx="-527.2" fy="-23.12" r="1.69" gradientTransform="translate(924.92 -5.79) scale(1.69 -1.69)" gradientUnits="userSpaceOnUse">
      <stop offset="0" stop-color="#f3d5ab"/>
      <stop offset="1" stop-color="#dc9b3f"/>
    </radialGradient>
    <radialGradient id="radial-gradient-4" cx="101.35" cy="-876.62" fx="101.35" fy="-876.62" r=".95" gradientTransform="translate(-60.58 -800.58) scale(.95 -.95)" gradientUnits="userSpaceOnUse">
      <stop offset="0" stop-color="#f3d5ab"/>
      <stop offset="1" stop-color="#dc9b3f"/>
    </radialGradient>
  </defs>
  <path class="cls-1" d="M17.84,14.33h0c1.3.09,2.54.37,3.75.87-.45.26-.87.58-1.26.91-.76-.69-1.6-1.28-2.49-1.78ZM41.38,14.33h0c-.89.52-1.72,1.11-2.48,1.78-.39-.33-.81-.63-1.26-.91,1.2-.48,2.45-.78,3.75-.87ZM22.98,15.89c.35.2.7.41,1.04.65.26.19.5.39.74.58-.76.45-1.47.96-2.12,1.56-.17-.22-.33-.46-.52-.67-.28-.35-.56-.69-.87-1,.54-.43,1.11-.8,1.73-1.11ZM36.24,15.89c.61.32,1.19.69,1.72,1.11-.32.32-.61.65-.89,1-.17.22-.35.45-.52.67-.63-.59-1.35-1.11-2.12-1.56.24-.19.46-.35.7-.54.35-.24.72-.48,1.1-.69ZM33.46,18.04c.87.45,1.67,1.04,2.37,1.71-.35.61-.69,1.22-.97,1.86-.95-.63-1.97-1.11-3.04-1.45.46-.76,1-1.48,1.62-2.12h.02ZM25.76,18.04c.61.65,1.17,1.35,1.61,2.12h.02c-1.08.33-2.1.84-3.04,1.47-.28-.65-.61-1.26-.97-1.85.7-.69,1.5-1.28,2.37-1.73ZM28,21.31c.33.72.61,1.48.8,2.28-1.22.11-2.41.5-3.45,1.13-.15-.63-.32-1.26-.52-1.87.95-.7,2.02-1.22,3.17-1.54ZM31.21,21.31c1.13.31,2.21.83,3.17,1.52-.22.63-.39,1.26-.52,1.91-1.06-.65-2.23-1.04-3.45-1.17.19-.78.45-1.54.8-2.26ZM18.2,26.11c1.57,0,3.1.9,3.79,2.48-.26.61-.43,1.24-.54,1.89-.15.02-.31.03-.46.03-1.15,0-2.24-.61-2.83-1.61v-.02c-.56-.93-1.48-1.62-2.56-1.86.77-.63,1.69-.93,2.59-.93ZM40.97,26.11c.9,0,1.82.3,2.59.93-1.08.24-2,.91-2.56,1.86l.02.02c-.61,1-1.69,1.61-2.85,1.61-.15,0-.3-.01-.46-.03-.09-.65-.28-1.28-.54-1.89.68-1.59,2.22-2.48,3.79-2.48ZM29.59,24.82c2.47,0,4.94,1.28,6.23,3.85h-1.45c-2,0-3.82,1.1-4.77,2.86-.94-1.76-2.78-2.86-4.77-2.86h-1.47c1.28-2.57,3.75-3.85,6.22-3.85ZM30.67,37.59c.06,0,.12.05.16.12.06.07.04.16-.02.22l-1.04,1.37s-.11.07-.17.07c-.07,0-.13-.04-.16-.07l-1.04-1.37c-.05-.06-.07-.15-.02-.22.01-.07.07-.12.15-.12.01,0,.02,0,.04,0h2.08s.02,0,.03,0ZM24.83,29.97c2.26,0,4.12,1.84,4.12,4.12v2.23h-.41c-.94,0-1.65.87-1.47,1.8l-.83.83c-.24.24-.43.5-.56.8-.8-1-1.47-2.12-1.97-3.3h.02c-.71-1.61-1.1-3.32-1.1-4.68,0-.61.08-1.22.24-1.8h1.95ZM31.42,39.24l.63.61c.54.56.54,1.45,0,2-.28.27-.64.4-1,.4s-.72-.13-1-.4c-.12-.13-.28-.2-.45-.2s-.33.07-.46.2c-.31.3-.65.43-.98.43-1.09,0-2.02-1.41-1.01-2.44l.63-.61.63.82c.3.39.74.58,1.19.58s.89-.2,1.19-.58l.63-.82ZM29.75,43.12c.53,0,1.07.13,1.54.41-.32.65-.96,1.08-1.69,1.08s-1.39-.41-1.69-1.08c.07,0,.15.02.24.02.49-.28,1.04-.43,1.59-.43ZM17.01,13.02c-.65,0-1.31.05-1.97.14-.67.09-.76,1.02-.11,1.24,2.43.85,4.58,2.37,6.21,4.4,1.59,1.95,2.65,4.27,3.06,6.75-.56.5-1.06,1.06-1.47,1.69-1.06-1.61-2.78-2.42-4.5-2.42s-3.45.81-4.52,2.44c-.28.43.04.99.52.99.04,0,.07,0,.11,0,.14-.02.27-.03.41-.03.95,0,1.83.5,2.32,1.33.84,1.39,2.34,2.24,3.95,2.26.11,0,.24,0,.35-.02,0,1.54.41,3.38,1.19,5.16.67,1.69,1.69,3.21,2.95,4.49.11.5.35.96.72,1.32.06.07.13.13.2.18.11,1.65,1.48,2.95,3.15,2.95s3.04-1.3,3.15-2.95c.06-.05.13-.11.19-.18.37-.35.61-.82.72-1.32.67-.63,1.24-1.35,1.74-2.13.33-.51-.12-1-.57-1-.19,0-.38.09-.52.3-.24.41-.52.78-.82,1.15-.13-.3-.32-.57-.56-.8l-.83-.85c.18-.93-.52-1.8-1.47-1.8h-.41v-2.23c0-2.26,1.86-4.12,4.12-4.12h1.95c.17.59.24,1.2.24,1.82-.02.57-.08,1.15-.19,1.73-.12.49.27.79.64.79.29,0,.57-.17.62-.57.13-.63.2-1.3.2-1.95.11,0,.22.02.35.02.59,0,1.19-.11,1.74-.33.93-.39,1.71-1.06,2.21-1.91.49-.83,1.37-1.33,2.31-1.33.13,0,.27,0,.4.03.03,0,.06,0,.09,0,.5,0,.82-.57.54-.99h.02c-1.06-1.63-2.78-2.44-4.51-2.44s-3.43.81-4.51,2.43c-.41-.63-.89-1.19-1.45-1.67.41-2.48,1.47-4.82,3.06-6.77,1.61-2.02,3.76-3.54,6.21-4.4.63-.22.56-1.15-.11-1.24-.66-.1-1.32-.14-1.97-.14-5.55,0-10.63,3.44-12.61,8.79-1.96-5.34-7.04-8.79-12.59-8.79Z"/>
  <path class="cls-4" d="M25.36,32.57c.69,0,1.28.64,1.14,1.39-.14.05-.27.07-.41.07-.7,0-1.29-.64-1.13-1.39.13-.05.27-.07.4-.07ZM25.34,31.31c-.38,0-.78.07-1.2.22-.2.07-.37.26-.41.48-.2,1.13.07,2.12.76,2.71.43.35.95.56,1.5.56h.07c.43,0,.83-.08,1.22-.22.2-.07.37-.26.41-.48.2-1.13-.07-2.12-.76-2.71-.43-.37-.99-.56-1.6-.56Z"/>
  <path class="cls-3" d="M33.14,31.71c1.03,0,1.56,1.33.73,2.04-.23.17-.51.25-.79.25-.12,0-.25-.02-.37-.05-1.1-.43-.95-2.02.22-2.23.08-.01.15-.02.22-.02ZM33.82,31.32c-.6,0-1.14.18-1.55.54-.7.59-.98,1.58-.78,2.71.05.22.2.41.43.48.39.15.8.22,1.21.24h.07c.55,0,1.08-.2,1.51-.56.7-.59.98-1.58.76-2.71-.04-.22-.19-.41-.41-.48-.43-.15-.84-.23-1.23-.23Z"/>
  <path class="cls-2" d="M36.18,35.74c-.57,0-.85.69-.46,1.09.13.13.29.19.45.19.33,0,.66-.26.66-.64s-.3-.65-.65-.65Z"/>
</svg>