<?xml version="1.0" encoding="UTF-8"?>
<svg id="Layer_1" data-name="Layer 1" xmlns="http://www.w3.org/2000/svg" viewBox="0 0 58.11 57.23">
  <defs>
    <style>
      .cls-1 {
        fill: #ebb871;
        fill-rule: evenodd;
      }
    </style>
  </defs>
  <path class="cls-1" d="M29.63,13.79c.98,0,1.97.09,2.96.29,7.07,1.41,12.17,7.62,12.19,14.86,0,4.01-1.6,7.86-4.45,10.7-2.92,2.93-6.79,4.44-10.7,4.44-2.92,0-5.85-.84-8.41-2.57-6.01-4.01-8.35-11.71-5.58-18.36,2.38-5.75,7.97-9.36,14-9.36ZM29.59,12.5c-3.15,0-6.32.91-9.1,2.77-6.53,4.36-9.05,12.71-6.07,19.96,2.59,6.23,8.65,10.14,15.19,10.14,1.06,0,2.13-.1,3.2-.31,7.7-1.54,13.24-8.27,13.24-16.12,0-4.36-1.72-8.55-4.82-11.61-3.18-3.18-7.4-4.83-11.64-4.83Z"/>
  <path class="cls-1" d="M29.61,15.97c-6.64,0-12.21,5.01-12.89,11.59-.7,6.6,3.69,12.65,10.17,14.04.05.02.09.02.13.02.76,0,.89-1.1.15-1.26-5.79-1.24-9.74-6.62-9.18-12.52.56-5.9,5.44-10.44,11.35-10.57.1,0,.2,0,.3,0,5.79,0,10.72,4.26,11.54,10.02.83,5.86-2.84,11.43-8.57,12.95-.77.2-.55,1.27.14,1.27.06,0,.12,0,.19-.03,6.29-1.67,10.39-7.75,9.53-14.21-.83-6.47-6.34-11.3-12.86-11.3Z"/>
  <path class="cls-1" d="M29.63,25.71c.79,0,1.6.29,2.25.95,2.04,2.02.59,5.51-2.26,5.51-1.78,0-3.23-1.45-3.23-3.23,0-1.95,1.59-3.23,3.24-3.23ZM29.58,24.42c-1.11,0-2.24.41-3.16,1.33-2.84,2.84-.84,7.7,3.19,7.7,2.49,0,4.49-2.02,4.51-4.51,0-2.72-2.22-4.52-4.54-4.52Z"/>
  <path class="cls-1" d="M29.91,40.63c-.57,0-.87.69-.46,1.09.13.13.29.19.45.19.33,0,.65-.26.65-.64s-.28-.65-.63-.65Z"/>
</svg>