<?xml version="1.0" encoding="UTF-8"?>
<svg id="Layer_1" data-name="Layer 1" xmlns="http://www.w3.org/2000/svg" xmlns:xlink="http://www.w3.org/1999/xlink" viewBox="0 0 58.11 57.23">
  <defs>
    <style>
      .cls-1 {
        fill: url(#radial-gradient);
      }

      .cls-1, .cls-2, .cls-3, .cls-4, .cls-5, .cls-6, .cls-7, .cls-8, .cls-9, .cls-10, .cls-11, .cls-12, .cls-13, .cls-14, .cls-15, .cls-16, .cls-17, .cls-18, .cls-19, .cls-20, .cls-21, .cls-22, .cls-23 {
        fill-rule: evenodd;
      }

      .cls-2 {
        fill: url(#radial-gradient-20);
      }

      .cls-3 {
        fill: url(#radial-gradient-21);
      }

      .cls-4 {
        fill: url(#radial-gradient-23);
      }

      .cls-5 {
        fill: url(#radial-gradient-22);
      }

      .cls-6 {
        fill: url(#radial-gradient-11);
      }

      .cls-7 {
        fill: url(#radial-gradient-17);
      }

      .cls-8 {
        fill: url(#radial-gradient-19);
      }

      .cls-9 {
        fill: url(#radial-gradient-10);
      }

      .cls-10 {
        fill: url(#radial-gradient-18);
      }

      .cls-11 {
        fill: url(#radial-gradient-15);
      }

      .cls-12 {
        fill: url(#radial-gradient-12);
      }

      .cls-13 {
        fill: url(#radial-gradient-16);
      }

      .cls-14 {
        fill: url(#radial-gradient-13);
      }

      .cls-15 {
        fill: url(#radial-gradient-14);
      }

      .cls-16 {
        fill: url(#radial-gradient-7);
      }

      .cls-17 {
        fill: url(#radial-gradient-5);
      }

      .cls-18 {
        fill: url(#radial-gradient-6);
      }

      .cls-19 {
        fill: url(#radial-gradient-4);
      }

      .cls-20 {
        fill: url(#radial-gradient-8);
      }

      .cls-21 {
        fill: url(#radial-gradient-9);
      }

      .cls-22 {
        fill: url(#radial-gradient-3);
      }

      .cls-23 {
        fill: url(#radial-gradient-2);
      }
    </style>
    <radialGradient id="radial-gradient" cx="-1054.37" cy="546.15" fx="-1054.37" fy="546.15" r="4.81" gradientTransform="translate(5103.62 2656.55) scale(4.81 -4.81)" gradientUnits="userSpaceOnUse">
      <stop offset="0" stop-color="#f3d5ab"/>
      <stop offset="1" stop-color="#dc9b3f"/>
    </radialGradient>
    <radialGradient id="radial-gradient-2" cx="-696.45" cy="27.79" fx="-696.45" fy="27.79" r="2.13" gradientTransform="translate(1513.38 87.62) scale(2.13 -2.13)" gradientUnits="userSpaceOnUse">
      <stop offset="0" stop-color="#f3d5ab"/>
      <stop offset="1" stop-color="#dc9b3f"/>
    </radialGradient>
    <radialGradient id="radial-gradient-3" cx="-164.11" cy="-738.26" fx="-164.11" fy="-738.26" r="1.16" gradientTransform="translate(220.77 -837.27) scale(1.16 -1.16)" gradientUnits="userSpaceOnUse">
      <stop offset="0" stop-color="#f3d5ab"/>
      <stop offset="1" stop-color="#dc9b3f"/>
    </radialGradient>
    <radialGradient id="radial-gradient-4" cx="-164.11" cy="-748.01" fx="-164.11" fy="-748.01" r="1.16" gradientTransform="translate(220.77 -837.27) scale(1.16 -1.16)" gradientUnits="userSpaceOnUse">
      <stop offset="0" stop-color="#f3d5ab"/>
      <stop offset="1" stop-color="#dc9b3f"/>
    </radialGradient>
    <radialGradient id="radial-gradient-5" cx="-156.15" cy="-747.58" fx="-156.15" fy="-747.58" r="1.16" gradientTransform="translate(216.7 -840.19) scale(1.16 -1.16)" gradientUnits="userSpaceOnUse">
      <stop offset="0" stop-color="#f3d5ab"/>
      <stop offset="1" stop-color="#dc9b3f"/>
    </radialGradient>
    <radialGradient id="radial-gradient-6" cx="-167.27" cy="-745.61" fx="-167.27" fy="-745.61" r="1.16" gradientTransform="translate(218.49 -838.9) scale(1.16 -1.16)" gradientUnits="userSpaceOnUse">
      <stop offset="0" stop-color="#f3d5ab"/>
      <stop offset="1" stop-color="#dc9b3f"/>
    </radialGradient>
    <radialGradient id="radial-gradient-7" cx="-203.99" cy="-677.22" fx="-203.99" fy="-677.22" r="1.21" gradientTransform="translate(280.34 -794.65) scale(1.21 -1.21)" gradientUnits="userSpaceOnUse">
      <stop offset="0" stop-color="#f3d5ab"/>
      <stop offset="1" stop-color="#dc9b3f"/>
    </radialGradient>
    <radialGradient id="radial-gradient-8" cx="-215.02" cy="-670.87" fx="-215.02" fy="-670.87" r="1.21" gradientTransform="translate(286.66 -790.13) scale(1.21 -1.21)" gradientUnits="userSpaceOnUse">
      <stop offset="0" stop-color="#f3d5ab"/>
      <stop offset="1" stop-color="#dc9b3f"/>
    </radialGradient>
    <radialGradient id="radial-gradient-9" cx="-208.69" cy="-677.09" fx="-208.69" fy="-677.09" r="1.21" gradientTransform="translate(287.05 -789.85) scale(1.21 -1.21)" gradientUnits="userSpaceOnUse">
      <stop offset="0" stop-color="#f3d5ab"/>
      <stop offset="1" stop-color="#dc9b3f"/>
    </radialGradient>
    <radialGradient id="radial-gradient-10" cx="-215.03" cy="-677.48" fx="-215.03" fy="-677.48" r="1.21" gradientTransform="translate(286.66 -790.13) scale(1.21 -1.21)" gradientUnits="userSpaceOnUse">
      <stop offset="0" stop-color="#f3d5ab"/>
      <stop offset="1" stop-color="#dc9b3f"/>
    </radialGradient>
    <radialGradient id="radial-gradient-11" cx="92.05" cy="-1130.6" fx="92.05" fy="-1130.6" r=".96" gradientTransform="translate(-58.43 -1037.05) scale(.96 -.96)" gradientUnits="userSpaceOnUse">
      <stop offset="0" stop-color="#f3d5ab"/>
      <stop offset="1" stop-color="#dc9b3f"/>
    </radialGradient>
    <radialGradient id="radial-gradient-12" cx="99.5" cy="-1132.68" fx="99.5" fy="-1132.68" r=".95" gradientTransform="translate(-62.06 -1039.65) scale(.95 -.95)" gradientUnits="userSpaceOnUse">
      <stop offset="0" stop-color="#f3d5ab"/>
      <stop offset="1" stop-color="#dc9b3f"/>
    </radialGradient>
    <radialGradient id="radial-gradient-13" cx="109.33" cy="-1134.96" fx="109.33" fy="-1134.96" r=".95" gradientTransform="translate(-65.52 -1042.13) scale(.95 -.95)" gradientUnits="userSpaceOnUse">
      <stop offset="0" stop-color="#f3d5ab"/>
      <stop offset="1" stop-color="#dc9b3f"/>
    </radialGradient>
    <radialGradient id="radial-gradient-14" cx="108.78" cy="-1123.34" fx="108.78" fy="-1123.34" r=".95" gradientTransform="translate(-62.03 -1039.63) scale(.95 -.95)" gradientUnits="userSpaceOnUse">
      <stop offset="0" stop-color="#f3d5ab"/>
      <stop offset="1" stop-color="#dc9b3f"/>
    </radialGradient>
    <radialGradient id="radial-gradient-15" cx="108.78" cy="-1116.53" fx="108.78" fy="-1116.53" r=".95" gradientTransform="translate(-62.03 -1039.63) scale(.95 -.95)" gradientUnits="userSpaceOnUse">
      <stop offset="0" stop-color="#f3d5ab"/>
      <stop offset="1" stop-color="#dc9b3f"/>
    </radialGradient>
    <radialGradient id="radial-gradient-16" cx="106.67" cy="-1112.5" fx="106.67" fy="-1112.5" r=".95" gradientTransform="translate(-63.18 -1040.45) scale(.95 -.95)" gradientUnits="userSpaceOnUse">
      <stop offset="0" stop-color="#f3d5ab"/>
      <stop offset="1" stop-color="#dc9b3f"/>
    </radialGradient>
    <radialGradient id="radial-gradient-17" cx="99.71" cy="-1107.54" fx="99.71" fy="-1107.54" r=".95" gradientTransform="translate(-62.23 -1039.77) scale(.95 -.95)" gradientUnits="userSpaceOnUse">
      <stop offset="0" stop-color="#f3d5ab"/>
      <stop offset="1" stop-color="#dc9b3f"/>
    </radialGradient>
    <radialGradient id="radial-gradient-18" cx="91.37" cy="-1130.71" fx="91.37" fy="-1130.71" r=".95" gradientTransform="translate(-60.86 -1038.79) scale(.95 -.95)" gradientUnits="userSpaceOnUse">
      <stop offset="0" stop-color="#f3d5ab"/>
      <stop offset="1" stop-color="#dc9b3f"/>
    </radialGradient>
    <radialGradient id="radial-gradient-19" cx="89.39" cy="-1133.05" fx="89.39" fy="-1133.05" r=".95" gradientTransform="translate(-64.36 -1041.29) scale(.95 -.95)" gradientUnits="userSpaceOnUse">
      <stop offset="0" stop-color="#f3d5ab"/>
      <stop offset="1" stop-color="#dc9b3f"/>
    </radialGradient>
    <radialGradient id="radial-gradient-20" cx="85.02" cy="-1125.76" fx="85.02" fy="-1125.76" r=".95" gradientTransform="translate(-63.51 -1040.69) scale(.95 -.95)" gradientUnits="userSpaceOnUse">
      <stop offset="0" stop-color="#f3d5ab"/>
      <stop offset="1" stop-color="#dc9b3f"/>
    </radialGradient>
    <radialGradient id="radial-gradient-21" cx="85.02" cy="-1118.94" fx="85.02" fy="-1118.94" r=".95" gradientTransform="translate(-63.51 -1040.69) scale(.95 -.95)" gradientUnits="userSpaceOnUse">
      <stop offset="0" stop-color="#f3d5ab"/>
      <stop offset="1" stop-color="#dc9b3f"/>
    </radialGradient>
    <radialGradient id="radial-gradient-22" cx="86.79" cy="-1110.62" fx="86.79" fy="-1110.62" r=".95" gradientTransform="translate(-62.03 -1039.63) scale(.95 -.95)" gradientUnits="userSpaceOnUse">
      <stop offset="0" stop-color="#f3d5ab"/>
      <stop offset="1" stop-color="#dc9b3f"/>
    </radialGradient>
    <radialGradient id="radial-gradient-23" cx="93.96" cy="-1109.09" fx="93.96" fy="-1109.09" r=".95" gradientTransform="translate(-63.18 -1040.45) scale(.95 -.95)" gradientUnits="userSpaceOnUse">
      <stop offset="0" stop-color="#f3d5ab"/>
      <stop offset="1" stop-color="#dc9b3f"/>
    </radialGradient>
  </defs>
  <path class="cls-1" d="M28.95,13.28v5.21c-1.3.09-2.58.43-3.75,1l-2.62-4.51c1.97-1.04,4.14-1.61,6.36-1.71ZM30.25,13.28c2.21.09,4.4.67,6.36,1.71l-2.61,4.51c-1.17-.57-2.45-.93-3.75-1v-5.21ZM37.72,15.63c1.87,1.19,3.47,2.78,4.66,4.66l-4.53,2.6c-.72-1.08-1.65-2.02-2.75-2.74l2.62-4.51ZM21.47,15.63l2.61,4.53c-1.09.72-2.02,1.65-2.74,2.74l-4.53-2.61c.59-.95,1.3-1.8,2.1-2.6h0l-.02.02c.78-.8,1.63-1.48,2.58-2.08ZM16.17,21.4l4.53,2.6c-.59,1.19-.93,2.45-1.02,3.77h-5.21c.09-2.23.67-4.4,1.71-6.36ZM43.03,21.4c1.04,1.97,1.62,4.14,1.71,6.36h-5.21c-.09-1.32-.45-2.58-1.02-3.77l4.52-2.6ZM19.67,29.04c.09,1.3.43,2.58,1.02,3.77l-4.53,2.6c-1.02-1.97-1.61-4.14-1.71-6.36h5.21ZM44.74,29.04c-.09,2.23-.69,4.41-1.71,6.38l-4.52-2.61c.57-1.17.93-2.45,1-3.77h5.23ZM29.6,19.74c1.11,0,2.23.21,3.3.65,3.25,1.35,5.34,4.51,5.34,7.99,0,4.79-3.88,8.66-8.64,8.66-3.5,0-6.66-2.12-7.99-5.34-1.34-3.23-.59-6.96,1.87-9.42,1.65-1.67,3.87-2.55,6.13-2.55ZM21.33,33.94c.72,1.08,1.67,2.02,2.74,2.75l-2.6,4.52c-1.3-.83-2.48-1.85-3.47-3.04-.45-.52-.83-1.06-1.21-1.63l4.53-2.6ZM37.85,33.92l4.53,2.62c-1.19,1.87-2.78,3.47-4.66,4.67l-2.62-4.52c1.1-.74,2.02-1.67,2.75-2.77ZM29.63,11.97c-5.82,0-11.56,3.06-14.57,8.78-5.16,9.81.67,21.79,11.56,23.82.05,0,.09.01.13.01.73,0,.9-1.14.09-1.29-1.48-.26-2.91-.76-4.25-1.47l2.62-4.51c1.17.58,2.45.91,3.77,1v2.99c0,.43.32.64.64.64s.64-.21.64-.64v-2.99c1.3-.08,2.58-.43,3.75-1l2.61,4.53c-1.34.7-2.76,1.19-4.25,1.47-.77.13-.69,1.26.09,1.26h.02s.04.01.06.01.04,0,.07-.01c5.99-1.1,10.89-5.46,12.71-11.28,1.8-5.84.22-12.19-4.1-16.51-3.26-3.26-7.44-4.81-11.59-4.81Z"/>
  <path class="cls-23" d="M29.59,26.48c.99,0,1.94.77,1.94,1.94,0,1.06-.87,1.91-1.93,1.93-1.72,0-2.58-2.08-1.35-3.3.39-.39.87-.56,1.34-.56ZM29.6,25.2c-2.85,0-4.28,3.45-2.26,5.47.65.65,1.46.95,2.25.95,1.65,0,3.22-1.28,3.22-3.21,0-1.78-1.45-3.21-3.21-3.21Z"/>
  <path class="cls-22" d="M29.59,21.54c-.32,0-.64.21-.64.64v1.1c0,.35.3.65.65.65s.65-.3.65-.65v-1.1c0-.43-.33-.64-.66-.64Z"/>
  <path class="cls-19" d="M29.6,32.9c-.35,0-.65.28-.65.65v1.09c0,.43.33.64.65.64s.65-.21.65-.64v-1.11c-.02-.35-.3-.63-.65-.63Z"/>
  <path class="cls-17" d="M34.74,27.76c-.87,0-.87,1.28,0,1.28h1.1c.35,0,.63-.28.63-.63s-.28-.65-.63-.65h-1.1Z"/>
  <path class="cls-18" d="M23.37,27.76c-.85,0-.85,1.28,0,1.28h1.1c.35,0,.65-.28.65-.63s-.3-.65-.65-.65h-1.1Z"/>
  <path class="cls-16" d="M34,23.35c-.15,0-.31.06-.45.2l-.76.78c-.41.39-.12,1.09.45,1.09h0c.16,0,.33-.08.45-.19l.76-.78c.47-.47.04-1.11-.45-1.11ZM33.24,25.42h0,.02,0Z"/>
  <path class="cls-20" d="M25.2,23.35c-.49,0-.92.64-.46,1.11l.78.78c.14.14.3.2.45.2.5,0,.94-.65.46-1.1l-.78-.78c-.14-.14-.29-.2-.45-.2Z"/>
  <path class="cls-21" d="M33.22,31.38c-.5,0-.92.64-.45,1.11l.78.78c.14.13.29.19.44.19.5,0,.92-.65.47-1.1l-.78-.78c-.14-.14-.3-.2-.45-.2Z"/>
  <path class="cls-9" d="M25.97,31.38c-.15,0-.31.06-.45.2l-.78.78c-.46.46-.02,1.1.47,1.1.15,0,.3-.06.44-.19l.78-.78c.47-.47.04-1.11-.45-1.11Z"/>
  <path class="cls-6" d="M29.6,43.55c-.57,0-.85.7-.46,1.11.13.12.29.18.45.18.34,0,.66-.25.66-.65-.02-.35-.3-.65-.65-.65Z"/>
  <path class="cls-12" d="M32.83,39.87c-.56,0-.85.69-.45,1.1.13.13.3.19.46.19.33,0,.64-.25.64-.64,0-.35-.3-.65-.65-.65Z"/>
  <path class="cls-14" d="M38.47,36.65c-.57,0-.87.69-.46,1.1.13.12.29.18.45.18.33,0,.65-.25.65-.64,0-.35-.28-.63-.63-.63Z"/>
  <path class="cls-15" d="M41.71,31.03c-.57,0-.85.69-.45,1.09.13.13.29.19.45.19.33,0,.65-.26.65-.65,0-.35-.3-.63-.65-.63Z"/>
  <path class="cls-11" d="M41.71,24.53c-.57,0-.85.69-.45,1.1.13.13.29.19.45.19.33,0,.65-.26.65-.65,0-.35-.3-.63-.65-.63Z"/>
  <path class="cls-13" d="M38.47,18.9c-.57,0-.87.69-.46,1.1.13.13.29.19.45.19.33,0,.65-.26.65-.65,0-.35-.28-.63-.63-.63Z"/>
  <path class="cls-7" d="M32.85,15.65c-.58,0-.85.69-.45,1.09.13.13.29.19.45.19.33,0,.65-.26.65-.64s-.3-.65-.65-.65Z"/>
  <path class="cls-10" d="M26.35,39.87c-.57,0-.85.69-.45,1.1.13.13.3.19.46.19.33,0,.64-.25.64-.64,0-.35-.3-.65-.65-.65Z"/>
  <path class="cls-8" d="M20.73,36.65c-.57,0-.85.69-.45,1.1.12.12.28.18.44.18.33,0,.66-.25.66-.64,0-.35-.3-.63-.65-.63Z"/>
  <path class="cls-2" d="M17.49,31.03c-.57,0-.87.69-.46,1.09.13.13.29.19.45.19.33,0,.65-.26.65-.65,0-.35-.28-.63-.63-.63Z"/>
  <path class="cls-3" d="M17.49,24.53c-.57,0-.87.69-.46,1.1.13.13.29.19.45.19.33,0,.65-.26.65-.65,0-.35-.28-.63-.63-.63Z"/>
  <path class="cls-5" d="M20.73,18.9c-.57,0-.85.69-.45,1.1.12.13.28.19.44.19.33,0,.66-.26.66-.65,0-.35-.3-.63-.65-.63Z"/>
  <path class="cls-4" d="M26.35,15.65c-.57,0-.87.69-.46,1.09.13.13.29.19.45.19.33,0,.65-.26.65-.64s-.28-.65-.63-.65Z"/>
</svg>