<?xml version="1.0" encoding="UTF-8"?>
<svg id="Layer_1" data-name="Layer 1" xmlns="http://www.w3.org/2000/svg" xmlns:xlink="http://www.w3.org/1999/xlink" viewBox="0 0 58.11 57.23">
  <defs>
    <style>
      .cls-1 {
        fill: url(#radial-gradient);
      }

      .cls-1, .cls-2, .cls-3, .cls-4, .cls-5 {
        fill-rule: evenodd;
      }

      .cls-2 {
        fill: url(#radial-gradient-5);
      }

      .cls-3 {
        fill: url(#radial-gradient-4);
      }

      .cls-4 {
        fill: url(#radial-gradient-3);
      }

      .cls-5 {
        fill: url(#radial-gradient-2);
      }
    </style>
    <radialGradient id="radial-gradient" cx="-964.69" cy="338.71" fx="-964.69" fy="338.71" r="3.66" gradientTransform="translate(3560.51 1268.72) scale(3.66 -3.66)" gradientUnits="userSpaceOnUse">
      <stop offset="0" stop-color="#f3d5ab"/>
      <stop offset="1" stop-color="#dc9b3f"/>
    </radialGradient>
    <radialGradient id="radial-gradient-2" cx="-478.14" cy="-382.7" fx="-478.14" fy="-382.7" r="1.6" gradientTransform="translate(799.08 -581.58) scale(1.6 -1.6)" gradientUnits="userSpaceOnUse">
      <stop offset="0" stop-color="#f3d5ab"/>
      <stop offset="1" stop-color="#dc9b3f"/>
    </radialGradient>
    <radialGradient id="radial-gradient-3" cx="-1054.83" cy="473.38" fx="-1054.83" fy="473.38" r="4.82" gradientTransform="translate(5113.97 2309.62) scale(4.82 -4.82)" gradientUnits="userSpaceOnUse">
      <stop offset="0" stop-color="#f3d5ab"/>
      <stop offset="1" stop-color="#dc9b3f"/>
    </radialGradient>
    <radialGradient id="radial-gradient-4" cx="-1029.7" cy="435.89" fx="-1029.7" fy="435.89" r="4.43" gradientTransform="translate(4589.34 1958.09) scale(4.43 -4.43)" gradientUnits="userSpaceOnUse">
      <stop offset="0" stop-color="#f3d5ab"/>
      <stop offset="1" stop-color="#dc9b3f"/>
    </radialGradient>
    <radialGradient id="radial-gradient-5" cx="81.46" cy="-1251.41" fx="81.46" fy="-1251.41" r=".96" gradientTransform="translate(-59.41 -1156.81) scale(.96 -.96)" gradientUnits="userSpaceOnUse">
      <stop offset="0" stop-color="#f3d5ab"/>
      <stop offset="1" stop-color="#dc9b3f"/>
    </radialGradient>
  </defs>
  <path class="cls-1" d="M29.84,21.34c2.19,0,3.91,1.8,3.91,4.08v.61c0,.36.3.64.65.64.06,0,.12,0,.19-.03.33-.11.66-.16.98-.16,1.64,0,3.06,1.32,3.06,3.07s-1.42,3.09-3.06,3.09c-.32,0-.65-.05-.98-.16-.06-.02-.13-.03-.19-.03-.34,0-.65.28-.65.64v.58c0,1.8-1.47,3.26-3.27,3.26-.35,0-.65-.3-.65-.65v-.02c0-.35.3-.63.65-.63,1.1,0,1.97-.89,1.97-1.98v-8.24c0-1.59-1.11-2.8-2.61-2.8s-2.64,1.17-2.64,2.63v6.75c0,.44-.32.65-.64.65s-.64-.22-.64-.65v-7.81c.04-.89-.69-1.63-1.58-1.63s-1.62.74-1.58,1.63c0,.43-.32.64-.64.64s-.64-.21-.64-.64c0-1.58,1.28-2.86,2.86-2.86.78,0,1.52.32,2.06.89.13.13.3.19.47.19.15,0,.3-.05.42-.16.7-.59,1.61-.93,2.54-.93ZM24.42,20.06h-.07c-2.3,0-4.14,1.85-4.16,4.14.04,1.04.89,1.86,1.93,1.86s1.89-.82,1.93-1.86c0-.2.14-.29.29-.29s.29.1.3.29v7.81c.02,1.04.87,1.87,1.91,1.87s1.89-.83,1.93-1.87v-6.75c0-.74.61-1.35,1.35-1.35.78,0,1.34.65,1.34,1.52v8.24c0,.39-.32.7-.69.7-1.04.04-1.87.89-1.87,1.93s.83,1.87,1.87,1.91c2.41,0,4.42-1.89,4.55-4.32.18.02.35.03.52.03,2.27,0,4.2-1.77,4.34-4.09.15-2.5-1.83-4.62-4.34-4.64-.18,0-.35.02-.52.04-.11-2.91-2.36-5.16-5.19-5.16-1.04,0-2.06.3-2.91.89-.72-.56-1.6-.89-2.5-.89Z"/>
  <path class="cls-5" d="M35.54,29.04c.46,0,.69.56.37.87-.11.11-.24.16-.37.16-.27,0-.52-.21-.52-.51s.24-.52.52-.52ZM35.54,27.75c-.93,0-1.81.72-1.81,1.81,0,.98.8,1.8,1.8,1.8,1.59,0,2.41-1.95,1.28-3.08-.37-.37-.82-.53-1.27-.53Z"/>
  <path class="cls-4" d="M29.59,11.46c-3.72,0-7.44,1.26-10.49,3.8-6.53,5.44-7.85,14.93-3.04,21.93.14.19.32.27.5.27.45,0,.87-.49.56-.99-4.43-6.46-3.23-15.21,2.8-20.22,2.81-2.34,6.24-3.5,9.66-3.5,3.89,0,7.77,1.5,10.72,4.45,5.53,5.53,5.94,14.38.93,20.39-2.97,3.58-7.29,5.46-11.65,5.46-2.97,0-5.96-.87-8.57-2.66-.13-.1-.27-.14-.39-.14-.55,0-.94.81-.33,1.2,2.83,1.94,6.07,2.89,9.29,2.89,4.73,0,9.42-2.04,12.66-5.93,5.42-6.53,4.99-16.12-1.02-22.13-3.2-3.18-7.4-4.8-11.62-4.8Z"/>
  <path class="cls-3" d="M29.59,15.3c3.27,0,6.48,1.28,8.89,3.69,3.6,3.6,4.67,9.02,2.73,13.71-1.93,4.71-6.53,7.77-11.61,7.77-6.96,0-12.58-5.64-12.58-12.58,0-5.1,3.06-9.68,7.75-11.63,1.56-.64,3.2-.96,4.82-.96ZM29.59,14.02c-1.78,0-3.57.34-5.29,1.05-6.12,2.54-9.59,9.04-8.29,15.51,1.28,6.49,6.97,11.17,13.6,11.17h.07c3.65,0,7.16-1.46,9.73-4.06,4.69-4.68,5.42-12,1.72-17.51-2.64-3.94-7.01-6.15-11.53-6.15Z"/>
  <path class="cls-2" d="M18.43,38.41c-.57,0-.85.69-.46,1.09.13.13.3.2.46.2.33,0,.64-.25.65-.64,0-.35-.3-.65-.65-.65Z"/>
</svg>