<?xml version="1.0" encoding="UTF-8"?>
<svg id="Layer_1" data-name="Layer 1" xmlns="http://www.w3.org/2000/svg" xmlns:xlink="http://www.w3.org/1999/xlink" viewBox="0 0 58.11 57.23">
  <defs>
    <style>
      .cls-1 {
        fill: url(#radial-gradient);
      }

      .cls-1, .cls-2 {
        fill-rule: evenodd;
      }

      .cls-2 {
        fill: url(#radial-gradient-2);
      }
    </style>
    <radialGradient id="radial-gradient" cx="-1104.21" cy="766.86" fx="-1104.21" fy="766.86" r="4.82" gradientTransform="translate(5350.08 3725) scale(4.82 -4.82)" gradientUnits="userSpaceOnUse">
      <stop offset="0" stop-color="#f3d5ab"/>
      <stop offset="1" stop-color="#dc9b3f"/>
    </radialGradient>
    <radialGradient id="radial-gradient-2" cx="95.24" cy="-736.85" fx="95.24" fy="-736.85" r=".96" gradientTransform="translate(-62.48 -680.81) scale(.96 -.96)" gradientUnits="userSpaceOnUse">
      <stop offset="0" stop-color="#f3d5ab"/>
      <stop offset="1" stop-color="#dc9b3f"/>
    </radialGradient>
  </defs>
  <path class="cls-1" d="M37.1,14.84c.78,0,1.18.97.61,1.52-.19.19-.41.27-.64.27-.46,0-.9-.36-.9-.9,0-.5.41-.89.91-.89h.02ZM43.76,15.67c.82,0,1.21.96.65,1.54-.19.18-.41.26-.63.26-.46,0-.9-.35-.9-.89,0-.5.41-.91.89-.91ZM35.64,20.71c.46,0,.9.36.9.9,0,.5-.41.89-.89.91-.82,0-1.21-.98-.65-1.54.19-.19.41-.27.64-.27ZM43.76,22.91c.46,0,.9.36.9.9,0,.48-.41.89-.89.89-.8,0-1.21-.96-.65-1.52.19-.19.41-.27.64-.27ZM20.27,30.47c.8,0,1.21.97.65,1.54-.19.18-.41.26-.64.26-.46,0-.9-.35-.9-.89,0-.5.41-.91.89-.91ZM28.72,32.02c.73,0,1.42.57,1.42,1.42,0,.78-.63,1.41-1.41,1.41-1.26,0-1.89-1.52-1-2.41.29-.29.64-.42.99-.42ZM15.28,35.37c.22,0,.45.08.63.26.56.57.16,1.54-.65,1.54-.48,0-.89-.41-.89-.89,0-.55.44-.91.91-.91ZM27.96,40.69c.46,0,.91.36.92.91,0,.48-.41.89-.91.89-.8,0-1.21-.97-.63-1.54.18-.18.4-.26.62-.26ZM19.44,43.32c.46,0,.9.36.9.9,0,.5-.41.91-.89.91-.82,0-1.21-.98-.65-1.54.19-.19.41-.27.64-.27ZM37.02,13.53c-2.08,0-3.06,2.89-1.08,4.07l-.45,1.82c-1.15.07-2.04,1.02-2.04,2.19,0,.13,0,.26.04.39l-1.43.74c-.07-.09-.17-.18-.26-.26-.14-.12-.29-.17-.43-.17-.52,0-.93.7-.4,1.14.59.52.67,1.43.15,2.02-.28.32-.67.48-1.06.48-.34,0-.68-.12-.94-.37-.15-.15-.31-.2-.46-.2-.53,0-.96.72-.4,1.17.22.2.48.37.76.48l-.54,3.71c-2.89.26-3.38,4.28-.63,5.23l-.33,3.47c-1,.22-1.73,1.11-1.73,2.15l-4.54,1.39c-.41-.61-1.08-.97-1.8-.97-.15,0-.28.02-.41.04l-2.24-4.25c.69-.69.83-1.71.41-2.56l2.02-1.98c.37.2.73.29,1.08.29,1.74,0,3.01-2.22,1.55-3.72-.47-.49-1.02-.69-1.55-.69-1.47,0-2.81,1.55-1.97,3.2l-2.04,1.99c-.31-.15-.63-.22-.94-.22-.96,0-1.87.64-2.12,1.64-.33,1.35.65,2.65,2.04,2.73.13-.02.26-.02.39-.06l2.24,4.27c-1.1,1.09-.74,2.97.7,3.56.28.11.56.17.83.17,1.15,0,2.19-.93,2.19-2.19l4.53-1.39c.44.63,1.12.95,1.81.95.63,0,1.25-.27,1.69-.8.93-1.13.48-2.84-.87-3.4l.33-3.47c2.71-.41,3.15-4.14.61-5.16l.56-3.71c1.39-.13,2.45-1.3,2.45-2.69,0-.22-.04-.45-.09-.65l1.43-.76c.43.44.99.65,1.55.65.71,0,1.42-.35,1.85-1l4.1,1.1c.04,1.29,1.1,2.12,2.2,2.12.55,0,1.11-.21,1.55-.67,1.34-1.37.35-3.69-1.58-3.69l.02-.02c-.76,0-1.47.39-1.86,1.02l-4.1-1.11c-.02-.17-.04-.32-.08-.48l4.58-2.84c.45.39.94.56,1.42.56,1.53,0,2.87-1.73,1.86-3.36-.45-.73-1.13-1.04-1.81-1.04-1.3,0-2.57,1.15-2.16,2.74l-4.56,2.84c-.11-.09-.22-.17-.33-.22l.45-1.83c1.08-.08,1.95-.91,2.04-1.99.09-1.08-.61-2.06-1.65-2.32-.19-.05-.38-.07-.56-.07Z"/>
  <path class="cls-2" d="M28.51,22.54c-.57,0-.85.7-.45,1.11.12.12.28.18.44.18.33,0,.66-.25.66-.65,0-.35-.3-.65-.65-.65Z"/>
</svg>