<?xml version="1.0" encoding="UTF-8"?>
<svg id="Layer_1" data-name="Layer 1" xmlns="http://www.w3.org/2000/svg" viewBox="0 0 58.11 57.23">
  <defs>
    <style>
      .cls-1 {
        fill: #ebb871;
        fill-rule: evenodd;
      }
    </style>
  </defs>
  <path class="cls-1" d="M24.63,22.83c.15,0,.31.06.45.19,1.54,1.52,2.52,3.52,2.78,5.68.04.32.32.56.63.56h2.1c.32,0,.59-.24.63-.56.26-2.15,1.24-4.15,2.78-5.68.14-.13.28-.18.43-.18.49,0,.91.62.48,1.09-1.24,1.24-2.08,2.84-2.36,4.58-.08.39.24.74.63.74h1.32c.85,0,.85,1.28,0,1.28h-1.32c-.19,0-.37.09-.48.24-.13.15-.19.33-.15.52.28,1.74,1.11,3.34,2.36,4.58.47.46.04,1.1-.46,1.1-.15,0-.31-.06-.45-.19-1.54-1.52-2.52-3.53-2.78-5.68-.04-.32-.32-.56-.63-.56h-2.1c-.32,0-.59.24-.63.56-.26,2.15-1.24,4.15-2.78,5.68-.13.12-.3.18-.46.18s-.33-.06-.45-.18c-.26-.26-.26-.67,0-.91,1.24-1.24,2.06-2.86,2.36-4.58.06-.39-.24-.74-.63-.74h-1.34c-.86,0-.86-1.3,0-1.3h1.34c.18,0,.37-.07.48-.22.13-.15.17-.33.15-.52-.3-1.74-1.11-3.34-2.36-4.58-.47-.46-.04-1.1.46-1.1ZM24.62,21.56c-.49,0-.98.19-1.36.57-.76.74-.76,1.97,0,2.73.87.85,1.5,1.93,1.84,3.12h-.54c-1.04.04-1.86.89-1.86,1.93s.82,1.89,1.86,1.93h.54c-.33,1.19-.97,2.26-1.84,3.14-.76.74-.76,1.97,0,2.73.37.37.86.56,1.36.56s.99-.19,1.37-.56c1.59-1.6,2.65-3.64,3.04-5.86h.98c.39,2.23,1.45,4.27,3.06,5.86.37.37.85.55,1.34.55s.99-.19,1.36-.57c.76-.74.76-1.97,0-2.71-.87-.87-1.5-1.95-1.82-3.14h.58c1.05,0,1.92-.86,1.92-1.93s-.87-1.93-1.92-1.93c-.02,0-.04,0-.07,0h-.52c.31-1.19.94-2.26,1.82-3.12.76-.76.76-1.99,0-2.73-.37-.38-.86-.57-1.35-.57s-.98.19-1.35.57c-1.62,1.58-2.67,3.64-3.06,5.84h-.98c-.39-2.21-1.45-4.27-3.04-5.84-.38-.38-.88-.57-1.37-.57Z"/>
  <path class="cls-1" d="M29.47,13c-3.71,0-7.43,1.25-10.48,3.79-6.55,5.45-7.86,14.97-3.02,21.98.14.19.33.27.5.27.45,0,.87-.5.55-.99-4.43-6.45-3.23-15.21,2.8-20.22,2.81-2.34,6.24-3.5,9.66-3.5,3.89,0,7.76,1.5,10.71,4.45,5.55,5.53,5.95,14.36.94,20.37-2.98,3.59-7.29,5.47-11.64,5.47-2.97,0-5.96-.87-8.57-2.67-.13-.1-.27-.14-.39-.14-.55,0-.94.81-.33,1.2,2.83,1.94,6.07,2.89,9.29,2.89,4.73,0,9.42-2.04,12.66-5.93,5.43-6.53,4.99-16.12-1.02-22.11h.02c-3.2-3.22-7.43-4.85-11.67-4.85Z"/>
  <path class="cls-1" d="M29.52,16.87c3.27,0,6.49,1.28,8.9,3.69,3.6,3.6,4.67,9.01,2.73,13.71-1.95,4.71-6.53,7.77-11.63,7.77-6.94,0-12.56-5.64-12.58-12.58,0-5.08,3.08-9.68,7.77-11.63,1.55-.65,3.19-.96,4.81-.96ZM29.51,15.58c-1.77,0-3.57.34-5.29,1.05-6.12,2.54-9.59,9.03-8.31,15.53,1.3,6.47,6.99,11.15,13.6,11.15h.07c3.66,0,7.16-1.46,9.74-4.04,4.67-4.69,5.4-12.02,1.72-17.51-2.64-3.96-7.02-6.17-11.54-6.17Z"/>
  <path class="cls-1" d="M18.36,39.97c-.57,0-.87.71-.46,1.1.13.13.3.19.46.19.33,0,.64-.25.64-.64,0-.35-.28-.65-.63-.65Z"/>
</svg>