<?xml version="1.0" encoding="UTF-8"?>
<svg id="Layer_1" data-name="Layer 1" xmlns="http://www.w3.org/2000/svg" viewBox="0 0 58.11 57.23">
  <defs>
    <style>
      .cls-1 {
        fill: #ebb871;
        fill-rule: evenodd;
      }
    </style>
  </defs>
  <path class="cls-1" d="M20.74,30.92c-.57,0-.87.69-.46,1.09.13.13.3.2.46.2.33,0,.64-.25.64-.64,0-.35-.28-.65-.63-.65Z"/>
  <path class="cls-1" d="M38.29,16.62c.24.89.94,1.58,1.83,1.82v15.75c-.89.22-1.59.93-1.83,1.82h-1.39v-15.03c0-1.78-1.43-3.21-3.21-3.21h-6.27c.32-.32.54-.72.65-1.15h10.22ZM41.01,13.78c1.06,0,1.93.87,1.93,1.93v21.18c0,1.07-.87,1.93-1.93,1.93h-4.1v-1.54h1.93c.37,0,.65-.28.65-.63,0-.7.58-1.26,1.26-1.26.35-.02.65-.3.65-.65v-16.86c0-.37-.3-.65-.65-.65-.69,0-1.26-.58-1.26-1.26,0-.35-.28-.65-.65-.65h-11.33c-.35,0-.63.3-.63.65,0,.69-.57,1.26-1.26,1.26-.32,0-.6.22-.65.54h-1.54v-2.06c0-1.06.85-1.93,1.93-1.93h15.66ZM25.36,12.52c-1.78,0-3.21,1.43-3.21,3.21v2.04h-4.12c-1.76,0-3.21,1.45-3.21,3.21v21.18c0,1.78,1.45,3.21,3.21,3.21h4.75s.04,0,.05,0c.84,0,.84-1.28,0-1.28h-4.8c-1.06,0-1.93-.87-1.91-1.93v-21.18c-.02-1.06.85-1.93,1.91-1.93h15.68c1.06,0,1.91.87,1.91,1.93v21.18c0,1.06-.85,1.91-1.91,1.93h-5.19c-.84,0-.84,1.28,0,1.28.02,0,.04,0,.05,0h5.14c1.76-.02,3.19-1.45,3.21-3.21v-2.06h4.1c1.76,0,3.21-1.45,3.21-3.21V15.71c0-1.76-1.45-3.19-3.21-3.19h-15.66Z"/>
  <path class="cls-1" d="M30.98,21.87c.22.89.93,1.6,1.82,1.84v15.73c-.89.24-1.59.93-1.82,1.82l-10.22.02c-.24-.91-.93-1.59-1.82-1.83v-15.73c.89-.24,1.58-.95,1.82-1.84h10.22ZM20.2,20.59c-.35,0-.65.3-.65.65,0,.69-.56,1.26-1.26,1.26-.35,0-.65.28-.65.63v16.86c0,.35.3.65.65.65.7,0,1.26.56,1.26,1.26,0,.35.3.63.65.63h11.33c.35,0,.65-.28.65-.63,0-.7.56-1.26,1.26-1.26.35,0,.63-.3.63-.65v-16.86c0-.35-.28-.63-.63-.63-.7,0-1.26-.57-1.26-1.26,0-.35-.3-.65-.65-.65h-11.33Z"/>
  <path class="cls-1" d="M25.84,29.64c.99,0,1.94.77,1.94,1.94,0,1.06-.85,1.93-1.93,1.93-1.71-.02-2.58-2.08-1.35-3.3.39-.39.87-.57,1.34-.57ZM25.86,28.36c-2.86,0-4.28,3.45-2.26,5.47.65.65,1.46.95,2.25.95,1.65,0,3.22-1.28,3.22-3.21,0-1.78-1.43-3.21-3.21-3.21Z"/>
  <path class="cls-1" d="M25.87,24.66c-.33,0-.67.23-.64.68v1.1c0,.35.28.63.63.63v.02c.35,0,.65-.3.65-.65v-1.1c.03-.45-.31-.68-.64-.68Z"/>
  <path class="cls-1" d="M25.86,36.06c-.35,0-.63.28-.63.65v1.1c.02.4.33.6.63.6s.62-.2.65-.6v-1.1c0-.37-.3-.65-.65-.65Z"/>
  <path class="cls-1" d="M30.29,26.49c-.16,0-.32.06-.46.22l-.78.78c-.41.39-.11,1.09.45,1.09h0c.16,0,.33-.08.45-.18l.78-.78c.49-.47.05-1.13-.45-1.13ZM29.5,28.59h0,.02,0Z"/>
  <path class="cls-1" d="M21.45,26.49c-.5,0-.94.66-.45,1.13l.78.78c.14.15.3.21.46.21.51,0,.95-.66.45-1.12l-.78-.78c-.14-.16-.3-.22-.46-.22Z"/>
  <path class="cls-1" d="M29.5,34.54c-.5,0-.92.64-.45,1.11l.76.78c.14.13.29.18.44.18.49,0,.91-.61.47-1.09l-.76-.78c-.14-.14-.3-.2-.45-.2Z"/>
  <path class="cls-1" d="M22.23,34.54c-.15,0-.31.06-.45.2l-.78.78c-.43.47,0,1.09.48,1.09.14,0,.29-.05.43-.18l.78-.78c.47-.47.04-1.11-.45-1.11Z"/>
  <path class="cls-1" d="M25.7,44.09h-.03c-.57,0-.85.69-.46,1.1.13.12.29.18.45.18.34,0,.66-.25.66-.65-.02-.34-.28-.63-.62-.63Z"/>
  <path class="cls-1" d="M30.99,30.92c-.57,0-.85.69-.45,1.09.13.13.29.2.45.2.33,0,.65-.25.65-.64,0-.35-.3-.65-.65-.65Z"/>
</svg>