<?xml version="1.0" encoding="UTF-8"?>
<svg id="Layer_1" data-name="Layer 1" xmlns="http://www.w3.org/2000/svg" xmlns:xlink="http://www.w3.org/1999/xlink" viewBox="0 0 58.11 57.23">
  <defs>
    <style>
      .cls-1 {
        fill: url(#radial-gradient);
      }

      .cls-1, .cls-2, .cls-3, .cls-4 {
        fill-rule: evenodd;
      }

      .cls-2 {
        fill: url(#radial-gradient-4);
      }

      .cls-3 {
        fill: url(#radial-gradient-3);
      }

      .cls-4 {
        fill: url(#radial-gradient-2);
      }
    </style>
    <radialGradient id="radial-gradient" cx="-1093.44" cy="531.71" fx="-1093.44" fy="531.71" r="4.65" gradientTransform="translate(5113.68 2500.7) scale(4.65 -4.65)" gradientUnits="userSpaceOnUse">
      <stop offset="0" stop-color="#f3d5ab"/>
      <stop offset="1" stop-color="#dc9b3f"/>
    </radialGradient>
    <radialGradient id="radial-gradient-2" cx="-529.27" cy="-254.53" fx="-529.27" fy="-254.53" r="1.63" gradientTransform="translate(887.95 -388.2) scale(1.63 -1.63)" gradientUnits="userSpaceOnUse">
      <stop offset="0" stop-color="#f3d5ab"/>
      <stop offset="1" stop-color="#dc9b3f"/>
    </radialGradient>
    <radialGradient id="radial-gradient-3" cx="85.73" cy="-1126.21" fx="85.73" fy="-1126.21" r=".96" gradientTransform="translate(-62.19 -1037.76) scale(.96 -.96)" gradientUnits="userSpaceOnUse">
      <stop offset="0" stop-color="#f3d5ab"/>
      <stop offset="1" stop-color="#dc9b3f"/>
    </radialGradient>
    <radialGradient id="radial-gradient-4" cx="93.91" cy="-1127.7" fx="93.91" fy="-1127.7" r=".95" gradientTransform="translate(-66.75 -1040.88) scale(.95 -.95)" gradientUnits="userSpaceOnUse">
      <stop offset="0" stop-color="#f3d5ab"/>
      <stop offset="1" stop-color="#dc9b3f"/>
    </radialGradient>
  </defs>
  <path class="cls-1" d="M31.77,12c-2.12,0-4.21.45-6.16,1.26-3.97,1.67-7.12,4.8-8.83,8.75-.87,2.02-1.32,4.21-1.32,6.4,0,2.8.7,5.55,2.06,8,.13.25.34.36.55.36.45,0,.9-.48.58-.99-5.55-10.11,1.73-22.45,13.24-22.5h.11c2.76,0,5.45.78,7.81,2.23-.7-.11-1.4-.16-2.11-.16s-1.47.06-2.2.18c-2.67.45-5.14,1.72-7.05,3.65l-.04.04c-2.23,2.23-2.64,5.68-1.02,8.39l.58.96-.46.32c-.67.43-.74,1.35-.17,1.89l.43.41-1.1.63c-.5.3-.39,1.04.17,1.19l1.06.26c-.83,1.41-.61,3.23.54,4.4l.02.02c1.91,1.91,4.38,3.19,7.05,3.64.74.12,1.49.19,2.24.19.69,0,1.39-.06,2.08-.17h0c-2.45,1.5-5.2,2.24-7.94,2.24-3.48,0-6.93-1.2-9.72-3.54-.13-.1-.27-.14-.4-.14-.52,0-.93.68-.44,1.13,3.07,2.57,6.82,3.84,10.56,3.84,4.15,0,8.3-1.57,11.48-4.67.44-.43.08-1.11-.44-1.11-.09,0-.19.02-.28.07v-.02c-1.59.73-3.27,1.09-4.94,1.09-3.06,0-6.08-1.2-8.34-3.46l-.02-.02c-.8-.8-.91-2.04-.26-2.95.39-.57.17-1.34-.45-1.63.61-.39.7-1.24.17-1.74l-.54-.5.45-.3c.56-.35.72-1.08.39-1.65l-.61-1c-1.3-2.21-.96-5.01.84-6.83l.04-.04c2.26-2.27,5.27-3.46,8.34-3.46,1.67,0,3.36.36,4.94,1.09.09.04.19.06.28.06.52,0,.89-.67.45-1.1-3.04-2.99-7.12-4.66-11.37-4.68h-.24Z"/>
  <path class="cls-4" d="M24.78,26.08c-.13,0-.27.04-.39.12-.74.52-1.63.8-2.53.8h-.09s-.04,0-.05,0c-.84,0-.84,1.28,0,1.28.02,0,.04,0,.05,0h.09c.9,0,1.79.28,2.55.8.11.07.24.13.37.13.61,0,.87-.8.37-1.17-.2-.15-.43-.28-.65-.39.22-.13.45-.26.65-.41.3-.2.35-.61.15-.89-.12-.18-.32-.27-.52-.27Z"/>
  <path class="cls-3" d="M19.74,37.83c-.57,0-.85.69-.46,1.1.13.13.3.19.46.19.33,0,.65-.25.65-.64,0-.35-.3-.65-.65-.65Z"/>
  <path class="cls-2" d="M22.72,32.47h-.03c-.57,0-.85.69-.45,1.1.12.12.28.18.44.18.33,0,.66-.25.66-.65,0-.34-.28-.63-.62-.63Z"/>
</svg>