<?xml version="1.0" encoding="UTF-8"?>
<svg id="Layer_1" data-name="Layer 1" xmlns="http://www.w3.org/2000/svg" xmlns:xlink="http://www.w3.org/1999/xlink" viewBox="0 0 58.11 57.23">
  <defs>
    <style>
      .cls-1 {
        fill: url(#radial-gradient);
      }

      .cls-1, .cls-2 {
        fill-rule: evenodd;
      }

      .cls-2 {
        fill: url(#radial-gradient-2);
      }
    </style>
    <radialGradient id="radial-gradient" cx="-1102.69" cy="471.05" fx="-1102.69" fy="471.05" r="4.79" gradientTransform="translate(5315.5 2285.95) scale(4.79 -4.79)" gradientUnits="userSpaceOnUse">
      <stop offset="0" stop-color="#f3d5ab"/>
      <stop offset="1" stop-color="#dc9b3f"/>
    </radialGradient>
    <radialGradient id="radial-gradient-2" cx="107.33" cy="-1238.28" fx="107.33" fy="-1238.28" r=".95" gradientTransform="translate(-65.13 -1158.7) scale(.95 -.95)" gradientUnits="userSpaceOnUse">
      <stop offset="0" stop-color="#f3d5ab"/>
      <stop offset="1" stop-color="#dc9b3f"/>
    </radialGradient>
  </defs>
  <path class="cls-1" d="M41.74,13.1c1.31,0,1.94,1.79.74,2.59-.24.15-.51.23-.78.23-.09,0-.19,0-.28-.03-1.52-.32-1.5-2.47.02-2.77.1-.02.2-.03.3-.03ZM43.76,19.81c.05,0,.11,0,.17.02.24.06.45.19.57.39.28.41.17.96-.26,1.24-.16.1-.32.14-.48.14-.76,0-1.28-1.09-.51-1.64.15-.09.32-.15.5-.15ZM32.85,28.45c.05,0,.11,0,.17.02.96.2.96,1.58,0,1.76-.07.01-.13.02-.19.02-.84,0-1.24-1.15-.48-1.65.15-.09.32-.15.5-.15ZM27.62,30.71c.07,0,.13.02.19.02.48.11.8.57.7,1.06-.06.24-.19.45-.39.57-.15.1-.32.15-.49.15-.29,0-.57-.14-.75-.41-.28-.41-.17-.96.26-1.24.15-.09.32-.15.48-.15ZM22.05,31.6c.91,0,1.26,1.17.5,1.65-.15.1-.32.15-.49.15-.29,0-.57-.14-.75-.41-.13-.2-.19-.45-.13-.67.06-.24.19-.45.39-.58.15-.09.31-.15.48-.15ZM42.96,32.94c.08.02.13.02.19.02.48.11.8.59.7,1.08-.09.45-.49.72-.89.72-.25,0-.51-.1-.69-.33-.48-.59-.08-1.48.69-1.48ZM15.76,31.95c.09,0,.19.02.3.04.35.07.69.28.89.59.43.65.24,1.54-.41,1.97-.24.16-.51.23-.77.23-.6,0-1.16-.38-1.36-1.01-.26-.91.41-1.82,1.35-1.82ZM28.11,38.71c.28,0,.57.13.75.4.28.41.15.97-.26,1.24-.16.11-.33.15-.49.15-.53,0-1.01-.49-.88-1.08.09-.46.48-.72.88-.72ZM40.99,39.84c.09,0,.19.02.28.02,1.22.28,1.54,1.86.5,2.56l-.02.04c-.24.14-.49.21-.74.21-.6,0-1.17-.38-1.35-1.01-.26-.91.41-1.8,1.34-1.82ZM41.67,11.81c-2.06,0-3.44,2.34-2.21,4.19.09.15.22.3.35.43l-1.67,2.78c-.16.31-.07.7.24.87.09.07.2.09.33.09.22,0,.43-.11.54-.3l1.67-2.78c.26.07.52.11.8.11h.2l.57,1.72c-.94.69-1.21,2-.56,2.99.26.37.63.67,1.06.84l-.54,8.98c-.81.2-1.45.85-1.61,1.69-.19.89.2,1.8.97,2.28l-.76,2.88s-.06,0-.08,0c-1.1,0-2.1.7-2.49,1.73l-8.2-1.06c-.2-1.1-1.15-1.81-2.16-1.81-.41,0-.82.12-1.19.37-.13.09-.26.19-.37.3l-8.12-4.15c.02-.09.02-.19.04-.28l1.63-.22c.06.09.11.19.17.28.32.48.82.82,1.39.93.15.02.3.04.45.04,1.08,0,2-.8,2.15-1.87l1.45-.24c.04.09.07.17.13.24.32.48.82.82,1.39.93.15.02.3.04.45.04,1.04,0,1.93-.72,2.13-1.74.06-.22.06-.45.04-.67l1.41-.59c.43.49,1.02.74,1.63.74.46,0,.94-.15,1.34-.45.91-.7,1.11-1.99.48-2.93-.06-.09-.13-.19-.2-.28l1.84-3.04c.27-.5-.15-.96-.59-.96-.19,0-.38.09-.53.29l-1.82,3.06-.07-.02c-.15-.03-.3-.04-.44-.04-1.28,0-2.34,1.12-2.17,2.46l-1.39.59c-.45-.54-1.06-.78-1.66-.78-1.01,0-2,.7-2.17,1.88l-1.45.24c-.04-.09-.09-.17-.13-.24-.45-.68-1.14-.99-1.82-.99-.97,0-1.92.63-2.15,1.75,0,.04,0,.08-.02.09l-1.62.24c-.07-.19-.16-.35-.26-.5-.53-.81-1.4-1.22-2.26-1.22s-1.7.39-2.23,1.18c-1.08,1.59-.18,3.77,1.69,4.15.19.04.37.06.56.06.52,0,1.04-.15,1.47-.45.22-.15.43-.32.59-.52l8.13,4.14c-.11.56.02,1.11.32,1.58.44.66,1.13.98,1.82.98.81,0,1.61-.44,2-1.27l8.2,1.06c.16,1.44,1.38,2.39,2.69,2.39.51,0,1.03-.14,1.51-.46,1.67-1.13,1.56-3.64-.22-4.6l.78-2.88c2.37-.09,2.91-3.39.69-4.23l.54-8.98c.24-.05.48-.15.69-.3h0l-.02.02c1.61-1.07,1.13-3.58-.78-3.97-.15-.04-.32-.04-.48-.04l-.57-1.72.06-.04c2-1.32,1.41-4.41-.95-4.9-.19-.04-.38-.06-.57-.06Z"/>
  <path class="cls-2" d="M37.21,21.38c-.58,0-.85.69-.45,1.1.13.13.29.19.45.19.33,0,.65-.26.65-.65,0-.35-.3-.63-.65-.63Z"/>
</svg>