<?xml version="1.0" encoding="UTF-8"?>
<svg id="Layer_1" data-name="Layer 1" xmlns="http://www.w3.org/2000/svg" xmlns:xlink="http://www.w3.org/1999/xlink" viewBox="0 0 58.11 57.23">
  <defs>
    <style>
      .cls-1 {
        fill: url(#radial-gradient);
      }

      .cls-1, .cls-2, .cls-3, .cls-4, .cls-5 {
        fill-rule: evenodd;
      }

      .cls-2 {
        fill: url(#radial-gradient-5);
      }

      .cls-3 {
        fill: url(#radial-gradient-4);
      }

      .cls-4 {
        fill: url(#radial-gradient-3);
      }

      .cls-5 {
        fill: url(#radial-gradient-2);
      }
    </style>
    <radialGradient id="radial-gradient" cx="-699.91" cy="354.22" fx="-699.91" fy="354.22" r="3.76" gradientTransform="translate(2664.46 1362.02) scale(3.76 -3.76)" gradientUnits="userSpaceOnUse">
      <stop offset="0" stop-color="#f3d5ab"/>
      <stop offset="1" stop-color="#dc9b3f"/>
    </radialGradient>
    <radialGradient id="radial-gradient-2" cx="-383.69" cy="-297.33" fx="-383.69" fy="-297.33" r="1.71" gradientTransform="translate(681.44 -482.99) scale(1.71 -1.71)" gradientUnits="userSpaceOnUse">
      <stop offset="0" stop-color="#f3d5ab"/>
      <stop offset="1" stop-color="#dc9b3f"/>
    </radialGradient>
    <radialGradient id="radial-gradient-3" cx="-379.44" cy="-297.29" fx="-379.44" fy="-297.29" r="1.71" gradientTransform="translate(681.5 -482.93) scale(1.71 -1.71)" gradientUnits="userSpaceOnUse">
      <stop offset="0" stop-color="#f3d5ab"/>
      <stop offset="1" stop-color="#dc9b3f"/>
    </radialGradient>
    <radialGradient id="radial-gradient-4" cx="-757.8" cy="473.33" fx="-757.8" fy="473.33" r="4.82" gradientTransform="translate(3682.45 2309.15) scale(4.82 -4.82)" gradientUnits="userSpaceOnUse">
      <stop offset="0" stop-color="#f3d5ab"/>
      <stop offset="1" stop-color="#dc9b3f"/>
    </radialGradient>
    <radialGradient id="radial-gradient-5" cx="79.73" cy="-1236.72" fx="79.73" fy="-1236.72" r=".95" gradientTransform="translate(-45.74 -1159.56) scale(.95 -.95)" gradientUnits="userSpaceOnUse">
      <stop offset="0" stop-color="#f3d5ab"/>
      <stop offset="1" stop-color="#dc9b3f"/>
    </radialGradient>
  </defs>
  <path class="cls-1" d="M31.39,32.37c.11,0,.22.08.28.19.04.09.04.22-.04.32l-1.17,1.52c-.06.08-.14.12-.23.12s-.18-.04-.25-.12l-1.17-1.52c-.07-.09-.09-.22-.04-.32.06-.11.15-.19.28-.19h2.34ZM30.2,36.18c.72.65,1.67,1,2.65,1-.63.84-1.61,1.34-2.65,1.34s-2.04-.5-2.65-1.35h0s.05,0,.07,0c.94,0,1.86-.35,2.58-.98ZM27.31,17.85c-2.17,0-4.17,1.15-5.25,3.02-1.15,1.98-1.06,4.43.22,6.32.43.67.76,1.39.98,2.15l.59,2.11c-.93,2.06,0,4.47,2.06,5.36.73,1.98,2.5,2.98,4.27,2.98s3.54-.99,4.28-2.98c2.02-.89,2.97-3.25,2.08-5.29l.61-2.19c.2-.76.54-1.48.98-2.15,1.28-1.89,1.35-4.34.22-6.32-1.1-1.87-3.1-3.02-5.27-3.02-.85,0-.85,1.28,0,1.28,1.73,0,3.3.91,4.15,2.39.91,1.54.84,3.47-.16,4.97-.52.76-.91,1.61-1.15,2.5l-.33,1.19c-.17-.15-.33-.3-.52-.41-.12-.07-.24-.1-.35-.1-.54,0-.91.76-.37,1.16,1.26.85,1.59,2.56.74,3.82-.53.79-1.4,1.22-2.28,1.22-.53,0-1.06-.15-1.54-.47.07-.07.13-.15.2-.22l1.15-1.52c.8-1.04.06-2.54-1.26-2.54h-2.32c-1.32,0-2.06,1.5-1.26,2.54l1.15,1.52c.06.07.11.15.19.2-.48.32-1.02.48-1.55.48-.88,0-1.74-.42-2.27-1.2-.87-1.24-.54-2.95.7-3.82.63-.38.25-1.2-.31-1.2-.13,0-.26.04-.4.14-.17.11-.33.24-.48.37l-.32-1.15c-.26-.89-.65-1.74-1.17-2.5-1-1.5-1.06-3.43-.17-4.97.85-1.48,2.43-2.39,4.14-2.39.85,0,.85-1.28,0-1.28Z"/>
  <path class="cls-5" d="M26.26,23.83c.61,0,1.18.5,1.17,1.18-.18.09-.39.14-.59.14s-.41-.05-.59-.14v.02c-.33-.24-.56-.61-.57-1.04.19-.11.39-.16.59-.16ZM26.34,22.57c-.53,0-1.1.16-1.65.47-.2.11-.32.33-.32.56,0,1.17.45,2.08,1.22,2.54.35.2.76.3,1.17.3.57-.02,1.15-.19,1.65-.48.2-.11.32-.33.32-.56,0-1.15-.45-2.06-1.22-2.52-.35-.2-.75-.3-1.17-.3Z"/>
  <path class="cls-4" d="M34.13,23.85c.2,0,.41.04.59.14,0,.69-.57,1.18-1.18,1.18-.19,0-.39-.05-.58-.16.02-.43.24-.8.57-1.04v.02c.19-.09.39-.14.59-.14ZM34.05,22.57c-.42,0-.81.1-1.16.3-.8.46-1.24,1.39-1.22,2.52,0,.22.11.45.32.56.5.3,1.06.46,1.65.48.41,0,.8-.09,1.15-.3.8-.46,1.24-1.39,1.24-2.54,0-.22-.13-.43-.32-.56-.56-.31-1.13-.47-1.66-.47Z"/>
  <path class="cls-3" d="M19.31,15.05c.91,0,1.8.26,2.56.74-.86.57-1.67,1.21-2.43,1.91-.35-.84-.43-1.76-.22-2.65.03,0,.06,0,.1,0ZM40.99,15.05s.06,0,.09,0c.2.89.13,1.82-.2,2.65-.76-.7-1.58-1.34-2.45-1.91.77-.49,1.66-.74,2.56-.74ZM26.03,12.75c1.34,0,2.66.39,3.8,1.13.1.07.22.1.34.1s.24-.03.34-.1c1.13-.73,2.43-1.11,3.76-1.11.41,0,.83.04,1.25.11-.11.09-.22.19-.32.3-.44.4-.13,1.1.42,1.1.03,0,.07,0,.1,0,.22-.03.44-.04.66-.04.35,0,.69.04,1.03.12-.28.35-.54.72-.76,1.13-.16.3-.07.69.24.87,4.08,2.39,6.96,6.18,8.07,10.54-.09-.07-.19-.13-.28-.2-.12-.08-.24-.12-.37-.12-.35,0-.68.3-.65.69.26,3.14-.18,6.03-1.28,8.46.17-.74.24-1.48.24-2.24.02-.76-.07-1.54-.22-2.28-.08-.35-.35-.51-.62-.51-.37,0-.74.29-.64.77.15.67.22,1.34.22,2.02-.04,2.52-1.04,4.93-2.78,6.75.02-.39.04-.78.05-.89.04-.28-.09-.54-.33-.67-.09-.05-.19-.07-.28-.07-.16,0-.33.07-.46.18-1.52,1.41-3.1,2.02-4.47,2.54-1.06.41-2.1.82-2.93,1.5-.85-.7-1.87-1.09-2.93-1.5-1.39-.54-2.95-1.13-4.49-2.54-.13-.12-.28-.17-.43-.17-.36,0-.7.3-.65.73.02.11.06.5.08.89-1.76-1.82-2.75-4.23-2.78-6.75,0-.69.08-1.35.2-2.02.11-.48-.27-.77-.63-.77-.27,0-.54.16-.61.51-.17.74-.24,1.52-.24,2.28s.09,1.5.26,2.24c-1.1-2.43-1.56-5.32-1.3-8.46.04-.4-.28-.69-.64-.69-.12,0-.25.04-.37.12-.09.05-.18.11-.3.18,1.13-4.36,4.01-8.14,8.09-10.54.3-.19.41-.56.24-.87-.22-.39-.48-.76-.76-1.13.34-.07.68-.11,1.02-.11.22,0,.44.02.66.05.03,0,.06,0,.08,0,.56,0,.88-.69.44-1.12-.09-.09-.2-.2-.32-.3.41-.07.82-.11,1.22-.11ZM26.08,11.46c-.96,0-1.91.17-2.83.51-.22.08-.37.28-.41.5-.04.19.04.39.15.52-.5.09-1,.24-1.48.45-.19.09-.33.28-.37.5v.09c-.59-.18-1.21-.28-1.83-.28-.21,0-.43.01-.64.04-.26.04-.46.2-.54.46-.48,1.45-.35,3.04.35,4.4-2.48,2.64-4.12,5.94-4.69,9.52-.07.42.27.74.63.74.14,0,.28-.04.41-.14.13-.09.3-.22.48-.33h0c-.09,3.52.69,6.75,2.24,9.37.11.2.33.3.55.3.03,0,.07,0,.1,0,.17-.02.33-.11.45-.28.78,1.76,1.97,3.28,3.47,4.45.12.1.27.15.4.15.37,0,.7-.33.64-.76-.04-.11-.06-.56-.09-.98h0c1.3.93,2.58,1.41,3.71,1.85,1.15.45,2.21.86,2.95,1.61.13.14.3.21.46.21s.33-.07.46-.21c.74-.76,1.76-1.15,2.93-1.61,1.19-.46,2.41-.93,3.71-1.85h0c-.02.43-.05.87-.07.98-.07.43.27.76.64.76.14,0,.28-.04.4-.15,1.5-1.17,2.69-2.69,3.47-4.45.11.17.26.26.45.28h.09c.22,0,.43-.11.54-.3,1.58-2.63,2.34-5.84,2.24-9.39h0c.2.13.37.24.5.35.12.09.26.13.39.13.37,0,.72-.32.65-.75h0l-.04.02c-.57-3.58-2.21-6.9-4.69-9.52.7-1.35.83-2.95.37-4.4-.07-.26-.3-.43-.56-.46-.21-.02-.42-.04-.63-.04-.62,0-1.24.1-1.83.28v-.09c-.04-.22-.16-.41-.37-.5-.48-.2-.97-.35-1.48-.45.13-.13.19-.33.15-.52-.02-.22-.19-.43-.39-.5-.92-.34-1.88-.51-2.84-.51-1.43,0-2.85.37-4.1,1.1-1.25-.73-2.67-1.1-4.09-1.1Z"/>
  <path class="cls-2" d="M30.22,17.85c-.57,0-.87.69-.46,1.09.13.13.29.19.45.19.33,0,.65-.26.65-.65,0-.35-.28-.63-.63-.63Z"/>
</svg>