<?xml version="1.0" encoding="UTF-8"?>
<svg id="Layer_1" data-name="Layer 1" xmlns="http://www.w3.org/2000/svg" xmlns:xlink="http://www.w3.org/1999/xlink" viewBox="0 0 58.11 57.23">
  <defs>
    <style>
      .cls-1 {
        fill: url(#radial-gradient);
      }

      .cls-1, .cls-2 {
        fill-rule: evenodd;
      }

      .cls-2 {
        fill: url(#radial-gradient-2);
      }
    </style>
    <radialGradient id="radial-gradient" cx="-1132.78" cy="741.61" fx="-1132.78" fy="741.61" r="4.51" gradientTransform="translate(5142.13 3377.17) scale(4.51 -4.51)" gradientUnits="userSpaceOnUse">
      <stop offset="0" stop-color="#f3d5ab"/>
      <stop offset="1" stop-color="#dc9b3f"/>
    </radialGradient>
    <radialGradient id="radial-gradient-2" cx="113.26" cy="-734.27" fx="113.26" fy="-734.27" r=".95" gradientTransform="translate(-68.03 -682.97) scale(.95 -.95)" gradientUnits="userSpaceOnUse">
      <stop offset="0" stop-color="#f3d5ab"/>
      <stop offset="1" stop-color="#dc9b3f"/>
    </radialGradient>
  </defs>
  <path class="cls-1" d="M21.62,15.15v.02c-.32,1.06-.19,2.21.37,3.15.11.19.19.41.2.63.05.8-.52,1.5-1.32,1.59-.05,0-.1,0-.15,0-.35,0-.68-.11-.94-.34-.33-.28-.52-.69-.56-1.11-.11-1.69.83-3.26,2.39-3.95ZM21.6,21.68c.28.59.81,1.04,1.45,1.22l-.37,1.24c-1.15-.33-2.06-1.22-2.41-2.35h0c.14.03.3.05.45.05.11-.02.2-.02.32-.04.18-.02.37-.05.57-.13ZM37.26,21.7c.18.06.39.11.57.13.11,0,.2.02.3.02.17,0,.32-.02.46-.05h0c-.37,1.15-1.28,2.02-2.41,2.36l-.37-1.22c.63-.19,1.17-.63,1.45-1.22ZM29.43,22.03c1.1,0,1.99.93,1.95,2.02v1.3h-3.91v-1.3c-.04-1.09.86-2.02,1.97-2.02ZM24.36,23c.67.02,1.3.24,1.86.61-.02.15-.04.3-.04.46v1.34c-.43-.7-1.2-1.14-2.01-1.14-.06,0-.13,0-.19,0l.39-1.28ZM34.47,23l.39,1.28c-.07,0-.13,0-.19,0-.82,0-1.59.43-2.01,1.14v-1.34c0-.15,0-.32-.04-.46.56-.37,1.21-.59,1.85-.61ZM27.37,26.63s.04,0,.07,0h3.97c1.15.06,1.15,1.76,0,1.82h-4.02c-1.2,0-1.21-1.82-.02-1.82ZM27.39,29.73h4.02c.5,0,.91.41.91.91s-.41.91-.91.91h-3.97s-.05,0-.07,0c-1.19,0-1.19-1.82.02-1.82ZM27.37,32.85h4.04c.5,0,.91.41.91.91s-.41.91-.91.91h-3.97s-.04,0-.05,0c-1.2,0-1.21-1.82-.02-1.82ZM31.52,35.91c-.32,1.02-1.09,1.84-2.1,2.17-1-.35-1.78-1.15-2.08-2.17h4.17ZM30.32,39.1v1.56c-.25.07-.52.1-.79.1-.33,0-.67-.05-.99-.16v-1.5c.22.11.46.2.72.28.06,0,.11.01.17.01s.11,0,.17-.01c.26-.08.5-.17.72-.28ZM35.33,38.1v.02c.17.8.65,1.5,1.34,1.97.13.09.24.2.32.35.28.5.11,1.13-.37,1.43-.16.1-.35.15-.53.15-.09,0-.19-.01-.28-.04-.3-.09-.56-.3-.69-.56-.57-1.06-.48-2.36.22-3.32ZM28.55,41.95h0c.33.08.67.11.98.11.28,0,.56-.04.84-.08.04.28.15.54.32.78-.35.45-.82.78-1.35.98-.43-.52-.69-1.15-.78-1.8ZM34.36,42.57c.28.28.63.5,1.02.61l-.22.32c-.32.48-.76.89-1.28,1.17.04-.46-.02-.93-.15-1.39.2-.13.35-.32.48-.5l.15-.2ZM31.69,43.57c.24.09.5.15.76.15h.07c.11.45.11.93.02,1.37-.14.02-.29.03-.43.03-.6,0-1.18-.16-1.7-.45.48-.28.93-.65,1.28-1.09ZM22.87,13.53s-.03,0-.04,0c-2.89.24-5.05,2.75-4.86,5.64.04.67.33,1.32.8,1.8l.17.78c.51,2.24,2.5,3.82,4.76,3.82.14,0,.27,0,.41-.02.03,0,.06,0,.09,0,.37,0,.72.2.91.52l-1.95,1.13h-2.39l-1.72-1.98c-.15-.19-.32-.27-.5-.27-.49,0-.93.62-.47,1.1l1.91,2.21c.11.15.3.22.48.22h2.88c.11,0,.22-.02.32-.08l1.59-.93v.06c0,.39.11.78.3,1.11l-2.21,1.56h-2.65l-2.3-1.43c-.12-.07-.24-.11-.35-.11-.57,0-.94.83-.33,1.2l2.47,1.52c.09.08.22.09.33.09h3.04c.13,0,.26-.04.37-.11l1.35-.94v.2c0,.32.06.61.19.89l-1.47,1.65-2.75.8-2.5-.72c-.07-.02-.13-.03-.2-.03-.69,0-.92,1.05-.16,1.27l2.69.76c.06.02.11.02.17.04.06-.02.13-.02.19-.04l3.08-.91c.11-.02.22-.09.3-.18l.45-.48v.05c0,.61.24,1.17.67,1.6.07.89.39,1.72.93,2.45.13.15.26.3.39.43v3.28c0,2.17,1.41,4.08,3.49,4.69.48.15.96.22,1.44.22,1.59,0,3.12-.78,4.05-2.16l.76-1.11c1.28-.54,1.8-2.1,1.11-3.32-.19-.3-.41-.56-.7-.76-.7-.48-1.02-1.35-.8-2.17.1-.43-.24-.81-.62-.81-.1,0-.2.03-.3.08-1.82,1.02-2.65,3.19-2,5.18l-.5.74c-.17.26-.44.37-.69.37-.43,0-.84-.32-.84-.84v-3.39c.13-.13.26-.28.39-.43.54-.7.85-1.56.93-2.45.43-.43.67-.98.67-1.6v-.05l.45.48c.08.09.19.17.3.18l3.08.91c.07.02.13.02.18.04.06-.02.11-.02.19-.04l2.69-.76c.73-.22.51-1.27-.16-1.27-.06,0-.12,0-.19.03l-2.52.72-2.73-.8-1.47-1.65c.13-.28.2-.59.2-.89v-.22l1.35.96c.09.08.22.11.37.11h3.02c.13,0,.24-.04.35-.09l2.45-1.54c.3-.18.39-.57.2-.87h0v.02c-.12-.2-.34-.32-.56-.32-.12,0-.23.03-.33.1l-2.3,1.43h-2.65l-2.23-1.56c.19-.3.28-.63.3-.97l1,.69c.09.08.22.13.37.13h3.28c.22,0,.43-.11.54-.3l1.48-2.21c.34-.5-.09-1-.54-1-.19,0-.38.09-.51.3l-1.3,1.91h-2.76l-1.47-1.02c.17-.38.56-.63.99-.63.03,0,.06,0,.09,0,.15.02.28.02.43.02,2.26,0,4.25-1.58,4.75-3.8l.17-.78c.18-.19.33-.41.46-.63.24-.5-.18-.93-.6-.93-.2,0-.4.1-.53.32-.27.51-.78.8-1.31.8-.24,0-.49-.06-.71-.19-.73-.39-.98-1.32-.58-2.04.58-.95.73-2.1.41-3.17h0c.18.09.37.19.56.3.13.1.27.14.39.14.56,0,.94-.84.3-1.22-.72-.46-1.58-.76-2.43-.83-.02,0-.03,0-.05,0-.55,0-.87.65-.51,1.06.73.87.82,2.1.26,3.08-.22.35-.35.74-.37,1.15-.07.8.2,1.59.78,2.17-.14.44-.54.73-.98.73-.03,0-.05,0-.08,0-.15-.01-.3-.02-.45-.02-.87,0-1.72.23-2.46.67-.15-.22-.32-.45-.52-.63l.09-.11c.47-.48.03-1.11-.47-1.11-.17,0-.35.08-.49.25l-.22.26c-.37-.14-.76-.21-1.15-.21s-.78.07-1.15.21l-.24-.26c-.14-.16-.31-.23-.47-.23-.48,0-.91.6-.5,1.09l.11.11c-.2.19-.37.41-.52.63-.76-.44-1.61-.67-2.47-.67-.15,0-.3,0-.45.02-.03,0-.05,0-.08,0-.45,0-.85-.29-.98-.73.87-.89,1.04-2.24.41-3.32-.58-.98-.48-2.21.24-3.08.36-.41.04-1.06-.49-1.06Z"/>
  <path class="cls-2" d="M39.96,16.52c-.58,0-.85.69-.45,1.1.12.13.28.19.44.19.33,0,.65-.26.65-.65,0-.35-.3-.63-.65-.63Z"/>
</svg>