<?xml version="1.0" encoding="UTF-8"?>
<svg id="Layer_1" data-name="Layer 1" xmlns="http://www.w3.org/2000/svg" viewBox="0 0 58.11 57.23">
  <defs>
    <style>
      .cls-1 {
        fill: #ebb871;
        fill-rule: evenodd;
      }
    </style>
  </defs>
  <path class="cls-1" d="M35.4,22.85c.35,0,.63.3.63.65v5.64c0,.43-.32.64-.64.64s-.64-.21-.64-.64v-2.56c.01-.39-.31-.65-.65-.65-.16,0-.32.06-.45.19l-3.97,3.97c-.26.26-.26.67,0,.91l1.76,1.76c.39.41.09,1.09-.46,1.09-.19,0-.35-.07-.46-.18l-1.76-1.76c-.13-.12-.3-.18-.46-.18s-.33.06-.45.18l-3.93,3.93c-.14.14-.29.2-.44.2-.49,0-.92-.63-.47-1.1h0l.02.02,3.93-3.95c.24-.24.24-.65,0-.91l-1.76-1.76c-.43-.45-.02-1.08.47-1.08.15,0,.3.05.44.19l1.76,1.75c.12.13.28.19.45.19s.33-.06.46-.19l3.93-3.93c.4-.4.12-1.1-.44-1.1h-2.53c-.85,0-.85-1.3,0-1.3h5.66ZM29.74,21.59c-1.04.04-1.85.89-1.85,1.93s.81,1.89,1.85,1.93h.97l-2.39,2.37-1.3-1.3c-.38-.37-.87-.56-1.36-.56s-.98.19-1.36.56c-.74.76-.74,1.96,0,2.73l1.32,1.3-3.49,3.49c-1.21,1.21-.35,3.28,1.35,3.28.52,0,1-.2,1.37-.57l3.47-3.47,1.32,1.3c.37.38.86.57,1.35.57s.98-.19,1.35-.57c.76-.74.76-1.97,0-2.73l-1.3-1.3,2.43-2.41v1.02c-.04,1.1.84,1.99,1.91,1.99s1.97-.89,1.93-1.99v-5.64c0-1.06-.85-1.93-1.93-1.93h-5.64Z"/>
  <path class="cls-1" d="M29.42,13.02c-3.23,0-6.48.95-9.3,2.89-.6.39-.21,1.2.34,1.2.13,0,.26-.04.4-.14,2.61-1.8,5.6-2.67,8.56-2.67,4.36,0,8.67,1.88,11.65,5.47,5.01,6.01,4.58,14.84-.95,20.39-2.94,2.94-6.82,4.43-10.72,4.43-3.42,0-6.86-1.15-9.67-3.49-6.01-5.01-7.23-13.78-2.8-20.24.32-.49-.1-.99-.55-.99-.18,0-.36.08-.5.27-3.6,5.25-3.84,12.11-.63,17.62,2.97,5.06,8.4,8.12,14.2,8.12.49,0,.99-.02,1.49-.07,6.34-.59,11.78-4.79,13.93-10.79,2.17-5.99.69-12.69-3.82-17.2v.02c-3.18-3.18-7.4-4.82-11.64-4.82Z"/>
  <path class="cls-1" d="M29.43,16.88c5.08,0,9.68,3.06,11.61,7.77,1.95,4.69.87,10.11-2.73,13.71-2.41,2.41-5.62,3.69-8.89,3.69-1.62,0-3.26-.31-4.82-.96-4.69-1.95-7.75-6.55-7.75-11.63,0-6.94,5.62-12.58,12.58-12.58ZM29.44,15.59c-.9,0-1.81.09-2.72.27-6.47,1.28-11.15,6.97-11.15,13.6-.02,3.67,1.45,7.22,4.06,9.81,2.68,2.68,6.23,4.06,9.81,4.06,2.66,0,5.34-.77,7.69-2.33,5.51-3.69,7.64-10.72,5.12-16.85-2.19-5.25-7.29-8.56-12.81-8.56Z"/>
  <path class="cls-1" d="M18.26,17.64c-.57,0-.85.7-.45,1.1.13.13.3.19.46.19.33,0,.64-.25.64-.64,0-.35-.3-.65-.65-.65Z"/>
</svg>