<?xml version="1.0" encoding="UTF-8"?>
<svg id="Layer_1" data-name="Layer 1" xmlns="http://www.w3.org/2000/svg" viewBox="0 0 58.11 57.23">
  <defs>
    <style>
      .cls-1 {
        fill: #ebb871;
        fill-rule: evenodd;
      }
    </style>
  </defs>
  <path class="cls-1" d="M35.23,28.37c.33,0,.66.23.63.68,0,.89-.3,1.75-.83,2.45-.28-.48-.45-1.04-.43-1.61v-.84c-.03-.45.3-.68.63-.68ZM35.23,27.12c-1.06,0-1.93.86-1.93,1.91v.87c0,1.13.45,2.23,1.21,3.04.13.13.3.2.46.22v-.02c.17,0,.33-.06.45-.17,1.11-1.02,1.74-2.45,1.72-3.95.02-1.06-.85-1.91-1.91-1.91Z"/>
  <path class="cls-1" d="M25.36,23.43c.72,0,1.45.26,2.03.76.11.1.26.15.41.15s.3-.05.42-.15c.56-.48,1.28-.76,2.02-.76l-.02.02c1.37,0,2.58.91,2.97,2.21.06.19.17.33.33.41.09.04.18.06.28.06.08,0,.16-.01.24-.04.37-.15.78-.24,1.19-.24,1.76.02,3.21,1.45,3.21,3.21,0,1.56-.56,3.06-1.56,4.25-.33.39-.09,1,.43,1.06.17.02.32.02.48.04h.05c.84,0,.84,1.28,0,1.28-.02,0-.03,0-.05,0-.91,0-1.8-.22-2.6-.63-.08-.03-.15-.06-.24-.06-.02,0-.04,0-.06,0-.09,0-.19.02-.26.06-.89.41-1.83.63-2.82.63-.02,0-.04,0-.05,0-.84,0-.84-1.28,0-1.28h.05c.3-.02.61-.04.91-.09.46-.07.69-.61.41-1-.72-.98-1.11-2.17-1.11-3.39v-3.38c0-1-.8-1.8-1.8-1.8s-1.8.8-1.8,1.8v5.88c.03.45-.31.68-.64.68s-.67-.23-.64-.68v-5.88c0-1-.8-1.8-1.8-1.8s-1.8.8-1.8,1.8v5.88c0,.43-.32.64-.64.64s-.64-.21-.64-.64v-6.49c0-.67-.54-1.21-1.21-1.21-.85,0-.85-1.28,0-1.28.59,0,1.19.22,1.63.61.12.1.27.15.41.15.13,0,.27-.04.38-.13.56-.42,1.21-.63,1.87-.63ZM20.99,22.17c-1.03,0-1.86.84-1.9,1.87-.02,1.06.82,1.95,1.89,1.97v6.4c-.04,1.09.83,1.98,1.91,1.98s1.97-.89,1.93-1.98v-5.88c.03-.33.28-.49.53-.49s.49.16.51.49v5.88c-.04,1.09.84,1.98,1.93,1.98s1.97-.89,1.93-1.98v-5.88c0-.34.26-.51.51-.51s.51.17.51.51v3.38c0,1.11.26,2.23.78,3.23-.98.15-1.69,1.06-1.61,2.04.09,1,.91,1.78,1.91,1.78,1.06,0,2.1-.2,3.08-.63.91.43,1.89.63,2.89.63,2.12,0,2.67-2.91.72-3.71.78-1.24,1.21-2.69,1.21-4.17,0-2.53-2.06-4.49-4.47-4.49-.35,0-.7.04-1.06.13-.75-1.62-2.33-2.53-3.96-2.53-.84,0-1.68.24-2.44.75-.72-.5-1.58-.76-2.45-.76h-.09c-.75,0-1.49.22-2.13.59-.61-.39-1.32-.59-2.06-.59h-.07Z"/>
  <path class="cls-1" d="M29.45,12.51c-4.73,0-9.4,2.04-12.64,5.91-5.44,6.53-4.99,16.12,1.02,22.11,3.2,3.2,7.4,4.82,11.62,4.82,3.71,0,7.43-1.26,10.49-3.8,6.53-5.42,7.83-14.93,3.02-21.92-.14-.19-.32-.27-.49-.27-.45,0-.88.5-.56.99,4.43,6.45,3.23,15.23-2.78,20.22-2.81,2.35-6.25,3.5-9.68,3.5-3.89,0-7.77-1.49-10.71-4.43-5.55-5.53-5.95-14.37-.95-20.39,2.97-3.58,7.29-5.46,11.65-5.46,2.97,0,5.95.87,8.57,2.66.12.08.24.11.35.11.54,0,.92-.76.37-1.17-2.83-1.95-6.07-2.89-9.29-2.89Z"/>
  <path class="cls-1" d="M29.43,16.36c6.94,0,12.58,5.64,12.58,12.58,0,5.08-3.06,9.68-7.77,11.63-1.55.64-3.17.94-4.79.94-3.28,0-6.51-1.28-8.92-3.69-3.6-3.6-4.68-9-2.73-13.71,1.95-4.69,6.55-7.75,11.63-7.75ZM29.43,15.06c-3.67,0-7.21,1.47-9.79,4.06-4.68,4.69-5.4,12.02-1.72,17.51,2.65,3.94,7.03,6.15,11.55,6.15,1.77,0,3.57-.34,5.29-1.05,6.1-2.54,9.57-9.03,8.29-15.53-1.3-6.47-6.99-11.15-13.62-11.15Z"/>
  <path class="cls-1" d="M40.59,17.12c-.57,0-.85.71-.45,1.11.13.12.29.18.45.18.33,0,.65-.25.65-.65,0-.35-.3-.65-.65-.65Z"/>
</svg>