<?xml version="1.0" encoding="UTF-8"?>
<svg id="Layer_1" data-name="Layer 1" xmlns="http://www.w3.org/2000/svg" xmlns:xlink="http://www.w3.org/1999/xlink" viewBox="0 0 58.11 57.23">
  <defs>
    <style>
      .cls-1 {
        fill: url(#radial-gradient);
      }

      .cls-1, .cls-2 {
        fill-rule: evenodd;
      }

      .cls-2 {
        fill: url(#radial-gradient-2);
      }
    </style>
    <radialGradient id="radial-gradient" cx="-1147.96" cy="538.99" fx="-1147.96" fy="538.99" r="4.73" gradientTransform="translate(5459.88 2578.15) scale(4.73 -4.73)" gradientUnits="userSpaceOnUse">
      <stop offset="0" stop-color="#f3d5ab"/>
      <stop offset="1" stop-color="#dc9b3f"/>
    </radialGradient>
    <radialGradient id="radial-gradient-2" cx="117.89" cy="-1118.65" fx="117.89" fy="-1118.65" r=".95" gradientTransform="translate(-71.83 -1042.26) scale(.95 -.95)" gradientUnits="userSpaceOnUse">
      <stop offset="0" stop-color="#f3d5ab"/>
      <stop offset="1" stop-color="#dc9b3f"/>
    </radialGradient>
  </defs>
  <path class="cls-1" d="M30.71,15.36l.04.48c.06.81.24,1.63.52,2.41.11.32.26.61.43.87l-5.34,5.36c-.28-.19-.57-.33-.87-.45-.78-.28-1.6-.45-2.43-.52l-.48-.02,8.14-8.14ZM32.54,20.09c.15.13.32.24.46.35.39.22.8.39,1.22.5l-6.08,6.09c-.11-.43-.28-.84-.5-1.22-.09-.17-.22-.32-.33-.46l5.23-5.25ZM43.3,26.25c.98,2.02,1.41,4.27,1.22,6.49h.02l-4.6,4.58c-.32.03-.65.04-.97.04-1.9,0-3.79-.42-5.52-1.26l9.85-9.85ZM21.95,17.35c1.35.02,2.69.39,3.86,1.1l-3.04,3.04c-2.56.56-4.4,2.84-4.38,5.45v9.53c0,.28-.24.52-.52.52-1,0-1.82.81-1.82,1.82v2.58c0,.59-.44.89-.88.89s-.88-.3-.88-.89v-16.34c-.02-4.23,3.41-7.68,7.66-7.7ZM31.24,13.26c-.16,0-.32.06-.45.19l-4.06,4.06c-1.53-.98-3.19-1.43-4.8-1.43-4.65,0-8.96,3.71-8.94,8.96v16.34c-.04,1.22.95,2.24,2.17,2.24s2.21-1.02,2.17-2.24v-2.58c0-.3.24-.54.54-.54,1,0,1.8-.81,1.8-1.8v-9.53c0-.94.32-1.85.89-2.61.09.2.3.33.52.35l1.87.13c.72.06,1.41.2,2.1.45,1.3.48,2.1,1.78,1.93,3.15v.02c-.26,2.26.52,4.53,2.13,6.14,2.62,2.61,6.16,4.08,9.85,4.08.45,0,.89-.02,1.34-.06.15-.02.3-.09.41-.19l4.92-4.92c.09-.11.17-.24.18-.39.33-3.58-.72-7.18-2.97-10-.14-.2-.32-.29-.5-.29-.48,0-.94.6-.5,1.08.3.37.57.78.83,1.19l-10.37,10.37c-.83-.5-1.59-1.11-2.28-1.8-1.28-1.28-1.95-3.06-1.78-4.88l7.75-7.75c.17-.01.33-.02.5-.02.33,0,.67.02,1,.07.04,0,.09.01.13.01.72,0,.86-1.15.07-1.27-.41-.07-.82-.1-1.24-.1-.27,0-.55.02-.82.04h-.02c-.12.02-.24.02-.36.02-1.23,0-2.35-.77-2.79-1.95-.24-.69-.39-1.37-.45-2.1l-.13-1.87c-.03-.36-.33-.6-.65-.6Z"/>
  <path class="cls-2" d="M40.31,20.85h-.03c-.57,0-.87.69-.46,1.1.13.12.29.18.45.18.33,0,.65-.25.65-.64,0-.34-.26-.63-.6-.63Z"/>
</svg>