<?xml version="1.0" encoding="UTF-8"?>
<svg id="Layer_1" data-name="Layer 1" xmlns="http://www.w3.org/2000/svg" xmlns:xlink="http://www.w3.org/1999/xlink" viewBox="0 0 58.11 57.23">
  <defs>
    <style>
      .cls-1 {
        fill: url(#radial-gradient);
      }

      .cls-1, .cls-2, .cls-3, .cls-4, .cls-5, .cls-6, .cls-7 {
        fill-rule: evenodd;
      }

      .cls-2 {
        fill: url(#radial-gradient-7);
      }

      .cls-3 {
        fill: url(#radial-gradient-5);
      }

      .cls-4 {
        fill: url(#radial-gradient-6);
      }

      .cls-5 {
        fill: url(#radial-gradient-4);
      }

      .cls-6 {
        fill: url(#radial-gradient-3);
      }

      .cls-7 {
        fill: url(#radial-gradient-2);
      }
    </style>
    <radialGradient id="radial-gradient" cx="-1015.06" cy="284.35" fx="-1015.06" fy="284.35" r="3.33" gradientTransform="translate(3405.92 970.44) scale(3.33 -3.33)" gradientUnits="userSpaceOnUse">
      <stop offset="0" stop-color="#f3d5ab"/>
      <stop offset="1" stop-color="#dc9b3f"/>
    </radialGradient>
    <radialGradient id="radial-gradient-2" cx="-662.76" cy="-200.59" fx="-662.76" fy="-200.59" r="1.86" gradientTransform="translate(1255.94 -347.26) scale(1.86 -1.86)" gradientUnits="userSpaceOnUse">
      <stop offset="0" stop-color="#f3d5ab"/>
      <stop offset="1" stop-color="#dc9b3f"/>
    </radialGradient>
    <radialGradient id="radial-gradient-3" cx="-657.86" cy="-202.57" fx="-657.86" fy="-202.57" r="1.86" gradientTransform="translate(1257.53 -346.28) scale(1.86 -1.86)" gradientUnits="userSpaceOnUse">
      <stop offset="0" stop-color="#f3d5ab"/>
      <stop offset="1" stop-color="#dc9b3f"/>
    </radialGradient>
    <radialGradient id="radial-gradient-4" cx="-1015.17" cy="283" fx="-1015.17" fy="283" r="3.33" gradientTransform="translate(3412.12 974.23) scale(3.33 -3.33)" gradientUnits="userSpaceOnUse">
      <stop offset="0" stop-color="#f3d5ab"/>
      <stop offset="1" stop-color="#dc9b3f"/>
    </radialGradient>
    <radialGradient id="radial-gradient-5" cx="-1153.81" cy="473.36" fx="-1153.81" fy="473.36" r="4.82" gradientTransform="translate(5590.74 2309.48) scale(4.82 -4.82)" gradientUnits="userSpaceOnUse">
      <stop offset="0" stop-color="#f3d5ab"/>
      <stop offset="1" stop-color="#dc9b3f"/>
    </radialGradient>
    <radialGradient id="radial-gradient-6" cx="-1126.36" cy="435.82" fx="-1126.36" fy="435.82" r="4.43" gradientTransform="translate(5016.53 1957.56) scale(4.43 -4.43)" gradientUnits="userSpaceOnUse">
      <stop offset="0" stop-color="#f3d5ab"/>
      <stop offset="1" stop-color="#dc9b3f"/>
    </radialGradient>
    <radialGradient id="radial-gradient-7" cx="88.84" cy="-1230.46" fx="88.84" fy="-1230.46" r=".95" gradientTransform="translate(-66.54 -1157.78) scale(.95 -.95)" gradientUnits="userSpaceOnUse">
      <stop offset="0" stop-color="#f3d5ab"/>
      <stop offset="1" stop-color="#dc9b3f"/>
    </radialGradient>
  </defs>
  <path class="cls-1" d="M29.15,19.53c2.24,0,4.49.76,6.34,2.31.33.3.67.61.96.93.11.13.17.3.17.46-.02.18-.09.33-.22.45-.12.11-.27.17-.42.17-.17,0-.34-.07-.47-.21-.26-.28-.54-.56-.83-.8-1.56-1.31-3.54-2.01-5.56-2.01-.24,0-.47,0-.71.03-.59.05-1.17.17-1.74.35-.54.15-.65.85-.17,1.15.11.07.24.16.35.26,2.54,2.13,1.24,6.27-2.06,6.57-.12,0-.24.02-.36.02-3.1,0-4.89-3.67-2.83-6.12l-.02-.02c1.95-2.34,4.75-3.54,7.57-3.54ZM29.15,18.25c-3.18,0-6.34,1.35-8.55,3.98-.85,1.02-1.26,2.34-1.15,3.67.24,2.68,2.5,4.56,4.99,4.56.65,0,1.32-.13,1.97-.41,3.13-1.32,4.04-5.32,1.82-7.88.09-.02.19-.04.28-.04.23-.02.45-.03.68-.03,1.7,0,3.35.61,4.66,1.7.24.22.48.45.7.69.38.41.9.62,1.43.62.46,0,.93-.16,1.3-.49.78-.72.83-1.95.13-2.73-.35-.37-.71-.71-1.1-1.04-2.09-1.75-4.63-2.61-7.16-2.61Z"/>
  <path class="cls-7" d="M24.44,24.3c.28,0,.54.09.74.28.8.65.39,1.95-.63,2.04-.04,0-.08,0-.11,0-.97,0-1.53-1.15-.87-1.91h-.02c.2-.24.48-.39.8-.41h.09ZM24.43,23.02c-.7,0-1.39.3-1.87.87-.85,1.04-.72,2.56.32,3.43.43.37.98.57,1.56.57h.2c2.17-.18,3.04-2.91,1.37-4.3-.46-.39-1.02-.58-1.58-.58Z"/>
  <path class="cls-6" d="M34.42,29.19c.25,0,.51.08.74.28.48.41.54,1.13.15,1.61-.24.29-.57.42-.88.42-.56,0-1.1-.4-1.16-1.05-.07-.73.52-1.26,1.15-1.26ZM34.42,27.9c-.97,0-1.92.58-2.28,1.6-.59,1.59.59,3.28,2.28,3.28h.22c2.17-.19,3.02-2.91,1.35-4.31-.47-.39-1.03-.58-1.57-.58Z"/>
  <path class="cls-5" d="M34.43,26.57c1.84,0,3.54,1.39,3.72,3.41v.04c.09.98-.22,1.97-.86,2.71-1.69,2-4.1,3.26-6.7,3.49-.3.02-.59.04-.89.04-2.32,0-4.56-.81-6.32-2.32-.33-.3-.65-.59-.95-.93-.24-.26-.22-.67.04-.91.12-.11.28-.17.43-.17.17,0,.35.07.48.21.26.3.54.56.83.8,1.53,1.3,3.49,2.02,5.5,2.02.25,0,.5-.01.75-.04.59-.05,1.19-.17,1.76-.33.52-.17.63-.87.17-1.17-.13-.07-.24-.16-.37-.26-2.02-1.71-1.67-4.93.69-6.16.56-.29,1.14-.42,1.72-.42ZM34.46,25.32c-.15,0-.31,0-.47.02h.02c-4.08.37-6.05,5.19-3.34,8.29-.11.02-.2.02-.3.04-.2.02-.41.02-.61.02-2.07,0-4.04-.86-5.44-2.4-.38-.44-.92-.66-1.46-.66-.46,0-.93.16-1.3.5-.8.74-.83,1.98-.09,2.76.35.37.7.72,1.09,1.04,2,1.69,4.53,2.6,7.14,2.62.33,0,.67-.02,1-.06,2.95-.24,5.66-1.67,7.57-3.93,2.77-3.29.35-8.24-3.82-8.24Z"/>
  <path class="cls-3" d="M29.44,11.47c-3.24,0-6.5.95-9.32,2.9-.54.4-.16,1.17.39,1.17.11,0,.23-.03.36-.11,2.61-1.8,5.6-2.67,8.57-2.67,4.36,0,8.67,1.87,11.65,5.45,5.01,6.03,4.58,14.86-.95,20.39-2.94,2.95-6.82,4.45-10.71,4.45-3.42,0-6.86-1.16-9.67-3.5-6.01-5.01-7.23-13.76-2.8-20.22.32-.5-.1-1-.55-1-.18,0-.37.08-.51.27-3.6,5.25-3.84,12.11-.63,17.6,2.97,5.06,8.38,8.12,14.16,8.12.51,0,1.02-.02,1.53-.07,6.34-.57,11.78-4.79,13.93-10.78,2.17-5.99.69-12.69-3.82-17.2-3.18-3.18-7.38-4.81-11.62-4.81Z"/>
  <path class="cls-4" d="M29.43,15.33c5.08,0,9.68,3.06,11.63,7.75,1.95,4.71.87,10.11-2.73,13.71-2.41,2.41-5.63,3.68-8.91,3.68-1.63,0-3.26-.31-4.82-.96-4.69-1.95-7.75-6.53-7.75-11.61,0-6.96,5.64-12.58,12.58-12.58ZM29.44,14.04c-.9,0-1.81.09-2.73.27-6.47,1.28-11.15,6.97-11.15,13.6-.02,3.67,1.45,7.2,4.06,9.8,2.68,2.68,6.23,4.06,9.81,4.06,2.66,0,5.34-.77,7.69-2.33,5.51-3.67,7.64-10.72,5.12-16.82-2.18-5.26-7.29-8.56-12.8-8.56Z"/>
  <path class="cls-2" d="M18.26,16.09c-.57,0-.85.69-.45,1.09.13.13.3.2.46.2.33,0,.64-.25.64-.64,0-.35-.3-.65-.65-.65Z"/>
</svg>