<?xml version="1.0" encoding="UTF-8"?>
<svg id="Layer_1" data-name="Layer 1" xmlns="http://www.w3.org/2000/svg" xmlns:xlink="http://www.w3.org/1999/xlink" viewBox="0 0 58.11 57.23">
  <defs>
    <style>
      .cls-1 {
        fill: url(#radial-gradient);
      }

      .cls-1, .cls-2 {
        fill-rule: evenodd;
      }

      .cls-2 {
        fill: url(#radial-gradient-2);
      }
    </style>
    <radialGradient id="radial-gradient" cx="-1201.15" cy="764.48" fx="-1201.15" fy="764.48" r="4.79" gradientTransform="translate(5780.34 3690.22) scale(4.79 -4.79)" gradientUnits="userSpaceOnUse">
      <stop offset="0" stop-color="#f3d5ab"/>
      <stop offset="1" stop-color="#dc9b3f"/>
    </radialGradient>
    <radialGradient id="radial-gradient-2" cx="108.12" cy="-739.04" fx="108.12" fy="-739.04" r=".96" gradientTransform="translate(-67.73 -680.58) scale(.96 -.96)" gradientUnits="userSpaceOnUse">
      <stop offset="0" stop-color="#f3d5ab"/>
      <stop offset="1" stop-color="#dc9b3f"/>
    </radialGradient>
  </defs>
  <path class="cls-1" d="M31.84,15.27c.35,0,.7.13.99.42.89.89.26,2.41-1,2.41-.78,0-1.41-.63-1.41-1.41,0-.86.7-1.42,1.42-1.42ZM15.6,18.85c.73,0,1.42.56,1.42,1.42-.02.78-.65,1.41-1.43,1.41-1.24,0-1.87-1.52-.98-2.41.29-.29.64-.42.99-.42ZM43.58,22.3c.46,0,.9.36.9.9,0,.5-.39.91-.89.91-.8,0-1.21-.98-.63-1.54.18-.19.4-.27.62-.27ZM23.16,22.53c.46,0,.91.36.91.91,0,.48-.41.89-.91.89-.8,0-1.21-.97-.63-1.54.18-.18.4-.26.62-.26ZM39.34,33.23c.73,0,1.42.57,1.42,1.42,0,.78-.63,1.41-1.41,1.41-1.26,0-1.89-1.52-1-2.41.29-.29.64-.42.99-.42ZM29.34,36.23c.46,0,.91.36.91.9,0,.5-.41.91-.91.91-.8,0-1.21-.98-.63-1.54.18-.19.41-.27.63-.27ZM29.34,42.86c.46,0,.91.36.91.91,0,.48-.41.89-.91.89-.8,0-1.21-.96-.63-1.54.18-.18.41-.26.63-.26ZM31.81,13.99c-1.47,0-2.69,1.21-2.69,2.72,0,.37.09.74.24,1.09l-4.95,3.86c-.37-.26-.8-.41-1.24-.41-.65,0-1.26.3-1.69.8l-3.21-1.35c.2-1.35-.63-2.63-1.93-3.01-.25-.08-.51-.11-.76-.11-1.06,0-2.05.63-2.47,1.65-.54,1.26-.04,2.73,1.15,3.39.42.24.88.35,1.33.35.83,0,1.65-.38,2.18-1.09l3.23,1.35v.2c0,1.2.97,2.19,2.17,2.19s2.19-.98,2.19-2.19c0-.26-.06-.52-.15-.78l4.95-3.84c.48.37,1.06.57,1.67.57.15,0,.28-.02.43-.04l1.61,3.9c.11.24.33.39.59.41.09,0,.17-.02.26-.06.32-.15.46-.52.33-.85l-1.63-3.88c.13-.11.26-.22.37-.35l7.66,4.23c-.19.82.13,1.67.78,2.17l-2.69,7.03h-.19c-.15,0-.28.02-.43.04l-1.63-3.9c-.11-.3-.35-.42-.58-.42-.42,0-.85.4-.6.93l1.63,3.9c-.69.5-1.1,1.3-1.1,2.15l-5.45,1.34c-.43-.67-1.13-1.01-1.84-1.01-.65,0-1.3.29-1.74.86-.93,1.19-.37,2.95,1.07,3.4v2.47c-2.39.74-1.85,4.27.65,4.27,1.08,0,2-.78,2.15-1.86.17-1.08-.48-2.1-1.5-2.41v-2.47c.87-.26,1.48-1.06,1.54-1.99l5.44-1.34c.5.94,1.44,1.44,2.4,1.44.65,0,1.31-.23,1.83-.72,1.3-1.22,1.09-3.34-.43-4.27l2.67-6.98h.15c1.2,0,2.17-.96,2.17-2.17s-.97-2.19-2.17-2.19v-.02c-.56,0-1.11.22-1.5.61l-7.66-4.23c.43-1.58-.63-3.17-2.24-3.38-.12-.02-.25-.03-.37-.03Z"/>
  <path class="cls-2" d="M35.59,25.02c-.57,0-.85.7-.46,1.1.13.13.3.19.46.19.33,0,.64-.25.65-.64,0-.35-.3-.65-.65-.65Z"/>
</svg>