<?xml version="1.0" encoding="UTF-8"?>
<svg id="Layer_1" data-name="Layer 1" xmlns="http://www.w3.org/2000/svg" xmlns:xlink="http://www.w3.org/1999/xlink" viewBox="0 0 58.11 57.23">
  <defs>
    <style>
      .cls-1 {
        fill: url(#radial-gradient);
      }

      .cls-1, .cls-2 {
        fill-rule: evenodd;
      }

      .cls-2 {
        fill: url(#radial-gradient-2);
      }
    </style>
    <radialGradient id="radial-gradient" cx="-1201.05" cy="690.86" fx="-1201.05" fy="690.86" r="4.79" gradientTransform="translate(5777.95 3336.16) scale(4.79 -4.79)" gradientUnits="userSpaceOnUse">
      <stop offset="0" stop-color="#f3d5ab"/>
      <stop offset="1" stop-color="#dc9b3f"/>
    </radialGradient>
    <radialGradient id="radial-gradient-2" cx="119.58" cy="-859.61" fx="119.58" fy="-859.61" r=".95" gradientTransform="translate(-70.51 -801.61) scale(.95 -.95)" gradientUnits="userSpaceOnUse">
      <stop offset="0" stop-color="#f3d5ab"/>
      <stop offset="1" stop-color="#dc9b3f"/>
    </radialGradient>
  </defs>
  <path class="cls-1" d="M23.28,17.01c.32,1.39-.04,3.21-1,4.8-.11.2-.26.39-.39.59l-1.47-.87c-.35-.22-.61-.54-.76-.91.22-.13.43-.3.59-.46l.02-.02,3.01-3.14ZM35.41,17.01l3.02,3.14c.17.17.37.33.57.46-.15.39-.41.71-.76.93l-1.45.87c-.13-.2-.28-.41-.39-.61-.97-1.59-1.32-3.39-1-4.79ZM19.79,14.89l-1.35,4.14c-.45,1.37.09,2.86,1.34,3.6l1.26.76c-1.08,1.06-2.35,1.65-3.45,1.65-.48,0-.93-.11-1.32-.35-.8-.48-1.28-1.41-1.35-2.62-.04-1.43.35-2.84,1.11-4.04.97-1.6,2.39-2.77,3.77-3.14ZM32.16,24.02c.69,0,1.02.82.54,1.3-.16.16-.35.24-.54.24-.39,0-.77-.31-.77-.77,0-.43.35-.76.78-.76ZM26.32,24.02c.69,0,1.04.82.54,1.32-.16.15-.34.22-.53.22-.4,0-.78-.31-.77-.78-.02-.43.33-.76.76-.76ZM14.95,25.26c.18.2.43.37.67.52.59.35,1.28.54,1.99.54.11,0,.2,0,.32-.02h0l-.93,3.43c-.16.61-.72,1.04-1.34,1.04-.02,0-.05,0-.08,0-.69-.04-1.26-.56-1.34-1.24-.15-1.47.09-2.93.71-4.27ZM43.75,25.28c.61,1.34.85,2.8.71,4.27-.07.84-.73,1.28-1.4,1.28-.59,0-1.17-.35-1.35-1.08h-.02l-.93-3.43c.11,0,.22.02.32.02.71,0,1.39-.19,2-.54.24-.15.46-.33.67-.52ZM18.66,28.51c.67.09,1.34.24,1.98.48-.33.61-.56,1.26-.69,1.95l-2.08-.08c.15-.24.26-.5.35-.78l.43-1.58ZM40.04,28.53l.43,1.56c.08.28.19.56.35.8l-2.12.08c-.13-.69-.35-1.34-.67-1.95.65-.24,1.32-.41,2-.48ZM19.86,32.37c.04.78.2,1.54.52,2.26-2.37.32-4.52,1.54-6.01,3.41.09-.39.22-.78.37-1.13.93-2.23,2.82-3.9,5.12-4.55ZM38.8,32.39c2.32.65,4.21,2.32,5.14,4.55v-.02c.15.37.28.76.37,1.13-1.48-1.87-3.64-3.08-6.01-3.39.3-.72.48-1.48.5-2.26ZM32.25,26.84c4.38,0,6.84,5.01,4.17,8.46l-1.86,2.39c-.91,1.17-2.28,1.83-3.75,1.83h-2.99c-1.47,0-2.86-.67-3.75-1.83l-1.85-2.39c-2.67-3.45-.2-8.46,4.15-8.46h5.86ZM20.99,35.76c.08.11,1.24,1.63,1.24,1.63-1.95.87-3.51,2.45-4.36,4.4,0-.3.02-.61.06-.91.24-2.06,1.35-3.91,3.06-5.12ZM37.67,35.76c1.71,1.19,2.84,3.06,3.08,5.14.04.3.05.61.05.91-.87-1.97-2.43-3.54-4.38-4.41,0,0,1.17-1.52,1.24-1.63ZM23.07,38.47v.02c.35.46.8.89,1.3,1.22-1.34,1.03-2.36,2.42-2.93,4.02h0c-.16-1.9.44-3.79,1.63-5.26ZM35.61,38.47c.98,1.22,1.58,2.75,1.65,4.32.02.33.02.67-.02,1-.56-1.63-1.59-3.04-2.95-4.08.48-.33.93-.76,1.3-1.22l.02-.02ZM38.02,13.5h-.05c-.2,0-.41.09-.52.26-.13.17-.15.39-.09.57l1.41,4.29-3.14-3.25c-.12-.13-.29-.2-.45-.2-.22,0-.45.12-.57.34-1,1.86-.72,4.56.69,6.94.26.41.54.81.85,1.19.85,1.04,1.95,1.85,3.19,2.36l.35,1.26c-.84.11-1.63.33-2.39.65-.87-1.06-2.04-1.8-3.36-2.15.17-.32.26-.65.26-1-.04-1.09-.95-1.98-2.06-1.98s-2.02.89-2.06,1.98c0,.26.06.54.17.78h-2.04c.09-.24.15-.52.15-.78,0-1.17-.95-2.06-2.05-2.06-.18,0-.36.02-.54.07-1.3.35-1.91,1.85-1.22,3.02-1.24.37-2.36,1.1-3.17,2.1-.78-.32-1.58-.54-2.39-.67l.33-1.24c1.26-.5,2.36-1.32,3.21-2.36.3-.37.59-.78.85-1.19,1.43-2.36,1.71-5.08.72-6.94-.13-.21-.35-.33-.58-.33-.17,0-.33.06-.46.2l-3.15,3.3,1.43-4.34c.13-.41-.17-.83-.61-.83h-.02c-2.08,0-4.36,1.5-5.79,3.86-.89,1.43-1.34,3.1-1.28,4.79.04.67.2,1.32.46,1.93-.94,1.71-1.34,3.65-1.13,5.6.15,1.32,1.24,2.32,2.56,2.39l1.72.06c-1.65,1-2.95,2.5-3.69,4.28-.22.54-.39,1.11-.52,1.67-.11.56.17,1.13.71,1.35.15.07.33.11.5.11.39,0,.76-.19.98-.5.82-1.1,1.91-1.97,3.15-2.52h0c-.95,1.22-1.54,2.67-1.71,4.21-.07.56-.09,1.1-.06,1.65.04.54.46,1,1,1.08h.18c.48,0,.93-.3,1.11-.76.39-1.06,1.02-2,1.86-2.78h0c-.37.89-.58,1.83-.61,2.8-.04.56-.02,1.11.07,1.67.06.56.52.98,1.08,1.02h.09c.54,0,1-.35,1.15-.87.5-1.71,1.61-3.17,3.1-4.14.7.28,1.45.41,2.19.41h3.01c.74,0,1.48-.13,2.19-.41,1.5.97,2.62,2.45,3.14,4.17.15.5.61.86,1.13.86h.09c.56-.04,1.02-.46,1.1-1.02.07-.54.09-1.1.07-1.65-.05-.97-.26-1.91-.61-2.82h0c.82.78,1.45,1.72,1.86,2.78.17.46.61.78,1.1.78.07,0,.13,0,.18-.02.54-.08.97-.52,1-1.08.15-2.1-.48-4.19-1.76-5.86h0c1.24.56,2.32,1.43,3.14,2.52.23.32.6.49.98.49.17,0,.34-.03.51-.1.52-.22.82-.8.69-1.35-.11-.57-.3-1.13-.52-1.67-.74-1.8-2.04-3.3-3.69-4.3l1.74-.06c1.32-.05,2.39-1.07,2.54-2.39h.02c.2-1.93-.19-3.89-1.13-5.6.41-.97.56-2.04.43-3.1-.04-.39-.33-.57-.63-.57-.35,0-.7.25-.65.72.18,1.63-.32,2.97-1.32,3.58-.38.21-.8.33-1.23.33h-.09c-1.11,0-2.36-.58-3.45-1.65l1.26-.74c1.22-.74,1.78-2.23,1.34-3.6l-1.35-4.14h0c.95.28,1.8.8,2.48,1.5.14.13.3.19.45.19.51,0,.94-.66.46-1.12-1.3-1.25-2.85-1.99-4.27-1.99Z"/>
  <path class="cls-2" d="M43.53,17.64c-.56,0-.85.7-.45,1.1.13.13.3.19.46.19.33,0,.64-.25.64-.64,0-.35-.28-.65-.65-.65Z"/>
</svg>