<?xml version="1.0" encoding="UTF-8"?>
<svg id="Layer_1" data-name="Layer 1" xmlns="http://www.w3.org/2000/svg" xmlns:xlink="http://www.w3.org/1999/xlink" viewBox="0 0 58.11 57.23">
  <defs>
    <style>
      .cls-1 {
        fill: url(#radial-gradient);
      }

      .cls-1, .cls-2, .cls-3, .cls-4 {
        fill-rule: evenodd;
      }

      .cls-2 {
        fill: url(#radial-gradient-4);
      }

      .cls-3 {
        fill: url(#radial-gradient-3);
      }

      .cls-4 {
        fill: url(#radial-gradient-2);
      }
    </style>
    <radialGradient id="radial-gradient" cx="-1088.03" cy="477.38" fx="-1088.03" fy="477.38" r="3.55" gradientTransform="translate(3893.25 1725.65) scale(3.55 -3.55)" gradientUnits="userSpaceOnUse">
      <stop offset="0" stop-color="#f3d5ab"/>
      <stop offset="1" stop-color="#dc9b3f"/>
    </radialGradient>
    <radialGradient id="radial-gradient-2" cx="-1203.34" cy="620.21" fx="-1203.34" fy="620.21" r="4.82" gradientTransform="translate(5829.99 3018.62) scale(4.82 -4.82)" gradientUnits="userSpaceOnUse">
      <stop offset="0" stop-color="#f3d5ab"/>
      <stop offset="1" stop-color="#dc9b3f"/>
    </radialGradient>
    <radialGradient id="radial-gradient-3" cx="-1174.78" cy="584.92" fx="-1174.78" fy="584.92" r="4.43" gradientTransform="translate(5231.65 2619.18) scale(4.43 -4.43)" gradientUnits="userSpaceOnUse">
      <stop offset="0" stop-color="#f3d5ab"/>
      <stop offset="1" stop-color="#dc9b3f"/>
    </radialGradient>
    <radialGradient id="radial-gradient-4" cx="120.32" cy="-1012.06" fx="120.32" fy="-1012.06" r=".95" gradientTransform="translate(-73.99 -922.88) scale(.95 -.95)" gradientUnits="userSpaceOnUse">
      <stop offset="0" stop-color="#f3d5ab"/>
      <stop offset="1" stop-color="#dc9b3f"/>
    </radialGradient>
  </defs>
  <path class="cls-1" d="M24.07,24.12c1.55,0,3.03,1,3.47,2.66l1.19,4.38c.08.32.34.47.61.47s.54-.16.62-.47l1.19-4.38c.45-1.57,1.88-2.59,3.44-2.59.3,0,.61.04.92.12,1.89.52,3.02,2.43,2.58,4.32v.02c-.24.89-.84,1.67-1.63,2.15-.1.06-.21.09-.32.09-.22,0-.44-.12-.56-.33-.09-.13-.11-.32-.07-.48.04-.17.15-.3.3-.39,1.43-.83,1.54-2.86.22-3.86-.43-.32-.91-.46-1.39-.46-1.01,0-1.98.66-2.27,1.74l-2.41,9c-.08.33-.35.49-.61.49s-.53-.16-.61-.49l-2.43-9c-.26-1-1.17-1.71-2.23-1.71-2.32.02-3.15,3.08-1.19,4.28.63.37.26,1.21-.31,1.21-.11,0-.22-.03-.34-.1-2.19-1.32-2.36-4.41-.33-5.95.66-.5,1.42-.73,2.17-.73ZM34.59,22.85c-2.15,0-4.12,1.43-4.7,3.62l-.56,2.06-.56-2.06c-.61-2.25-2.62-3.6-4.71-3.6-1.01,0-2.03.31-2.92.99-2.76,2.08-2.54,6.29.43,8.05.31.19.65.28.99.28.65,0,1.28-.34,1.65-.95.54-.91.24-2.1-.67-2.64-.98-.59-.4-1.91.51-1.91.17,0,.35.05.53.15.24.13.41.35.48.61l2.41,9.02c.26.94,1.06,1.4,1.85,1.4s1.59-.47,1.86-1.4l2.41-9.02c.12-.47.54-.75.98-.75.21,0,.43.07.62.22.59.43.54,1.32-.09,1.69-.91.54-1.21,1.73-.67,2.64.37.61,1,.95,1.65.95.34,0,.68-.09,1-.28,3.71-2.19,2.93-7.79-1.24-8.88h.02c-.43-.12-.85-.17-1.28-.17Z"/>
  <path class="cls-4" d="M29.33,12.51c-1.87,0-3.76.32-5.58.98-5.99,2.15-10.2,7.59-10.78,13.93-.59,6.36,2.54,12.47,8.05,15.69,2.57,1.51,5.43,2.26,8.29,2.26,3.26,0,6.52-.97,9.31-2.89.55-.41.18-1.17-.37-1.17-.11,0-.24.03-.36.11-2.61,1.78-5.59,2.65-8.55,2.65-4.37,0-8.7-1.89-11.67-5.48-4.99-6.01-4.56-14.86.98-20.39,2.93-2.93,6.8-4.42,10.69-4.42,3.43,0,6.88,1.16,9.7,3.51,6.01,5.01,7.2,13.78,2.76,20.24-.38.5.07,1.03.53,1.03.19,0,.38-.09.52-.3,4.49-6.53,3.67-15.34-1.93-20.93-3.14-3.14-7.34-4.82-11.62-4.82Z"/>
  <path class="cls-3" d="M29.34,16.35c1.62,0,3.26.31,4.82.96,4.69,1.95,7.75,6.55,7.75,11.63,0,6.94-5.64,12.58-12.58,12.58-5.08,0-9.68-3.06-11.63-7.77-1.95-4.69-.87-10.11,2.73-13.71,2.41-2.41,5.63-3.69,8.91-3.69ZM29.33,15.07c-2.67,0-5.34.77-7.69,2.33-5.51,3.67-7.64,10.72-5.12,16.84,2.19,5.25,7.29,8.56,12.81,8.56.9,0,1.81-.09,2.72-.27,6.47-1.3,11.15-6.99,11.15-13.6.02-3.67-1.45-7.22-4.06-9.81-2.68-2.68-6.23-4.06-9.8-4.06Z"/>
  <path class="cls-2" d="M40.49,39.47c-.56,0-.85.69-.44,1.1.13.12.29.18.45.18.33,0,.65-.25.65-.65,0-.35-.28-.63-.63-.63h-.02Z"/>
</svg>