<?xml version="1.0" encoding="UTF-8"?>
<svg id="Layer_1" data-name="Layer 1" xmlns="http://www.w3.org/2000/svg" xmlns:xlink="http://www.w3.org/1999/xlink" viewBox="0 0 58.11 57.23">
  <defs>
    <style>
      .cls-1 {
        fill: url(#radial-gradient);
      }

      .cls-1, .cls-2, .cls-3 {
        fill-rule: evenodd;
      }

      .cls-2 {
        fill: url(#radial-gradient-3);
      }

      .cls-3 {
        fill: url(#radial-gradient-2);
      }
    </style>
    <radialGradient id="radial-gradient" cx="-1062.01" cy="290" fx="-1062.01" fy="290" r="3.37" gradientTransform="translate(3618.98 1010.27) scale(3.37 -3.37)" gradientUnits="userSpaceOnUse">
      <stop offset="0" stop-color="#f3d5ab"/>
      <stop offset="1" stop-color="#dc9b3f"/>
    </radialGradient>
    <radialGradient id="radial-gradient-2" cx="-1028.02" cy="241.73" fx="-1028.02" fy="241.73" r="3.11" gradientTransform="translate(3212.56 771.37) scale(3.11 -3.11)" gradientUnits="userSpaceOnUse">
      <stop offset="0" stop-color="#f3d5ab"/>
      <stop offset="1" stop-color="#dc9b3f"/>
    </radialGradient>
    <radialGradient id="radial-gradient-3" cx="103.06" cy="-1236.3" fx="103.06" fy="-1236.3" r=".95" gradientTransform="translate(-69.05 -1157.59) scale(.95 -.95)" gradientUnits="userSpaceOnUse">
      <stop offset="0" stop-color="#f3d5ab"/>
      <stop offset="1" stop-color="#dc9b3f"/>
    </radialGradient>
  </defs>
  <path class="cls-1" d="M34.56,25.63c.73,0,1.42.57,1.42,1.42,0,.78-.63,1.41-1.41,1.41-1.26,0-1.89-1.52-1-2.41.29-.29.64-.42.99-.42ZM41.66,31.6c.22,0,.45.08.63.27.57.57.17,1.54-.63,1.54-.5,0-.91-.41-.91-.91,0-.54.45-.9.91-.9ZM43.58,38.05c.46,0,.91.36.91.91,0,.48-.41.89-.91.89-.8,0-1.21-.96-.63-1.54.18-.18.4-.26.62-.26ZM31.58,23.93c-.52,0-.94.73-.42,1.15l.98.8c-.95,1.97.64,3.88,2.43,3.88.56,0,1.14-.18,1.67-.61l3.38,2.6c-.52,1.43.52,2.93,2.02,2.95l.74,2.43c-1.89,1.27-.82,4.01,1.17,4.01.21,0,.44-.03.67-.1,1.04-.32,1.69-1.34,1.54-2.39-.17-1.07-1.08-1.87-2.15-1.87l-.72-2.45c1.04-.67,1.32-2.06.61-3.08-.43-.62-1.1-.94-1.79-.94-.45,0-.91.14-1.3.42l-3.36-2.58c.15-.35.22-.72.22-1.1,0-1.6-1.3-2.7-2.69-2.7-.55,0-1.11.17-1.61.55l-.98-.82c-.13-.11-.27-.15-.4-.15Z"/>
  <path class="cls-3" d="M22.78,15.95c.73,0,1.42.57,1.42,1.42,0,.78-.63,1.41-1.41,1.41-1.26,0-1.89-1.52-1-2.41.29-.29.64-.42.99-.42ZM15.08,23.8c.46,0,.9.35.9.89,0,.5-.41.91-.89.91-.8,0-1.21-.97-.65-1.54.19-.18.41-.26.64-.26ZM22.79,14.6c-1.52,0-2.75,1.24-2.71,2.76,0,.48.13.95.37,1.34l-4.3,4.1c-.32-.19-.69-.28-1.06-.28-2.21,0-3.02,2.88-1.15,4.04.38.23.77.34,1.15.34,1.49,0,2.73-1.61,1.95-3.18l4.3-4.08c.43.28.93.42,1.43.42.57,0,1.14-.18,1.63-.55l2.3,1.89c.11.09.26.15.41.15.59,0,.87-.74.41-1.13l-2.3-1.89c.17-.37.26-.76.26-1.17.04-1.52-1.17-2.76-2.69-2.76Z"/>
  <path class="cls-2" d="M29.34,22.12c-.57,0-.85.69-.46,1.1.13.13.29.19.45.19.34,0,.66-.26.66-.65-.02-.35-.3-.63-.65-.63Z"/>
</svg>