<?xml version="1.0" encoding="UTF-8"?>
<svg id="Layer_1" data-name="Layer 1" xmlns="http://www.w3.org/2000/svg" xmlns:xlink="http://www.w3.org/1999/xlink" viewBox="0 0 58.11 57.23">
  <defs>
    <style>
      .cls-1 {
        fill: url(#radial-gradient);
      }

      .cls-1, .cls-2, .cls-3, .cls-4, .cls-5 {
        fill-rule: evenodd;
      }

      .cls-2 {
        fill: url(#radial-gradient-5);
      }

      .cls-3 {
        fill: url(#radial-gradient-4);
      }

      .cls-4 {
        fill: url(#radial-gradient-3);
      }

      .cls-5 {
        fill: url(#radial-gradient-2);
      }
    </style>
    <radialGradient id="radial-gradient" cx="-335.13" cy="-38.91" fx="-335.13" fy="-38.91" r="1.52" gradientTransform="translate(537.88 -32.36) scale(1.52 -1.52)" gradientUnits="userSpaceOnUse">
      <stop offset="0" stop-color="#f3d5ab"/>
      <stop offset="1" stop-color="#dc9b3f"/>
    </radialGradient>
    <radialGradient id="radial-gradient-2" cx="-329.84" cy="-41.41" fx="-329.84" fy="-41.41" r="1.52" gradientTransform="translate(534.57 -36.03) scale(1.52 -1.52)" gradientUnits="userSpaceOnUse">
      <stop offset="0" stop-color="#f3d5ab"/>
      <stop offset="1" stop-color="#dc9b3f"/>
    </radialGradient>
    <radialGradient id="radial-gradient-3" cx="-333.5" cy="-42.14" fx="-333.5" fy="-42.14" r="1.52" gradientTransform="translate(538.49 -31.67) scale(1.52 -1.52)" gradientUnits="userSpaceOnUse">
      <stop offset="0" stop-color="#f3d5ab"/>
      <stop offset="1" stop-color="#dc9b3f"/>
    </radialGradient>
    <radialGradient id="radial-gradient-4" cx="-797.73" cy="750.59" fx="-797.73" fy="750.59" r="4.62" gradientTransform="translate(3713.91 3496.35) scale(4.62 -4.62)" gradientUnits="userSpaceOnUse">
      <stop offset="0" stop-color="#f3d5ab"/>
      <stop offset="1" stop-color="#dc9b3f"/>
    </radialGradient>
    <radialGradient id="radial-gradient-5" cx="80.39" cy="-729.14" fx="80.39" fy="-729.14" r=".95" gradientTransform="translate(-46.67 -681.81) scale(.95 -.95)" gradientUnits="userSpaceOnUse">
      <stop offset="0" stop-color="#f3d5ab"/>
      <stop offset="1" stop-color="#dc9b3f"/>
    </radialGradient>
  </defs>
  <path class="cls-1" d="M25.7,25.99c-.5,0-.94.66-.44,1.13.53.52,1.22.78,1.91.78s1.38-.26,1.91-.78c.26-.26.26-.67,0-.91-.12-.13-.29-.2-.45-.2s-.33.07-.46.2c-.28.28-.64.42-1,.42s-.72-.14-1-.42c-.15-.16-.31-.22-.47-.22Z"/>
  <path class="cls-5" d="M31.51,26c-.5,0-.92.64-.45,1.11.49.49,1.15.78,1.85.78h.13c.68,0,1.36-.29,1.85-.78.45-.47.04-1.11-.46-1.11-.15,0-.31.06-.45.2-.28.28-.64.42-1,.42s-.72-.14-1-.42c-.14-.14-.3-.2-.45-.2Z"/>
  <path class="cls-4" d="M28.6,31.61c-.5,0-.94.66-.45,1.13.53.53,1.22.79,1.92.79s1.39-.26,1.92-.79c.43-.47,0-1.09-.48-1.09-.14,0-.29.05-.43.18-.28.28-.65.42-1.01.42s-.73-.14-1.01-.42c-.14-.15-.3-.22-.46-.22Z"/>
  <path class="cls-3" d="M30.06,18.88c1.71,1.91,4.14,3.01,6.68,3.01.5,0,.98.07,1.47.22.04.32.06.61.06.93,0,.37-.04.74-.07,1.11-.48-.13-.97-.19-1.45-.19-2.43,0-4.71-1.15-6.16-3.1-.13-.18-.33-.26-.52-.26s-.39.09-.52.26c-1.45,1.95-3.73,3.1-6.16,3.1-.48,0-.97.08-1.45.19-.05-.37-.07-.74-.07-1.11v-.02c0-.3.02-.61.06-.91.42-.13.88-.22,1.34-.22.04,0,.09,0,.13,0,2.56,0,4.99-1.1,6.68-3.01ZM37.61,25.32c2.26.43,3.91,2.39,3.91,4.71,0,3.04-2.48,5.51-5.53,5.51-.52,0-1.06-.07-1.56-.22,2.02-1.89,3.17-4.53,3.17-7.29v-2.71ZM22.51,25.32v2.73c0,2.76,1.15,5.4,3.19,7.27-.53.15-1.05.23-1.57.23-2.95,0-5.52-2.39-5.52-5.51,0-2.32,1.63-4.28,3.9-4.71ZM30.06,22.24c.72.81,1.61,1.5,2.58,2.02,1.15.57,2.41.91,3.69.97v2.82c0,3.86-2.56,7.25-6.27,8.31-3.71-1.06-6.25-4.45-6.25-8.31h-.02v-2.82c2.41-.11,4.68-1.19,6.27-2.99ZM18.78,34.24c1.31,1.66,3.29,2.59,5.34,2.59.69,0,1.39-.11,2.08-.33v.67c0,1.47-1.06,2.73-2.48,2.99l-3.4.61c-1.39-.87-2.23-2.39-2.23-4.04h-.02c0-.87.24-1.74.71-2.48ZM41.35,34.24c.46.74.71,1.61.71,2.48-.02,1.65-.85,3.17-2.24,4.04l-3.4-.61c-1.43-.26-2.48-1.52-2.48-2.99v-.67c.69.22,1.39.33,2.08.33,2.04,0,4.02-.93,5.34-2.59ZM32.66,36.65v.54c0,2.08,1.5,3.88,3.54,4.25l3.32.59c1.58.28,2.8,1.52,3.08,3.1h-25.06c.28-1.58,1.5-2.82,3.08-3.1l3.3-.61c2.06-.37,3.56-2.15,3.56-4.25v-.52c.76.45,1.58.78,2.41,1,.06.02.11.03.17.03s.11,0,.17-.03c.85-.22,1.67-.56,2.43-1ZM27.26,13.99c-.08,0-.17.01-.26.05-4.4,1.5-7.05,5.97-6.27,10.55-2.08,1.02-3.4,3.14-3.4,5.43,0,1.06.24,2.1.72,3.04-1.95,2.52-1.58,6.12.82,8.22-1.65.89-2.67,2.6-2.67,4.47,0,.35.28.65.65.65h26.43c.35,0,.63-.3.63-.65,0-1.86-1.02-3.58-2.65-4.47,2.41-2.1,2.76-5.7.83-8.24.46-.95.71-1.99.71-3.04,0-2.3-1.32-4.41-3.4-5.43.09-.52.13-1.04.13-1.56,0-4.06-2.58-7.66-6.42-8.98-.08-.03-.17-.04-.24-.04-.66,0-.93,1.04-.16,1.27,2.5.85,4.45,2.89,5.21,5.44-.39-.08-.78-.11-1.19-.11-2.43,0-4.71-1.15-6.16-3.12-.13-.17-.33-.25-.52-.25s-.38.08-.5.25c-1.45,1.96-3.75,3.12-6.16,3.12-.41,0-.82.04-1.21.11.76-2.54,2.71-4.58,5.23-5.44.76-.23.49-1.27-.17-1.27Z"/>
  <path class="cls-2" d="M30.06,13.54c-.57,0-.85.7-.45,1.1.13.13.29.19.45.19.33,0,.65-.25.65-.64,0-.35-.3-.65-.65-.65Z"/>
</svg>