<?xml version="1.0" encoding="UTF-8"?>
<svg id="Layer_1" data-name="Layer 1" xmlns="http://www.w3.org/2000/svg" xmlns:xlink="http://www.w3.org/1999/xlink" viewBox="0 0 58.11 57.23">
  <defs>
    <style>
      .cls-1 {
        fill: url(#radial-gradient);
      }

      .cls-1, .cls-2 {
        fill-rule: evenodd;
      }

      .cls-2 {
        fill: url(#radial-gradient-2);
      }
    </style>
    <radialGradient id="radial-gradient" cx="-807.32" cy="693.58" fx="-807.32" fy="693.58" r="4.82" gradientTransform="translate(3921.33 3372.48) scale(4.82 -4.82)" gradientUnits="userSpaceOnUse">
      <stop offset="0" stop-color="#f3d5ab"/>
      <stop offset="1" stop-color="#dc9b3f"/>
    </radialGradient>
    <radialGradient id="radial-gradient-2" cx="77.12" cy="-860.36" fx="77.12" fy="-860.36" r=".95" gradientTransform="translate(-47.12 -801.27) scale(.95 -.95)" gradientUnits="userSpaceOnUse">
      <stop offset="0" stop-color="#f3d5ab"/>
      <stop offset="1" stop-color="#dc9b3f"/>
    </radialGradient>
  </defs>
  <path class="cls-1" d="M20.47,14.3c.22,0,.44.08.62.26.56.57.17,1.54-.65,1.54-.48,0-.89-.39-.89-.89,0-.54.45-.9.92-.9ZM15.82,24.31c.22,0,.45.08.64.27.56.56.17,1.54-.63,1.54-.5,0-.91-.41-.91-.91,0-.54.44-.9.9-.9ZM30.6,26.1c.78,0,1.18.97.61,1.52-.18.19-.41.27-.63.27-.46,0-.91-.36-.91-.9,0-.5.41-.89.91-.89h.02ZM22.85,30.98c.47,0,.92.36.9.91,0,.5-.39.91-.89.91v-.02c-.8,0-1.21-.97-.63-1.54.18-.18.4-.26.61-.26ZM30.56,32.01c.73,0,1.42.57,1.42,1.42,0,.78-.63,1.41-1.41,1.41-1.26,0-1.89-1.52-1-2.41.29-.29.64-.42.99-.42ZM37.2,34.52c.46,0,.9.35.9.89,0,.5-.41.91-.91.91-.8,0-1.21-.97-.63-1.54.19-.18.41-.26.64-.26ZM43.71,37.46c.22,0,.45.08.64.27.55.57.14,1.54-.65,1.54h-.02c-.5-.02-.89-.41-.89-.91h.02c0-.54.44-.9.9-.9ZM33.59,39.54c.46,0,.9.36.9.9,0,.5-.41.91-.91.91-.8,0-1.19-.98-.63-1.54.19-.19.41-.27.64-.27ZM38.18,42.22c.8,0,1.2.97.63,1.54-.19.18-.41.26-.63.26-.47,0-.91-.36-.91-.91,0-.48.41-.89.91-.89ZM44.32,42.8c.46,0,.91.36.91.9,0,.5-.41.91-.91.91-.8-.02-1.21-.98-.63-1.54.18-.19.41-.27.63-.27ZM20.46,13.02c-.54,0-1.09.2-1.53.65-1.37,1.37-.41,3.73,1.54,3.73.26,0,.52-.06.76-.15l1.54,2.1c-1.43,1.9.13,4.31,2.14,4.31.42,0,.86-.11,1.3-.34l2.48,2.6c-.69,1.21-.07,2.74,1.26,3.15v1.72c-.8.2-1.45.74-1.8,1.48l-3.12-.61c-.11-1.13-1.06-1.97-2.17-1.97-.39,0-.74.09-1.08.28l-4.01-3.8c.77-1.56-.47-3.16-1.95-3.16-.38,0-.78.1-1.16.34-1.85,1.15-1.04,4.04,1.15,4.04.39,0,.76-.11,1.07-.3l4.01,3.8c-.52,1.08-.09,2.36.97,2.91.32.16.66.24,1,.24.78,0,1.53-.41,1.91-1.15l3.12.63c.07,1.61,1.38,2.57,2.71,2.57.87,0,1.75-.41,2.3-1.33l2.12.65c0,.46.17.93.45,1.3l-1.17,1.65c-.24-.08-.48-.12-.71-.12-1.33,0-2.43,1.23-2.13,2.64.23,1.08,1.17,1.73,2.15,1.73.51,0,1.04-.18,1.47-.58l.98.58c-.26,1.06.3,2.13,1.32,2.52.27.11.54.16.82.16.75,0,1.48-.4,1.87-1.09.95-1.63-.39-3.31-1.91-3.31-.5,0-1.01.18-1.47.6l-.97-.57c.13-.65,0-1.3-.39-1.82l1.17-1.65c.22.09.46.13.7.13.61,0,1.22-.28,1.63-.74l2.69,1.22c-.15,1.15.63,2.21,1.76,2.41l.15,1.21c-2.19.98-1.41,4.17.85,4.17.1,0,.2,0,.3-.02,1.06-.13,1.87-1.02,1.91-2.1s-.72-2.02-1.78-2.21l-.15-1.19c1.28-.57,1.71-2.17.89-3.28-.44-.6-1.11-.9-1.78-.9-.6,0-1.19.24-1.62.73l-2.69-1.22c.18-1.47-1-2.46-2.21-2.46-.66,0-1.33.3-1.78.98l-2.12-.63v-.15c0-1.24-.85-2.32-2.06-2.61v-1.73c1.04-.31,1.69-1.35,1.52-2.41-.17-1.08-1.08-1.87-2.15-1.87-.35.02-.67.09-.97.24l-2.86-3.01c-.13-.13-.3-.19-.47-.19-.15,0-.3.05-.42.16-.3.26-.63.38-.93.38-1.14,0-2.05-1.53-.92-2.51.24-.2.3-.59.09-.85l-1.86-2.54c.26-.37.41-.82.41-1.26,0-1.31-1.08-2.18-2.2-2.18Z"/>
  <path class="cls-2" d="M26.46,18.96c-.57,0-.85.69-.45,1.1.12.13.29.19.44.19.33,0,.65-.26.65-.64s-.3-.65-.65-.65Z"/>
</svg>