<?xml version="1.0" encoding="UTF-8"?>
<svg id="Layer_1" data-name="Layer 1" xmlns="http://www.w3.org/2000/svg" xmlns:xlink="http://www.w3.org/1999/xlink" viewBox="0 0 58.11 57.23">
  <defs>
    <style>
      .cls-1 {
        fill: url(#radial-gradient);
      }

      .cls-1, .cls-2, .cls-3, .cls-4, .cls-5, .cls-6, .cls-7, .cls-8 {
        fill-rule: evenodd;
      }

      .cls-2 {
        fill: url(#radial-gradient-7);
      }

      .cls-3 {
        fill: url(#radial-gradient-5);
      }

      .cls-4 {
        fill: url(#radial-gradient-6);
      }

      .cls-5 {
        fill: url(#radial-gradient-4);
      }

      .cls-6 {
        fill: url(#radial-gradient-8);
      }

      .cls-7 {
        fill: url(#radial-gradient-3);
      }

      .cls-8 {
        fill: url(#radial-gradient-2);
      }
    </style>
    <radialGradient id="radial-gradient" cx="-795.61" cy="598.88" fx="-795.61" fy="598.88" r="4.58" gradientTransform="translate(3670.37 2769.1) scale(4.58 -4.58)" gradientUnits="userSpaceOnUse">
      <stop offset="0" stop-color="#f3d5ab"/>
      <stop offset="1" stop-color="#dc9b3f"/>
    </radialGradient>
    <radialGradient id="radial-gradient-2" cx="-482.67" cy="19.49" fx="-482.67" fy="19.49" r="1.93" gradientTransform="translate(958.01 77.28) scale(1.93 -1.93)" gradientUnits="userSpaceOnUse">
      <stop offset="0" stop-color="#f3d5ab"/>
      <stop offset="1" stop-color="#dc9b3f"/>
    </radialGradient>
    <radialGradient id="radial-gradient-3" cx="-321.53" cy="-280.23" fx="-321.53" fy="-280.23" r="1.49" gradientTransform="translate(502.13 -375.15) scale(1.49 -1.49)" gradientUnits="userSpaceOnUse">
      <stop offset="0" stop-color="#f3d5ab"/>
      <stop offset="1" stop-color="#dc9b3f"/>
    </radialGradient>
    <radialGradient id="radial-gradient-4" cx="-449.43" cy="-37.43" fx="-449.43" fy="-37.43" r="1.83" gradientTransform="translate(853.55 -26.4) scale(1.83 -1.83)" gradientUnits="userSpaceOnUse">
      <stop offset="0" stop-color="#f3d5ab"/>
      <stop offset="1" stop-color="#dc9b3f"/>
    </radialGradient>
    <radialGradient id="radial-gradient-5" cx="-508.67" cy="81.24" fx="-508.67" fy="81.24" r="2.04" gradientTransform="translate(1071.72 190.12) scale(2.04 -2.04)" gradientUnits="userSpaceOnUse">
      <stop offset="0" stop-color="#f3d5ab"/>
      <stop offset="1" stop-color="#dc9b3f"/>
    </radialGradient>
    <radialGradient id="radial-gradient-6" cx="-713.58" cy="452.2" fx="-713.58" fy="452.2" r="3.38" gradientTransform="translate(2445.54 1553.54) scale(3.38 -3.38)" gradientUnits="userSpaceOnUse">
      <stop offset="0" stop-color="#f3d5ab"/>
      <stop offset="1" stop-color="#dc9b3f"/>
    </radialGradient>
    <radialGradient id="radial-gradient-7" cx="-569.56" cy="187.16" fx="-569.56" fy="187.16" r="2.32" gradientTransform="translate(1351.28 467.56) scale(2.32 -2.32)" gradientUnits="userSpaceOnUse">
      <stop offset="0" stop-color="#f3d5ab"/>
      <stop offset="1" stop-color="#dc9b3f"/>
    </radialGradient>
    <radialGradient id="radial-gradient-8" cx="94.33" cy="-990.64" fx="94.33" fy="-990.64" r=".95" gradientTransform="translate(-47.56 -920.68) scale(.95 -.95)" gradientUnits="userSpaceOnUse">
      <stop offset="0" stop-color="#f3d5ab"/>
      <stop offset="1" stop-color="#dc9b3f"/>
    </radialGradient>
  </defs>
  <path class="cls-1" d="M20.95,13.86v22.58c-.98.13-1.87.59-2.56,1.3v-20.74c0-1.52,1.06-2.84,2.56-3.14ZM36.03,37.66l3.14.02v3.53l-1.34-.54c-.08-.02-.15-.04-.22-.04-.09,0-.17.02-.24.04l-1.34.54v-3.54ZM41.75,37.66v6.43h-20.15c-1.75-.05-3.14-1.48-3.14-3.23s1.39-3.15,3.14-3.21h13.13v1.3h-3.73c-.87,0-.87,1.28,0,1.28h3.73v1.91c0,.38.31.66.65.66.08,0,.16-.02.24-.05l1.96-.81,1.97.81c.08.02.17.04.24.04.35,0,.65-.28.65-.63v-4.51h1.3ZM21.6,12.5c-2.49,0-4.49,2.02-4.51,4.49v23.89c.02,2.47,2.02,4.49,4.51,4.49h20.79c.35,0,.63-.3.63-.65v-17.77c0-.35-.28-.65-.63-.65s-.65.3-.65.65v9.42h-19.51V13.78h19.51v7.38c-.03.45.31.68.64.68s.67-.23.64-.68v-8.01c0-.35-.28-.65-.63-.65h-20.79Z"/>
  <path class="cls-8" d="M21.84,38.96c-.85,0-.85,1.28,0,1.28h6.08c.86,0,.86-1.28,0-1.28h-6.08Z"/>
  <path class="cls-7" d="M21.84,41.52c-.85,0-.85,1.28,0,1.28h2.97c.85,0,.85-1.28,0-1.28h-2.97Z"/>
  <path class="cls-5" d="M27.78,41.52c-.85,0-.85,1.28,0,1.28h5.31c.85,0,.85-1.28,0-1.28h-5.31Z"/>
  <path class="cls-3" d="M31.97,22.39c.86,0,1.69.67,1.69,1.67-.02.93-.76,1.67-1.69,1.67-1.48,0-2.23-1.8-1.17-2.86.34-.33.76-.49,1.17-.49ZM31.97,21.11c-2.61,0-3.93,3.17-2.08,5.03.6.61,1.34.88,2.07.88,1.52,0,2.97-1.18,2.97-2.96,0-1.63-1.34-2.95-2.97-2.95Z"/>
  <path class="cls-4" d="M31.34,17.29v1.3c-.52.06-1.04.19-1.54.41l-.65-1.11c.7-.33,1.43-.52,2.19-.59ZM32.62,17.29c.76.08,1.5.26,2.19.59l-.63,1.11c-.5-.22-1.02-.35-1.56-.43v-1.28ZM35.92,18.51c.63.45,1.17.98,1.61,1.61l-1.11.63c-.33-.43-.7-.8-1.13-1.11l.63-1.13ZM28.05,18.51l.63,1.13c-.43.32-.8.69-1.13,1.13l-1.11-.65c.45-.63.98-1.17,1.61-1.61ZM25.79,21.22l1.11.65c-.2.5-.35,1.02-.41,1.54h-1.3c.07-.76.28-1.48.59-2.19ZM38.17,21.24c.32.69.52,1.43.59,2.19h-1.3c-.05-.54-.2-1.06-.41-1.56l1.11-.63ZM26.5,24.71c.06.52.2,1.04.41,1.54l-1.11.65c-.32-.71-.52-1.45-.59-2.19h1.3ZM38.76,24.71c-.08.76-.26,1.48-.57,2.19l-1.13-.65c.22-.5.35-1.02.41-1.54h1.3ZM31.95,19.81c2.18,0,4.27,1.68,4.27,4.25,0,2.34-1.89,4.23-4.25,4.23-3.77,0-5.66-4.56-2.99-7.23.86-.86,1.92-1.24,2.97-1.24ZM27.55,27.36c.33.43.7.8,1.13,1.13l-.63,1.11c-.63-.45-1.17-.98-1.61-1.6l1.11-.65ZM36.42,27.36l1.11.65c-.45.61-.98,1.15-1.61,1.6l-.63-1.11c.43-.33.8-.7,1.13-1.13ZM29.8,29.12c.48.22,1,.35,1.54.41v1.3c-.76-.07-1.5-.26-2.19-.59l.65-1.11ZM34.16,29.12l.65,1.11c-.69.33-1.43.52-2.19.59v-1.3c.54-.06,1.06-.19,1.54-.41ZM31.98,15.97c-2.11,0-4.17.82-5.72,2.37-2.3,2.3-3.01,5.79-1.75,8.81,1.24,3.02,4.19,4.99,7.48,4.99,4.45,0,8.07-3.62,8.09-8.09-.02-3.26-1.99-6.22-5.01-7.48-1-.41-2.05-.61-3.09-.61Z"/>
  <path class="cls-2" d="M27.26,33.39c-.8.06-.8,1.24,0,1.3h9.44c.82-.05.82-1.24,0-1.3h-9.44Z"/>
  <path class="cls-6" d="M42.39,23.41c-.57,0-.85.69-.45,1.1.12.13.28.19.44.19.33,0,.66-.26.66-.65,0-.35-.3-.63-.65-.63Z"/>
</svg>