<?xml version="1.0" encoding="UTF-8"?>
<svg id="Layer_1" data-name="Layer 1" xmlns="http://www.w3.org/2000/svg" xmlns:xlink="http://www.w3.org/1999/xlink" viewBox="0 0 58.11 57.23">
  <defs>
    <style>
      .cls-1 {
        fill: url(#radial-gradient);
      }

      .cls-1, .cls-2 {
        fill-rule: evenodd;
      }

      .cls-2 {
        fill: url(#radial-gradient-2);
      }
    </style>
    <radialGradient id="radial-gradient" cx="-807.35" cy="473.42" fx="-807.35" fy="473.42" r="4.82" gradientTransform="translate(3921.96 2310.06) scale(4.82 -4.82)" gradientUnits="userSpaceOnUse">
      <stop offset="0" stop-color="#f3d5ab"/>
      <stop offset="1" stop-color="#dc9b3f"/>
    </radialGradient>
    <radialGradient id="radial-gradient-2" cx="74.68" cy="-1241.16" fx="74.68" fy="-1241.16" r=".95" gradientTransform="translate(-48.45 -1159.34) scale(.95 -.95)" gradientUnits="userSpaceOnUse">
      <stop offset="0" stop-color="#f3d5ab"/>
      <stop offset="1" stop-color="#dc9b3f"/>
    </radialGradient>
  </defs>
  <path class="cls-1" d="M31.47,12.75c.8,0,1.2.97.63,1.54-.18.18-.41.26-.63.26-.46,0-.91-.35-.91-.89,0-.5.41-.91.91-.91ZM41.58,12.75c.8,0,1.21.97.63,1.54-.18.18-.41.26-.63.26-.46,0-.91-.35-.91-.89,0-.5.41-.91.91-.91ZM36.05,16.53c.5,0,.91.41.91.89-.01.55-.46.91-.92.91-.22,0-.44-.08-.62-.26-.57-.57-.17-1.54.63-1.54ZM24.92,16.02c.35,0,.7.13.99.42.89.89.26,2.39-.98,2.39-.78,0-1.43-.63-1.41-1.41,0-.84.69-1.4,1.41-1.4ZM44.31,20.63c.46,0,.9.36.9.91,0,.48-.41.89-.89.89-.8,0-1.21-.96-.63-1.54.18-.18.4-.26.62-.26ZM31.46,23.72c.73,0,1.42.56,1.42,1.4,0,.78-.63,1.41-1.41,1.41-1.26,0-1.89-1.5-1-2.39.29-.29.64-.42.99-.42ZM39.64,24.74c.46,0,.9.36.92.9,0,.5-.41.89-.91.89h-.02c-.78,0-1.18-.97-.61-1.52.18-.19.4-.27.62-.27ZM20.49,27.58c.73,0,1.43.57,1.43,1.42,0,.78-.63,1.41-1.41,1.41-1.26,0-1.89-1.52-1-2.41.29-.29.64-.42.99-.42ZM27.14,32.25c.22,0,.44.08.62.27.58.56.17,1.52-.63,1.52-.5,0-.89-.39-.89-.89,0-.54.44-.9.9-.9ZM16.9,34.74c.46,0,.91.36.91.9,0,.5-.41.89-.91.91-.8,0-1.21-.98-.63-1.54.18-.19.41-.27.63-.27ZM29.41,38.62c.5,0,.91.41.91.89-.01.54-.46.9-.92.9-.22,0-.44-.08-.62-.27-.58-.56-.17-1.52.63-1.52ZM15.8,41.25c.46,0,.9.36.9.9,0,.48-.39.89-.89.89-.8,0-1.21-.97-.63-1.52.18-.19.4-.27.62-.27ZM41.63,11.46c-1.33,0-2.63,1.23-2.12,2.83l-2.08,1.43c-.4-.32-.87-.48-1.35-.48-.42,0-.84.12-1.21.37l-1.37-1.13c.11-.26.17-.56.17-.83,0-1.21-.97-2.17-2.17-2.17s-2.19.96-2.19,2.17c0,.17.02.33.06.5l-2.47,1.45c-.53-.57-1.25-.86-1.97-.86s-1.5.31-2.04.93c-1.06,1.21-.81,3.06.52,3.99l-.26.65c-.2.51.21.88.62.88.24,0,.47-.12.58-.41l.24-.65c.11,0,.22.02.33.02.43,0,.84-.11,1.21-.3l3.17,3.71c-.8,1.11-.65,2.65.37,3.58l-2.1,3.88c-.14-.03-.28-.04-.42-.04-.53,0-1.04.19-1.43.54l-2.63-1.67c.37-1.13-.06-2.37-1.04-3.06l.24-.61c.19-.51-.22-.88-.63-.88-.23,0-.46.12-.58.41l-.24.61c-.11-.02-.2-.02-.32-.02-2.47,0-3.64,3.04-1.82,4.69l-1.35,2.5c-.15-.03-.3-.04-.44-.04-.91,0-1.74.58-2.04,1.47-.35,1.04.09,2.17,1.08,2.65l-.41,2.39c-2.48.33-2.56,3.9-.07,4.32.12.02.25.03.37.03.92,0,1.76-.6,2.06-1.5.33-1.02-.13-2.15-1.1-2.63l.41-2.39c1.78-.24,2.54-2.41,1.28-3.69l1.35-2.5c.22.05.45.09.69.09.69,0,1.37-.28,1.87-.76l2.64,1.65c-.06.19-.08.37-.08.56,0,1.21.98,2.19,2.19,2.19h.09l.87,2.45c-1.77,1.32-.66,3.93,1.26,3.93.24,0,.49-.04.74-.12,1.02-.33,1.63-1.35,1.47-2.41s-1.1-1.84-2.15-1.84h-.11l-.87-2.45c1.06-.78,1.17-2.34.24-3.27l2.12-3.89c.22.05.45.09.67.09,1.19,0,2.23-.76,2.58-1.89l3.49.22c.24,1.01,1.14,1.67,2.12,1.67.23,0,.47-.04.7-.11,1.22-.43,1.82-1.8,1.28-2.97l1.54-1.35c.36.22.75.33,1.14.33.93,0,1.83-.6,2.11-1.59.39-1.39-.65-2.78-2.1-2.78v.02c-1.59,0-2.65,1.63-2,3.08l-1.54,1.35c-.33-.22-.72-.33-1.13-.33-.91,0-1.73.57-2.04,1.41l-3.49-.22c-.24-1.34-1.39-2.22-2.64-2.22-.41,0-.82.09-1.22.29l-3.15-3.71c.46-.67.63-1.5.41-2.3l2.48-1.45c.42.37.94.57,1.47.57.42,0,.83-.12,1.2-.36l1.37,1.13c-.57,1.41.41,2.95,1.93,3.01.04,0,.08,0,.11,0,1.45,0,2.49-1.41,2.06-2.82l2.1-1.43c.43.34.89.49,1.34.49,1.56,0,2.89-1.83,1.8-3.42-.46-.67-1.11-.96-1.75-.96Z"/>
  <path class="cls-2" d="M22.71,22.6c-.57,0-.87.69-.46,1.1.13.13.29.19.45.19.33,0,.65-.26.65-.65,0-.35-.28-.63-.63-.63Z"/>
</svg>