<?xml version="1.0" encoding="UTF-8"?>
<!-- Generated by Pixelmator Pro 3.6.14 -->
<svg width="869" height="527" viewBox="0 0 869 527" xmlns="http://www.w3.org/2000/svg">
    <g id="Canvas1">
        <g id="Canvas1-Layer-1">
            <g id="Graphic724">
                <path id="Path" fill="#3b4695" stroke="none" d="M 549.750122 59.5 C 549.750122 91.946777 523.89447 118.250122 492 118.250122 C 460.105499 118.250122 434.249908 91.946777 434.249908 59.5 C 434.249908 27.053223 460.105499 0.749878 492 0.749878 C 523.89447 0.749878 549.750122 27.053223 549.750122 59.5 Z"/>
                <filter id="filter1" x="0" y="0" width="869" height="527" filterUnits="userSpaceOnUse" primitiveUnits="userSpaceOnUse" color-interpolation-filters="sRGB">
                    <feGaussianBlur stdDeviation="0"/>
                    <feOffset dx="-0" dy="1" result="offsetblur"/>
                    <feFlood flood-color="#20204b" flood-opacity="1"/>
                    <feComposite in2="offsetblur" operator="in"/>
                    <feMerge>
                        <feMergeNode/>
                        <feMergeNode in="SourceGraphic"/>
                    </feMerge>
                </filter>
                <text id="All-Data" filter="url(#filter1)" xml:space="preserve" x="463" y="67" font-family="Helvetica Neue" font-size="16" fill="#ffffff">All Data</text>
            </g>
            <g id="Graphic723">
                <path id="path1" fill="#ebb671" stroke="none" d="M 428.25 171.25 L 486.502167 211.845306 L 464.251892 277.529694 L 392.248108 277.529694 L 369.997803 211.845306 Z"/>
                <filter id="filter2" x="0" y="0" width="869" height="527" filterUnits="userSpaceOnUse" primitiveUnits="userSpaceOnUse" color-interpolation-filters="sRGB">
                    <feGaussianBlur stdDeviation="0"/>
                    <feOffset dx="-0.66588" dy="0.746059" result="offsetblur"/>
                    <feFlood flood-color="#20204b" flood-opacity="1"/>
                    <feComposite in2="offsetblur" operator="in"/>
                    <feMerge>
                        <feMergeNode/>
                        <feMergeNode in="SourceGraphic"/>
                    </feMerge>
                </filter>
                <text id="Training" filter="url(#filter2)" xml:space="preserve" x="399" y="244" font-family="Helvetica Neue" font-size="16" fill="#ffffff">Training</text>
            </g>
            <g id="Graphic722">
                <path id="path2" fill="#d473c0" stroke="none" d="M 742.75 171.25 L 801.002197 211.845306 L 778.751892 277.529694 L 706.748108 277.529694 L 684.497803 211.845306 Z"/>
                <filter id="filter3" x="0" y="0" width="869" height="527" filterUnits="userSpaceOnUse" primitiveUnits="userSpaceOnUse" color-interpolation-filters="sRGB">
                    <feGaussianBlur stdDeviation="0"/>
                    <feOffset dx="-0" dy="1" result="offsetblur"/>
                    <feFlood flood-color="#20204b" flood-opacity="1"/>
                    <feComposite in2="offsetblur" operator="in"/>
                    <feMerge>
                        <feMergeNode/>
                        <feMergeNode in="SourceGraphic"/>
                    </feMerge>
                </filter>
                <text id="Testing" filter="url(#filter3)" xml:space="preserve" x="716" y="244" font-family="Helvetica Neue" font-size="16" fill="#ffffff">Testing</text>
            </g>
            <g id="Line721">
                <path id="path3" fill="#ebb671" stroke="#ebb671" stroke-linecap="round" stroke-linejoin="round" d="M 470.856812 114.186951 L 448.004456 173.294861"/>
            </g>
            <g id="Line720">
                <path id="path4" fill="#ebb671" stroke="#ebb671" stroke-linecap="round" stroke-linejoin="round" d="M 540.509888 91.399475 L 695.245422 193.151489"/>
            </g>
            <g id="Graphic719">
                <path id="path5" fill="#d473c0" stroke="none" d="M 261.500092 486 C 261.500092 505.60614 234.077484 521.500061 200.25 521.500061 C 166.422516 521.500061 138.999908 505.60614 138.999908 486 C 138.999908 466.39386 166.422516 450.499939 200.25 450.499939 C 234.077484 450.499939 261.500092 466.39386 261.500092 486 Z"/>
                <filter id="filter4" x="0" y="0" width="869" height="527" filterUnits="userSpaceOnUse" primitiveUnits="userSpaceOnUse" color-interpolation-filters="sRGB">
                    <feGaussianBlur stdDeviation="0"/>
                    <feOffset dx="-0" dy="1" result="offsetblur"/>
                    <feFlood flood-color="#20204b" flood-opacity="1"/>
                    <feComposite in2="offsetblur" operator="in"/>
                    <feMerge>
                        <feMergeNode/>
                        <feMergeNode in="SourceGraphic"/>
                    </feMerge>
                </filter>
                <text id="Assessment" filter="url(#filter4)" xml:space="preserve" x="156" y="494" font-family="Helvetica Neue" font-size="16" fill="#ffffff">Assessment</text>
            </g>
            <g id="Graphic718">
                <path id="path6" fill="#ebb671" stroke="none" d="M 131.500092 486 C 131.500092 505.60614 102.846283 521.500061 67.5 521.500061 C 32.153717 521.500061 3.499878 505.60614 3.499878 486 C 3.499878 466.39386 32.153717 450.499939 67.5 450.499939 C 102.846283 450.499939 131.500092 466.39386 131.500092 486 Z"/>
                <filter id="filter5" x="0" y="0" width="869" height="527" filterUnits="userSpaceOnUse" primitiveUnits="userSpaceOnUse" color-interpolation-filters="sRGB">
                    <feGaussianBlur stdDeviation="0"/>
                    <feOffset dx="-0" dy="1" result="offsetblur"/>
                    <feFlood flood-color="#20204b" flood-opacity="1"/>
                    <feComposite in2="offsetblur" operator="in"/>
                    <feMerge>
                        <feMergeNode/>
                        <feMergeNode in="SourceGraphic"/>
                    </feMerge>
                </filter>
                <text id="Analysis" filter="url(#filter5)" xml:space="preserve" x="37" y="494" font-family="Helvetica Neue" font-size="16" fill="#ffffff">Analysis</text>
            </g>
            <g id="Graphic717">
                <path id="path7" fill="#3b4695" stroke="none" d="M 65.75 341.75 L 204.75 341.75 L 204.75 398.25 L 65.75 398.25 Z"/>
                <filter id="filter6" x="0" y="0" width="869" height="527" filterUnits="userSpaceOnUse" primitiveUnits="userSpaceOnUse" color-interpolation-filters="sRGB">
                    <feGaussianBlur stdDeviation="0"/>
                    <feOffset dx="-0" dy="1" result="offsetblur"/>
                    <feFlood flood-color="#20204b" flood-opacity="1"/>
                    <feComposite in2="offsetblur" operator="in"/>
                    <feMerge>
                        <feMergeNode/>
                        <feMergeNode in="SourceGraphic"/>
                    </feMerge>
                </filter>
                <text id="Resample-1" filter="url(#filter6)" xml:space="preserve" x="92" y="378" font-family="Helvetica Neue" font-size="16" fill="#ffffff">Resample 1</text>
            </g>
            <g id="Line716">
                <path id="path8" fill="#ebb671" stroke="#ebb671" stroke-linecap="round" stroke-linejoin="round" d="M 382.028381 247.360291 L 200.960846 337.344147"/>
            </g>
            <g id="Line715">
                <path id="path9" fill="#ebb671" stroke="#ebb671" stroke-linecap="round" stroke-linejoin="round" d="M 118.750549 398.25 L 92.221649 443.67215"/>
            </g>
            <g id="Line714">
                <path id="path10" fill="#ebb671" stroke="#ebb671" stroke-linecap="round" stroke-linejoin="round" d="M 151.079742 398.25 L 176.487061 443.592285"/>
            </g>
            <g id="Graphic713">
                <path id="path11" fill="#d473c0" stroke="none" d="M 562.250122 486 C 562.250122 505.60614 533.596252 521.500061 498.25 521.500061 C 462.903717 521.500061 434.249908 505.60614 434.249908 486 C 434.249908 466.39386 462.903717 450.499939 498.25 450.499939 C 533.596252 450.499939 562.250122 466.39386 562.250122 486 Z"/>
                <filter id="filter7" x="0" y="0" width="869" height="527" filterUnits="userSpaceOnUse" primitiveUnits="userSpaceOnUse" color-interpolation-filters="sRGB">
                    <feGaussianBlur stdDeviation="0"/>
                    <feOffset dx="-0" dy="1" result="offsetblur"/>
                    <feFlood flood-color="#20204b" flood-opacity="1"/>
                    <feComposite in2="offsetblur" operator="in"/>
                    <feMerge>
                        <feMergeNode/>
                        <feMergeNode in="SourceGraphic"/>
                    </feMerge>
                </filter>
                <text id="text1" filter="url(#filter7)" xml:space="preserve" x="454" y="494" font-family="Helvetica Neue" font-size="16" fill="#ffffff">Assessment</text>
            </g>
            <g id="Graphic712">
                <path id="path12" fill="#ebb671" stroke="none" d="M 426.750092 486 C 426.750092 505.60614 398.096283 521.500061 362.75 521.500061 C 327.403717 521.500061 298.749878 505.60614 298.749878 486 C 298.749878 466.39386 327.403717 450.499939 362.75 450.499939 C 398.096283 450.499939 426.750092 466.39386 426.750092 486 Z"/>
                <filter id="filter8" x="0" y="0" width="869" height="527" filterUnits="userSpaceOnUse" primitiveUnits="userSpaceOnUse" color-interpolation-filters="sRGB">
                    <feGaussianBlur stdDeviation="0"/>
                    <feOffset dx="-0" dy="1" result="offsetblur"/>
                    <feFlood flood-color="#20204b" flood-opacity="1"/>
                    <feComposite in2="offsetblur" operator="in"/>
                    <feMerge>
                        <feMergeNode/>
                        <feMergeNode in="SourceGraphic"/>
                    </feMerge>
                </filter>
                <text id="text2" filter="url(#filter8)" xml:space="preserve" x="332" y="494" font-family="Helvetica Neue" font-size="16" fill="#ffffff">Analysis</text>
            </g>
            <g id="Graphic711">
                <path id="path13" fill="#3b4695" stroke="none" d="M 361 341.75 L 500 341.75 L 500 398.25 L 361 398.25 Z"/>
                <filter id="filter9" x="0" y="0" width="869" height="527" filterUnits="userSpaceOnUse" primitiveUnits="userSpaceOnUse" color-interpolation-filters="sRGB">
                    <feGaussianBlur stdDeviation="0"/>
                    <feOffset dx="-0" dy="1" result="offsetblur"/>
                    <feFlood flood-color="#20204b" flood-opacity="1"/>
                    <feComposite in2="offsetblur" operator="in"/>
                    <feMerge>
                        <feMergeNode/>
                        <feMergeNode in="SourceGraphic"/>
                    </feMerge>
                </filter>
                <text id="Resample-2" filter="url(#filter9)" xml:space="preserve" x="387" y="378" font-family="Helvetica Neue" font-size="16" fill="#ffffff">Resample 2</text>
            </g>
            <g id="Line710">
                <path id="path14" fill="#ebb671" stroke="#ebb671" stroke-linecap="round" stroke-linejoin="round" d="M 429.071136 277.529694 L 429.910522 331.851196"/>
            </g>
            <g id="Line709">
                <path id="path15" fill="#ebb671" stroke="#ebb671" stroke-linecap="round" stroke-linejoin="round" d="M 414.000549 398.25 L 387.47168 443.67215"/>
            </g>
            <g id="Line708">
                <path id="path16" fill="#ebb671" stroke="#ebb671" stroke-linecap="round" stroke-linejoin="round" d="M 446.999451 398.25 L 473.528351 443.67215"/>
            </g>
            <g id="Graphic707">
                <path id="path17" fill="#d473c0" stroke="none" d="M 866.250122 486 C 866.250122 505.60614 837.596313 521.500061 802.25 521.500061 C 766.903687 521.500061 738.249878 505.60614 738.249878 486 C 738.249878 466.39386 766.903687 450.499939 802.25 450.499939 C 837.596313 450.499939 866.250122 466.39386 866.250122 486 Z"/>
                <filter id="filter10" x="0" y="0" width="869" height="527" filterUnits="userSpaceOnUse" primitiveUnits="userSpaceOnUse" color-interpolation-filters="sRGB">
                    <feGaussianBlur stdDeviation="0"/>
                    <feOffset dx="-0" dy="1" result="offsetblur"/>
                    <feFlood flood-color="#20204b" flood-opacity="1"/>
                    <feComposite in2="offsetblur" operator="in"/>
                    <feMerge>
                        <feMergeNode/>
                        <feMergeNode in="SourceGraphic"/>
                    </feMerge>
                </filter>
                <text id="text3" filter="url(#filter10)" xml:space="preserve" x="758" y="494" font-family="Helvetica Neue" font-size="16" fill="#ffffff">Assessment</text>
            </g>
            <g id="Graphic706">
                <path id="path18" fill="#ebb671" stroke="none" d="M 730.750122 486 C 730.750122 505.60614 702.096313 521.500061 666.75 521.500061 C 631.403687 521.500061 602.749878 505.60614 602.749878 486 C 602.749878 466.39386 631.403687 450.499939 666.75 450.499939 C 702.096313 450.499939 730.750122 466.39386 730.750122 486 Z"/>
                <filter id="filter11" x="0" y="0" width="869" height="527" filterUnits="userSpaceOnUse" primitiveUnits="userSpaceOnUse" color-interpolation-filters="sRGB">
                    <feGaussianBlur stdDeviation="0"/>
                    <feOffset dx="-0" dy="1" result="offsetblur"/>
                    <feFlood flood-color="#20204b" flood-opacity="1"/>
                    <feComposite in2="offsetblur" operator="in"/>
                    <feMerge>
                        <feMergeNode/>
                        <feMergeNode in="SourceGraphic"/>
                    </feMerge>
                </filter>
                <text id="text4" filter="url(#filter11)" xml:space="preserve" x="636" y="494" font-family="Helvetica Neue" font-size="16" fill="#ffffff">Analysis</text>
            </g>
            <g id="Graphic705">
                <path id="path19" fill="#3b4695" stroke="none" d="M 665 341.75 L 804 341.75 L 804 398.25 L 665 398.25 Z"/>
                <text id="B" xml:space="preserve" x="763" y="378" font-family="Helvetica Neue" font-size="16" font-style="italic" fill="#ffffff">B</text>
                <filter id="filter12" x="0" y="0" width="869" height="527" filterUnits="userSpaceOnUse" primitiveUnits="userSpaceOnUse" color-interpolation-filters="sRGB">
                    <feGaussianBlur stdDeviation="0"/>
                    <feOffset dx="-0" dy="1" result="offsetblur"/>
                    <feFlood flood-color="#20204b" flood-opacity="1"/>
                    <feComposite in2="offsetblur" operator="in"/>
                    <feMerge>
                        <feMergeNode/>
                        <feMergeNode in="SourceGraphic"/>
                    </feMerge>
                </filter>
                <text id="Resample-" filter="url(#filter12)" xml:space="preserve" x="690" y="378" font-family="Helvetica Neue" font-size="16" fill="#ffffff">Resample</text>
            </g>
            <g id="Line704">
                <path id="path20" fill="#ebb671" stroke="#ebb671" stroke-linecap="round" stroke-linejoin="round" d="M 474.761597 246.504333 L 666.14325 337.498962"/>
            </g>
            <g id="Line703">
                <path id="path21" fill="#ebb671" stroke="#ebb671" stroke-linecap="round" stroke-linejoin="round" d="M 718.000549 398.25 L 691.47168 443.67215"/>
            </g>
            <g id="Line702">
                <path id="path22" fill="#ebb671" stroke="#ebb671" stroke-linecap="round" stroke-linejoin="round" d="M 750.999451 398.25 L 777.52832 443.67215"/>
            </g>
            <g id="Group698">
                <g id="Graphic701">
                    <path id="path23" fill="#ebb671" stroke="none" d="M 564.5 370 C 564.5 372.209137 562.373352 374 559.75 374 C 557.126648 374 555 372.209137 555 370 C 555 367.790863 557.126648 366 559.75 366 C 562.373352 366 564.5 367.790863 564.5 370 Z"/>
                </g>
                <g id="Graphic700">
                    <path id="path24" fill="#ebb671" stroke="none" d="M 583 370 C 583 372.209137 580.873352 374 578.25 374 C 575.626648 374 573.5 372.209137 573.5 370 C 573.5 367.790863 575.626648 366 578.25 366 C 580.873352 366 583 367.790863 583 370 Z"/>
                </g>
                <g id="Graphic699">
                    <path id="path25" fill="#ebb671" stroke="none" d="M 601.5 370 C 601.5 372.209137 599.373352 374 596.75 374 C 594.126648 374 592 372.209137 592 370 C 592 367.790863 594.126648 366 596.75 366 C 599.373352 366 601.5 367.790863 601.5 370 Z"/>
                </g>
            </g>
        </g>
    </g>
</svg>
