<?xml version="1.0" encoding="UTF-8"?>
<!-- Generated by Pixelmator Pro 3.6.14 -->
<svg width="432" height="141" viewBox="0 0 432 141" xmlns="http://www.w3.org/2000/svg">
    <g id="Canvas1">
        <g id="Canvas1Layer1">
            <g id="Group853">
                <g id="Graphic883">
                    <path id="Path" fill="none" stroke="#808080" stroke-linecap="round" stroke-linejoin="round" d="M 35.833328 56.5 L 50.166672 56.5 C 54.032654 56.5 57.166672 59.634003 57.166672 63.5 L 57.166672 77.5 C 57.166672 81.365997 54.032654 84.5 50.166672 84.5 L 35.833328 84.5 C 31.967346 84.5 28.833328 81.365997 28.833328 77.5 L 28.833328 63.5 C 28.833328 59.634003 31.967346 56.5 35.833328 56.5 Z"/>
                    <text id="14" transform="matrix(0.999848 0.017452 -0.017452 0.999848 1.22837 -0.757245)" xml:space="preserve" x="34" y="77" font-family="Helvetica Neue" font-size="14" fill="#ffffff">14</text>
                </g>
                <g id="Graphic882">
                    <path id="path1" fill="none" stroke="#808080" stroke-linecap="round" stroke-linejoin="round" d="M 149.166672 56.5 L 163.5 56.5 C 167.365997 56.5 170.5 59.634003 170.5 63.5 L 170.5 77.5 C 170.5 81.365997 167.365997 84.5 163.5 84.5 L 149.166672 84.5 C 145.300659 84.5 142.166672 81.365997 142.166672 77.5 L 142.166672 63.5 C 142.166672 59.634003 145.300659 56.5 149.166672 56.5 Z"/>
                    <text id="18" transform="matrix(0.999848 0.017452 -0.017452 0.999848 1.245733 -2.746819)" xml:space="preserve" x="148" y="77" font-family="Helvetica Neue" font-size="14" fill="#ffffff">18</text>
                </g>
                <g id="Graphic881">
                    <path id="path2" fill="none" stroke="#808080" stroke-linecap="round" stroke-linejoin="round" d="M 92.5 112.5 L 106.833328 112.5 C 110.699326 112.5 113.833328 115.634003 113.833328 119.5 L 113.833328 133.5 C 113.833328 137.365997 110.699326 140.5 106.833328 140.5 L 92.5 140.5 C 88.634003 140.5 85.5 137.365997 85.5 133.5 L 85.5 119.5 C 85.5 115.634003 88.634003 112.5 92.5 112.5 Z"/>
                    <text id="28" transform="matrix(0.999848 0.017452 -0.017452 0.999848 2.214386 -1.743503)" xml:space="preserve" x="91" y="133" font-family="Helvetica Neue" font-size="14" fill="#ffffff">28</text>
                </g>
                <g id="Graphic880">
                    <path id="path3" fill="none" stroke="#808080" stroke-linecap="round" stroke-linejoin="round" d="M 120.833328 56.5 L 135.166672 56.5 C 139.032654 56.5 142.166672 59.634003 142.166672 63.5 L 142.166672 77.5 C 142.166672 81.365997 139.032654 84.5 135.166672 84.5 L 120.833328 84.5 C 116.967346 84.5 113.833328 81.365997 113.833328 77.5 L 113.833328 63.5 C 113.833328 59.634003 116.967346 56.5 120.833328 56.5 Z"/>
                    <text id="17" transform="matrix(0.999848 0.017452 -0.017452 0.999848 1.241316 -2.240699)" xml:space="preserve" x="119" y="77" font-family="Helvetica Neue" font-size="14" fill="#ffffff">17</text>
                </g>
                <g id="Graphic879">
                    <path id="path4" fill="none" stroke="#808080" stroke-linecap="round" stroke-linejoin="round" d="M 64.166672 84.5 L 78.5 84.5 C 82.365997 84.5 85.5 87.634003 85.5 91.5 L 85.5 105.5 C 85.5 109.365997 82.365997 112.5 78.5 112.5 L 64.166672 112.5 C 60.300674 112.5 57.166672 109.365997 57.166672 105.5 L 57.166672 91.5 C 57.166672 87.634003 60.300674 84.5 64.166672 84.5 Z"/>
                    <text id="21" transform="matrix(0.999848 0.017452 -0.017452 0.999848 1.721454 -1.2591)" xml:space="preserve" x="63" y="105" font-family="Helvetica Neue" font-size="14" fill="#ffffff">21</text>
                </g>
                <g id="Graphic878">
                    <path id="path5" fill="none" stroke="#808080" stroke-linecap="round" stroke-linejoin="round" d="M 7.5 112.5 L 21.833328 112.5 C 25.699326 112.5 28.833328 115.634003 28.833328 119.5 L 28.833328 133.5 C 28.833328 137.365997 25.699326 140.5 21.833328 140.5 L 7.5 140.5 C 3.634003 140.5 0.5 137.365997 0.5 133.5 L 0.5 119.5 C 0.5 115.634003 3.634003 112.5 7.5 112.5 Z"/>
                    <text id="25" stroke="#ffffff" stroke-width="1.3" stroke-linecap="round" stroke-linejoin="round" transform="matrix(0.999848 0.017452 -0.017452 0.999848 2.20144 -0.260048)" xml:space="preserve" x="6" y="133" font-family="Helvetica Neue" font-size="14" fill="#000000">25</text>
                </g>
                <g id="Graphic877">
                    <path id="path6" fill="none" stroke="#808080" stroke-linecap="round" stroke-linejoin="round" d="M 92.5 84.5 L 106.833328 84.5 C 110.699326 84.5 113.833328 87.634003 113.833328 91.5 L 113.833328 105.5 C 113.833328 109.365997 110.699326 112.5 106.833328 112.5 L 92.5 112.5 C 88.634003 112.5 85.5 109.365997 85.5 105.5 L 85.5 91.5 C 85.5 87.634003 88.634003 84.5 92.5 84.5 Z"/>
                    <text id="22" transform="matrix(0.999848 0.017452 -0.017452 0.999848 1.725719 -1.747767)" xml:space="preserve" x="91" y="105" font-family="Helvetica Neue" font-size="14" fill="#ffffff">22</text>
                </g>
                <g id="Graphic876">
                    <path id="path7" fill="none" stroke="#808080" stroke-linecap="round" stroke-linejoin="round" d="M 35.833328 28.5 L 50.166672 28.5 C 54.032654 28.5 57.166672 31.634003 57.166672 35.5 L 57.166672 49.5 C 57.166672 53.365997 54.032654 56.5 50.166672 56.5 L 35.833328 56.5 C 31.967346 56.5 28.833328 53.365997 28.833328 49.5 L 28.833328 35.5 C 28.833328 31.634003 31.967346 28.5 35.833328 28.5 Z"/>
                    <text id="8" transform="matrix(0.999848 0.017452 -0.017452 0.999848 0.739702 -0.761509)" xml:space="preserve" x="38" y="49" font-family="Helvetica Neue" font-size="14" fill="#ffffff">8</text>
                </g>
                <g id="Graphic875">
                    <path id="path8" fill="none" stroke="#808080" stroke-linecap="round" stroke-linejoin="round" d="M 149.166672 0.5 L 163.5 0.5 C 167.365997 0.5 170.5 3.634003 170.5 7.5 L 170.5 21.5 C 170.5 25.36599 167.365997 28.5 163.5 28.5 L 149.166672 28.5 C 145.300659 28.5 142.166672 25.36599 142.166672 21.5 L 142.166672 7.5 C 142.166672 3.634003 145.300659 0.5 149.166672 0.5 Z"/>
                    <text id="6" transform="matrix(0.999848 0.017452 -0.017452 0.999848 0.268246 -2.737896)" xml:space="preserve" x="151" y="21" font-family="Helvetica Neue" font-size="14" fill="#ffffff">6</text>
                </g>
                <g id="Graphic874">
                    <path id="path9" fill="none" stroke="#808080" stroke-linecap="round" stroke-linejoin="round" d="M 149.166672 112.5 L 163.5 112.5 C 167.365997 112.5 170.5 115.634003 170.5 119.5 L 170.5 133.5 C 170.5 137.365997 167.365997 140.5 163.5 140.5 L 149.166672 140.5 C 145.300659 140.5 142.166672 137.365997 142.166672 133.5 L 142.166672 119.5 C 142.166672 115.634003 145.300659 112.5 149.166672 112.5 Z"/>
                    <text id="30" transform="matrix(0.999848 0.017452 -0.017452 0.999848 2.223067 -2.73829)" xml:space="preserve" x="148" y="133" font-family="Helvetica Neue" font-size="14" fill="#ffffff">30</text>
                </g>
                <g id="Graphic873">
                    <path id="path10" fill="none" stroke="#808080" stroke-linecap="round" stroke-linejoin="round" d="M 7.5 0.5 L 21.833328 0.5 C 25.699326 0.5 28.833328 3.634003 28.833328 7.5 L 28.833328 21.5 C 28.833328 25.36599 25.699326 28.5 21.833328 28.5 L 7.5 28.5 C 3.634003 28.5 0.5 25.36599 0.5 21.5 L 0.5 7.5 C 0.5 3.634003 3.634003 0.5 7.5 0.5 Z"/>
                    <text id="1" stroke="#ffffff" stroke-width="1.3" stroke-linecap="round" stroke-linejoin="round" transform="matrix(0.999848 0.017452 -0.017452 0.999848 0.246771 -0.277106)" xml:space="preserve" x="10" y="21" font-family="Helvetica Neue" font-size="14" fill="#000000">1</text>
                </g>
                <g id="Graphic872">
                    <path id="path11" fill="none" stroke="#808080" stroke-linecap="round" stroke-linejoin="round" d="M 120.833328 84.5 L 135.166672 84.5 C 139.032654 84.5 142.166672 87.634003 142.166672 91.5 L 142.166672 105.5 C 142.166672 109.365997 139.032654 112.5 135.166672 112.5 L 120.833328 112.5 C 116.967346 112.5 113.833328 109.365997 113.833328 105.5 L 113.833328 91.5 C 113.833328 87.634003 116.967346 84.5 120.833328 84.5 Z"/>
                    <text id="23" transform="matrix(0.999848 0.017452 -0.017452 0.999848 1.729983 -2.236435)" xml:space="preserve" x="119" y="105" font-family="Helvetica Neue" font-size="14" fill="#ffffff">23</text>
                </g>
                <g id="Graphic871">
                    <path id="path12" fill="none" stroke="#808080" stroke-linecap="round" stroke-linejoin="round" d="M 64.166672 112.5 L 78.5 112.5 C 82.365997 112.5 85.5 115.634003 85.5 119.5 L 85.5 133.5 C 85.5 137.365997 82.365997 140.5 78.5 140.5 L 64.166672 140.5 C 60.300674 140.5 57.166672 137.365997 57.166672 133.5 L 57.166672 119.5 C 57.166672 115.634003 60.300674 112.5 64.166672 112.5 Z"/>
                    <text id="27" transform="matrix(0.999848 0.017452 -0.017452 0.999848 2.210121 -1.254835)" xml:space="preserve" x="63" y="133" font-family="Helvetica Neue" font-size="14" fill="#ffffff">27</text>
                </g>
                <g id="Graphic870">
                    <path id="path13" fill="none" stroke="#808080" stroke-linecap="round" stroke-linejoin="round" d="M 64.166672 0.5 L 78.5 0.5 C 82.365997 0.5 85.5 3.634003 85.5 7.5 L 85.5 21.5 C 85.5 25.36599 82.365997 28.5 78.5 28.5 L 64.166672 28.5 C 60.300674 28.5 57.166672 25.36599 57.166672 21.5 L 57.166672 7.5 C 57.166672 3.634003 60.300674 0.5 64.166672 0.5 Z"/>
                    <text id="3" transform="matrix(0.999848 0.017452 -0.017452 0.999848 0.2553 -1.254441)" xml:space="preserve" x="66" y="21" font-family="Helvetica Neue" font-size="14" fill="#ffffff">3</text>
                </g>
                <g id="Graphic869">
                    <path id="path14" fill="none" stroke="#808080" stroke-linecap="round" stroke-linejoin="round" d="M 35.833328 0.5 L 50.166672 0.5 C 54.032654 0.5 57.166672 3.634003 57.166672 7.5 L 57.166672 21.5 C 57.166672 25.36599 54.032654 28.5 50.166672 28.5 L 35.833328 28.5 C 31.967346 28.5 28.833328 25.36599 28.833328 21.5 L 28.833328 7.5 C 28.833328 3.634003 31.967346 0.5 35.833328 0.5 Z"/>
                    <text id="2" transform="matrix(0.999848 0.017452 -0.017452 0.999848 0.251035 -0.765774)" xml:space="preserve" x="38" y="21" font-family="Helvetica Neue" font-size="14" fill="#ffffff">2</text>
                </g>
                <g id="Graphic868">
                    <path id="path15" fill="none" stroke="#808080" stroke-linecap="round" stroke-linejoin="round" d="M 7.5 84.5 L 21.833328 84.5 C 25.699326 84.5 28.833328 87.634003 28.833328 91.5 L 28.833328 105.5 C 28.833328 109.365997 25.699326 112.5 21.833328 112.5 L 7.5 112.5 C 3.634003 112.5 0.5 109.365997 0.5 105.5 L 0.5 91.5 C 0.5 87.634003 3.634003 84.5 7.5 84.5 Z"/>
                    <text id="19" stroke="#ffffff" stroke-width="1.3" stroke-linecap="round" stroke-linejoin="round" transform="matrix(0.999848 0.017452 -0.017452 0.999848 1.712773 -0.264313)" xml:space="preserve" x="6" y="105" font-family="Helvetica Neue" font-size="14" fill="#000000">19</text>
                </g>
                <g id="Graphic867">
                    <path id="path16" fill="none" stroke="#808080" stroke-linecap="round" stroke-linejoin="round" d="M 120.833328 28.5 L 135.166672 28.5 C 139.032654 28.5 142.166672 31.634003 142.166672 35.5 L 142.166672 49.5 C 142.166672 53.365997 139.032654 56.5 135.166672 56.5 L 120.833328 56.5 C 116.967346 56.5 113.833328 53.365997 113.833328 49.5 L 113.833328 35.5 C 113.833328 31.634003 116.967346 28.5 120.833328 28.5 Z"/>
                    <text id="11" transform="matrix(0.999848 0.017452 -0.017452 0.999848 0.752648 -2.244964)" xml:space="preserve" x="119" y="49" font-family="Helvetica Neue" font-size="14" fill="#ffffff">11</text>
                </g>
                <g id="Graphic866">
                    <path id="path17" fill="none" stroke="#808080" stroke-linecap="round" stroke-linejoin="round" d="M 7.5 28.5 L 21.833328 28.5 C 25.699326 28.5 28.833328 31.634003 28.833328 35.5 L 28.833328 49.5 C 28.833328 53.365997 25.699326 56.5 21.833328 56.5 L 7.5 56.5 C 3.634003 56.5 0.5 53.365997 0.5 49.5 L 0.5 35.5 C 0.5 31.634003 3.634003 28.5 7.5 28.5 Z"/>
                    <text id="7" stroke="#ffffff" stroke-width="1.3" stroke-linecap="round" stroke-linejoin="round" transform="matrix(0.999848 0.017452 -0.017452 0.999848 0.735438 -0.272842)" xml:space="preserve" x="10" y="49" font-family="Helvetica Neue" font-size="14" fill="#000000">7</text>
                </g>
                <g id="Graphic865">
                    <path id="path18" fill="none" stroke="#808080" stroke-linecap="round" stroke-linejoin="round" d="M 35.833328 112.5 L 50.166672 112.5 C 54.032654 112.5 57.166672 115.634003 57.166672 119.5 L 57.166672 133.5 C 57.166672 137.365997 54.032654 140.5 50.166672 140.5 L 35.833328 140.5 C 31.967346 140.5 28.833328 137.365997 28.833328 133.5 L 28.833328 119.5 C 28.833328 115.634003 31.967346 112.5 35.833328 112.5 Z"/>
                    <text id="26" transform="matrix(0.999848 0.017452 -0.017452 0.999848 2.205705 -0.748715)" xml:space="preserve" x="34" y="133" font-family="Helvetica Neue" font-size="14" fill="#ffffff">26</text>
                </g>
                <g id="Graphic864">
                    <path id="path19" fill="none" stroke="#808080" stroke-linecap="round" stroke-linejoin="round" d="M 149.166672 84.5 L 163.5 84.5 C 167.365997 84.5 170.5 87.634003 170.5 91.5 L 170.5 105.5 C 170.5 109.365997 167.365997 112.5 163.5 112.5 L 149.166672 112.5 C 145.300659 112.5 142.166672 109.365997 142.166672 105.5 L 142.166672 91.5 C 142.166672 87.634003 145.300659 84.5 149.166672 84.5 Z"/>
                    <text id="24" transform="matrix(0.999848 0.017452 -0.017452 0.999848 1.7344 -2.742554)" xml:space="preserve" x="148" y="105" font-family="Helvetica Neue" font-size="14" fill="#ffffff">24</text>
                </g>
                <g id="Graphic863">
                    <path id="path20" fill="none" stroke="#808080" stroke-linecap="round" stroke-linejoin="round" d="M 92.5 56.5 L 106.833328 56.5 C 110.699326 56.5 113.833328 59.634003 113.833328 63.5 L 113.833328 77.5 C 113.833328 81.365997 110.699326 84.5 106.833328 84.5 L 92.5 84.5 C 88.634003 84.5 85.5 81.365997 85.5 77.5 L 85.5 63.5 C 85.5 59.634003 88.634003 56.5 92.5 56.5 Z"/>
                    <text id="16" transform="matrix(0.999848 0.017452 -0.017452 0.999848 1.237051 -1.752032)" xml:space="preserve" x="91" y="77" font-family="Helvetica Neue" font-size="14" fill="#ffffff">16</text>
                </g>
                <g id="Graphic862">
                    <path id="path21" fill="none" stroke="#808080" stroke-linecap="round" stroke-linejoin="round" d="M 64.166672 28.5 L 78.5 28.5 C 82.365997 28.5 85.5 31.634003 85.5 35.5 L 85.5 49.5 C 85.5 53.365997 82.365997 56.5 78.5 56.5 L 64.166672 56.5 C 60.300674 56.5 57.166672 53.365997 57.166672 49.5 L 57.166672 35.5 C 57.166672 31.634003 60.300674 28.5 64.166672 28.5 Z"/>
                    <text id="9" transform="matrix(0.999848 0.017452 -0.017452 0.999848 0.743967 -1.250176)" xml:space="preserve" x="66" y="49" font-family="Helvetica Neue" font-size="14" fill="#ffffff">9</text>
                </g>
                <g id="Graphic861">
                    <path id="path22" fill="none" stroke="#808080" stroke-linecap="round" stroke-linejoin="round" d="M 92.5 0.5 L 106.833328 0.5 C 110.699326 0.5 113.833328 3.634003 113.833328 7.5 L 113.833328 21.5 C 113.833328 25.36599 110.699326 28.5 106.833328 28.5 L 92.5 28.5 C 88.634003 28.5 85.5 25.36599 85.5 21.5 L 85.5 7.5 C 85.5 3.634003 88.634003 0.5 92.5 0.5 Z"/>
                    <text id="4" transform="matrix(0.999848 0.017452 -0.017452 0.999848 0.259716 -1.760561)" xml:space="preserve" x="95" y="21" font-family="Helvetica Neue" font-size="14" fill="#ffffff">4</text>
                </g>
                <g id="Graphic860">
                    <path id="path23" fill="none" stroke="#808080" stroke-linecap="round" stroke-linejoin="round" d="M 120.833328 112.5 L 135.166672 112.5 C 139.032654 112.5 142.166672 115.634003 142.166672 119.5 L 142.166672 133.5 C 142.166672 137.365997 139.032654 140.5 135.166672 140.5 L 120.833328 140.5 C 116.967346 140.5 113.833328 137.365997 113.833328 133.5 L 113.833328 119.5 C 113.833328 115.634003 116.967346 112.5 120.833328 112.5 Z"/>
                    <text id="29" transform="matrix(0.999848 0.017452 -0.017452 0.999848 2.218651 -2.23217)" xml:space="preserve" x="119" y="133" font-family="Helvetica Neue" font-size="14" fill="#ffffff">29</text>
                </g>
                <g id="Graphic859">
                    <path id="path24" fill="none" stroke="#808080" stroke-linecap="round" stroke-linejoin="round" d="M 35.833328 84.5 L 50.166672 84.5 C 54.032654 84.5 57.166672 87.634003 57.166672 91.5 L 57.166672 105.5 C 57.166672 109.365997 54.032654 112.5 50.166672 112.5 L 35.833328 112.5 C 31.967346 112.5 28.833328 109.365997 28.833328 105.5 L 28.833328 91.5 C 28.833328 87.634003 31.967346 84.5 35.833328 84.5 Z"/>
                    <text id="20" transform="matrix(0.999848 0.017452 -0.017452 0.999848 1.717037 -0.75298)" xml:space="preserve" x="34" y="105" font-family="Helvetica Neue" font-size="14" fill="#ffffff">20</text>
                </g>
                <g id="Graphic858">
                    <path id="path25" fill="none" stroke="#808080" stroke-linecap="round" stroke-linejoin="round" d="M 149.166672 28.5 L 163.5 28.5 C 167.365997 28.5 170.5 31.634003 170.5 35.5 L 170.5 49.5 C 170.5 53.365997 167.365997 56.5 163.5 56.5 L 149.166672 56.5 C 145.300659 56.5 142.166672 53.365997 142.166672 49.5 L 142.166672 35.5 C 142.166672 31.634003 145.300659 28.5 149.166672 28.5 Z"/>
                    <text id="12" transform="matrix(0.999848 0.017452 -0.017452 0.999848 0.757065 -2.751083)" xml:space="preserve" x="148" y="49" font-family="Helvetica Neue" font-size="14" fill="#ffffff">12</text>
                </g>
                <g id="Graphic857">
                    <path id="path26" fill="none" stroke="#808080" stroke-linecap="round" stroke-linejoin="round" d="M 7.5 56.5 L 21.833328 56.5 C 25.699326 56.5 28.833328 59.634003 28.833328 63.5 L 28.833328 77.5 C 28.833328 81.365997 25.699326 84.5 21.833328 84.5 L 7.5 84.5 C 3.634003 84.5 0.5 81.365997 0.5 77.5 L 0.5 63.5 C 0.5 59.634003 3.634003 56.5 7.5 56.5 Z"/>
                    <text id="13" stroke="#ffffff" stroke-width="1.3" stroke-linecap="round" stroke-linejoin="round" transform="matrix(0.999848 0.017452 -0.017452 0.999848 1.224105 -0.268577)" xml:space="preserve" x="6" y="77" font-family="Helvetica Neue" font-size="14" fill="#000000">13</text>
                </g>
                <g id="Graphic856">
                    <path id="path27" fill="none" stroke="#808080" stroke-linecap="round" stroke-linejoin="round" d="M 64.166672 56.5 L 78.5 56.5 C 82.365997 56.5 85.5 59.634003 85.5 63.5 L 85.5 77.5 C 85.5 81.365997 82.365997 84.5 78.5 84.5 L 64.166672 84.5 C 60.300674 84.5 57.166672 81.365997 57.166672 77.5 L 57.166672 63.5 C 57.166672 59.634003 60.300674 56.5 64.166672 56.5 Z"/>
                    <text id="15" transform="matrix(0.999848 0.017452 -0.017452 0.999848 1.232787 -1.263364)" xml:space="preserve" x="63" y="77" font-family="Helvetica Neue" font-size="14" fill="#ffffff">15</text>
                </g>
                <g id="Graphic855">
                    <path id="path28" fill="none" stroke="#808080" stroke-linecap="round" stroke-linejoin="round" d="M 120.833328 0.5 L 135.166672 0.5 C 139.032654 0.5 142.166672 3.634003 142.166672 7.5 L 142.166672 21.5 C 142.166672 25.36599 139.032654 28.5 135.166672 28.5 L 120.833328 28.5 C 116.967346 28.5 113.833328 25.36599 113.833328 21.5 L 113.833328 7.5 C 113.833328 3.634003 116.967346 0.5 120.833328 0.5 Z"/>
                    <text id="5" transform="matrix(0.999848 0.017452 -0.017452 0.999848 0.263981 -2.249228)" xml:space="preserve" x="123" y="21" font-family="Helvetica Neue" font-size="14" fill="#ffffff">5</text>
                </g>
                <g id="Graphic854">
                    <path id="path29" fill="none" stroke="#808080" stroke-linecap="round" stroke-linejoin="round" d="M 92.5 28.5 L 106.833328 28.5 C 110.699326 28.5 113.833328 31.634003 113.833328 35.5 L 113.833328 49.5 C 113.833328 53.365997 110.699326 56.5 106.833328 56.5 L 92.5 56.5 C 88.634003 56.5 85.5 53.365997 85.5 49.5 L 85.5 35.5 C 85.5 31.634003 88.634003 28.5 92.5 28.5 Z"/>
                    <text id="10" transform="matrix(0.999848 0.017452 -0.017452 0.999848 0.748384 -1.756296)" xml:space="preserve" x="91" y="49" font-family="Helvetica Neue" font-size="14" fill="#ffffff">10</text>
                </g>
            </g>
            <g id="Graphic1038">
                <path id="path30" fill="#8e7cc3" fill-opacity="0.746839" stroke="none" d="M 318.166687 70.5 C 318.166687 78.231995 311.824036 84.500023 304 84.500023 C 296.175964 84.500023 289.833313 78.231995 289.833313 70.5 C 289.833313 62.768005 296.175964 56.499977 304 56.499977 C 311.824036 56.499977 318.166687 62.768005 318.166687 70.5 Z"/>
                <path id="path31" fill="none" stroke="#808080" stroke-linecap="round" stroke-linejoin="round" d="M 318.166687 70.5 C 318.166687 78.231995 311.824036 84.500023 304 84.500023 C 296.175964 84.500023 289.833313 78.231995 289.833313 70.5 C 289.833313 62.768005 296.175964 56.499977 304 56.499977 C 311.824036 56.499977 318.166687 62.768005 318.166687 70.5 Z"/>
                <text id="text1" transform="matrix(0.999848 0.017452 -0.017452 0.999848 1.268121 -5.312323)" xml:space="preserve" x="295" y="77" font-family="Helvetica Neue" font-size="14" fill="#ffffff">14</text>
            </g>
            <g id="Graphic1037">
                <path id="path32" fill="#d473c0" fill-opacity="0.754156" stroke="none" d="M 410.166687 56.5 L 424.5 56.5 C 428.365997 56.5 431.5 59.634003 431.5 63.5 L 431.5 77.5 C 431.5 81.365997 428.365997 84.5 424.5 84.5 L 410.166687 84.5 C 406.300659 84.5 403.166687 81.365997 403.166687 77.5 L 403.166687 63.5 C 403.166687 59.634003 406.300659 56.5 410.166687 56.5 Z"/>
                <path id="path33" fill="none" stroke="#808080" stroke-linecap="round" stroke-linejoin="round" d="M 410.166687 56.5 L 424.5 56.5 C 428.365997 56.5 431.5 59.634003 431.5 63.5 L 431.5 77.5 C 431.5 81.365997 428.365997 84.5 424.5 84.5 L 410.166687 84.5 C 406.300659 84.5 403.166687 81.365997 403.166687 77.5 L 403.166687 63.5 C 403.166687 59.634003 406.300659 56.5 410.166687 56.5 Z"/>
                <text id="text2" transform="matrix(0.999848 0.017452 -0.017452 0.999848 1.285484 -7.301897)" xml:space="preserve" x="409" y="77" font-family="Helvetica Neue" font-size="14" fill="#ffffff">18</text>
            </g>
            <g id="Graphic1036">
                <path id="path34" fill="#ebb671" fill-opacity="0.752108" stroke="none" d="M 346.5 133.5 L 346.5 125.596939 C 346.5 123.241798 347.684326 121.044525 349.651581 119.749741 L 356.818237 115.03289 C 359.153625 113.495819 362.179688 113.495819 364.515076 115.03289 L 371.681763 119.749741 C 373.649017 121.044525 374.833313 123.241798 374.833313 125.596939 L 374.833313 133.5 C 374.833313 137.365997 371.699341 140.5 367.833313 140.5 L 353.5 140.5 C 349.634003 140.5 346.5 137.365997 346.5 133.5 Z"/>
                <path id="path35" fill="none" stroke="#808080" stroke-linecap="round" stroke-linejoin="round" d="M 346.5 133.5 L 346.5 125.596939 C 346.5 123.241798 347.684326 121.044525 349.651581 119.749741 L 356.818237 115.03289 C 359.153625 113.495819 362.179688 113.495819 364.515076 115.03289 L 371.681763 119.749741 C 373.649017 121.044525 374.833313 123.241798 374.833313 125.596939 L 374.833313 133.5 C 374.833313 137.365997 371.699341 140.5 367.833313 140.5 L 353.5 140.5 C 349.634003 140.5 346.5 137.365997 346.5 133.5 Z"/>
                <text id="text3" transform="matrix(0.999848 0.017452 -0.017452 0.999848 2.254138 -6.298581)" xml:space="preserve" x="352" y="133" font-family="Helvetica Neue" font-size="14" fill="#000000">28</text>
            </g>
            <g id="Graphic1035">
                <path id="path36" fill="#8e7cc3" fill-opacity="0.746839" stroke="none" d="M 403.166687 70.5 C 403.166687 78.231995 396.824036 84.500023 389 84.500023 C 381.175964 84.500023 374.833313 78.231995 374.833313 70.5 C 374.833313 62.768005 381.175964 56.499977 389 56.499977 C 396.824036 56.499977 403.166687 62.768005 403.166687 70.5 Z"/>
                <path id="path37" fill="none" stroke="#808080" stroke-linecap="round" stroke-linejoin="round" d="M 403.166687 70.5 C 403.166687 78.231995 396.824036 84.500023 389 84.500023 C 381.175964 84.500023 374.833313 78.231995 374.833313 70.5 C 374.833313 62.768005 381.175964 56.499977 389 56.499977 C 396.824036 56.499977 403.166687 62.768005 403.166687 70.5 Z"/>
                <text id="text4" transform="matrix(0.999848 0.017452 -0.017452 0.999848 1.281067 -6.795777)" xml:space="preserve" x="380" y="77" font-family="Helvetica Neue" font-size="14" fill="#ffffff">17</text>
            </g>
            <g id="Graphic1034">
                <path id="path38" fill="#8e7cc3" fill-opacity="0.746839" stroke="none" d="M 325.166687 84.5 L 339.5 84.5 C 343.365997 84.5 346.5 87.634003 346.5 91.5 L 346.5 105.5 C 346.5 109.365997 343.365997 112.5 339.5 112.5 L 325.166687 112.5 C 321.300659 112.5 318.166656 109.365997 318.166656 105.5 L 318.166656 91.5 C 318.166656 87.634003 321.300659 84.5 325.166687 84.5 Z"/>
                <path id="path39" fill="none" stroke="#808080" stroke-linecap="round" stroke-linejoin="round" d="M 325.166687 84.5 L 339.5 84.5 C 343.365997 84.5 346.5 87.634003 346.5 91.5 L 346.5 105.5 C 346.5 109.365997 343.365997 112.5 339.5 112.5 L 325.166687 112.5 C 321.300659 112.5 318.166656 109.365997 318.166656 105.5 L 318.166656 91.5 C 318.166656 87.634003 321.300659 84.5 325.166687 84.5 Z"/>
                <text id="text5" transform="matrix(0.999848 0.017452 -0.017452 0.999848 1.761206 -5.814178)" xml:space="preserve" x="324" y="105" font-family="Helvetica Neue" font-size="14" fill="#ffffff">21</text>
            </g>
            <g id="Graphic1033">
                <path id="path40" fill="#d473c0" fill-opacity="0.754156" stroke="none" d="M 268.5 112.5 L 282.833344 112.5 C 286.699341 112.5 289.833344 115.634003 289.833344 119.5 L 289.833344 133.5 C 289.833344 137.365997 286.699341 140.5 282.833344 140.5 L 268.5 140.5 C 264.634003 140.5 261.5 137.365997 261.5 133.5 L 261.5 119.5 C 261.5 115.634003 264.634003 112.5 268.5 112.5 Z"/>
                <path id="path41" fill="none" stroke="#808080" stroke-linecap="round" stroke-linejoin="round" d="M 268.5 112.5 L 282.833344 112.5 C 286.699341 112.5 289.833344 115.634003 289.833344 119.5 L 289.833344 133.5 C 289.833344 137.365997 286.699341 140.5 282.833344 140.5 L 268.5 140.5 C 264.634003 140.5 261.5 137.365997 261.5 133.5 L 261.5 119.5 C 261.5 115.634003 264.634003 112.5 268.5 112.5 Z"/>
                <text id="text6" transform="matrix(0.999848 0.017452 -0.017452 0.999848 2.241192 -4.815126)" xml:space="preserve" x="267" y="133" font-family="Helvetica Neue" font-size="14" fill="#ffffff">25</text>
            </g>
            <g id="Graphic1032">
                <path id="path42" fill="#d473c0" fill-opacity="0.754156" stroke="none" d="M 353.5 84.5 L 367.833313 84.5 C 371.699341 84.5 374.833313 87.634003 374.833313 91.5 L 374.833313 105.5 C 374.833313 109.365997 371.699341 112.5 367.833313 112.5 L 353.5 112.5 C 349.634003 112.5 346.5 109.365997 346.5 105.5 L 346.5 91.5 C 346.5 87.634003 349.634003 84.5 353.5 84.5 Z"/>
                <path id="path43" fill="none" stroke="#808080" stroke-linecap="round" stroke-linejoin="round" d="M 353.5 84.5 L 367.833313 84.5 C 371.699341 84.5 374.833313 87.634003 374.833313 91.5 L 374.833313 105.5 C 374.833313 109.365997 371.699341 112.5 367.833313 112.5 L 353.5 112.5 C 349.634003 112.5 346.5 109.365997 346.5 105.5 L 346.5 91.5 C 346.5 87.634003 349.634003 84.5 353.5 84.5 Z"/>
                <text id="text7" transform="matrix(0.999848 0.017452 -0.017452 0.999848 1.76547 -6.302845)" xml:space="preserve" x="352" y="105" font-family="Helvetica Neue" font-size="14" fill="#ffffff">22</text>
            </g>
            <g id="Graphic1031">
                <path id="path44" fill="#ebb671" fill-opacity="0.752108" stroke="none" d="M 289.833344 49.5 L 289.833344 41.596939 C 289.833344 39.241798 291.017639 37.044525 292.984924 35.749741 L 300.151581 31.03289 C 302.486969 29.495819 305.513031 29.495819 307.848419 31.03289 L 315.015076 35.749741 C 316.982361 37.044525 318.166656 39.241798 318.166656 41.596939 L 318.166656 49.5 C 318.166656 53.365997 315.032654 56.5 311.166656 56.5 L 296.833344 56.5 C 292.967346 56.5 289.833344 53.365997 289.833344 49.5 Z"/>
                <path id="path45" fill="none" stroke="#808080" stroke-linecap="round" stroke-linejoin="round" d="M 289.833344 49.5 L 289.833344 41.596939 C 289.833344 39.241798 291.017639 37.044525 292.984924 35.749741 L 300.151581 31.03289 C 302.486969 29.495819 305.513031 29.495819 307.848419 31.03289 L 315.015076 35.749741 C 316.982361 37.044525 318.166656 39.241798 318.166656 41.596939 L 318.166656 49.5 C 318.166656 53.365997 315.032654 56.5 311.166656 56.5 L 296.833344 56.5 C 292.967346 56.5 289.833344 53.365997 289.833344 49.5 Z"/>
                <text id="text8" transform="matrix(0.999848 0.017452 -0.017452 0.999848 0.779454 -5.316587)" xml:space="preserve" x="299" y="49" font-family="Helvetica Neue" font-size="14" fill="#000000">8</text>
            </g>
            <g id="Graphic1030">
                <path id="path46" fill="#ebb671" fill-opacity="0.752108" stroke="none" d="M 403.166687 21.5 L 403.166687 13.596931 C 403.166687 11.241791 404.350983 9.044525 406.318237 7.749741 L 413.484924 3.032898 C 415.820313 1.495819 418.846375 1.495819 421.181763 3.032898 L 428.348419 7.749741 C 430.315704 9.044525 431.5 11.241791 431.5 13.596931 L 431.5 21.5 C 431.5 25.36599 428.365997 28.5 424.5 28.5 L 410.166687 28.5 C 406.300659 28.5 403.166687 25.36599 403.166687 21.5 Z"/>
                <path id="path47" fill="none" stroke="#808080" stroke-linecap="round" stroke-linejoin="round" d="M 403.166687 21.5 L 403.166687 13.596931 C 403.166687 11.241791 404.350983 9.044525 406.318237 7.749741 L 413.484924 3.032898 C 415.820313 1.495819 418.846375 1.495819 421.181763 3.032898 L 428.348419 7.749741 C 430.315704 9.044525 431.5 11.241791 431.5 13.596931 L 431.5 21.5 C 431.5 25.36599 428.365997 28.5 424.5 28.5 L 410.166687 28.5 C 406.300659 28.5 403.166687 25.36599 403.166687 21.5 Z"/>
                <text id="text9" transform="matrix(0.999848 0.017452 -0.017452 0.999848 0.307997 -7.292974)" xml:space="preserve" x="412" y="21" font-family="Helvetica Neue" font-size="14" fill="#000000">6</text>
            </g>
            <g id="Graphic1029">
                <path id="path48" fill="#8e7cc3" fill-opacity="0.746839" stroke="none" d="M 431.5 126.5 C 431.5 134.231995 425.157379 140.500031 417.333313 140.500031 C 409.509277 140.500031 403.166626 134.231995 403.166626 126.5 C 403.166626 118.768005 409.509277 112.499977 417.333313 112.499977 C 425.157379 112.499977 431.5 118.768005 431.5 126.5 Z"/>
                <path id="path49" fill="none" stroke="#808080" stroke-linecap="round" stroke-linejoin="round" d="M 431.5 126.5 C 431.5 134.231995 425.157379 140.500031 417.333313 140.500031 C 409.509277 140.500031 403.166626 134.231995 403.166626 126.5 C 403.166626 118.768005 409.509277 112.499977 417.333313 112.499977 C 425.157379 112.499977 431.5 118.768005 431.5 126.5 Z"/>
                <text id="text10" transform="matrix(0.999848 0.017452 -0.017452 0.999848 2.262819 -7.293368)" xml:space="preserve" x="409" y="133" font-family="Helvetica Neue" font-size="14" fill="#ffffff">30</text>
            </g>
            <g id="Graphic1028">
                <path id="path50" fill="#8e7cc3" fill-opacity="0.746839" stroke="none" d="M 289.833344 14.5 C 289.833344 22.231995 283.490723 28.500023 275.666656 28.500023 C 267.842621 28.500023 261.499969 22.231995 261.499969 14.5 C 261.499969 6.768005 267.842621 0.499969 275.666656 0.499969 C 283.490723 0.499969 289.833344 6.768005 289.833344 14.5 Z"/>
                <path id="path51" fill="none" stroke="#808080" stroke-linecap="round" stroke-linejoin="round" d="M 289.833344 14.5 C 289.833344 22.231995 283.490723 28.500023 275.666656 28.500023 C 267.842621 28.500023 261.499969 22.231995 261.499969 14.5 C 261.499969 6.768005 267.842621 0.499969 275.666656 0.499969 C 283.490723 0.499969 289.833344 6.768005 289.833344 14.5 Z"/>
                <text id="text11" transform="matrix(0.999848 0.017452 -0.017452 0.999848 0.286522 -4.832184)" xml:space="preserve" x="271" y="21" font-family="Helvetica Neue" font-size="14" fill="#ffffff">1</text>
            </g>
            <g id="Graphic1027">
                <path id="path52" fill="#d473c0" fill-opacity="0.754156" stroke="none" d="M 381.833313 84.5 L 396.166687 84.5 C 400.032654 84.5 403.166687 87.634003 403.166687 91.5 L 403.166687 105.5 C 403.166687 109.365997 400.032654 112.5 396.166687 112.5 L 381.833313 112.5 C 377.967346 112.5 374.833313 109.365997 374.833313 105.5 L 374.833313 91.5 C 374.833313 87.634003 377.967346 84.5 381.833313 84.5 Z"/>
                <path id="path53" fill="none" stroke="#808080" stroke-linecap="round" stroke-linejoin="round" d="M 381.833313 84.5 L 396.166687 84.5 C 400.032654 84.5 403.166687 87.634003 403.166687 91.5 L 403.166687 105.5 C 403.166687 109.365997 400.032654 112.5 396.166687 112.5 L 381.833313 112.5 C 377.967346 112.5 374.833313 109.365997 374.833313 105.5 L 374.833313 91.5 C 374.833313 87.634003 377.967346 84.5 381.833313 84.5 Z"/>
                <text id="text12" transform="matrix(0.999848 0.017452 -0.017452 0.999848 1.769735 -6.791513)" xml:space="preserve" x="380" y="105" font-family="Helvetica Neue" font-size="14" fill="#ffffff">23</text>
            </g>
            <g id="Graphic1026">
                <path id="path54" fill="#d473c0" fill-opacity="0.754156" stroke="none" d="M 325.166687 112.5 L 339.5 112.5 C 343.365997 112.5 346.5 115.634003 346.5 119.5 L 346.5 133.5 C 346.5 137.365997 343.365997 140.5 339.5 140.5 L 325.166687 140.5 C 321.300659 140.5 318.166656 137.365997 318.166656 133.5 L 318.166656 119.5 C 318.166656 115.634003 321.300659 112.5 325.166687 112.5 Z"/>
                <path id="path55" fill="none" stroke="#808080" stroke-linecap="round" stroke-linejoin="round" d="M 325.166687 112.5 L 339.5 112.5 C 343.365997 112.5 346.5 115.634003 346.5 119.5 L 346.5 133.5 C 346.5 137.365997 343.365997 140.5 339.5 140.5 L 325.166687 140.5 C 321.300659 140.5 318.166656 137.365997 318.166656 133.5 L 318.166656 119.5 C 318.166656 115.634003 321.300659 112.5 325.166687 112.5 Z"/>
                <text id="text13" transform="matrix(0.999848 0.017452 -0.017452 0.999848 2.249873 -5.809913)" xml:space="preserve" x="324" y="133" font-family="Helvetica Neue" font-size="14" fill="#ffffff">27</text>
            </g>
            <g id="Graphic1025">
                <path id="path56" fill="#8e7cc3" fill-opacity="0.746839" stroke="none" d="M 346.500031 14.5 C 346.500031 22.231995 340.157379 28.500023 332.333313 28.500023 C 324.509277 28.500023 318.166626 22.231995 318.166626 14.5 C 318.166626 6.768005 324.509277 0.499969 332.333313 0.499969 C 340.157379 0.499969 346.500031 6.768005 346.500031 14.5 Z"/>
                <path id="path57" fill="none" stroke="#808080" stroke-linecap="round" stroke-linejoin="round" d="M 346.500031 14.5 C 346.500031 22.231995 340.157379 28.500023 332.333313 28.500023 C 324.509277 28.500023 318.166626 22.231995 318.166626 14.5 C 318.166626 6.768005 324.509277 0.499969 332.333313 0.499969 C 340.157379 0.499969 346.500031 6.768005 346.500031 14.5 Z"/>
                <text id="text14" transform="matrix(0.999848 0.017452 -0.017452 0.999848 0.295051 -5.809519)" xml:space="preserve" x="327" y="21" font-family="Helvetica Neue" font-size="14" fill="#ffffff">3</text>
            </g>
            <g id="Graphic1024">
                <path id="path58" fill="#d473c0" fill-opacity="0.754156" stroke="none" d="M 296.833344 0.5 L 311.166656 0.5 C 315.032654 0.5 318.166656 3.634003 318.166656 7.5 L 318.166656 21.5 C 318.166656 25.36599 315.032654 28.5 311.166656 28.5 L 296.833344 28.5 C 292.967346 28.5 289.833344 25.36599 289.833344 21.5 L 289.833344 7.5 C 289.833344 3.634003 292.967346 0.5 296.833344 0.5 Z"/>
                <path id="path59" fill="none" stroke="#808080" stroke-linecap="round" stroke-linejoin="round" d="M 296.833344 0.5 L 311.166656 0.5 C 315.032654 0.5 318.166656 3.634003 318.166656 7.5 L 318.166656 21.5 C 318.166656 25.36599 315.032654 28.5 311.166656 28.5 L 296.833344 28.5 C 292.967346 28.5 289.833344 25.36599 289.833344 21.5 L 289.833344 7.5 C 289.833344 3.634003 292.967346 0.5 296.833344 0.5 Z"/>
                <text id="text15" transform="matrix(0.999848 0.017452 -0.017452 0.999848 0.290787 -5.320852)" xml:space="preserve" x="299" y="21" font-family="Helvetica Neue" font-size="14" fill="#ffffff">2</text>
            </g>
            <g id="Graphic1023">
                <path id="path60" fill="#8e7cc3" fill-opacity="0.746839" stroke="none" d="M 289.833344 98.5 C 289.833344 106.231995 283.490723 112.500023 275.666656 112.500023 C 267.842621 112.500023 261.499969 106.231995 261.499969 98.5 C 261.499969 90.768005 267.842621 84.499977 275.666656 84.499977 C 283.490723 84.499977 289.833344 90.768005 289.833344 98.5 Z"/>
                <path id="path61" fill="none" stroke="#808080" stroke-linecap="round" stroke-linejoin="round" d="M 289.833344 98.5 C 289.833344 106.231995 283.490723 112.500023 275.666656 112.500023 C 267.842621 112.500023 261.499969 106.231995 261.499969 98.5 C 261.499969 90.768005 267.842621 84.499977 275.666656 84.499977 C 283.490723 84.499977 289.833344 90.768005 289.833344 98.5 Z"/>
                <text id="text16" transform="matrix(0.999848 0.017452 -0.017452 0.999848 1.752524 -4.819391)" xml:space="preserve" x="267" y="105" font-family="Helvetica Neue" font-size="14" fill="#ffffff">19</text>
            </g>
            <g id="Graphic1022">
                <path id="path62" fill="#d473c0" fill-opacity="0.754156" stroke="none" d="M 381.833313 28.5 L 396.166687 28.5 C 400.032654 28.5 403.166687 31.634003 403.166687 35.5 L 403.166687 49.5 C 403.166687 53.365997 400.032654 56.5 396.166687 56.5 L 381.833313 56.5 C 377.967346 56.5 374.833313 53.365997 374.833313 49.5 L 374.833313 35.5 C 374.833313 31.634003 377.967346 28.5 381.833313 28.5 Z"/>
                <path id="path63" fill="none" stroke="#808080" stroke-linecap="round" stroke-linejoin="round" d="M 381.833313 28.5 L 396.166687 28.5 C 400.032654 28.5 403.166687 31.634003 403.166687 35.5 L 403.166687 49.5 C 403.166687 53.365997 400.032654 56.5 396.166687 56.5 L 381.833313 56.5 C 377.967346 56.5 374.833313 53.365997 374.833313 49.5 L 374.833313 35.5 C 374.833313 31.634003 377.967346 28.5 381.833313 28.5 Z"/>
                <text id="text17" transform="matrix(0.999848 0.017452 -0.017452 0.999848 0.7924 -6.800042)" xml:space="preserve" x="380" y="49" font-family="Helvetica Neue" font-size="14" fill="#ffffff">11</text>
            </g>
            <g id="Graphic1021">
                <path id="path64" fill="#d473c0" fill-opacity="0.754156" stroke="none" d="M 268.5 28.5 L 282.833344 28.5 C 286.699341 28.5 289.833344 31.634003 289.833344 35.5 L 289.833344 49.5 C 289.833344 53.365997 286.699341 56.5 282.833344 56.5 L 268.5 56.5 C 264.634003 56.5 261.5 53.365997 261.5 49.5 L 261.5 35.5 C 261.5 31.634003 264.634003 28.5 268.5 28.5 Z"/>
                <path id="path65" fill="none" stroke="#808080" stroke-linecap="round" stroke-linejoin="round" d="M 268.5 28.5 L 282.833344 28.5 C 286.699341 28.5 289.833344 31.634003 289.833344 35.5 L 289.833344 49.5 C 289.833344 53.365997 286.699341 56.5 282.833344 56.5 L 268.5 56.5 C 264.634003 56.5 261.5 53.365997 261.5 49.5 L 261.5 35.5 C 261.5 31.634003 264.634003 28.5 268.5 28.5 Z"/>
                <text id="text18" transform="matrix(0.999848 0.017452 -0.017452 0.999848 0.77519 -4.82792)" xml:space="preserve" x="271" y="49" font-family="Helvetica Neue" font-size="14" fill="#ffffff">7</text>
            </g>
            <g id="Graphic1020">
                <path id="path66" fill="#ebb671" fill-opacity="0.752108" stroke="none" d="M 289.833344 133.5 L 289.833344 125.596939 C 289.833344 123.241798 291.017639 121.044525 292.984924 119.749741 L 300.151581 115.03289 C 302.486969 113.495819 305.513031 113.495819 307.848419 115.03289 L 315.015076 119.749741 C 316.982361 121.044525 318.166656 123.241798 318.166656 125.596939 L 318.166656 133.5 C 318.166656 137.365997 315.032654 140.5 311.166656 140.5 L 296.833344 140.5 C 292.967346 140.5 289.833344 137.365997 289.833344 133.5 Z"/>
                <path id="path67" fill="none" stroke="#808080" stroke-linecap="round" stroke-linejoin="round" d="M 289.833344 133.5 L 289.833344 125.596939 C 289.833344 123.241798 291.017639 121.044525 292.984924 119.749741 L 300.151581 115.03289 C 302.486969 113.495819 305.513031 113.495819 307.848419 115.03289 L 315.015076 119.749741 C 316.982361 121.044525 318.166656 123.241798 318.166656 125.596939 L 318.166656 133.5 C 318.166656 137.365997 315.032654 140.5 311.166656 140.5 L 296.833344 140.5 C 292.967346 140.5 289.833344 137.365997 289.833344 133.5 Z"/>
                <text id="text19" transform="matrix(0.999848 0.017452 -0.017452 0.999848 2.245456 -5.303794)" xml:space="preserve" x="295" y="133" font-family="Helvetica Neue" font-size="14" fill="#000000">26</text>
            </g>
            <g id="Graphic1019">
                <path id="path68" fill="#8e7cc3" fill-opacity="0.746839" stroke="none" d="M 431.5 98.5 C 431.5 106.231995 425.157379 112.500023 417.333313 112.500023 C 409.509277 112.500023 403.166626 106.231995 403.166626 98.5 C 403.166626 90.768005 409.509277 84.499977 417.333313 84.499977 C 425.157379 84.499977 431.5 90.768005 431.5 98.5 Z"/>
                <path id="path69" fill="none" stroke="#808080" stroke-linecap="round" stroke-linejoin="round" d="M 431.5 98.5 C 431.5 106.231995 425.157379 112.500023 417.333313 112.500023 C 409.509277 112.500023 403.166626 106.231995 403.166626 98.5 C 403.166626 90.768005 409.509277 84.499977 417.333313 84.499977 C 425.157379 84.499977 431.5 90.768005 431.5 98.5 Z"/>
                <text id="text20" transform="matrix(0.999848 0.017452 -0.017452 0.999848 1.774152 -7.297632)" xml:space="preserve" x="409" y="105" font-family="Helvetica Neue" font-size="14" fill="#ffffff">24</text>
            </g>
            <g id="Graphic1018">
                <path id="path70" fill="#ebb671" fill-opacity="0.752108" stroke="none" d="M 346.5 77.5 L 346.5 69.596931 C 346.5 67.241798 347.684326 65.044533 349.651581 63.749741 L 356.818237 59.03289 C 359.153625 57.495819 362.179688 57.495819 364.515076 59.03289 L 371.681763 63.749741 C 373.649017 65.044533 374.833313 67.241798 374.833313 69.596931 L 374.833313 77.5 C 374.833313 81.365997 371.699341 84.5 367.833313 84.5 L 353.5 84.5 C 349.634003 84.5 346.5 81.365997 346.5 77.5 Z"/>
                <path id="path71" fill="none" stroke="#808080" stroke-linecap="round" stroke-linejoin="round" d="M 346.5 77.5 L 346.5 69.596931 C 346.5 67.241798 347.684326 65.044533 349.651581 63.749741 L 356.818237 59.03289 C 359.153625 57.495819 362.179688 57.495819 364.515076 59.03289 L 371.681763 63.749741 C 373.649017 65.044533 374.833313 67.241798 374.833313 69.596931 L 374.833313 77.5 C 374.833313 81.365997 371.699341 84.5 367.833313 84.5 L 353.5 84.5 C 349.634003 84.5 346.5 81.365997 346.5 77.5 Z"/>
                <text id="text21" transform="matrix(0.999848 0.017452 -0.017452 0.999848 1.276803 -6.30711)" xml:space="preserve" x="352" y="77" font-family="Helvetica Neue" font-size="14" fill="#000000">16</text>
            </g>
            <g id="Graphic1017">
                <path id="path72" fill="#ebb671" fill-opacity="0.752108" stroke="none" d="M 318.166656 49.5 L 318.166656 41.596939 C 318.166656 39.241798 319.350983 37.044525 321.318237 35.749741 L 328.484924 31.03289 C 330.820313 29.495819 333.846375 29.495819 336.181763 31.03289 L 343.348419 35.749741 C 345.315674 37.044525 346.5 39.241798 346.5 41.596939 L 346.5 49.5 C 346.5 53.365997 343.365997 56.5 339.5 56.5 L 325.166687 56.5 C 321.300659 56.5 318.166656 53.365997 318.166656 49.5 Z"/>
                <path id="path73" fill="none" stroke="#808080" stroke-linecap="round" stroke-linejoin="round" d="M 318.166656 49.5 L 318.166656 41.596939 C 318.166656 39.241798 319.350983 37.044525 321.318237 35.749741 L 328.484924 31.03289 C 330.820313 29.495819 333.846375 29.495819 336.181763 31.03289 L 343.348419 35.749741 C 345.315674 37.044525 346.5 39.241798 346.5 41.596939 L 346.5 49.5 C 346.5 53.365997 343.365997 56.5 339.5 56.5 L 325.166687 56.5 C 321.300659 56.5 318.166656 53.365997 318.166656 49.5 Z"/>
                <text id="text22" transform="matrix(0.999848 0.017452 -0.017452 0.999848 0.783719 -5.805255)" xml:space="preserve" x="327" y="49" font-family="Helvetica Neue" font-size="14" fill="#000000">9</text>
            </g>
            <g id="Graphic1016">
                <path id="path74" fill="#d473c0" fill-opacity="0.754156" stroke="none" d="M 353.5 0.5 L 367.833313 0.5 C 371.699341 0.5 374.833313 3.634003 374.833313 7.5 L 374.833313 21.5 C 374.833313 25.36599 371.699341 28.5 367.833313 28.5 L 353.5 28.5 C 349.634003 28.5 346.5 25.36599 346.5 21.5 L 346.5 7.5 C 346.5 3.634003 349.634003 0.5 353.5 0.5 Z"/>
                <path id="path75" fill="none" stroke="#808080" stroke-linecap="round" stroke-linejoin="round" d="M 353.5 0.5 L 367.833313 0.5 C 371.699341 0.5 374.833313 3.634003 374.833313 7.5 L 374.833313 21.5 C 374.833313 25.36599 371.699341 28.5 367.833313 28.5 L 353.5 28.5 C 349.634003 28.5 346.5 25.36599 346.5 21.5 L 346.5 7.5 C 346.5 3.634003 349.634003 0.5 353.5 0.5 Z"/>
                <text id="text23" transform="matrix(0.999848 0.017452 -0.017452 0.999848 0.299468 -6.315639)" xml:space="preserve" x="356" y="21" font-family="Helvetica Neue" font-size="14" fill="#ffffff">4</text>
            </g>
            <g id="Graphic1015">
                <path id="path76" fill="#ebb671" fill-opacity="0.752108" stroke="none" d="M 374.833313 133.5 L 374.833313 125.596939 C 374.833313 123.241798 376.017639 121.044525 377.984924 119.749741 L 385.151581 115.03289 C 387.486969 113.495819 390.513031 113.495819 392.848419 115.03289 L 400.015076 119.749741 C 401.982361 121.044525 403.166687 123.241798 403.166687 125.596939 L 403.166687 133.5 C 403.166687 137.365997 400.032654 140.5 396.166687 140.5 L 381.833313 140.5 C 377.967346 140.5 374.833313 137.365997 374.833313 133.5 Z"/>
                <path id="path77" fill="none" stroke="#808080" stroke-linecap="round" stroke-linejoin="round" d="M 374.833313 133.5 L 374.833313 125.596939 C 374.833313 123.241798 376.017639 121.044525 377.984924 119.749741 L 385.151581 115.03289 C 387.486969 113.495819 390.513031 113.495819 392.848419 115.03289 L 400.015076 119.749741 C 401.982361 121.044525 403.166687 123.241798 403.166687 125.596939 L 403.166687 133.5 C 403.166687 137.365997 400.032654 140.5 396.166687 140.5 L 381.833313 140.5 C 377.967346 140.5 374.833313 137.365997 374.833313 133.5 Z"/>
                <text id="text24" transform="matrix(0.999848 0.017452 -0.017452 0.999848 2.258402 -6.787248)" xml:space="preserve" x="380" y="133" font-family="Helvetica Neue" font-size="14" fill="#000000">29</text>
            </g>
            <g id="Graphic1014">
                <path id="path78" fill="#ebb671" fill-opacity="0.752108" stroke="none" d="M 289.833344 105.5 L 289.833344 97.596939 C 289.833344 95.241806 291.017639 93.044525 292.984924 91.749741 L 300.151581 87.032898 C 302.486969 85.495819 305.513031 85.495819 307.848419 87.032898 L 315.015076 91.749741 C 316.982361 93.044525 318.166656 95.241806 318.166656 97.596939 L 318.166656 105.5 C 318.166656 109.365997 315.032654 112.5 311.166656 112.5 L 296.833344 112.5 C 292.967346 112.5 289.833344 109.365997 289.833344 105.5 Z"/>
                <path id="path79" fill="none" stroke="#808080" stroke-linecap="round" stroke-linejoin="round" d="M 289.833344 105.5 L 289.833344 97.596939 C 289.833344 95.241806 291.017639 93.044525 292.984924 91.749741 L 300.151581 87.032898 C 302.486969 85.495819 305.513031 85.495819 307.848419 87.032898 L 315.015076 91.749741 C 316.982361 93.044525 318.166656 95.241806 318.166656 97.596939 L 318.166656 105.5 C 318.166656 109.365997 315.032654 112.5 311.166656 112.5 L 296.833344 112.5 C 292.967346 112.5 289.833344 109.365997 289.833344 105.5 Z"/>
                <text id="text25" transform="matrix(0.999848 0.017452 -0.017452 0.999848 1.756789 -5.308058)" xml:space="preserve" x="295" y="105" font-family="Helvetica Neue" font-size="14" fill="#000000">20</text>
            </g>
            <g id="Graphic1013">
                <path id="path80" fill="#8e7cc3" fill-opacity="0.746839" stroke="none" d="M 431.5 42.5 C 431.5 50.231995 425.157379 56.500023 417.333313 56.500023 C 409.509277 56.500023 403.166626 50.231995 403.166626 42.5 C 403.166626 34.768005 409.509277 28.499977 417.333313 28.499977 C 425.157379 28.499977 431.5 34.768005 431.5 42.5 Z"/>
                <path id="path81" fill="none" stroke="#808080" stroke-linecap="round" stroke-linejoin="round" d="M 431.5 42.5 C 431.5 50.231995 425.157379 56.500023 417.333313 56.500023 C 409.509277 56.500023 403.166626 50.231995 403.166626 42.5 C 403.166626 34.768005 409.509277 28.499977 417.333313 28.499977 C 425.157379 28.499977 431.5 34.768005 431.5 42.5 Z"/>
                <text id="text26" transform="matrix(0.999848 0.017452 -0.017452 0.999848 0.796817 -7.306161)" xml:space="preserve" x="409" y="49" font-family="Helvetica Neue" font-size="14" fill="#ffffff">12</text>
            </g>
            <g id="Graphic1012">
                <path id="path82" fill="#ebb671" fill-opacity="0.752108" stroke="none" d="M 261.5 77.5 L 261.5 69.596931 C 261.5 67.241798 262.684296 65.044533 264.651581 63.749741 L 271.818237 59.03289 C 274.153656 57.495819 277.179688 57.495819 279.515076 59.03289 L 286.681763 63.749741 C 288.649017 65.044533 289.833344 67.241798 289.833344 69.596931 L 289.833344 77.5 C 289.833344 81.365997 286.699341 84.5 282.833344 84.5 L 268.5 84.5 C 264.634003 84.5 261.5 81.365997 261.5 77.5 Z"/>
                <path id="path83" fill="none" stroke="#808080" stroke-linecap="round" stroke-linejoin="round" d="M 261.5 77.5 L 261.5 69.596931 C 261.5 67.241798 262.684296 65.044533 264.651581 63.749741 L 271.818237 59.03289 C 274.153656 57.495819 277.179688 57.495819 279.515076 59.03289 L 286.681763 63.749741 C 288.649017 65.044533 289.833344 67.241798 289.833344 69.596931 L 289.833344 77.5 C 289.833344 81.365997 286.699341 84.5 282.833344 84.5 L 268.5 84.5 C 264.634003 84.5 261.5 81.365997 261.5 77.5 Z"/>
                <text id="text27" transform="matrix(0.999848 0.017452 -0.017452 0.999848 1.263857 -4.823655)" xml:space="preserve" x="267" y="77" font-family="Helvetica Neue" font-size="14" fill="#000000">13</text>
            </g>
            <g id="Graphic1011">
                <path id="path84" fill="#8e7cc3" fill-opacity="0.746839" stroke="none" d="M 346.500031 70.5 C 346.500031 78.231995 340.157379 84.500023 332.333313 84.500023 C 324.509277 84.500023 318.166626 78.231995 318.166626 70.5 C 318.166626 62.768005 324.509277 56.499977 332.333313 56.499977 C 340.157379 56.499977 346.500031 62.768005 346.500031 70.5 Z"/>
                <path id="path85" fill="none" stroke="#808080" stroke-linecap="round" stroke-linejoin="round" d="M 346.500031 70.5 C 346.500031 78.231995 340.157379 84.500023 332.333313 84.500023 C 324.509277 84.500023 318.166626 78.231995 318.166626 70.5 C 318.166626 62.768005 324.509277 56.499977 332.333313 56.499977 C 340.157379 56.499977 346.500031 62.768005 346.500031 70.5 Z"/>
                <text id="text28" transform="matrix(0.999848 0.017452 -0.017452 0.999848 1.272538 -5.818442)" xml:space="preserve" x="324" y="77" font-family="Helvetica Neue" font-size="14" fill="#ffffff">15</text>
            </g>
            <g id="Graphic1010">
                <path id="path86" fill="#ebb671" fill-opacity="0.752108" stroke="none" d="M 374.833313 21.5 L 374.833313 13.596931 C 374.833313 11.241791 376.017639 9.044525 377.984924 7.749741 L 385.151581 3.032898 C 387.486969 1.495819 390.513031 1.495819 392.848419 3.032898 L 400.015076 7.749741 C 401.982361 9.044525 403.166687 11.241791 403.166687 13.596931 L 403.166687 21.5 C 403.166687 25.36599 400.032654 28.5 396.166687 28.5 L 381.833313 28.5 C 377.967346 28.5 374.833313 25.36599 374.833313 21.5 Z"/>
                <path id="path87" fill="none" stroke="#808080" stroke-linecap="round" stroke-linejoin="round" d="M 374.833313 21.5 L 374.833313 13.596931 C 374.833313 11.241791 376.017639 9.044525 377.984924 7.749741 L 385.151581 3.032898 C 387.486969 1.495819 390.513031 1.495819 392.848419 3.032898 L 400.015076 7.749741 C 401.982361 9.044525 403.166687 11.241791 403.166687 13.596931 L 403.166687 21.5 C 403.166687 25.36599 400.032654 28.5 396.166687 28.5 L 381.833313 28.5 C 377.967346 28.5 374.833313 25.36599 374.833313 21.5 Z"/>
                <text id="text29" transform="matrix(0.999848 0.017452 -0.017452 0.999848 0.303733 -6.804306)" xml:space="preserve" x="384" y="21" font-family="Helvetica Neue" font-size="14" fill="#000000">5</text>
            </g>
            <g id="Graphic1009">
                <path id="path88" fill="#d473c0" fill-opacity="0.754156" stroke="none" d="M 353.5 28.5 L 367.833313 28.5 C 371.699341 28.5 374.833313 31.634003 374.833313 35.5 L 374.833313 49.5 C 374.833313 53.365997 371.699341 56.5 367.833313 56.5 L 353.5 56.5 C 349.634003 56.5 346.5 53.365997 346.5 49.5 L 346.5 35.5 C 346.5 31.634003 349.634003 28.5 353.5 28.5 Z"/>
                <path id="path89" fill="none" stroke="#808080" stroke-linecap="round" stroke-linejoin="round" d="M 353.5 28.5 L 367.833313 28.5 C 371.699341 28.5 374.833313 31.634003 374.833313 35.5 L 374.833313 49.5 C 374.833313 53.365997 371.699341 56.5 367.833313 56.5 L 353.5 56.5 C 349.634003 56.5 346.5 53.365997 346.5 49.5 L 346.5 35.5 C 346.5 31.634003 349.634003 28.5 353.5 28.5 Z"/>
                <text id="text30" transform="matrix(0.999848 0.017452 -0.017452 0.999848 0.788135 -6.311374)" xml:space="preserve" x="352" y="49" font-family="Helvetica Neue" font-size="14" fill="#ffffff">10</text>
            </g>
            <g id="Line1509">
                <path id="path90" fill="none" stroke="#ffffff" stroke-width="1.3" stroke-linecap="round" stroke-linejoin="round" d="M 184.5 70.5 L 234.699997 70.5"/>
                <path id="Path-copy" fill="none" stroke="#ffffff" stroke-width="1.3" stroke-linecap="round" stroke-linejoin="round" d="M 228.5 75.5 L 236 70"/>
                <path id="Path-copy-2" fill="none" stroke="#ffffff" stroke-width="1.3" stroke-linecap="round" stroke-linejoin="round" d="M 228.000031 63.999985 L 236 70"/>
            </g>
        </g>
    </g>
</svg>
