<?xml version="1.0" encoding="UTF-8"?>
<svg id="Layer_1" data-name="Layer 1" xmlns="http://www.w3.org/2000/svg" xmlns:xlink="http://www.w3.org/1999/xlink" viewBox="0 0 169.71 210.38">
  <defs>
    <style>
      .cls-1 {
        fill: #ebb871;
      }

      .cls-1, .cls-2, .cls-3, .cls-4, .cls-5 {
        fill-rule: evenodd;
      }

      .cls-2 {
        fill: url(#radial-gradient);
      }

      .cls-3 {
        fill: url(#linear-gradient);
      }

      .cls-4 {
        fill: url(#radial-gradient-3);
      }

      .cls-5 {
        fill: url(#radial-gradient-2);
      }
    </style>
    <linearGradient id="linear-gradient" x1="-460.47" y1="1530.17" x2="-460.47" y2="1523.95" gradientTransform="translate(2954.6 9660.81) scale(6.22 -6.22)" gradientUnits="userSpaceOnUse">
      <stop offset="0" stop-color="#343479"/>
      <stop offset="1" stop-color="#0e0e1c"/>
    </linearGradient>
    <radialGradient id="radial-gradient" cx="-495.17" cy="1605.7" fx="-495.17" fy="1605.7" r="9.3" gradientTransform="translate(4692.01 15006.79) scale(9.3 -9.3)" gradientUnits="userSpaceOnUse">
      <stop offset="0" stop-color="#343479"/>
      <stop offset="1" stop-color="#0e0e1c"/>
    </radialGradient>
    <radialGradient id="radial-gradient-2" cx="-485.82" cy="1587.49" fx="-485.82" fy="1587.49" r="8.21" gradientTransform="translate(4076.73 13113.57) scale(8.21 -8.21)" gradientUnits="userSpaceOnUse">
      <stop offset="0" stop-color="#d473c9"/>
      <stop offset="1" stop-color="#0e0e1c"/>
    </radialGradient>
    <radialGradient id="radial-gradient-3" cx="-422.43" cy="1470.85" fx="-422.43" fy="1470.85" r="4.57" gradientTransform="translate(2019.84 6784.58) scale(4.57 -4.57)" gradientUnits="userSpaceOnUse">
      <stop offset="0" stop-color="#343479"/>
      <stop offset="1" stop-color="#0e0e1c"/>
    </radialGradient>
  </defs>
  <path class="cls-3" d="M50.13,137.79c2.49.65,8.95,4.71,13.93,6.56,4.99,1.84,10.86,3.76,15.98,4.51,5.12.75,10.48.38,14.75,0,4.27-.38,7.1-1.3,10.86-2.25,3.76-.96,8.23-1.94,11.68-3.48,3.45-1.54,7.31-5.16,9.01-5.74,1.71-.58-.24-.34,1.23,2.25,1.47,2.59,6.01,9.93,7.58,13.31s1.78,4.99,1.85,6.97.99,3.24-1.44,4.92-6.59,3.38-13.11,5.12-20.55,4.37-26.02,5.33c-5.46.96-3.93.45-6.76.41-2.83-.03-5.19.1-10.24-.62-5.05-.72-14.17-2.15-20.08-3.69s-12.26-3.86-15.36-5.53-2.73-2.9-3.28-4.51c-.55-1.6-1.13-2.15,0-5.12,1.13-2.97,5.36-10.07,6.76-12.7,1.4-2.63,1.19-2.12,1.64-3.07s-1.47-3.31,1.02-2.66Z"/>
  <path class="cls-2" d="M27.9,80.57h0c0-33.75,27.36-61.1,61.1-61.1h0c16.21,0,31.75,6.44,43.21,17.9,11.46,11.46,17.9,27,17.9,43.21h0c0,33.75-27.36,61.1-61.1,61.1h0c-33.75,0-61.1-27.36-61.1-61.1Z"/>
  <path class="cls-5" d="M41.5,83.54h0c0-26.31,21.33-47.64,47.64-47.64h0c12.63,0,24.75,5.02,33.69,13.95,8.93,8.93,13.95,21.05,13.95,33.68h0c0,26.31-21.33,47.64-47.64,47.64h0c-26.31,0-47.64-21.33-47.64-47.64Z"/>
  <path class="cls-4" d="M70.82,60.93c.17-2.15,3.76-4.57,5.53-6.14,1.78-1.57,2.22-2.63,5.12-3.28,2.9-.65,8.19-1.67,12.29-.61s10.45,5.43,12.29,6.96c1.84,1.54.1.51-1.23,2.25-1.33,1.74-3.62,6.28-6.76,8.19-3.14,1.91-8.3,3.38-12.09,3.28-3.79-.1-8.12-2.12-10.65-3.89s-4.68-4.61-4.51-6.76Z"/>
  <path class="cls-1" d="M148.09,58.62c3.2,0,6.29.27,9.29,1.29,3.95,1.38,4.9,3.83,2.57,7.34-2.51,3.95-6.15,6.59-10.1,9.54-.56-6.4-1.81-12.23-4.01-18.13.75-.02,1.5-.04,2.25-.04ZM89.01,36.37c3.03,0,6.04.32,9.05,1.03,2.13.57,3.89,1.88,5.58,3.32,4.89,4.14,7.71,9.47,8.59,15.86.25,1.25.19,2.51.32,3.77-.44,9.59-4.2,17.37-12.55,22.26-3.73,2.27-7.71,3.33-11.59,3.33-7.12,0-13.91-3.58-18.26-9.8-9.28-13.11-4.58-31.6,9.72-38.56,2.01-1.07,4.14-.94,6.27-1.13.97-.07,1.92-.1,2.88-.1ZM74.28,38.72c-5.27,4.51-8.53,9.97-9.85,16.49-2.95,12.92,3.45,26.28,15.86,30.99,2.62.96,5.35,1.42,8.08,1.42,7.24,0,14.42-3.28,19.39-9.2,4.08-5.02,6.08-10.73,6.33-17.18.25-8.53-2.63-15.68-8.91-21.45-.13-.18-.18-.25-.43-.5.06,0,.11,0,.16,0,.55,0,.94.27,1.34.38,15.68,6.78,25.4,18.38,28.85,35.12.63,2.89.69,5.96.88,8.97,0,1-.31,1.63-1.25,2.13-14.99,7.84-30.6,14.11-46.59,19.44-10.85,3.64-22.01,6.78-33.31,9.16-.23.07-.42.1-.58.1-.46,0-.72-.24-1.05-.66-5.01-5.9-8.4-12.67-10.22-20.2-1.07-4.7-1.39-9.53-.94-14.24,1.57-15.67,9.03-27.72,22.45-36.12,2.32-1.5,4.83-2.63,7.47-3.76.75-.32,1.56-.57,2.32-.88ZM88.81,21.91c14.41,0,27.52,5.18,39.02,15.24,9.85,8.72,16,19.76,18.75,32.61.5,2.51.75,5.2,1,7.78,0,.38.07.81-.31,1-2.89,1.88-5.9,3.7-9.1,5.46.25-21.89-14.04-40.7-33.8-47.23-4.88-1.61-9.95-2.37-15-2.37-14.46,0-28.72,6.33-37.75,17.49-7.46,9.28-11.47,19.69-11.47,31.67s3.95,22.26,11.47,31.61c-3.44.69-6.77,1.25-10.09,1.63-.09.01-.17.02-.25.02-.58,0-.86-.39-1.13-.77-3.95-5.58-6.9-11.6-8.85-18.19-2.01-6.96-2.82-14.11-2.2-21.33.88-10.53,4.27-20.13,10.23-28.78,9.28-13.48,22.08-22.01,38.25-24.84,3.82-.67,7.56-1,11.21-1ZM29.06,98.17c1.95,6.97,5.08,13.23,9.16,19.13-3.2.28-6.25.55-9.3.55-1.08,0-2.16-.03-3.24-.11-1.95-.13-3.89-.32-5.77-.94-.75-.19-1.44-.44-2.13-.75-2.39-1.25-3.07-3.13-1.88-5.58.69-1.38,1.63-2.57,2.63-3.77,1.44-1.56,3.01-3.07,4.7-4.39,1.88-1.38,3.7-2.82,5.83-4.14ZM135.74,87.26h0c-.43,6.02-1.94,11.6-4.51,16.93-4.83,9.97-12.36,17.24-22.26,21.89-6.58,3.07-13.39,4.47-20,4.47-13.14,0-25.51-5.51-33.81-14.44,28.1-6.21,54.88-15.67,80.59-28.85ZM147.59,80.36c.69,23.27-13.67,47.92-39.82,57.08-6.41,2.23-12.98,3.29-19.43,3.29-18.33,0-35.76-8.49-46.42-22.35,1.57-.32,3.07-.57,4.51-.75,1.76-.25,3.45-.5,5.2-.88.24-.06.43-.1.6-.1.49,0,.8.25,1.22.66,5.46,5.77,11.98,10.03,19.51,12.61,5.05,1.79,10.23,2.74,15.52,2.74,1.01,0,2.03-.04,3.04-.11,23.39-1.38,41.02-18.31,45.47-39.01.5-2.26.88-4.64,1-6.96.13-.38.13-.63.5-.88,2.95-1.7,5.96-3.52,9.09-5.34ZM124.7,131.41c2.82,1.32,3.07,4.39.57,6.02-3.64,2.38-7.22,4.64-11.42,5.96-.69.25-1.94.31-1.63,1.25.14.43.38.57.66.57.46,0,1.04-.38,1.47-.5,4.45-1.14,8.28-3.64,12.17-6.27,1.7,2.07,2.7,4.51,4.08,6.9-.37-.04-.72-.05-1.06-.05-5.09,0-7.89,3.38-10.35,7.2-.94,1.57-1.76,3.14-2.64,4.7-.04.01-.08.02-.12.02-.15,0-.21-.12-.26-.27-1.41-2.34-3.77-3.64-6.31-3.64-.86,0-1.73.15-2.6.45-3.51,1.19-5.83,3.83-8.21,6.58-1.32,1.57-2.57,3.13-3.83,4.7-.38.5-.88.94-1.44,1.31-2.04,1.44-3.51,2.21-4.97,2.21-1.59,0-3.18-.91-5.5-2.84-2.51-2.06-4.02-5.08-6.27-7.34-2.2-2.2-4.45-4.26-7.72-4.89-.43-.07-.88-.11-1.3-.11-2.62,0-4.94,1.29-6.34,3.55-.07.13-.07.32-.5.32-.63-1.07-1.26-2.2-1.89-3.51-1.06-1.95-2.31-3.95-3.95-5.52-2.44-2.32-4.26-2.95-7.96-2.95.32-1.5,2.63-5.58,3.95-6.96,6.96,6.27,15.49,8.71,24.39,10.35,3.7.72,7.45.91,11.21.91,2.48,0,4.95-.08,7.42-.15,4.39-.13,8.53-1.32,12.73-2.51.38-.13,1-.25.81-.81-.07-.32-.29-.42-.54-.42-.19,0-.4.05-.59.1-2.76.63-5.46,1.25-8.15,1.7-3.04.51-6.07.72-9.11.72-.72,0-1.45,0-2.17-.04-7.78-.13-15.3-1.06-22.58-3.82-3.94-1.51-7.64-3.27-10.91-5.96-.81-.56-1.5-1.19-2.06-1.94-1.64-2.14-1.39-3.2.88-4.9.63,1.5,1.94,2.45,3.19,3.38,5.96,4.52,12.86,7.03,20.07,8.6,4.22.94,8.54,1.42,12.84,1.42,1.45,0,2.9-.06,4.34-.17,10.34-.56,20.07-3.38,28.28-10.16,1.25-.94,2.32-2.13,3.32-3.2ZM48.75,146.85c.37,0,.75.06,1.13.18,2.7.82,4.58,2.64,6.15,4.77,1.32,1.88,2.45,3.83,3.58,5.77.31.5.63,1.06,1.13,1.44.3.25.58.38.83.38.32,0,.61-.23.86-.76,1.23-2.54,3.15-3.89,5.38-3.89,1.08,0,2.22.31,3.4.94,3.01,1.7,5.14,4.27,7.14,6.84,1.51,1.94,2.89,4.01,4.96,5.39,1.5,1.07,3.07,1.75,4.76,2.2.27.07.54.1.8.1.67,0,1.33-.19,1.95-.42,3.39-1.06,5.71-3.32,7.78-6.08,1.63-2.38,3.45-4.64,5.71-6.46,1.39-1.13,2.95-2.07,4.83-2.38.29-.05.6-.08.89-.08,2.15,0,4.24,1.36,5.07,3.34.18.5.18,1.19.94,1.25.11.03.21.04.31.04.62,0,.99-.49,1.26-.97,1.44-2.14,2.76-4.39,4.2-6.52,1.25-1.95,2.95-3.51,5.14-4.45.76-.33,1.43-.49,2.03-.49,1.36,0,2.39.81,3.3,2.37,1.89,3.2,3.39,6.52,4.08,10.23.32,1.38-.13,2.57-1.06,3.58-1.7,1.75-3.77,2.69-5.96,3.45-7.4,2.76-14.93,4.95-22.71,6.14-5.65.82-11.16,1.75-16.81,2.07-.55.04-1.09.05-1.64.05-3.2,0-6.36-.58-9.52-1.05-3.83-.57-7.65-.88-11.54-1.7-6.84-1.5-13.48-3.32-20.01-5.96-1.75-.75-3.38-1.57-4.77-3.01-.81-1-1.38-2.14-1-3.7h0c3.16,3.05,3.94,3.77,5.1,3.77.23,0,.46-.03.73-.07-1.75-2.26-4.39-3.58-5.2-6.4h0c5.59,6.02,13.11,8.15,20.45,10.66l3.07.94c.26.07.55.18.8.18s.43-.1.52-.43c.25-.69-.5-.57-.94-.69-5.15-1.75-10.42-3.32-15.25-5.9-2.76-1.5-5.46-3.19-7.39-5.71-.44-.63-.57-1.13-.25-1.75.88-1.95,1.81-3.76,2.94-5.58.62-1.05,1.67-1.62,2.82-1.62ZM89.18,19.42c-3.75,0-7.59.33-11.51.99-11.23,1.88-21.32,6.58-29.79,14.24-18.12,16.43-24.39,36.81-19.51,60.64.19.94.07,1.32-.75,1.88-3.26,2.2-6.39,4.52-9.22,7.34-1.75,1.75-3.32,3.63-4.14,5.96-.56,1.75-.56,3.32.5,4.76,1.07,1.44,2.64,2.14,4.2,2.7,2.7.94,5.52,1,8.35,1.19.55.01,1.11.03,1.67.03,3.09,0,6.21-.28,9.24-.6.15,0,.29-.01.42-.01.56,0,.93.13,1.33.64,3.2,4.14,7.03,7.78,11.16,10.98-1.75,2.01-2.88,3.26-1.31,6.58.25.44-.07.69-.25.94-2.2,3.07-3.64,6.4-5.33,9.78-1.64,3.38-3.32,6.65-4.2,10.35-.88,3.51-.19,5.58,2.82,7.71,1,.69,2.01,1.25,3.13,1.7,7.03,3.01,14.42,5.01,21.89,6.52,3.32.69,6.78,1.07,10.22,1.57,3.64.44,7.15,1.07,10.79,1.07,5.64-.07,11.1-1.14,16.62-1.89,6.02-.69,11.91-2.26,17.69-4.08,3.76-1.25,7.59-2.31,11.04-4.45,1.88-1.06,3.39-2.51,3.77-4.76.25-1.5-.13-3.01-.63-4.39-2.2-6.52-5.34-12.72-8.91-18.56-.32-.5-.82-.81-.5-1.56,1.19-3.07.75-4.58-2.01-6.59,2.01-1.69,4.14-3.38,5.96-5.51,12.17-12.48,18.25-27.34,18-44.84,0-.94.25-1.5,1.07-2.01,3.57-2.63,7.08-5.33,9.78-9.03,3.58-4.89,2.19-8.71-3.52-10.41-3.63-1.13-7.34-.94-10.97-1.25-.88-.13-1.26-.32-1.57-1.13-3.77-8.28-9.03-15.62-15.99-21.58-11.82-9.97-25.02-14.91-39.54-14.91Z"/>
  <path class="cls-1" d="M49.31,93.91h-.05c-.75.13-.94.56-.94,1.25,0,1.13.94,2.32,1.81,2.32.69,0,.88-.5.88-1.07-.06-1.11-.96-2.51-1.7-2.51Z"/>
  <path class="cls-1" d="M53.8,71.01c-.57,0-.9.48-.9,1.08,0,.5.06,1.25.88,1.31.03,0,.06,0,.09,0,.69,0,.91-.66.97-1.19,0-.76-.31-1.19-.94-1.19-.04,0-.07,0-.1,0Z"/>
  <path class="cls-1" d="M51.73,85.04c-.54,0-.8.43-.91,1.21.13.32,0,1,.88,1.19.69,0,.94-.5,1-1.13.13-.63-.06-1.19-.75-1.26-.08,0-.15-.01-.22-.01Z"/>
  <path class="cls-1" d="M52.94,96.09c-.26,0-.36.28-.36.51.13.88.88.69,1.63.94-.06-1-.38-1.44-1.19-1.44-.03,0-.06,0-.08,0Z"/>
  <path class="cls-1" d="M110.66,34.95c-.69,0-1.07.44-1.07,1.13,0,.76,1.13,1.51,2.32,1.51.56,0,1-.19,1-.82,0-.75-1.32-1.82-2.26-1.82Z"/>
  <path class="cls-1" d="M62.07,34.51c-.05,0-.1,0-.15,0-.88.06-1.82.31-1.89,1.38-.13.75.38,1.07,1.26,1.13.63-.31,1.69-.25,1.88-1.44.06-.69-.48-1.07-1.11-1.07Z"/>
  <path class="cls-1" d="M113.35,33.54c-.44,0-.81.23-.81.79,0,1.19,1.13,1.13,1.75,1.38.07,0,.15.01.21.01.5,0,.79-.21.79-.77,0-1.06-.82-1.31-1.63-1.38-.11-.02-.21-.04-.32-.04Z"/>
  <path class="cls-1" d="M127.38,100.36s-.07,0-.1,0c-1,.07-1,.94-1.07,1.57-.12.66,0,1.19.59,1.19.04,0,.07,0,.1,0,1.07-.13,1.19-1.06,1.25-1.81.06-.47-.21-.95-.77-.95Z"/>
  <path class="cls-1" d="M123.4,103.41c-.06,0-.13,0-.2.02-.75,0-1,.5-1,1.13,0,.57.31.94.94.94.76,0,1.01-.44,1.01-1.13-.06-.56-.26-.97-.74-.97Z"/>
  <path class="cls-1" d="M72.45,168.9c-.69,0-1.3.25-1.56.76.83.37,1.57.56,2.17.56s1.11-.21,1.4-.62c-.58-.46-1.34-.7-2.01-.7Z"/>
  <path class="cls-1" d="M88.02,51.45c2.19,0,3.82,1.94,3.82,4.51s-1.38,4.02-3.82,4.08c-2.32,0-3.7-1.57-3.7-4.14,0-2.76,1.38-4.45,3.7-4.45ZM94.66,52.14c2.57.82,4.58,1.95,6.47,3.39,1.25.94,2.31,2.01,3.44,3.13.63.57.69,1.07.19,1.88-3.91,6.13-9.12,9.59-16.29,9.59-.54,0-1.08-.01-1.64-.06-6.4-.43-11.23-3.76-15.11-8.65,1.88-3.13,4.7-5.33,7.84-7.53h0c-3.21,7.59,3.36,13.39,9.41,13.39.55,0,1.1-.05,1.63-.15,4.39-.88,6.72-3.01,7.34-6.96.5-2.51-.44-4.7-2.01-6.58-.31-.5-.63-.82-1.25-1.44ZM86.95,45.72c-.06,0-.13,0-.19.02-.69.06-.94.69-.94,1.31v2.64c-2.7.43-4.95,1.44-7.22,2.51-.56-.75-1-1.38-1.56-2.01-.23-.31-.52-.47-.85-.47-.21,0-.43.07-.66.22-.57.38-.63.94-.25,1.56.43.63.81,1.25,1.25,1.95-.38.31-.69.56-1.13.88-2.01,1.57-3.95,3.2-5.27,5.4-.82,1.25-.63,2.26.25,3.38,1.44,1.95,3.26,3.58,5.2,5.02-.63.94-1.25,1.81-1.75,2.76-.44.63-.5,1.32.18,1.75.28.19.53.27.77.27.46,0,.83-.32,1.12-.77l1.88-2.82c2.95,1.57,5.9,2.38,9.22,2.63,0,1.19.13,2.26.38,3.39.13.66.41,1.26,1.2,1.26.04,0,.08,0,.12,0,.94-.07,1.13-.82,1.13-1.5,0-1.07-.18-2.13-.25-3.2,1.88-.07,3.77-.25,5.4-1.13.85-.44,1.61-.7,2.31-.7,1,0,1.87.54,2.64,1.83.27.39.72.69,1.18.69.28,0,.57-.11.83-.37.82-.69.44-1.51-.18-2.14-.57-.56-1.14-1.06-1.51-1.81,2.01-1.44,3.83-3.2,5.27-5.34,2.51-3.63,2.38-3.89-.88-6.89-1.75-1.57-3.64-2.95-5.65-4.14.44-.69.94-1.38,1.32-2.01.31-.57.82-1.25.06-1.82-.24-.2-.5-.29-.74-.29-.44,0-.86.29-1.14.73-.73,1.42-1.64,2.02-2.76,2.02-.62,0-1.3-.18-2.06-.52-1.75-.69-3.63-.44-5.39-.63-.25-.94-.13-1.82-.32-2.57-.23-.57-.46-1.08-1-1.08Z"/>
  <path class="cls-1" d="M55.96,124.82c-.75,0-1.13.31-1.13,1,0,.88.5,1.32,1.32,1.44.04,0,.09,0,.13,0,.55,0,.94-.38.94-1.08,0-.75-.57-1.38-1.26-1.38Z"/>
  <path class="cls-1" d="M88.14,159.24c.07,0,.13,0,.19.01.88,0,1.32.5,1.38,1.44-.12.6-.29,1.38-.99,1.38h-.07c-.88-.13-1.51-.75-1.44-1.7,0-.62.36-1.14.94-1.14ZM88.33,157.05c-1.75,0-3.32,1.7-3.32,3.58s1.75,3.52,3.7,3.52c.07,0,.13,0,.19,0,1.73,0,3.01-1.64,3.01-3.58.13-1.95-1.57-3.52-3.58-3.52Z"/>
</svg>