<?xml version="1.0" encoding="UTF-8"?>
<svg id="Layer_1" data-name="Layer 1" xmlns="http://www.w3.org/2000/svg" xmlns:xlink="http://www.w3.org/1999/xlink" viewBox="0 0 202.87 212.01">
  <defs>
    <style>
      .cls-1 {
        fill: #ebb871;
      }

      .cls-1, .cls-2, .cls-3, .cls-4, .cls-5, .cls-6 {
        fill-rule: evenodd;
      }

      .cls-2 {
        fill: url(#radial-gradient);
      }

      .cls-3 {
        fill: url(#radial-gradient-5);
      }

      .cls-4 {
        fill: url(#radial-gradient-4);
      }

      .cls-5 {
        fill: url(#radial-gradient-3);
      }

      .cls-6 {
        fill: url(#radial-gradient-2);
      }
    </style>
    <radialGradient id="radial-gradient" cx="-286.8" cy="1033.61" fx="-286.8" fy="1033.61" r="8.31" gradientTransform="translate(2481.82 8725.2) scale(8.31 -8.31)" gradientUnits="userSpaceOnUse">
      <stop offset="0" stop-color="#d473c9"/>
      <stop offset="1" stop-color="#0e0e1c"/>
    </radialGradient>
    <radialGradient id="radial-gradient-2" cx="-259.12" cy="938.94" fx="-259.12" fy="938.94" r="5.46" gradientTransform="translate(1513.22 5159.33) scale(5.46 -5.46)" gradientUnits="userSpaceOnUse">
      <stop offset="0" stop-color="#343479"/>
      <stop offset="1" stop-color="#0e0e1c"/>
    </radialGradient>
    <radialGradient id="radial-gradient-3" cx="-259.35" cy="925.23" fx="-259.35" fy="925.23" r="5.57" gradientTransform="translate(1552.82 5305.09) scale(5.57 -5.57)" gradientUnits="userSpaceOnUse">
      <stop offset="0" stop-color="#343479"/>
      <stop offset="1" stop-color="#0e0e1c"/>
    </radialGradient>
    <radialGradient id="radial-gradient-4" cx="-250.81" cy="881.04" fx="-250.81" fy="881.04" r="4.81" gradientTransform="translate(1293.24 4349.49) scale(4.81 -4.81)" gradientUnits="userSpaceOnUse">
      <stop offset="0" stop-color="#343479"/>
      <stop offset="1" stop-color="#0e0e1c"/>
    </radialGradient>
    <radialGradient id="radial-gradient-5" cx="-228.04" cy="810.51" fx="-228.04" fy="810.51" r="3.98" gradientTransform="translate(1012.63 3316.43) scale(3.98 -3.98)" gradientUnits="userSpaceOnUse">
      <stop offset="0" stop-color="#343479"/>
      <stop offset="1" stop-color="#0e0e1c"/>
    </radialGradient>
  </defs>
  <path class="cls-2" d="M44.62,134.55c1.09-5.67,4.1-13.45,7.38-20.08,3.28-6.62,8.4-16.32,12.29-19.67,3.89-3.35,5.6-1.95,11.06-.41,5.46,1.54,15.16,7.55,21.72,9.63s13.11,3.14,17.62,2.87c4.51-.27,6.55-2.08,9.42-4.51,2.87-2.42,3.72-13.21,7.78-10.04s13.25,21.71,16.59,29.09,3.07,10.31,3.48,15.16c.41,4.85.62,8.98-1.02,13.93-1.64,4.95-4.57,11.71-8.81,15.77s-9.56,6.69-16.59,8.6c-7.03,1.91-17.24,2.66-25.61,2.87-8.37.2-17.89-.27-24.58-1.64s-11.16-3.72-15.57-6.55c-4.4-2.83-8.47-6.93-10.86-10.45s-2.77-6.56-3.48-10.65c-.72-4.1-1.91-8.26-.82-13.93Z"/>
  <path class="cls-6" d="M75.15,26.08l4.3,11.88,2.46,10.86.61,3.69h27.04l5.33.2,2.25-9.22,4.3-14.14,1.43-3.28-4.71-2.66-7.38-4.71-10.04-1.64-10.24,1.03-10.24,4.1-5.12,3.89Z"/>
  <path class="cls-1" d="M98.93,33.59c-6.93,0-14.36.2-21.58,1.31-2.11.4-4.72,1-6.03,3.21-1,1.71-.7,4.12.8,5.52.9.9,2.29,1.57,3.65,1.57.47,0,.93-.08,1.38-.26h0c3.1,11.03.09,22.08-2.91,29.61-3.41,8.24-8.13,15.86-12.95,23.3-.91,1.2-1.6,2.61-2.51,3.81-5.12,8.24-10.94,17.77-13.45,28.41-2.71,11.25-1.11,22.49,4.32,30.53,4.61,6.73,12.54,11.94,22.19,14.75,8.93,2.51,18.37,2.91,26.71,3.12.3,0,.5-.2.5-.71,0-.4-.2-.6-.5-.6-8.13-.4-17.57-.7-26.31-3.21-9.54-2.61-17.27-7.73-21.58-14.26-5.22-7.64-6.73-18.57-4.01-29.62,2.5-10.43,8.13-19.97,13.25-28,.9-1.2,1.6-2.61,2.5-3.92,4.83-7.33,9.64-15.06,13.05-23.28,3.12-7.84,6.12-19.58,2.61-31.02-.09-.11-.2-.4-.3-.4-.11-.05-.2-.07-.3-.07-.08,0-.17.02-.21.07-.37.25-.8.34-1.26.34-1.07,0-2.28-.54-3.06-1.25-1.1-.9-1.4-2.81-.6-4.11,1-1.71,3.42-2.31,5.32-2.62,7.13-1.1,14.36-1.3,21.29-1.3.3,0,.5-.2.5-.4,0-.31-.2-.51-.5-.51Z"/>
  <path class="cls-1" d="M98.22,33.79c-.3,0-.5.31-.5.51s.2.5.5.5c6.73,0,14.16.11,21.29,1.31,2.01.3,4.31.8,5.32,2.61.7,1.2.5,3.12-.71,4.12-.71.7-1.9,1.2-2.96,1.2-.46,0-.9-.09-1.25-.31h-.51c-.3.11-.4.2-.4.4-3.52,11.55-.5,23.2,2.61,30.93,3.42,8.33,8.33,15.96,13.05,23.39.91,1.2,1.71,2.61,2.51,3.92,5.22,8.02,10.85,17.56,13.35,27.9,2.71,11.05,1.2,21.89-4.01,29.62-4.52,6.53-12.14,11.74-21.58,14.36-8.64,2.5-18.07,2.9-26.4,3.1-.2.11-.51.4-.51.6,0,.31.31.51.51.51,8.43-.31,17.87-.6,26.71-2.81,9.83-2.82,17.56-8.04,22.28-14.86,5.52-7.93,7.03-19.08,4.21-30.53-2.61-10.63-8.23-20.17-13.45-28.3-.8-1.31-1.6-2.62-2.5-3.92-4.72-7.43-9.44-15.06-12.85-23.19-3.21-7.53-6.03-18.68-2.91-29.62h0c.4.15.84.22,1.27.22,1.37,0,2.84-.65,3.75-1.63,1.4-1.4,1.81-3.72.8-5.52-1.31-2.11-3.92-2.71-6.03-3.12-7.33-1.3-14.75-1.4-21.58-1.4Z"/>
  <path class="cls-1" d="M99.33,17.83c8.23,0,15.26,2.81,22.68,8.93-3.1,6.82-6.53,16.86-7.22,24.99-5.32-2.41-10.94-3.52-16.37-3.52s-10.64,1.11-15.55,3.52c-.71-8.33-4.12-18.37-7.23-24.99,7.13-5.92,15.06-8.93,23.59-8.93h.11ZM99.42,16.83c-8.93,0-17.16,3.21-24.59,9.43-.09.11-.3.4-.09.6,3.21,6.83,6.73,17.47,7.33,25.81,0,.2.2.3.3.5.05.05.15.07.25.07.11,0,.2-.02.26-.07,4.71-2.51,10.11-3.76,15.66-3.76s11.25,1.25,16.56,3.76h.31s.09,0,.4-.2c.09,0,.2-.2.2-.3.6-8.34,4.12-18.98,7.42-25.81.11-.2.11-.5-.09-.6-7.73-6.42-15.26-9.43-23.79-9.43h-.11Z"/>
  <path class="cls-1" d="M98.47,49.33c4.87,0,9.84.98,14.61,2.94-5.2.46-10.27.71-15.16.71s-9.15-.22-13.44-.71c4.37-1.96,9.13-2.94,14-2.94ZM98.53,48.17c-5.7,0-11.25,1.33-16.17,3.99-.09.11-.2.31-.2.6.11.2.2.51.51.51,4.81.6,10.14.9,15.66.9s11.14-.4,17.06-.9c.2-.11.5-.31.5-.51.11-.3,0-.5-.3-.6-5.52-2.66-11.38-3.99-17.06-3.99Z"/>
  <path class="cls-1" d="M98.5,48.79c-5.5,0-10.94,1.23-15.84,3.88,5.15.63,10.39.9,15.64.9,5.71,0,11.44-.33,17.09-.9-5.3-2.53-11.12-3.88-16.89-3.88Z"/>
  <path class="cls-5" d="M129.23,131.23c-.93,0-1.9.12-2.8.34-3.62.91-7.03,3.12-9.55,5.92-2.61,2.71-4.61,6.02-6.31,9.54.2-.7-.11-1.3-.51-1.7-.41-.42-.91-.64-1.4-.64-.11,0-.2.01-.31.02-.6.11-1.3.51-1.6,1.01-.3.3-.4.6-.3,1,0,.22.04.46.14.66h0c-2.63-2.48-5.71-4.65-8.87-6.18-2.77-1.31-5.89-2.15-8.95-2.15-.71,0-1.4.05-2.1.14-1.31.09-2.51.5-3.72,1.1-1.1.71-2.01,1.71-2.31,2.81,1.01,3.02,2.22,6.12,4.02,8.93.7,1.22,1.6,2.31,2.7,3.22,1.03.84,2.4,1.42,3.72,1.42.09,0,.2-.01.31-.01h0c-.11,2.1,1.1,4.41,2.81,5.62,1.24,1.01,2.86,1.55,4.45,1.55.46,0,.92-.05,1.37-.14,2.01-.4,3.92-1.81,5.03-3.5,1.2-1.82,1.81-4.02,3.51-5.03,0,1.2.31,2.61.91,3.72.09.3.4.71.6.91.22.22.51.33.77.33.08,0,.17-.01.24-.04.31,0,.51-.3.71-.5.09-.31.2-.51.2-.81.4-1.5.3-3.01-.2-4.21h0c2.01.31,3.3,2.21,5.11,3.32,1.33,1.01,2.95,1.53,4.56,1.53.46,0,.92-.04,1.37-.13,2.02-.4,4.02-1.6,5.03-3.41,1-1.71,1.3-4.32.5-6.23,1.31-.4,2.51-1.5,3.22-2.81.8-1.2,1.1-2.61,1.4-4.01.6-3.12.7-6.53.5-9.74-.8-1-2.01-1.51-3.32-1.81-.3-.04-.6-.05-.91-.05Z"/>
  <path class="cls-1" d="M129.1,131.71c.37,0,.71.02,1.04.06,1.31.11,2.31.6,2.91,1.4.31,3.41.11,6.63-.5,9.44-.2,1.2-.6,2.61-1.42,3.81-.7,1.31-1.7,2.21-2.81,2.51-.2,0-.3.2-.4.3v.51c.71,1.6.51,4.01-.5,5.72-1,1.7-2.81,2.81-4.63,3.21-.37.06-.73.08-1.1.08-1.56,0-3.13-.5-4.41-1.39-.51-.3-1.01-.9-1.51-1.2-1.2-1-2.31-2.01-3.92-2.3-.09,0-.4.2-.5.3-.11.11-.31.4-.11.51.31,1.2.51,2.61.2,3.91-.09.2-.09.51-.2.6,0,.11-.2.2-.3.2-.04.07-.08.09-.14.09-.13,0-.3-.12-.37-.19-.2-.11-.4-.4-.5-.6-.51-1-.91-2.31-.91-3.52,0-.3-.11-.4-.2-.5-.05-.06-.15-.08-.25-.08-.11,0-.2.02-.26.08-1.4.7-2.1,2.1-2.81,3.5-.2.51-.5,1.11-.8,1.62-1,1.81-2.81,2.9-4.72,3.3-.38.06-.77.09-1.14.09-1.62,0-3.15-.51-4.38-1.39-1.6-1.2-2.61-3.42-2.61-5.23,0-.2,0-.3-.09-.4-.11-.09-.31-.09-.4-.09s-.19.01-.3.01c-1.05,0-2.3-.5-3.22-1.32-1.2-.9-2.11-2.1-2.71-3.12-1.5-2.41-2.9-5.31-3.91-8.53.4-1,1.1-1.81,2.1-2.41.91-.5,2.01-.9,3.41-1,.63-.07,1.26-.11,1.91-.11,2.87,0,5.89.72,8.84,2.11,3.01,1.4,5.92,3.52,9.03,6.43l.2.09c.08.05.19.07.3.07.14,0,.3-.05.41-.17.3-.31.3-.51,0-.8,0-.11-.11-.11-.11-.11-.09-.09-.09-.4-.09-.5,0-.2.09-.51.2-.71.3-.4.6-.8,1.1-.8s.91.11,1.31.51c.2.2.51.6.4,1.1,0,.31.11.51.31.6.08.06.17.08.24.08.18,0,.32-.14.46-.28,1.81-4.01,3.81-7.02,6.12-9.44,2.71-2.9,5.92-4.91,9.24-5.71.93-.27,1.73-.37,2.47-.37ZM129.41,130.57c-.86,0-1.77.13-2.77.4-3.62.8-7.03,2.81-9.84,6.02-2.21,2.22-3.92,4.83-5.72,8.24l-.3-.4c-.61-.44-1.31-.72-2.01-.72-.11,0-.2,0-.31.01-.91.11-1.51.6-2.01,1.22-.2.3-.2.5-.4.8-2.81-2.51-5.32-4.32-8.13-5.52-3.09-1.43-6.12-2.17-9.1-2.17-.78,0-1.57.06-2.35.17-1.51.09-2.71.5-3.72,1.1-1.3.8-2.31,1.91-2.61,3.12v.4c1,3.41,2.51,6.53,4.12,9.04.6,1,1.6,2.41,2.9,3.41,1.11,1,2.51,1.5,3.72,1.5.11,2.01,1.4,4.12,3.01,5.52,1.31,1,3.02,1.6,4.83,1.6.5,0,1.1-.09,1.81-.09,2.21-.4,4.21-1.81,5.42-3.72.4-.5.8-1.11,1-1.71.51-.9,1-1.9,1.6-2.5.2,1,.51,2.01.91,2.9.31.31.4.71.8,1.01.21.21.54.38.89.38.14,0,.28-.02.42-.08.4-.09.8-.3,1-.7.3-.41.3-.81.4-1.01.3-1.1.3-2.41,0-3.5h0c.9.4,1.6,1,2.41,1.7.4.4,1,.91,1.5,1.31,1.49,1.1,3.22,1.64,4.94,1.64.5,0,.99-.05,1.49-.13,2.21-.41,4.21-1.82,5.32-3.62,1.2-1.9,1.4-4.41.8-6.33,1.1-.5,2.21-1.5,3.01-2.7.91-1.4,1.2-3.02,1.51-4.32.6-3.01.7-6.43.5-9.94,0-.11,0-.2-.09-.31-.91-1-2.21-1.6-3.72-1.9-.4-.07-.81-.11-1.24-.11Z"/>
  <path class="cls-1" d="M103.7,139.82c-.13,0-.26.05-.35.19-.09.09-.3.5,0,.7,1.2,1.51,2.91,3.52,3.72,5.83.2.2.3.3.5.3h.31c.2-.09.4-.5.2-.7-1-2.51-2.61-4.52-4.01-6.12-.06-.12-.2-.19-.35-.19Z"/>
  <path class="cls-1" d="M111.01,138.43c-.27,0-.46.22-.54.38-.7,2.01-1.51,4.51-1.51,7.22,0,.2.31.51.51.51.31,0,.51-.31.8-.51,0-2.41.6-4.81,1.31-6.82.2-.4-.11-.6-.31-.71-.09-.05-.18-.07-.26-.07Z"/>
  <path class="cls-4" d="M71.02,98.65c-.8,0-1.81.3-2.51.9-.4,2.31-.7,4.83-.4,7.03.11,1,.2,2.1.6,3.01.31,1,1.11,1.91,2.11,2.31-.71,1.2-.91,3.21-.2,4.61.6,1.4,1.81,2.51,3.21,3.01.53.18,1.07.26,1.6.26.99,0,1.97-.27,2.81-.66,1.4-.7,2.51-2.01,4.02-2.01-.4.91-.8,1.81-.8,2.81,0,.2,0,.51.2.71.09.3.2.5.5.5.2,0,.31,0,.6-.09.2-.11.4-.31.51-.4.6-.91,1.1-1.71,1.2-2.71,1.3.8,1.4,2.61,2.01,4.01.7,1.31,1.91,2.51,3.32,3.02.53.19,1.1.27,1.68.27.96,0,1.92-.24,2.74-.67,1.2-.8,2.31-2.42,2.51-3.92.26.08.54.12.81.12.77,0,1.53-.28,2.2-.72.8-.51,1.6-1.31,2.3-2.11,1.51-1.81,2.82-3.92,3.82-6.02-.11-.91-.8-1.81-1.51-2.31-.8-.51-1.6-.91-2.51-1.11-1.04-.32-2.14-.46-3.23-.46-1.65,0-3.33.33-4.9.86-2.7.81-5.02,2.22-7.33,3.82.4-.31.4-.71.31-1.2-.2-.51-.51-.91-.91-1-.17-.05-.37-.07-.57-.07-.3,0-.6.05-.84.17-.3.11-.5.4-.6.51-.11.05-.15.19-.14.35h0c-.89-2.55-1.95-4.99-3.47-6.99-1.71-2.3-3.81-4.12-6.43-5.12-.9-.4-1.81-.7-2.7-.7Z"/>
  <path class="cls-1" d="M71.22,99.34c.7,0,1.6.11,2.5.4,2.31,1,4.43,2.71,6.12,5.03,1.42,1.9,2.51,4.21,3.52,7.22v.11c.08.22.32.33.52.33.07,0,.13-.01.19-.04.4-.2.5-.5.4-.8v-.09c-.11-.11,0-.31,0-.31l.4-.3c.09-.11.25-.15.41-.15s.34.05.48.15c.31.09.51.3.6.6,0,.2.11.5-.09.7-.2.31-.2.51,0,.8.12.12.27.17.41.17.11,0,.2-.02.28-.06,2.62-1.91,4.92-3.01,7.23-3.72,1.58-.53,3.16-.78,4.69-.78,1.09,0,2.14.13,3.14.38.91.2,1.62.51,2.31,1,.6.51,1.11,1.11,1.2,1.71-1,2.21-2.21,4.21-3.61,5.72-.6.7-1.4,1.5-2.31,2.01-.61.39-1.36.53-2.04.53-.19,0-.39-.01-.57-.04-.2,0-.3,0-.5.11-.11.09-.2.2-.2.4-.11,1.2-1.01,2.61-2.31,3.32-.66.47-1.46.71-2.28.71-.55,0-1.11-.11-1.64-.31-1.3-.4-2.31-1.42-3.01-2.62-.2-.4-.31-.9-.4-1.3-.4-1-.8-2.11-1.81-2.81-.11-.2-.2-.2-.4-.2q-.11,0-.4.4c-.2,0-.31.09-.31.4-.2.8-.5,1.81-1.2,2.5-.09.11-.2.11-.3.2h-.2s-.11,0-.11-.09v-.51c.11-.9.4-1.81.8-2.5.11-.11.11-.4,0-.51-.2-.09-.3-.3-.5-.3-1.31,0-2.31.7-3.22,1.3l-1.1.71c-.74.42-1.59.64-2.45.64-.53,0-1.06-.08-1.56-.24-1.22-.4-2.42-1.4-2.91-2.61-.4-1.31-.31-3.02.3-4.12v-.51c0-.3-.09-.3-.3-.4-.71-.4-1.31-1.1-1.71-2.01-.4-1-.5-2.01-.6-2.91-.2-2.1,0-4.41.51-6.73.5-.4,1.2-.6,2.01-.6ZM71.02,97.84c-1.11.09-2.11.5-2.81,1.1,0,0-.11.11-.11.2-.5,2.71-.7,5.03-.5,7.33.09,1,.2,2.11.7,3.22.51,1,1.11,1.81,1.91,2.3-.6,1.4-.6,3.21,0,4.63.6,1.5,2.01,2.81,3.61,3.3.55.18,1.12.25,1.7.25,1.11,0,2.23-.28,3.22-.74.3-.31.9-.51,1.2-.8.5-.4,1-.6,1.51-.91h0c-.2.71-.31,1.31-.31,1.91,0,.4,0,.6.11,1,.09.5.5.8.9.9.06.04.14.05.22.05.21,0,.5-.07.78-.14.2-.2.51-.4.6-.51.51-.7.91-1.3,1.11-2.01.4.51.5,1.11.8,1.71.09.5.2.9.5,1.4.71,1.51,2.11,2.71,3.62,3.21.6.31,1.2.4,1.9.4,1,0,2.01-.2,2.71-1.1,1.4-.8,2.41-2.11,2.71-3.62,1,0,2.01-.3,2.9-.8,1-.5,1.91-1.4,2.51-2.1,1.51-1.6,2.81-3.82,3.92-6.12v-.4c-.11-1-.8-2.01-1.6-2.62-.71-.5-1.51-1-2.71-1.3-1.11-.3-2.28-.46-3.48-.46-1.63,0-3.33.28-5.05.86-2.11.6-4.12,1.6-6.33,3.12v-.11c-.2-.6-.71-1.1-1.31-1.4-.22-.07-.48-.11-.74-.11-.42,0-.85.08-1.16.21-.11.2-.2.2-.31.3-.9-2.41-1.9-4.41-3.21-6.12-1.81-2.51-4.12-4.41-6.62-5.42-1.01-.51-2.02-.6-2.91-.6Z"/>
  <path class="cls-1" d="M84.27,105.47c-.31,0-.4.4-.4.6.3,1.51.6,3.32.4,5.03-.11.3.09.6.5.6.2,0,.51-.2.51-.51.2-2.01,0-3.72-.4-5.32,0-.3-.4-.4-.6-.4Z"/>
  <path class="cls-1" d="M89.36,107.06c-.12,0-.25.04-.37.12-1.22,1-2.51,2.41-3.52,4.01-.11.31,0,.71.3.8q.11.11.2.11c.31,0,.4-.11.51-.4.9-1.51,2.21-2.71,3.32-3.72.09-.2.2-.51,0-.8-.12-.06-.27-.12-.44-.12Z"/>
  <path class="cls-3" d="M102.93,77.78c-.33,0-.67.05-.99.18-1,.31-1.91,1.11-2.31,2.11-.38-.17-.8-.24-1.2-.24-.32,0-.63.05-.9.13-.71.31-1.2.61-1.91,1.01-1.2.9-2.31,2.1-3.32,3.41,0,.6.2,1.2.6,1.7.4.51,1,.91,1.51,1.2,1.42.67,2.96,1.06,4.54,1.06.32,0,.65-.02.98-.05,1.9-.31,3.61-.81,5.42-1.51h0l-.4.3v.51c0,.4.2.71.51.8.09.05.25.07.41.07s.34-.02.48-.07c.2-.09.51-.3.51-.6.09,1.81.5,3.72,1.2,5.52.8,1.71,1.91,3.32,3.41,4.32.51.4,1,.7,1.6.8.13.02.27.04.42.04.46,0,1-.12,1.38-.34.6-1.5,1.11-3.1,1.31-4.61.2-.8.2-1.4,0-2.11-.11-.7-.31-1.4-1-1.81.8-.7,1.1-2.01.9-3.01s-.8-1.91-1.7-2.31c-.61-.34-1.32-.54-2.03-.54-.33,0-.66.05-.98.14-.85.18-1.7.77-2.55.77-.15,0-.31-.01-.47-.06.51-.51.71-1.11,1.2-2.01v-.31c0-.2-.09-.3-.2-.4-.06-.04-.13-.05-.19-.05-.13,0-.24.05-.31.05-.2,0-.31.11-.4.2-.4.51-.8,1-1,1.71-.6-.8-.51-1.91-.8-2.91-.2-1-.8-2.01-1.71-2.51-.61-.33-1.31-.58-2.02-.58Z"/>
  <path class="cls-1" d="M102.48,78.47c.58,0,1.22.15,1.77.5.7.51,1.2,1.31,1.5,2.11,0,.31.11.71.11.91.09.8.2,1.6.7,2.3.2.2.31.2.51.2.09,0,.3-.2.4-.4.09-.5.5-1,.9-1.3l.2-.31v.31c-.09.6-.3,1.1-.7,1.6-.11.09-.31.4-.11.5,0,.2.11.4.31.4.18.05.34.06.5.06.68,0,1.26-.3,1.91-.46.31,0,.6-.09.91-.3.17-.02.34-.04.53-.04.63,0,1.36.13,1.97.44.71.4,1.4,1.1,1.51,2.01.09.91-.31,1.91-.8,2.51-.11.09-.11.3-.11.4,0,.09.11.2.31.4.5.3.7.8.8,1.5.2.6.2,1.31,0,1.81-.11,1.42-.6,2.82-1.2,4.32-.28.07-.57.14-.89.14-.14,0-.27-.01-.42-.04-.5-.11-1-.4-1.5-.71-1.31-.9-2.51-2.41-3.22-4.21-.6-1.31-1-3.12-1.3-5.22,0-.31-.2-.51-.51-.51-.2,0-.5.2-.5.6,0,.11-.11.31-.2.31-.06.05-.13.07-.2.07-.08,0-.15-.02-.2-.07-.11-.2-.2-.31-.2-.4v-.31c.2-.11.3-.51.2-.71-.08-.31-.33-.44-.54-.44-.06,0-.12.01-.17.04h-.2c-1.81.8-3.52,1.31-5.12,1.42-.38.04-.76.06-1.12.06-1.46,0-2.79-.33-4-.97-.5-.2-1-.6-1.3-1-.2-.4-.51-.71-.51-1.11,1-1.3,2.01-2.41,3.22-3.1.5-.4,1.1-.8,1.7-1,.25-.15.53-.24.8-.24s.55.08.8.24c.2,0,.32.04.4.04.04,0,.07-.01.11-.04.09-.2.3-.31.3-.4.2-.81,1-1.51,1.91-1.82.22-.06.47-.09.74-.09ZM102.78,77c-.41,0-.83.05-1.24.15-1,.4-1.81,1.2-2.31,2.11-.31-.09-.63-.14-.93-.14-.38,0-.74.07-1.07.24-.8.2-1.5.71-2.01,1.11-1.31.91-2.41,2.11-3.52,3.52-.2.09-.2.2-.2.4,0,.7.31,1.5.8,2.1.4.51.91.91,1.6,1.22,1.3.72,2.84,1.06,4.56,1.06.41,0,.84-.02,1.27-.06,1.3-.11,2.7-.31,4.32-1,.2.5.5.9.9,1.2.24.12.51.17.77.17.19,0,.38-.02.54-.07.2,1.71.6,3.21,1.1,4.52.91,2.01,2.11,3.61,3.62,4.61.6.51,1.3.8,1.9.91.2.09.51.09.71.09.5,0,1-.09,1.7-.9.11,0,.2-.11.2-.2.8-1.6,1.31-3.32,1.51-4.83.11-.6.11-1.3,0-2.21-.11-.6-.51-1.3-.91-1.7.71-.8.91-2.11.71-3.02-.31-1.2-1-2.21-2.01-2.81-.68-.34-1.51-.54-2.31-.54-.38,0-.74.05-1.1.14-.4.11-.6.31-1,.4-.31.11-.51.11-.81.31.31-.4.41-.8.41-1.2v-.6c-.11-.4-.2-.6-.51-.71-.13-.19-.33-.26-.58-.26-.13,0-.28.02-.42.06-.2.11-.51.31-.6.4-.31.31-.51.51-.6.71,0-.2-.2-.4-.2-.71,0-.4,0-.6-.11-1-.2-1.11-1-2.11-2.01-2.81-.66-.46-1.4-.66-2.17-.66Z"/>
  <path class="cls-1" d="M104.95,87.18c-.12,0-.25.07-.4.22-.7.91-1.7,1.51-2.61,2.01-.2.11-.4.51-.2.71.09.2.2.3.5.3h.11c1-.7,2.11-1.3,3.01-2.3.2-.2.2-.51,0-.71-.15-.15-.27-.22-.4-.22Z"/>
  <path class="cls-1" d="M105.84,87.73c-.22,0-.41.21-.5.38-.4,1.3-.5,2.5-.5,3.71,0,.2.09.51.5.51.2,0,.51-.31.6-.51,0-1,.11-2.21.51-3.3,0-.4-.11-.6-.4-.71-.07-.05-.14-.07-.21-.07Z"/>
  <path class="cls-1" d="M48.03,134.98c-.31,0-.71.2-.71.51-.2,2.51-.3,5.12-.09,7.62.5,6.03,2.81,11.75,6.33,16.67.09.09.3.3.5.3,0,0,.11,0,.31-.2.3-.09.3-.51.2-.71-3.52-4.81-5.72-10.43-6.23-16.16-.2-2.51-.2-4.92.2-7.43,0-.3-.3-.6-.5-.6Z"/>
  <path class="cls-1" d="M50.91,125.21c-.21,0-.42.12-.58.34-.6,1.2-1.1,2.7-1.6,4.11-.09.4.11.6.4.8h.11c.09,0,.4-.2.5-.4.51-1.4,1-2.81,1.6-4.01.11-.3,0-.6-.2-.8-.07-.02-.14-.04-.22-.04Z"/>
  <path class="cls-1" d="M148.29,150.81c-.22,0-.42.12-.58.34-2.51,5.22-6.22,10.04-11.05,13.75-.2.11-.2.51-.09.8,0,.11.3.2.4.2h.5c4.92-3.91,8.74-8.73,11.25-14.26.2-.3,0-.7-.2-.8-.07-.02-.15-.04-.22-.04Z"/>
  <path class="cls-1" d="M130.77,168.78c-.07,0-.14.01-.22.04-1.5.8-3.01,1.4-4.51,1.91-.4.09-.51.5-.4.7,0,.31.3.4.5.4h.31c1.5-.6,3.1-1.2,4.61-2.01.31-.09.4-.5.31-.7-.15-.22-.37-.34-.59-.34Z"/>
  <path class="cls-1" d="M132.13,98.08c-.09,0-.2.02-.27.06-.3.2-.3.51-.2.8.71,1,1.31,1.91,1.91,2.91.09.11.4.2.5.2.11,0,.31,0,.31-.09.2-.11.2-.51.09-.81-.6-1-1.3-1.81-1.9-2.81-.07-.19-.25-.26-.44-.26Z"/>
  <path class="cls-1" d="M122.09,80.53c-.07,0-.13.01-.18.05-.31.2-.4.5-.31.8,2.01,4.11,4.22,8.13,6.53,12.04.2.11.31.2.51.2s.2-.09.2-.09c.3-.11.3-.51.2-.71-2.21-3.91-4.41-7.93-6.43-11.94-.07-.22-.32-.34-.52-.34Z"/>
  <path class="cls-1" d="M83.73,24.83c-.99,0-1.71,1.11-1.06,2.03.19.46.65.71,1.11.71.25,0,.48-.07.7-.2,1.2-.6.7-2.21-.51-2.51-.08-.01-.17-.02-.24-.02Z"/>
  <path class="cls-1" d="M112.02,22.73c-1.05,0-1.7,1.1-1.14,2.03.27.41.74.68,1.23.68.22,0,.46-.06.68-.19,1.1-.6.6-2.21-.51-2.51-.08-.01-.18-.01-.26-.01Z"/>
  <path class="cls-1" d="M96.7,42.18c-.94,0-1.62,1.14-.98,2.05.2.41.7.68,1.17.68.22,0,.45-.06.64-.18,1.2-.61.7-2.31-.51-2.51-.11-.04-.21-.05-.32-.05Z"/>
  <path class="cls-1" d="M109.79,39.75c-1.9,0-3.19,2.15-2.73,3.88.4,1.11,1.3,2.11,2.3,2.31.33.08.66.13.98.13,1.11,0,2.17-.51,2.64-1.44,1.1-1.91-.6-4.32-2.61-4.81-.2-.05-.4-.07-.59-.07Z"/>
  <path class="cls-1" d="M100.3,25.59c-.35,0-.72.09-1.07.27-2.41,1.2-1.7,4.83.71,5.43.21.06.44.08.66.08.92,0,1.86-.48,2.35-1.29,1.11-1.96-.67-4.5-2.64-4.5Z"/>
  <path class="cls-1" d="M86.63,37.67c-.25,0-.5.04-.76.14-1.71.6-2.11,3.41,0,3.81.08.01.17.01.25.01.72,0,1.4-.37,1.85-.81,1.22-1.39.19-3.15-1.35-3.15Z"/>
</svg>