<?xml version="1.0" encoding="UTF-8"?>
<svg id="Layer_1" data-name="Layer 1" xmlns="http://www.w3.org/2000/svg" xmlns:xlink="http://www.w3.org/1999/xlink" viewBox="0 0 169.71 228.24">
  <defs>
    <style>
      .cls-1 {
        fill: #ebb871;
      }

      .cls-1, .cls-2, .cls-3, .cls-4, .cls-5, .cls-6 {
        fill-rule: evenodd;
      }

      .cls-2 {
        fill: url(#radial-gradient);
      }

      .cls-7 {
        fill: none;
        stroke: #3b4694;
        stroke-linejoin: round;
        stroke-width: 1.33px;
      }

      .cls-3 {
        fill: url(#radial-gradient-5);
      }

      .cls-4 {
        fill: url(#radial-gradient-4);
      }

      .cls-5 {
        fill: url(#radial-gradient-3);
      }

      .cls-6 {
        fill: url(#radial-gradient-2);
      }
    </style>
    <radialGradient id="radial-gradient" cx="-410.1" cy="1155.84" fx="-410.1" fy="1155.84" r="5.58" gradientTransform="translate(1801.55 4868.29) scale(4.19 -4.19)" gradientUnits="userSpaceOnUse">
      <stop offset="0" stop-color="#343479"/>
      <stop offset="1" stop-color="#0e0e1c"/>
    </radialGradient>
    <radialGradient id="radial-gradient-2" cx="-485.06" cy="1308.66" fx="-485.06" fy="1308.66" r="10.79" gradientTransform="translate(4008.41 10722.18) scale(8.09 -8.09)" gradientUnits="userSpaceOnUse">
      <stop offset="0" stop-color="#d473c9"/>
      <stop offset="1" stop-color="#0e0e1c"/>
    </radialGradient>
    <radialGradient id="radial-gradient-3" cx="-493.85" cy="1332.25" fx="-493.85" fy="1332.25" r="12.1" gradientTransform="translate(4564.06 12196.07) scale(9.07 -9.07)" gradientUnits="userSpaceOnUse">
      <stop offset="0" stop-color="#f3d5ab"/>
      <stop offset="1" stop-color="#dc9b3f"/>
    </radialGradient>
    <radialGradient id="radial-gradient-4" cx="-357.2" cy="1061.67" fx="-357.2" fy="1061.67" r="4.45" gradientTransform="translate(1322.17 3596.71) scale(3.34 -3.34)" gradientUnits="userSpaceOnUse">
      <stop offset="0" stop-color="#f3d5ab"/>
      <stop offset="1" stop-color="#dc9b3f"/>
    </radialGradient>
    <radialGradient id="radial-gradient-5" cx="-477.83" cy="1290.2" fx="-477.83" fy="1290.2" r="9.87" gradientTransform="translate(3619.27 9689.94) scale(7.4 -7.4)" gradientUnits="userSpaceOnUse">
      <stop offset="0" stop-color="#f3d5ab"/>
      <stop offset="1" stop-color="#dc9b3f"/>
    </radialGradient>
  </defs>
  <path class="cls-2" d="M65.92,24.09c.91-3.28,1.5-3.14,7.65-3.55s24.05-1.55,29.24,1.09c5.19,2.64,2.23,11.61,1.91,14.75-.32,3.14,2.28,3.46-3.83,4.1-6.1.64-26.96,2.46-32.79-.27-5.83-2.73-3.1-12.84-2.18-16.12Z"/>
  <path class="cls-6" d="M31.5,87.27c1.5-7.38,4.37-9.34,7.1-11.75,2.73-2.41,7.11-2.41,9.29-2.73,2.19-.32,1.14-1.05,3.82.82,2.69,1.87,6.74,8.33,12.3,10.38,5.56,2.05,14.03,2.73,21.04,1.91s15.98-4.6,21.04-6.83c5.05-2.23,4.83-5.92,9.29-6.56,4.46-.64,13.11-.68,17.49,2.73,4.37,3.42,7.65,8.83,8.74,17.76,1.09,8.93-.82,21.18-2.19,35.79-1.37,14.62-3.87,40.53-6.01,51.91s-1.32,12.34-6.83,16.39c-5.51,4.05-15.53,6.79-26.23,7.93-10.7,1.14-28.55.14-37.98-1.09-9.43-1.23-13.93-.69-18.58-6.29-4.64-5.6-6.92-14.34-9.29-27.32-2.37-12.98-4.42-36.7-4.92-50.55-.5-13.84.41-25.14,1.91-32.51Z"/>
  <path class="cls-7" d="M31.5,87.27c1.5-7.38,4.37-9.34,7.1-11.75,2.73-2.41,7.11-2.41,9.29-2.73,2.19-.32,1.14-1.05,3.82.82,2.69,1.87,6.74,8.33,12.3,10.38,5.56,2.05,14.03,2.73,21.04,1.91s15.98-4.6,21.04-6.83c5.05-2.23,4.83-5.92,9.29-6.56,4.46-.64,13.11-.68,17.49,2.73,4.37,3.42,7.65,8.83,8.74,17.76,1.09,8.93-.82,21.18-2.19,35.79-1.37,14.62-3.87,40.53-6.01,51.91s-1.32,12.34-6.83,16.39c-5.51,4.05-15.53,6.79-26.23,7.93-10.7,1.14-28.55.14-37.98-1.09-9.43-1.23-13.93-.69-18.58-6.29-4.64-5.6-6.92-14.34-9.29-27.32-2.37-12.98-4.42-36.7-4.92-50.55-.5-13.84.41-25.14,1.91-32.51Z"/>
  <path class="cls-5" d="M96.21,21.58c1.63,0,3.19.31,4.75.63,3.27.47,4.05,2.02,3.81,5.6-.16,3.97-.7,8.02-1.63,11.99-6.5.11-12.92.47-19.37.47-3.06,0-6.12-.08-9.21-.31-1.05-.07-2.14-.1-3.23-.1s-2.18.03-3.23.03c-.78,0-1.17-.16-.93-1.25h5.84c.16,0,.32.02.49.02.5,0,.98-.09.98-.8s-.61-.78-1.18-.78h-.29c-1.04,0-2.08-.03-3.12-.03-.51,0-1.03,0-1.56.03-.09,0-.18,0-.27,0-1.35,0-1.88-.59-1.44-2.34h0c5.24.48,10.52.63,15.8.63,2.5,0,4.99-.04,7.49-.08.54-1.17-.16-1.24-.93-1.24l-14.56-.31c-2.73-.08-5.46-.24-8.17-.63-.32-1.09-.63-1.94-.32-3.27h7.48c.27,0,.62.04.95.04.63,0,1.23-.13,1.23-.89-.04-.67-.43-.82-.92-.82-.41,0-.9.12-1.26.12-2.11,0-4.36,0-6.46.16-.09,0-.18,0-.27,0-1.09,0-1.28-.48-1.22-1.49.16-3.42,1.57-4.67,5.14-5.06,1.63-.16,3.26-.29,4.85-.29.62,0,1.24.02,1.85.06,2.06.13,4.1.17,6.14.17,4.27,0,8.5-.2,12.78-.26ZM102.28,41.61c1.82,0,3.62.25,5.3,1.15,1.16.7,2.56,1.48,2.33,3.12-.16,1.87-1.56,2.96-3.11,3.58-1.17.47-2.42.62-3.59.62-4.51.17-8.95.43-13.4.43-1.6,0-3.2-.04-4.81-.12-1.76.09-3.51.13-5.25.13-4.2,0-8.38-.22-12.5-.44-1.95-.07-4.05-.31-5.6-1.95-1.57-1.63-1.57-3.42.31-4.75,1.39-1.04,3.05-1.66,4.78-1.66.2,0,.39,0,.59.03,5.22.16,10.51.47,15.73.62,1.06.05,2.12.07,3.19.07,4.03,0,8.09-.31,12.16-.62,1.29-.09,2.6-.22,3.89-.22ZM69.81,54.52h0c5.14.07,10.24.12,15.34.12s10.2-.05,15.34-.12h0c-.16.85-.93,1.09-1.72,1.33-2.25.62-4.59.85-6.85,1.01-2.22.04-4.46.06-6.7.06s-4.48-.03-6.69-.06c-2.34-.16-4.6-.38-6.86-1.01-.78-.16-1.56-.48-1.87-1.33ZM116.58,61.73c1.64,0,2.17.94,1.75,2.76-.62,2.33-2.02,4.2-3.51,6.07-.34.38-.66.51-.99.51-.27,0-.56-.09-.88-.2-2.42-.93-4.21-2.65-5.37-5.06,2.56-2.1,5.29-3.65,8.4-4.05.22-.02.41-.04.59-.04ZM56,63.33c.32,0,.65.02.96.07,1.95.47,3.82,1.09,5.37,2.65-1.95,4.44-6.15,5.45-9.42,5.45-.09.02-.17.03-.26.03-.27,0-.51-.11-.76-.41-.93-1.48-1.16-4.36-.23-5.77.79-1.31,2.57-2.01,4.33-2.01ZM103.52,52.03c0,1.94-.07,3.66,0,5.37.24,3.58.62,7.08,2.5,10.35,1.4,2.42,3.42,4.13,6.15,5.3-1.17,1.47-2.57,2.49-3.97,3.42-7.7,5.31-16.31,8.57-25.68,8.57h-.34c-8.8-.08-17.21-1.88-24.6-7.01-1.47-1.09-2.88-2.33-3.89-3.89,1.09-.31,2.11-.39,3.11-.7,5.53-1.56,8.02-5.6,9.19-10.98.7-3.43.62-6.86,1.02-10.21.07.39.23.7.23.93.55,3.28,1.48,4.28,4.6,4.83,4.11.59,8.27.96,12.44.96,1.28,0,2.55-.04,3.84-.11,3.35-.23,6.54-.31,9.73-.78,3.35-.47,4.52-1.56,5.06-4.91.08-.23,0-.78.62-1.16ZM119.17,74c1.03,0,2.07.06,3.13.15,3.96.16,7.78,1.16,10.82,4.05,3.58,3.42,5.77,7.71,6.15,12.61.78,8.41.55,16.9-.23,25.38-.47,5.37-.7,10.83-1.1,16.28-.38,4.44-.93,8.88-1.32,13.32-.31,3.11-.62,6.31-.7,9.57-.31,6-1.47,11.92-2.41,17.84-.86,5.37-2.03,10.66-3.74,15.8-2.02,6.63-6.22,10.75-13.24,12-5.22.93-10.59,1.63-15.81,2.1-5.22.55-10.44.7-15.57.7-8.41,0-16.67-.55-24.84-1.64-3.11-.38-6.23-1.01-9.26-1.79-4.83-1.24-7.87-4.59-9.74-9.11-2.25-5.76-3.51-11.6-4.44-17.68-.7-4.44-1.47-8.95-2.1-13.39-.24-2.33-.39-4.68-.47-7.01-.31-5.45-.93-10.9-1.56-16.35-.39-4.13-.79-8.1-.94-12.15-.62-10.05-1.47-20.09-1.09-30.13.31-4.75,1.17-9.35,3.97-13.4,3.73-5.33,9.03-7.01,15.15-7.01.15,0,.28,0,.43,0,.47,0,.78.16,1.09.54,4.44,6.39,10.98,9.19,18.06,10.9,4.06,1.02,8.1,1.71,12.3,1.71.24,0,.47,0,.7,0,10.54,0,19.74-3.49,28.2-9.58,2.3-3.08,5.32-3.73,8.55-3.73ZM81.55,19.56c-3.97,0-7.95.1-11.89.46-3.82.39-5.92,1.48-6.23,6.08-.07,1.4.08,2.96.31,4.51.31,3.12.86,6.15,1.24,9.27-2.8.85-5.91,1.63-6.46,5.06-.62,4.36,2.65,5.84,6.08,6.93-.08,4.05-.08,8.09-1.24,12.06-2.43-1.64-4.87-2.76-7.34-2.76-1.4,0-2.83.37-4.27,1.21-3.58,2.11-2.96,5.53-2.18,9.03h-1.17c-9.89,0-16.43,5.37-19.3,14.79-1.17,3.82-1.17,7.71-1.33,11.61-.16,7.31.24,14.56.7,21.8.23,3.58.38,7.08.7,10.66.55,5.68,1.48,11.45,1.71,17.05.55,8.17.93,16.28,2.34,24.38,1.32,6.62,2.33,13.32,4.82,19.7,2.33,6.39,6.46,10.36,13.24,11.92,2.88.54,5.68,1.09,8.64,1.56,7.09,1.09,14.33,1.64,21.49,1.71,1.75.05,3.48.08,5.22.08,5.47,0,10.93-.28,16.43-.94,5.84-.7,11.76-1.16,17.36-2.87,4.21-1.33,7.72-3.66,9.9-7.63,2.73-4.98,4.13-10.44,5.22-15.96,1.24-6.62,2.41-13.16,3.11-19.78.31-2.8.08-5.6.31-8.4.39-5.06.86-10.28,1.48-15.34.47-4.75.62-9.58,1.01-14.49.62-8.09,1.09-16.28.78-24.29-.07-3.11-.07-6.22-.85-9.35-2.24-9.32-8.77-16.08-19.02-16.08-.81,0-1.63.04-2.47.12-.28.03-.59.04-.91.04-.63,0-1.33-.04-2.05-.04,1.47-2.18,2.72-4.05,3.42-6.22,1.07-3.67-.41-5.68-4.07-5.68h-.21c-.86.07-1.71.31-2.65.62-2.33.62-4.28,2.11-6.46,3.35-1.02-3.97-1.09-7.86-1.09-11.84,3.11-1.02,6-2.19,6-6.08s-3.51-4.75-6.46-5.91c.54-4.21,1.32-8.26,1.56-12.38.23-4.05-.93-6.39-4.99-7.17-1.24-.31-2.57-.62-3.82-.62-.58,0-1.16,0-1.75,0-4.94,0-9.9-.16-14.86-.16Z"/>
  <path class="cls-4" d="M132.89,45.33c1.47,2.8,3.81,4.99,5.6,7.71-4.67,2.5-9.19,5.06-13.86,7.55-1.24-1.71-2.33-3.5-3.9-5.05,3.9-3.51,7.87-6.78,12.16-10.21ZM133.36,43.28c-.28,0-.6.14-.95.41-1.09.86-2.25,1.72-3.42,2.57-3.19,2.49-6.31,5.14-9.35,7.79-.93,1.01-1.01,1.79-.23,2.96,1.24,1.79,2.73,3.51,3.58,5.53.16.39.47.55,1.09.55.16-.16.47-.24.78-.24,1.33-.7,2.81-1.47,4.13-2.26,3.51-1.94,7.17-3.65,10.67-5.6,1.56-.93,1.71-1.71.85-2.88-2.18-2.73-4.36-5.29-6.22-8.17-.27-.43-.57-.65-.92-.65Z"/>
  <path class="cls-3" d="M109.77,89.59c.73,0,1.21.56,1.32,1.68.23,1.56-.08,3.11-.47,4.6-.39,1.17-.63,2.42-.79,3.66-.23,1.87.55,3.11,2.26,3.89,1.56.7,2.96,1.4,4.44,2.18.39.19.76.28,1.07.28.62,0,1.09-.37,1.35-1.14.7-1.79,1.16-3.51,1.87-5.3.38-1.16.78-2.41,1.95-3.19.85.54.78,1.56.85,2.33.39,4.67.39,9.26-.07,13.94-.39,3.34-.86,6.77-2.03,10.12-.7,1.71-1.32,3.5-3.5,4.43,0-3.58,0-7-.08-10.27-.07-7.32-5.76-13.94-13.16-14.41-2.02-.24-4.12.07-6.22-.7,1.87-3.04,4.05-5.76,6.38-8.41,1.1-1.24,2.19-2.41,3.51-3.27.5-.29.95-.44,1.34-.44ZM55.25,107.63c-1.95,2.72-2.96,5.68-3.27,8.95,0,.62-.31.7-.78.86-1.4.7-2.5,1.87-3.19,3.42-1.64-.7-3.11-1.71-4.83-1.95-.16-.02-.34-.03-.52-.03-.7,0-1.42.16-2.04.65-.24.16-.47.55-.24.93.06.24.26.34.45.34.06,0,.12,0,.17-.03.56-.26,1.08-.37,1.58-.37,1.45,0,2.69.9,4.03,1.54.89.49,1.4.78,1.78.78.52,0,.79-.53,1.42-1.79.47-.85,1.09-1.56,2.02-1.94.47.31.31.78.31,1.16.16,5.68.23,11.21.47,16.9,0,.86-.31.93-1.09,1.33-.7.33-1.31.48-1.85.48-1.26,0-2.14-.82-2.9-2.19-.31-.62-.86-.78-1.48-1.17-4.05-2.73-6.62-6.54-7.08-11.44-.39-3.35.86-6.46,3.11-8.96,3.74-4.05,8.65-6,13.94-7.47ZM85.28,121.09c.05,0,.12,0,.18,0,1.32.08,1.09,1.41,1.32,2.34.39,1.71.55,3.5.86,5.29,2.42-.23,4.67-.54,6.86-1.02.38-.16.62-.23.93-.23.7,0,1.4,0,1.56.78.16.7-.39,1.09-.86,1.4-1.94,1.24-3.82,2.57-5.84,3.73-.78.55-.93,1.02-.7,1.88.47,2.33.78,4.6,1.16,6.93.08.54.24,1.32-.54,1.63-.15.06-.28.09-.41.09-.57,0-.99-.5-1.3-.94-1.33-2.02-2.57-4.28-4.37-6.31-1.56,1.32-3.11,2.73-4.67,3.97-.66.54-1.36,1.45-2.11,1.45-.23,0-.46-.08-.7-.28-1.24-1.09.16-2.02.7-2.96.78-1.64,1.71-3.27,2.73-4.82.54-1.02.23-1.64-.62-2.26-1.48-.93-2.88-2.02-4.28-3.11-.55-.47-1.33-.94-.78-1.88.21-.35.48-.46.77-.46.36,0,.75.17,1.1.3,1.87.55,3.66,1.24,5.6,1.95.94-1.87,1.1-3.89,2.11-5.53.29-.73.31-1.96,1.3-1.96ZM118.17,129.75c4.13,1.71,8.02,3.65,10.44,7.55,1.78,2.8,1.24,5.84.23,8.8-1.95,5.46-4.91,10.21-8.41,14.79-.16.39-.47.63-.78,1.17-1.71-1.24-3.5-2.73-5.84-3.35,2.57-7.24,3.28-14.79,3.9-22.27.98.84,2.02,1.06,3.08,1.06,1.18,0,2.38-.28,3.54-.28.31,0,.7-.38.62-.85,0-.39-.39-.62-.78-.62h-2.72c-2.04,0-3.67-1.54-3.67-3.66,0-.7,0-1.48.39-2.33ZM52.83,139.63c1.02,7.4,1.33,14.95,5.06,21.57-4.51,1.79-8.17,4.68-11.68,7.95-1.47-.85-1.87-2.26-1.94-3.82-.24-3.11,0-6.22.62-9.34.7-2.88.38-5.85.54-8.72.16-3.82,3.27-7.24,7.4-7.63ZM113.32,160.22c.2,0,.44.06.72.2,2.02.78,3.82,2.03,5.14,3.66,2.02,2.57,1.64,5.37.78,8.17-1.87,6.08-5.22,11.21-8.87,16.36-1.02,1.64-2.19,3.42-4.06,4.6-1.63-1.02-1.78-2.73-1.87-4.28-.07-1.87,0-3.58,0-5.46,0-2.65-2.26-4.74-4.82-4.74-.09-.02-.17-.02-.25-.02-1.1,0-1.25,1-1.55,1.73-1.09,2.65-2.26,5.06-3.97,7.31-.41.62-.89,1.36-1.58,1.36-.09,0-.18,0-.28-.04-.78-.08-.86-1.02-1.09-1.71-.62-2.73-.86-5.68-1.17-8.49-.16-1.48-.07-3.04-.23-4.44-.31-3.28.54-4.68,3.5-6.15,2.34-1.17,4.91-1.48,7.48-2.03,1.64-.38,3.42-.62,5.14-1.32.7,1.63.95,2.19,1.74,2.19.41,0,.98-.16,1.84-.4.47-.13.93-.17,1.39-.17,1.21,0,2.38.37,3.51.65.37.11.71.25,1.06.25.39,0,.79-.18,1.2-.8-1.95-.87-3.84-1.57-5.76-1.57-1,0-2,.19-3.05.64-.47-.93-.47-1.56.62-1.95,1.4-.54,2.57-1.56,3.51-2.88.26-.45.53-.67.92-.67ZM58.84,162.62c.37,0,.72.12,1.15.38,1.24.78,2.65,1.4,3.97,1.95.54.31,1.16.31,1.01,1.16-.19.65-.6.7-1.1.7h-.64c-3.28,0-4.92,1.12-6.12,4.2-1.32-.31-2.57-.31-3.97-.31-.85.08-1.47.47-2.18,1.09-.38.16-.38.7-.23.94.16.2.38.31.6.31.11,0,.22-.03.33-.08.85-.62,1.75-.83,2.65-.83s1.82.21,2.72.45c.16.03.31.05.46.05.56,0,.97-.27,1.1-1.14.52-2.09,2.08-3.24,4.13-3.24.4,0,.81.04,1.24.13.36.08.7.15,1,.15.81,0,1.34-.4,1.34-1.7,0-.68.43-1.01,1-1.01.16,0,.31.02.49.07,2.56.62,5.14.85,7.71,1.79,3.97,1.56,5.84,4.59,5.37,8.87-.47,3.59-.55,7.25-1.48,10.59-.23.55-.31,1.02-.47,1.4-.42.71-1,1.09-1.58,1.09-.5,0-1.02-.27-1.46-.85-.78-.93-1.4-2.02-2.02-2.96-1.13-1.72-2.13-2.51-3.44-2.51-.77,0-1.64.27-2.71.8-.62.31-1.09.7-1.63,1.01-1.79.86-2.11,2.42-1.72,4.21.39,2.02.7,3.96.62,6,0,1.49-.46,2.21-1.56,2.21-.33,0-.71-.06-1.16-.18-2.65-.55-4.75-2.11-6.62-3.97-4.52-4.44-7.72-9.81-9.58-15.96-.93-3.42.24-6.39,2.88-8.72,2.73-2.49,5.6-4.44,8.95-5.84.36-.14.66-.22.95-.22ZM109.57,88.01c-.55,0-1.12.17-1.68.53-.78.63-1.64,1.25-2.33,1.95-3.12,3.04-5.84,6.54-8.26,10.12-.27.55-.55,1.04-1.25,1.04-.09,0-.19,0-.3-.03-4.28-.78-9.5-3.74-10.28-8.49-.08-.38.16-1.16-.78-1.47-.08.23-.24.31-.24.47-.93,5.45-4.67,7.94-9.57,9.26-2.11.55-4.37.7-6.62.78-3.82.24-7.55.62-10.67,3.11-.31.16-.62.31-1.01.39-5.46.78-10.28,3.11-14.56,6.46-3.66,2.8-5.68,6.7-5.61,11.37.24,5.22,2.65,9.5,6.93,12.54,1.64,1.09,2.73,2.65,4.13,3.97-2.87,2.33-3.82,5.37-3.73,8.87.16,1.57.16,3.12-.08,4.68-.47,3.82-1.24,7.47-1.09,11.29.16,2.34.62,4.6,2.88,5.84-1.56,3.35-1.32,6.62.08,9.97,1.71,4.06,3.81,7.79,6.54,11.14,2.73,3.42,5.92,6.38,10.52,7.31.33.08.66.12.96.12.97,0,1.79-.39,2.38-1.28.55-.7,1.02-.86,1.72-1.09,2.8-.62,5.68-1.24,8.64-1.33,2.4-.09,4.81-.15,7.21-.15,7.73,0,15.5.55,23.16,2.1.23.04.52.14.78.14s.47-.1.54-.45c.24-.78-.54-.93-1.01-1.09-2.11-.47-4.13-.93-6.23-1.25-7.63-1.16-15.34-.93-22.97-1.24-.6-.04-1.2-.05-1.79-.05-3.07,0-6.11.46-9.11.92-.31-2.11-.62-4.05-.78-6.15,0-.55,0-1.17.54-1.56,1.09-.55,2.02-1.24,3.11-1.64.33-.12.61-.18.87-.18.54,0,.97.27,1.39.81.86,1.24,1.64,2.42,2.49,3.66.72,1.08,1.7,1.89,3.07,1.89.12,0,.24,0,.37-.02,1.56-.23,2.41-1.4,2.96-2.8.62-2.26.93-4.51,1.24-6.77.31-2.33.31-4.75.31-7.4,1.33,1.56,1.33,3.5,2.73,4.91,1.56-1.79,1.56-4.21,3.35-5.77.31,2.73.16,5.14.54,7.63.31,2.49.31,5.22,1.24,7.62.5,1.46,1.4,2.22,2.41,2.22.73,0,1.52-.39,2.27-1.21,1.87-2.02,3.19-4.36,4.27-6.93.32-.78.48-1.64,1.1-2.26,2.96,1.09,3.27,1.4,3.19,4.83-.07,1.94-.23,3.73.16,5.68.39,1.71,1.02,3.27,2.73,3.73.2.05.39.07.58.07,1.24,0,2.1-1.06,2.77-1.94,4.75-5.84,8.88-12.07,11.37-19.23,1.24-3.51,1.64-7.17-.7-10.36,4.06-5.22,7.56-10.66,9.66-16.9,1.4-4.05,1.48-7.79-1.24-11.21-1.64-2.02-3.58-3.58-5.91-4.75-1.33-.7-2.57-1.32-3.82-1.94,2.49-2.11,3.27-3.51,4.44-7.79,1.87-7.01,1.78-14.25,1.56-21.42-.08-1.09-.24-2.18-.7-3.11-.36-1.07-.96-1.6-1.66-1.6-.51,0-1.08.3-1.61.91-.86.93-1.33,2.02-1.79,3.19-.62,1.88-1.09,3.82-2.02,5.68-1.56-.7-3.11-1.4-4.67-2.18-.86-.38-1.33-1.09-1.33-2.11,0-1.47.47-2.87.78-4.2.39-1.95.86-3.89.08-5.84-.52-1.3-1.5-2.01-2.6-2.01Z"/>
  <path class="cls-1" d="M49.8,91.12c.47.86,1.09,1.56,1.71,2.18-.62.93-1.24,1.88-1.71,3.04-.48-1.16-1.1-2.11-1.88-2.88.62-.78,1.17-1.47,1.88-2.33ZM48.66,85.84c-.1,0-.21.02-.34.06-.47.24-.31.7-.16,1.09.62,2.26.31,4.21-1.71,5.53-.47.39-.78,1.09-.16,1.48,1.94,1.24,2.33,3.35,2.96,5.29.24.47.47.86,1.02.86s.54-.62.54-1.09c.24-1.87.55-3.66,2.18-4.99.16-.16.31-.47.39-.54,0-.47-.16-.78-.47-.78-1.87-1.24-2.33-3.19-3.04-5.14-.07-.38-.16-.78-.38-1.09-.26-.37-.45-.69-.83-.69Z"/>
  <path class="cls-1" d="M123.39,180.44c.47.38.54.85.78,1.47-.39.31-.7.7-1.17.93-.23-.47-.47-.85-.7-1.32.16-.47.7-.78,1.09-1.09ZM123.46,176.23c-.47,0-.7.31-.7.7-.16,1.56-.78,2.96-2.19,3.82-.38.16-.54.78-.23,1.09,1.09,1.01,1.16,2.33,1.16,3.66,0,.62.24,1.09.86,1.16.05,0,.09,0,.14,0,.53,0,.81-.43.88-.86.31-1.17.93-2.19,2.02-2.73.38-.31.62-.62.62-1.17-.16-.07-.16-.31-.31-.47-.78-1.47-1.79-2.87-1.64-4.6,0-.31-.23-.62-.62-.62Z"/>
  <path class="cls-1" d="M58.44,87.38c1.01.85,1.09,1.64,0,2.49-.55-.07-.55-.7-1.09-1.24.38-.47.7-.86,1.09-1.24ZM58.24,83.86c-.05,0-.12,0-.19.02-.47.08-.7.39-.7.78.07,1.4-.7,2.33-1.64,3.11-.62.47-.78,1.17-.07,1.64,1.16.93,1.32,2.02,1.63,3.27.24.47.31.86.93.93.24-.07.55-.16.39-.31.38-1.71,1.56-3.11,2.49-4.51.08-.16.08-.39,0-.55-1.17-1.01-1.48-2.72-2.26-3.96-.06-.27-.28-.41-.59-.41Z"/>
  <path class="cls-1" d="M84.31,27.4c-.1,0-.21,0-.33.02-1.09.32-2.26.39-3.42.63-.62.16-1.24.23-1.17,1.01.08.7.78.55,1.64.62.85-.23,2.18-.38,3.19-.78.54-.16.85-.38.78-1.01-.06-.38-.32-.49-.69-.49Z"/>
</svg>