<?xml version="1.0" encoding="UTF-8"?>
<svg id="Layer_1" data-name="Layer 1" xmlns="http://www.w3.org/2000/svg" xmlns:xlink="http://www.w3.org/1999/xlink" viewBox="0 0 173.46 228.97">
  <defs>
    <style>
      .cls-1 {
        fill: url(#linear-gradient-5);
      }

      .cls-1, .cls-2, .cls-3, .cls-4, .cls-5, .cls-6, .cls-7, .cls-8, .cls-9, .cls-10, .cls-11, .cls-12, .cls-13, .cls-14, .cls-15, .cls-16, .cls-17, .cls-18, .cls-19, .cls-20, .cls-21, .cls-22, .cls-23, .cls-24, .cls-25, .cls-26, .cls-27, .cls-28, .cls-29, .cls-30, .cls-31, .cls-32, .cls-33, .cls-34, .cls-35, .cls-36, .cls-37 {
        fill-rule: evenodd;
      }

      .cls-2 {
        fill: url(#linear-gradient-7);
      }

      .cls-3 {
        fill: url(#linear-gradient-8);
      }

      .cls-4 {
        fill: url(#linear-gradient-2);
      }

      .cls-5 {
        fill: url(#linear-gradient-3);
      }

      .cls-6 {
        fill: url(#linear-gradient-4);
      }

      .cls-7 {
        fill: url(#linear-gradient-9);
      }

      .cls-8 {
        fill: url(#linear-gradient-6);
      }

      .cls-9 {
        fill: url(#radial-gradient);
      }

      .cls-10 {
        fill: #c59e75;
      }

      .cls-11 {
        fill: url(#linear-gradient-21);
      }

      .cls-12 {
        fill: url(#linear-gradient-19);
      }

      .cls-13 {
        fill: url(#linear-gradient-14);
      }

      .cls-14 {
        fill: url(#linear-gradient-32);
      }

      .cls-15 {
        fill: url(#linear-gradient-28);
      }

      .cls-16 {
        fill: url(#linear-gradient-25);
      }

      .cls-17 {
        fill: url(#linear-gradient-20);
      }

      .cls-18 {
        fill: url(#linear-gradient-22);
      }

      .cls-19 {
        fill: url(#linear-gradient-23);
      }

      .cls-20 {
        fill: url(#linear-gradient-18);
      }

      .cls-21 {
        fill: url(#linear-gradient-17);
      }

      .cls-22 {
        fill: url(#linear-gradient-30);
      }

      .cls-23 {
        fill: url(#linear-gradient-33);
      }

      .cls-24 {
        fill: url(#linear-gradient-31);
      }

      .cls-25 {
        fill: url(#linear-gradient-16);
      }

      .cls-26 {
        fill: url(#linear-gradient-15);
      }

      .cls-27 {
        fill: url(#linear-gradient-29);
      }

      .cls-28 {
        fill: url(#linear-gradient-26);
      }

      .cls-29 {
        fill: url(#linear-gradient-27);
      }

      .cls-30 {
        fill: url(#linear-gradient-24);
      }

      .cls-31 {
        fill: url(#linear-gradient-10);
      }

      .cls-32 {
        fill: url(#linear-gradient-11);
      }

      .cls-33 {
        fill: url(#linear-gradient-13);
      }

      .cls-34 {
        fill: url(#linear-gradient-12);
      }

      .cls-35 {
        fill: url(#linear-gradient);
      }

      .cls-36 {
        fill: url(#radial-gradient-3);
      }

      .cls-37 {
        fill: url(#radial-gradient-2);
      }
    </style>
    <radialGradient id="radial-gradient" cx="-119.99" cy="1282.13" fx="-119.99" fy="1282.13" r="12.88" gradientTransform="translate(1048.49 10301.87) scale(7.94 -7.94)" gradientUnits="userSpaceOnUse">
      <stop offset="0" stop-color="#343479"/>
      <stop offset="1" stop-color="#0e0e1c"/>
    </radialGradient>
    <radialGradient id="radial-gradient-2" cx="-105.48" cy="1157.88" fx="-105.48" fy="1157.88" r="7.49" gradientTransform="translate(546.42 5391.01) scale(4.61 -4.61)" gradientUnits="userSpaceOnUse">
      <stop offset="0" stop-color="#f3d5ab"/>
      <stop offset="1" stop-color="#dc9b3f"/>
    </radialGradient>
    <linearGradient id="linear-gradient" x1="-180.89" y1="1337.7" x2="-180.89" y2="1321.87" gradientTransform="translate(6604.64 12446.18) rotate(-20.12) scale(10.38 -10.38)" gradientUnits="userSpaceOnUse">
      <stop offset="0" stop-color="#f3d5ab"/>
      <stop offset="1" stop-color="#dc9b3f"/>
    </linearGradient>
    <linearGradient id="linear-gradient-2" x1="-205.04" y1="1227.49" x2="-205.04" y2="1218.76" gradientTransform="translate(3574.14 6220.62) rotate(-20.12) scale(5.73 -5.73)" xlink:href="#linear-gradient"/>
    <radialGradient id="radial-gradient-3" cx="-200.43" cy="1227.67" fx="-200.43" fy="1227.67" r="9.56" gradientTransform="translate(3929.16 6949.95) rotate(-20.12) scale(6.27 -6.27)" gradientUnits="userSpaceOnUse">
      <stop offset="0" stop-color="#d473c9"/>
      <stop offset="1" stop-color="#0e0e1c"/>
    </radialGradient>
    <linearGradient id="linear-gradient-3" x1="-247.66" y1="1055.69" x2="-247.66" y2="1050.27" gradientTransform="translate(2162.87 3321.44) rotate(-20.12) scale(3.56 -3.56)" xlink:href="#linear-gradient"/>
    <linearGradient id="linear-gradient-4" x1="-236.47" y1="1021.76" x2="-236.47" y2="1016.77" gradientTransform="translate(1980.45 2946.71) rotate(-20.12) scale(3.28 -3.28)" xlink:href="#linear-gradient"/>
    <linearGradient id="linear-gradient-5" x1="-265.19" y1="943.75" x2="-265.19" y2="939.34" gradientTransform="translate(1726.63 2425.28) rotate(-20.12) scale(2.89 -2.89)" xlink:href="#linear-gradient"/>
    <linearGradient id="linear-gradient-6" x1="-271.95" y1="820.34" x2="-271.95" y2="816.71" gradientTransform="translate(1399.66 1753.58) rotate(-20.12) scale(2.38 -2.38)" xlink:href="#linear-gradient"/>
    <linearGradient id="linear-gradient-7" x1="-287.08" y1="818.47" x2="-287.08" y2="814.79" gradientTransform="translate(1420.03 1795.44) rotate(-20.12) scale(2.42 -2.42)" xlink:href="#linear-gradient"/>
    <linearGradient id="linear-gradient-8" x1="-299.3" y1="697.06" x2="-299.3" y2="694.05" gradientTransform="translate(1133.26 1206.31) rotate(-20.12) scale(1.97 -1.97)" xlink:href="#linear-gradient"/>
    <linearGradient id="linear-gradient-9" x1="-300.88" y1="682.72" x2="-300.88" y2="679.64" gradientTransform="translate(1162.33 1266.04) rotate(-20.12) scale(2.02 -2.02)" xlink:href="#linear-gradient"/>
    <linearGradient id="linear-gradient-10" x1="-340.11" y1="460.97" x2="-340.11" y2="458.59" gradientTransform="translate(865.49 656.23) rotate(-20.12) scale(1.56 -1.56)" xlink:href="#linear-gradient"/>
    <linearGradient id="linear-gradient-11" x1="-348.26" y1="488.61" x2="-348.26" y2="486.24" gradientTransform="translate(859.61 644.15) rotate(-20.12) scale(1.55 -1.55)" xlink:href="#linear-gradient"/>
    <linearGradient id="linear-gradient-12" x1="-365.36" y1="465.87" x2="-365.36" y2="463.5" gradientTransform="translate(859.6 644.13) rotate(-20.12) scale(1.55 -1.55)" xlink:href="#linear-gradient"/>
    <linearGradient id="linear-gradient-13" x1="-330.86" y1="476.38" x2="-330.86" y2="474.01" gradientTransform="translate(859.61 644.15) rotate(-20.12) scale(1.55 -1.55)" xlink:href="#linear-gradient"/>
    <linearGradient id="linear-gradient-14" x1="-294" y1="763.72" x2="-294" y2="760.39" gradientTransform="translate(1269.91 1487.03) rotate(-20.12) scale(2.18 -2.18)" xlink:href="#linear-gradient"/>
    <linearGradient id="linear-gradient-15" x1="-280.75" y1="747.39" x2="-280.75" y2="744.04" gradientTransform="translate(1276.89 1501.37) rotate(-20.12) scale(2.2 -2.2)" xlink:href="#linear-gradient"/>
    <linearGradient id="linear-gradient-16" x1="-283.01" y1="820.79" x2="-283.01" y2="817.13" gradientTransform="translate(1412.42 1779.8) rotate(-20.12) scale(2.4 -2.4)" xlink:href="#linear-gradient"/>
    <linearGradient id="linear-gradient-17" x1="-287.51" y1="735.81" x2="-287.51" y2="732.67" gradientTransform="translate(1190.78 1324.48) rotate(-20.12) scale(2.06 -2.06)" xlink:href="#linear-gradient"/>
    <linearGradient id="linear-gradient-18" x1="-286.63" y1="704.97" x2="-286.63" y2="701.83" gradientTransform="translate(1187.81 1318.38) rotate(-20.12) scale(2.06 -2.06)" xlink:href="#linear-gradient"/>
    <linearGradient id="linear-gradient-19" x1="-307.62" y1="697.03" x2="-307.62" y2="693.89" gradientTransform="translate(1189.29 1321.42) rotate(-20.12) scale(2.06 -2.06)" xlink:href="#linear-gradient"/>
    <linearGradient id="linear-gradient-20" x1="-311.39" y1="734.57" x2="-311.39" y2="731.43" gradientTransform="translate(1189.29 1321.42) rotate(-20.12) scale(2.06 -2.06)" xlink:href="#linear-gradient"/>
    <linearGradient id="linear-gradient-21" x1="-394.29" y1="288.51" x2="-394.29" y2="286.53" gradientTransform="translate(692.38 300.62) rotate(-20.12) scale(1.3 -1.3)" xlink:href="#linear-gradient"/>
    <linearGradient id="linear-gradient-22" x1="-366.14" y1="260.33" x2="-366.14" y2="258.35" gradientTransform="translate(692.38 300.62) rotate(-20.12) scale(1.3 -1.3)" xlink:href="#linear-gradient"/>
    <linearGradient id="linear-gradient-23" x1="-383.91" y1="254.93" x2="-383.91" y2="252.96" gradientTransform="translate(690.02 295.77) rotate(-20.12) scale(1.29 -1.29)" xlink:href="#linear-gradient"/>
    <linearGradient id="linear-gradient-24" x1="-405.45" y1="298.89" x2="-405.45" y2="296.87" gradientTransform="translate(711.02 338.91) rotate(-20.12) scale(1.33 -1.33)" xlink:href="#linear-gradient"/>
    <linearGradient id="linear-gradient-25" x1="-469.92" y1="-181.86" x2="-469.92" y2="-183.29" gradientTransform="translate(460.12 -176.53) rotate(-20.12) scale(.94 -.94)" xlink:href="#linear-gradient"/>
    <linearGradient id="linear-gradient-26" x1="-494.31" y1="-190.41" x2="-494.31" y2="-191.84" gradientTransform="translate(460.12 -176.53) rotate(-20.12) scale(.94 -.94)" xlink:href="#linear-gradient"/>
    <linearGradient id="linear-gradient-27" x1="-469.29" y1="-156.74" x2="-469.29" y2="-158.23" gradientTransform="translate(485.59 -124.19) rotate(-20.12) scale(.98 -.98)" xlink:href="#linear-gradient"/>
    <linearGradient id="linear-gradient-28" x1="-459.95" y1="-242" x2="-459.95" y2="-243.44" gradientTransform="translate(460.12 -176.53) rotate(-20.12) scale(.94 -.94)" xlink:href="#linear-gradient"/>
    <linearGradient id="linear-gradient-29" x1="-457.47" y1="-187.63" x2="-457.47" y2="-189.06" gradientTransform="translate(456.86 -183.22) rotate(-20.12) scale(.93 -.93)" xlink:href="#linear-gradient"/>
    <linearGradient id="linear-gradient-30" x1="-512.73" y1="-223.87" x2="-512.73" y2="-225.29" gradientTransform="translate(456.86 -183.22) rotate(-20.12) scale(.93 -.93)" xlink:href="#linear-gradient"/>
    <linearGradient id="linear-gradient-31" x1="-447.5" y1="-89.51" x2="-447.5" y2="-91" gradientTransform="translate(485.61 -124.16) rotate(-20.12) scale(.98 -.98)" xlink:href="#linear-gradient"/>
    <linearGradient id="linear-gradient-32" x1="-233.92" y1="1081.18" x2="-233.92" y2="1075.41" gradientTransform="translate(2311.83 3627.45) rotate(-20.12) scale(3.79 -3.79)" xlink:href="#linear-gradient"/>
    <linearGradient id="linear-gradient-33" x1="-257.3" y1="954.67" x2="-257.3" y2="950.28" gradientTransform="translate(1725.57 2423.09) rotate(-20.12) scale(2.88 -2.88)" xlink:href="#linear-gradient"/>
  </defs>
  <path class="cls-9" d="M51.24,78.64c-.17,3.39-1.4,4.38-2.94,6.92-1.54,2.54-4.81,5.36-6.29,8.32s-3.16,4.91-2.64,9.44c.52,4.53.44,2.58,5.78,17.73,5.34,15.15,20.14,58.33,26.28,73.16,6.14,14.83,6.58,12.99,10.55,15.83,3.97,2.84,6.02,2.88,13.3,1.21,7.27-1.66,21.13-7.3,30.34-11.18,9.21-3.88,20.59-7.8,24.91-12.12,4.32-4.32,2.97-5.33,1.01-13.8s-7.39-21.76-12.79-37.04-14.57-43.5-19.62-54.6c-5.05-11.1-6.52-9.29-10.66-11.97-4.14-2.68-10.21-1.86-14.16-4.13-3.96-2.27-7.92-6.91-9.58-9.49s-.94-4.48-.4-5.99,3.03-1.82,3.59-3.04,1.27-3.61-.24-4.27c-1.51-.66-1.54-1.84-8.83.31-7.29,2.15-28.78,9.15-34.9,12.58-6.12,3.43-2.72,6.57-1.83,8.02.9,1.45,5.68-1.64,7.21.71,1.52,2.35,2.1,10.01,1.93,13.4Z"/>
  <path class="cls-37" d="M36.72,36.83c1.18-1.8,6.39-5.31,8.93-7.1,2.54-1.79,3.58-2.55,6.29-3.65,2.71-1.1,6.65-2.39,9.95-2.94,3.3-.56,7.56-.47,9.84-.4,2.28.07,3.18.41,3.85.81.68.41-.37-1.17.2,1.62.58,2.79,2.15,8.67,3.25,15.12s5.95,18.2,3.35,23.57c-2.6,5.37-14.65,7.07-18.98,8.62s-5.68.91-7,.71c-1.32-.2.58.75-.91-1.93-1.49-2.67-5.2-8.98-8.02-14.1-2.82-5.12-7.13-13.25-8.93-16.64-1.79-3.39-3.01-1.88-1.83-3.68Z"/>
  <path class="cls-35" d="M67.63,48.29c4.15-1.52,8.36-3.02,12.67-4.25,1.54-.43,3.06-.86,4.45-.59,1.29.31,2.7,1.34,2.66,2.65-.12,1.08-.56,2.02-1.2,2.39-.91.72-2.47,1.42-3.49,1.8-.23.08-.31.24-.46.55.92,7.84,6.49,14.89,13.92,17.48,1.89.86,3.78,1.07,5.76,1.52,3.16.52,6.16,1.25,8.72,2.91,3.89,2.84,5.91,7.31,7.83,12.56l31.05,84.76c1.84,5.03,3.29,9.3,2.03,13.65-1.77,5.83-7.98,9.02-13.25,10.95l-39.92,14.62c-5.38,1.97-12.1,3.78-17.3.24-3.65-2.55-5.43-6.7-7.27-11.73l-31.05-84.76c-1.93-5.26-3.35-10.19-2.13-14.65.84-3.04,2.85-5.33,4.78-7.85,1.22-1.62,2.45-3.23,3.41-4.88,4-6.79,3.8-15.8-.67-22.34-.08-.23-.47-.21-.7-.12-1.02.37-2.16.79-3.56.91-1,.11-1.89-.21-2.52-.89-1.04-1.04-.63-3.14.37-4.28,1.27-1.5,3.09-2.17,4.69-2.76l14.95-5.6c2.06-.75,4.12-1.53,6.21-2.29ZM68.43,46.51c-2.3.84-4.57,1.71-6.78,2.56l-15.06,5.64c-1.83.67-3.78,1.38-5.11,3.04-1.57,1.75-2,4.5-.36,6.09.75,1.02,2.04,1.33,3.46,1.34,1.16-.04,2.18-.42,3.22-.8,3.76,6.02,4.03,14.21.37,20.5-.95,1.65-2.11,3.11-3.38,4.61-2.16,2.6-4.04,5.25-5.11,8.35-1.53,5.36.57,11.08,2.16,15.43l31.04,84.75c1.89,5.15,3.67,9.68,7.8,12.45,5.56,3.8,12.89,1.9,18.38-.11l40.38-14.79c5.73-2.1,12.29-5.42,14.06-11.89,1.4-4.68-.16-9.29-2.04-14.44l-31.04-84.75c-1.6-4.36-3.73-10.19-8.33-13.17-2.79-1.95-6.12-2.56-9.3-3.07-1.71-.41-3.69-.86-5.48-1.5-6.93-2.27-12-8.7-12.91-15.77.91-.33,2.32-1.11,3.26-1.71,1.01-.77,1.64-1.9,1.63-3.33-.01-2.19-1.88-3.72-3.59-4.13-1.77-.25-3.31.17-5.1.57-4.07,1.25-8.18,2.66-12.18,4.13Z"/>
  <path class="cls-4" d="M55.76,25.24c6.13-2.25,13-2.72,19.1-1.39,2.54,12.96,5.09,26.29,7.55,39.4-3.27,2.95-7.19,5.26-11.51,6.84-4.32,1.58-9.03,2.44-13.89,2.46-6.58-11.6-13.21-23.31-19.56-35,4.69-4.17,10.1-8.89,16.73-11.69.51-.22,1.05-.43,1.57-.62ZM55.27,23.99c-.52.19-1.03.39-1.54.61-7,2.82-12.68,7.89-17.56,12.27-.19.19-.18.59-.1.81,6.44,11.91,13.35,24.04,20.02,35.87l.58.17c5.09.09,10.12-.72,14.69-2.39,4.57-1.67,8.7-4.22,12.31-7.5.34-.12.37-.4.33-.5-2.45-13.38-5.23-27.01-7.78-40.35-.04-.12-.28-.42-.55-.45-6.63-1.4-14-.88-20.4,1.46Z"/>
  <path class="cls-10" d="M43.96,36.21c-2.43,1.15-1.13,4.7,1.38,3.78,2.41-.88,1.02-4.66-1.38-3.78Z"/>
  <path class="cls-10" d="M74.85,57.85c-2.41.88-1.02,4.66,1.38,3.78,2.41-.88,1.02-4.66-1.38-3.78Z"/>
  <path class="cls-10" d="M56.63,58.04c-2.25.94-.9,4.62,1.38,3.78,2.41-.88,1.02-4.66-1.38-3.78Z"/>
  <path class="cls-10" d="M63.95,38.36c-.23.08-.34.12-.64.37-.3.23-.42.27-.4.66-.08.17-.04.27-.1.43-.11.42-.14.69-.01,1.04l.17.46.75.63.17.08c.19.19.58.17.73.25.27.02.5-.06.73-.14.35-.13.46-.17.65-.36.31-.25.41-.29.41-.67.18-.2.14-.31.21-.47,0-.38.02-.65-.11-1l-.12-.34c-.09-.62-.44-.87-.72-.91-.48-.22-.62-.29-.85-.21-.39,0-.5.05-.85.17Z"/>
  <path class="cls-10" d="M53.11,44.16c-2.37.99-1.07,4.54,1.34,3.66,2.51-.92,1.17-4.58-1.34-3.66Z"/>
  <path class="cls-10" d="M58.02,27.83c-2.29.84-.9,4.62,1.38,3.78,2.41-.88,1.02-4.66-1.38-3.78Z"/>
  <path class="cls-10" d="M72.26,36.62c-2.39.88-1.05,4.53,1.34,3.66,2.41-.88,1.07-4.54-1.34-3.66Z"/>
  <path class="cls-10" d="M65.03,63.26c-2.41.88-1.06,4.55,1.34,3.67,2.39-.88,1.05-4.55-1.34-3.67Z"/>
  <path class="cls-36" d="M58.99,116.21c-3.43,1.26-6.48,3.53-7.49,7.15l26.61,72.63c1.51,4.11,3,7.85,5.56,9.51,2.6,1.76,6.79,1.54,13.2-.81l39.92-14.62c6.4-2.34,9.75-4.88,10.59-7.9.88-2.92-.38-6.74-1.89-10.85l-26.61-72.63c-2.27-1.04-4.67-.88-6.95-.04-.55.2-1.09.44-1.63.72-5.05,2.5-9.5,5.95-13.99,8.89-3.03,2.06-6.25,3.89-9.69,5.15-1.75.64-3.55,1.13-5.43,1.42-3.64.68-7.38.37-11.21.22-3.7-.2-7.55-.09-10.99,1.17Z"/>
  <path class="cls-5" d="M45.51,98c-.16.06-.28.19-.4.45-1.01,2.58-.87,5.78.24,9.52.38,1.42,1.05,2.86,1.55,4.24.54,1.48,1.32,2.89,1.63,4.45.17.46.48.6.82.48.35-.13.54-.32.56-.98-.48-1.64-1.17-3.2-1.67-4.57l-1.51-4.11c-1.11-3.36-1.27-6.29-.34-8.71.04-.27-.09-.61-.4-.75-.2-.05-.35-.05-.48,0Z"/>
  <path class="cls-6" d="M95.91,71.62c-.09.03-.18.08-.27.14-.14.31-.12.7.11,1,1.86,1.53,4.19,1.85,6.51,2.16,1.77.26,3.67.47,5.16,1.36,2.04,1.33,3.34,3.84,4.26,6.35.08.23.44.48.79.35.23-.08.49-.44.37-.78-1.05-2.86-2.45-5.6-4.96-7.13-1.65-.95-3.69-1.24-5.48-1.5-2.27-.21-4.33-.49-5.72-1.79-.17-.23-.51-.26-.77-.16Z"/>
  <path class="cls-1" d="M74.26,129.53c-.81.3-1.22,1.04-1.44,1.72-.14.71-.14,1.74-.39,2.48-.68-.79-1.5-1.27-2.51-1.53-.56-.21-1.19-.17-1.74.03-.34.12-.65.31-.9.54-.52.71-.6,1.52-.43,2.37.14.73.62,1.33,1.1,1.93.88,1.36,2.19,2.45,3.53,3.63.81.47,3.19,2.22,4.12,1.88.03,0,.04-.03.06-.04,1.14-.42,1.16-3.54,1.34-4.5.14-1.74.16-3.44.03-5.21-.02-.77-.08-1.65-.56-2.25-.36-.65-1.19-1.12-1.96-1.1-.09.02-.17.03-.24.06Z"/>
  <path class="cls-8" d="M117.06,140.81c-.38.14-.7.42-.75.84-.21.47-.16.97-.1,1.47.02,1.15.32,2.34.7,3.37.29.79.62,2.74,1.37,3,.11.02.26,0,.41-.06.74-.27,1.79-1.31,2.19-1.69.6-.86,1.18-1.73,1.81-2.86.27-.36.43-.94.39-1.44-.02-.39-.23-.95-.5-1.37-.44-.49-1.29-.31-1.85-.1-.58.21-1.02.75-1.47,1.32-.32-.54-.38-1.04-.59-1.6-.21-.58-.65-1.06-1.26-.97-.12.01-.24.04-.35.08Z"/>
  <path class="cls-2" d="M87.48,178.4s-.07.02-.11.04c-.64.37-.12,2.51-.13,3.17.19,1.23.46,2.29.88,3.43.13.35.33.91.61,1.33.33.53,1.02.66,1.48.5.58-.21.83-.94.77-1.44-.05-.5-.26-1.08-.09-1.66.52.33,1.14.62,1.79.64.23-.03.47-.1.68-.17.39-.14.74-.35.95-.68.18-.59.08-1.19-.08-1.65-.32-.54-.72-.91-1.07-1.16-.79-.75-1.79-1.3-2.68-1.61-.59-.29-2.19-1.03-3-.73Z"/>
  <path class="cls-3" d="M107,116.6c-.48.18-1.1.62-1.38.81-.6.48-1.1.92-1.76,1.56-.19.19-.46.55-.56.98-.02.27-.08.81.27,1.06.24.31.82.48,1.17.35.46-.17.91-.33,1.33-.61h0c.12.34.02.77.07,1.27.12.34.29.79.68.79.15.07.31.07.46.01.19-.07.36-.24.41-.47.3-.23.25-.73.29-1.01l.12-2.51c-.06-.5-.06-1.91-.56-2.25-.13-.09-.31-.07-.53.01Z"/>
  <path class="cls-7" d="M116.74,181.06c-.23.08-.6.48-.59.86-.14.31-.1.81-.01,1.04.19.85.44,1.53.61,2.37.29.41.94,1.87,1.44,1.82.04-.01.08-.03.12-.04.56-.21,1.03-1.19,1.33-1.66.41-.67.76-1.45,1.13-2.23.25-.35.25-.75.28-1.02-.06-.5-.33-.91-.62-.93-.18-.09-.35-.08-.5-.03-.23.08-.41.29-.52.4-.31.24-.41.67-.71.9-.17-.46-.46-.87-.69-1.17-.29-.41-.83-.47-1.29-.31Z"/>
  <path class="cls-31" d="M119.24,162.41c-.08.03-.16.09-.19.16-.17.96-.62,1.52-1.18,2.11-.11.04-.06.16.13.35.7.12,1.14.62,1.58,1.1,0,0,.09.09.16.06.03,0,.06-.05.07-.15.33-.5.62-1.13,1.06-1.68l-.08-.23c-.54-.44-.92-1.08-1.23-1.62-.05-.13-.19-.14-.31-.1Z"/>
  <path class="cls-32" d="M91.06,117.19c-.09.03-.21.11-.23.19-.21.85-.6,1.52-1.21,2-.12.04-.08.15.12.34.73.25,1.17.74,1.61,1.23,0,0,.07.03.14,0,.03,0,.06-.04.09-.09.29-.62.58-1.25,1.07-1.69l-.12-.34c-.56-.45-.92-1.1-1.25-1.62-.02-.07-.12-.06-.22-.03Z"/>
  <path class="cls-34" d="M78.36,159.47c-.07.02-.17.11-.32.22-.1.81-.5,1.48-1.22,2-.11.04-.07.15.12.34.85.21,1.29.7,1.62,1.22,0,0,.11.02.22-.02.05-.02.09-.05.11-.1.18-.59.47-1.21.95-1.65l-.12-.34c-.44-.49-.8-1.14-1.23-1.62-.02-.05-.06-.08-.14-.05Z"/>
  <path class="cls-33" d="M123.08,125.7c-.05.02-.12.09-.22.19-.21.85-.6,1.52-1.33,2.04-.11.04-.02.27.12.34.85.21,1.29.7,1.63,1.23,0,0,.11,0,.22-.03.05-.02.09-.05.12-.09.29-.62.47-1.22.95-1.66l-.12-.34c-.44-.49-.8-1.14-1.23-1.62-.02-.05-.06-.08-.13-.06Z"/>
  <path class="cls-13" d="M94.07,141.1c-.45,1.6-1.34,3.08-2.61,4.2-.19.19-.06.54.09.61,1.37.54,2.39,1.2,3.23,2.45.05.13.19.16.34.1.09-.03.21-.11.28-.19.35-1.17,1.08-2.35,2.01-3.33.12-.04.14-.31-.05-.5-1.1-.89-1.92-2.03-2.6-3.19-.13-.35-.59-.18-.69-.14Z"/>
  <path class="cls-26" d="M135.11,172.42c-.09.03-.16.09-.2.16-.46,1.59-1.33,3.08-2.49,4.15-.31.25-.22.48-.02.66,1.31.42,2.38,1.2,3.18,2.33.08.23.3.24.46.18.09-.03.16-.09.19-.16.35-1.17,1.1-2.34,2.03-3.33.12-.04.11-.42-.05-.5-1.1-.89-1.91-2.01-2.64-3.3-.08-.23-.3-.24-.46-.18Z"/>
  <path class="cls-25" d="M95.71,162.9c.4-.15.92-.19,1.54,0,1.08.12,2.16,1.28,2.23,2.55.19,1.23-.54,2.41-1.6,3.05-1.04.38-2.12.26-2.83-.26-1.42-1.05-1.48-2.96-.7-4.03.19-.4.61-1.05,1.35-1.32ZM95.27,161.38c-.91.33-1.69,1.01-2.14,1.99-.91,1.75-.76,4.29,1.1,5.82,1,.93,2.46,1.05,3.84.54l.34-.12c1.59-.98,2.61-2.77,2.48-4.54-.28-1.85-1.6-3.32-3.34-3.84-.79-.17-1.58-.11-2.28.15Z"/>
  <path class="cls-21" d="M112.33,104.78c.26-.09.58-.13.98-.04.7.12,1.23.85,1.36,1.58.1.6-.37,1.43-1.1,1.96-.56.21-1.27.07-1.67-.3-.87-.58-.83-1.89-.38-2.45.09-.2.34-.57.81-.74ZM111.72,103.34c-.63.23-1.17.67-1.54,1.37-.47,1.21-.41,3.14.89,4.22.79.75,1.77.91,2.8.53.11-.04.34-.12.37-.4,1.21-.58,1.87-1.98,1.68-3.21-.08-1.27-1.11-2.32-2.4-2.63-.64-.13-1.27-.09-1.8.11Z"/>
  <path class="cls-20" d="M135.31,160.44c.26-.09.58-.12.98-.04.66.02,1.23.85,1.36,1.58.1.62-.37,1.43-1.14,1.85-.56.21-1.23.19-1.62-.18-.86-.6-.78-1.8-.39-2.47.09-.2.34-.57.81-.74ZM134.66,158.93c-.63.23-1.14.71-1.5,1.45-.46,1.2-.41,3.14.9,4.21.79.75,1.71.81,2.75.43.11-.04.34-.12.41-.29,1.21-.57,1.87-1.98,1.68-3.21-.08-1.27-1.11-2.32-2.4-2.63-.68-.18-1.3-.17-1.85.04Z"/>
  <path class="cls-12" d="M100.57,192.17c.23-.08.62-.1.93.04.69.14,1.34.82,1.51,1.66-.02.66-.5,1.48-1.14,1.85-.56.21-1.27.07-1.73-.14-.91-.7-.84-1.91-.47-2.7.07-.15.44-.54.9-.71ZM100.09,190.89c-.67.25-1.21.73-1.51,1.49-.62,1.13-.56,3.06.9,4.21.63.67,1.71.79,2.74.41.11-.04.23-.08.3-.23,1.33-.62,1.87-1.98,1.8-3.25-.19-1.23-1.23-2.28-2.44-2.75-.62-.12-1.25-.08-1.79.12Z"/>
  <path class="cls-17" d="M66.71,122.5c.28-.1.62-.14,1.07-.04.65.02,1.21.85,1.36,1.58.09.61-.5,1.48-1.14,1.84-.58.21-1.27.08-1.62-.18-.91-.7-.9-1.74-.5-2.41.14-.29.4-.62.84-.78ZM66.2,120.93c-.65.24-1.18.72-1.54,1.49-.62,1.14-.57,3.06.89,4.22.75.63,1.72.79,2.74.41.12-.04.23-.08.42-.28,1.22-.58,1.76-1.94,1.68-3.21-.07-1.27-1.11-2.32-2.43-2.76-.62-.11-1.22-.09-1.76.11Z"/>
  <path class="cls-11" d="M83.69,125.19c-1.6.59-.72,2.99.88,2.41,1.49-.55.61-2.95-.88-2.41Z"/>
  <path class="cls-18" d="M130.57,146.93c-1.71.63-.83,3.03.88,2.41,1.49-.55.61-2.95-.88-2.41Z"/>
  <path class="cls-19" d="M110.52,157c-1.6.59-.72,2.98.88,2.39,1.61-.59.74-2.98-.88-2.39Z"/>
  <path class="cls-30" d="M70.21,151.79c-1.6.59-.68,3.1.92,2.51s.68-3.1-.92-2.51Z"/>
  <path class="cls-16" d="M104.2,135.83c-.69.25-.22,1.52.46,1.26.91-.33.45-1.6-.46-1.26Z"/>
  <path class="cls-28" d="M85.57,151.21c-.91.33-.45,1.6.46,1.26.81-.3.34-1.56-.46-1.26Z"/>
  <path class="cls-29" d="M107.02,177.87c-.6.48-.18,1.62.5,1.37.79-.29.29-1.66-.5-1.37Z"/>
  <path class="cls-15" d="M132.57,185.63c-.87.46-.45,1.6.46,1.26.79-.29.33-1.55-.46-1.26Z"/>
  <path class="cls-27" d="M115.66,128.53c-.79.29-.34,1.54.46,1.25.91-.33.46-1.59-.46-1.25Z"/>
  <path class="cls-22" d="M78.81,178.09c-.79.29-.34,1.54.46,1.25.91-.33.46-1.59-.46-1.25Z"/>
  <path class="cls-24" d="M104.41,108.78c-.6.48-.18,1.62.5,1.37.79-.29.29-1.66-.5-1.37Z"/>
  <path class="cls-14" d="M65.13,91.21c-.08.03-.14.07-.2.12-.3.23-.25.73,0,1.04,6.53,5.78,13.61,10.59,21.64,14.12.17.08.27.04.39,0,.23-.08.34-.12.41-.29.21-.46.13-.69-.33-.91-7.78-3.51-14.8-8.19-21.18-13.91-.19-.22-.5-.24-.73-.16Z"/>
  <path class="cls-23" d="M78.96,93.29c-.05.02-.12.04-.18.1-.23.08-.4.66-.21.85,2.46,3.51,5.44,6.7,8.9,9.06.2.18.58.17.7.12.11-.04.23-.08.14-.31.3-.23.13-.69-.06-.88-3.46-2.36-6.36-5.33-8.61-8.65-.1-.28-.42-.4-.69-.3Z"/>
</svg>