<?xml version="1.0" encoding="UTF-8"?>
<svg id="Layer_1" data-name="Layer 1" xmlns="http://www.w3.org/2000/svg" xmlns:xlink="http://www.w3.org/1999/xlink" viewBox="0 0 185.32 150.8">
  <defs>
    <style>
      .cls-1 {
        fill: #ebb871;
      }

      .cls-1, .cls-2, .cls-3, .cls-4, .cls-5, .cls-6, .cls-7, .cls-8, .cls-9, .cls-10, .cls-11, .cls-12 {
        fill-rule: evenodd;
      }

      .cls-2 {
        fill: url(#linear-gradient-2);
      }

      .cls-3 {
        fill: url(#radial-gradient);
      }

      .cls-4 {
        fill: url(#linear-gradient);
      }

      .cls-5 {
        fill: url(#radial-gradient-7);
      }

      .cls-6 {
        fill: url(#radial-gradient-5);
      }

      .cls-7 {
        fill: url(#radial-gradient-6);
      }

      .cls-8 {
        fill: url(#radial-gradient-4);
      }

      .cls-9 {
        fill: url(#radial-gradient-8);
      }

      .cls-10 {
        fill: url(#radial-gradient-9);
      }

      .cls-11 {
        fill: url(#radial-gradient-3);
      }

      .cls-12 {
        fill: url(#radial-gradient-2);
      }
    </style>
    <linearGradient id="linear-gradient" x1="-100.43" y1="861.07" x2="-100.43" y2="855.57" gradientTransform="translate(627.59 4820.02) scale(5.5 -5.5)" gradientUnits="userSpaceOnUse">
      <stop offset="0" stop-color="#d473c9"/>
      <stop offset="1" stop-color="#0e0e1c"/>
    </linearGradient>
    <linearGradient id="linear-gradient-2" x1="-301.85" y1="913.52" x2="-301.85" y2="908.23" gradientTransform="translate(-3475.93 4262.35) rotate(-157.55) scale(5.73)" xlink:href="#linear-gradient"/>
    <radialGradient id="radial-gradient" cx="-105.79" cy="902.22" fx="-105.79" fy="902.22" r="6.23" gradientTransform="translate(729.15 5686.44) scale(6.23 -6.23)" gradientUnits="userSpaceOnUse">
      <stop offset="0" stop-color="#343479"/>
      <stop offset="1" stop-color="#0e0e1c"/>
    </radialGradient>
    <radialGradient id="radial-gradient-2" cx="-278.22" cy="943.5" fx="-278.22" fy="943.5" r="6.02" gradientTransform="translate(-3723.08 5114.9) rotate(-159.02) scale(6.45)" xlink:href="#radial-gradient"/>
    <radialGradient id="radial-gradient-3" cx="-76.56" cy="998" fx="-76.56" fy="998" r="8.88" gradientTransform="translate(-890.15 9058.78) rotate(10.67) scale(9.03 -9.03)" gradientUnits="userSpaceOnUse">
      <stop offset="0" stop-color="#f3d5ab"/>
      <stop offset="1" stop-color="#dc9b3f"/>
    </radialGradient>
    <radialGradient id="radial-gradient-4" cx="-8.25" cy="770.2" fx="-8.25" fy="770.2" r="4.03" gradientTransform="translate(-480.67 3179.03) rotate(10.67) scale(4.11 -4.11)" xlink:href="#radial-gradient-3"/>
    <radialGradient id="radial-gradient-5" cx="135.07" cy="338.14" fx="135.07" fy="338.14" r="1.99" gradientTransform="translate(-307.81 696.94) rotate(10.67) scale(2.03 -2.03)" xlink:href="#radial-gradient-3"/>
    <radialGradient id="radial-gradient-6" cx="115.01" cy="352.33" fx="115.01" fy="352.33" r="2" gradientTransform="translate(-308.43 705.77) rotate(10.67) scale(2.03 -2.03)" xlink:href="#radial-gradient-3"/>
    <radialGradient id="radial-gradient-7" cx="5.49" cy="770.83" fx="5.49" fy="770.83" r="4.04" gradientTransform="translate(-481.22 3186.83) rotate(10.67) scale(4.11 -4.11)" xlink:href="#radial-gradient-3"/>
    <radialGradient id="radial-gradient-8" cx="146.4" cy="335.91" fx="146.4" fy="335.91" r="1.99" gradientTransform="translate(-307.37 690.66) rotate(10.67) scale(2.02 -2.02)" xlink:href="#radial-gradient-3"/>
    <radialGradient id="radial-gradient-9" cx="162.33" cy="356.12" fx="162.33" fy="356.12" r="2.01" gradientTransform="translate(-309.2 716.87) rotate(10.67) scale(2.04 -2.04)" xlink:href="#radial-gradient-3"/>
  </defs>
  <path class="cls-4" d="M53.97,94.96c1.13-3.66,1.57-5.42,8.12-7.91,6.55-2.49,25.69-6.81,31.18-7.03,5.49-.22,1.9,3,1.76,5.71-.15,2.71-1.76,9.33-2.64,10.54-.88,1.21-.91-4.06-2.63-3.3-1.72.77-4.32,5.27-7.68,7.91-3.37,2.63-8.05,6.55-12.51,7.9s-11.67,2.52-14.27.22-2.45-10.39-1.32-14.05Z"/>
  <path class="cls-2" d="M132.86,109.99c.35-3.82.62-5.61-4.49-10.41-5.1-4.8-21.14-16.1-26.13-18.4-4.99-2.3-2.9,2.05-3.8,4.6-.9,2.56-1.94,9.3-1.59,10.75.35,1.45,2.4-3.41,3.69-2.04,1.3,1.37,1.98,6.52,4.08,10.24,2.1,3.72,4.94,9.13,8.55,12.08,3.61,2.96,9.82,6.79,13.11,5.65,3.28-1.14,6.23-8.67,6.58-12.48Z"/>
  <path class="cls-3" d="M40.8,56.56c.18-7.14,3.3-13.76,5.49-17.13,2.2-3.37,4.46-2.82,7.68-3.07,3.22-.26,6.81-.29,11.64,1.54,4.83,1.83,12.37,5.67,17.35,9.44s9.92,9.52,12.52,13.18c2.6,3.66,2.93,5.89,3.07,8.78s-.37,6.63-2.2,8.56c-1.83,1.94-2.05,1.35-8.78,3.07s-24.55,7.02-31.62,7.24c-7.06.22-8.23-.65-10.76-5.92s-4.58-18.56-4.39-25.7Z"/>
  <path class="cls-12" d="M160.59,79.21c2.38-6.73,1.85-14.03,1-17.96-.85-3.93-3.16-4.23-6.07-5.62-2.91-1.39-6.25-2.71-11.41-2.73s-13.58.87-19.58,2.61c-6,1.74-12.67,5.33-16.4,7.82s-4.84,4.45-6.01,7.1c-1.17,2.65-2.03,6.32-1.02,8.78,1.01,2.47,1.43,2,7.1,6.01s20.41,15.35,26.93,18.08c6.51,2.73,7.92,2.34,12.16-1.67,4.24-4.02,10.92-15.69,13.3-22.42Z"/>
  <path class="cls-11" d="M58.47,37.25c10.59,2,19.41,7.42,27.42,14.51,3.41,3.08,6.47,6.48,9.17,10.13.28.48.45.84.34,1.43-1.16,4.89-2.28,9.85-3.22,14.83-.09.5-.4.63-.8.79-2.93,1.14-6.07,1.81-9.2,2.53-7.14,1.56-14.31,3.22-21.51,4.86-1.3.32-2.6.36-3.91.12-.34-.06-.67-.14-1-.24-.37-.03-.73-.08-1.08-.14-3.11-.58-5.02-2.64-6.17-5.73-1.39-3.59-1.76-7.37-2.03-11.13-.45-5.57-.47-11.21-.35-16.82.05-2.52.29-5.01.87-7.39.47-1.97,1.07-3.92,2.41-5.55,1.71-2.12,3.95-3.01,6.68-2.59.81.11,1.6.24,2.38.39ZM150.57,54.38c1.42.27,2.81.66,4.06,1.33,2.35,1.24,3.52,3.48,3.68,6.14.12,3.35-.5,6.66-1.61,9.83-1.86,5.37-3.91,10.53-6.27,15.62-1.4,2.97-2.89,5.88-4.78,8.67-1.1,1.58-2.36,3.07-3.98,4.22-1.73,1.17-3.53,1.54-5.52,1.17l-1.31-.25c-.34-.02-.67-.06-1-.12-2.61-.49-4.62-2.29-6.77-3.74-5.62-3.83-11.22-7.69-16.89-11.44-2.08-1.38-4.06-2.88-5.85-4.58-.27-.28-.4-.59-.32-1.04.88-4.67,1.62-9.36,2.23-14.08.12-1.15.59-1.86,1.59-2.47,8.76-5.15,18.1-8.65,28.29-9.68,4.3-.41,8.53-.41,12.78.15.56.08,1.13.17,1.69.27ZM117.74,92.62c2.36,1.66,4.77,3.29,7.18,4.96,3.53,2.45,5.1,6.07,5.99,10.04-2.37-5.84-7.38-9.41-11.77-13.47-.53-.43-1.05-.9-1.58-1.33.07-.13.08-.17.18-.2ZM74.93,84.56h0c-3.16,1.33-6.28,2.43-9.4,3.81-3.11,1.34-6.1,2.74-8.31,5.47.57-1.25,1.42-2.31,2.4-3.25,2.15-1.98,4.49-3.65,7.5-4.21,2.62-.49,5.2-1.18,7.8-1.82ZM106.85,85.18c2.15,1.81,4.34,3.59,6.36,5.37,4.05,3.63,8.29,7.01,12.06,10.9,1.76,1.88,3.33,3.77,4.18,6.23.22.56.39,1.15.2,1.91-.84-.3-1.42-.92-2.02-1.5-2.42-2.57-4.89-5.15-7.31-7.76-4.6-4.95-8.81-10.25-13.59-14.99.02-.09.07-.13.12-.16ZM87.76,81.67h0c-5.12,2.27-9.91,5.08-14.88,7.52-5.07,2.47-9.97,5.11-15.28,6.88.33-1.54,1.36-2.51,2.46-3.34,2.53-1.97,5.47-3.14,8.41-4.28,6.07-2.33,12.22-4.64,18.46-6.61.3-.08.54-.13.83-.17ZM102.6,88.55c1.8,7.61,4.01,14.83,7.11,21.79-1.35-1.57-2.38-3.27-3.36-5.09-1.65-3.17-3.39-6.41-4.77-9.77-.23-.56-.31-1.09-.19-1.72.31-1.64.63-3.36,1.22-5.21ZM90.41,86.26c-.13,2.23-.55,4.17-.91,6.07-.03.18-.16.35-.33.5-3.87,3.87-7.88,7.71-12.55,10.82-.26.14-.4.39-.87.35,2.73-2.77,5.36-5.51,7.74-8.44,2.39-2.98,4.64-5.97,6.91-9.3ZM90.46,81.81h0c-2.54,3.55-29.15,21.72-31.97,21.79.73-1.64,2.05-2.9,3.37-3.96,4.25-3.61,9.01-6.51,13.78-9.37,4.61-2.79,9.15-5.45,13.81-8.05.31-.17.59-.4,1.02-.42ZM104.21,84.25h0c1.23,1.45,2.29,2.78,3.4,4.16,4.59,5.75,9.23,11.5,13.4,17.54,1.58,2.32,3.03,4.61,4.19,7.13.51,1.03.84,2.03.96,3.37-1.29-.62-1.99-1.64-2.74-2.62-5.6-7.15-10.55-14.75-15.44-22.38-1.3-2.08-2.43-4.3-3.57-6.44-.15-.22-.31-.34-.19-.74ZM85.1,91.59h0c-1.51,3.05-11.05,13.31-13.51,14.67.28-.98.83-1.67,1.34-2.37,1.58-3.13,4.31-5.19,6.84-7.39,1.7-1.55,3.44-3.06,5.1-4.67.07-.13.08-.22.23-.24ZM105.52,95.48h0c1.49,3.05,2.96,6,4.66,8.9,1.56,2.64,2.2,5.48,2.64,8.38.03.33.18.78-.08,1.43-3.18-6.04-5.43-12.28-7.22-18.72ZM117.41,98.85c1.49,1.55,2.92,3.18,4.45,4.78,1.71,1.87,3.44,3.65,5.12,5.42.38.45.79.8,1.29,1.13.48.37.86.59,1.19.66.61.11,1.05-.29,1.59-1.26h0c.05,3.2-1.16,5.65-3.94,7.47.23-2.72-1.1-4.9-2.28-7.05-1.97-3.51-4.35-6.78-6.8-10.01-.31-.34-.53-.66-.74-1.03.05-.03.06-.08.12-.12ZM72.99,90.57h0c-.44.34-.93.67-1.39.91-3.99,2.49-7.98,5.01-11.45,8.21-1.2,1.13-2.45,2.31-2.86,4.24-1.89-2.7-2.21-5.48-.99-8.44h0c.16.64.12,1.34.83,1.56.11.05.22.08.34.1.5.09,1.02-.03,1.51-.17,2.76-.98,5.38-2.41,8.05-3.65,2.01-.93,3.93-1.93,5.97-2.77ZM90.6,83.52c-1.66,3.86-21.84,21.78-25.77,22.97-.02-.62.44-1.09.76-1.55,1.87-2.42,4.12-4.43,6.46-6.38,5.98-5.11,12.23-9.89,18.29-14.9.07-.08.11-.07.26-.14ZM103.55,86.01h0c1.42,2.43,2.83,4.9,4.21,7.27,2.84,5.09,5.84,10.11,8.52,15.3,1.15,2.14,2.14,4.35,2.74,6.66.1.49.37,1.01.08,1.56-.67-.41-1.01-1.13-1.46-1.73-2.79-4.37-5.27-8.87-7.66-13.4-2.27-4.37-4.5-8.73-6.04-13.48-.2-.69-.45-1.35-.39-2.19ZM72.53,102.5h0c-.74,1.69-2.12,2.79-1.87,4.72-1.67.39-3.3.55-5.14.39,2.54-1.54,4.61-3.31,7.01-5.1ZM113.35,110.19c1.58,2.55,2.87,4.95,4.67,7.31-1.78-.52-3.22-1.31-4.64-2.23.97-1.65.05-3.23-.03-5.07ZM70.49,98.13c-.38.77-.89,1-1.34,1.39-1.95,1.84-3.83,3.65-5.16,5.97-.34.6-.45,1.14-.27,1.92-.18-.03-.35-.06-.52-.09-1.93-.36-3.62-1.17-5.08-2.52,1.65-.02,2.82-.78,3.98-1.46,2.83-1.58,5.51-3.32,8.4-5.22ZM116.96,107.02h0c2.88,3.64,5.06,7.76,8.7,10.6-1.08.63-3.27.87-5.13.52-.22-.04-.45-.1-.67-.15.71-1.04.45-2.12.15-3.26-.66-2.47-1.7-4.68-2.87-6.92-.05-.24-.26-.37-.18-.78ZM75.23,21.14c-.05-.01-.11-.01-.18,0-.31.13-.17.39-.17.62.17,1.06.5,2.06.99,2.96,2.42,4.58,5.45,8.67,8.91,12.47,2.75,3.1,5.94,5.81,8.61,9.08,1.95,2.34,3.63,4.86,4.12,8,.12.87.37,1.81-.02,2.62-.61,1.25-1.05,2.57-1.57,3.88-.96-1.12-1.77-2.3-2.71-3.32-8.3-9.73-18.33-17.01-30.71-20.75-1.15-.35-2.32-.64-3.5-.86-2.99-.56-6.05-.7-9.09-.29-4.8.55-8.59,2.75-10.53,7.31-1.21,2.68-1.85,5.56-2.22,8.54-.57,5.01-.88,9.92-.79,14.91.02,4.37.3,8.64,1.23,12.86,1.14,4.81,4.13,8.39,8.93,9.3.93.17,1.92.25,2.98.21,2.27-.08,4.57-.08,7-.28h0c-.32.22-.53.32-.7.48-4.77,3.37-7.57,7.82-7.51,13.73.07,4.61,2.91,8.43,7.18,9.94.58.2,1.15.35,1.72.46,2.98.56,5.83-.08,8.66-1.32,1.59-.69,2.96-1.79,4.47-2.58,5.2-2.68,9.72-6.29,14.08-10.25,1.53-1.4,3.15-2.78,4.75-4.5-.02,1.12-.06,2.05-.09,2.94.02,2.12.05,4.23.83,6.26.56,1.4,1.75,2.26,3.05,2.51,1.3.25,2.73-.13,3.75-1.23.65-.72,1.23-1.55,1.68-2.4.99-1.79,1.59-3.74,2.33-5.9.24.47.41.78.42,1.25,2.01,4.27,4.16,8.52,6.59,12.59,1.91,3.08,4.29,5.83,6.52,8.74,1.28,1.65,2.74,3.14,4.48,4.36,1.54,1.06,3.2,1.86,4.98,2.2.92.17,1.87.22,2.84.12,5.49-.47,8.82-3.97,9.98-8.91.91-3.86.29-7.73-1.53-11.31-.45-.84-1.01-1.65-1.59-2.55h0c2.55,1.18,5.03,2.21,7.58,3.12.64.22,1.26.39,1.87.51,3.49.66,6.59-.45,9.39-3.03,1.9-1.85,3.27-4.17,4.53-6.61,1.97-3.76,3.6-7.67,5.03-11.76,1.88-5.51,3.76-11.02,4.02-16.88.13-3.16-.53-6.15-2.6-8.61-2.92-3.46-6.92-5.1-11.17-6.23-.83-.24-1.68-.44-2.54-.6-2.57-.48-5.21-.64-7.79-.6-10.77.13-20.85,2.87-30.33,7.84-1.65.77-3.23,1.74-4.81,2.61.07-1.16.11-2.32.04-3.46-.09-.77.06-1.54.43-2.26.64-1.43,1.53-2.67,2.66-3.68,2.43-2.21,5.21-3.76,8.22-5.02,6.38-2.74,12.62-5.69,18.2-9.94,1.55-1.21,3.14-2.46,4.18-4.23.19-.29.37-.49.05-.74-.04-.03-.09-.04-.13-.05-.23-.04-.38.13-.53.3-.53.6-.97,1.17-1.57,1.62-3.84,3.18-8.02,5.72-12.47,7.92-3.68,1.84-7.6,3.22-11.24,5.11-3.17,1.65-6.17,3.62-8.13,6.82-.08.17-.09.45-.46.48-.62-1.2-1.83-1.75-3.14-2-1.23-.19-2.47-.09-3.68.85-.48-4.17-2.72-7.22-5.22-10.13-2.89-3.36-6.34-6.17-9.23-9.53-3.6-4.05-6.95-8.2-9-13.28-.07-.2-.15-.4-.34-.43h0Z"/>
  <path class="cls-8" d="M59.12,55.82c-.25-.05-.51,0-.76.14-.79.46-.93,1.23-.29,2.53.33.72.71,1.45,1.1,2.18-.52.28-1.06.64-1.59.97-.92.67-1.2,1.18-.82,1.86.19.28.44.45.74.51.38.07.84-.05,1.34-.35.63-.35,1.26-.7,1.84-1.06.89.77,1.58,1.56,2.38,2.32-.18.25-.41.44-.64.68-.23.24-.41.44-.65.72-.61.73-.57,1.53.05,1.98.16.13.34.21.52.25.5.09,1.03-.16,1.44-.68.39-.58.77-1.12,1.25-1.64,1.7,1.03,3.51,1.7,5.38,2.05.12.02.24.05.37.06-.02.61-.17,1.14-.33,1.73-.32.92,0,1.54.64,1.81.05.01.1.03.15.04.61.12,1.22-.32,1.42-1.15.16-.63.25-1.32.38-2.04,1.84.2,3.52,0,5.19-.15.25.89.58,1.65,1.02,2.3.21.34.5.57.84.63.24.05.5,0,.77-.14.63-.35.74-.94.48-1.55-.23-.56-.49-1.17-.66-1.72.23-.24.53-.32.78-.37,1.76-.66,3.41-1.42,4.94-2.59.48-.33.89-.77.55-1.45-.15-.25-.33-.38-.53-.42-.3-.06-.63.07-.94.24-1.02.42-2.01.93-3.02,1.36-3.52,1.35-7.05,1.84-10.54,1.18-1.47-.28-2.93-.76-4.38-1.46-3.23-1.55-5.52-4.09-7.02-7.33-.4-.86-.88-1.33-1.39-1.43Z"/>
  <path class="cls-6" d="M88.26,73.79c.27.28.29.66.38.96-.18.2-.41.44-.72.57l-.38-.97c.22-.19.5-.38.72-.57ZM88.57,70.66c-.07-.01-.15-.01-.23,0-.32-.02-.48.33-.44.62.16,1.15-.39,1.8-1.28,2.3-.46.19-.68.57-.37.96.52.71.61,1.47.61,2.23.06.39.1.72.54.85.33.01.59-.13.7-.48.33-.78.78-1.4,1.51-1.78.26-.14.41-.44.32-.69-.49-1.13-.75-2.25-.86-3.45-.02-.3-.24-.51-.51-.56Z"/>
  <path class="cls-7" d="M54.43,44.2c.29.19.32.53.42.78-.2.29-.48.57-.88.92-.18-.27-.24-.47-.42-.74.31-.37.59-.64.89-.96ZM54.59,41.36c-.27.18-.46.43-.48.8-.19,1-.56,1.96-1.66,2.32-.35.12-.77.6-.3.88.88.54.96,1.4,1.17,2.24.11.32.19.6.5.66.03,0,.05,0,.08,0,.42.03.54-.37.6-.69.2-.81.53-1.59,1.35-1.95.46-.19.55-.65.24-.99-.57-.71-.71-1.5-.89-2.28-.11-.4-.18-.78-.61-1Z"/>
  <path class="cls-5" d="M142.79,71.64c-.42-.08-.85.11-1.28.4-.17.15-.34.31-.56.51-3.88,3.54-8.66,4.95-13.52,4.03-1.38-.26-2.78-.71-4.16-1.36-2.99-1.31-5.32-3.35-7.47-5.68-.34-.34-.68-.77-1.08-.84-.21-.04-.44.02-.68.23-.82.6-.2,1.32.15,1.9.9,1.44,2.09,2.6,3.34,3.72.24.23.63.36.7.79-.41.4-.81.83-1.18,1.28-.47.52-.64,1.14-.09,1.71.19.21.39.33.6.37.36.07.74-.09,1.09-.37.61-.5,1.23-1.04,1.75-1.78,1.47.89,3,1.5,4.72,2.06l-.2,1.09c-.08.4-.15.81-.17,1.14-.04.71.15,1.34.9,1.48.03,0,.06.01.09.02.68.13,1.21-.43,1.33-1.3.07-.64.05-1.26.35-1.86,1.38.12,2.72.28,4,.15.58-.02,1.27-.26,1.81-.16.07.01.15.03.22.07.6.3.51,1.27.75,1.97.16.56.59.92,1.07,1.01.2.04.41.03.62-.03.65-.25.96-.89.69-1.69-.17-.59-.47-1.26-.68-1.87,1.02-.46,2.04-.88,3.06-1.3.54.61.98,1.26,1.51,1.92.23.31.51.5.82.56.29.06.62-.02.95-.23.61-.49.53-1.07.13-1.71l-1.44-1.82c.22-.15.44-.34.7-.48.57-.55,1.18-1,1.71-1.6.61-.73.61-1.49.05-2.01-.2-.2-.4-.3-.61-.34Z"/>
  <path class="cls-9" d="M109.15,77.73c.14.26.32.53.51.8-.24.29-.47.52-.75.75-.17-.31-.37-.54-.46-.79.15-.3.37-.49.71-.75ZM110.06,74.75c-.39-.07-.71.1-.92.49-.37.96-.85,1.81-1.7,2.54-.33.26-.36.68-.1,1.01.42.55.67,1.2.72,1.92.01.43.08.81.54.9.04.01.08.03.12.03.39.07.51-.32.7-.63.32-.7.68-1.38,1.33-1.82.31-.17.4-.63.17-.91-.73-.89-1.12-1.76-.46-2.81.08-.41-.01-.66-.29-.71-.04-.01-.07-.02-.11-.03Z"/>
  <path class="cls-10" d="M151.4,62.42c.19.46.36.82.52,1.22l-.63.59c-.2-.41-.37-.78-.53-1.18.18-.2.36-.4.64-.63ZM152.18,59.75l-.54.37c-.62.82-1.13,1.76-2.08,2.33-.26.14-.31.65.01.94.65.55.68,1.35.63,2.14.01.43-.16.86.28.99.03.01.05.02.07.02.39.07.59-.24.83-.55.44-.57.71-1.28,1.53-1.4.87-.12.64-.67.25-1.08-.84-.76-.85-1.71-.66-2.71.07-.36.04-.69-.32-1.04Z"/>
  <path class="cls-1" d="M62.22,16c-.06,0-.12.01-.17.07l-1.46,4.58c-.02.13-.15.11-.15.11l-4.39.32,4.11,1.58c.13.02.12.09.12.09l.15,4.68c-.01.1.02.15.08.16.05,0,.13-.03.17-.12l1.56-4.43c0-.07.07-.06.07-.06l3.94-.32c.06,0,.09-.18.04-.25l-3.68-1.45c-.06,0-.05-.08-.05-.08l-.27-4.77c0-.06-.03-.1-.08-.1Z"/>
  <path class="cls-1" d="M175.98,66.03s-.08.02-.1.06l-.51,3.13c0,.08-.08.08-.08.08l-2.83.64,2.83.63c.08,0,.08.04.08.04l.55,3.04c0,.06.03.09.07.09.03,0,.08-.03.1-.09l.59-3.04s.04-.04.04-.04l2.54-.59s.04-.12,0-.17l-2.54-.59s-.04-.04-.04-.04l-.64-3.09s-.03-.06-.06-.06Z"/>
  <path class="cls-1" d="M24.93,76.13s-.08.02-.1.06l-.51,3.13c0,.08-.08.08-.08.08l-2.83.64,2.83.63c.08,0,.08.04.08.04l.55,3.04c0,.06.03.09.07.09.03,0,.08-.03.1-.09l.59-3.04s.04-.04.04-.04l2.54-.59s.04-.12,0-.17l-2.54-.59s-.04-.04-.04-.04l-.64-3.09s-.03-.06-.06-.06Z"/>
  <path class="cls-1" d="M153.15,114.77s-.08.02-.1.06l-.51,3.13c0,.08-.08.08-.08.08l-2.83.64,2.83.63c.08,0,.08.04.08.04l.55,3.04c0,.06.03.09.07.09.03,0,.08-.03.1-.09l.59-3.04s.04-.04.04-.04l2.54-.59s.04-.12,0-.17l-2.54-.59s-.04-.04-.04-.04l-.64-3.09s-.03-.06-.06-.06Z"/>
  <path class="cls-1" d="M85.16,113.2c-.06-.01-.12,0-.17.05l-1.83,4.45c-.03.12-.15.1-.15.1l-4.4-.04,3.96,1.91c.12.03.11.1.11.1l-.23,4.68c-.02.1.01.15.07.16.05.01.13-.02.18-.11l1.92-4.29c.02-.07.07-.05.07-.05h3.95c.06.02.1-.17.06-.25l-3.55-1.75c-.06-.01-.04-.08-.04-.08l.13-4.78c.01-.06-.02-.1-.07-.11Z"/>
  <path class="cls-1" d="M120.22,28.26s-.08.02-.1.06l-.51,3.13c0,.08-.08.08-.08.08l-2.83.64,2.83.63c.08,0,.08.04.08.04l.55,3.04c0,.06.03.09.07.09.03,0,.08-.03.1-.09l.59-3.04s.04-.04.04-.04l2.54-.59s.04-.12,0-.17l-2.54-.59s-.04-.04-.04-.04l-.64-3.09s-.03-.06-.06-.06Z"/>
</svg>