<?xml version="1.0" encoding="UTF-8"?>
<svg id="Layer_1" data-name="Layer 1" xmlns="http://www.w3.org/2000/svg" xmlns:xlink="http://www.w3.org/1999/xlink" viewBox="0 0 173.55 241.66">
  <defs>
    <style>
      .cls-1 {
        fill: #ebb871;
      }

      .cls-1, .cls-2, .cls-3, .cls-4, .cls-5, .cls-6, .cls-7, .cls-8, .cls-9 {
        fill-rule: evenodd;
      }

      .cls-2 {
        fill: url(#radial-gradient);
      }

      .cls-3 {
        fill: url(#radial-gradient-7);
      }

      .cls-4 {
        fill: url(#radial-gradient-5);
      }

      .cls-5 {
        fill: url(#radial-gradient-6);
      }

      .cls-6 {
        fill: url(#radial-gradient-4);
      }

      .cls-7 {
        fill: url(#radial-gradient-8);
      }

      .cls-8 {
        fill: url(#radial-gradient-3);
      }

      .cls-9 {
        fill: url(#radial-gradient-2);
      }
    </style>
    <radialGradient id="radial-gradient" cx="-292.11" cy="1617" fx="-292.11" fy="1617" r="6.03" gradientTransform="translate(2785.38 15032.33) scale(9.21 -9.21)" gradientUnits="userSpaceOnUse">
      <stop offset="0" stop-color="#343479"/>
      <stop offset="1" stop-color="#0e0e1c"/>
    </radialGradient>
    <radialGradient id="radial-gradient-2" cx="-302.72" cy="1646.06" fx="-302.72" fy="1646.06" r="7.39" gradientTransform="translate(3489.38 18678.67) scale(11.28 -11.28)" gradientUnits="userSpaceOnUse">
      <stop offset="0" stop-color="#d473c9"/>
      <stop offset="1" stop-color="#0e0e1c"/>
    </radialGradient>
    <radialGradient id="radial-gradient-3" cx="-316.27" cy="1656.7" fx="-316.27" fy="1656.7" r="8.43" gradientTransform="translate(6253.09 21049.71) rotate(-5.61) scale(12.93 -12.93)" gradientUnits="userSpaceOnUse">
      <stop offset="0" stop-color="#f3d5ab"/>
      <stop offset="1" stop-color="#dc9b3f"/>
    </radialGradient>
    <radialGradient id="radial-gradient-4" cx="-256.48" cy="1393.93" fx="-256.48" fy="1393.93" r="2.17" gradientTransform="translate(1358.98 4567.27) rotate(-5.61) scale(3.33 -3.33)" xlink:href="#radial-gradient-3"/>
    <radialGradient id="radial-gradient-5" cx="-234.71" cy="1359.65" fx="-234.71" fy="1359.65" r="1.98" gradientTransform="translate(1211.59 4070.9) rotate(-5.61) scale(3.04 -3.04)" xlink:href="#radial-gradient-3"/>
    <radialGradient id="radial-gradient-6" cx="-241.46" cy="1359.97" fx="-241.46" fy="1359.97" r="1.97" gradientTransform="translate(1202.88 4041.56) rotate(-5.61) scale(3.03 -3.03)" xlink:href="#radial-gradient-3"/>
    <radialGradient id="radial-gradient-7" cx="-229.88" cy="1355.52" fx="-229.88" fy="1355.52" r="2.03" gradientTransform="translate(1250.05 4200.43) rotate(-5.61) scale(3.12 -3.12)" xlink:href="#radial-gradient-3"/>
    <radialGradient id="radial-gradient-8" cx="-249.67" cy="1328.25" fx="-249.67" fy="1328.25" r="1.87" gradientTransform="translate(1125.37 3780.53) rotate(-5.61) scale(2.87 -2.87)" xlink:href="#radial-gradient-3"/>
  </defs>
  <path class="cls-2" d="M87.39,186.09l-3.42-15.39-11.24-31.02,18.81-42.5,9.77,8.55,17.34,17.59,1.47,45.43-6.35,4.4-7.33,4.64-7.33,8.55-3.42,11.24-3.18-5.86-5.13-5.62Z"/>
  <path class="cls-9" d="M65.4,173.39l-24.67-90.19,33.22-46.65,35.17,36.39-1.71,38.11-15.39-14.66-18.56,40.79,15.14,51.35-4.15-5.13-11.48-6.59-7.57-3.42Z"/>
  <path class="cls-8" d="M77.27,40.16c4.45,4.93,8.96,9.8,13.61,14.9-1.68,1.19-3.16,2.29-4.9,3.55-2.97-6.1-5.87-12.27-8.9-18.37.06,0,.05-.07.18-.09ZM74.7,38.75c1.03,2.01,2.07,4.15,3.11,6.28,2.16,4.45,4.32,8.84,6.54,13.29.55,1.04.34,1.5-.55,2.23-3.73,2.99-7.41,5.84-11.68,7.99-.31.09-.61.32-1.1.49,1.04-10.21,2.04-20.21,3.68-30.28ZM72.82,39.77h0c-.43,4.07-.8,8.07-1.3,12.14-.66,5.62-1.25,11.24-1.92,16.88-.12.71-.28,1.05-1.02,1.31-1.74.7-3.52,1.16-5.36,1.34-1.27.13-2.58.12-3.91-.04-2.45-.2-4.31-1.56-5.49-3.87-.3-.48-.42-.98-.02-1.46,6.24-8.73,12.54-17.47,18.72-26.13.06,0,.13-.01.3-.16ZM91.79,55.93c2.72,2.99,5.51,5.98,8.37,9.08-1.8.5-3.19,1.34-4.45,2.17-1.32.84-2.63,1.79-4.13,2.83-1.62-3.48-3.27-6.7-4.89-10.19,1.44-1.55,3.32-2.57,5.11-3.89ZM100.49,66.14c.45-.04.8.14,1.26.64,1.87,2.12,3.92,4.21,5.93,6.32-3.81,2.23-7.49,4.45-11.37,6.68-1.35-2.74-2.57-5.38-3.92-8.05-.17-.37-.06-.63.23-.86,2.33-1.7,4.58-3.52,7.23-4.54.24-.11.45-.16.64-.18ZM85.41,60.58c1.67,3.35,3.2,6.52,4.71,9.51.18.49.13.75-.23.98-6.28,4.38-11.97,9.61-19.08,12.67-.36.23-.73.39-1.28.64-.18-1.83.17-3.47.39-5.09.14-2.51.46-5.09.73-7.55.14-.53.08-1.16.69-1.47,5.13-2.42,9.59-5.8,14.07-9.69ZM52.52,68.03c1.98,3.83,5.1,5.06,9.12,4.92.38-.01.75-.04,1.13-.08,2.2-.22,4.35-.74,6.57-1.5h0c-.24,2.77-.56,5.36-.87,8.01-.17,1.61-.4,3.1-.51,4.65-.04.9-.51,1.27-1.25,1.53-1.36.34-2.71.59-4.05.72-6.77.67-13.19-1.46-18.12-7.17,2.51-3.76,5.16-7.41,7.99-11.08ZM107.5,75.93h0c.11,2.42,0,4.54-.15,6.91-1.53-.65-2.96-.8-4.36-.66-2.14.21-4.17,1.09-6.27,1.83-.26-1.38.18-2.06,1.4-2.69,3.16-1.65,6.17-3.54,9.37-5.39ZM43.87,80.13c2.89,3.43,6.56,5.62,10.83,6.8,2.59.72,5.16.79,7.75.54,1.69-.17,3.39-.48,5.12-.85h0c-.32,3.23-.66,6.27-.98,9.5-8.12-4.57-16.24-9.08-24.19-13.92.38-.62.9-1.24,1.46-2.07ZM91.01,71.99c1.37,2.86,2.79,5.6,4.16,8.41-9.07,5.3-17.95,10.58-27.02,15.89.32-3.23.66-6.27,1-9.3.02-.52.16-.98.77-1.23,5.67-2.22,10.49-5.82,15.37-9.5,1.83-1.46,3.69-2.79,5.71-4.27ZM95.1,83.09c.36,1.05.1,1.65-.88,2.07-5.17,2.74-9.53,6.5-13.46,10.71-3.33,3.78-6.66,7.62-10.06,11.41-.22.34-.64.7-1.1,1.19-.52-3.33-.97-6.67-1.48-9.89,9.03-5.11,18.03-10.34,26.99-15.5ZM103.42,83.38c.51-.05,1.02-.05,1.56.02,1.94.19,2.39.85,2.38,2.77-.17,4.81-.28,9.55-.38,14.35-.1,2.89-.19,5.84-.32,9.11-1.84-1.86-3.42-3.56-4.97-5.13-1.29-1.47-2.67-3.07-4.03-4.53-.63-.64-.9-1.38-.92-2.28.07-3.2.13-6.47-.05-9.65-.19-2.54,1.03-3.17,2.9-3.67,1.3-.41,2.53-.87,3.84-1ZM97.61,104c2.46,2.37,4.76,4.9,7.23,7.28-.64.64-1.23,1.14-1.88,1.72-1.83-3.01-3.59-5.97-5.35-8.99ZM42.64,84.53c2.11,1.27,3.86,2.24,5.78,3.53,5.78,3.52,11.61,6.91,17.49,10.17.46.21.62.52.67.96.39,3.29.89,6.5,1.46,9.7.16.95-.03,1.6-.73,2.31-2.28,2.14-4.5,4.28-7.08,6-1.1.68-2.2,1.03-3.3,1.14-1.62.16-3.26-.21-4.91-.85-.4-.22-.56-.52-.67-.89-2.45-9.29-4.94-18.44-7.45-27.71-.32-1.31-.79-2.73-1.26-4.35ZM92.74,98.72c2.98,4.95,5.97,9.96,8.89,15.04.22.3.32.61.03.96-2.72,2.95-5.07,6.38-8.48,8.63-.06.07-.19.08-.38.1-.11-8.3-.27-16.47-.37-24.7l.31-.03ZM91.11,99.65h0c.04,8.25.21,16.47.25,24.71-.39.11-.76.16-1.11.2-3.38.33-5.47-2.02-7.64-4.07,3.03-6.88,5.47-13.9,8.5-20.84ZM105.89,112.2c3.86,3.52,7.72,6.98,11.63,10.43-.05.07-.04.19-.1.27-2.3-.03-4.55-.13-6.9.04-1.33.06-1.97-.51-2.52-1.61-1.15-1.93-2.32-3.99-3.65-5.84-.75-1.14-.37-1.82.58-2.55.3-.16.6-.44.95-.73ZM95.21,86.08h0c.03,3.57.06,7.09-.02,10.87-.57-.58-1.13-1.11-1.63-1.57-.71-.61-1.31-.9-1.84-.85-.62.06-1.11.59-1.53,1.63-2.72,6.85-5.24,13.68-7.96,20.47-2.47,6.06-5.23,11.89-8.29,17.75-.11.21-.34.48-.66,1.09-.24-2.46-.63-4.48-.97-6.61-.84-5.99-1.68-11.92-2.47-17.91-.04-.38,0-.7.28-1.05,4.85-5.27,9.21-11,14.47-16,2.81-2.64,5.77-5.1,9.09-7.02.42-.3.97-.48,1.52-.79ZM110.1,125.21h0c2.82-.02,5.44.04,8.18.02.08,1.46.1,2.94.16,4.27.02.25-.09.39-.32.61-2.3,1.95-4.59,4.03-7.12,6.26-.07-3.89-.54-7.42-.91-11.16ZM68.35,112.05c.17,1.01.37,1.81.46,2.7.94,6.93,1.93,13.74,2.87,20.68.03.31.07.76.16,1.07.55,2.31.47,2.83-1.65,4-1.33.69-2.92,1.14-4.56,1.3-2.69.26-5.5-.28-7.45-1.91-.85-.81-1.14-1.81-1.36-2.74l-4.52-16.81c-.1-.37-.14-.75-.2-1.39h0c1.72.63,3.35.87,4.89.71,1.55-.15,3.01-.69,4.42-1.63,2.28-1.5,4.33-3.43,6.19-5.27.17-.14.34-.42.76-.71ZM102.63,115.39c1.86,2.7,3.24,5.63,4.99,8.46-4.83,5.52-9.71,11.12-14.6,16.71.03-2.3-.13-4.53-.16-6.82-.07-2.62-.06-5.17-.07-7.79.03-.39-.14-.82.35-1.06,2.95-1.82,5.13-4.34,7.24-6.98.74-.84,1.45-1.55,2.25-2.52ZM81.98,121.96c1.33,1.27,2.67,2.49,4.28,3.28,1.15.6,2.41,1.01,3.74.88.47-.05.95-.16,1.43-.37h0c.07,5.31.19,10.4.25,15.57-5.67-1.1-11-3.26-16.73-4.3,2.7-5.06,4.77-10.06,7.03-15.07ZM108.5,125.75h0c.48,2.89.36,5.58.81,8.23.33,2.71-.24,4.69-2.23,6.61-3.9,3.9-7.5,8.28-11.24,12.42-.24.22-.6.51-1.12.94-.36-2.33-.77-4.53-1.11-6.67-.08-.83-.09-1.65-.43-2.45-.27-.74-.12-1.27.58-1.91,1.92-1.98,3.61-4.25,5.51-6.42,2.57-3.07,5.16-6.01,7.74-9.07.4-.55.87-.98,1.5-1.68ZM118.51,131.35h0c-.03,2.88-.1,5.44-.17,8-.05,4.03-.1,8.06-.02,12.15.04,1.15-.19,1.99-1.2,2.8-1.35,1.22-2.69,2.5-3.97,3.78-.47-.15-.31-.55-.33-.8-.35-6.16-.96-12.37-1.56-18.51-.04-.38,0-.7.28-1.05,2.08-2.25,4.38-4.2,6.98-6.37ZM75.52,139.47c3.67.92,7.21,1.79,10.82,2.71,1.37.31,2.8.55,4.24.86.65.06.86.3,1.05.98.47,3.47,1.12,6.86,1.72,10.32.13.69.06,1.27-.65,1.91-1.87,1.72-3.82,3.38-6.28,4.33-.49.2-.95.32-1.38.36-1.55.15-2.66-.73-3.19-2.53-1.99-6-3.56-12.24-6.18-18.06-.08-.25-.11-.5-.15-.88ZM31.35,133.64h0c3.26.57,6.18,1.12,9.11,1.6,4.49.78,9.02,1.35,13.29,3.17.94.43,1.36.83,1.58,1.83,2.39,8.71,4.86,17.55,7.25,26.26.09.19.05.51.08.83-9.07-12.34-20.01-22.84-31.31-33.68ZM30.75,135.3h0c12.13,11.53,24.26,23.12,33.48,37.62-1.3-.26-2.35-.54-3.39-.75-4.45-1.04-8.93-1.75-13.49-2.06-.91-.04-1.63-.29-2.16-1.13-5.88-7.86-9.88-16.67-12.9-25.96-.75-2.48-1.32-5.05-1.52-7.71ZM140.39,137.44h0c.63,8.38.82,16.86.05,25.25-5.06,1.9-10.44,2.43-15.75,4.29,5.62-9.82,10.86-19.6,15.7-29.54ZM138.95,136.43c-1.58,3.42-3,6.49-4.54,9.65-3.52,7.18-7.56,14.17-11.35,21.18-.54,1.01-1.57.92-2.59,1.54,0-2.69-.05-5.05-.17-7.53,0-3.2.07-6.47,0-9.72-.02-.83.24-1.44.77-1.87,2.95-2.59,5.95-5.18,9.38-7.31,2.84-1.68,5.52-3.74,8.49-5.95ZM109.74,139.68c.71,6.58,1.27,12.98,1.64,19.34.06.57-.23.85-.52,1.2-4.12,4.24-8.1,8.6-12.51,12.54-.17.2-.29.22-.53.37-.18-1.13-.55-2.31-.67-3.51-.56-4.36-1.23-8.64-2.04-12.97-.05-.51-.09-.89.26-1.3,4.67-5.18,9.28-10.37,13.95-15.5.11-.14.17-.14.43-.17ZM118.27,154.96h0c.06,3.19.1,6.19.09,9.45.02,1.47.15,2.86.3,4.31.06.64-.03.96-.7,1.29-1.35.52-2.64,1.15-3.98,1.8-.56-3.08-.08-6.06-.69-8.94-.49-2.38.25-3.92,2.04-5.32,1-.8,1.74-1.83,2.94-2.59ZM58.16,141.69c2.2,1.22,4.64,1.76,7.25,1.5,2.26-.22,4.66-1.04,7.16-2.54,1.8,12.54,3.47,24.9,5.25,37.2-.16.08-.29.13-.4.14-.3.03-.44-.17-.64-.29-3.03-1.56-6.1-2.85-9.32-3.82-.52-.14-.93-.35-1.06-1.05-.98-4.06-2.07-8.04-3.1-12.02-1.49-5.42-2.92-10.9-4.41-16.31-.22-.94-.49-1.81-.72-2.81ZM93.69,157.18c.39,1.95.62,3.71.91,5.41.65,3.32,1.16,6.6,1.81,9.92.18,1.26.21,2.15-1.05,2.98-1.59,1.05-3.13,2.07-4.9,2.24-.77.08-1.57,0-2.45-.3-.66-.19-1.07-.47-1.2-1.17-1.19-4.35-2.39-8.71-3.65-13.06-.09-.31-.07-.76-.11-1.14.78.14,1.5.17,2.19.1,3.33-.33,5.69-2.86,8.45-4.99ZM74.8,144.52h0c4.45,12.67,7.44,25.67,11.11,38.93-1.58-1.06-2.71-2.17-4.05-2.8-2.08-1.01-2.68-2.61-2.97-4.82-.83-7.14-2.03-14.12-2.98-21.19-.4-3.41-1.1-6.73-1.12-10.12ZM111.37,161.52c.4.22.32.61.35.92.35,2.91.58,5.95.94,8.86.09.89-.2,1.3-.86,1.68-4.72,2.76-8.95,5.93-12.25,10.72-.6-2.88-.99-5.59-1.32-8.24-.05-.51.12-.78.41-1,4.52-4.09,8.55-8.63,12.73-12.94ZM96.59,176.33c.53.2.51.59.54.9.39,2.64.66,5.43,1.44,8.11.03.31-.08.45-.13.65-1.44,2.88-2.53,6.06-3.29,9.46-1.65-3.1-3.2-5.88-5.35-8.3-.65-.7-.41-1.55-.68-2.36-.57-1.93-1.08-3.86-1.62-6.04h0c1.11.3,2.23.4,3.3.29.58-.06,1.14-.17,1.68-.34,1.55-.47,2.86-1.49,4.11-2.38ZM37.38,172.08c1.13-.11,2.18.03,3.19.09,6.41.14,12.86.72,19.19,2.01,7.24,1.46,14.12,3.86,20.38,7.71,5.52,3.42,9.97,7.84,12.79,13.7.41.91.95,1.82,1.48,2.72.15.24.29.35.25.68-.3,4.06-.04,7.99.74,12.07-19.21-13.96-39.36-26.49-60.34-38.37.82-.38,1.58-.56,2.31-.63ZM145.84,163.56c-.68.89-1.34,1.34-2.06,1.86-11.08,8.95-21.72,18.3-31.78,28.5-5.05,5.16-9.62,10.73-13.5,16.8-.18.21-.2.53-.58.57-2.21-10.14-1.25-19.82,4.83-28.28,3.43-4.81,8.45-7.73,13.77-10.17,4.34-2.02,8.67-4.17,13.43-5.15,5.26-1.09,10.47-2.69,15.89-4.12ZM37.54,175.86h0c20.01,11.14,38.97,23.78,57.74,37.28-1.74.46-3.44.74-5.12.91-2.84.28-5.62.19-8.42-.09-7.55-.8-13.92-4.39-19.9-8.72-5.99-4.33-10.45-10.03-14.78-15.81-3.1-4.3-6.15-8.6-9.25-12.83-.15-.18-.24-.43-.27-.74ZM148.05,164.04h0c-.44,2.61-1.05,4.9-1.92,7.16-2.97,8.15-6.41,16.03-11.66,23.13-2.77,3.72-5.83,7.09-9.5,10.01-3.08,2.54-6.76,4.11-10.46,5.5-4.25,1.63-8.64,2.45-13.09,3.4-.27.05-.54.08-.81.11-.54.05-1.11.08-1.79.15.73-1.67,1.76-2.92,2.65-4.29,6.97-10.4,15.97-18.96,25.25-27.28,6.39-5.87,12.94-11.5,19.83-16.78.36-.23.84-.59,1.49-1.11ZM74.08,34.26c-.43.04-.83.48-1.42,1.3-1.98,2.69-3.89,5.3-5.8,7.99-8.64,12.29-17.21,24.58-25.78,36.92-.62.89-1.48,1.87-1.08,3.3.32,1.31.65,2.69,1.04,4.05,1.48,5.35,2.84,10.72,4.33,16.07,1.88,6.78,3.75,13.5,5.62,20.22,1.11,4.11,2.22,8.22,3.41,12.57-3.97-2.04-8.24-2.45-12.32-3.01l-10.7-1.63c-.39-.06-.71-.07-.97-.05-.86.08-1.16.62-1.3,1.8-.25,1.94.25,3.81.63,5.69,1.81,7.37,4.54,14.32,8.01,21.01,1.66,3.23,3.44,6.37,6.03,9.25-.89.03-1.41.01-2.1.08-1.73-.12-3.4-.18-5.14-.01-.2.02-.4.04-.61.07-3.52.54-4.35,1.96-2.26,4.96,4.2,6.23,8.27,12.55,12.75,18.49,6.23,8.15,13.38,15.18,22.89,19.62,6.57,3.13,13.24,4.42,20.11,3.75,2.32-.23,4.67-.68,7.04-1.37.15-.05.31-.08.45-.1.13-.01.24,0,.31.02.89.45,1.75.48,2.61.4.59-.06,1.16-.17,1.75-.25,3.6-.48,7.22-1.35,10.69-2.46,5.76-1.84,11.18-4.04,15.7-8.06,10.93-9.71,17.45-22.11,21.79-35.89.57-1.97,1.14-3.95,1.01-5.98-.11-1.76-.71-2.43-2.13-2.29-.27.03-.56.08-.89.16-1.87.5-3.81.95-5.68,1.39-.09-.25-.11-.44-.12-.51.74-5.51.71-11.06.79-16.69.12-3.34.23-6.8-.56-10.17-.28-1.2-.7-1.74-1.41-1.67-.37.04-.83.24-1.38.6-3.48,2.26-6.87,4.89-10.49,7.1-2.47,1.52-4.66,3.27-6.84,5.21-.46.5-.94.86-1.47,1.29-.35-.35-.27-.8-.24-1.19.07-3.14.09-6.28.3-9.36.13-3.85.27-7.7,0-11.64-.07-2.04-.99-3.55-2.47-4.93-3.08-2.76-6.12-5.66-9.2-8.49-.36-.35-.57-.65-.5-1.17.12-3.97.35-8.09.54-12.13.37-7.9.55-15.84.92-23.74.12-1.36-.35-2.27-1.14-3.22-8.24-9.03-16.42-18.13-24.66-27.17-2.78-2.99-5.57-5.97-8.42-9.02-.72-.8-1.2-1.17-1.64-1.12Z"/>
  <path class="cls-6" d="M50.81,22.63c-.95.09-1.29,1.15-.49,2.22,2.28,2.97,4.61,5.94,7.31,8.61.22.23.48.49.8.45.1,0,.21-.05.31-.11.47-.37.12-.72-.04-1.09-1.93-3.33-4.15-6.5-6.62-9.45-.36-.42-.71-.7-1.28-.64Z"/>
  <path class="cls-4" d="M97.67,17.94c-.55.05-.9.43-1.2.97-1.15,2.61-2.03,5.31-2.72,8.13-.09.39-.6,1.02.13,1.33.15.07.27.09.38.08.4-.04.6-.52.82-.84,1.63-2.33,2.85-4.89,3.93-7.48.1-.27.19-.66.24-.86-.14-.75-.44-1.23-1.09-1.3-.18-.04-.34-.05-.49-.03Z"/>
  <path class="cls-5" d="M72.67,11.83c-.07,0-.15.02-.23.04-.69.14-.89.73-.83,1.36.07.7.34,1.51.48,2.26.48,2.25.77,4.59,1.63,6.8.26.61.59.84,1.31.96-.04-1.02-.06-1.92.06-2.63-.01-2.75-.58-5.32-1.28-7.87-.12-.56-.52-.99-1.14-.93Z"/>
  <path class="cls-3" d="M126.81,59.36c-.29.03-.58.18-.83.43-1.1,1.07-2.09,2.12-3.14,3.19-1.22,1.27-2.43,2.61-3.59,3.8-.3.28-.65.57-.42,1,.15.24.34.22.6.2l.51-.05c2.82-1.88,5.5-3.93,7.73-6.51.4-.55.59-1.21.1-1.67-.33-.3-.66-.41-.96-.38Z"/>
  <path class="cls-7" d="M34.97,48.79c-.63.06-1.05.43-1.25.96-.11.78.32,1.25.93,1.63,2.1,1.2,4.26,2.33,6.71,3.18.25.05.51.18.77.15.16-.02.31-.08.44-.27.27-.48-.07-.76-.36-1.05-1.72-1.88-3.9-3.19-6.12-4.38-.35-.23-.73-.25-1.11-.21Z"/>
  <path class="cls-1" d="M24.31,102.26c-.08,0-.15.04-.2.11l-.97,5.97c0,.16-.16.16-.16.16l-5.4,1.21,5.4,1.2c.16,0,.16.09.16.09l1.05,5.8c0,.12.06.18.13.18.07,0,.15-.06.19-.18l1.13-5.8c0-.09.08-.09.08-.09l4.84-1.13c.08,0,.08-.24,0-.32l-4.84-1.13c-.08,0-.08-.09-.08-.09l-1.21-5.88c0-.08-.06-.11-.12-.11Z"/>
  <path class="cls-1" d="M104.43,33.87c-.08,0-.15.04-.2.11l-.97,5.97c0,.16-.16.16-.16.16l-5.4,1.21,5.4,1.2c.16,0,.16.09.16.09l1.05,5.8c0,.12.06.18.13.18.07,0,.15-.06.19-.18l1.13-5.8c0-.09.08-.09.08-.09l4.84-1.13c.08,0,.08-.24,0-.32l-4.84-1.13c-.08,0-.08-.09-.08-.09l-1.21-5.88c0-.08-.06-.11-.12-.11Z"/>
  <path class="cls-1" d="M128.37,95.91c-.08,0-.15.04-.2.11l-.97,5.97c0,.16-.16.16-.16.16l-5.4,1.21,5.4,1.2c.16,0,.16.09.16.09l1.05,5.8c0,.12.06.18.13.18.07,0,.15-.06.19-.18l1.13-5.8c0-.09.08-.09.08-.09l4.84-1.13c.08,0,.08-.24,0-.32l-4.84-1.13c-.08,0-.08-.09-.08-.09l-1.21-5.88c0-.08-.06-.11-.12-.11Z"/>
</svg>