<?xml version="1.0" encoding="UTF-8"?>
<svg id="Layer_1" data-name="Layer 1" xmlns="http://www.w3.org/2000/svg" xmlns:xlink="http://www.w3.org/1999/xlink" viewBox="0 0 106.74 178.22">
  <defs>
    <style>
      .cls-1 {
        fill: url(#radial-gradient);
      }

      .cls-1, .cls-2, .cls-3, .cls-4, .cls-5, .cls-6, .cls-7 {
        fill-rule: evenodd;
      }

      .cls-2 {
        fill: url(#radial-gradient-7);
      }

      .cls-3 {
        fill: url(#radial-gradient-5);
      }

      .cls-4 {
        fill: url(#radial-gradient-6);
      }

      .cls-5 {
        fill: url(#radial-gradient-4);
      }

      .cls-6 {
        fill: url(#radial-gradient-3);
      }

      .cls-7 {
        fill: url(#radial-gradient-2);
      }
    </style>
    <radialGradient id="radial-gradient" cx="56.44" cy="1000.09" fx="56.44" fy="1000.09" r="8.26" gradientTransform="translate(522.03 8347.13) rotate(-180) scale(8.26)" gradientUnits="userSpaceOnUse">
      <stop offset="0" stop-color="#d473c9"/>
      <stop offset="1" stop-color="#0e0e1c"/>
    </radialGradient>
    <radialGradient id="radial-gradient-2" cx="96.24" cy="1009.38" fx="96.24" fy="1009.38" r="8.32" gradientTransform="translate(2473.35 8331.01) rotate(169.1) scale(8.47)" gradientUnits="userSpaceOnUse">
      <stop offset="0" stop-color="#f3d5ab"/>
      <stop offset="1" stop-color="#dc9b3f"/>
    </radialGradient>
    <radialGradient id="radial-gradient-3" cx="121.64" cy="890.16" fx="121.64" fy="890.16" r="5.17" gradientTransform="translate(1557.73 4532.84) rotate(169.1) scale(5.26)" xlink:href="#radial-gradient-2"/>
    <radialGradient id="radial-gradient-4" cx="119.4" cy="877.25" fx="119.4" fy="877.25" r="5.17" gradientTransform="translate(1557.67 4532.58) rotate(169.1) scale(5.26)" xlink:href="#radial-gradient-2"/>
    <radialGradient id="radial-gradient-5" cx="97.69" cy="1002.15" fx="97.69" fy="1002.15" r="8.04" gradientTransform="translate(2391.74 7992.47) rotate(169.1) scale(8.19)" xlink:href="#radial-gradient-2"/>
    <radialGradient id="radial-gradient-6" cx="131.87" cy="830.58" fx="131.87" fy="830.58" r="4.33" gradientTransform="translate(1314.5 3523.86) rotate(169.1) scale(4.41)" xlink:href="#radial-gradient-2"/>
    <radialGradient id="radial-gradient-7" cx="128.67" cy="835.87" fx="128.67" fy="835.87" r="4.64" gradientTransform="translate(1404.72 3898.13) rotate(169.1) scale(4.73)" xlink:href="#radial-gradient-2"/>
  </defs>
  <path class="cls-1" d="M92.17,109.84l-12.86,35.46-36.29-17.63-23.43-63.66,14.31-34.22,33.18,14.93,25.09,65.12Z"/>
  <path class="cls-7" d="M34.05,29.31l-13.81,34.88,24.36,64.08,33.85,16.74,13.08-35.23-24.33-63.93-33.15-16.53ZM33.41,27.66c.15-.03.45-.09.65.04l33.88,17.03s.22.28.25.44l24.42,64.38c.18.14.09.47.12.62l-13.4,36.09c.03.16-.25.37-.56.43,0,0-.19-.11-.81,0l-34.73-17.21s-.19-.11-.22-.28l-24.42-64.38c-.06-.31.07-.5.04-.65l14.21-36.09c.12-.17.39-.4.56-.43Z"/>
  <path class="cls-6" d="M54.89,44.37l12.82-.06c.31-.06.68.19.76.64.06.31-.35.71-.66.77l-12.8.07-25.48,9.22-9.68,9.72q-.11.19-.28.22c-.31.06-.45.09-.82-.16-.25-.44-.31-.75-.06-1.12l9.86-9.59q.1-.34.25-.37l25.94-9.33.15-.03Z"/>
  <path class="cls-5" d="M79.31,108.77l12.82-.07c.31-.06.71.35.77.66.09.45-.35.71-.66.77l-12.8.05-25.47,9.24-9.68,9.72q-.12.17-.28.2c-.31.06-.48-.06-.82-.16-.25-.42-.31-.73-.03-.95l9.83-9.75q.14-.18.28-.2l25.92-9.48.15-.03Z"/>
  <path class="cls-3" d="M34.07,29.46l-4.35,24.88,24.36,64.09,23.87,25.71.42-34.4-24.39-64.24-19.92-16.05ZM33.58,27.8c.16-.03.47-.09.65.03l21.08,17.1q.2.13.22.28l24.39,64.24.03.16-.51,36.49c-.09.34-.37.54-.68.6-.16.03-.34-.09-.53-.22l-25.24-27.05c-.16.03-.19-.11-.19-.11L28.42,55.08l-.09-.47,4.73-26.24c.25-.37.38-.55.53-.57Z"/>
  <path class="cls-4" d="M33.67,28.25l34.22,16.99h0l-13-.06-21.22-16.93Z"/>
  <path class="cls-2" d="M53.56,119.01l25.07,26.93-34.72-17.04-.06-.31,9.71-9.58Z"/>
</svg>