<?xml version="1.0" encoding="UTF-8"?>
<svg id="Layer_1" data-name="Layer 1" xmlns="http://www.w3.org/2000/svg" xmlns:xlink="http://www.w3.org/1999/xlink" viewBox="0 0 154.04 211.08">
  <defs>
    <style>
      .cls-1 {
        fill: url(#radial-gradient);
      }

      .cls-1, .cls-2, .cls-3, .cls-4, .cls-5, .cls-6, .cls-7, .cls-8, .cls-9, .cls-10, .cls-11 {
        fill-rule: evenodd;
      }

      .cls-2 {
        fill: url(#radial-gradient-11);
      }

      .cls-3 {
        fill: url(#radial-gradient-10);
      }

      .cls-4 {
        fill: url(#radial-gradient-7);
      }

      .cls-5 {
        fill: url(#radial-gradient-5);
      }

      .cls-6 {
        fill: url(#radial-gradient-6);
      }

      .cls-7 {
        fill: url(#radial-gradient-4);
      }

      .cls-8 {
        fill: url(#radial-gradient-8);
      }

      .cls-9 {
        fill: url(#radial-gradient-9);
      }

      .cls-10 {
        fill: url(#radial-gradient-3);
      }

      .cls-11 {
        fill: url(#radial-gradient-2);
      }
    </style>
    <radialGradient id="radial-gradient" cx="-178.54" cy="1611.86" fx="-178.54" fy="1611.86" r="8.56" gradientTransform="translate(-1445.87 13905.01) rotate(-180) scale(8.56)" gradientUnits="userSpaceOnUse">
      <stop offset="0" stop-color="#d473c9"/>
      <stop offset="1" stop-color="#0e0e1c"/>
    </radialGradient>
    <radialGradient id="radial-gradient-2" cx="-74.9" cy="1279.69" fx="-74.9" fy="1279.69" r="2.59" gradientTransform="translate(213.57 3401.42) rotate(.34) scale(2.59 -2.59)" gradientUnits="userSpaceOnUse">
      <stop offset="0" stop-color="#f3d5ab"/>
      <stop offset="1" stop-color="#dc9b3f"/>
    </radialGradient>
    <radialGradient id="radial-gradient-3" cx="-40.41" cy="1269.52" fx="-40.41" fy="1269.52" r="2.59" gradientTransform="translate(213.58 3401.6) rotate(.34) scale(2.59 -2.59)" xlink:href="#radial-gradient-2"/>
    <radialGradient id="radial-gradient-4" cx="-73.57" cy="1280.72" fx="-73.57" fy="1280.72" r="2.74" gradientTransform="translate(234.8 3666.58) rotate(.34) scale(2.74 -2.74)" xlink:href="#radial-gradient-2"/>
    <radialGradient id="radial-gradient-5" cx="-57.32" cy="1158.47" fx="-57.32" fy="1158.47" r="2.11" gradientTransform="translate(145.43 2550.68) rotate(.34) scale(2.11 -2.11)" xlink:href="#radial-gradient-2"/>
    <radialGradient id="radial-gradient-6" cx="-65.37" cy="1163.67" fx="-65.37" fy="1163.67" r="2.1" gradientTransform="translate(145.09 2546.47) rotate(.34) scale(2.1 -2.1)" xlink:href="#radial-gradient-2"/>
    <radialGradient id="radial-gradient-7" cx="-76.35" cy="1649.97" fx="-76.35" fy="1649.97" r="8.96" gradientTransform="translate(-5760.06 15208.35) rotate(23.84) scale(9.8 -9.8)" xlink:href="#radial-gradient-2"/>
    <radialGradient id="radial-gradient-8" cx="-83.41" cy="1351.48" fx="-83.41" fy="1351.48" r="2.94" gradientTransform="translate(263.7 4026.62) rotate(.33) scale(2.94 -2.94)" xlink:href="#radial-gradient-2"/>
    <radialGradient id="radial-gradient-9" cx="-49.59" cy="1311.24" fx="-49.59" fy="1311.24" r="2.75" gradientTransform="translate(235.8 3679.05) rotate(.34) scale(2.75 -2.75)" xlink:href="#radial-gradient-2"/>
    <radialGradient id="radial-gradient-10" cx="-25.71" cy="1181.31" fx="-25.71" fy="1181.31" r="2.11" gradientTransform="translate(146.29 2561.35) rotate(.34) scale(2.11 -2.11)" xlink:href="#radial-gradient-2"/>
    <radialGradient id="radial-gradient-11" cx="-31.12" cy="1190.46" fx="-31.12" fy="1190.46" r="2.11" gradientTransform="translate(145.43 2550.68) rotate(.34) scale(2.11 -2.11)" xlink:href="#radial-gradient-2"/>
  </defs>
  <path class="cls-1" d="M95,164.24l-16.11-2.22,7.22-1.94-3.43-.74,2.96-3.33-6.11.19-3.33-1.48-4.91-8.89-8.05-18.37-1.11-5.55,5.09-1.67,1.57-1.76-2.04-.93-6.85,1.39-2.5-5.18-3.52-9.03-3.52-16.76-.74-15.69.83-8.42,1.48-2.69,4.72-.09h1.11l-.28-1.57-4.35-1.67-1.2-.65,1.39-4.26,11.67-14.53,2.5-2.78,12.22,11.2,15.09,15.46,5.46,8.33,1.85,6.2v4.07l-10.18,4.63-2.5,2.04-.09,1.53,4.44-1.02,8.05-1.02,2.59,1.02,4.91,13.33,4.54,21.53-.65,6.57-4.72,6.02,6.94-3.7,1.11.74.09,7.59-.28,1.78-7.87,4.26,2.87.56-2.87,2.04,6.11.28-8.7,4.54-1.2,1.85,4.72.83,6.02,1.02-9.44,2.71-8.24,6.11-2.78-1.85Z"/>
  <path class="cls-11" d="M39.19,82.29s-.08.04-.1.12l-.74,4.06c0,.06-.05.06-.05.06l-3.69.8,3.68.85c.05,0,.05.05.05.05l.75,4.02c0,.06.04.08.09.08.05,0,.1-.03.13-.08l.74-4.01c0-.05.11-.05.11-.05l3.3-.75c.06,0,.06-.11,0-.22l-3.29-.74c-.11,0-.11-.11-.11-.11l-.8-3.96c0-.08-.03-.12-.06-.12Z"/>
  <path class="cls-10" d="M128.38,109.19c-.05,0-.1.03-.14.08l-.68,4.07c0,.11-.11.11-.11.11l-3.69.81,3.68.84c.11,0,.11.06.11.06l.69,3.96c0,.08.04.12.09.12.05,0,.1-.04.13-.12l.79-3.95c0-.06.05-.06.05-.06l3.3-.75c.05,0,.05-.16,0-.22l-3.3-.79c-.05,0-.05-.06-.05-.06l-.8-4.02c0-.05-.04-.08-.08-.08Z"/>
  <path class="cls-7" d="M54.04,151.13s-.08.03-.08.08l-1.02,4.5c0,.05-.05.05-.05.05l-4.13.85,4.11,1.02c.05,0,.05.05.05.05l.86,4.46c0,.08.05.12.11.12.05,0,.11-.04.11-.12l.9-4.44c0-.05.05-.05.05-.05l3.74-.8c.16,0,.16-.22,0-.22l-3.62-.85c-.05,0-.05-.05-.05-.05l-.91-4.51c0-.05-.04-.08-.08-.08Z"/>
  <path class="cls-5" d="M39.18,107.78s-.08.01-.08.04l-.56,2.64-2.48.59,2.47.56s.05,0,.05.06l.48,2.64s.03.04.06.04c.03,0,.05-.01.05-.04l.51-2.63s0-.06.05-.06l2.2-.48c.11,0,.11-.11,0-.11l-2.08-.51s-.05,0-.05-.05l-.53-2.64s-.04-.04-.08-.04Z"/>
  <path class="cls-6" d="M22.08,95.32s-.06.01-.06.04l-.56,2.64-2.48.59,2.47.56s.06,0,.06.06l.48,2.64s.03.05.06.05c.03,0,.05-.02.05-.04l.51-2.63s0-.06.05-.06l2.21-.48c.05,0,.05-.11,0-.11l-2.14-.51s-.06,0-.06-.05l-.53-2.64s-.03-.04-.05-.04Z"/>
  <path class="cls-4" d="M68.62,37.42h0c1.25,1.4,2.26,2.5,3.37,3.66-1.47,1.15-2.72,2.34-4.09,3.83.22-2.54.48-4.89.72-7.49ZM73.33,42.32c.24.11.47.36.71.79-2.37,1.96-4.55,4.06-6.38,6.55.02-.89-.19-1.88.39-2.65,1.13-1.61,2.47-3,3.98-4.25.51-.43.93-.61,1.3-.45ZM67.09,37.89c-.53,5.83-1.94,11.34-1.63,17.3-3.32-1.59-6.33-3.21-8.88-5.6,3.01-4.37,6.55-8.04,10.51-11.69ZM55.73,50.71c2.85,2.39,5.86,4.27,9.18,5.74.38.22.63.33.24.82-.56-.16-1.09-.36-1.6-.59-.92-.4-1.79-.9-2.7-1.38-.16-.09-.33-.2-.49-.27-.28-.12-.55-.14-.77.26-.25.56.14.78.57,1.03.92.6,1.84,1.14,2.8,1.56.45.2.91.38,1.38.53.16.05.31.1.44.16.41.18.7.44.67,1.11-.04,2.14.16,4.28.38,6.35.21,1.84.54,3.54.38,5.52-2.72-.6-5.3-1.44-7.74-2.52-2.62-1.16-5.09-2.59-7.44-4.31.01-.3,0-.54.07-.82.63-2.12.97-2.33,3.12-2.17.79.11,1.6.17,2.42.23.71.02,1.39-.28,1.66-.89.34-.63.16-1.31-.31-1.88-.37-.52-.92-.77-1.42-.99-1.41-.62-2.78-.92-4.4-1.04.87-2.38,2.08-4.43,3.58-6.47ZM75.21,43.99c3.76,3.47,7.66,6.87,11.3,10.46-.88.51-1.65.89-2.37,1.3-5.22,3.4-9.94,7.56-14.36,11.98-.35.26-.88.76-.29,1.19.05.04.11.08.16.11.37.16.7-.21,1.05-.53,1.55-1.47,3.13-3,4.76-4.51,3.3-2.99,6.67-5.7,10.52-7.91.53-.25,1.02-.68,2.03-.24-1.99.98-3.82,1.98-5.38,3.21-2.41,1.93-4.86,3.8-7.21,5.7-.35.38-1.11.76-.6,1.35.1.12.19.2.29.24.43.19.82-.32,1.19-.6.98-.71,1.85-1.46,2.78-2.2,2.89-2.2,5.65-4.65,9.03-6.16.32-.19.62-.45.96-.29.1.04.21.13.31.26.75.76,1.43,1.53,2.33,2.35-4.37,2.28-8.27,4.99-12.12,7.86-3.8,2.88-7.47,5.89-10.94,9.52-.09-1.3-.19-2.43-.32-3.5-.53-5.46-.69-10.94-.81-16.4-.07-2.01-.51-4.13.94-6.07,1.96-2.68,4.01-5.14,6.75-7.12ZM66.09,72.86c.2.09.35.26.41.63.13,2.15.62,4.3.56,6.61-1.68-.14-3.09-.76-4.57-1.36-.49-.1-1.08-.54-1.37.11-.27.6.39.89.84,1.09.23.12.46.22.7.32,1.27.56,2.6,1,3.98,1.21.16.04.37.06.52.13.21.09.32.27.13.69-.19.04-.44.05-.71-.01-3.43-.68-6.73-1.72-9.91-3.13-1.17-.52-2.32-1.08-3.46-1.7-1.77-1.02-3.29-2.06-2.87-4.51.36-2.18-.16-4.4.37-6.81h0c2.36,1.67,4.75,3.04,7.23,4.14,2.48,1.1,5.05,1.91,7.75,2.48.15.02.29.04.41.1ZM92.46,60.69c3.74,4.17,6.85,8.56,8.52,13.62-11.59,4.49-21.04,11.73-29.07,20.91-.5-.89-.35-1.78.29-2.69,2.11-3.15,4.48-6.07,7.26-8.56.4-.37.98-.59.98-1.25h0q-.99-.2-1.89.6c-2.48,2.21-4.64,4.8-6.63,7.52-.2.33-.35.8-.77.92-.4-.72-.06-1.23.26-1.81,1.02-1.64,2.28-3.14,3.49-4.64.39-.48,1.08-1.08.41-1.62-.08-.07-.15-.11-.22-.15-.52-.23-.87.51-1.22.83-.4.49-.77.92-1.1,1.38-.81.9-1.51,1.8-2.39,2.97-.57-3.32-.96-6.25-1.48-9.3-.14-.49.15-.89.51-1.28,6.8-6.97,14.58-12.6,23.03-17.45ZM67.27,83.76c.25.11.37.3.37.62.41,2.88.71,5.72,1.12,8.61-3.18-.14-6.31-.39-9.35-1.13-2.18-.53-4.4-1.08-6.5-2.01-.25-.11-.5-.23-.74-.35-.12-.05-.28-.1-.44-.17-.35-.15-.68-.42-.5-1.09h0c.36.2.73.38,1.1.54,1.32.58,2.68.98,3.96,1.45.55.12,1.27.38,1.5-.42.07-.39-.08-.57-.32-.67-.21-.09-.49-.13-.73-.21-1.11-.34-2.21-.73-3.25-1.19-.65-.29-1.27-.6-1.87-.95-.43-.25-.64-.59-.72-1.1-.28-2.76-.41-5.59-.55-8.53h0c1.97,1.27,3.97,2.34,6.01,3.24,3.43,1.51,6.96,2.55,10.64,3.27.1.02.2.05.28.08ZM68.59,94.35c.57.25.66.77.91,2.15.42,2.16.89,4.23,1.24,6.43-3.9.8-7.62.66-11.42.43-1.65-.07-3.12-.42-4.63-1.08-.4-.18-.75-.33-.95-.84-.69-2.65-1.38-5.17-1.95-8.49h0c.21.11.43.21.64.3,1.57.69,3.03.97,4.48,1.29,2.75.56,5.56.59,8.38.88.42,0,.73-.16.79-.55.06-.36-.1-.55-.36-.66-.06-.03-.14-.05-.21-.07-.47-.03-.84-.13-1.28-.09-2.87.11-5.6-.5-8.44-1.02-.95-.17-1.83-.49-2.71-.87-.36-.16-.71-.32-1.07-.5-.56-.37-.43-.67-.52-1.13,4.47,1.85,9.42,3.02,15.37,3.55.86.08,1.39.13,1.74.29ZM101.04,75.73c.25.11.41.39.47.91.1,1.13.03,2.12-.09,3.2-.1.92-.55,1.38-1.42,1.59-3.31.82-6.24,2.29-9.01,4.07-.93.48-1.74,1.22-2.24,2.08-.36.68-.5,1.4,0,2.04.14.17.31.28.47.36.41.18.86.11,1.29,0,.58-.22,1.13-.4,1.76-.6,2.88-.95,5.83-1.63,8.88-1.61.66.01,1.24.09,1.72.3.58.26,1.03.71,1.32,1.52.54,1.62,1.16,3.22,1.88,4.86.44.91.24,1.49-.39,2.11-1.32,1.35-2.79,2.38-4.21,3.55-.35.39-1.18.62-.75,1.29.09.15.19.23.29.28.36.16.77-.23,1.12-.49,1.68-1.24,3.22-2.54,4.71-3.99q.42,1.09-.59,2.15c-3.91,4.1-8.45,7.44-13.13,10.54-1.26.82-2.5,1.59-3.79,2.47-.33.21-.57.47-.32.87.08.13.18.21.3.26.2.09.44.08.67,0,.19-.16.4-.24.57-.35,6.09-3.86,12.05-7.83,17.03-13.38.5.77.48,1.36-.03,1.97-.58.65-.97,1.37-1.6,2-5.32,6.18-11.83,10.87-19.05,14.71-2.25,1.17-4.49,2.4-7.14,2.97-.62-1.72-1.15-3.52-1.94-5.12-1.36-2.77-1.2-5.04,1.64-6.72.2-.15.41-.36.56-.59.19-.28.25-.56-.17-.98-1.56.39-2.31,1.98-3.71,2.81-1.38-4.22-2.69-8.46-3.68-12.74-.06-.27-.22-.46.01-.71,1.05-1.83,1.97-3.64,3.45-5.09,5.82-5.96,12.41-10.67,19.62-14.64,1.49-.78,2.98-1.44,4.61-1.87.37-.08.65-.11.87,0ZM108.57,102.82c.81,2.52,1.32,5.03,2.05,7.46.3,1.09.07,1.89-.63,2.79-3.1,3.91-6.95,6.9-11.26,9.32-5.13,2.9-10.5,4.85-16.26,6.21-.76-2.07-1.47-3.89-2.17-5.7,11.1-4.46,20.67-10.75,28.27-20.07ZM71.19,104.63c2.98,12.84,6.96,25.3,12.1,37.48-2.71,0-5.17-.54-7.67-.98-.38-.11-.9-.28-1.07.37-.08.35.04.51.27.61.15.07.34.11.53.17,2.44.72,4.94,1.05,7.51,1.22.34.02.64.06.87.16.4.18.62.53.62,1.21-4.41-.33-8.8-.47-13.13-1.42-.13-.03-.25-.07-.35-.11-.3-.13-.45-.33-.57-.66-2.4-5.99-5.06-11.79-6.96-17.97-1-3.32-.87-2.79,1.98-3.39,1.34-.31,2.71-.55,3.76-1.58.44-.46.89-.93.66-1.63-.09-.39-.29-.59-.55-.7-.27-.12-.6-.14-.92-.19-2.44-.48-4.74.25-6.97.82-.42.08-.78.14-1.08,0-.17-.08-.33-.22-.46-.45-1.81-3.38-3.13-6.91-4.32-10.74,3.44.5,6.73.39,9.97.14.57-.05,1.21.11,1.15-.69-.02-.29-.15-.44-.32-.52-.25-.11-.6-.07-.93-.04-2.95.14-5.87.35-8.83-.13-.38-.05-.77-.11-1.09-.25-.5-.22-.84-.63-.79-1.48,5.41,1.49,10.91,1.15,16.62.73ZM84.74,146.1c.17.08.31.21.43.44.42,1.08.91,2.14,1.43,3.27-4.01,1.05-8.03.78-12.06.38-.13-.03-.23-.04-.32-.08-.11-.05-.21-.13-.3-.31-.89-1.65-1.7-3.22-2.59-4.87.39-.07.61-.03.78-.01,4.05.76,8.13,1.18,12.26,1.09.13.02.25.04.36.09ZM111.23,113.37c.83,2.89,1.6,5.75,1.91,8.59.67,5.82-.97,10.62-6.39,13.64-.89.5-1.69,1.12-2.55,1.7-.64.49-.86,1-.44,1.66.13.22.28.35.42.41.33.15.68-.07,1.02-.26,1.87-1.1,3.61-2.19,5.4-3.26,1.85-1.05,3.38-2.47,5.33-3.35.55,2.28.12,4.49.07,6.63.03,1.82-.88,2.68-2.35,3.29-1.81.7-3.54,1.62-5.14,2.65-.62.32-1.22.73-1.18,1.46.04.41.23.61.5.73.32.14.75.16,1.16.25h0l-.85.71c-.48.39-.85.83-.6,1.36.1.22.24.35.4.42.29.13.66.07,1.05-.02,1.05-.2,2.1-.27,3.18-.4h0c-.73.57-1.5.95-2.27,1.34-2,.97-4.11,1.96-5.81,3.5-.45.34-.74.87-.57,1.43.11.24.29.4.5.49.24.1.51.12.76.07,2.77-.28,5.43.36,8.4.83h0c-4.99,1.09-9.46,2.66-13.27,5.84-2.27-3.58-4.56-7.24-6.63-11.1,2.04-.66,3.87-1.29,5.77-1.89.38-.19.89-.39.61-.99-.05-.14-.14-.22-.24-.27-.22-.1-.51-.02-.75.07-1.55.52-3.08.99-4.58,1.52-.74.23-1.15.34-1.43.22-.32-.14-.45-.6-.68-1.57,4.91-1.2,9.58-3.04,14.13-5.47,2.16-1.21,4.29-2.49,6.28-4.01.31-.29.67-.55.32-1-.07-.09-.14-.15-.22-.18-.24-.11-.54,0-.78.16-.27.19-.53.37-.88.63-1.83,1.42-3.86,2.62-5.9,3.7-4.11,2.09-8.41,3.8-12.86,4.9-.34.08-.65.18-.87.09-.17-.08-.28-.27-.32-.68,3.81-1.14,7.35-2.76,10.72-4.7.39-.19.99-.46.64-1.04-.09-.17-.2-.27-.32-.32-.31-.14-.68.08-.99.29-1.01.51-1.97,1.05-2.96,1.52-2.57,1.2-5.1,2.31-7.94,3.04-.96-1.93-1.86-3.82-2.76-5.72-.9-1.9-1.7-3.75-2.54-5.69,3.92-.85,7.42-2.24,10.79-3.76.46-.21.74-.57.52-1.03-.09-.14-.19-.23-.3-.27-.24-.1-.5-.03-.76.1-.38.19-.79.31-1.2.55-2.8,1.17-5.55,2.24-8.52,2.96-.38.09-.66.11-.86.02-.26-.11-.39-.4-.44-.89,1.83-.46,3.53-.91,5.29-1.51.51-.19,1.61-.25,1.22-1.14-.07-.24-.19-.38-.33-.44-.38-.17-.96.18-1.42.33-1.43.38-2.91.88-4.47,1.27-.32.06-.61.1-.83,0-.22-.1-.34-.33-.32-.81,17.26-5.89,19.8-7.41,28.11-16.58ZM87.15,151.24c.28.12.48.38.69.81,1.63,3.37,3.36,6.53,4.97,9.83.24.4.7.73.51,1.43-3.3-.98-6.81-.9-10.25-1.41.43-.17.95-.24,1.41-.34,1.29-.34,2.65-.57,3.7-1.43.38-.31.7-.65.51-1.15-.08-.26-.25-.42-.45-.51-.19-.08-.4-.11-.62-.08-1.13-.02-2.31.06-3.48.26.78-.68,1.55-1.06,2.24-1.66.28-.36.7-.77.4-1.32-.12-.27-.3-.43-.51-.52-.26-.11-.56-.12-.84-.08l-3.33.33c-1.73.19-3.06.09-4.11-.37-1.26-.56-2.11-1.62-2.74-3.31,3.65.17,7.33.42,10.85-.49.45-.1.78-.1,1.04.02ZM68.44,33.92c-.08-.04-.18-.06-.29-.07-.55-.12-.95.24-1.06.61-.93,3.07-3.63,4.82-5.62,7.01-3.93,4.27-7.48,8.77-10.06,13.93-.74,1.59-.66,2.48.39,2.95.37.16.85.27,1.47.34.83.1,1.63.25,2.39.59.58.26,1.15.63,1.7,1.16-.98.17-1.59.07-2.22-.02-3.51-.47-4.75-.11-5.42,4.39-.49,3.69-.61,7.36-.53,11.12.07,5.56.25,11.11,1.21,16.57,1.45,8.39,3.78,16.45,7.4,24.17.25.53.57,1.15.89,1.65.24.44.53.74.91.91.36.16.78.19,1.28.12,2.04-.24,3.96-1.07,6.03-1,.26-.01.57-.08.87.05.14.06.27.16.41.33-.89.93-1.97,1.06-2.99,1.33-.75.21-1.65.35-2.43.61-1.12.23-1.5.96-1.35,2.11.5,2.68,1.48,5.22,2.46,7.75,2.97,7.56,6.09,15.06,10.06,22.23,1,1.78,2.18,2.83,3.49,3.41,1.7.75,3.64.74,5.75.56.31-.04.51-.07.78-.14.03-.01.09.01.15.04.07.03.16.07.27.09h0c-1.46.98-2.94,1.35-4.52,1.55-.52.07-1.09,0-1.16.7-.03.39.17.58.44.7.21.09.46.15.66.21,1.42.33,2.91.08,4.41.21h0c-1.54.65-3.1.62-4.68.82-.17-.02-.22-.04-.3-.01-.68.18-1.63-.12-1.76.84-.05.47.17.72.5.86.31.14.71.18,1.06.25,3.07.81,6.3.68,9.42,1.1,1.83.21,3.67.54,5.39,1,.07.03.15.06.22.09.48.21.77.52,1.05.96,5.12,8.81,10.93,17.14,17.57,24.82,1.66,1.81,3.37,3.65,5.11,5.43.3.3.59.52.85.64.66.29,1.18-.06,1.51-1.21.71-2.27.16-4.43-1.18-6.29-1.66-2.24-3.46-4.41-5.24-6.51-4.44-5.57-8.47-11.43-12.39-17.37-.5-.76-.5-1.18.13-1.8.69-.59,1.45-1.1,2.22-1.48,3.88-2.13,8.03-3.36,12.43-3.82.56-.05,1.28-.03,1.37-.78.04-.43-.14-.65-.4-.76-.27-.12-.64-.14-.97-.2-2.12-.39-4.25-.85-6.43-1.22-1.36-.18-2.62-.32-4.22-.24,1.12-1.18,2.4-1.76,3.56-2.33,2.35-1.24,4.71-2.37,7.25-3.1.51-.2,1.09-.3,1.04-.99-.05-.34-.23-.51-.46-.61-.24-.11-.55-.13-.8-.18-1.71-.21-3.43.29-5.15.37.35-.8,1.94-.59,1.49-1.75-.11-.3-.27-.46-.47-.55-.57-.25-1.45.13-2.22-.03,1.26-.94,2.48-1.54,3.82-1.97,2.74-.89,4.11-2.63,3.99-5.63-.04-1.82.27-3.6.01-5.46-.15-1.09-.4-1.71-.86-1.91-.46-.2-1.13.01-2.11.6-.84.53-1.67,1.06-2.55,1.58,1.96-2.68,2.8-5.67,2.8-8.92-.04-2.78-.63-5.5-1.35-8.22-2.13-8.09-3.9-16.32-7-24.12-.22-.58-.38-1.18-.67-1.74-.8-1.94-1.5-3-2.59-3.48-.93-.41-2.13-.4-3.91-.17-1.54.22-3.13.42-4.68.81-1.59.32-3.04.88-4.69,1.35-.08-.76.42-1.08.87-1.42,2.85-2.23,6.08-3.68,9.55-4.61,1.63-.42,2.19-1.02,2.42-2.77.36-2.31-.07-4.6-.84-6.8-1.21-3.66-3.18-6.93-5.54-9.89-4.4-5.55-9.47-10.38-14.64-15.13-3.27-2.94-6.6-5.73-9.65-8.89-1.22-1.32-2.51-2.61-3.07-4.48-.09-.32-.26-.65-.59-.8Z"/>
  <path class="cls-8" d="M41.16,39.57s-.09.02-.11.07l-1.06,5.2s-.06.06-.09.06l-4.25.94c-.13.03-.13.19,0,.26l4.26,1.02c.06,0,.1.03.1.06l.96,5.21s.06.07.12.07c.05,0,.11-.02.14-.07l1.03-5.23s.03-.06.06-.06l4.82-1.06-4.75-1.12c-.06,0-.09-.03-.09-.06l-1.03-5.21s-.06-.07-.11-.07Z"/>
  <path class="cls-9" d="M120.51,71.03s-.08.03-.08.08l-.96,4.55s0,.06-.06.06l-3.69.8c-.16,0-.16.22,0,.22l3.68.85s.06,0,.06.06l.9,4.46c0,.08.04.12.08.12.04,0,.08-.04.08-.12l.96-4.5s0-.05.06-.05l4.18-.97-4.12-.95s-.05,0-.05-.11l-.96-4.4c0-.05-.04-.08-.08-.08Z"/>
  <path class="cls-3" d="M106.57,63.57s-.06.02-.06.04l-.56,2.69c0,.05-.05.05-.05.05l-2.2.48c-.12,0-.12.16,0,.16l2.19.45c.05,0,.05.11.05.11l.48,2.59s.03.05.05.05c.03,0,.06-.02.06-.04l.51-2.69c0-.05.06-.05.06-.05l2.48-.53-2.47-.62-.48-2.64s-.03-.05-.05-.05Z"/>
  <path class="cls-2" d="M94.73,40.76s-.08.01-.08.04l-.56,2.64-2.48.59,2.47.56s.05,0,.05.06l.48,2.64s.03.04.06.04c.03,0,.05-.01.05-.04l.51-2.63s0-.06.05-.06l2.2-.48c.11,0,.11-.11,0-.11l-2.08-.51s-.05,0-.05-.05l-.53-2.64s-.04-.04-.08-.04Z"/>
</svg>