<?xml version="1.0" encoding="UTF-8"?>
<svg id="Layer_1" data-name="Layer 1" xmlns="http://www.w3.org/2000/svg" xmlns:xlink="http://www.w3.org/1999/xlink" viewBox="0 0 172.82 182.35">
  <defs>
    <style>
      .cls-1 {
        fill: #ebb871;
      }

      .cls-1, .cls-2, .cls-3, .cls-4 {
        fill-rule: evenodd;
      }

      .cls-2 {
        fill: url(#radial-gradient);
      }

      .cls-3 {
        fill: url(#radial-gradient-3);
      }

      .cls-4 {
        fill: url(#radial-gradient-2);
      }
    </style>
    <radialGradient id="radial-gradient" cx="-596.82" cy="1024.52" fx="-596.82" fy="1024.52" r="7.46" gradientTransform="translate(8739.02 5255.46) rotate(-28.91) scale(8.52 -8.52)" gradientUnits="userSpaceOnUse">
      <stop offset="0" stop-color="#343479"/>
      <stop offset="1" stop-color="#0e0e1c"/>
    </radialGradient>
    <radialGradient id="radial-gradient-2" cx="-605.98" cy="948.84" fx="-605.98" fy="948.84" r="5.66" gradientTransform="translate(6492.4 3582.33) rotate(-28.91) scale(6.46 -6.46)" gradientUnits="userSpaceOnUse">
      <stop offset="0" stop-color="#d473c9"/>
      <stop offset="1" stop-color="#0e0e1c"/>
    </radialGradient>
    <radialGradient id="radial-gradient-3" cx="-591.23" cy="1053.97" fx="-591.23" fy="1053.97" r="8.76" gradientTransform="translate(10359.24 6462.4) rotate(-28.91) scale(10.01 -10.01)" gradientUnits="userSpaceOnUse">
      <stop offset="0" stop-color="#f3d5ab"/>
      <stop offset="1" stop-color="#dc9b3f"/>
    </radialGradient>
  </defs>
  <path class="cls-2" d="M79.8,125.97c-1.94-1.11-8.59-7.5-14.38-12.89-5.78-5.39-14.1-12.61-20.33-19.43-6.22-6.82-12.85-14.94-17.02-21.49-4.17-6.55-6.67-12.85-7.98-17.83-1.31-4.98-.66-8.61.13-12.06.79-3.45,1.7-6.75,4.6-8.62s7.36-3.98,12.82-2.63c5.47,1.35,10.66,4.68,19.97,10.74s26.95,18.5,35.89,25.58c8.94,7.08,15.45,14.13,17.75,16.88,2.3,2.75-1.57.05-3.96-.39s-6.31-2.68-10.36-2.24c-4.05.44-10.82,3.09-13.92,4.88-3.11,1.79-3.26,2.93-4.71,5.88-1.45,2.95-3.8,7.25-4.01,11.81-.21,4.56,1.83,11.93,2.75,15.57.92,3.64,4.69,7.36,2.75,6.26Z"/>
  <path class="cls-4" d="M81.07,125.73c-3.45-4.06-6-11.93-6.74-16.87s1.16-9.42,2.32-12.75c1.16-3.33,2.62-5.07,4.65-7.25,2.04-2.18,4.2-4.7,7.56-5.81s8.71-1.26,12.62-.89c3.91.37,7.1-.14,10.86,3.13,3.76,3.27,9.68,11.46,11.68,16.49,1.99,5.02.94,9.74.29,13.65-.65,3.91-1.78,7.03-4.19,9.8-2.41,2.77-6.09,5.51-10.26,6.84-4.18,1.33-10.01,2.21-14.81,1.16-4.8-1.06-10.52-3.43-13.97-7.5Z"/>
  <path class="cls-3" d="M30.66,45.24c1.55.45,2.89.76,4.33.34.58,1.72.31,3.47,1.35,5.25-1.87-.82-3.75-.96-5.56-1.57.57-1.31.35-2.61-.12-4.02ZM26.03,34.5c.66-.36,1.4-.67,2.22-.91,3.57-1.05,7.2-1.63,10.94-.91.71.16,1.27.41,1.54,1.12,1.74,5.04,3.95,9.94,4.43,15.31.17,2.31.24,4.57-.23,6.87-.15.51-.25,1-.4,1.51-1.19-.58-1.73-1.57-2.61-2.27-1.38-1.16-2.55-2.61-3.63-3.99-1.32-1.62-1.54-3.48-1.7-5.43-.14-1.6-.34-1.73-1.95-1.4-1.78.37-3.48-.24-5.02-1.25-.32-.13-.5-.34-.73-.52-.26-.13-.56-.24-.82-.1-.09.05-.18.14-.26.26-.3.35.05.66.3.89,1.85,1.45,2.5,3.19,1.46,5.44-.36.82.2,1.25.92,1.34l3.94.86c1.49.35,2.92.93,4.01,2.12,1.69,1.72,3.48,3.27,5.36,5.01-.09.05-.19.11-.28.16-2.15,1.19-4.3,1.69-6.65,1.62-2.96-.1-5.88-.58-8.86-1.04-.3-.03-.64-.18-.93-.02-.08.05-.17.12-.24.23.17.53.53.51.87.57,3.45.76,6.91,1.2,10.46,1.02,1.8-.07,3.7-.42,5.33-1.32.13-.07.25-.15.38-.22.43-.24.77-.18,1.1.19.89.81,1.81,1.6,2.81,2.41.25.17.48.54.76.38.06-.03.11-.08.17-.15.34-.5-.22-.74-.48-.97-.96-.84-1.91-1.79-2.92-2.72,2.05-5.58,1-11.07-.68-16.57-.91-2.77-1.99-5.52-3.04-8.52,2.72,1.22,5.09,2.38,7.52,3.76,2.8,1.61,5.5,3.46,8.37,4.97,1.96,1.08,2.94,2.64,3.29,4.74.36,2.22.59,4.31.77,6.44.04.29-.13.88.43.88.13.02.24,0,.33-.06.25-.14.37-.47.36-.82-.02-.36,0-.79,0-1.23-.19-2.25-.62-4.61-1.03-7.03,2.18,1.39,4.2,2.69,6.2,4.06,1.84,1.21,3.59,2.47,5.46,3.72.5.34.75.7.83,1.27.7,5.18,1.08,10.35.52,15.49-.39,4.11-1.76,8.02-4.73,11.27-3.49-3.08-6.99-6.16-10.58-9.31.35-.94.72-1.94,1.04-2.93,1.07-3.56,1.38-7.13,1.86-10.74.08-.42.13-1-.41-1.08-.16-.01-.28,0-.37.06-.28.16-.28.58-.34.89-.36,1.81-.58,3.66-.85,5.41-.38,2.44-1.01,4.89-1.95,7.32-1.43-1.12-2.76-2.19-4.06-3.32-.88-.69-1.59-1.41-2.41-2.13-.24-.16-.5-.49-.76-.34-.06.03-.12.1-.19.19-.21.3.17.53.37.79,1.95,1.96,4.15,3.58,6.04,5.45.15.16.33.37.51.59-.56.47-1.15.87-1.75,1.2-1.69.94-3.48,1.37-5.11,1.72-2.95.7-5.92.48-8.87.19-3.62-.41-7.21-1.08-10.73-2.18-.59-.17-1.01-.37-1.32-.82-4.19-5.79-7.16-12.19-8.59-19.25-.76-3.73-.89-7.43-.17-11.17.65-3.13,2.09-5.54,4.73-7.01ZM31.03,73.92c.66-.05,1.2.27,1.71.29,4.49,1.29,9.11,2.27,13.8,2.15,3.51-.06,6.93-.66,9.99-2.35.68-.38,1.34-.8,1.98-1.29.09-.05.24,0,.34-.06,3.52,3.12,7.11,6.27,10.66,9.45-1.05,1.33-2.29,2.28-3.63,3.02-1.23.68-2.54,1.18-3.89,1.62-4.78,1.53-9.6,1.1-14.4.47-2.27-.3-4.56-.76-6.77-1.39-.81-.23-1.49-.66-2.04-1.34-2.57-3.53-5.35-6.88-7.75-10.56ZM74.68,54.51c.09-.05.19.02.34-.06,1.3,1.01,2.7,1.97,4.07,3.01,2.53,2.01,5.11,4.1,7.75,5.98,1.53,1.08,1.92,2.59,2.02,4.2.32,5.08-1.11,9.77-3.07,14.38-1.08,2.52-3,4.19-4.97,5.9-.39.41-.81.76-1.33,1.29-3.04-2.59-6.21-4.86-8.99-7.78.9-1.05,1.78-2.15,2.45-3.39,1.55-2.9,2.28-5.96,2.53-9.19.23-4.39.12-8.85-.52-13.26-.06-.34-.2-.7-.28-1.08ZM41.03,87.32h0c2.08.4,4.07.78,6.13,1.13,4.88.65,9.74,1.06,14.55-.3,1.71-.52,3.38-1.15,4.93-2.01,1.09-.6,2.13-1.32,3.09-2.18.2-.3.49-.58.78-.94,2.57,2.54,5.37,4.7,8.24,7.08-1.03,1.49-2.16,2.92-2.76,4.62-.86,2.27-2.59,3.72-4.56,4.86-.28.17-.56.33-.85.49-4.42,2.44-9.15,3.67-14.36,2.65-.68-.12-1.28-.53-1.78-.99-2.58-2.65-5.28-5.18-7.74-7.97-1.86-2.13-3.74-4.31-5.67-6.46ZM89.76,65.91c6.79,5.47,13.33,11.14,19.36,17.7-7.79-3.37-15.24-3.52-22.93.36,2.93-5.89,4.4-11.64,3.57-18.06ZM56.72,104.08h0c6.93-.06,9.44-.38,13.71-2.74,1.13-.62,2.37-1.39,3.85-2.31h0c-2.13,9.03-.22,17.06,4.77,24.64-7.53-6.35-15.13-12.61-22.32-19.58ZM86.94,85.88c3.11-1.72,6.7-2.62,10.73-2.75,5.47-.17,10.5,1.44,15.08,4.47,1.13.8,1.88,2.05,2.82,3.08,2.24,2.48,4.36,5.08,6,8.06,2.17,3.7,2.98,7.63,2.28,11.98-.63,4.12-1.85,8.07-3.65,11.85-.32.55-.69,1-1.08,1.4-2.09,2.54-4.45,4.56-7.08,6.01-2.68,1.48-5.65,2.36-8.9,2.57-4.76.34-9.27-.88-13.66-2.78-7.72-3.34-11.3-9.83-13.17-17.46-1.7-6.55-.82-12.91,2.72-18.7,2.13-3.45,4.79-6.01,7.92-7.74ZM134.13,112.1c.5-.28.87.03,1.14.61.3.76.31,1.56.22,2.42-.66,4.63-2.43,8.7-6.54,11.78,1.16-4.17,2.23-8.16,3.42-12.16.21-.86.66-1.72,1.45-2.41.11-.1.21-.17.3-.23ZM124.59,132.75c.22-.12.46-.23.72-.32-1.21,4.07-3.8,7.12-6.72,9.9-.34.31-.72.57-1.13.8-.86.48-1.84.77-2.82.89-.38.09-.98.11-1.25-.36-.26-.48-.01-.92.3-1.35,2.62-3.55,6.05-6.18,9.6-8.71.4-.27.81-.59,1.29-.86ZM142.68,140.35l4.18,2.08c-1.71-.17-3.03-.99-4.18-2.08ZM25.48,32.82c-3.29,1.82-5.19,4.92-6.09,8.81-.44,1.78-.45,3.65-.48,5.52.1,6.12,1.68,12,4.37,17.43,4.54,9,10.78,16.94,17.13,24.63,4.29,5.18,8.96,9.83,13.73,14.56,3.91,3.84,7.92,7.63,12.16,11.16,5.17,4.32,9.9,9.19,15.81,12.73,4.3,2.64,8.78,4.92,13.65,6.13,6.11,1.5,11.74.88,16.92-1.98,1.06-.58,2.11-1.27,3.13-2.04,1.46-1.05,2.61-2.44,4.08-3.49,1.67,1.24,3.34,2.36,4.9,3.73-.11.21-.26.32-.42.41-.19.11-.41.17-.62.28-4.52,2.68-8.58,5.85-11.55,10.22-.8,1.12-1.12,2.35-.36,3.6.7,1.28,1.95,1.52,3.25,1.42.87-.11,1.7-.39,2.54-.78.25-.12.49-.24.73-.37,3.06-1.69,4.99-4.53,6.87-7.35.97-1.59,1.46-3.4,2.08-5.3h0c.22.5.43.88.61,1.21,1.99,3.72,4.01,7.49,6.02,11.14.34.62.81,1.47,1.58,1.17.71-.39.21-1.3-.08-1.93-.95-1.95-1.88-3.97-2.88-5.89-.58-1.17-1.23-2.35-1.74-3.5,2.21,1.44,4.32,3,6.51,4.51,2.4,1.77,4.8,3.54,7.59,4.78,1.06.47,2.22.88,3.44.51.24-.08.49-.15.7-.27.28-.16.5-.4.53-.85.02-.63-.43-1-.97-1.32-1.8-.92-3.59-1.79-5.37-2.79-2.98-1.7-5.86-3.44-8.77-5.24-1.84-1.09-3.66-2.25-5.41-3.63h0c4.93-.37,9.8-.72,14.62-1.09l2.63-.27c.12-.02.24-.05.35-.11.26-.14.45-.41.47-.77,0-.56-.44-.68-.95-.71-.41-.08-.85-.08-1.33-.07-4.19.15-8.39.49-12.54.92-.36.02-.77.18-1.22-.07,4.03-3.46,5.9-7.9,6.45-12.96.08-.85-.02-1.6-.29-2.31-.44-1.24-1.18-2.13-2.42-2.37-.61-.09-1.12.03-1.58.28-.55.3-1,.8-1.41,1.37-1.08,1.52-1.59,3.28-1.98,5.05-.78,3.4-1.61,6.83-2.66,10.19-.13.44-.06,1.02-.53,1.28-1.34-.63-4.29-2.83-5.2-3.93,1.46-2.29,2.3-4.79,3.26-7.43,1.11-3.71,1.92-7.5,1.5-11.4-.55-4.58-2.72-8.39-5.46-12.01-3-3.97-6.49-7.61-9.89-11.3-3.14-3.45-6.45-6.64-9.9-9.74-7.03-6.45-14.58-12.17-22.13-17.9-1.54-1.12-3.1-2.37-4.69-3.47-3.39-2.33-6.85-4.56-10.22-6.97-5.34-3.85-11.03-7.21-16.85-10.25-2.6-1.34-5.32-2.57-8.27-3.1-3.52-.54-6.84-.18-10.25.71-1.14.3-2.18.71-3.1,1.21Z"/>
  <path class="cls-1" d="M92.11,93.77c4.13-2.28,9.35-2.56,13.83-.24,5.99,3.13,8.91,8.19,9.14,14.87,0,.12-.06.34-.05.46l-.05.03c-3.31-5.66-7.11-7.83-11.82-6.84-.99.21-1.91.56-2.77,1.03-2.91,1.61-4.92,4.61-5.24,8.09-.38,3.79,1.47,9.14,7.77,11.48-1.28.15-2.27.26-3.29.21-11.76-.68-18.68-13.44-13.02-23.68,1.31-2.34,3.24-4.18,5.49-5.43ZM91.2,91.94c-2.37,1.31-4.46,3.26-6.05,5.83-4.73,7.68-2.8,17.44,4.39,23.3.65.51,1.41,1.08,2.35,1.68,5.42,3.13,11.58,2.93,16.42.25,3.75-2.07,6.73-5.64,7.98-10.27,2.27-8.55-1.92-17.49-9.95-21.16-5.05-2.29-10.61-2.14-15.15.37Z"/>
  <path class="cls-1" d="M80.69,63.69c-.18.1-.28.29-.3.47-.16.72-.23,1.37-.2,2.1.05.22.09.5.43.56.1.02.2,0,.29-.05.13-.07.27-.23.46-.49.27-.52.39-1.33.26-2.12-.03-.29-.24-.55-.6-.53-.13,0-.24.02-.33.07Z"/>
  <path class="cls-1" d="M83.17,67.42c-.11.06-.19.16-.26.3-.29.6-.41,1.28-.26,2,.09.26.15.6.54.63.11-.01.2-.04.28-.08.19-.11.27-.31.35-.58.07-.54.25-1,.33-1.54.02-.19.05-.46-.24-.67-.28-.14-.53-.17-.73-.06Z"/>
  <path class="cls-1" d="M79.22,69.78c-.08.04-.14.11-.2.21-.32.55-.6,1.26-.14,1.87.17.16.4.14.65,0,.11-.06.22-.14.33-.24.07-.54.66-1.16.03-1.74-.21-.15-.48-.21-.67-.1Z"/>
</svg>