<?xml version="1.0" encoding="UTF-8"?>
<svg id="Layer_1" data-name="Layer 1" xmlns="http://www.w3.org/2000/svg" xmlns:xlink="http://www.w3.org/1999/xlink" viewBox="0 0 156.63 204.59">
  <defs>
    <style>
      .cls-1 {
        fill: url(#radial-gradient);
      }

      .cls-1, .cls-2, .cls-3, .cls-4, .cls-5, .cls-6, .cls-7, .cls-8, .cls-9, .cls-10, .cls-11, .cls-12, .cls-13, .cls-14, .cls-15, .cls-16, .cls-17 {
        fill-rule: evenodd;
      }

      .cls-2 {
        fill: url(#radial-gradient-11);
      }

      .cls-3 {
        fill: url(#radial-gradient-17);
      }

      .cls-4 {
        fill: url(#radial-gradient-10);
      }

      .cls-5 {
        fill: url(#radial-gradient-15);
      }

      .cls-6 {
        fill: url(#radial-gradient-12);
      }

      .cls-7 {
        fill: url(#radial-gradient-16);
      }

      .cls-8 {
        fill: url(#radial-gradient-13);
      }

      .cls-9 {
        fill: url(#radial-gradient-14);
      }

      .cls-10 {
        fill: url(#radial-gradient-7);
      }

      .cls-11 {
        fill: url(#radial-gradient-5);
      }

      .cls-12 {
        fill: url(#radial-gradient-6);
      }

      .cls-13 {
        fill: url(#radial-gradient-4);
      }

      .cls-14 {
        fill: url(#radial-gradient-8);
      }

      .cls-15 {
        fill: url(#radial-gradient-9);
      }

      .cls-16 {
        fill: url(#radial-gradient-3);
      }

      .cls-17 {
        fill: url(#radial-gradient-2);
      }
    </style>
    <radialGradient id="radial-gradient" cx="-491.42" cy="783.07" fx="-491.42" fy="783.07" r="9.06" gradientTransform="translate(4536.28 7190.17) scale(9.06 -9.06)" gradientUnits="userSpaceOnUse">
      <stop offset="0" stop-color="#d473c9"/>
      <stop offset="1" stop-color="#0e0e1c"/>
    </radialGradient>
    <radialGradient id="radial-gradient-2" cx="-467.24" cy="704.84" fx="-467.24" fy="704.84" r="6.74" gradientTransform="translate(3228.86 4857.39) scale(6.74 -6.74)" gradientUnits="userSpaceOnUse">
      <stop offset="0" stop-color="#343479"/>
      <stop offset="1" stop-color="#0e0e1c"/>
    </radialGradient>
    <radialGradient id="radial-gradient-3" cx="-493.74" cy="789.79" fx="-493.74" fy="789.79" r="9.37" gradientTransform="translate(4708.31 7497.11) scale(9.37 -9.37)" gradientUnits="userSpaceOnUse">
      <stop offset="0" stop-color="#f3d5ab"/>
      <stop offset="1" stop-color="#dc9b3f"/>
    </radialGradient>
    <radialGradient id="radial-gradient-4" cx="-372.52" cy="402.19" fx="-372.52" fy="402.19" r="3.33" gradientTransform="translate(1312.56 1438.18) scale(3.33 -3.33)" gradientUnits="userSpaceOnUse">
      <stop offset="0" stop-color="#f3d5ab"/>
      <stop offset="1" stop-color="#dc9b3f"/>
    </radialGradient>
    <radialGradient id="radial-gradient-5" cx="-343.09" cy="331.64" fx="-343.09" fy="331.64" r="2.97" gradientTransform="translate(1109.51 1075.89) scale(2.97 -2.97)" gradientUnits="userSpaceOnUse">
      <stop offset="0" stop-color="#f3d5ab"/>
      <stop offset="1" stop-color="#dc9b3f"/>
    </radialGradient>
    <radialGradient id="radial-gradient-6" cx="-356.43" cy="365.09" fx="-356.43" fy="365.09" r="3.13" gradientTransform="translate(1199.34 1236.18) scale(3.13 -3.13)" gradientUnits="userSpaceOnUse">
      <stop offset="0" stop-color="#f3d5ab"/>
      <stop offset="1" stop-color="#dc9b3f"/>
    </radialGradient>
    <radialGradient id="radial-gradient-7" cx="-368.11" cy="403.3" fx="-368.11" fy="403.3" r="3.31" gradientTransform="translate(1298.09 1412.37) scale(3.31 -3.31)" gradientUnits="userSpaceOnUse">
      <stop offset="0" stop-color="#f3d5ab"/>
      <stop offset="1" stop-color="#dc9b3f"/>
    </radialGradient>
    <radialGradient id="radial-gradient-8" cx="-357.09" cy="333.72" fx="-357.09" fy="333.72" r="3.05" gradientTransform="translate(1152.68 1152.92) scale(3.05 -3.05)" gradientUnits="userSpaceOnUse">
      <stop offset="0" stop-color="#f3d5ab"/>
      <stop offset="1" stop-color="#dc9b3f"/>
    </radialGradient>
    <radialGradient id="radial-gradient-9" cx="-344.46" cy="309.85" fx="-344.46" fy="309.85" r="2.88" gradientTransform="translate(1059.37 986.43) scale(2.88 -2.88)" gradientUnits="userSpaceOnUse">
      <stop offset="0" stop-color="#f3d5ab"/>
      <stop offset="1" stop-color="#dc9b3f"/>
    </radialGradient>
    <radialGradient id="radial-gradient-10" cx="-304.09" cy="168.83" fx="-304.09" fy="168.83" r="2.42" gradientTransform="translate(796.22 516.9) scale(2.42 -2.42)" gradientUnits="userSpaceOnUse">
      <stop offset="0" stop-color="#f3d5ab"/>
      <stop offset="1" stop-color="#dc9b3f"/>
    </radialGradient>
    <radialGradient id="radial-gradient-11" cx="-193.92" cy="-193.45" fx="-193.92" fy="-193.45" r="1.67" gradientTransform="translate(378.42 -228.57) scale(1.67 -1.67)" gradientUnits="userSpaceOnUse">
      <stop offset="0" stop-color="#f3d5ab"/>
      <stop offset="1" stop-color="#dc9b3f"/>
    </radialGradient>
    <radialGradient id="radial-gradient-12" cx="-205.67" cy="-109.78" fx="-205.67" fy="-109.78" r="1.82" gradientTransform="translate(461.16 -80.94) scale(1.82 -1.82)" gradientUnits="userSpaceOnUse">
      <stop offset="0" stop-color="#f3d5ab"/>
      <stop offset="1" stop-color="#dc9b3f"/>
    </radialGradient>
    <radialGradient id="radial-gradient-13" cx="-401.84" cy="519.84" fx="-401.84" fy="519.84" r="4.11" gradientTransform="translate(1751.66 2221.66) scale(4.11 -4.11)" gradientUnits="userSpaceOnUse">
      <stop offset="0" stop-color="#f3d5ab"/>
      <stop offset="1" stop-color="#dc9b3f"/>
    </radialGradient>
    <radialGradient id="radial-gradient-14" cx="-209.02" cy="-52.32" fx="-209.02" fy="-52.32" r="1.92" gradientTransform="translate(515.99 16.89) scale(1.92 -1.92)" gradientUnits="userSpaceOnUse">
      <stop offset="0" stop-color="#f3d5ab"/>
      <stop offset="1" stop-color="#dc9b3f"/>
    </radialGradient>
    <radialGradient id="radial-gradient-15" cx="-147.06" cy="-237.36" fx="-147.06" fy="-237.36" r="1.61" gradientTransform="translate(342.16 -293.27) scale(1.61 -1.61)" gradientUnits="userSpaceOnUse">
      <stop offset="0" stop-color="#f3d5ab"/>
      <stop offset="1" stop-color="#dc9b3f"/>
    </radialGradient>
    <radialGradient id="radial-gradient-16" cx="-313.15" cy="239.86" fx="-313.15" fy="239.86" r="2.58" gradientTransform="translate(888.7 681.91) scale(2.58 -2.58)" gradientUnits="userSpaceOnUse">
      <stop offset="0" stop-color="#f3d5ab"/>
      <stop offset="1" stop-color="#dc9b3f"/>
    </radialGradient>
    <radialGradient id="radial-gradient-17" cx="-334.25" cy="320.33" fx="-334.25" fy="320.33" r="2.94" gradientTransform="translate(1093.6 1047.51) scale(2.94 -2.94)" gradientUnits="userSpaceOnUse">
      <stop offset="0" stop-color="#f3d5ab"/>
      <stop offset="1" stop-color="#dc9b3f"/>
    </radialGradient>
  </defs>
  <path class="cls-1" d="M60.24,157.76l9.47-2.53,3.47.16.79-4.42,10.57-3.31,1.58,4.89v2.05l6.47.95,12.15,4.1,23.2-34.72L83.44,23.92l-48.14,88.15,24.94,45.69Z"/>
  <path class="cls-17" d="M59.77,143.22l1.5,2.6h1.89l2.29-3,1.58-7.97,1.34-9.71,4.26-2.72,2.13-2.53,5.84.08.32,7.18,1.5,3,1.18.39,1.34-2.53,1.82-7.26,4.03-.95,3.31-.55,3.71.32,3.32.71-3.63-21.19,1.74-4.03.71-15.23,1.58-1.26.71-5.52-1.26-4.03-3.39-1.89-2.68.08-6,2.76-7.42,4.89-9.08,2.13-4.81.24-4.18,1.42-2.84,3.47-1.34,5.21,1.1,12.67-1.26,7.89,1.18,10.81-1.42.39-1.58.79-.47,3.24,1.97,2.92,1.74,1.18-.71,15.98Z"/>
  <path class="cls-16" d="M80.01,48.49c.13,0,.26.03.4.09.86.3.76,1.16.86,1.91.05.96-.15,1.87-.36,2.77-.15.96-.25,1.91.15,2.77.25.6.6.96,1.31.96s1.01-.51,1.21-1.01c.3-.75.25-1.56.36-2.42.65.66.45,1.46.35,2.22-.1,1.26.1,2.12,1.56,2.67,1.46.56,1.97,2.12,2.22,3.58.36,2.37,0,4.74-1.91,6.51-.96.85-2.12,1.26-3.32,1.61-1.07.34-2.12.59-3.16.59-.94,0-1.86-.2-2.78-.69-2.12-1.16-3.38-2.97-3.63-5.34-.65-5.95,1.82-10.78,5.4-15.27.37-.41.8-.95,1.36-.95ZM58.92,119.68c.24,0,.52.02.83.07.15,2.17.1,4.28.36,6.75-1.77-1.16-2.27-2.57-2.62-4.24v-.76c0-1.32.34-1.83,1.43-1.83ZM76.67,120.36c.28,0,.57.02.87.04.29.02.58.02.88.02.59,0,1.21-.02,1.85-.02.15,2.27-.15,4.44.25,6.71-2.47.23-4.92.27-7.37.27-1.4,0-2.81-.02-4.22-.02.25-1.01.81-1.76,1.51-2.37,1.06-1.01,2.57-1.66,3.28-2.92.74-1.36,1.72-1.71,2.96-1.71ZM97.5,128.72h0c.15,2.17-.25,4.38-.35,6.55-.1.65-.66.65-1.11.81-1.31.3-2.62.36-3.93.36-2.37,0-4.69-.1-7.01-.15-.17,0-.36-.04-.52-.04-.23,0-.4.07-.43.39-.04.47.39.5.73.5h.18c1.95.04,3.9.16,5.85.16.31,0,.63,0,.95-.01.43,0,.86,0,1.3,0,1.2,0,2.4-.05,3.54-.46h0c.05,1.05-.56,1.26-1.41,1.36-2.17.36-4.38.25-6.55.36-4.08.15-8.16.15-12.25.25-.91,0-1.87-.15-2.73-.2-.13,0-.28-.02-.44-.02-.21,0-.41.05-.56.28-.05.5.3.45.71.5,1.58.15,3.16.22,4.78.22.5,0,1.01,0,1.52-.02,4.63-.15,9.37-.25,14.11-.4.49,0,.98-.17,1.45-.17.15,0,.31.02.46.07,0,.45-.3.45-.6.55-1.77.46-3.48.51-5.24.56-1.97.05-3.98.05-5.9.05-.17,0-.34-.02-.5-.02-.08,0-.17,0-.25.02-.4.05-.91.05-.91.55.04.36.25.42.5.42.14,0,.28-.02.4-.02.75.01,1.5.02,2.26.02,2.44,0,4.89-.07,7.32-.22.75-.05,1.41-.2,2.16-.3h0c-.35,1.31-2.32,2.97-4.13,3.88-1.85.94-3.76,1.12-5.67,1.12-.95,0-1.91-.04-2.85-.06-3.07-.1-6.15-.1-9.27-.15-2.37,0-4.69-.55-6.65-2.12-.3-.36-.76-.6-.3-1.16h0l1.66,1.16c.3.13.53.26.82.26.05,0,.09,0,.14,0,.25,0,.46-.15.5-.41.05-.3-.05-.45-.3-.55-.2-.05-.45-.05-.65-.2-1.66-.86-1.87-1.26-1.56-3.28.3-2.17.55-4.28.91-6.5,1.01.15,2.07.15,3.12.15.41,0,.81-.05.81-.56,0-.41-.28-.45-.61-.45h-3.22c-.07-.46.08-.55.28-.55.11,0,.24.03.37.05,1.34.14,2.68.19,4.01.19,1.9,0,3.79-.09,5.72-.09.2,0,.41-.05.61-.05.25,0,.5-.05.5-.45-.1-.36-.25-.4-.6-.4h-10.13q.05-.1.05-.15c3.98-.2,7.92-.35,11.94-.6.11-.02.21-.03.31-.03.42,0,.77.18,1.05.59.46.5.88.77,1.29.77.44,0,.86-.31,1.29-.97.3-.5.71-.6,1.26-.6,3.02-.2,6.14-.1,9.12-.4.91-.05,1.72-.25,2.67-.36ZM82.88,150.04c-1.06,1.26-4.64,3.18-6.4,3.43,2.27-.96,4.38-2.01,6.4-3.43ZM85.96,30.79c.46.2.46.55.56.91,13.25,30.14,26.66,60.28,40.17,90.33.81,1.81.6,2.97-.5,4.59-7.11,10.03-14.01,20.11-20.97,30.19-.3.4-.6.81-.96,1.32-2.52-1.36-5.29-2.32-8.26-2.93,1.06-1.61,2.07-3.02,3.07-4.49,2.17-3.02,4.08-6.1,5.85-9.33.65-1.16.25-2.27.1-3.32-1.72-9.98-3.48-19.91-5.24-29.89-1.81-10.08-3.58-20.16-5.44-30.29-2.07-11.84-4.13-23.69-6.3-35.53-.6-3.73-1.36-7.36-2.07-11.09v-.45ZM85.4,149.49c0,3.08.21,6.05,1.56,8.82-1.36.75-2.87.85-4.33.95-1.06.04-2.13.09-3.2.09-1.8,0-3.6-.14-5.37-.74-.12-.02-.24-.04-.35-.04-.23,0-.39.08-.46.39-.1.36.15.5.56.6,2.03.58,4.14.79,6.27.79.83,0,1.66-.03,2.5-.09,1.71-.15,3.33-.25,4.89-1.05.6.65,1.16,1.36,1.87,1.86-.96,1.97-2.22,3.23-4.48,3.53-1.6.22-3.18.34-4.75.34-3.87,0-7.65-.72-11.27-2.41-.25-.15-.4-.25-.66-.4.24-.22.46-.31.69-.31.25,0,.51.1.82.26,2.02,1.05,4.28,1.51,6.45,1.96,1.53.31,3.07.43,4.61.43.73,0,1.46-.03,2.2-.08.18,0,.41.02.63.02.44,0,.86-.09.82-.63,0-.33-.2-.42-.45-.42-.3,0-.67.12-.91.12-.44.01-.88.02-1.32.02-3.7,0-7.26-.58-10.73-1.89-.3-.05-.55-.25-.91-.36-.05,0-.05-.05-.05-.15.15-.1.2-.15.35-.2,1.11.76,2.37.91,3.48,1.26.2.07.39.13.55.13.18,0,.33-.07.41-.28.1-.55-.3-.65-.71-.76-1.01-.4-2.07-.4-3.03-1.05.71-.96,1.32-1.87,1.77-2.87.4-1.01.56-2.01.91-3.12.63.33,1.23.46,1.81.46,1.3,0,2.52-.65,3.73-1.17,2.17-.95,4.18-2.32,6.1-4.03ZM83.58,22.52c-.36,0-.72.29-1.1.85-.6,1.01-1.26,2.07-1.87,3.13-10.53,18.95-20.71,38.1-31.15,57.16-5.04,9.27-9.93,18.6-15.12,27.72-.5.81-.25,1.51.15,2.22,8.02,14.52,15.73,29.23,23.99,43.6.47.81,1,1.16,1.74,1.16.28,0,.59-.05.94-.15l3.78-1.16c2.01-.56,4.13-.76,6.2-.96.5-.05.76-.3.76-.75,0-.4-.3-.66-.76-.66-.58,0-1.17-.02-1.77-.02s-1.18.02-1.76.12c-2.52.4-5.04.91-7.47,1.91-1.16-2.26-2.26-4.49-3.48-6.7-6.75-12.3-13.4-24.65-20.16-36.89-.3-.5-.4-.96-.05-1.46.81-1.51,1.56-2.97,2.37-4.49,14.67-26.82,29.49-53.63,43.9-80.6.09-.13.14-.42.35-.42.03,0,.07,0,.1.02.25,1.36.46,2.67.71,4.03,1.01,5.85,2.02,11.74,3.03,17.69,1.31,7.41,2.72,14.92,4.03,22.38,1.36,7.81,2.77,15.52,4.14,23.34,1.36,7.46,2.72,14.87,4.03,22.33,1.46,7.82,2.77,15.62,4.28,23.44.15.46.25.86-.05,1.31-2.77,4.49-5.65,8.87-8.67,13.15-.34.5-.71.73-1.18.73-.15,0-.31-.03-.49-.08-.97-.27-1.97-.41-2.99-.41-.15,0-.3,0-.44.01-.61,0-1.01.25-1.01.86s.4.75,1.01.81c1.05.1,2.16.15,3.32.55-1.01,1.46-1.97,2.73-2.92,4.08-1.32-.85-2.07-2.12-2.73-3.58-1.31-3.22-.91-6.65-1.26-10.08.25,0,.45-.05.6-.05,2.32,0,4.28-1.01,6.14-2.16,2.83-1.66,4.03-4.54,4.84-7.46.86-2.73.71-5.55.86-8.32,0-.66.05-1.11.75-1.26.66-.2.76-.65.3-1.26h0c-.91.55-1.91.65-2.92.65-.5-.02-1-.02-1.48-.02-.98,0-1.93.02-2.9.02h-6.5c.71-1.66.95-3.58,1.91-5.29.4-.76,1.11-1.16,2.01-1.31,1.01-.1,2.01-.1,2.92-.46.65-.18,1.27-.27,1.89-.27.74,0,1.48.13,2.25.37.4.1.86.15,1.31.25.06.01.11.02.17.02.18,0,.34-.08.39-.27.05-.25-.05-.65-.3-.65-1.26-.09-2.4-.77-3.69-.77-.21,0-.43.02-.65.07-1.61.35-3.18.6-4.79.71-1.11.05-2.22.3-3.12,1.05-1.16,1.01-1.06,2.42-1.26,3.73-.25,1.66-.1,3.28-.81,4.84-.1.45-.3.95-.81,1.01-.05,0-.09.01-.14.01-.45,0-.64-.45-.87-.82-.31-.46-.56-.96-.66-1.52-.3-2.72-.4-5.49-.25-8.27.2-2.62,1.16-3.63,3.48-4.13.46-.1.89-.15,1.32-.15.67,0,1.32.13,1.96.4.44.2.84.3,1.21.3.6,0,1.12-.29,1.62-1.01.91-1.15,2-1.78,3.25-1.78.61,0,1.26.15,1.94.47.2.1.46.2.6.25.12.05.26.09.39.09.14,0,.27-.06.32-.24.2-.3-.05-.5-.3-.66-.91-.56-1.9-.86-2.86-.86-1.1,0-2.15.4-2.99,1.26-.87.94-1.64,1.27-2.55,1.27-.5,0-1.05-.1-1.68-.27-.38-.09-.79-.14-1.21-.14-2.02,0-4.37,1.11-4.99,3.57-.15.5-.1,1.01-.4,1.51-.69.1-1.39.14-2.08.14-1.02,0-2.06-.08-3.11-.14.56-2.17.71-4.23,1.06-6.3.5-2.73,1.01-5.45,1.76-8.06.15-.5.25-1.06.96-1.16.46.46.4,1.01.4,1.51,0,2.12.15,4.18.91,6.15.34.84.74,1.82,1.84,1.82.02,0,.05,0,.08,0,1.11,0,1.26-1.05,1.51-1.96.35-1.26.35-2.57,1.01-3.78.6.15.81.65,1.11,1.05.36.5.76.86,1.26,1.01.5.18,1.06.27,1.64.27,1.85,0,3.86-.88,4.66-2.38,1.61-2.77,2.52-5.69,1.66-9.23h0c-.2,1.01-.4,1.77-.5,2.52-.4,2.01-.76,4.03-1.77,5.9-.81,1.41-2.07,1.91-3.58,2.17-.24.04-.46.05-.68.05-1.04,0-1.87-.42-2.45-1.46-.1-.15-.3-.25-.4-.41-.37-.27-.71-.41-1.01-.41-.48,0-.86.36-1.11,1.07-.25.76-.35,1.51-.55,2.27-.25.81-.2,1.77-.96,2.52-.5-.35-.76-.85-.91-1.36-.46-1.36-.76-2.83-.76-4.29,0-.85.05-1.81-.2-2.67-.15-.61-.4-1.06-.95-1.16-.15-.02-.3-.04-.43-.04-.5,0-.91.17-1.19.69-.25.41-.45.91-.6,1.42-1.05,3.98-1.81,8.06-2.32,12.19-.3,2.32-1.31,4.08-3.38,5.2-.71.4-1.36.71-2.01,1.01-1.11.5-1.77,1.21-1.97,2.47-.15,1.01,0,2.01-.15,3.02-.5,3.83-.85,7.71-1.56,11.54-.3,1.46-.96,2.82-1.72,4.08-.31.59-.87.97-1.53.97-.07,0-.15,0-.23-.01-.76-.2-1.16-.71-1.41-1.46-.2-.6-.36-1.21-.36-1.81-.1-3.68.46-7.26.6-10.89.1-4.38.1-8.72-.2-13.05-.15-2.17-.4-4.24-.71-6.35-.46-2.67-.71-5.29.25-7.91,1.01-2.83.66-5.65.41-8.47-.25-2.92-.71-5.74-.51-8.67.15-2.32.86-4.53,2.37-6.35,1.77-2.22,4.28-2.82,6.96-2.97,1.87-.1,3.68-.25,5.6-.55,2.01-.3,4.03-.96,6.04-1.31,0,.25,0,.45.05.71.12.85.29,1.23.72,1.23.25,0,.6-.14,1.09-.38,2.52-1.26,4.69-3.02,7.01-4.59.55-.4.45-.75.2-1.26h0c-2.73,1.71-5.1,3.83-8.02,5.14-.05-.4-.1-.81-.2-1.26,2.77-1.21,4.99-3.23,7.46-4.79q.71-.5.3-1.31h0c-2.77,1.51-4.89,3.83-7.92,5.04-.15-.76-.25-1.31-.35-1.91s.1-.91.86-1.06c1.61-.25,3.28-.86,4.53-2.01,2.42-2.22,2.77-5.09,2.01-8.16-.4-1.66-1.21-3.08-2.87-3.73-.61-.2-.76-.55-.76-1.16,0-.85.1-1.86-.25-2.72-.14-.49-.52-1.06-1.17-1.06h-.08c-.76.1-.91.71-1.06,1.26-.05.36-.05.66-.05.96,0,.5-.05,1.01-.56,1.41-.6-.91-.46-1.87-.25-2.72.25-1.11.36-2.27.31-3.43-.14-1.51-.9-2.39-2.06-2.39-.12,0-.24,0-.37.02-.6.1-1.11.46-1.51.86-4.14,4.63-6.6,9.93-6.05,16.28.25,2.87,1.71,5.09,4.44,6.4.93.43,1.94.74,2.98.74.2,0,.4-.01.6-.04.3.71.15,1.36.3,1.91.35,1.01-.25,1.16-1.01,1.36-3.33.91-6.71,1.51-10.18,1.66-1.56.05-3.28.25-4.79,1.01-3.98,2.01-5.29,5.59-5.59,9.68-.2,3.43.5,6.91.65,10.29.15,1.76.36,3.53-.25,5.24-1.01,3.08-1.06,6.15-.5,9.33.4,2.01.65,4.08.65,6.15-.4.15-.81.36-1.21.4-1.01.1-1.36.81-1.71,1.71-.6,1.87.66,5.85,2.72,6.81.3.15.66.35.66.85-.15,1.56-.15,3.23-.25,4.79-.25,3.22-.65,6.45-.5,9.62.05.86.15,1.62.5,2.27.51,1.2,1.44,1.82,2.45,1.82.69,0,1.43-.3,2.09-.92.5-.5.66-1.26,1.11-1.76,2.27,1.76,4.79,2.82,7.76,2.97-.15,2.32-.2,4.59-.45,6.86-.46,3.48-1.77,6.35-5.3,7.77-.35.15-.85.3-.85.81s.5.6.85.81c3.73,2.01,7.77,2.92,11.9,3.02.17,0,.33,0,.49,0,2.11,0,4.22-.3,6.46-.76h0c-.66.75-1.26,1.46-1.66,2.22-.35.71-.85.81-1.61.81-4.23-.05-8.32-.96-12.4-2.07-3.22-.91-5.94-2.52-8.26-4.79-.33-.33-.65-.81-1.05-.81-.15,0-.33.08-.5.25-.61.56-.1,1.16.3,1.77.05.1.2.15.25.3,1.97,2.22,4.24,3.83,7.01,4.79,3.83,1.26,7.79,2.13,11.88,2.13.33,0,.65,0,.97-.01.11,0,.23,0,.34,0,1.24,0,2.5.14,3.75.14.78,0,1.55-.05,2.3-.24,5.04-1.26,9.73-3.43,14.11-6.2.5-.3,1.51-.65.96-1.56-.17-.27-.36-.36-.56-.36-.41,0-.87.41-1.21.61-4.03,2.52-8.37,4.24-12.9,5.55-.37.11-.74.28-1.17.28-.16,0-.32-.02-.49-.08,1.51-1.97,2.72-4.03,5.29-4.59.5-.1,1.21-.2,1.26-.91.05-.76-.6-1.01-1.11-1.32-.1-.05-.1-.15-.15-.25.95-1.26,1.91-2.57,2.82-3.93.23-.33.44-.46.71-.46.15,0,.31.04.5.11,1.21.35,2.52.6,3.73,1.06,1.36.5,2.77,1.01,4.08,1.71.63.34.98.53,1.25.53.33,0,.55-.3,1.02-.99,1.05-1.46,2.07-2.97,3.07-4.38,6.65-9.47,13.31-18.8,19.81-28.33.96-1.36,1.01-2.52.3-4.03-13.05-29.33-26.06-58.78-39.26-88.11-1.61-3.63-3.28-7.2-4.89-10.74-.34-.64-.69-.95-1.07-.95Z"/>
  <path class="cls-13" d="M73.33,86.82c-.33,0-.56.42-.73.67-.25.3-.36.71-.46,1.06-.3,1.36-.4,2.67-.35,4.03.15,2.73.35,5.4.3,8.02v2.97c-.05,1.01-.25,1.97-.71,2.87-.25.6-.76.91-1.36.91-.66-.05-.81-.56-1.01-1.06-.46-1.46-.5-2.92-.3-4.38.45-3.08,1.05-6.15,1.21-9.33,0-.35.05-.85-.5-.85-.5,0-.46.5-.46.81-.2,2.42-.45,4.79-.91,7.1-.4,2.17-.66,4.44-.05,6.65.35,1.32.91,1.82,1.91,1.87.07,0,.14,0,.21,0,1.18,0,1.88-.43,2.36-1.62.5-1.21.6-2.47.65-3.73.15-3.93-.35-7.76-.35-11.64,0-1.16.15-2.22.6-3.22.2-.4.81-.76.15-1.06-.08-.04-.15-.07-.23-.07Z"/>
  <path class="cls-11" d="M91.91,81.64c-.4.81-.56,1.52-.56,2.27-.35,2.42-.15,4.89-.15,7.36,0,1.72.05,3.38-.46,5.09-.15.56-.4,1.21-1.05,1.21h-.07c-.56,0-.8-.57-1.04-1.06-.35-.71-.5-1.41-.6-2.17,0-.27-.08-.62-.42-.62-.04,0-.08,0-.13.02-.46.05-.36.4-.36.66.1,1.41.4,2.67,1.36,3.68.25.25.55.45,1.01.45.05,0,.1,0,.15,0,1.12,0,1.78-.57,2.12-2.02.71-2.77.45-5.69.3-8.52-.05-.71,0-1.31,0-2.01,0-1.36.6-2.77-.1-4.34Z"/>
  <path class="cls-12" d="M80.6,84.78c-.96,0-1.94.18-2.9.39-.3.05-.71.05-.66.56.03.29.15.36.31.36.15,0,.33-.05.49-.05.88,0,1.72-.39,2.58-.39.13,0,.26.01.39.03,2.27.3,3.33,1.46,3.83,3.83.45,2.16.4,4.43.75,6.55.25,1.46.71,2.93,1.82,3.99.25.25.53.41.84.41.23,0,.49-.09.78-.31-.15-.1-.2-.36-.25-.41-1.51-.91-1.91-2.36-2.16-3.88-.3-2.01-.5-4.03-.76-6.04-.3-2.62-1.71-4.44-3.73-4.89-.43-.09-.88-.14-1.33-.14Z"/>
  <path class="cls-10" d="M90.9,75.7h0c-.2.05-.3.15-.46.2-4.99,2.77-10.38,3.98-16.08,4.13-1.16,0-2.36-.1-3.58-.15-.35,0-.81,0-.95.5.25.5.75.5,1.21.5,1.07.08,2.15.12,3.23.12,2.54,0,5.08-.24,7.55-.88,2.97-.75,6-1.46,8.62-3.12.56-.3.81-.6.46-1.31Z"/>
  <path class="cls-14" d="M65.19,126.2c-.45,0-.5.35-.5.65v2.73c.05,3.58-.4,7.06-1.01,10.48-.2,1.16-.4,2.37-1.31,3.28-.36.25-.66.5-.36.86.14.15.27.21.4.21.21,0,.4-.15.56-.31.75-.71,1.06-1.52,1.31-2.47.46-1.71.71-3.48.91-5.24.36-3.12.56-6.35.5-9.53,0-.3-.05-.65-.5-.65Z"/>
  <path class="cls-15" d="M70.22,85.95c-.17,0-.38.09-.55.18-1.26.5-2.47,1.11-3.88,1.31-.55.05-.81.5-.75,1.05.1,1.21.15,2.42.2,3.78.15.81-.05,1.82-.2,2.77-.1,1.16-.36,2.22-1.11,3.18-.39.43-.77.79-1.29.79-.09,0-.18,0-.27-.03-.07-.03-.13-.04-.2-.04-.18,0-.34.11-.41.29-.1.25.1.5.35.6.2.14.4.21.6.21.1,0,.2-.02.3-.05.91-.25,1.52-.86,1.97-1.66.71-1.26,1.01-2.62,1.06-4.08.1-1.71.1-3.48,0-5.19-.05-.56.15-.86.71-.91,1.16-.2,2.22-.76,3.28-1.21.3-.15.65-.3.5-.71-.05-.21-.17-.28-.31-.28Z"/>
  <path class="cls-4" d="M62.12,103.31c-.25.05-.4.2-.65.46-.46.91-.71,1.81-.6,2.82.1,1.77.15,3.48.3,5.14.05.86.1,1.71.2,2.52,0,.36.1.61.5.61.3,0,.35-.36.35-.61v-.3c.3-3.32-1.21-6.75.25-10.08.15-.25-.05-.5-.36-.56Z"/>
  <path class="cls-2" d="M53.95,92.83c-.35,0-.5.36-.5.66,0,.35.15.81-.05,1.21-.36.15-.86-.1-1.11.4.25.71.91.5,1.36.75.24.49-.08,1.36.46,1.36h.05c1.01,0,.2-1.01.6-1.46.4-.15,1.01.1,1.01-.5-.05-.81-.85-.3-1.31-.71v-1.05c.05-.4-.05-.66-.5-.66Z"/>
  <path class="cls-6" d="M89.16,117.21c-.05,0-.11,0-.18.02-1.11.5-2.36.56-3.53,1.01-.66.3-1.16.81-1.41,1.51-.1.25-.1.55.15.71.08.02.14.03.2.03.22,0,.34-.14.46-.33.4-.76,1.11-1.16,1.97-1.26.85-.15,1.66-.35,2.42-.65.25-.1.46-.25.5-.56-.08-.25-.28-.47-.58-.47Z"/>
  <path class="cls-8" d="M96.46,66.57c-.52,0-1.05.07-1.58.21-.6.15-.86.35-.6,1.01.13.04.25.05.37.05.23,0,.4-.05.54-.05.39-.09.78-.13,1.17-.13,1.81,0,3.5.94,4.37,2.6,1.31,2.52,1.11,5.14.3,7.81-.1.31-.3.66-.71.86-.79-.56-1.45-1.72-2.46-1.72-.34,0-.73.14-1.17.46-.66.46-.81,1.06-.4,1.87.2-.1.25-.25.4-.35.3-.43.52-1.03,1.04-1.03.09,0,.21.02.33.07.71.3,1.41.81,1.36,1.91-.15,1.77-.15,3.58-.25,5.34-.25,3.32-.46,6.6-.36,9.93.1,1.36.46,2.62.66,3.93.05-6.5.5-12.9.81-19.35,1.41-.36,1.91-1.51,2.07-2.73.35-1.51.45-3.12.25-4.69-.34-3.66-3.05-6-6.13-6Z"/>
  <path class="cls-9" d="M115.35,114.46c-.5.05-.46.45-.46.75v2.01c-.56.05-1.01.15-1.51.2-.36,0-.6.1-.6.56s.35.46.65.46c.4-.05.86-.15,1.42-.2,0,.4,0,.71.05,1.05,0,.4.2.66.56.66s.5-.3.45-.66c-.09-.98.25-1.32,1.07-1.32.06,0,.12,0,.19,0,.3,0,.5-.2.5-.56,0-.4-.3-.45-.6-.45-.36,0-.71.05-1.16.05v-1.81c0-.35-.05-.75-.55-.75Z"/>
  <path class="cls-5" d="M105.22,86.52c-.07,0-.13,0-.2.01-.25.6.1,1.01,0,1.46-.05,0-.15.05-.2.05-.36.1-.81-.05-.86.5-.08.45.19.51.5.51.1,0,.21,0,.31,0,.04,0,.07,0,.11,0,.41,0,.5.29.6.66.05.27-.07.72.36.72.04,0,.09,0,.14-.01.4-.1.3-.6.3-.91,0-.1.05-.25.05-.36.45-.15,1.06-.15,1.01-.71-.02-.3-.17-.39-.36-.39-.2,0-.44.09-.58.09-.03,0-.05,0-.07-.01-.67-.47-.08-1.62-1.11-1.62Z"/>
  <path class="cls-7" d="M79.58,57.63c-.56,0-.86.48-1.18.88-1.31,2.17-1.87,4.43-1.11,6.86.53,1.91,2.15,3.16,3.71,3.16.49,0,.98-.12,1.43-.39,2.72-1.52,2.62-4.44,1.11-6.35-.24-.31-.57-.46-.91-.46-.17,0-.34.04-.5.1-.56.15-.61.66-.61,1.11-.1.3,0,.66-.4.96-.3-.66-.2-1.21-.25-1.81-.05-.91.15-1.87-.1-2.73-.2-.55-.25-1.21-.96-1.31-.08-.02-.15-.02-.23-.02Z"/>
  <path class="cls-3" d="M109.74,97.91c-.05,0-.12.04-.14.11l-1.11,5.14c0,.1-.1.1-.1.15l-4.69,1.06,4.79,1.06s.05.1.1.15l1.01,5.14c0,.08.05.11.11.11.05,0,.12-.04.14-.11l1.01-5.09c0-.05.05-.05.05-.15l4.24-1.01c.15,0,.15-.15,0-.25l-4.24-.91s-.05-.1-.05-.15l-1.01-5.14c0-.08-.05-.11-.11-.11Z"/>
</svg>