<?xml version="1.0" encoding="UTF-8"?>
<svg id="Layer_1" data-name="Layer 1" xmlns="http://www.w3.org/2000/svg" xmlns:xlink="http://www.w3.org/1999/xlink" viewBox="0 0 194.15 208.67">
  <defs>
    <style>
      .cls-1 {
        fill: #ebb871;
      }

      .cls-1, .cls-2, .cls-3, .cls-4, .cls-5 {
        fill-rule: evenodd;
      }

      .cls-2 {
        fill: url(#radial-gradient);
      }

      .cls-6 {
        fill: none;
        stroke: #ebb871;
        stroke-linejoin: round;
        stroke-width: 1.29px;
      }

      .cls-3 {
        fill: url(#radial-gradient-4);
      }

      .cls-4 {
        fill: url(#radial-gradient-3);
      }

      .cls-5 {
        fill: url(#radial-gradient-2);
      }
    </style>
    <radialGradient id="radial-gradient" cx="-214.38" cy="1023.06" fx="-214.38" fy="1023.06" r="4.33" gradientTransform="translate(798.68 3534.2) scale(3.35 -3.35)" gradientUnits="userSpaceOnUse">
      <stop offset="0" stop-color="#d473c9"/>
      <stop offset="1" stop-color="#0e0e1c"/>
    </radialGradient>
    <radialGradient id="radial-gradient-2" cx="-244.38" cy="1118.56" fx="-244.38" fy="1118.56" r="5.4" gradientTransform="translate(1079.9 4760.88) scale(4.18 -4.18)" gradientUnits="userSpaceOnUse">
      <stop offset="0" stop-color="#343479"/>
      <stop offset="1" stop-color="#0e0e1c"/>
    </radialGradient>
    <radialGradient id="radial-gradient-3" cx="-240.64" cy="1143.92" fx="-240.64" fy="1143.92" r="5.81" gradientTransform="translate(1187.5 5230.19) scale(4.5 -4.5)" gradientUnits="userSpaceOnUse">
      <stop offset="0" stop-color="#343479"/>
      <stop offset="1" stop-color="#0e0e1c"/>
    </radialGradient>
    <radialGradient id="radial-gradient-4" cx="-184" cy="885.8" fx="-184" fy="885.8" r="3.41" gradientTransform="translate(555.86 2475.03) scale(2.64 -2.64)" gradientUnits="userSpaceOnUse">
      <stop offset="0" stop-color="#d473c9"/>
      <stop offset="1" stop-color="#0e0e1c"/>
    </radialGradient>
  </defs>
  <path class="cls-1" d="M103.05,7.57c-4.53,0-9.05.45-13.53,1.36-.23,0-.46.34-.46.69,0,.23.46.46.8.46,4.41-.91,8.88-1.36,13.34-1.36,14.76,0,29.35,4.88,40.85,13.92,17.99,14.07,27.8,37.82,25.14,60.66-2.43,22.03-16.37,42.09-36.1,52.46-.34.12-.46.58-.34.81.23.23.34.34.57.34h.23c20.18-10.72,34.25-31.12,36.79-53.5,2.77-23.18-7.27-47.39-25.61-61.69-11.79-9.22-26.65-14.15-41.69-14.15Z"/>
  <path class="cls-1" d="M73.55,14.47c-.09,0-.19.04-.3.11-19.14,9.91-32.86,29.05-35.74,50.15-.92,6.34-.92,12.8-.69,19.14.11,7.96.23,16.27-1.61,24.1l-.35,1.27c-.8,3.23-1.61,6.8-.34,10.03,1.38,3.69,4.84,5.76,8.42,7.83l16.02,8.77q.23.11.35.11c.23,0,.46,0,.57-.34.12-.35,0-.81-.34-.92l-16.04-8.77c-3.46-1.84-6.68-3.92-7.83-7.03-1.15-2.87-.35-6.22.34-9.45l.35-1.27c1.84-7.96,1.72-16.25,1.61-24.33,0-6.34-.23-12.8.69-19.02,2.89-20.64,16.25-39.55,35.17-49.12.23-.23.46-.58.23-.92-.08-.18-.28-.34-.52-.34Z"/>
  <path class="cls-1" d="M134.5,77.92c-.23,0-.41.24-.58.42-1.5,6.22-1.38,13.03.46,19.03.46,1.49,1.03,2.77,1.49,4.03.58,1.5,1.15,2.89,1.5,4.39,1.04,3.33,1.15,5.99.46,8.3-1.27,4.5-5.19,7.27-7.5,8.42-2.43,1.27-5.07,2.3-7.6,3.12l-3.47,1.26c-3,1.27-7.37,3.12-10.26,6.7-.11.34-.11.69.12.92.23.11.34.11.46.11.11,0,.34,0,.46-.57,1.95-2.43,5.07-4.5,9.68-6.24,1.15-.46,2.32-.69,3.47-1.15,2.53-.8,5.3-1.84,7.73-3.1,4.15-2.32,7.03-5.54,8.07-9.11.69-2.66.58-5.65-.46-9.11-.34-1.63-.92-3.01-1.5-4.5-.57-1.27-1.03-2.53-1.49-3.81-1.84-5.99-1.97-12.46-.46-18.34.23-.34-.12-.57-.35-.69-.08-.05-.15-.07-.22-.07Z"/>
  <path class="cls-1" d="M105.64,130.51c.37,0,.72.07,1.06.18.69.46,1.27,1.15,1.5,1.84.11.92.23,1.61.23,2.3,0,1.74-.46,3.35-1.27,4.5-1.26,1.61-3.46,2.2-5.3,2.77-9.47,2.51-19.27,3.2-28.82,3.2-3.24,0-6.44-.08-9.58-.2-1.15,0-2.2,0-2.89-.69-.57-.57-.69-1.61-.69-2.41-.11-3.12.23-6.11,1.27-9,.11-.46.69-.57,1.49-.57.23,0,.69.11.69.11.81.12,1.63,1.04,1.86,1.97,0,.23.34.34.57.34.35,0,.46-.11.58-.34.46-1.61,2.07-2.77,3.8-2.89,1.73,0,3.47.92,4.16,2.43.11.11.23.23.57.23.23,0,.46-.12.58-.35.69-1.49,2.3-2.64,4.03-2.77.11,0,.23-.01.33-.01,1.61,0,3.08.8,3.84,2.21.11.11.34.23.57.23.35,0,.46-.12.58-.23.69-1.5,2.18-2.53,3.92-2.53.09-.01.19-.01.3-.01,1.61,0,3.09.89,3.85,2.2.12.12.46.35.58.35.34,0,.46-.23.57-.35.58-1.03,2.07-1.72,3.47-1.72,1.26,0,2.64.57,3.46,1.61,0,.11.34.23.46.23.11,0,.23-.12.46-.23.69-.92,1.72-1.61,2.64-2.2.41-.11.79-.18,1.14-.18ZM105.54,129.41c-.54,0-1.1.12-1.61.35-.92.58-1.84,1.38-2.53,2.07-1.04-1.03-2.43-1.49-3.92-1.49-1.4.23-2.89.8-3.93,1.84-1.15-1.5-2.87-2.2-4.72-2.2-1.86.12-3.47,1.04-4.5,2.3-1.1-1.19-2.79-2.09-4.43-2.09-.11,0-.2.01-.3.01-1.74,0-3.46,1.04-4.5,2.53-1.08-1.4-2.67-2.2-4.38-2.2-.11,0-.23,0-.35.01-1.72.11-3.46,1.03-4.26,2.41-.46-.69-1.38-1.26-2.2-1.61-.39-.09-.8-.14-1.21-.14-1.17,0-2.29.41-2.71,1.52-1.04,3-1.38,6.34-1.27,9.46,0,1.15.23,2.41,1.15,3.33,1.04,1.04,2.43,1.17,3.69,1.17,3.12,0,6.24.11,9.46.11,9.57,0,19.6-.69,29.06-3.35,2.07-.57,4.5-1.26,5.88-3.1,1.15-1.38,1.61-3.24,1.61-5.31,0-.8-.12-1.61-.23-2.53-.35-1.15-1.15-2.18-2.2-2.77-.52-.23-1.07-.35-1.61-.35Z"/>
  <path class="cls-2" d="M78.79,92.47c-.53,0-1.04.27-1.38.73-2.87,5.08-5.53,10.26-6.11,15.91-.23,1.84,0,3.81,1.4,4.96.92.81,1.84.92,3,.92,1.49,0,3.23-.46,3.69-1.74.81,1.4,2.43,2.32,4.04,2.43.12.01.24.01.37.01,1.57,0,2.93-.69,3.89-1.97,1.27-1.74,1.04-4.27.58-6.34-1.27-5.54-4.5-10.26-8.31-14.42-.34-.34-.75-.5-1.15-.5Z"/>
  <path class="cls-6" d="M78.79,92.47c-.53,0-1.04.27-1.38.73-2.87,5.08-5.53,10.26-6.11,15.91-.23,1.84,0,3.81,1.4,4.96.92.81,1.84.92,3,.92,1.49,0,3.23-.46,3.69-1.74.81,1.4,2.43,2.32,4.04,2.43.12.01.24.01.37.01,1.57,0,2.93-.69,3.89-1.97,1.27-1.74,1.04-4.27.58-6.34-1.27-5.54-4.5-10.26-8.31-14.42-.34-.34-.75-.5-1.15-.5Z"/>
  <path class="cls-1" d="M135.85,118.09c-.27,0-.46.28-.56.49-2.53,7.96-3.23,17.17-2.2,26.05.12.81.12,1.38.23,2.09.46,3,.92,6.22.23,9.22-1.03,4.61-4.5,8.19-7.96,11.54-6.11,5.88-14.3,13.15-23.98,17.76-6.53,3.08-13.23,4.66-19.59,4.66-3.19,0-6.29-.39-9.24-1.21-2.89-.8-4.96-1.97-6.57-3.23-2.07-1.61-3.23-3.92-3.35-6.11,0-2.07.94-3.92,1.73-6.11.35-.69.58-1.26.92-2.07,2.07-5.76,1.97-12.46-.57-18.45-.18-.18-.41-.27-.65-.27-.09,0-.19.01-.27.04-.23.11-.47.57-.23.8,2.41,5.65,2.53,12,.34,17.65-.23.69-.58,1.27-.81,1.97-.92,2.18-1.84,4.38-1.72,6.8.11,2.64,1.38,5.18,3.69,7.02,1.73,1.63,4.04,2.66,7.16,3.47,3,.92,6.1,1.38,9.45,1.38,6.45,0,13.38-1.61,20.29-5.54,9.8-4.61,17.99-11.98,24.22-17.87,3.58-3.46,7.27-7.16,8.42-12.1.69-3.12.23-6.47-.23-9.69-.12-.58-.12-1.27-.23-1.84-1.04-8.77-.23-17.88,2.07-25.61.11-.34-.23-.57-.46-.8-.05-.01-.09-.03-.14-.03Z"/>
  <path class="cls-1" d="M62.41,146.02c-.23,0-.34.35-.34.7.11.69.11,1.38.23,2.18,0,.35,0,.92.11,1.38.35,1.04.58,2.43,1.4,3.58.69,1.15,1.95,2.07,3.23,2.2h.46c1.15,0,2.3-.58,2.87-1.86.7.35,1.55.52,2.47.52.28,0,.58-.01.88-.04,1.15-.24,2.43-.58,3.35-1.5.95.38,1.91.61,2.86.61.2,0,.39-.01.6-.04,1.27-.11,2.43-.69,3-1.61.77.43,1.6.66,2.51.66.31,0,.62-.03.95-.08,1.27-.12,2.55-.69,3.47-1.74.77.26,1.68.39,2.58.39.3,0,.6-.01.88-.04,1.38-.12,2.53-.69,3.35-1.61.43.15.91.2,1.36.2.95,0,1.82-.24,2.21-.33,1.15-.34,2.3-1.15,3-2.3.35-.34.12-.69-.11-.92-.12-.08-.24-.12-.37-.12-.22,0-.41.14-.56.35-.58.81-1.38,1.5-2.43,1.84-.6.14-1.31.27-1.98.27-.5,0-.98-.07-1.36-.27-.23,0-.58,0-.7.23-.57.81-1.61,1.38-2.77,1.5-.28.03-.58.04-.88.04-.88,0-1.79-.14-2.58-.39-.05-.03-.14-.04-.2-.04-.19,0-.41.11-.49.27-.69.81-1.73,1.38-2.89,1.5-.26.07-.6.12-.96.12-.7,0-1.53-.2-2.14-.81-.23-.12-.46-.12-.58-.12l-.46.46c-.34.81-1.26,1.38-2.3,1.5-.23.05-.46.07-.69.07-.84,0-1.72-.28-2.53-.65-.03-.03-.07-.04-.12-.04-.12,0-.28.11-.46.27-.69.81-1.72,1.27-2.87,1.38-.28.03-.57.04-.84.04-.94,0-1.75-.16-2.28-.61-.12-.12-.46-.12-.58-.12-.34.12-.46.23-.46.46-.09.75-.98,1.29-1.92,1.29-.08,0-.18,0-.26-.01-.81-.11-1.84-.69-2.43-1.74-.57-1.03-.8-2.3-1.04-3.23,0-.34-.11-.8-.11-1.26,0-.69-.12-1.5-.23-2.2,0-.23-.46-.35-.81-.35Z"/>
  <path class="cls-1" d="M108.15,139.31c-.05,0-.12.01-.18.03-.23,0-.58.46-.35.69.23,1.15.69,2.53.58,3.69-.23.81-.58,1.97-1.61,2.53-.37.2-.73.3-1.13.3-.5,0-1.02-.15-1.53-.41-.07-.03-.14-.04-.23-.04-.22,0-.49.11-.58.27-.11.35,0,.81.23.92.81.46,1.5.58,2.2.58.58,0,1.04-.12,1.61-.46,1.15-.58,1.97-1.97,2.07-3.58.23-1.5-.23-2.89-.57-4.04,0-.28-.24-.49-.52-.49Z"/>
  <path class="cls-1" d="M67.96,145.55c-.35.12-.58.46-.58.69.12,2.78,1.04,5.54,2.43,7.85.11.11.46.23.57.23q.12,0,.35-.12c.34-.11.34-.57.23-.92-1.27-2.07-2.2-4.61-2.3-7.14-.12-.35-.46-.58-.69-.58Z"/>
  <path class="cls-1" d="M74.41,145.79c-.23,0-.46.46-.46.81.46,2.3,1.5,4.61,2.89,6.45,0,.12.34.23.46.23.11,0,.34,0,.23-.23.34-.23.34-.57.23-.92-1.27-1.72-2.2-3.69-2.66-5.88,0-.23-.34-.46-.69-.46Z"/>
  <path class="cls-1" d="M81.44,146.02c-.34,0-.57.35-.57.7.23,1.84.92,3.8,1.95,5.41.12.23.35.35.58.35.11,0,.23-.12.34-.12.35-.23.35-.57.23-.92-.92-1.49-1.49-3.1-1.72-4.84,0-.46-.46-.58-.81-.58Z"/>
  <path class="cls-1" d="M89.29,144.99c-.35.11-.58.46-.58.69.12,2.07.58,3.92,1.38,5.65.23.11.35.23.58.23h.34c.23-.12.46-.58.23-.81-.69-1.61-1.15-3.46-1.26-5.19-.12-.34-.23-.57-.69-.57Z"/>
  <path class="cls-1" d="M95.85,143.83c-.23,0-.57.23-.57.57,0,1.74.46,3.47,1.5,5.08.11.11.46.23.57.23h.23c.35-.12.35-.58.23-.81-.92-1.38-1.38-2.89-1.38-4.5,0-.34-.23-.57-.58-.57Z"/>
  <path class="cls-1" d="M102.55,142.33c-.35.23-.58.46-.58.81.12,1.38.81,2.64,1.38,3.81.23.23.35.34.58.34h.34c.23-.23.46-.57.23-.92-.57-.92-1.15-2.3-1.26-3.46-.12-.23-.46-.58-.69-.58Z"/>
  <path class="cls-1" d="M66.68,132.99c-.34,0-.8.35-.8.58-.69,4.03-.81,8.19-.58,12.44,0,.23.35.58.58.58.34,0,.57-.35.8-.81-.34-4.03,0-8.07.58-12.1,0-.23-.35-.69-.58-.69Z"/>
  <path class="cls-1" d="M75.45,132.53c-.46,0-.69.35-.69.58-.35,4.26-.46,8.53,0,12.67,0,.35.23.58.57.58s.58-.23.69-.69c-.46-4.04-.46-8.19,0-12.33,0-.46-.34-.81-.57-.81Z"/>
  <path class="cls-1" d="M84.79,132.19c-.46,0-.69.23-.69.57-.35,4.15-.35,8.42.11,12.69,0,.23.35.57.58.57.34,0,.57-.34.69-.57-.23-4.27-.35-8.42-.12-12.57,0-.46-.23-.69-.57-.69Z"/>
  <path class="cls-1" d="M93.9,131.84c-.46,0-.69.35-.69.58-.58,3.92-.58,7.83.11,11.64,0,.46.23.57.58.57.46-.11.57-.34.69-.8-.58-3.81-.69-7.5-.12-11.3,0-.23-.34-.69-.57-.69Z"/>
  <path class="cls-1" d="M101.63,131.84c-.23,0-.58.35-.58.58.23,3.46.58,6.91,1.61,10.26,0,.23.23.46.58.46,0,0,.05-.11.08-.11.01,0,.03.03.03.11.35,0,.58-.46.46-.81-.92-3.1-1.38-6.57-1.61-9.91,0-.23-.23-.58-.57-.58Z"/>
  <path class="cls-5" d="M59.31,65.65c-1.04,0-2.2.23-3.23.46-2.55.69-4.62,3-6.34,4.96-1.27,1.5-2.43,3.12-3.12,4.96-1.38,3.23-1.97,6.68-1.73,10.14,0,4.16.92,8.31,3.58,11.54,1.84,2.43,4.84,4.15,8.08,4.5.8,0,1.61,0,2.41-.23h.35c2.3-.58,4.5-2.07,5.99-4.04,1.61-1.84,2.77-4.15,3.69-6.45,1.5-4.04,2.53-8.31,2.3-12.69-.46-4.27-2.53-8.65-5.99-11.07-1.15-.92-2.43-1.49-3.81-1.72-.8-.12-1.49-.35-2.18-.35Z"/>
  <path class="cls-6" d="M59.31,65.65c-1.04,0-2.2.23-3.23.46-2.55.69-4.62,3-6.34,4.96-1.27,1.5-2.43,3.12-3.12,4.96-1.38,3.23-1.97,6.68-1.73,10.14,0,4.16.92,8.31,3.58,11.54,1.84,2.43,4.84,4.15,8.08,4.5.8,0,1.61,0,2.41-.23h.35c2.3-.58,4.5-2.07,5.99-4.04,1.61-1.84,2.77-4.15,3.69-6.45,1.5-4.04,2.53-8.31,2.3-12.69-.46-4.27-2.53-8.65-5.99-11.07-1.15-.92-2.43-1.49-3.81-1.72-.8-.12-1.49-.35-2.18-.35Z"/>
  <path class="cls-1" d="M59.19,66c-3.69,3.33-6.22,7.6-7.73,12.21-1.38,5.54-1.38,11.3.46,16.6.92,2.43,2.07,4.62,3.46,6.34l1.17,1.15c.92,0,1.61,0,2.41-.11-.8-.58-1.49-1.38-2.3-2.2-1.27-1.61-2.43-3.58-3.46-5.65-1.5-5.07-1.73-10.49-.23-15.56,1.61-4.84,4.5-9.34,8.3-12.57-.69-.12-1.38-.23-2.07-.23Z"/>
  <path class="cls-4" d="M106.29,63.48c-1.25,0-2.47.19-3.63.45-3,1.03-5.3,3.46-7.37,5.76-1.38,1.72-2.66,3.81-3.58,5.76-1.61,3.69-2.18,7.73-1.95,11.77,0,4.73,1.26,9.57,4.15,13.38,2.41,3,6.34,5.19,10.26,5.19.69,0,1.27,0,1.97-.12h.34c2.66-.58,5.19-2.53,7.03-4.61,1.84-2.2,3.12-4.85,4.15-7.5,1.84-4.84,3-9.69,2.66-14.88-.46-5.07-2.77-9.91-6.8-12.8-1.04-.8-2.2-1.38-3.35-1.72-.8-.35-1.61-.47-2.41-.58-.49-.07-.98-.09-1.45-.09Z"/>
  <path class="cls-6" d="M106.29,63.48c-1.25,0-2.47.19-3.63.45-3,1.03-5.3,3.46-7.37,5.76-1.38,1.72-2.66,3.81-3.58,5.76-1.61,3.69-2.18,7.73-1.95,11.77,0,4.73,1.26,9.57,4.15,13.38,2.41,3,6.34,5.19,10.26,5.19.69,0,1.27,0,1.97-.12h.34c2.66-.58,5.19-2.53,7.03-4.61,1.84-2.2,3.12-4.85,4.15-7.5,1.84-4.84,3-9.69,2.66-14.88-.46-5.07-2.77-9.91-6.8-12.8-1.04-.8-2.2-1.38-3.35-1.72-.8-.35-1.61-.47-2.41-.58-.49-.07-.98-.09-1.45-.09Z"/>
  <path class="cls-1" d="M107.74,63.81c-1.97,1.27-3.81,3-5.31,5.53-4.03,6-5.99,13.61-5.07,20.87.58,5.76,3,11.18,6.8,15.68.69,0,1.27,0,1.97-.11-3.93-4.39-6.47-9.92-7.16-15.68-.92-6.93.81-14.19,4.84-19.84,1.86-2.64,4.04-4.72,6.34-5.87-.8-.23-1.61-.46-2.41-.58Z"/>
  <path class="cls-1" d="M141.65,124.3c-.23,0-.5.14-.6.39-1.95,4.03-4.61,7.6-7.83,10.6-.23.35-.23.58,0,.92.11.12.34.12.46.12.11,0,.23-.12.46-.12,3.23-3.23,5.99-6.8,8.07-10.95.12-.34,0-.8-.34-.92-.07-.03-.14-.04-.22-.04Z"/>
  <path class="cls-1" d="M137.57,123.28c-.33,0-.66.28-.66.49-.69,3.56-1.97,7.27-3.58,10.49-.11.34,0,.8.35.92h.23c.23,0,.46-.12.46-.35,1.72-3.46,3-7.03,3.69-10.72.23-.34-.11-.8-.35-.8-.04-.03-.09-.03-.14-.03Z"/>
  <path class="cls-1" d="M113.23,124.73c-.11,0-.22.05-.31.19-2.3,2.18-3.8,5.07-3.92,8.19,0,.46.12.8.58.8.34,0,.57-.34.69-.8.23-2.66,1.49-5.42,3.46-7.27.23-.35.35-.58,0-.92-.14-.07-.33-.19-.5-.19Z"/>
  <path class="cls-1" d="M54.98,128.33c-.15,0-.3.05-.41.16-.35.35-.35.58,0,.92,1.84,1.63,3.23,3.7,4.15,5.88.12.35.23.46.58.46,0,0,.05-.04.12-.04.03,0,.07.01.11.04.34-.11.46-.57.34-.92-1.03-2.41-2.64-4.61-4.5-6.34-.11-.11-.26-.16-.39-.16Z"/>
  <path class="cls-1" d="M38.2,110.96c-.46,0-.69.12-.81.46-.92,2.09-.8,4.73.12,6.93,1.03,2.07,2.77,3.81,4.84,4.84h.35c.34,0,.46-.11.57-.11.12-.35,0-.69-.34-.92-1.84-.81-3.23-2.43-4.16-4.27-.69-1.84-.8-4.15-.11-6.11,0-.35-.12-.69-.46-.81Z"/>
  <path class="cls-1" d="M131.42,104.73c-.12,0-.24.03-.39.12-.11.35-.23.58,0,.94,1.5,1.61,2.2,3.69,2.07,5.87-.11,2.09-1.38,4.16-2.87,5.54-.35.11-.46.57-.12.8.12.12.23.35.35.35.23,0,.34-.23.46-.35,1.84-1.38,3.1-3.92,3.33-6.34.23-2.41-.8-4.95-2.3-6.8-.2-.05-.35-.12-.53-.12Z"/>
  <path class="cls-1" d="M145.77,29.62c-.14,0-.27.05-.45.16-.23.35-.23.58,0,.92,8.53,8.31,14.41,19.26,16.71,30.9,0,.35.35.46.58.46.46,0,.58-.23.58-.69-2.32-11.87-8.42-23.06-17.07-31.6-.12-.11-.24-.16-.37-.16Z"/>
  <path class="cls-1" d="M90.12,9.45c-.27,0-.43.11-.6.27-1.27,3.12-2.09,6.24-3.12,9.23l-.58,1.95c-.11.23-.11.35,0,.58.81,1.27,1.84,2.89,3.12,4.04-.81,1.72-1.84,3.23-2.66,4.84-.57.92-1.03,1.74-1.61,2.66v-5.42c0-.23-.11-.35-.34-.58-.58-.23-.92-.57-1.5-.8-1.38-.69-2.77-1.61-4.04-2.2.23-.92.35-1.61.58-2.43.11-1.03.34-2.07.57-2.87.12-.35,0-.58-.34-.81-1.74-.92-3.58-2.07-5.3-3.23-.15-.15-.3-.2-.43-.2-.19,0-.37.12-.49.33-.12.34-.12.69.23.92,1.49.92,3.23,1.95,4.95,3-.23.8-.34,1.61-.57,2.41-.12,1.04-.35,2.09-.58,2.89-.11.35,0,.58.35.69,1.38.81,2.89,1.61,4.27,2.3.46.35.92.46,1.38.81,0,2.07,0,4.96-.46,7.6,0,.23.11.58.46.69h.11c.05,0,.18-.03.31-.03.12,0,.27.03.38.15l3-5.19c1.04-1.74,2.09-3.58,3.12-5.3.12-.12.12-.58-.23-.69-1.15-1.04-2.3-2.66-3.12-3.93l.58-1.61c1.04-3,1.97-6.11,3.12-9.22.23-.35,0-.69-.23-.81-.12-.03-.23-.04-.33-.04Z"/>
  <path class="cls-3" d="M70.37,131.15l-2.41.69-1.5,1.84c-.57,4.04-.8,8.31-.57,12.33l3.8.23,3.93.12,1.72-.58c-.34-4.15-.34-8.3,0-12.44l-1.03-.81-1.74-1.15-2.2-.23Z"/>
  <path class="cls-1" d="M68.39,170.66c-.24,0-.46.12-.56.38-.92,1.74-1.84,3.35-2.18,5.19-.58,2.2-.46,4.04.11,5.77.92,2.07,2.66,3.46,4.61,3.8.35,0,.58-.34.58-.46,0-.34-.23-.8-.58-.8-1.38-.23-2.87-1.38-3.46-3-.69-1.84-.46-3.7-.11-5.08.57-1.61,1.26-3.23,2.18-4.84.12-.34,0-.69-.34-.92-.09-.03-.18-.04-.26-.04Z"/>
  <path class="cls-1" d="M130.92,148.9c-.46,0-.58.35-.58.69.69,6-2.3,12.46-7.5,15.68-.23.12-.23.58-.11.92.11.12.46.23.57.23h.23c5.65-3.46,9-10.49,8.08-16.94,0-.46-.35-.58-.69-.58Z"/>
</svg>