<?xml version="1.0" encoding="UTF-8"?>
<svg id="Layer_1" data-name="Layer 1" xmlns="http://www.w3.org/2000/svg" xmlns:xlink="http://www.w3.org/1999/xlink" viewBox="0 0 162.8 192.73">
  <defs>
    <style>
      .cls-1 {
        fill: #ebb871;
      }

      .cls-1, .cls-2, .cls-3, .cls-4 {
        fill-rule: evenodd;
      }

      .cls-2 {
        fill: url(#radial-gradient);
      }

      .cls-3 {
        fill: url(#radial-gradient-3);
      }

      .cls-4 {
        fill: url(#radial-gradient-2);
      }
    </style>
    <radialGradient id="radial-gradient" cx="-680.02" cy="1097.07" fx="-680.02" fy="1097.07" r="5.35" gradientTransform="translate(3747.09 -7092.91) rotate(-120.98) scale(6.25 -6.25)" gradientUnits="userSpaceOnUse">
      <stop offset="0" stop-color="#343479"/>
      <stop offset="1" stop-color="#0e0e1c"/>
    </radialGradient>
    <radialGradient id="radial-gradient-2" cx="-605.27" cy="1067.55" fx="-605.27" fy="1067.55" r="7.3" gradientTransform="translate(5240.32 -8968.97) rotate(-120.98) scale(8.51 -8.51)" gradientUnits="userSpaceOnUse">
      <stop offset="0" stop-color="#d473c9"/>
      <stop offset="1" stop-color="#0e0e1c"/>
    </radialGradient>
    <radialGradient id="radial-gradient-3" cx="-860.38" cy="1166.04" fx="-860.38" fy="1166.04" r="3.29" gradientTransform="translate(2159.03 -5099.58) rotate(-121) scale(3.84 -3.84)" gradientUnits="userSpaceOnUse">
      <stop offset="0" stop-color="#d473c9"/>
      <stop offset="1" stop-color="#0e0e1c"/>
    </radialGradient>
  </defs>
  <path class="cls-2" d="M69.87,74.71c1.65-1.57,8.92-8.04,11.28-10.39,2.36-2.35,2.42-2.29,2.9-3.73s.7-3.34-.02-4.9c-.72-1.55-2.53-3.82-4.3-4.43-1.77-.61-4.89.25-6.32.76s-1.65,1.24-2.25,2.28c-.6,1.04-.48,2.86-1.35,3.97-.87,1.11-1.23.47-3.88,2.68-2.65,2.21-8.28,7.01-12.03,10.61-3.75,3.6-8.4,8.84-10.48,10.96-2.07,2.12-1.08,1.29-1.97,1.77-.9.48-2.35.53-3.42,1.12s-2.43,1.01-3.01,2.39c-.58,1.38-1.06,4.22-.45,5.87.61,1.66,2.2,3.47,4.11,4.08,1.91.61,4.23,1.43,7.33-.43,3.1-1.86,7.08-6.82,11.28-10.74,4.2-3.93,11.85-10.84,13.95-12.81,2.09-1.98-3.04,2.52-1.39.95Z"/>
  <path class="cls-4" d="M145.73,166.62l-5.67-.1-8.69-3.19-3.71-2.68L58.16,85.77l13.94-12.58,68.57,75.67,1.79,2.2,3.44,7.28-.17,8.28Z"/>
  <path class="cls-3" d="M28.12,43.55h0c-4.23,2.54-9.71,1.17-12.25-3.06h0c-1.22-2.03-1.58-4.46-1.01-6.76.57-2.3,2.04-4.27,4.07-5.49h0c4.23-2.54,9.71-1.17,12.25,3.06h0c2.54,4.23,1.17,9.71-3.06,12.25Z"/>
  <path class="cls-1" d="M57.6,85.67c-.06.15-.04.34.13.49l70.48,75.07c.18.28,8.3,6.34,17.28,6.22.13-.05.28-.18.35-.35q.03-.08-.05-.11c.02-.29-.19-.48-.39-.47-8.78.11-16.73-5.88-16.73-5.88L58.3,85.51c-.13-.15-.41-.18-.61.04-.04.03-.07.08-.09.13Z"/>
  <path class="cls-1" d="M64.02,79.75c-.06.15-.04.29.06.4l81.08,87.16c.22.19.42.18.61-.04l.07-.17c.11-.25.06-.37-.02-.41l-81.12-87.07c-.18-.28-.42-.18-.57-.05-.05.06-.08.12-.11.17Z"/>
  <path class="cls-1" d="M34.56,88.27c-1.14,2.65-.67,5.89,1.5,8.14,1.36,1.47,3.21,2.26,5.21,2.43,2.13.12,4.05-.64,5.52-2l17.94-16.61.11-.25c.04-.09-.06-.33-.14-.36-.13-.15-.42-.18-.57-.05l-17.94,16.61c-1.41,1.19-3.01,1.9-4.84,1.8-1.88-.01-3.49-.9-4.66-2.09-1.87-2.13-2.27-4.91-1.25-7.29.35-.83.89-1.61,1.59-2.29,1.37-1.1,3.05-1.77,4.8-1.71,1.88.01,3.52.81,4.74,2.13.13.16.41.18.61-.03.04-.04.07-.08.09-.13.06-.15.03-.35-.13-.49-1.35-1.48-3.19-2.27-5.32-2.39-2.02-.17-3.96.68-5.44,2.04-.81.71-1.41,1.59-1.82,2.53Z"/>
  <path class="cls-1" d="M70.35,55.02c-1.14,2.65-.7,5.89,1.39,8.18.21.18.41.18.61-.04.08-.05.13-.11.15-.17.06-.14-.01-.3-.11-.41-1.88-2.12-2.28-4.92-1.26-7.28.36-.84.89-1.61,1.6-2.29,1.36-1.11,3.04-1.78,4.89-1.68,1.79-.02,3.43.78,4.65,2.1,1.11,1.36,1.81,2.96,1.8,4.84-.04.82-.23,1.62-.54,2.34-.38.88-.93,1.66-1.64,2.28l-17.94,16.61c-.05.06-.08.11-.11.16-.07.16-.03.32.1.53.22.19.42.18.61-.04l17.95-16.61c.81-.75,1.46-1.55,1.89-2.56.4-.93.59-1.84.49-2.77.17-2.01-.6-3.93-1.95-5.41-1.35-1.47-3.27-2.29-5.32-2.38-2.01-.17-4.04.65-5.43,2.03-.81.72-1.42,1.6-1.83,2.55Z"/>
  <path class="cls-1" d="M41.49,83.76c-.11.26-.09.46.04.61.25.11.45.1.69,0,3.06-3.66,7.99-8.68,13.45-13.78,5.54-5.06,10.76-9.58,14.64-12.37q.15-.13.19-.22c.03-.08.14-.33-.1-.24-.14-.36-.51-.42-.71-.2-3.79,2.83-9.21,7.35-14.67,12.45-5.45,5.1-10.4,10.13-13.53,13.74Z"/>
  <path class="cls-1" d="M21.59,44.95c-.07.17-.07.41.09.55,6.2,7.52,17.04,20.21,27.2,31.21.13.16.41.18.61-.04l.11-.25c.07-.17.02-.29.09-.46-10.2-10.92-21.03-23.6-27.23-31.12-.22-.19-.59-.25-.78-.03-.04.03-.07.08-.09.14Z"/>
  <path class="cls-1" d="M32.35,34.9c-.07.17-.03.32.1.53,7.05,6.7,18.93,18.33,29.09,29.34.13.16.42.18.61-.03l.11-.26c.03-.08.11-.25-.06-.32-10.2-10.93-22.12-22.69-29.17-29.37-.13-.16-.33-.14-.57-.05-.05.05-.08.11-.1.15Z"/>
  <path class="cls-1" d="M57.81,72.79l4.42.11-.11,4.42-4.42-.11.11-4.42ZM56.88,72.4l-.21,5.37c-.03.29.19.48.39.47l5.4.13c.17.07.28.02.32-.06l.14-.33.22-5.36c-.1-.24-.19-.48-.52-.42l-5.36-.22c-.08-.03-.21.02-.24.1l-.14.33Z"/>
  <path class="cls-1" d="M55.39,79.02c-.07.16-.04.32.02.49.22.2.42.18.61-.04l8.6-8.01.07-.17c.04-.09-.02-.41-.11-.44-.13-.16-.41-.18-.61.03l-8.48,7.97c-.05.06-.09.13-.11.17Z"/>
  <path class="cls-1" d="M37.96,89.72c-.35.83-.43,1.8-.17,2.67.4,1.37,1.58,2.57,3.12,2.93,1.45.32,2.98-.02,4.1-1.03.62-.53,1.11-1.2,1.47-2.04.22-.5.47-1.09.38-1.82,0-.2-.06-.53-.35-.56-.19.08-.42.14-.49.3-.02.05-.02.11,0,.18-.06.49-.18.97-.37,1.41-.28.66-.71,1.24-1.25,1.66-.93.79-2.23,1.03-3.34.85-1.16-.3-2.07-1.19-2.38-2.31-.19-.68-.13-1.43.14-2.06.18-.41.44-.77.78-1.01.98-.68,2.38-.67,3.15.06.46.3.79.93.74,1.51,0,.1-.03.21-.07.31-.19.44-.67.78-1.05.7-.21-.02-.41.07-.47.21-.03.06-.03.12,0,.19-.05.37.08.52.36.55.82.1,1.65-.5,1.99-1.3.05-.12.08-.24.11-.37.08-.86-.35-1.95-1.12-2.47-1.2-.91-2.88-.93-4.17,0-.48.35-.86.86-1.11,1.44Z"/>
  <path class="cls-1" d="M73.96,56.13c-.45,1.05-.35,2.33.29,3.29.54.83,1.43,1.31,2.36,1.21.78-.05,1.46-.54,1.74-1.21.09-.21.15-.43.15-.66.02-.28-.19-.48-.4-.46-.21-.02-.38.09-.44.24-.02.05-.03.1-.03.15,0,.14-.02.28-.07.4-.17.39-.61.65-.97.63-.56.16-1.19-.21-1.56-.76-.48-.66-.51-1.66-.18-2.43.11-.25.24-.46.41-.64.77-.86,2.06-1.1,3.22-.8,1,.43,1.84,1.48,2.03,2.66.07.73-.02,1.53-.32,2.23-.16.37-.38.72-.68,1-.86.83-1.97,1.35-3.19,1.42-.21-.02-.38.09-.44.24-.02.05-.03.09-.03.15-.02.28.19.48.4.46,1.55-.13,2.95-.61,3.9-1.7.38-.43.69-.89.94-1.49.32-.75.48-1.58.3-2.54-.26-1.5-1.27-2.83-2.73-3.35-1.43-.61-3.15-.07-4.11,1.01-.27.27-.47.59-.62.93Z"/>
  <path class="cls-1" d="M16.14,33c.46-1.08,1.06-2.02,2.11-2.86,3.36-3.22,8.69-2.92,11.83.41,1.49,1.63,2.35,3.79,2.27,6.04-.09,1.09-.34,2.13-.75,3.07-.46,1.06-1.11,2.02-1.97,2.8-1.67,1.57-3.78,2.34-6.04,2.27-2.33-.1-4.42-1-5.91-2.64-2.39-2.51-2.8-6.16-1.55-9.09ZM15.34,32.6c-1.42,3.32-.86,7.31,1.72,10.03,1.74,1.74,4.1,2.95,6.55,3.01,2.46.05,4.82-.82,6.64-2.52.97-.87,1.75-2.02,2.22-3.12.46-1.08.65-2.19.69-3.47.06-2.46-.81-4.81-2.51-6.63-3.45-3.76-9.42-3.95-13.1-.46-.99.92-1.72,1.99-2.22,3.15Z"/>
  <path class="cls-1" d="M128.7,149.13s-.04.11-.04.18l-.67,11.52c.02.21.23.39.43.38.22.01.38-.1.45-.25.02-.04.03-.09.03-.14l.75-10.99,10.96.13c.2,0,.44-.1.51-.27,0,0-.13-.16-.06-.33-.02-.21-.15-.36-.43-.38l-11.48-.06c-.22-.01-.36.05-.43.21Z"/>
  <path class="cls-1" d="M46.52,73.57c-.06.15-.04.34.12.48.13.16.42.18.57.05l12.63-11.85.11-.25c.04-.09.03-.29-.06-.33-.22-.19-.42-.18-.66-.09l-12.62,11.85s-.07.08-.09.13Z"/>
  <path class="cls-1" d="M43.05,69.87c-.06.15-.04.31.03.48.22.2.42.18.7,0l12.62-11.86.07-.17c.03-.08.06-.37-.1-.44-.13-.15-.42-.18-.61.04l-12.59,11.77c-.05.06-.08.12-.11.17Z"/>
  <path class="cls-1" d="M39.66,66.21c-.07.16-.03.3.13.45.13.15.42.18.57.05l12.47-11.73.07-.17c.11-.25.06-.37-.1-.44-.13-.15-.42-.18-.61.04l-12.43,11.64c-.05.05-.08.11-.1.15Z"/>
  <path class="cls-1" d="M36.24,62.38c-.07.16-.05.31.02.49.21.18.41.18.69,0l12.36-11.46.07-.17c.11-.26-.02-.41-.1-.44-.22-.2-.42-.18-.61.03l-12.32,11.38c-.05.06-.08.12-.11.17Z"/>
  <path class="cls-1" d="M33.04,58.51c-.07.17-.03.32.11.54.13.16.41.18.61-.03l11.96-11.24.11-.25c.07-.17.03-.29-.06-.33-.21-.18-.41-.18-.65-.08l-11.97,11.24c-.05.05-.08.11-.1.15Z"/>
  <path class="cls-1" d="M29.68,54.76c-.06.14-.05.33.05.44.21.19.41.18.69,0l11.74-10.94.07-.17c.11-.26.06-.37-.1-.44-.13-.16-.42-.18-.57-.05l-11.77,11.02c-.05.04-.08.08-.1.13Z"/>
  <path class="cls-1" d="M26.41,50.82c-.07.16-.02.33.11.53.13.16.41.18.61-.03l11.39-10.59.11-.26c.07-.17.11-.25-.15-.36-.21-.19-.41-.18-.57-.05l-11.39,10.59c-.05.05-.08.11-.11.16Z"/>
  <path class="cls-1" d="M72.3,73.07c.15-.05.35-.01.47.17l69.11,76.33c.26.21,5.64,8.79,4.8,17.72-.06.12-.21.26-.38.32q-.08.03-.11-.05c-.29,0-.46-.23-.44-.43.82-8.74-4.51-17.15-4.51-17.15l-69.18-76.22c-.14-.15-.14-.43.09-.61.03-.03.08-.06.13-.08Z"/>
</svg>